<?xml version="1.0" encoding="utf-8" standalone="no"?>
<!DOCTYPE svg PUBLIC "-//W3C//DTD SVG 1.1//EN"
  "http://www.w3.org/Graphics/SVG/1.1/DTD/svg11.dtd">
<svg xmlns:xlink="http://www.w3.org/1999/xlink" width="36pt" height="72pt" viewBox="0 0 36 72" xmlns="http://www.w3.org/2000/svg" version="1.1">
 <metadata>
  <rdf:RDF xmlns:dc="http://purl.org/dc/elements/1.1/" xmlns:cc="http://creativecommons.org/ns#" xmlns:rdf="http://www.w3.org/1999/02/22-rdf-syntax-ns#">
   <cc:Work>
    <dc:type rdf:resource="http://purl.org/dc/dcmitype/StillImage"/>
    <dc:date>2025-12-08T11:52:22.046546</dc:date>
    <dc:format>image/svg+xml</dc:format>
    <dc:creator>
     <cc:Agent>
      <dc:title>Matplotlib v3.10.1, https://matplotlib.org/</dc:title>
     </cc:Agent>
    </dc:creator>
   </cc:Work>
  </rdf:RDF>
 </metadata>
 <defs>
  <style type="text/css">*{stroke-linejoin: round; stroke-linecap: butt}</style>
 </defs>
 <g id="figure_1">
  <g id="patch_1">
   <path d="M 0 72 
L 36 72 
L 36 0 
L 0 0 
z
" style="fill: #ffffff"/>
  </g>
  <g id="axes_1">
   <g id="patch_2">
    <path d="M 4.5 64.08 
L 32.4 64.08 
L 32.4 8.64 
L 4.5 8.64 
z
" style="fill: #ffffff"/>
   </g>
   <g id="matplotlib.axis_1">
    <g id="xtick_1">
     <g id="text_1">
      <!-- PMd -->
      <g transform="translate(11.909375 92.08625) rotate(-90) scale(0.1 -0.1)">
       <defs>
        <path id="DejaVuSans-50" d="M 1259 4147 
L 1259 2394 
L 2053 2394 
Q 2494 2394 2734 2622 
Q 2975 2850 2975 3272 
Q 2975 3691 2734 3919 
Q 2494 4147 2053 4147 
L 1259 4147 
z
M 628 4666 
L 2053 4666 
Q 2838 4666 3239 4311 
Q 3641 3956 3641 3272 
Q 3641 2581 3239 2228 
Q 2838 1875 2053 1875 
L 1259 1875 
L 1259 0 
L 628 0 
L 628 4666 
z
" transform="scale(0.015625)"/>
        <path id="DejaVuSans-4d" d="M 628 4666 
L 1569 4666 
L 2759 1491 
L 3956 4666 
L 4897 4666 
L 4897 0 
L 4281 0 
L 4281 4097 
L 3078 897 
L 2444 897 
L 1241 4097 
L 1241 0 
L 628 0 
L 628 4666 
z
" transform="scale(0.015625)"/>
        <path id="DejaVuSans-64" d="M 2906 2969 
L 2906 4863 
L 3481 4863 
L 3481 0 
L 2906 0 
L 2906 525 
Q 2725 213 2448 61 
Q 2172 -91 1784 -91 
Q 1150 -91 751 415 
Q 353 922 353 1747 
Q 353 2572 751 3078 
Q 1150 3584 1784 3584 
Q 2172 3584 2448 3432 
Q 2725 3281 2906 2969 
z
M 947 1747 
Q 947 1113 1208 752 
Q 1469 391 1925 391 
Q 2381 391 2643 752 
Q 2906 1113 2906 1747 
Q 2906 2381 2643 2742 
Q 2381 3103 1925 3103 
Q 1469 3103 1208 2742 
Q 947 2381 947 1747 
z
" transform="scale(0.015625)"/>
       </defs>
       <use xlink:href="#DejaVuSans-50"/>
       <use xlink:href="#DejaVuSans-4d" transform="translate(60.302734 0)"/>
       <use xlink:href="#DejaVuSans-64" transform="translate(146.582031 0)"/>
      </g>
     </g>
    </g>
    <g id="xtick_2">
     <g id="text_2">
      <!-- S1 -->
      <g transform="translate(30.509375 83.790937) rotate(-90) scale(0.1 -0.1)">
       <defs>
        <path id="DejaVuSans-53" d="M 3425 4513 
L 3425 3897 
Q 3066 4069 2747 4153 
Q 2428 4238 2131 4238 
Q 1616 4238 1336 4038 
Q 1056 3838 1056 3469 
Q 1056 3159 1242 3001 
Q 1428 2844 1947 2747 
L 2328 2669 
Q 3034 2534 3370 2195 
Q 3706 1856 3706 1288 
Q 3706 609 3251 259 
Q 2797 -91 1919 -91 
Q 1588 -91 1214 -16 
Q 841 59 441 206 
L 441 856 
Q 825 641 1194 531 
Q 1563 422 1919 422 
Q 2459 422 2753 634 
Q 3047 847 3047 1241 
Q 3047 1584 2836 1778 
Q 2625 1972 2144 2069 
L 1759 2144 
Q 1053 2284 737 2584 
Q 422 2884 422 3419 
Q 422 4038 858 4394 
Q 1294 4750 2059 4750 
Q 2388 4750 2728 4690 
Q 3069 4631 3425 4513 
z
" transform="scale(0.015625)"/>
        <path id="DejaVuSans-31" d="M 794 531 
L 1825 531 
L 1825 4091 
L 703 3866 
L 703 4441 
L 1819 4666 
L 2450 4666 
L 2450 531 
L 3481 531 
L 3481 0 
L 794 0 
L 794 531 
z
" transform="scale(0.015625)"/>
       </defs>
       <use xlink:href="#DejaVuSans-53"/>
       <use xlink:href="#DejaVuSans-31" transform="translate(63.476562 0)"/>
      </g>
     </g>
    </g>
   </g>
   <g id="matplotlib.axis_2">
    <g id="ytick_1">
     <g id="line2d_1">
      <defs>
       <path id="ma25a248617" d="M 0 0 
L -3.5 0 
" style="stroke: #000000; stroke-width: 0.8"/>
      </defs>
      <g>
       <use xlink:href="#ma25a248617" x="4.5" y="61.672847" style="stroke: #000000; stroke-width: 0.8"/>
      </g>
     </g>
     <g id="text_3">
      <!-- 0.0 -->
      <g transform="translate(-18.403125 65.472066) scale(0.1 -0.1)">
       <defs>
        <path id="DejaVuSans-30" d="M 2034 4250 
Q 1547 4250 1301 3770 
Q 1056 3291 1056 2328 
Q 1056 1369 1301 889 
Q 1547 409 2034 409 
Q 2525 409 2770 889 
Q 3016 1369 3016 2328 
Q 3016 3291 2770 3770 
Q 2525 4250 2034 4250 
z
M 2034 4750 
Q 2819 4750 3233 4129 
Q 3647 3509 3647 2328 
Q 3647 1150 3233 529 
Q 2819 -91 2034 -91 
Q 1250 -91 836 529 
Q 422 1150 422 2328 
Q 422 3509 836 4129 
Q 1250 4750 2034 4750 
z
" transform="scale(0.015625)"/>
        <path id="DejaVuSans-2e" d="M 684 794 
L 1344 794 
L 1344 0 
L 684 0 
L 684 794 
z
" transform="scale(0.015625)"/>
       </defs>
       <use xlink:href="#DejaVuSans-30"/>
       <use xlink:href="#DejaVuSans-2e" transform="translate(63.623047 0)"/>
       <use xlink:href="#DejaVuSans-30" transform="translate(95.410156 0)"/>
      </g>
     </g>
    </g>
    <g id="ytick_2">
     <g id="line2d_2">
      <g>
       <use xlink:href="#ma25a248617" x="4.5" y="28.224198" style="stroke: #000000; stroke-width: 0.8"/>
      </g>
     </g>
     <g id="text_4">
      <!-- 0.2 -->
      <g transform="translate(-18.403125 32.023417) scale(0.1 -0.1)">
       <defs>
        <path id="DejaVuSans-32" d="M 1228 531 
L 3431 531 
L 3431 0 
L 469 0 
L 469 531 
Q 828 903 1448 1529 
Q 2069 2156 2228 2338 
Q 2531 2678 2651 2914 
Q 2772 3150 2772 3378 
Q 2772 3750 2511 3984 
Q 2250 4219 1831 4219 
Q 1534 4219 1204 4116 
Q 875 4013 500 3803 
L 500 4441 
Q 881 4594 1212 4672 
Q 1544 4750 1819 4750 
Q 2544 4750 2975 4387 
Q 3406 4025 3406 3419 
Q 3406 3131 3298 2873 
Q 3191 2616 2906 2266 
Q 2828 2175 2409 1742 
Q 1991 1309 1228 531 
z
" transform="scale(0.015625)"/>
       </defs>
       <use xlink:href="#DejaVuSans-30"/>
       <use xlink:href="#DejaVuSans-2e" transform="translate(63.623047 0)"/>
       <use xlink:href="#DejaVuSans-32" transform="translate(95.410156 0)"/>
      </g>
     </g>
    </g>
    <g id="text_5">
     <!-- weight -->
     <g transform="translate(-24.482813 53.217813) rotate(-90) scale(0.1 -0.1)">
      <defs>
       <path id="DejaVuSans-77" d="M 269 3500 
L 844 3500 
L 1563 769 
L 2278 3500 
L 2956 3500 
L 3675 769 
L 4391 3500 
L 4966 3500 
L 4050 0 
L 3372 0 
L 2619 2869 
L 1863 0 
L 1184 0 
L 269 3500 
z
" transform="scale(0.015625)"/>
       <path id="DejaVuSans-65" d="M 3597 1894 
L 3597 1613 
L 953 1613 
Q 991 1019 1311 708 
Q 1631 397 2203 397 
Q 2534 397 2845 478 
Q 3156 559 3463 722 
L 3463 178 
Q 3153 47 2828 -22 
Q 2503 -91 2169 -91 
Q 1331 -91 842 396 
Q 353 884 353 1716 
Q 353 2575 817 3079 
Q 1281 3584 2069 3584 
Q 2775 3584 3186 3129 
Q 3597 2675 3597 1894 
z
M 3022 2063 
Q 3016 2534 2758 2815 
Q 2500 3097 2075 3097 
Q 1594 3097 1305 2825 
Q 1016 2553 972 2059 
L 3022 2063 
z
" transform="scale(0.015625)"/>
       <path id="DejaVuSans-69" d="M 603 3500 
L 1178 3500 
L 1178 0 
L 603 0 
L 603 3500 
z
M 603 4863 
L 1178 4863 
L 1178 4134 
L 603 4134 
L 603 4863 
z
" transform="scale(0.015625)"/>
       <path id="DejaVuSans-67" d="M 2906 1791 
Q 2906 2416 2648 2759 
Q 2391 3103 1925 3103 
Q 1463 3103 1205 2759 
Q 947 2416 947 1791 
Q 947 1169 1205 825 
Q 1463 481 1925 481 
Q 2391 481 2648 825 
Q 2906 1169 2906 1791 
z
M 3481 434 
Q 3481 -459 3084 -895 
Q 2688 -1331 1869 -1331 
Q 1566 -1331 1297 -1286 
Q 1028 -1241 775 -1147 
L 775 -588 
Q 1028 -725 1275 -790 
Q 1522 -856 1778 -856 
Q 2344 -856 2625 -561 
Q 2906 -266 2906 331 
L 2906 616 
Q 2728 306 2450 153 
Q 2172 0 1784 0 
Q 1141 0 747 490 
Q 353 981 353 1791 
Q 353 2603 747 3093 
Q 1141 3584 1784 3584 
Q 2172 3584 2450 3431 
Q 2728 3278 2906 2969 
L 2906 3500 
L 3481 3500 
L 3481 434 
z
" transform="scale(0.015625)"/>
       <path id="DejaVuSans-68" d="M 3513 2113 
L 3513 0 
L 2938 0 
L 2938 2094 
Q 2938 2591 2744 2837 
Q 2550 3084 2163 3084 
Q 1697 3084 1428 2787 
Q 1159 2491 1159 1978 
L 1159 0 
L 581 0 
L 581 4863 
L 1159 4863 
L 1159 2956 
Q 1366 3272 1645 3428 
Q 1925 3584 2291 3584 
Q 2894 3584 3203 3211 
Q 3513 2838 3513 2113 
z
" transform="scale(0.015625)"/>
       <path id="DejaVuSans-74" d="M 1172 4494 
L 1172 3500 
L 2356 3500 
L 2356 3053 
L 1172 3053 
L 1172 1153 
Q 1172 725 1289 603 
Q 1406 481 1766 481 
L 2356 481 
L 2356 0 
L 1766 0 
Q 1100 0 847 248 
Q 594 497 594 1153 
L 594 3053 
L 172 3053 
L 172 3500 
L 594 3500 
L 594 4494 
L 1172 4494 
z
" transform="scale(0.015625)"/>
      </defs>
      <use xlink:href="#DejaVuSans-77"/>
      <use xlink:href="#DejaVuSans-65" transform="translate(81.787109 0)"/>
      <use xlink:href="#DejaVuSans-69" transform="translate(143.310547 0)"/>
      <use xlink:href="#DejaVuSans-67" transform="translate(171.09375 0)"/>
      <use xlink:href="#DejaVuSans-68" transform="translate(234.570312 0)"/>
      <use xlink:href="#DejaVuSans-74" transform="translate(297.949219 0)"/>
     </g>
    </g>
   </g>
   <g id="line2d_3">
    <path d="M 9.15 52.557732 
L 27.75 52.645997 
" clip-path="url(#pb6736bdd40)" style="fill: none; stroke: #f08080; stroke-width: 1.5; stroke-linecap: square"/>
    <defs>
     <path id="m6feeeeb57b" d="M -2.5 2.5 
L 2.5 2.5 
L 2.5 -2.5 
L -2.5 -2.5 
z
" style="stroke: #f08080; stroke-width: 0.75; stroke-linejoin: miter"/>
    </defs>
    <g clip-path="url(#pb6736bdd40)">
     <use xlink:href="#m6feeeeb57b" x="9.15" y="52.557732" style="fill: #f08080; stroke: #f08080; stroke-width: 0.75; stroke-linejoin: miter"/>
     <use xlink:href="#m6feeeeb57b" x="27.75" y="52.645997" style="fill: #f08080; stroke: #f08080; stroke-width: 0.75; stroke-linejoin: miter"/>
    </g>
   </g>
   <g id="LineCollection_1">
    <path d="M 9.15 54.621194 
L 9.15 50.49427 
" clip-path="url(#pb6736bdd40)" style="fill: none; stroke: #f08080; stroke-width: 1.5; stroke-linecap: square"/>
    <path d="M 27.75 54.647221 
L 27.75 50.644774 
" clip-path="url(#pb6736bdd40)" style="fill: none; stroke: #f08080; stroke-width: 1.5; stroke-linecap: square"/>
   </g>
   <g id="line2d_4">
    <path d="M 9.15 42.928612 
L 27.75 60.371286 
" clip-path="url(#pb6736bdd40)" style="fill: none; stroke: #a52a2a; stroke-width: 1.5; stroke-linecap: square"/>
    <defs>
     <path id="m946427b882" d="M -2.5 2.5 
L 2.5 2.5 
L 2.5 -2.5 
L -2.5 -2.5 
z
" style="stroke: #a52a2a; stroke-width: 0.75; stroke-linejoin: miter"/>
    </defs>
    <g clip-path="url(#pb6736bdd40)">
     <use xlink:href="#m946427b882" x="9.15" y="42.928612" style="fill: #a52a2a; stroke: #a52a2a; stroke-width: 0.75; stroke-linejoin: miter"/>
     <use xlink:href="#m946427b882" x="27.75" y="60.371286" style="fill: #a52a2a; stroke: #a52a2a; stroke-width: 0.75; stroke-linejoin: miter"/>
    </g>
   </g>
   <g id="LineCollection_2">
    <path d="M 9.15 45.37078 
L 9.15 40.486445 
" clip-path="url(#pb6736bdd40)" style="fill: none; stroke: #a52a2a; stroke-width: 1.5; stroke-linecap: square"/>
    <path d="M 27.75 60.656001 
L 27.75 60.086571 
" clip-path="url(#pb6736bdd40)" style="fill: none; stroke: #a52a2a; stroke-width: 1.5; stroke-linecap: square"/>
   </g>
   <g id="line2d_5"/>
   <g id="line2d_6"/>
   <g id="line2d_7"/>
   <g id="line2d_8"/>
   <g id="patch_3">
    <path d="M 4.5 64.08 
L 4.5 8.64 
" style="fill: none; stroke: #000000; stroke-width: 0.8; stroke-linejoin: miter; stroke-linecap: square"/>
   </g>
   <g id="PathCollection_1">
    <defs>
     <path id="C0_0_2120dfbc3f" d="M 0 1 
C 0.265203 1 0.51958 0.894634 0.707107 0.707107 
C 0.894634 0.51958 1 0.265203 1 -0 
C 1 -0.265203 0.894634 -0.51958 0.707107 -0.707107 
C 0.51958 -0.894634 0.265203 -1 0 -1 
C -0.265203 -1 -0.51958 -0.894634 -0.707107 -0.707107 
C -0.894634 -0.51958 -1 -0.265203 -1 0 
C -1 0.265203 -0.894634 0.51958 -0.707107 0.707107 
C -0.51958 0.894634 -0.265203 1 0 1 
z
"/>
    </defs>
    <g clip-path="url(#pb6736bdd40)">
     <use xlink:href="#C0_0_2120dfbc3f" x="4.991339" y="55.027046" style="fill: #f08080"/>
    </g>
    <g clip-path="url(#pb6736bdd40)">
     <use xlink:href="#C0_0_2120dfbc3f" x="5.912311" y="54.452705" style="fill: #f08080"/>
    </g>
    <g clip-path="url(#pb6736bdd40)">
     <use xlink:href="#C0_0_2120dfbc3f" x="4.848511" y="57.512254" style="fill: #f08080"/>
    </g>
    <g clip-path="url(#pb6736bdd40)">
     <use xlink:href="#C0_0_2120dfbc3f" x="5.915347" y="58.365504" style="fill: #f08080"/>
    </g>
    <g clip-path="url(#pb6736bdd40)">
     <use xlink:href="#C0_0_2120dfbc3f" x="5.631619" y="57.944161" style="fill: #f08080"/>
    </g>
    <g clip-path="url(#pb6736bdd40)">
     <use xlink:href="#C0_0_2120dfbc3f" x="4.622719" y="53.905888" style="fill: #f08080"/>
    </g>
    <g clip-path="url(#pb6736bdd40)">
     <use xlink:href="#C0_0_2120dfbc3f" x="6.101225" y="44.161821" style="fill: #f08080"/>
    </g>
    <g clip-path="url(#pb6736bdd40)">
     <use xlink:href="#C0_0_2120dfbc3f" x="6.128467" y="45.736813" style="fill: #f08080"/>
    </g>
    <g clip-path="url(#pb6736bdd40)">
     <use xlink:href="#C0_0_2120dfbc3f" x="6.288861" y="45.800801" style="fill: #f08080"/>
    </g>
    <g clip-path="url(#pb6736bdd40)">
     <use xlink:href="#C0_0_2120dfbc3f" x="6.115722" y="42.110027" style="fill: #f08080"/>
    </g>
    <g clip-path="url(#pb6736bdd40)">
     <use xlink:href="#C0_0_2120dfbc3f" x="4.636866" y="28.701673" style="fill: #f08080"/>
    </g>
    <g clip-path="url(#pb6736bdd40)">
     <use xlink:href="#C0_0_2120dfbc3f" x="4.612259" y="57.015381" style="fill: #f08080"/>
    </g>
    <g clip-path="url(#pb6736bdd40)">
     <use xlink:href="#C0_0_2120dfbc3f" x="5.461543" y="55.563103" style="fill: #f08080"/>
    </g>
    <g clip-path="url(#pb6736bdd40)">
     <use xlink:href="#C0_0_2120dfbc3f" x="4.898644" y="57.0439" style="fill: #f08080"/>
    </g>
    <g clip-path="url(#pb6736bdd40)">
     <use xlink:href="#C0_0_2120dfbc3f" x="4.929332" y="59.458487" style="fill: #f08080"/>
    </g>
    <g clip-path="url(#pb6736bdd40)">
     <use xlink:href="#C0_0_2120dfbc3f" x="5.603274" y="60.889082" style="fill: #f08080"/>
    </g>
    <g clip-path="url(#pb6736bdd40)">
     <use xlink:href="#C0_0_2120dfbc3f" x="4.56171" y="59.792791" style="fill: #f08080"/>
    </g>
   </g>
   <g id="PathCollection_2">
    <defs>
     <path id="C1_0_820f4f6413" d="M 0 1 
C 0.265203 1 0.51958 0.894634 0.707107 0.707107 
C 0.894634 0.51958 1 0.265203 1 -0 
C 1 -0.265203 0.894634 -0.51958 0.707107 -0.707107 
C 0.51958 -0.894634 0.265203 -1 0 -1 
C -0.265203 -1 -0.51958 -0.894634 -0.707107 -0.707107 
C -0.894634 -0.51958 -1 -0.265203 -1 0 
C -1 0.265203 -0.894634 0.51958 -0.707107 0.707107 
C -0.51958 0.894634 -0.265203 1 0 1 
z
"/>
    </defs>
    <g clip-path="url(#pb6736bdd40)">
     <use xlink:href="#C1_0_820f4f6413" x="12.90067" y="11.16" style="fill: #a52a2a"/>
    </g>
    <g clip-path="url(#pb6736bdd40)">
     <use xlink:href="#C1_0_820f4f6413" x="13.539834" y="34.010971" style="fill: #a52a2a"/>
    </g>
    <g clip-path="url(#pb6736bdd40)">
     <use xlink:href="#C1_0_820f4f6413" x="13.302601" y="39.819982" style="fill: #a52a2a"/>
    </g>
    <g clip-path="url(#pb6736bdd40)">
     <use xlink:href="#C1_0_820f4f6413" x="12.978781" y="40.200001" style="fill: #a52a2a"/>
    </g>
    <g clip-path="url(#pb6736bdd40)">
     <use xlink:href="#C1_0_820f4f6413" x="13.411961" y="46.566995" style="fill: #a52a2a"/>
    </g>
    <g clip-path="url(#pb6736bdd40)">
     <use xlink:href="#C1_0_820f4f6413" x="11.943598" y="43.939412" style="fill: #a52a2a"/>
    </g>
    <g clip-path="url(#pb6736bdd40)">
     <use xlink:href="#C1_0_820f4f6413" x="13.687651" y="42.531375" style="fill: #a52a2a"/>
    </g>
    <g clip-path="url(#pb6736bdd40)">
     <use xlink:href="#C1_0_820f4f6413" x="12.536164" y="50.350252" style="fill: #a52a2a"/>
    </g>
    <g clip-path="url(#pb6736bdd40)">
     <use xlink:href="#C1_0_820f4f6413" x="13.65599" y="39.331388" style="fill: #a52a2a"/>
    </g>
    <g clip-path="url(#pb6736bdd40)">
     <use xlink:href="#C1_0_820f4f6413" x="12.766365" y="37.570877" style="fill: #a52a2a"/>
    </g>
    <g clip-path="url(#pb6736bdd40)">
     <use xlink:href="#C1_0_820f4f6413" x="12.03596" y="43.272397" style="fill: #a52a2a"/>
    </g>
    <g clip-path="url(#pb6736bdd40)">
     <use xlink:href="#C1_0_820f4f6413" x="12.528987" y="45.885179" style="fill: #a52a2a"/>
    </g>
    <g clip-path="url(#pb6736bdd40)">
     <use xlink:href="#C1_0_820f4f6413" x="13.300284" y="44.940754" style="fill: #a52a2a"/>
    </g>
    <g clip-path="url(#pb6736bdd40)">
     <use xlink:href="#C1_0_820f4f6413" x="12.232615" y="52.858061" style="fill: #a52a2a"/>
    </g>
    <g clip-path="url(#pb6736bdd40)">
     <use xlink:href="#C1_0_820f4f6413" x="12.031206" y="54.539545" style="fill: #a52a2a"/>
    </g>
    <g clip-path="url(#pb6736bdd40)">
     <use xlink:href="#C1_0_820f4f6413" x="13.071258" y="48.644622" style="fill: #a52a2a"/>
    </g>
    <g clip-path="url(#pb6736bdd40)">
     <use xlink:href="#C1_0_820f4f6413" x="12.353121" y="54.164598" style="fill: #a52a2a"/>
    </g>
   </g>
   <g id="PathCollection_3">
    <defs>
     <path id="C2_0_13be4e9a0d" d="M 0 1 
C 0.265203 1 0.51958 0.894634 0.707107 0.707107 
C 0.894634 0.51958 1 0.265203 1 -0 
C 1 -0.265203 0.894634 -0.51958 0.707107 -0.707107 
C 0.51958 -0.894634 0.265203 -1 0 -1 
C -0.265203 -1 -0.51958 -0.894634 -0.707107 -0.707107 
C -0.894634 -0.51958 -1 -0.265203 -1 0 
C -1 0.265203 -0.894634 0.51958 -0.707107 0.707107 
C -0.51958 0.894634 -0.265203 1 0 1 
z
"/>
    </defs>
    <g clip-path="url(#pb6736bdd40)">
     <use xlink:href="#C2_0_13be4e9a0d" x="23.363703" y="57.527561" style="fill: #f08080"/>
    </g>
    <g clip-path="url(#pb6736bdd40)">
     <use xlink:href="#C2_0_13be4e9a0d" x="23.458324" y="54.006312" style="fill: #f08080"/>
    </g>
    <g clip-path="url(#pb6736bdd40)">
     <use xlink:href="#C2_0_13be4e9a0d" x="24.023665" y="55.032199" style="fill: #f08080"/>
    </g>
    <g clip-path="url(#pb6736bdd40)">
     <use xlink:href="#C2_0_13be4e9a0d" x="24.73741" y="51.489791" style="fill: #f08080"/>
    </g>
    <g clip-path="url(#pb6736bdd40)">
     <use xlink:href="#C2_0_13be4e9a0d" x="24.042874" y="57.23343" style="fill: #f08080"/>
    </g>
    <g clip-path="url(#pb6736bdd40)">
     <use xlink:href="#C2_0_13be4e9a0d" x="23.9818" y="44.157912" style="fill: #f08080"/>
    </g>
    <g clip-path="url(#pb6736bdd40)">
     <use xlink:href="#C2_0_13be4e9a0d" x="24.053386" y="41.548561" style="fill: #f08080"/>
    </g>
    <g clip-path="url(#pb6736bdd40)">
     <use xlink:href="#C2_0_13be4e9a0d" x="24.65602" y="54.055973" style="fill: #f08080"/>
    </g>
    <g clip-path="url(#pb6736bdd40)">
     <use xlink:href="#C2_0_13be4e9a0d" x="23.640101" y="58.762236" style="fill: #f08080"/>
    </g>
   </g>
   <g id="PathCollection_4">
    <defs>
     <path id="C3_0_14f8cb14d5" d="M 0 1 
C 0.265203 1 0.51958 0.894634 0.707107 0.707107 
C 0.894634 0.51958 1 0.265203 1 -0 
C 1 -0.265203 0.894634 -0.51958 0.707107 -0.707107 
C 0.51958 -0.894634 0.265203 -1 0 -1 
C -0.265203 -1 -0.51958 -0.894634 -0.707107 -0.707107 
C -0.894634 -0.51958 -1 -0.265203 -1 0 
C -1 0.265203 -0.894634 0.51958 -0.707107 0.707107 
C -0.51958 0.894634 -0.265203 1 0 1 
z
"/>
    </defs>
    <g clip-path="url(#pb6736bdd40)">
     <use xlink:href="#C3_0_14f8cb14d5" x="31.873322" y="60.762254" style="fill: #a52a2a"/>
    </g>
    <g clip-path="url(#pb6736bdd40)">
     <use xlink:href="#C3_0_14f8cb14d5" x="30.826737" y="60.848082" style="fill: #a52a2a"/>
    </g>
    <g clip-path="url(#pb6736bdd40)">
     <use xlink:href="#C3_0_14f8cb14d5" x="30.807351" y="61.56" style="fill: #a52a2a"/>
    </g>
    <g clip-path="url(#pb6736bdd40)">
     <use xlink:href="#C3_0_14f8cb14d5" x="32.285258" y="59.993513" style="fill: #a52a2a"/>
    </g>
    <g clip-path="url(#pb6736bdd40)">
     <use xlink:href="#C3_0_14f8cb14d5" x="30.849149" y="59.68349" style="fill: #a52a2a"/>
    </g>
    <g clip-path="url(#pb6736bdd40)">
     <use xlink:href="#C3_0_14f8cb14d5" x="31.775595" y="60.725754" style="fill: #a52a2a"/>
    </g>
    <g clip-path="url(#pb6736bdd40)">
     <use xlink:href="#C3_0_14f8cb14d5" x="30.871806" y="58.672136" style="fill: #a52a2a"/>
    </g>
    <g clip-path="url(#pb6736bdd40)">
     <use xlink:href="#C3_0_14f8cb14d5" x="30.697038" y="60.128555" style="fill: #a52a2a"/>
    </g>
    <g clip-path="url(#pb6736bdd40)">
     <use xlink:href="#C3_0_14f8cb14d5" x="31.356743" y="60.967792" style="fill: #a52a2a"/>
    </g>
   </g>
   <g id="legend_1">
    <g id="line2d_9">
     <path style="fill: none; stroke: #f08080; stroke-width: 1.5; stroke-linecap: square"/>
     <g/>
    </g>
    <g id="text_6">
     <!-- LFPs (10-20Hz) -->
     <g transform="translate(-0.601875 -11.96625) scale(0.08 -0.08)">
      <defs>
       <path id="DejaVuSans-4c" d="M 628 4666 
L 1259 4666 
L 1259 531 
L 3531 531 
L 3531 0 
L 628 0 
L 628 4666 
z
" transform="scale(0.015625)"/>
       <path id="DejaVuSans-46" d="M 628 4666 
L 3309 4666 
L 3309 4134 
L 1259 4134 
L 1259 2759 
L 3109 2759 
L 3109 2228 
L 1259 2228 
L 1259 0 
L 628 0 
L 628 4666 
z
" transform="scale(0.015625)"/>
       <path id="DejaVuSans-73" d="M 2834 3397 
L 2834 2853 
Q 2591 2978 2328 3040 
Q 2066 3103 1784 3103 
Q 1356 3103 1142 2972 
Q 928 2841 928 2578 
Q 928 2378 1081 2264 
Q 1234 2150 1697 2047 
L 1894 2003 
Q 2506 1872 2764 1633 
Q 3022 1394 3022 966 
Q 3022 478 2636 193 
Q 2250 -91 1575 -91 
Q 1294 -91 989 -36 
Q 684 19 347 128 
L 347 722 
Q 666 556 975 473 
Q 1284 391 1588 391 
Q 1994 391 2212 530 
Q 2431 669 2431 922 
Q 2431 1156 2273 1281 
Q 2116 1406 1581 1522 
L 1381 1569 
Q 847 1681 609 1914 
Q 372 2147 372 2553 
Q 372 3047 722 3315 
Q 1072 3584 1716 3584 
Q 2034 3584 2315 3537 
Q 2597 3491 2834 3397 
z
" transform="scale(0.015625)"/>
       <path id="DejaVuSans-20" transform="scale(0.015625)"/>
       <path id="DejaVuSans-28" d="M 1984 4856 
Q 1566 4138 1362 3434 
Q 1159 2731 1159 2009 
Q 1159 1288 1364 580 
Q 1569 -128 1984 -844 
L 1484 -844 
Q 1016 -109 783 600 
Q 550 1309 550 2009 
Q 550 2706 781 3412 
Q 1013 4119 1484 4856 
L 1984 4856 
z
" transform="scale(0.015625)"/>
       <path id="DejaVuSans-2d" d="M 313 2009 
L 1997 2009 
L 1997 1497 
L 313 1497 
L 313 2009 
z
" transform="scale(0.015625)"/>
       <path id="DejaVuSans-48" d="M 628 4666 
L 1259 4666 
L 1259 2753 
L 3553 2753 
L 3553 4666 
L 4184 4666 
L 4184 0 
L 3553 0 
L 3553 2222 
L 1259 2222 
L 1259 0 
L 628 0 
L 628 4666 
z
" transform="scale(0.015625)"/>
       <path id="DejaVuSans-7a" d="M 353 3500 
L 3084 3500 
L 3084 2975 
L 922 459 
L 3084 459 
L 3084 0 
L 275 0 
L 275 525 
L 2438 3041 
L 353 3041 
L 353 3500 
z
" transform="scale(0.015625)"/>
       <path id="DejaVuSans-29" d="M 513 4856 
L 1013 4856 
Q 1481 4119 1714 3412 
Q 1947 2706 1947 2009 
Q 1947 1309 1714 600 
Q 1481 -109 1013 -844 
L 513 -844 
Q 928 -128 1133 580 
Q 1338 1288 1338 2009 
Q 1338 2731 1133 3434 
Q 928 4138 513 4856 
z
" transform="scale(0.015625)"/>
      </defs>
      <use xlink:href="#DejaVuSans-4c"/>
      <use xlink:href="#DejaVuSans-46" transform="translate(55.712891 0)"/>
      <use xlink:href="#DejaVuSans-50" transform="translate(113.232422 0)"/>
      <use xlink:href="#DejaVuSans-73" transform="translate(171.785156 0)"/>
      <use xlink:href="#DejaVuSans-20" transform="translate(223.884766 0)"/>
      <use xlink:href="#DejaVuSans-28" transform="translate(255.671875 0)"/>
      <use xlink:href="#DejaVuSans-31" transform="translate(294.685547 0)"/>
      <use xlink:href="#DejaVuSans-30" transform="translate(358.308594 0)"/>
      <use xlink:href="#DejaVuSans-2d" transform="translate(421.931641 0)"/>
      <use xlink:href="#DejaVuSans-32" transform="translate(458.015625 0)"/>
      <use xlink:href="#DejaVuSans-30" transform="translate(521.638672 0)"/>
      <use xlink:href="#DejaVuSans-48" transform="translate(585.261719 0)"/>
      <use xlink:href="#DejaVuSans-7a" transform="translate(660.457031 0)"/>
      <use xlink:href="#DejaVuSans-29" transform="translate(712.947266 0)"/>
     </g>
    </g>
    <g id="line2d_10">
     <path style="fill: none; stroke: #a52a2a; stroke-width: 1.5; stroke-linecap: square"/>
     <g/>
    </g>
    <g id="text_7">
     <!-- spiking activity -->
     <g transform="translate(-0.601875 -0.22375) scale(0.08 -0.08)">
      <defs>
       <path id="DejaVuSans-70" d="M 1159 525 
L 1159 -1331 
L 581 -1331 
L 581 3500 
L 1159 3500 
L 1159 2969 
Q 1341 3281 1617 3432 
Q 1894 3584 2278 3584 
Q 2916 3584 3314 3078 
Q 3713 2572 3713 1747 
Q 3713 922 3314 415 
Q 2916 -91 2278 -91 
Q 1894 -91 1617 61 
Q 1341 213 1159 525 
z
M 3116 1747 
Q 3116 2381 2855 2742 
Q 2594 3103 2138 3103 
Q 1681 3103 1420 2742 
Q 1159 2381 1159 1747 
Q 1159 1113 1420 752 
Q 1681 391 2138 391 
Q 2594 391 2855 752 
Q 3116 1113 3116 1747 
z
" transform="scale(0.015625)"/>
       <path id="DejaVuSans-6b" d="M 581 4863 
L 1159 4863 
L 1159 1991 
L 2875 3500 
L 3609 3500 
L 1753 1863 
L 3688 0 
L 2938 0 
L 1159 1709 
L 1159 0 
L 581 0 
L 581 4863 
z
" transform="scale(0.015625)"/>
       <path id="DejaVuSans-6e" d="M 3513 2113 
L 3513 0 
L 2938 0 
L 2938 2094 
Q 2938 2591 2744 2837 
Q 2550 3084 2163 3084 
Q 1697 3084 1428 2787 
Q 1159 2491 1159 1978 
L 1159 0 
L 581 0 
L 581 3500 
L 1159 3500 
L 1159 2956 
Q 1366 3272 1645 3428 
Q 1925 3584 2291 3584 
Q 2894 3584 3203 3211 
Q 3513 2838 3513 2113 
z
" transform="scale(0.015625)"/>
       <path id="DejaVuSans-61" d="M 2194 1759 
Q 1497 1759 1228 1600 
Q 959 1441 959 1056 
Q 959 750 1161 570 
Q 1363 391 1709 391 
Q 2188 391 2477 730 
Q 2766 1069 2766 1631 
L 2766 1759 
L 2194 1759 
z
M 3341 1997 
L 3341 0 
L 2766 0 
L 2766 531 
Q 2569 213 2275 61 
Q 1981 -91 1556 -91 
Q 1019 -91 701 211 
Q 384 513 384 1019 
Q 384 1609 779 1909 
Q 1175 2209 1959 2209 
L 2766 2209 
L 2766 2266 
Q 2766 2663 2505 2880 
Q 2244 3097 1772 3097 
Q 1472 3097 1187 3025 
Q 903 2953 641 2809 
L 641 3341 
Q 956 3463 1253 3523 
Q 1550 3584 1831 3584 
Q 2591 3584 2966 3190 
Q 3341 2797 3341 1997 
z
" transform="scale(0.015625)"/>
       <path id="DejaVuSans-63" d="M 3122 3366 
L 3122 2828 
Q 2878 2963 2633 3030 
Q 2388 3097 2138 3097 
Q 1578 3097 1268 2742 
Q 959 2388 959 1747 
Q 959 1106 1268 751 
Q 1578 397 2138 397 
Q 2388 397 2633 464 
Q 2878 531 3122 666 
L 3122 134 
Q 2881 22 2623 -34 
Q 2366 -91 2075 -91 
Q 1284 -91 818 406 
Q 353 903 353 1747 
Q 353 2603 823 3093 
Q 1294 3584 2113 3584 
Q 2378 3584 2631 3529 
Q 2884 3475 3122 3366 
z
" transform="scale(0.015625)"/>
       <path id="DejaVuSans-76" d="M 191 3500 
L 800 3500 
L 1894 563 
L 2988 3500 
L 3597 3500 
L 2284 0 
L 1503 0 
L 191 3500 
z
" transform="scale(0.015625)"/>
       <path id="DejaVuSans-79" d="M 2059 -325 
Q 1816 -950 1584 -1140 
Q 1353 -1331 966 -1331 
L 506 -1331 
L 506 -850 
L 844 -850 
Q 1081 -850 1212 -737 
Q 1344 -625 1503 -206 
L 1606 56 
L 191 3500 
L 800 3500 
L 1894 763 
L 2988 3500 
L 3597 3500 
L 2059 -325 
z
" transform="scale(0.015625)"/>
      </defs>
      <use xlink:href="#DejaVuSans-73"/>
      <use xlink:href="#DejaVuSans-70" transform="translate(52.099609 0)"/>
      <use xlink:href="#DejaVuSans-69" transform="translate(115.576172 0)"/>
      <use xlink:href="#DejaVuSans-6b" transform="translate(143.359375 0)"/>
      <use xlink:href="#DejaVuSans-69" transform="translate(201.269531 0)"/>
      <use xlink:href="#DejaVuSans-6e" transform="translate(229.052734 0)"/>
      <use xlink:href="#DejaVuSans-67" transform="translate(292.431641 0)"/>
      <use xlink:href="#DejaVuSans-20" transform="translate(355.908203 0)"/>
      <use xlink:href="#DejaVuSans-61" transform="translate(387.695312 0)"/>
      <use xlink:href="#DejaVuSans-63" transform="translate(448.974609 0)"/>
      <use xlink:href="#DejaVuSans-74" transform="translate(503.955078 0)"/>
      <use xlink:href="#DejaVuSans-69" transform="translate(543.164062 0)"/>
      <use xlink:href="#DejaVuSans-76" transform="translate(570.947266 0)"/>
      <use xlink:href="#DejaVuSans-69" transform="translate(630.126953 0)"/>
      <use xlink:href="#DejaVuSans-74" transform="translate(657.910156 0)"/>
      <use xlink:href="#DejaVuSans-79" transform="translate(697.119141 0)"/>
     </g>
    </g>
   </g>
  </g>
 </g>
 <defs>
  <clipPath id="pb6736bdd40">
   <rect x="4.5" y="8.64" width="27.9" height="55.44"/>
  </clipPath>
 </defs>
</svg>
