<?xml version="1.0" encoding="utf-8" standalone="no"?>
<!DOCTYPE svg PUBLIC "-//W3C//DTD SVG 1.1//EN"
  "http://www.w3.org/Graphics/SVG/1.1/DTD/svg11.dtd">
<svg xmlns:xlink="http://www.w3.org/1999/xlink" width="576pt" height="216pt" viewBox="0 0 576 216" xmlns="http://www.w3.org/2000/svg" version="1.1">
 <metadata>
  <rdf:RDF xmlns:dc="http://purl.org/dc/elements/1.1/" xmlns:cc="http://creativecommons.org/ns#" xmlns:rdf="http://www.w3.org/1999/02/22-rdf-syntax-ns#">
   <cc:Work>
    <dc:type rdf:resource="http://purl.org/dc/dcmitype/StillImage"/>
    <dc:date>2025-10-25T13:45:00.677473</dc:date>
    <dc:format>image/svg+xml</dc:format>
    <dc:creator>
     <cc:Agent>
      <dc:title>Matplotlib v3.10.1, https://matplotlib.org/</dc:title>
     </cc:Agent>
    </dc:creator>
   </cc:Work>
  </rdf:RDF>
 </metadata>
 <defs>
  <style type="text/css">*{stroke-linejoin: round; stroke-linecap: butt}</style>
 </defs>
 <g id="figure_1">
  <g id="patch_1">
   <path d="M 0 216 
L 576 216 
L 576 0 
L 0 0 
z
" style="fill: #ffffff"/>
  </g>
  <g id="axes_1">
   <g id="patch_2">
    <path d="M 53.44 167.24 
L 110.211289 167.24 
L 110.211289 50.64 
L 53.44 50.64 
z
" style="fill: #ffffff"/>
   </g>
   <g id="FillBetweenPolyCollection_1">
    <defs>
     <path id="mdb56347379" d="M 53.44 -99.372309 
L 53.44 -95.172808 
L 57.807022 -87.288694 
L 62.174044 -92.305825 
L 66.541067 -97.221278 
L 70.908089 -113.731416 
L 75.275111 -121.305024 
L 79.642133 -122.221575 
L 84.009156 -117.654756 
L 88.376178 -106.976139 
L 92.7432 -100.253709 
L 97.110222 -92.306266 
L 101.477245 -88.590841 
L 105.844267 -89.84181 
L 110.211289 -97.225871 
L 110.211289 -102.797375 
L 110.211289 -102.797375 
L 105.844267 -95.66273 
L 101.477245 -93.475326 
L 97.110222 -96.436004 
L 92.7432 -104.498664 
L 88.376178 -111.947822 
L 84.009156 -125.029094 
L 79.642133 -130.454912 
L 75.275111 -129.736282 
L 70.908089 -121.250552 
L 66.541067 -103.107883 
L 62.174044 -96.623229 
L 57.807022 -93.503339 
L 53.44 -99.372309 
z
"/>
    </defs>
    <g clip-path="url(#p5d3a77d69e)">
     <use xlink:href="#mdb56347379" x="0" y="216" style="fill: #ff7f7f; fill-opacity: 0.2"/>
    </g>
   </g>
   <g id="FillBetweenPolyCollection_2">
    <defs>
     <path id="m21f2497430" d="M 53.44 -106.892166 
L 53.44 -102.311203 
L 57.807022 -94.912329 
L 62.174044 -89.966498 
L 66.541067 -87.680692 
L 70.908089 -89.635472 
L 75.275111 -93.223564 
L 79.642133 -98.703404 
L 84.009156 -105.990451 
L 88.376178 -105.369796 
L 92.7432 -101.134512 
L 97.110222 -102.893026 
L 101.477245 -97.452708 
L 105.844267 -90.223029 
L 110.211289 -95.122166 
L 110.211289 -99.707267 
L 110.211289 -99.707267 
L 105.844267 -97.586083 
L 101.477245 -105.630725 
L 97.110222 -111.936162 
L 92.7432 -112.457441 
L 88.376178 -115.051189 
L 84.009156 -112.26495 
L 79.642133 -105.935853 
L 75.275111 -100.103771 
L 70.908089 -95.878435 
L 66.541067 -94.317127 
L 62.174044 -96.134508 
L 57.807022 -101.026459 
L 53.44 -106.892166 
z
"/>
    </defs>
    <g clip-path="url(#p5d3a77d69e)">
     <use xlink:href="#m21f2497430" x="0" y="216" style="fill: #000080; fill-opacity: 0.2"/>
    </g>
   </g>
   <g id="matplotlib.axis_1">
    <g id="xtick_1">
     <g id="line2d_1">
      <defs>
       <path id="m34fd420911" d="M 0 0 
L 0 3.5 
" style="stroke: #000000; stroke-width: 0.8"/>
      </defs>
      <g>
       <use xlink:href="#m34fd420911" x="57.807022" y="167.24" style="stroke: #000000; stroke-width: 0.8"/>
      </g>
     </g>
     <g id="text_1">
      <!-- 0 -->
      <g transform="translate(54.625772 181.838437) scale(0.1 -0.1)">
       <defs>
        <path id="DejaVuSans-30" d="M 2034 4250 
Q 1547 4250 1301 3770 
Q 1056 3291 1056 2328 
Q 1056 1369 1301 889 
Q 1547 409 2034 409 
Q 2525 409 2770 889 
Q 3016 1369 3016 2328 
Q 3016 3291 2770 3770 
Q 2525 4250 2034 4250 
z
M 2034 4750 
Q 2819 4750 3233 4129 
Q 3647 3509 3647 2328 
Q 3647 1150 3233 529 
Q 2819 -91 2034 -91 
Q 1250 -91 836 529 
Q 422 1150 422 2328 
Q 422 3509 836 4129 
Q 1250 4750 2034 4750 
z
" transform="scale(0.015625)"/>
       </defs>
       <use xlink:href="#DejaVuSans-30"/>
      </g>
     </g>
    </g>
    <g id="xtick_2">
     <g id="line2d_2">
      <g>
       <use xlink:href="#m34fd420911" x="84.009156" y="167.24" style="stroke: #000000; stroke-width: 0.8"/>
      </g>
     </g>
     <g id="text_2">
      <!-- 6 -->
      <g transform="translate(80.827906 181.838437) scale(0.1 -0.1)">
       <defs>
        <path id="DejaVuSans-36" d="M 2113 2584 
Q 1688 2584 1439 2293 
Q 1191 2003 1191 1497 
Q 1191 994 1439 701 
Q 1688 409 2113 409 
Q 2538 409 2786 701 
Q 3034 994 3034 1497 
Q 3034 2003 2786 2293 
Q 2538 2584 2113 2584 
z
M 3366 4563 
L 3366 3988 
Q 3128 4100 2886 4159 
Q 2644 4219 2406 4219 
Q 1781 4219 1451 3797 
Q 1122 3375 1075 2522 
Q 1259 2794 1537 2939 
Q 1816 3084 2150 3084 
Q 2853 3084 3261 2657 
Q 3669 2231 3669 1497 
Q 3669 778 3244 343 
Q 2819 -91 2113 -91 
Q 1303 -91 875 529 
Q 447 1150 447 2328 
Q 447 3434 972 4092 
Q 1497 4750 2381 4750 
Q 2619 4750 2861 4703 
Q 3103 4656 3366 4563 
z
" transform="scale(0.015625)"/>
       </defs>
       <use xlink:href="#DejaVuSans-36"/>
      </g>
     </g>
    </g>
    <g id="xtick_3">
     <g id="line2d_3">
      <g>
       <use xlink:href="#m34fd420911" x="110.211289" y="167.24" style="stroke: #000000; stroke-width: 0.8"/>
      </g>
     </g>
     <g id="text_3">
      <!-- 12 -->
      <g transform="translate(103.848789 181.838437) scale(0.1 -0.1)">
       <defs>
        <path id="DejaVuSans-31" d="M 794 531 
L 1825 531 
L 1825 4091 
L 703 3866 
L 703 4441 
L 1819 4666 
L 2450 4666 
L 2450 531 
L 3481 531 
L 3481 0 
L 794 0 
L 794 531 
z
" transform="scale(0.015625)"/>
        <path id="DejaVuSans-32" d="M 1228 531 
L 3431 531 
L 3431 0 
L 469 0 
L 469 531 
Q 828 903 1448 1529 
Q 2069 2156 2228 2338 
Q 2531 2678 2651 2914 
Q 2772 3150 2772 3378 
Q 2772 3750 2511 3984 
Q 2250 4219 1831 4219 
Q 1534 4219 1204 4116 
Q 875 4013 500 3803 
L 500 4441 
Q 881 4594 1212 4672 
Q 1544 4750 1819 4750 
Q 2544 4750 2975 4387 
Q 3406 4025 3406 3419 
Q 3406 3131 3298 2873 
Q 3191 2616 2906 2266 
Q 2828 2175 2409 1742 
Q 1991 1309 1228 531 
z
" transform="scale(0.015625)"/>
       </defs>
       <use xlink:href="#DejaVuSans-31"/>
       <use xlink:href="#DejaVuSans-32" transform="translate(63.623047 0)"/>
      </g>
     </g>
    </g>
   </g>
   <g id="matplotlib.axis_2">
    <g id="ytick_1">
     <g id="line2d_4">
      <defs>
       <path id="me0a12f2841" d="M 0 0 
L -3.5 0 
" style="stroke: #000000; stroke-width: 0.8"/>
      </defs>
      <g>
       <use xlink:href="#me0a12f2841" x="53.44" y="149.573333" style="stroke: #000000; stroke-width: 0.8"/>
      </g>
     </g>
     <g id="text_4">
      <!-- −2 -->
      <g transform="translate(31.697813 153.372552) scale(0.1 -0.1)">
       <defs>
        <path id="DejaVuSans-2212" d="M 678 2272 
L 4684 2272 
L 4684 1741 
L 678 1741 
L 678 2272 
z
" transform="scale(0.015625)"/>
       </defs>
       <use xlink:href="#DejaVuSans-2212"/>
       <use xlink:href="#DejaVuSans-32" transform="translate(83.789062 0)"/>
      </g>
     </g>
    </g>
    <g id="ytick_2">
     <g id="line2d_5">
      <g>
       <use xlink:href="#me0a12f2841" x="53.44" y="114.24" style="stroke: #000000; stroke-width: 0.8"/>
      </g>
     </g>
     <g id="text_5">
      <!-- 0 -->
      <g transform="translate(40.0775 118.039219) scale(0.1 -0.1)">
       <use xlink:href="#DejaVuSans-30"/>
      </g>
     </g>
    </g>
    <g id="ytick_3">
     <g id="line2d_6">
      <g>
       <use xlink:href="#me0a12f2841" x="53.44" y="78.906667" style="stroke: #000000; stroke-width: 0.8"/>
      </g>
     </g>
     <g id="text_6">
      <!-- 2 -->
      <g transform="translate(40.0775 82.705885) scale(0.1 -0.1)">
       <use xlink:href="#DejaVuSans-32"/>
      </g>
     </g>
    </g>
   </g>
   <g id="line2d_7">
    <path d="M 53.44 118.727442 
L 57.807022 125.603984 
L 62.174044 121.535473 
L 66.541067 115.83542 
L 70.908089 98.509016 
L 75.275111 90.479347 
L 79.642133 89.661757 
L 84.009156 94.658075 
L 88.376178 106.53802 
L 92.7432 113.623813 
L 97.110222 121.628865 
L 101.477245 124.966917 
L 105.844267 123.24773 
L 110.211289 115.988377 
" clip-path="url(#p5d3a77d69e)" style="fill: none; stroke: #ff7f7f; stroke-width: 1.5; stroke-linecap: square"/>
   </g>
   <g id="line2d_8">
    <path d="M 53.44 111.398316 
L 57.807022 118.030606 
L 62.174044 122.949497 
L 66.541067 125.00109 
L 70.908089 123.243046 
L 75.275111 119.336333 
L 79.642133 113.680371 
L 84.009156 106.872299 
L 88.376178 105.789507 
L 92.7432 109.204023 
L 97.110222 108.585406 
L 101.477245 114.458284 
L 105.844267 122.095444 
L 110.211289 118.585284 
" clip-path="url(#p5d3a77d69e)" style="fill: none; stroke: #000080; stroke-width: 1.5; stroke-linecap: square"/>
   </g>
   <g id="line2d_9">
    <path d="M 57.807022 167.24 
L 57.807022 50.64 
" clip-path="url(#p5d3a77d69e)" style="fill: none; stroke: #000000; stroke-width: 0.8; stroke-linecap: square"/>
   </g>
   <g id="line2d_10">
    <path d="M 68.724578 167.24 
L 68.724578 50.64 
" clip-path="url(#p5d3a77d69e)" style="fill: none; stroke-dasharray: 2.96,1.28; stroke-dashoffset: 0; stroke: #000000; stroke-width: 0.8"/>
   </g>
   <g id="line2d_11">
    <path d="M 53.44 114.24 
L 110.211289 114.24 
" clip-path="url(#p5d3a77d69e)" style="fill: none; stroke: #000000; stroke-width: 0.8; stroke-linecap: square"/>
   </g>
   <g id="patch_3">
    <path d="M 53.44 149.573333 
L 53.44 78.906667 
" style="fill: none; stroke: #000000; stroke-width: 0.8; stroke-linejoin: miter; stroke-linecap: square"/>
   </g>
   <g id="patch_4">
    <path d="M 57.807022 167.24 
L 110.211289 167.24 
" style="fill: none; stroke: #000000; stroke-width: 0.8; stroke-linejoin: miter; stroke-linecap: square"/>
   </g>
   <g id="text_7">
    <!-- SMA -->
    <g transform="translate(68.735332 44.64) scale(0.12 -0.12)">
     <defs>
      <path id="DejaVuSans-53" d="M 3425 4513 
L 3425 3897 
Q 3066 4069 2747 4153 
Q 2428 4238 2131 4238 
Q 1616 4238 1336 4038 
Q 1056 3838 1056 3469 
Q 1056 3159 1242 3001 
Q 1428 2844 1947 2747 
L 2328 2669 
Q 3034 2534 3370 2195 
Q 3706 1856 3706 1288 
Q 3706 609 3251 259 
Q 2797 -91 1919 -91 
Q 1588 -91 1214 -16 
Q 841 59 441 206 
L 441 856 
Q 825 641 1194 531 
Q 1563 422 1919 422 
Q 2459 422 2753 634 
Q 3047 847 3047 1241 
Q 3047 1584 2836 1778 
Q 2625 1972 2144 2069 
L 1759 2144 
Q 1053 2284 737 2584 
Q 422 2884 422 3419 
Q 422 4038 858 4394 
Q 1294 4750 2059 4750 
Q 2388 4750 2728 4690 
Q 3069 4631 3425 4513 
z
" transform="scale(0.015625)"/>
      <path id="DejaVuSans-4d" d="M 628 4666 
L 1569 4666 
L 2759 1491 
L 3956 4666 
L 4897 4666 
L 4897 0 
L 4281 0 
L 4281 4097 
L 3078 897 
L 2444 897 
L 1241 4097 
L 1241 0 
L 628 0 
L 628 4666 
z
" transform="scale(0.015625)"/>
      <path id="DejaVuSans-41" d="M 2188 4044 
L 1331 1722 
L 3047 1722 
L 2188 4044 
z
M 1831 4666 
L 2547 4666 
L 4325 0 
L 3669 0 
L 3244 1197 
L 1141 1197 
L 716 0 
L 50 0 
L 1831 4666 
z
" transform="scale(0.015625)"/>
     </defs>
     <use xlink:href="#DejaVuSans-53"/>
     <use xlink:href="#DejaVuSans-4d" transform="translate(63.476562 0)"/>
     <use xlink:href="#DejaVuSans-41" transform="translate(149.755859 0)"/>
    </g>
   </g>
  </g>
  <g id="axes_2">
   <g id="patch_5">
    <path d="M 127.356289 167.24 
L 184.127578 167.24 
L 184.127578 50.64 
L 127.356289 50.64 
z
" style="fill: #ffffff"/>
   </g>
   <g id="FillBetweenPolyCollection_3">
    <defs>
     <path id="m77de893813" d="M 127.356289 -98.065659 
L 127.356289 -92.990838 
L 131.723311 -85.456521 
L 136.090334 -94.286791 
L 140.457356 -102.077398 
L 144.824378 -119.503113 
L 149.1914 -127.891516 
L 153.558423 -126.181107 
L 157.925445 -120.268933 
L 162.292467 -108.502523 
L 166.659489 -101.454106 
L 171.026512 -92.652691 
L 175.393534 -90.702288 
L 179.760556 -92.880109 
L 184.127578 -101.75004 
L 184.127578 -106.449993 
L 184.127578 -106.449993 
L 179.760556 -98.170521 
L 175.393534 -96.045925 
L 171.026512 -97.997849 
L 166.659489 -106.459697 
L 162.292467 -113.806496 
L 157.925445 -127.107309 
L 153.558423 -134.303194 
L 149.1914 -136.505008 
L 144.824378 -128.043 
L 140.457356 -107.336735 
L 136.090334 -98.502819 
L 131.723311 -92.395083 
L 127.356289 -98.065659 
z
"/>
    </defs>
    <g clip-path="url(#pbbc337d800)">
     <use xlink:href="#m77de893813" x="0" y="216" style="fill: #ff7f7f; fill-opacity: 0.2"/>
    </g>
   </g>
   <g id="FillBetweenPolyCollection_4">
    <defs>
     <path id="m4f7e9c3f81" d="M 127.356289 -107.642155 
L 127.356289 -101.967936 
L 131.723311 -94.748313 
L 136.090334 -90.417437 
L 140.457356 -89.693985 
L 144.824378 -93.475392 
L 149.1914 -96.345749 
L 153.558423 -101.999341 
L 157.925445 -105.00221 
L 162.292467 -102.814583 
L 166.659489 -98.910713 
L 171.026512 -99.514405 
L 175.393534 -93.48024 
L 179.760556 -85.838056 
L 184.127578 -97.242468 
L 184.127578 -101.735776 
L 184.127578 -101.735776 
L 179.760556 -94.738314 
L 175.393534 -102.927107 
L 171.026512 -109.538587 
L 166.659489 -110.250406 
L 162.292467 -112.701649 
L 157.925445 -111.617137 
L 153.558423 -109.166162 
L 149.1914 -103.82544 
L 144.824378 -99.865629 
L 140.457356 -96.187575 
L 136.090334 -97.17526 
L 131.723311 -101.153921 
L 127.356289 -107.642155 
z
"/>
    </defs>
    <g clip-path="url(#pbbc337d800)">
     <use xlink:href="#m4f7e9c3f81" x="0" y="216" style="fill: #000080; fill-opacity: 0.2"/>
    </g>
   </g>
   <g id="matplotlib.axis_3">
    <g id="xtick_4">
     <g id="line2d_12">
      <g>
       <use xlink:href="#m34fd420911" x="131.723311" y="167.24" style="stroke: #000000; stroke-width: 0.8"/>
      </g>
     </g>
     <g id="text_8">
      <!-- 0 -->
      <g transform="translate(128.542061 181.838437) scale(0.1 -0.1)">
       <use xlink:href="#DejaVuSans-30"/>
      </g>
     </g>
    </g>
    <g id="xtick_5">
     <g id="line2d_13">
      <g>
       <use xlink:href="#m34fd420911" x="157.925445" y="167.24" style="stroke: #000000; stroke-width: 0.8"/>
      </g>
     </g>
     <g id="text_9">
      <!-- 6 -->
      <g transform="translate(154.744195 181.838437) scale(0.1 -0.1)">
       <use xlink:href="#DejaVuSans-36"/>
      </g>
     </g>
    </g>
    <g id="xtick_6">
     <g id="line2d_14">
      <g>
       <use xlink:href="#m34fd420911" x="184.127578" y="167.24" style="stroke: #000000; stroke-width: 0.8"/>
      </g>
     </g>
     <g id="text_10">
      <!-- 12 -->
      <g transform="translate(177.765078 181.838437) scale(0.1 -0.1)">
       <use xlink:href="#DejaVuSans-31"/>
       <use xlink:href="#DejaVuSans-32" transform="translate(63.623047 0)"/>
      </g>
     </g>
    </g>
   </g>
   <g id="matplotlib.axis_4">
    <g id="ytick_4">
     <g id="line2d_15">
      <defs>
       <path id="mc383b68a10" d="M 0 0 
L -3.5 0 
"/>
      </defs>
      <g>
       <use xlink:href="#mc383b68a10" x="127.356289" y="149.573333"/>
      </g>
     </g>
    </g>
    <g id="ytick_5">
     <g id="line2d_16">
      <g>
       <use xlink:href="#mc383b68a10" x="127.356289" y="114.24"/>
      </g>
     </g>
    </g>
    <g id="ytick_6">
     <g id="line2d_17">
      <g>
       <use xlink:href="#mc383b68a10" x="127.356289" y="78.906667"/>
      </g>
     </g>
    </g>
   </g>
   <g id="line2d_18">
    <path d="M 127.356289 120.471751 
L 131.723311 127.074198 
L 136.090334 119.605195 
L 140.457356 111.292934 
L 144.824378 92.226943 
L 149.1914 83.801738 
L 153.558423 85.757849 
L 157.925445 92.311879 
L 162.292467 104.845491 
L 166.659489 112.043098 
L 171.026512 120.67473 
L 175.393534 122.625894 
L 179.760556 120.474685 
L 184.127578 111.899984 
" clip-path="url(#pbbc337d800)" style="fill: none; stroke: #ff7f7f; stroke-width: 1.5; stroke-linecap: square"/>
   </g>
   <g id="line2d_19">
    <path d="M 127.356289 111.194954 
L 131.723311 118.048883 
L 136.090334 122.203651 
L 140.457356 123.05922 
L 144.824378 119.329489 
L 149.1914 115.914406 
L 153.558423 110.417248 
L 157.925445 107.690327 
L 162.292467 108.241884 
L 166.659489 111.41944 
L 171.026512 111.473504 
L 175.393534 117.796327 
L 179.760556 125.711815 
L 184.127578 116.510878 
" clip-path="url(#pbbc337d800)" style="fill: none; stroke: #000080; stroke-width: 1.5; stroke-linecap: square"/>
   </g>
   <g id="line2d_20">
    <path d="M 131.723311 167.24 
L 131.723311 50.64 
" clip-path="url(#pbbc337d800)" style="fill: none; stroke: #000000; stroke-width: 0.8; stroke-linecap: square"/>
   </g>
   <g id="line2d_21">
    <path d="M 142.640867 167.24 
L 142.640867 50.64 
" clip-path="url(#pbbc337d800)" style="fill: none; stroke-dasharray: 2.96,1.28; stroke-dashoffset: 0; stroke: #000000; stroke-width: 0.8"/>
   </g>
   <g id="line2d_22">
    <path d="M 127.356289 114.24 
L 184.127578 114.24 
" clip-path="url(#pbbc337d800)" style="fill: none; stroke: #000000; stroke-width: 0.8; stroke-linecap: square"/>
   </g>
   <g id="patch_6">
    <path d="M 131.723311 167.24 
L 184.127578 167.24 
" style="fill: none; stroke: #000000; stroke-width: 0.8; stroke-linejoin: miter; stroke-linecap: square"/>
   </g>
   <g id="text_11">
    <!-- PMd -->
    <g transform="translate(143.138184 44.64) scale(0.12 -0.12)">
     <defs>
      <path id="DejaVuSans-50" d="M 1259 4147 
L 1259 2394 
L 2053 2394 
Q 2494 2394 2734 2622 
Q 2975 2850 2975 3272 
Q 2975 3691 2734 3919 
Q 2494 4147 2053 4147 
L 1259 4147 
z
M 628 4666 
L 2053 4666 
Q 2838 4666 3239 4311 
Q 3641 3956 3641 3272 
Q 3641 2581 3239 2228 
Q 2838 1875 2053 1875 
L 1259 1875 
L 1259 0 
L 628 0 
L 628 4666 
z
" transform="scale(0.015625)"/>
      <path id="DejaVuSans-64" d="M 2906 2969 
L 2906 4863 
L 3481 4863 
L 3481 0 
L 2906 0 
L 2906 525 
Q 2725 213 2448 61 
Q 2172 -91 1784 -91 
Q 1150 -91 751 415 
Q 353 922 353 1747 
Q 353 2572 751 3078 
Q 1150 3584 1784 3584 
Q 2172 3584 2448 3432 
Q 2725 3281 2906 2969 
z
M 947 1747 
Q 947 1113 1208 752 
Q 1469 391 1925 391 
Q 2381 391 2643 752 
Q 2906 1113 2906 1747 
Q 2906 2381 2643 2742 
Q 2381 3103 1925 3103 
Q 1469 3103 1208 2742 
Q 947 2381 947 1747 
z
" transform="scale(0.015625)"/>
     </defs>
     <use xlink:href="#DejaVuSans-50"/>
     <use xlink:href="#DejaVuSans-4d" transform="translate(60.302734 0)"/>
     <use xlink:href="#DejaVuSans-64" transform="translate(146.582031 0)"/>
    </g>
   </g>
  </g>
  <g id="axes_3">
   <g id="patch_7">
    <path d="M 201.272578 167.24 
L 258.043868 167.24 
L 258.043868 50.64 
L 201.272578 50.64 
z
" style="fill: #ffffff"/>
   </g>
   <g id="FillBetweenPolyCollection_5">
    <defs>
     <path id="m7088b5fb89" d="M 201.272578 -101.603814 
L 201.272578 -96.620521 
L 205.639601 -92.616092 
L 210.006623 -96.352932 
L 214.373645 -100.819484 
L 218.740667 -113.783426 
L 223.10769 -119.313599 
L 227.474712 -117.247716 
L 231.841734 -112.201609 
L 236.208756 -103.140297 
L 240.575779 -98.880985 
L 244.942801 -93.300386 
L 249.309823 -91.901863 
L 253.676845 -92.467216 
L 258.043868 -98.531777 
L 258.043868 -103.077669 
L 258.043868 -103.077669 
L 253.676845 -96.388698 
L 249.309823 -96.974339 
L 244.942801 -99.17004 
L 240.575779 -105.125261 
L 236.208756 -110.152734 
L 231.841734 -119.094466 
L 227.474712 -124.15257 
L 223.10769 -126.983488 
L 218.740667 -122.377085 
L 214.373645 -107.539473 
L 210.006623 -100.162833 
L 205.639601 -96.812738 
L 201.272578 -101.603814 
z
"/>
    </defs>
    <g clip-path="url(#p4d80492ce7)">
     <use xlink:href="#m7088b5fb89" x="0" y="216" style="fill: #ff7f7f; fill-opacity: 0.2"/>
    </g>
   </g>
   <g id="FillBetweenPolyCollection_6">
    <defs>
     <path id="mccd8bc0914" d="M 201.272578 -107.103884 
L 201.272578 -100.845561 
L 205.639601 -98.107289 
L 210.006623 -93.073141 
L 214.373645 -89.541901 
L 218.740667 -91.26024 
L 223.10769 -91.017326 
L 227.474712 -97.16693 
L 231.841734 -101.334684 
L 236.208756 -104.646524 
L 240.575779 -106.09996 
L 244.942801 -106.025364 
L 249.309823 -100.780756 
L 253.676845 -93.322479 
L 258.043868 -100.175366 
L 258.043868 -104.206472 
L 258.043868 -104.206472 
L 253.676845 -98.444193 
L 249.309823 -107.551073 
L 244.942801 -113.721755 
L 240.575779 -114.499062 
L 236.208756 -114.667533 
L 231.841734 -108.996723 
L 227.474712 -102.899602 
L 223.10769 -96.356841 
L 218.740667 -95.178001 
L 214.373645 -94.575221 
L 210.006623 -98.64242 
L 205.639601 -104.450781 
L 201.272578 -107.103884 
z
"/>
    </defs>
    <g clip-path="url(#p4d80492ce7)">
     <use xlink:href="#mccd8bc0914" x="0" y="216" style="fill: #000080; fill-opacity: 0.2"/>
    </g>
   </g>
   <g id="matplotlib.axis_5">
    <g id="xtick_7">
     <g id="line2d_23">
      <g>
       <use xlink:href="#m34fd420911" x="205.639601" y="167.24" style="stroke: #000000; stroke-width: 0.8"/>
      </g>
     </g>
     <g id="text_12">
      <!-- 0 -->
      <g transform="translate(202.458351 181.838437) scale(0.1 -0.1)">
       <use xlink:href="#DejaVuSans-30"/>
      </g>
     </g>
    </g>
    <g id="xtick_8">
     <g id="line2d_24">
      <g>
       <use xlink:href="#m34fd420911" x="231.841734" y="167.24" style="stroke: #000000; stroke-width: 0.8"/>
      </g>
     </g>
     <g id="text_13">
      <!-- 6 -->
      <g transform="translate(228.660484 181.838437) scale(0.1 -0.1)">
       <use xlink:href="#DejaVuSans-36"/>
      </g>
     </g>
    </g>
    <g id="xtick_9">
     <g id="line2d_25">
      <g>
       <use xlink:href="#m34fd420911" x="258.043868" y="167.24" style="stroke: #000000; stroke-width: 0.8"/>
      </g>
     </g>
     <g id="text_14">
      <!-- 12 -->
      <g transform="translate(251.681368 181.838437) scale(0.1 -0.1)">
       <use xlink:href="#DejaVuSans-31"/>
       <use xlink:href="#DejaVuSans-32" transform="translate(63.623047 0)"/>
      </g>
     </g>
    </g>
   </g>
   <g id="matplotlib.axis_6">
    <g id="ytick_7">
     <g id="line2d_26">
      <g>
       <use xlink:href="#mc383b68a10" x="201.272578" y="149.573333"/>
      </g>
     </g>
    </g>
    <g id="ytick_8">
     <g id="line2d_27">
      <g>
       <use xlink:href="#mc383b68a10" x="201.272578" y="114.24"/>
      </g>
     </g>
    </g>
    <g id="ytick_9">
     <g id="line2d_28">
      <g>
       <use xlink:href="#mc383b68a10" x="201.272578" y="78.906667"/>
      </g>
     </g>
    </g>
   </g>
   <g id="line2d_29">
    <path d="M 201.272578 116.887832 
L 205.639601 121.285585 
L 210.006623 117.742117 
L 214.373645 111.820522 
L 218.740667 97.919745 
L 223.10769 92.851457 
L 227.474712 95.299857 
L 231.841734 100.351962 
L 236.208756 109.353484 
L 240.575779 113.996877 
L 244.942801 119.764787 
L 249.309823 121.561899 
L 253.676845 121.572043 
L 258.043868 115.195277 
" clip-path="url(#p4d80492ce7)" style="fill: none; stroke: #ff7f7f; stroke-width: 1.5; stroke-linecap: square"/>
   </g>
   <g id="line2d_30">
    <path d="M 201.272578 112.025277 
L 205.639601 114.720965 
L 210.006623 120.14222 
L 214.373645 123.941439 
L 218.740667 122.780879 
L 223.10769 122.312917 
L 227.474712 115.966734 
L 231.841734 110.834296 
L 236.208756 106.342971 
L 240.575779 105.700489 
L 244.942801 106.126441 
L 249.309823 111.834086 
L 253.676845 120.116664 
L 258.043868 113.809081 
" clip-path="url(#p4d80492ce7)" style="fill: none; stroke: #000080; stroke-width: 1.5; stroke-linecap: square"/>
   </g>
   <g id="line2d_31">
    <path d="M 205.639601 167.24 
L 205.639601 50.64 
" clip-path="url(#p4d80492ce7)" style="fill: none; stroke: #000000; stroke-width: 0.8; stroke-linecap: square"/>
   </g>
   <g id="line2d_32">
    <path d="M 216.557156 167.24 
L 216.557156 50.64 
" clip-path="url(#p4d80492ce7)" style="fill: none; stroke-dasharray: 2.96,1.28; stroke-dashoffset: 0; stroke: #000000; stroke-width: 0.8"/>
   </g>
   <g id="line2d_33">
    <path d="M 201.272578 114.24 
L 258.043868 114.24 
" clip-path="url(#p4d80492ce7)" style="fill: none; stroke: #000000; stroke-width: 0.8; stroke-linecap: square"/>
   </g>
   <g id="patch_8">
    <path d="M 205.639601 167.24 
L 258.043868 167.24 
" style="fill: none; stroke: #000000; stroke-width: 0.8; stroke-linejoin: miter; stroke-linecap: square"/>
   </g>
   <g id="text_15">
    <!-- PMv -->
    <g transform="translate(217.312285 44.64) scale(0.12 -0.12)">
     <defs>
      <path id="DejaVuSans-76" d="M 191 3500 
L 800 3500 
L 1894 563 
L 2988 3500 
L 3597 3500 
L 2284 0 
L 1503 0 
L 191 3500 
z
" transform="scale(0.015625)"/>
     </defs>
     <use xlink:href="#DejaVuSans-50"/>
     <use xlink:href="#DejaVuSans-4d" transform="translate(60.302734 0)"/>
     <use xlink:href="#DejaVuSans-76" transform="translate(146.582031 0)"/>
    </g>
   </g>
  </g>
  <g id="axes_4">
   <g id="patch_9">
    <path d="M 275.188868 167.24 
L 331.960157 167.24 
L 331.960157 50.64 
L 275.188868 50.64 
z
" style="fill: #ffffff"/>
   </g>
   <g id="FillBetweenPolyCollection_7">
    <defs>
     <path id="m42eac775fe" d="M 275.188868 -102.843625 
L 275.188868 -95.820875 
L 279.55589 -89.295698 
L 283.922912 -91.124737 
L 288.289934 -103.425845 
L 292.656957 -119.96562 
L 297.023979 -132.212411 
L 301.391001 -134.756606 
L 305.758023 -132.37129 
L 310.125046 -123.371748 
L 314.492068 -113.166262 
L 318.85909 -99.213065 
L 323.226112 -89.733691 
L 327.593135 -88.18794 
L 331.960157 -95.228133 
L 331.960157 -100.049856 
L 331.960157 -100.049856 
L 327.593135 -94.055071 
L 323.226112 -97.58332 
L 318.85909 -108.333454 
L 314.492068 -122.239624 
L 310.125046 -130.116222 
L 305.758023 -138.399573 
L 301.391001 -143.291654 
L 297.023979 -142.427415 
L 292.656957 -130.536872 
L 288.289934 -111.533819 
L 283.922912 -95.452049 
L 279.55589 -95.560542 
L 275.188868 -102.843625 
z
"/>
    </defs>
    <g clip-path="url(#pdcd977f913)">
     <use xlink:href="#m42eac775fe" x="0" y="216" style="fill: #ff7f7f; fill-opacity: 0.2"/>
    </g>
   </g>
   <g id="FillBetweenPolyCollection_8">
    <defs>
     <path id="mc241a45570" d="M 275.188868 -118.154173 
L 275.188868 -111.613074 
L 279.55589 -103.56092 
L 283.922912 -91.297451 
L 288.289934 -85.142908 
L 292.656957 -85.313342 
L 297.023979 -84.533932 
L 301.391001 -87.393648 
L 305.758023 -86.782578 
L 310.125046 -86.29056 
L 314.492068 -88.832101 
L 318.85909 -97.89996 
L 323.226112 -93.027779 
L 327.593135 -86.600315 
L 331.960157 -96.126231 
L 331.960157 -102.004638 
L 331.960157 -102.004638 
L 327.593135 -94.584251 
L 323.226112 -103.283955 
L 318.85909 -107.860714 
L 314.492068 -103.060761 
L 310.125046 -98.607926 
L 305.758023 -94.645956 
L 301.391001 -93.708872 
L 297.023979 -91.993163 
L 292.656957 -92.901533 
L 288.289934 -93.263822 
L 283.922912 -100.92008 
L 279.55589 -113.469519 
L 275.188868 -118.154173 
z
"/>
    </defs>
    <g clip-path="url(#pdcd977f913)">
     <use xlink:href="#mc241a45570" x="0" y="216" style="fill: #000080; fill-opacity: 0.2"/>
    </g>
   </g>
   <g id="matplotlib.axis_7">
    <g id="xtick_10">
     <g id="line2d_34">
      <g>
       <use xlink:href="#m34fd420911" x="279.55589" y="167.24" style="stroke: #000000; stroke-width: 0.8"/>
      </g>
     </g>
     <g id="text_16">
      <!-- 0 -->
      <g transform="translate(276.37464 181.838437) scale(0.1 -0.1)">
       <use xlink:href="#DejaVuSans-30"/>
      </g>
     </g>
    </g>
    <g id="xtick_11">
     <g id="line2d_35">
      <g>
       <use xlink:href="#m34fd420911" x="305.758023" y="167.24" style="stroke: #000000; stroke-width: 0.8"/>
      </g>
     </g>
     <g id="text_17">
      <!-- 6 -->
      <g transform="translate(302.576773 181.838437) scale(0.1 -0.1)">
       <use xlink:href="#DejaVuSans-36"/>
      </g>
     </g>
    </g>
    <g id="xtick_12">
     <g id="line2d_36">
      <g>
       <use xlink:href="#m34fd420911" x="331.960157" y="167.24" style="stroke: #000000; stroke-width: 0.8"/>
      </g>
     </g>
     <g id="text_18">
      <!-- 12 -->
      <g transform="translate(325.597657 181.838437) scale(0.1 -0.1)">
       <use xlink:href="#DejaVuSans-31"/>
       <use xlink:href="#DejaVuSans-32" transform="translate(63.623047 0)"/>
      </g>
     </g>
    </g>
   </g>
   <g id="matplotlib.axis_8">
    <g id="ytick_10">
     <g id="line2d_37">
      <g>
       <use xlink:href="#mc383b68a10" x="275.188868" y="149.573333"/>
      </g>
     </g>
    </g>
    <g id="ytick_11">
     <g id="line2d_38">
      <g>
       <use xlink:href="#mc383b68a10" x="275.188868" y="114.24"/>
      </g>
     </g>
    </g>
    <g id="ytick_12">
     <g id="line2d_39">
      <g>
       <use xlink:href="#mc383b68a10" x="275.188868" y="78.906667"/>
      </g>
     </g>
    </g>
   </g>
   <g id="line2d_40">
    <path d="M 275.188868 116.66775 
L 279.55589 123.57188 
L 283.922912 122.711607 
L 288.289934 108.520168 
L 292.656957 90.748754 
L 297.023979 78.680087 
L 301.391001 76.97587 
L 305.758023 80.614569 
L 310.125046 89.256015 
L 314.492068 98.297057 
L 318.85909 112.22674 
L 323.226112 122.341494 
L 327.593135 124.878494 
L 331.960157 118.361006 
" clip-path="url(#pdcd977f913)" style="fill: none; stroke: #ff7f7f; stroke-width: 1.5; stroke-linecap: square"/>
   </g>
   <g id="line2d_41">
    <path d="M 275.188868 101.116376 
L 279.55589 107.484781 
L 283.922912 119.891234 
L 288.289934 126.796635 
L 292.656957 126.892563 
L 297.023979 127.736452 
L 301.391001 125.44874 
L 305.758023 125.285733 
L 310.125046 123.550757 
L 314.492068 120.053569 
L 318.85909 113.119663 
L 323.226112 117.844133 
L 327.593135 125.407717 
L 331.960157 116.934566 
" clip-path="url(#pdcd977f913)" style="fill: none; stroke: #000080; stroke-width: 1.5; stroke-linecap: square"/>
   </g>
   <g id="line2d_42">
    <path d="M 279.55589 167.24 
L 279.55589 50.64 
" clip-path="url(#pdcd977f913)" style="fill: none; stroke: #000000; stroke-width: 0.8; stroke-linecap: square"/>
   </g>
   <g id="line2d_43">
    <path d="M 290.473445 167.24 
L 290.473445 50.64 
" clip-path="url(#pdcd977f913)" style="fill: none; stroke-dasharray: 2.96,1.28; stroke-dashoffset: 0; stroke: #000000; stroke-width: 0.8"/>
   </g>
   <g id="line2d_44">
    <path d="M 275.188868 114.24 
L 331.960157 114.24 
" clip-path="url(#pdcd977f913)" style="fill: none; stroke: #000000; stroke-width: 0.8; stroke-linecap: square"/>
   </g>
   <g id="patch_10">
    <path d="M 279.55589 167.24 
L 331.960157 167.24 
" style="fill: none; stroke: #000000; stroke-width: 0.8; stroke-linejoin: miter; stroke-linecap: square"/>
   </g>
   <g id="text_19">
    <!-- M1 -->
    <g transform="translate(294.580137 44.64) scale(0.12 -0.12)">
     <use xlink:href="#DejaVuSans-4d"/>
     <use xlink:href="#DejaVuSans-31" transform="translate(86.279297 0)"/>
    </g>
   </g>
  </g>
  <g id="axes_5">
   <g id="patch_11">
    <path d="M 349.105157 167.24 
L 405.876446 167.24 
L 405.876446 50.64 
L 349.105157 50.64 
z
" style="fill: #ffffff"/>
   </g>
   <g id="FillBetweenPolyCollection_9">
    <defs>
     <path id="m9df40e379a" d="M 349.105157 -109.720694 
L 349.105157 -103.019016 
L 353.472179 -86.367092 
L 357.839201 -83.573087 
L 362.206224 -90.674363 
L 366.573246 -111.174079 
L 370.940268 -129.566371 
L 375.30729 -140.205291 
L 379.674313 -143.130158 
L 384.041335 -135.813306 
L 388.408357 -126.153614 
L 392.775379 -109.523363 
L 397.142402 -91.945232 
L 401.509424 -83.329595 
L 405.876446 -85.744578 
L 405.876446 -91.358663 
L 405.876446 -91.358663 
L 401.509424 -90.559029 
L 397.142402 -100.841348 
L 392.775379 -119.802664 
L 388.408357 -136.337512 
L 384.041335 -144.942616 
L 379.674313 -152.161983 
L 375.30729 -150.052141 
L 370.940268 -138.819104 
L 366.573246 -119.434706 
L 362.206224 -96.828479 
L 357.839201 -89.193557 
L 353.472179 -95.150148 
L 349.105157 -109.720694 
z
"/>
    </defs>
    <g clip-path="url(#p527f3dd093)">
     <use xlink:href="#m9df40e379a" x="0" y="216" style="fill: #ff7f7f; fill-opacity: 0.2"/>
    </g>
   </g>
   <g id="FillBetweenPolyCollection_10">
    <defs>
     <path id="m614d2a1a66" d="M 349.105157 -128.999365 
L 349.105157 -120.501475 
L 353.472179 -112.747613 
L 357.839201 -98.287766 
L 362.206224 -85.25061 
L 366.573246 -77.253445 
L 370.940268 -72.235759 
L 375.30729 -73.585118 
L 379.674313 -78.467011 
L 384.041335 -82.524202 
L 388.408357 -88.909451 
L 392.775379 -97.373722 
L 397.142402 -92.903716 
L 401.509424 -82.1838 
L 405.876446 -83.700015 
L 405.876446 -91.692278 
L 405.876446 -91.692278 
L 401.509424 -92.24531 
L 397.142402 -103.493128 
L 392.775379 -107.271764 
L 388.408357 -100.913518 
L 384.041335 -92.144392 
L 379.674313 -84.628462 
L 375.30729 -80.941927 
L 370.940268 -80.76717 
L 366.573246 -85.671627 
L 362.206224 -93.102732 
L 357.839201 -107.476689 
L 353.472179 -120.991533 
L 349.105157 -128.999365 
z
"/>
    </defs>
    <g clip-path="url(#p527f3dd093)">
     <use xlink:href="#m614d2a1a66" x="0" y="216" style="fill: #000080; fill-opacity: 0.2"/>
    </g>
   </g>
   <g id="matplotlib.axis_9">
    <g id="xtick_13">
     <g id="line2d_45">
      <g>
       <use xlink:href="#m34fd420911" x="353.472179" y="167.24" style="stroke: #000000; stroke-width: 0.8"/>
      </g>
     </g>
     <g id="text_20">
      <!-- 0 -->
      <g transform="translate(350.290929 181.838437) scale(0.1 -0.1)">
       <use xlink:href="#DejaVuSans-30"/>
      </g>
     </g>
    </g>
    <g id="xtick_14">
     <g id="line2d_46">
      <g>
       <use xlink:href="#m34fd420911" x="379.674313" y="167.24" style="stroke: #000000; stroke-width: 0.8"/>
      </g>
     </g>
     <g id="text_21">
      <!-- 6 -->
      <g transform="translate(376.493063 181.838437) scale(0.1 -0.1)">
       <use xlink:href="#DejaVuSans-36"/>
      </g>
     </g>
    </g>
    <g id="xtick_15">
     <g id="line2d_47">
      <g>
       <use xlink:href="#m34fd420911" x="405.876446" y="167.24" style="stroke: #000000; stroke-width: 0.8"/>
      </g>
     </g>
     <g id="text_22">
      <!-- 12 -->
      <g transform="translate(399.513946 181.838437) scale(0.1 -0.1)">
       <use xlink:href="#DejaVuSans-31"/>
       <use xlink:href="#DejaVuSans-32" transform="translate(63.623047 0)"/>
      </g>
     </g>
    </g>
   </g>
   <g id="matplotlib.axis_10">
    <g id="ytick_13">
     <g id="line2d_48">
      <g>
       <use xlink:href="#mc383b68a10" x="349.105157" y="149.573333"/>
      </g>
     </g>
    </g>
    <g id="ytick_14">
     <g id="line2d_49">
      <g>
       <use xlink:href="#mc383b68a10" x="349.105157" y="114.24"/>
      </g>
     </g>
    </g>
    <g id="ytick_15">
     <g id="line2d_50">
      <g>
       <use xlink:href="#mc383b68a10" x="349.105157" y="78.906667"/>
      </g>
     </g>
    </g>
   </g>
   <g id="line2d_51">
    <path d="M 349.105157 109.630145 
L 353.472179 125.24138 
L 357.839201 129.616678 
L 362.206224 122.248579 
L 366.573246 100.695608 
L 370.940268 81.807263 
L 375.30729 70.871284 
L 379.674313 68.353929 
L 384.041335 75.622039 
L 388.408357 84.754437 
L 392.775379 101.336987 
L 397.142402 119.60671 
L 401.509424 129.055688 
L 405.876446 127.44838 
" clip-path="url(#p527f3dd093)" style="fill: none; stroke: #ff7f7f; stroke-width: 1.5; stroke-linecap: square"/>
   </g>
   <g id="line2d_52">
    <path d="M 349.105157 91.24958 
L 353.472179 99.130427 
L 357.839201 113.117772 
L 362.206224 126.823329 
L 366.573246 134.537464 
L 370.940268 139.498536 
L 375.30729 138.736477 
L 379.674313 134.452264 
L 384.041335 128.665703 
L 388.408357 121.088515 
L 392.775379 113.677257 
L 397.142402 117.801578 
L 401.509424 128.785445 
L 405.876446 128.303854 
" clip-path="url(#p527f3dd093)" style="fill: none; stroke: #000080; stroke-width: 1.5; stroke-linecap: square"/>
   </g>
   <g id="line2d_53">
    <path d="M 353.472179 167.24 
L 353.472179 50.64 
" clip-path="url(#p527f3dd093)" style="fill: none; stroke: #000000; stroke-width: 0.8; stroke-linecap: square"/>
   </g>
   <g id="line2d_54">
    <path d="M 364.389735 167.24 
L 364.389735 50.64 
" clip-path="url(#p527f3dd093)" style="fill: none; stroke-dasharray: 2.96,1.28; stroke-dashoffset: 0; stroke: #000000; stroke-width: 0.8"/>
   </g>
   <g id="line2d_55">
    <path d="M 349.105157 114.24 
L 405.876446 114.24 
" clip-path="url(#p527f3dd093)" style="fill: none; stroke: #000000; stroke-width: 0.8; stroke-linecap: square"/>
   </g>
   <g id="patch_12">
    <path d="M 353.472179 167.24 
L 405.876446 167.24 
" style="fill: none; stroke: #000000; stroke-width: 0.8; stroke-linejoin: miter; stroke-linecap: square"/>
   </g>
   <g id="text_23">
    <!-- S1 -->
    <g transform="translate(369.864239 44.64) scale(0.12 -0.12)">
     <use xlink:href="#DejaVuSans-53"/>
     <use xlink:href="#DejaVuSans-31" transform="translate(63.476562 0)"/>
    </g>
   </g>
  </g>
  <g id="axes_6">
   <g id="patch_13">
    <path d="M 423.021446 167.24 
L 479.792735 167.24 
L 479.792735 50.64 
L 423.021446 50.64 
z
" style="fill: #ffffff"/>
   </g>
   <g id="FillBetweenPolyCollection_11">
    <defs>
     <path id="m45667fb73d" d="M 423.021446 -102.132036 
L 423.021446 -95.932409 
L 427.388468 -88.408702 
L 431.75549 -92.298239 
L 436.122513 -98.100173 
L 440.489535 -114.099421 
L 444.856557 -124.081828 
L 449.223579 -124.855933 
L 453.590602 -121.128538 
L 457.957624 -112.176529 
L 462.324646 -106.873837 
L 466.691668 -99.654989 
L 471.058691 -95.321103 
L 475.425713 -93.389603 
L 479.792735 -97.657534 
L 479.792735 -105.71709 
L 479.792735 -105.71709 
L 475.425713 -99.961485 
L 471.058691 -100.159093 
L 466.691668 -105.725061 
L 462.324646 -113.951359 
L 457.957624 -119.555574 
L 453.590602 -127.975804 
L 449.223579 -131.750072 
L 444.856557 -132.53622 
L 440.489535 -123.600362 
L 436.122513 -105.687359 
L 431.75549 -97.221788 
L 427.388468 -95.551916 
L 423.021446 -102.132036 
z
"/>
    </defs>
    <g clip-path="url(#p79b7393e6c)">
     <use xlink:href="#m45667fb73d" x="0" y="216" style="fill: #ff7f7f; fill-opacity: 0.2"/>
    </g>
   </g>
   <g id="FillBetweenPolyCollection_12">
    <defs>
     <path id="mec3484912c" d="M 423.021446 -113.377761 
L 423.021446 -106.834704 
L 427.388468 -102.863594 
L 431.75549 -94.445468 
L 436.122513 -90.121453 
L 440.489535 -90.438994 
L 444.856557 -90.904608 
L 449.223579 -94.410619 
L 453.590602 -98.687628 
L 457.957624 -99.959738 
L 462.324646 -103.114098 
L 466.691668 -105.389675 
L 471.058691 -98.617253 
L 475.425713 -86.192563 
L 479.792735 -92.597133 
L 479.792735 -101.248634 
L 479.792735 -101.248634 
L 475.425713 -95.937088 
L 471.058691 -108.616084 
L 466.691668 -115.153491 
L 462.324646 -112.954568 
L 457.957624 -109.954355 
L 453.590602 -105.183014 
L 449.223579 -101.397049 
L 444.856557 -98.998853 
L 440.489535 -98.180336 
L 436.122513 -96.337575 
L 431.75549 -100.375035 
L 427.388468 -110.442516 
L 423.021446 -113.377761 
z
"/>
    </defs>
    <g clip-path="url(#p79b7393e6c)">
     <use xlink:href="#mec3484912c" x="0" y="216" style="fill: #000080; fill-opacity: 0.2"/>
    </g>
   </g>
   <g id="matplotlib.axis_11">
    <g id="xtick_16">
     <g id="line2d_56">
      <g>
       <use xlink:href="#m34fd420911" x="427.388468" y="167.24" style="stroke: #000000; stroke-width: 0.8"/>
      </g>
     </g>
     <g id="text_24">
      <!-- 0 -->
      <g transform="translate(424.207218 181.838437) scale(0.1 -0.1)">
       <use xlink:href="#DejaVuSans-30"/>
      </g>
     </g>
    </g>
    <g id="xtick_17">
     <g id="line2d_57">
      <g>
       <use xlink:href="#m34fd420911" x="453.590602" y="167.24" style="stroke: #000000; stroke-width: 0.8"/>
      </g>
     </g>
     <g id="text_25">
      <!-- 6 -->
      <g transform="translate(450.409352 181.838437) scale(0.1 -0.1)">
       <use xlink:href="#DejaVuSans-36"/>
      </g>
     </g>
    </g>
    <g id="xtick_18">
     <g id="line2d_58">
      <g>
       <use xlink:href="#m34fd420911" x="479.792735" y="167.24" style="stroke: #000000; stroke-width: 0.8"/>
      </g>
     </g>
     <g id="text_26">
      <!-- 12 -->
      <g transform="translate(473.430235 181.838437) scale(0.1 -0.1)">
       <use xlink:href="#DejaVuSans-31"/>
       <use xlink:href="#DejaVuSans-32" transform="translate(63.623047 0)"/>
      </g>
     </g>
    </g>
   </g>
   <g id="matplotlib.axis_12">
    <g id="ytick_16">
     <g id="line2d_59">
      <g>
       <use xlink:href="#mc383b68a10" x="423.021446" y="149.573333"/>
      </g>
     </g>
    </g>
    <g id="ytick_17">
     <g id="line2d_60">
      <g>
       <use xlink:href="#mc383b68a10" x="423.021446" y="114.24"/>
      </g>
     </g>
    </g>
    <g id="ytick_18">
     <g id="line2d_61">
      <g>
       <use xlink:href="#mc383b68a10" x="423.021446" y="78.906667"/>
      </g>
     </g>
    </g>
   </g>
   <g id="line2d_62">
    <path d="M 423.021446 116.967778 
L 427.388468 124.019691 
L 431.75549 121.239987 
L 436.122513 114.106234 
L 440.489535 97.150109 
L 444.856557 87.690976 
L 449.223579 87.696998 
L 453.590602 91.447829 
L 457.957624 100.133948 
L 462.324646 105.587402 
L 466.691668 113.309975 
L 471.058691 118.259902 
L 475.425713 119.324456 
L 479.792735 114.312688 
" clip-path="url(#p79b7393e6c)" style="fill: none; stroke: #ff7f7f; stroke-width: 1.5; stroke-linecap: square"/>
   </g>
   <g id="line2d_63">
    <path d="M 423.021446 105.893768 
L 427.388468 109.346945 
L 431.75549 118.589749 
L 436.122513 122.770486 
L 440.489535 121.690335 
L 444.856557 121.048269 
L 449.223579 118.096166 
L 453.590602 114.064679 
L 457.957624 111.042954 
L 462.324646 107.965667 
L 466.691668 105.728417 
L 471.058691 112.383331 
L 475.425713 124.935175 
L 479.792735 119.077116 
" clip-path="url(#p79b7393e6c)" style="fill: none; stroke: #000080; stroke-width: 1.5; stroke-linecap: square"/>
   </g>
   <g id="line2d_64">
    <path d="M 427.388468 167.24 
L 427.388468 50.64 
" clip-path="url(#p79b7393e6c)" style="fill: none; stroke: #000000; stroke-width: 0.8; stroke-linecap: square"/>
   </g>
   <g id="line2d_65">
    <path d="M 438.306024 167.24 
L 438.306024 50.64 
" clip-path="url(#p79b7393e6c)" style="fill: none; stroke-dasharray: 2.96,1.28; stroke-dashoffset: 0; stroke: #000000; stroke-width: 0.8"/>
   </g>
   <g id="line2d_66">
    <path d="M 423.021446 114.24 
L 479.792735 114.24 
" clip-path="url(#p79b7393e6c)" style="fill: none; stroke: #000000; stroke-width: 0.8; stroke-linecap: square"/>
   </g>
   <g id="patch_14">
    <path d="M 427.388468 167.24 
L 479.792735 167.24 
" style="fill: none; stroke: #000000; stroke-width: 0.8; stroke-linejoin: miter; stroke-linecap: square"/>
   </g>
   <g id="text_27">
    <!-- SPLa -->
    <g transform="translate(436.960216 44.64) scale(0.12 -0.12)">
     <defs>
      <path id="DejaVuSans-4c" d="M 628 4666 
L 1259 4666 
L 1259 531 
L 3531 531 
L 3531 0 
L 628 0 
L 628 4666 
z
" transform="scale(0.015625)"/>
      <path id="DejaVuSans-61" d="M 2194 1759 
Q 1497 1759 1228 1600 
Q 959 1441 959 1056 
Q 959 750 1161 570 
Q 1363 391 1709 391 
Q 2188 391 2477 730 
Q 2766 1069 2766 1631 
L 2766 1759 
L 2194 1759 
z
M 3341 1997 
L 3341 0 
L 2766 0 
L 2766 531 
Q 2569 213 2275 61 
Q 1981 -91 1556 -91 
Q 1019 -91 701 211 
Q 384 513 384 1019 
Q 384 1609 779 1909 
Q 1175 2209 1959 2209 
L 2766 2209 
L 2766 2266 
Q 2766 2663 2505 2880 
Q 2244 3097 1772 3097 
Q 1472 3097 1187 3025 
Q 903 2953 641 2809 
L 641 3341 
Q 956 3463 1253 3523 
Q 1550 3584 1831 3584 
Q 2591 3584 2966 3190 
Q 3341 2797 3341 1997 
z
" transform="scale(0.015625)"/>
     </defs>
     <use xlink:href="#DejaVuSans-53"/>
     <use xlink:href="#DejaVuSans-50" transform="translate(63.476562 0)"/>
     <use xlink:href="#DejaVuSans-4c" transform="translate(123.779297 0)"/>
     <use xlink:href="#DejaVuSans-61" transform="translate(179.492188 0)"/>
    </g>
   </g>
  </g>
  <g id="axes_7">
   <g id="patch_15">
    <path d="M 496.937735 167.24 
L 553.709024 167.24 
L 553.709024 50.64 
L 496.937735 50.64 
z
" style="fill: #ffffff"/>
   </g>
   <g id="FillBetweenPolyCollection_13">
    <defs>
     <path id="mfdf4321fb9" d="M 496.937735 -102.095747 
L 496.937735 -96.802452 
L 501.304757 -91.153345 
L 505.67178 -95.268313 
L 510.038802 -99.731476 
L 514.405824 -111.908213 
L 518.772846 -117.97528 
L 523.139869 -119.088614 
L 527.506891 -116.916159 
L 531.873913 -109.598274 
L 536.240935 -103.108086 
L 540.607958 -96.399 
L 544.97498 -92.151339 
L 549.342002 -90.146861 
L 553.709024 -94.282927 
L 553.709024 -100.621958 
L 553.709024 -100.621958 
L 549.342002 -95.617764 
L 544.97498 -95.779207 
L 540.607958 -100.810332 
L 536.240935 -110.443801 
L 531.873913 -116.735758 
L 527.506891 -123.888857 
L 523.139869 -126.134546 
L 518.772846 -125.124087 
L 514.405824 -118.481694 
L 510.038802 -105.702481 
L 505.67178 -99.190073 
L 501.304757 -97.299904 
L 496.937735 -102.095747 
z
"/>
    </defs>
    <g clip-path="url(#pd2e5068cc6)">
     <use xlink:href="#mfdf4321fb9" x="0" y="216" style="fill: #ff7f7f; fill-opacity: 0.2"/>
    </g>
   </g>
   <g id="FillBetweenPolyCollection_14">
    <defs>
     <path id="m5a30b0e07b" d="M 496.937735 -111.003774 
L 496.937735 -104.977375 
L 501.304757 -102.150625 
L 505.67178 -92.731321 
L 510.038802 -89.805221 
L 514.405824 -90.288799 
L 518.772846 -88.928934 
L 523.139869 -89.850601 
L 527.506891 -94.066324 
L 531.873913 -95.864323 
L 536.240935 -100.357415 
L 540.607958 -106.374294 
L 544.97498 -102.81661 
L 549.342002 -96.627269 
L 553.709024 -100.303998 
L 553.709024 -108.481975 
L 553.709024 -108.481975 
L 549.342002 -104.758704 
L 544.97498 -110.733472 
L 540.607958 -113.581386 
L 536.240935 -110.423152 
L 531.873913 -105.520815 
L 527.506891 -100.824493 
L 523.139869 -96.839197 
L 518.772846 -97.398822 
L 514.405824 -97.209943 
L 510.038802 -95.560638 
L 505.67178 -98.196719 
L 501.304757 -107.839731 
L 496.937735 -111.003774 
z
"/>
    </defs>
    <g clip-path="url(#pd2e5068cc6)">
     <use xlink:href="#m5a30b0e07b" x="0" y="216" style="fill: #000080; fill-opacity: 0.2"/>
    </g>
   </g>
   <g id="matplotlib.axis_13">
    <g id="xtick_19">
     <g id="line2d_67">
      <g>
       <use xlink:href="#m34fd420911" x="501.304757" y="167.24" style="stroke: #000000; stroke-width: 0.8"/>
      </g>
     </g>
     <g id="text_28">
      <!-- 0 -->
      <g transform="translate(498.123507 181.838437) scale(0.1 -0.1)">
       <use xlink:href="#DejaVuSans-30"/>
      </g>
     </g>
    </g>
    <g id="xtick_20">
     <g id="line2d_68">
      <g>
       <use xlink:href="#m34fd420911" x="527.506891" y="167.24" style="stroke: #000000; stroke-width: 0.8"/>
      </g>
     </g>
     <g id="text_29">
      <!-- 6 -->
      <g transform="translate(524.325641 181.838437) scale(0.1 -0.1)">
       <use xlink:href="#DejaVuSans-36"/>
      </g>
     </g>
    </g>
    <g id="xtick_21">
     <g id="line2d_69">
      <g>
       <use xlink:href="#m34fd420911" x="553.709024" y="167.24" style="stroke: #000000; stroke-width: 0.8"/>
      </g>
     </g>
     <g id="text_30">
      <!-- 12 -->
      <g transform="translate(547.346524 181.838437) scale(0.1 -0.1)">
       <use xlink:href="#DejaVuSans-31"/>
       <use xlink:href="#DejaVuSans-32" transform="translate(63.623047 0)"/>
      </g>
     </g>
    </g>
   </g>
   <g id="matplotlib.axis_14">
    <g id="ytick_19">
     <g id="line2d_70">
      <g>
       <use xlink:href="#mc383b68a10" x="496.937735" y="149.573333"/>
      </g>
     </g>
    </g>
    <g id="ytick_20">
     <g id="line2d_71">
      <g>
       <use xlink:href="#mc383b68a10" x="496.937735" y="114.24"/>
      </g>
     </g>
    </g>
    <g id="ytick_21">
     <g id="line2d_72">
      <g>
       <use xlink:href="#mc383b68a10" x="496.937735" y="78.906667"/>
      </g>
     </g>
    </g>
   </g>
   <g id="line2d_73">
    <path d="M 496.937735 116.550901 
L 501.304757 121.773376 
L 505.67178 118.770807 
L 510.038802 113.283022 
L 514.405824 100.805047 
L 518.772846 94.450316 
L 523.139869 93.38842 
L 527.506891 95.597492 
L 531.873913 102.832984 
L 536.240935 109.224057 
L 540.607958 117.395334 
L 544.97498 122.034727 
L 549.342002 123.117688 
L 553.709024 118.547558 
" clip-path="url(#pd2e5068cc6)" style="fill: none; stroke: #ff7f7f; stroke-width: 1.5; stroke-linecap: square"/>
   </g>
   <g id="line2d_74">
    <path d="M 496.937735 108.009426 
L 501.304757 111.004822 
L 505.67178 120.53598 
L 510.038802 123.317071 
L 514.405824 122.250629 
L 518.772846 122.836122 
L 523.139869 122.655101 
L 527.506891 118.554592 
L 531.873913 115.307431 
L 536.240935 110.609717 
L 540.607958 106.02216 
L 544.97498 109.224959 
L 549.342002 115.307013 
L 553.709024 111.607013 
" clip-path="url(#pd2e5068cc6)" style="fill: none; stroke: #000080; stroke-width: 1.5; stroke-linecap: square"/>
   </g>
   <g id="line2d_75">
    <path d="M 501.304757 167.24 
L 501.304757 50.64 
" clip-path="url(#pd2e5068cc6)" style="fill: none; stroke: #000000; stroke-width: 0.8; stroke-linecap: square"/>
   </g>
   <g id="line2d_76">
    <path d="M 512.222313 167.24 
L 512.222313 50.64 
" clip-path="url(#pd2e5068cc6)" style="fill: none; stroke-dasharray: 2.96,1.28; stroke-dashoffset: 0; stroke: #000000; stroke-width: 0.8"/>
   </g>
   <g id="line2d_77">
    <path d="M 496.937735 114.24 
L 553.709024 114.24 
" clip-path="url(#pd2e5068cc6)" style="fill: none; stroke: #000000; stroke-width: 0.8; stroke-linecap: square"/>
   </g>
   <g id="patch_16">
    <path d="M 501.304757 167.24 
L 553.709024 167.24 
" style="fill: none; stroke: #000000; stroke-width: 0.8; stroke-linejoin: miter; stroke-linecap: square"/>
   </g>
   <g id="text_31">
    <!-- SPLp -->
    <g transform="translate(510.744317 44.64) scale(0.12 -0.12)">
     <defs>
      <path id="DejaVuSans-70" d="M 1159 525 
L 1159 -1331 
L 581 -1331 
L 581 3500 
L 1159 3500 
L 1159 2969 
Q 1341 3281 1617 3432 
Q 1894 3584 2278 3584 
Q 2916 3584 3314 3078 
Q 3713 2572 3713 1747 
Q 3713 922 3314 415 
Q 2916 -91 2278 -91 
Q 1894 -91 1617 61 
Q 1341 213 1159 525 
z
M 3116 1747 
Q 3116 2381 2855 2742 
Q 2594 3103 2138 3103 
Q 1681 3103 1420 2742 
Q 1159 2381 1159 1747 
Q 1159 1113 1420 752 
Q 1681 391 2138 391 
Q 2594 391 2855 752 
Q 3116 1113 3116 1747 
z
" transform="scale(0.015625)"/>
     </defs>
     <use xlink:href="#DejaVuSans-53"/>
     <use xlink:href="#DejaVuSans-50" transform="translate(63.476562 0)"/>
     <use xlink:href="#DejaVuSans-4c" transform="translate(123.779297 0)"/>
     <use xlink:href="#DejaVuSans-70" transform="translate(179.492188 0)"/>
    </g>
   </g>
   <g id="legend_1">
    <g id="line2d_78">
     <path d="M 505.937735 63.738438 
L 515.937735 63.738438 
L 525.937735 63.738438 
" style="fill: none; stroke: #ff7f7f; stroke-width: 1.5; stroke-linecap: square"/>
    </g>
    <g id="text_32">
     <!-- go -->
     <g transform="translate(533.937735 67.238438) scale(0.1 -0.1)">
      <defs>
       <path id="DejaVuSans-67" d="M 2906 1791 
Q 2906 2416 2648 2759 
Q 2391 3103 1925 3103 
Q 1463 3103 1205 2759 
Q 947 2416 947 1791 
Q 947 1169 1205 825 
Q 1463 481 1925 481 
Q 2391 481 2648 825 
Q 2906 1169 2906 1791 
z
M 3481 434 
Q 3481 -459 3084 -895 
Q 2688 -1331 1869 -1331 
Q 1566 -1331 1297 -1286 
Q 1028 -1241 775 -1147 
L 775 -588 
Q 1028 -725 1275 -790 
Q 1522 -856 1778 -856 
Q 2344 -856 2625 -561 
Q 2906 -266 2906 331 
L 2906 616 
Q 2728 306 2450 153 
Q 2172 0 1784 0 
Q 1141 0 747 490 
Q 353 981 353 1791 
Q 353 2603 747 3093 
Q 1141 3584 1784 3584 
Q 2172 3584 2450 3431 
Q 2728 3278 2906 2969 
L 2906 3500 
L 3481 3500 
L 3481 434 
z
" transform="scale(0.015625)"/>
       <path id="DejaVuSans-6f" d="M 1959 3097 
Q 1497 3097 1228 2736 
Q 959 2375 959 1747 
Q 959 1119 1226 758 
Q 1494 397 1959 397 
Q 2419 397 2687 759 
Q 2956 1122 2956 1747 
Q 2956 2369 2687 2733 
Q 2419 3097 1959 3097 
z
M 1959 3584 
Q 2709 3584 3137 3096 
Q 3566 2609 3566 1747 
Q 3566 888 3137 398 
Q 2709 -91 1959 -91 
Q 1206 -91 779 398 
Q 353 888 353 1747 
Q 353 2609 779 3096 
Q 1206 3584 1959 3584 
z
" transform="scale(0.015625)"/>
      </defs>
      <use xlink:href="#DejaVuSans-67"/>
      <use xlink:href="#DejaVuSans-6f" transform="translate(63.476562 0)"/>
     </g>
    </g>
    <g id="line2d_79">
     <path d="M 505.937735 78.416563 
L 515.937735 78.416563 
L 525.937735 78.416563 
" style="fill: none; stroke: #000080; stroke-width: 1.5; stroke-linecap: square"/>
    </g>
    <g id="text_33">
     <!-- nogo -->
     <g transform="translate(533.937735 81.916563) scale(0.1 -0.1)">
      <defs>
       <path id="DejaVuSans-6e" d="M 3513 2113 
L 3513 0 
L 2938 0 
L 2938 2094 
Q 2938 2591 2744 2837 
Q 2550 3084 2163 3084 
Q 1697 3084 1428 2787 
Q 1159 2491 1159 1978 
L 1159 0 
L 581 0 
L 581 3500 
L 1159 3500 
L 1159 2956 
Q 1366 3272 1645 3428 
Q 1925 3584 2291 3584 
Q 2894 3584 3203 3211 
Q 3513 2838 3513 2113 
z
" transform="scale(0.015625)"/>
      </defs>
      <use xlink:href="#DejaVuSans-6e"/>
      <use xlink:href="#DejaVuSans-6f" transform="translate(63.378906 0)"/>
      <use xlink:href="#DejaVuSans-67" transform="translate(124.560547 0)"/>
      <use xlink:href="#DejaVuSans-6f" transform="translate(188.037109 0)"/>
     </g>
    </g>
   </g>
  </g>
  <g id="text_34">
   <!-- activation (a.u.) -->
   <g transform="translate(19.118437 147.664844) rotate(-90) scale(0.1 -0.1)">
    <defs>
     <path id="DejaVuSans-63" d="M 3122 3366 
L 3122 2828 
Q 2878 2963 2633 3030 
Q 2388 3097 2138 3097 
Q 1578 3097 1268 2742 
Q 959 2388 959 1747 
Q 959 1106 1268 751 
Q 1578 397 2138 397 
Q 2388 397 2633 464 
Q 2878 531 3122 666 
L 3122 134 
Q 2881 22 2623 -34 
Q 2366 -91 2075 -91 
Q 1284 -91 818 406 
Q 353 903 353 1747 
Q 353 2603 823 3093 
Q 1294 3584 2113 3584 
Q 2378 3584 2631 3529 
Q 2884 3475 3122 3366 
z
" transform="scale(0.015625)"/>
     <path id="DejaVuSans-74" d="M 1172 4494 
L 1172 3500 
L 2356 3500 
L 2356 3053 
L 1172 3053 
L 1172 1153 
Q 1172 725 1289 603 
Q 1406 481 1766 481 
L 2356 481 
L 2356 0 
L 1766 0 
Q 1100 0 847 248 
Q 594 497 594 1153 
L 594 3053 
L 172 3053 
L 172 3500 
L 594 3500 
L 594 4494 
L 1172 4494 
z
" transform="scale(0.015625)"/>
     <path id="DejaVuSans-69" d="M 603 3500 
L 1178 3500 
L 1178 0 
L 603 0 
L 603 3500 
z
M 603 4863 
L 1178 4863 
L 1178 4134 
L 603 4134 
L 603 4863 
z
" transform="scale(0.015625)"/>
     <path id="DejaVuSans-20" transform="scale(0.015625)"/>
     <path id="DejaVuSans-28" d="M 1984 4856 
Q 1566 4138 1362 3434 
Q 1159 2731 1159 2009 
Q 1159 1288 1364 580 
Q 1569 -128 1984 -844 
L 1484 -844 
Q 1016 -109 783 600 
Q 550 1309 550 2009 
Q 550 2706 781 3412 
Q 1013 4119 1484 4856 
L 1984 4856 
z
" transform="scale(0.015625)"/>
     <path id="DejaVuSans-2e" d="M 684 794 
L 1344 794 
L 1344 0 
L 684 0 
L 684 794 
z
" transform="scale(0.015625)"/>
     <path id="DejaVuSans-75" d="M 544 1381 
L 544 3500 
L 1119 3500 
L 1119 1403 
Q 1119 906 1312 657 
Q 1506 409 1894 409 
Q 2359 409 2629 706 
Q 2900 1003 2900 1516 
L 2900 3500 
L 3475 3500 
L 3475 0 
L 2900 0 
L 2900 538 
Q 2691 219 2414 64 
Q 2138 -91 1772 -91 
Q 1169 -91 856 284 
Q 544 659 544 1381 
z
M 1991 3584 
L 1991 3584 
z
" transform="scale(0.015625)"/>
     <path id="DejaVuSans-29" d="M 513 4856 
L 1013 4856 
Q 1481 4119 1714 3412 
Q 1947 2706 1947 2009 
Q 1947 1309 1714 600 
Q 1481 -109 1013 -844 
L 513 -844 
Q 928 -128 1133 580 
Q 1338 1288 1338 2009 
Q 1338 2731 1133 3434 
Q 928 4138 513 4856 
z
" transform="scale(0.015625)"/>
    </defs>
    <use xlink:href="#DejaVuSans-61"/>
    <use xlink:href="#DejaVuSans-63" transform="translate(61.279297 0)"/>
    <use xlink:href="#DejaVuSans-74" transform="translate(116.259766 0)"/>
    <use xlink:href="#DejaVuSans-69" transform="translate(155.46875 0)"/>
    <use xlink:href="#DejaVuSans-76" transform="translate(183.251953 0)"/>
    <use xlink:href="#DejaVuSans-61" transform="translate(242.431641 0)"/>
    <use xlink:href="#DejaVuSans-74" transform="translate(303.710938 0)"/>
    <use xlink:href="#DejaVuSans-69" transform="translate(342.919922 0)"/>
    <use xlink:href="#DejaVuSans-6f" transform="translate(370.703125 0)"/>
    <use xlink:href="#DejaVuSans-6e" transform="translate(431.884766 0)"/>
    <use xlink:href="#DejaVuSans-20" transform="translate(495.263672 0)"/>
    <use xlink:href="#DejaVuSans-28" transform="translate(527.050781 0)"/>
    <use xlink:href="#DejaVuSans-61" transform="translate(566.064453 0)"/>
    <use xlink:href="#DejaVuSans-2e" transform="translate(627.34375 0)"/>
    <use xlink:href="#DejaVuSans-75" transform="translate(659.130859 0)"/>
    <use xlink:href="#DejaVuSans-2e" transform="translate(722.509766 0)"/>
    <use xlink:href="#DejaVuSans-29" transform="translate(754.296875 0)"/>
   </g>
  </g>
  <g id="text_35">
   <!-- time relative to cue presentation onset (s) -->
   <g transform="translate(182.276563 211.760312) scale(0.1 -0.1)">
    <defs>
     <path id="DejaVuSans-6d" d="M 3328 2828 
Q 3544 3216 3844 3400 
Q 4144 3584 4550 3584 
Q 5097 3584 5394 3201 
Q 5691 2819 5691 2113 
L 5691 0 
L 5113 0 
L 5113 2094 
Q 5113 2597 4934 2840 
Q 4756 3084 4391 3084 
Q 3944 3084 3684 2787 
Q 3425 2491 3425 1978 
L 3425 0 
L 2847 0 
L 2847 2094 
Q 2847 2600 2669 2842 
Q 2491 3084 2119 3084 
Q 1678 3084 1418 2786 
Q 1159 2488 1159 1978 
L 1159 0 
L 581 0 
L 581 3500 
L 1159 3500 
L 1159 2956 
Q 1356 3278 1631 3431 
Q 1906 3584 2284 3584 
Q 2666 3584 2933 3390 
Q 3200 3197 3328 2828 
z
" transform="scale(0.015625)"/>
     <path id="DejaVuSans-65" d="M 3597 1894 
L 3597 1613 
L 953 1613 
Q 991 1019 1311 708 
Q 1631 397 2203 397 
Q 2534 397 2845 478 
Q 3156 559 3463 722 
L 3463 178 
Q 3153 47 2828 -22 
Q 2503 -91 2169 -91 
Q 1331 -91 842 396 
Q 353 884 353 1716 
Q 353 2575 817 3079 
Q 1281 3584 2069 3584 
Q 2775 3584 3186 3129 
Q 3597 2675 3597 1894 
z
M 3022 2063 
Q 3016 2534 2758 2815 
Q 2500 3097 2075 3097 
Q 1594 3097 1305 2825 
Q 1016 2553 972 2059 
L 3022 2063 
z
" transform="scale(0.015625)"/>
     <path id="DejaVuSans-72" d="M 2631 2963 
Q 2534 3019 2420 3045 
Q 2306 3072 2169 3072 
Q 1681 3072 1420 2755 
Q 1159 2438 1159 1844 
L 1159 0 
L 581 0 
L 581 3500 
L 1159 3500 
L 1159 2956 
Q 1341 3275 1631 3429 
Q 1922 3584 2338 3584 
Q 2397 3584 2469 3576 
Q 2541 3569 2628 3553 
L 2631 2963 
z
" transform="scale(0.015625)"/>
     <path id="DejaVuSans-6c" d="M 603 4863 
L 1178 4863 
L 1178 0 
L 603 0 
L 603 4863 
z
" transform="scale(0.015625)"/>
     <path id="DejaVuSans-73" d="M 2834 3397 
L 2834 2853 
Q 2591 2978 2328 3040 
Q 2066 3103 1784 3103 
Q 1356 3103 1142 2972 
Q 928 2841 928 2578 
Q 928 2378 1081 2264 
Q 1234 2150 1697 2047 
L 1894 2003 
Q 2506 1872 2764 1633 
Q 3022 1394 3022 966 
Q 3022 478 2636 193 
Q 2250 -91 1575 -91 
Q 1294 -91 989 -36 
Q 684 19 347 128 
L 347 722 
Q 666 556 975 473 
Q 1284 391 1588 391 
Q 1994 391 2212 530 
Q 2431 669 2431 922 
Q 2431 1156 2273 1281 
Q 2116 1406 1581 1522 
L 1381 1569 
Q 847 1681 609 1914 
Q 372 2147 372 2553 
Q 372 3047 722 3315 
Q 1072 3584 1716 3584 
Q 2034 3584 2315 3537 
Q 2597 3491 2834 3397 
z
" transform="scale(0.015625)"/>
    </defs>
    <use xlink:href="#DejaVuSans-74"/>
    <use xlink:href="#DejaVuSans-69" transform="translate(39.208984 0)"/>
    <use xlink:href="#DejaVuSans-6d" transform="translate(66.992188 0)"/>
    <use xlink:href="#DejaVuSans-65" transform="translate(164.404297 0)"/>
    <use xlink:href="#DejaVuSans-20" transform="translate(225.927734 0)"/>
    <use xlink:href="#DejaVuSans-72" transform="translate(257.714844 0)"/>
    <use xlink:href="#DejaVuSans-65" transform="translate(296.578125 0)"/>
    <use xlink:href="#DejaVuSans-6c" transform="translate(358.101562 0)"/>
    <use xlink:href="#DejaVuSans-61" transform="translate(385.884766 0)"/>
    <use xlink:href="#DejaVuSans-74" transform="translate(447.164062 0)"/>
    <use xlink:href="#DejaVuSans-69" transform="translate(486.373047 0)"/>
    <use xlink:href="#DejaVuSans-76" transform="translate(514.15625 0)"/>
    <use xlink:href="#DejaVuSans-65" transform="translate(573.335938 0)"/>
    <use xlink:href="#DejaVuSans-20" transform="translate(634.859375 0)"/>
    <use xlink:href="#DejaVuSans-74" transform="translate(666.646484 0)"/>
    <use xlink:href="#DejaVuSans-6f" transform="translate(705.855469 0)"/>
    <use xlink:href="#DejaVuSans-20" transform="translate(767.037109 0)"/>
    <use xlink:href="#DejaVuSans-63" transform="translate(798.824219 0)"/>
    <use xlink:href="#DejaVuSans-75" transform="translate(853.804688 0)"/>
    <use xlink:href="#DejaVuSans-65" transform="translate(917.183594 0)"/>
    <use xlink:href="#DejaVuSans-20" transform="translate(978.707031 0)"/>
    <use xlink:href="#DejaVuSans-70" transform="translate(1010.494141 0)"/>
    <use xlink:href="#DejaVuSans-72" transform="translate(1073.970703 0)"/>
    <use xlink:href="#DejaVuSans-65" transform="translate(1112.833984 0)"/>
    <use xlink:href="#DejaVuSans-73" transform="translate(1174.357422 0)"/>
    <use xlink:href="#DejaVuSans-65" transform="translate(1226.457031 0)"/>
    <use xlink:href="#DejaVuSans-6e" transform="translate(1287.980469 0)"/>
    <use xlink:href="#DejaVuSans-74" transform="translate(1351.359375 0)"/>
    <use xlink:href="#DejaVuSans-61" transform="translate(1390.568359 0)"/>
    <use xlink:href="#DejaVuSans-74" transform="translate(1451.847656 0)"/>
    <use xlink:href="#DejaVuSans-69" transform="translate(1491.056641 0)"/>
    <use xlink:href="#DejaVuSans-6f" transform="translate(1518.839844 0)"/>
    <use xlink:href="#DejaVuSans-6e" transform="translate(1580.021484 0)"/>
    <use xlink:href="#DejaVuSans-20" transform="translate(1643.400391 0)"/>
    <use xlink:href="#DejaVuSans-6f" transform="translate(1675.1875 0)"/>
    <use xlink:href="#DejaVuSans-6e" transform="translate(1736.369141 0)"/>
    <use xlink:href="#DejaVuSans-73" transform="translate(1799.748047 0)"/>
    <use xlink:href="#DejaVuSans-65" transform="translate(1851.847656 0)"/>
    <use xlink:href="#DejaVuSans-74" transform="translate(1913.371094 0)"/>
    <use xlink:href="#DejaVuSans-20" transform="translate(1952.580078 0)"/>
    <use xlink:href="#DejaVuSans-28" transform="translate(1984.367188 0)"/>
    <use xlink:href="#DejaVuSans-73" transform="translate(2023.380859 0)"/>
    <use xlink:href="#DejaVuSans-29" transform="translate(2075.480469 0)"/>
   </g>
  </g>
  <g id="text_36">
   <!-- Average BOLD timeseries -->
   <g transform="translate(211.525312 13.438125) scale(0.12 -0.12)">
    <defs>
     <path id="DejaVuSans-42" d="M 1259 2228 
L 1259 519 
L 2272 519 
Q 2781 519 3026 730 
Q 3272 941 3272 1375 
Q 3272 1813 3026 2020 
Q 2781 2228 2272 2228 
L 1259 2228 
z
M 1259 4147 
L 1259 2741 
L 2194 2741 
Q 2656 2741 2882 2914 
Q 3109 3088 3109 3444 
Q 3109 3797 2882 3972 
Q 2656 4147 2194 4147 
L 1259 4147 
z
M 628 4666 
L 2241 4666 
Q 2963 4666 3353 4366 
Q 3744 4066 3744 3513 
Q 3744 3084 3544 2831 
Q 3344 2578 2956 2516 
Q 3422 2416 3680 2098 
Q 3938 1781 3938 1306 
Q 3938 681 3513 340 
Q 3088 0 2303 0 
L 628 0 
L 628 4666 
z
" transform="scale(0.015625)"/>
     <path id="DejaVuSans-4f" d="M 2522 4238 
Q 1834 4238 1429 3725 
Q 1025 3213 1025 2328 
Q 1025 1447 1429 934 
Q 1834 422 2522 422 
Q 3209 422 3611 934 
Q 4013 1447 4013 2328 
Q 4013 3213 3611 3725 
Q 3209 4238 2522 4238 
z
M 2522 4750 
Q 3503 4750 4090 4092 
Q 4678 3434 4678 2328 
Q 4678 1225 4090 567 
Q 3503 -91 2522 -91 
Q 1538 -91 948 565 
Q 359 1222 359 2328 
Q 359 3434 948 4092 
Q 1538 4750 2522 4750 
z
" transform="scale(0.015625)"/>
     <path id="DejaVuSans-44" d="M 1259 4147 
L 1259 519 
L 2022 519 
Q 2988 519 3436 956 
Q 3884 1394 3884 2338 
Q 3884 3275 3436 3711 
Q 2988 4147 2022 4147 
L 1259 4147 
z
M 628 4666 
L 1925 4666 
Q 3281 4666 3915 4102 
Q 4550 3538 4550 2338 
Q 4550 1131 3912 565 
Q 3275 0 1925 0 
L 628 0 
L 628 4666 
z
" transform="scale(0.015625)"/>
    </defs>
    <use xlink:href="#DejaVuSans-41"/>
    <use xlink:href="#DejaVuSans-76" transform="translate(62.533203 0)"/>
    <use xlink:href="#DejaVuSans-65" transform="translate(121.712891 0)"/>
    <use xlink:href="#DejaVuSans-72" transform="translate(183.236328 0)"/>
    <use xlink:href="#DejaVuSans-61" transform="translate(224.349609 0)"/>
    <use xlink:href="#DejaVuSans-67" transform="translate(285.628906 0)"/>
    <use xlink:href="#DejaVuSans-65" transform="translate(349.105469 0)"/>
    <use xlink:href="#DejaVuSans-20" transform="translate(410.628906 0)"/>
    <use xlink:href="#DejaVuSans-42" transform="translate(442.416016 0)"/>
    <use xlink:href="#DejaVuSans-4f" transform="translate(509.269531 0)"/>
    <use xlink:href="#DejaVuSans-4c" transform="translate(587.980469 0)"/>
    <use xlink:href="#DejaVuSans-44" transform="translate(643.693359 0)"/>
    <use xlink:href="#DejaVuSans-20" transform="translate(720.695312 0)"/>
    <use xlink:href="#DejaVuSans-74" transform="translate(752.482422 0)"/>
    <use xlink:href="#DejaVuSans-69" transform="translate(791.691406 0)"/>
    <use xlink:href="#DejaVuSans-6d" transform="translate(819.474609 0)"/>
    <use xlink:href="#DejaVuSans-65" transform="translate(916.886719 0)"/>
    <use xlink:href="#DejaVuSans-73" transform="translate(978.410156 0)"/>
    <use xlink:href="#DejaVuSans-65" transform="translate(1030.509766 0)"/>
    <use xlink:href="#DejaVuSans-72" transform="translate(1092.033203 0)"/>
    <use xlink:href="#DejaVuSans-69" transform="translate(1133.146484 0)"/>
    <use xlink:href="#DejaVuSans-65" transform="translate(1160.929688 0)"/>
    <use xlink:href="#DejaVuSans-73" transform="translate(1222.453125 0)"/>
   </g>
  </g>
 </g>
 <defs>
  <clipPath id="p5d3a77d69e">
   <rect x="53.44" y="50.64" width="56.771289" height="116.6"/>
  </clipPath>
  <clipPath id="pbbc337d800">
   <rect x="127.356289" y="50.64" width="56.771289" height="116.6"/>
  </clipPath>
  <clipPath id="p4d80492ce7">
   <rect x="201.272578" y="50.64" width="56.771289" height="116.6"/>
  </clipPath>
  <clipPath id="pdcd977f913">
   <rect x="275.188868" y="50.64" width="56.771289" height="116.6"/>
  </clipPath>
  <clipPath id="p527f3dd093">
   <rect x="349.105157" y="50.64" width="56.771289" height="116.6"/>
  </clipPath>
  <clipPath id="p79b7393e6c">
   <rect x="423.021446" y="50.64" width="56.771289" height="116.6"/>
  </clipPath>
  <clipPath id="pd2e5068cc6">
   <rect x="496.937735" y="50.64" width="56.771289" height="116.6"/>
  </clipPath>
 </defs>
</svg>
