<?xml version="1.0" encoding="utf-8" standalone="no"?>
<!DOCTYPE svg PUBLIC "-//W3C//DTD SVG 1.1//EN"
  "http://www.w3.org/Graphics/SVG/1.1/DTD/svg11.dtd">
<svg xmlns:xlink="http://www.w3.org/1999/xlink" width="556.001862pt" height="223.92pt" viewBox="0 0 556.001862 223.92" xmlns="http://www.w3.org/2000/svg" version="1.1">
 <metadata>
  <rdf:RDF xmlns:dc="http://purl.org/dc/elements/1.1/" xmlns:cc="http://creativecommons.org/ns#" xmlns:rdf="http://www.w3.org/1999/02/22-rdf-syntax-ns#">
   <cc:Work>
    <dc:type rdf:resource="http://purl.org/dc/dcmitype/StillImage"/>
    <dc:date>2025-06-08T09:29:47.188753</dc:date>
    <dc:format>image/svg+xml</dc:format>
    <dc:creator>
     <cc:Agent>
      <dc:title>Matplotlib v3.10.1, https://matplotlib.org/</dc:title>
     </cc:Agent>
    </dc:creator>
   </cc:Work>
  </rdf:RDF>
 </metadata>
 <defs>
  <style type="text/css">*{stroke-linejoin: round; stroke-linecap: butt}</style>
 </defs>
 <g id="figure_1">
  <g id="patch_1">
   <path d="M 0 223.92 
L 556.001862 223.92 
L 556.001862 0 
L 0 0 
z
" style="fill: #ffffff"/>
  </g>
  <g id="axes_1">
   <g id="patch_2">
    <path d="M 52 167.24 
L 97.208923 167.24 
L 97.208923 53.52 
L 52 53.52 
z
" style="fill: #ffffff"/>
   </g>
   <g id="FillBetweenPolyCollection_1">
    <defs>
     <path id="m1e356e4768" d="M 19.449576 -126.791061 
L 19.449576 -97.801744 
L 23.066289 -90.672305 
L 26.683003 -85.209254 
L 30.299717 -79.325981 
L 33.916431 -86.153768 
L 37.533145 -95.028138 
L 41.149859 -108.23997 
L 44.766572 -112.55972 
L 48.383286 -106.20898 
L 52 -100.490215 
L 55.616714 -95.939612 
L 59.233428 -87.125279 
L 62.850141 -79.036139 
L 66.466855 -77.631728 
L 70.083569 -97.399637 
L 73.700283 -112.995042 
L 77.316997 -126.482287 
L 80.933711 -120.918802 
L 84.550424 -108.039046 
L 88.167138 -102.455664 
L 91.783852 -93.590651 
L 95.400566 -85.071434 
L 99.01728 -77.089189 
L 102.633994 -83.400506 
L 106.250707 -94.095239 
L 109.867421 -104.179587 
L 113.484135 -108.378618 
L 117.100849 -102.305338 
L 120.717563 -96.780079 
L 124.334277 -93.986219 
L 127.95099 -86.52389 
L 127.95099 -112.15341 
L 127.95099 -112.15341 
L 124.334277 -119.944081 
L 120.717563 -123.652406 
L 117.100849 -127.631844 
L 113.484135 -135.411004 
L 109.867421 -130.383579 
L 106.250707 -119.205188 
L 102.633994 -108.805703 
L 99.01728 -104.063387 
L 95.400566 -112.617062 
L 91.783852 -120.916751 
L 88.167138 -131.433585 
L 84.550424 -137.479307 
L 80.933711 -150.37982 
L 77.316997 -154.095637 
L 73.700283 -141.015304 
L 70.083569 -123.580458 
L 66.466855 -106.34387 
L 62.850141 -106.718173 
L 59.233428 -115.310948 
L 55.616714 -124.744869 
L 52 -129.887785 
L 48.383286 -134.408283 
L 44.766572 -141.775045 
L 41.149859 -138.024085 
L 37.533145 -123.162116 
L 33.916431 -112.440549 
L 30.299717 -106.31218 
L 26.683003 -112.121333 
L 23.066289 -118.603116 
L 19.449576 -126.791061 
z
"/>
    </defs>
    <g clip-path="url(#pdb1dae7fe5)">
     <use xlink:href="#m1e356e4768" x="0" y="223.92" style="fill: #ff7f7f; fill-opacity: 0.2"/>
    </g>
   </g>
   <g id="FillBetweenPolyCollection_2">
    <defs>
     <path id="m9d0f5675c1" d="M 19.449576 -123.97693 
L 19.449576 -96.215655 
L 23.066289 -90.001187 
L 26.683003 -83.613704 
L 30.299717 -77.100831 
L 33.916431 -85.33473 
L 37.533145 -99.570213 
L 41.149859 -112.660177 
L 44.766572 -115.209 
L 48.383286 -108.363739 
L 52 -101.494591 
L 55.616714 -95.67782 
L 59.233428 -87.393183 
L 62.850141 -83.203966 
L 66.466855 -83.788948 
L 70.083569 -87.581986 
L 73.700283 -94.207127 
L 77.316997 -98.738913 
L 80.933711 -104.901044 
L 84.550424 -104.68822 
L 88.167138 -101.325426 
L 91.783852 -97.767149 
L 95.400566 -91.547558 
L 99.01728 -83.896634 
L 102.633994 -91.317044 
L 106.250707 -103.773966 
L 109.867421 -113.710114 
L 113.484135 -118.850785 
L 117.100849 -113.587597 
L 120.717563 -107.793359 
L 124.334277 -102.296872 
L 127.95099 -95.761979 
L 127.95099 -121.666508 
L 127.95099 -121.666508 
L 124.334277 -131.496517 
L 120.717563 -137.063799 
L 117.100849 -143.099151 
L 113.484135 -148.212071 
L 109.867421 -141.655826 
L 106.250707 -130.159941 
L 102.633994 -117.003477 
L 99.01728 -110.396815 
L 95.400566 -116.526782 
L 91.783852 -124.088132 
L 88.167138 -128.741344 
L 84.550424 -128.870116 
L 80.933711 -129.10373 
L 77.316997 -122.633943 
L 73.700283 -116.988194 
L 70.083569 -111.038208 
L 66.466855 -106.606659 
L 62.850141 -108.692038 
L 59.233428 -113.746581 
L 55.616714 -122.455262 
L 52 -130.265757 
L 48.383286 -135.89055 
L 44.766572 -144.81781 
L 41.149859 -142.367891 
L 37.533145 -126.137665 
L 33.916431 -113.23878 
L 30.299717 -103.792355 
L 26.683003 -110.868574 
L 23.066289 -117.4417 
L 19.449576 -123.97693 
z
"/>
    </defs>
    <g clip-path="url(#pdb1dae7fe5)">
     <use xlink:href="#m9d0f5675c1" x="0" y="223.92" style="fill: #000080; fill-opacity: 0.2"/>
    </g>
   </g>
   <g id="matplotlib.axis_1">
    <g id="xtick_1">
     <g id="line2d_1">
      <defs>
       <path id="m3b372ec847" d="M 0 0 
L 0 3.5 
" style="stroke: #000000; stroke-width: 2"/>
      </defs>
      <g>
       <use xlink:href="#m3b372ec847" x="53.808357" y="167.24" style="stroke: #000000; stroke-width: 2"/>
      </g>
     </g>
     <g id="text_1">
      <!-- 0 -->
      <g transform="translate(50.627107 181.838437) scale(0.1 -0.1)">
       <defs>
        <path id="DejaVuSans-30" d="M 2034 4250 
Q 1547 4250 1301 3770 
Q 1056 3291 1056 2328 
Q 1056 1369 1301 889 
Q 1547 409 2034 409 
Q 2525 409 2770 889 
Q 3016 1369 3016 2328 
Q 3016 3291 2770 3770 
Q 2525 4250 2034 4250 
z
M 2034 4750 
Q 2819 4750 3233 4129 
Q 3647 3509 3647 2328 
Q 3647 1150 3233 529 
Q 2819 -91 2034 -91 
Q 1250 -91 836 529 
Q 422 1150 422 2328 
Q 422 3509 836 4129 
Q 1250 4750 2034 4750 
z
" transform="scale(0.015625)"/>
       </defs>
       <use xlink:href="#DejaVuSans-30"/>
      </g>
     </g>
    </g>
    <g id="xtick_2">
     <g id="line2d_2">
      <g>
       <use xlink:href="#m3b372ec847" x="75.50864" y="167.24" style="stroke: #000000; stroke-width: 2"/>
      </g>
     </g>
     <g id="text_2">
      <!-- 6 -->
      <g transform="translate(72.32739 181.838437) scale(0.1 -0.1)">
       <defs>
        <path id="DejaVuSans-36" d="M 2113 2584 
Q 1688 2584 1439 2293 
Q 1191 2003 1191 1497 
Q 1191 994 1439 701 
Q 1688 409 2113 409 
Q 2538 409 2786 701 
Q 3034 994 3034 1497 
Q 3034 2003 2786 2293 
Q 2538 2584 2113 2584 
z
M 3366 4563 
L 3366 3988 
Q 3128 4100 2886 4159 
Q 2644 4219 2406 4219 
Q 1781 4219 1451 3797 
Q 1122 3375 1075 2522 
Q 1259 2794 1537 2939 
Q 1816 3084 2150 3084 
Q 2853 3084 3261 2657 
Q 3669 2231 3669 1497 
Q 3669 778 3244 343 
Q 2819 -91 2113 -91 
Q 1303 -91 875 529 
Q 447 1150 447 2328 
Q 447 3434 972 4092 
Q 1497 4750 2381 4750 
Q 2619 4750 2861 4703 
Q 3103 4656 3366 4563 
z
" transform="scale(0.015625)"/>
       </defs>
       <use xlink:href="#DejaVuSans-36"/>
      </g>
     </g>
    </g>
    <g id="xtick_3">
     <g id="line2d_3">
      <g>
       <use xlink:href="#m3b372ec847" x="97.208923" y="167.24" style="stroke: #000000; stroke-width: 2"/>
      </g>
     </g>
     <g id="text_3">
      <!-- 12 -->
      <g transform="translate(90.846423 181.838437) scale(0.1 -0.1)">
       <defs>
        <path id="DejaVuSans-31" d="M 794 531 
L 1825 531 
L 1825 4091 
L 703 3866 
L 703 4441 
L 1819 4666 
L 2450 4666 
L 2450 531 
L 3481 531 
L 3481 0 
L 794 0 
L 794 531 
z
" transform="scale(0.015625)"/>
        <path id="DejaVuSans-32" d="M 1228 531 
L 3431 531 
L 3431 0 
L 469 0 
L 469 531 
Q 828 903 1448 1529 
Q 2069 2156 2228 2338 
Q 2531 2678 2651 2914 
Q 2772 3150 2772 3378 
Q 2772 3750 2511 3984 
Q 2250 4219 1831 4219 
Q 1534 4219 1204 4116 
Q 875 4013 500 3803 
L 500 4441 
Q 881 4594 1212 4672 
Q 1544 4750 1819 4750 
Q 2544 4750 2975 4387 
Q 3406 4025 3406 3419 
Q 3406 3131 3298 2873 
Q 3191 2616 2906 2266 
Q 2828 2175 2409 1742 
Q 1991 1309 1228 531 
z
" transform="scale(0.015625)"/>
       </defs>
       <use xlink:href="#DejaVuSans-31"/>
       <use xlink:href="#DejaVuSans-32" transform="translate(63.623047 0)"/>
      </g>
     </g>
    </g>
   </g>
   <g id="matplotlib.axis_2">
    <g id="ytick_1">
     <g id="line2d_4">
      <defs>
       <path id="m02b54a4b8f" d="M 0 0 
L -3.5 0 
" style="stroke: #000000; stroke-width: 2"/>
      </defs>
      <g>
       <use xlink:href="#m02b54a4b8f" x="52" y="150.009697" style="stroke: #000000; stroke-width: 2"/>
      </g>
     </g>
     <g id="text_4">
      <!-- −2 -->
      <g transform="translate(30.257813 153.808916) scale(0.1 -0.1)">
       <defs>
        <path id="DejaVuSans-2212" d="M 678 2272 
L 4684 2272 
L 4684 1741 
L 678 1741 
L 678 2272 
z
" transform="scale(0.015625)"/>
       </defs>
       <use xlink:href="#DejaVuSans-2212"/>
       <use xlink:href="#DejaVuSans-32" transform="translate(83.789062 0)"/>
      </g>
     </g>
    </g>
    <g id="ytick_2">
     <g id="line2d_5">
      <g>
       <use xlink:href="#m02b54a4b8f" x="52" y="115.549091" style="stroke: #000000; stroke-width: 2"/>
      </g>
     </g>
     <g id="text_5">
      <!-- 0 -->
      <g transform="translate(38.6375 119.34831) scale(0.1 -0.1)">
       <use xlink:href="#DejaVuSans-30"/>
      </g>
     </g>
    </g>
    <g id="ytick_3">
     <g id="line2d_6">
      <g>
       <use xlink:href="#m02b54a4b8f" x="52" y="81.088485" style="stroke: #000000; stroke-width: 2"/>
      </g>
     </g>
     <g id="text_6">
      <!-- 2 -->
      <g transform="translate(38.6375 84.887704) scale(0.1 -0.1)">
       <use xlink:href="#DejaVuSans-32"/>
      </g>
     </g>
    </g>
   </g>
   <g id="line2d_7">
    <path d="M 19.449576 111.623598 
L 23.066289 119.282289 
L 26.683003 125.254707 
L 30.299717 131.10092 
L 33.916431 124.622842 
L 37.533145 114.824873 
L 41.149859 100.787973 
L 44.766572 96.752617 
L 48.383286 103.611368 
L 52 108.731 
L 55.616714 113.577759 
L 59.233428 122.701886 
L 62.850141 131.042844 
L 66.466855 131.932201 
L 70.083569 113.429952 
L 73.700283 96.914827 
L 77.316997 83.631038 
L 80.933711 88.270689 
L 84.550424 101.160823 
L 88.167138 106.975376 
L 91.783852 116.666299 
L 95.400566 125.075752 
L 99.01728 133.343712 
L 102.633994 127.816895 
L 106.250707 117.269786 
L 109.867421 106.638417 
L 113.484135 102.025189 
L 117.100849 108.951409 
L 120.717563 113.703757 
L 124.334277 116.95485 
L 127.95099 124.58135 
" clip-path="url(#pdb1dae7fe5)" style="fill: none; stroke: #ff7f7f; stroke-width: 1.5; stroke-linecap: square"/>
   </g>
   <g id="line2d_8">
    <path d="M 19.449576 113.823708 
L 23.066289 120.198556 
L 26.683003 126.678861 
L 30.299717 133.473407 
L 33.916431 124.633245 
L 37.533145 111.066061 
L 41.149859 96.405966 
L 44.766572 93.906595 
L 48.383286 101.792856 
L 52 108.039826 
L 55.616714 114.853459 
L 59.233428 123.350118 
L 62.850141 127.971998 
L 66.466855 128.722197 
L 70.083569 124.609903 
L 73.700283 118.32234 
L 77.316997 113.233572 
L 80.933711 106.917613 
L 84.550424 107.140832 
L 88.167138 108.886615 
L 91.783852 112.992359 
L 95.400566 119.88283 
L 99.01728 126.773275 
L 102.633994 119.759739 
L 106.250707 106.953047 
L 109.867421 96.23703 
L 113.484135 90.388572 
L 117.100849 95.576626 
L 120.717563 101.491421 
L 124.334277 107.023305 
L 127.95099 115.205756 
" clip-path="url(#pdb1dae7fe5)" style="fill: none; stroke: #000080; stroke-width: 1.5; stroke-linecap: square"/>
   </g>
   <g id="line2d_9">
    <path d="M 53.808357 167.24 
L 53.808357 53.52 
" clip-path="url(#pdb1dae7fe5)" style="fill: none; stroke: #000000; stroke-width: 0.8; stroke-linecap: square"/>
   </g>
   <g id="line2d_10">
    <path d="M 62.850141 167.24 
L 62.850141 53.52 
" clip-path="url(#pdb1dae7fe5)" style="fill: none; stroke-dasharray: 2.96,1.28; stroke-dashoffset: 0; stroke: #000000; stroke-width: 0.8"/>
   </g>
   <g id="patch_3">
    <path d="M 52 150.009697 
L 52 81.088485 
" style="fill: none; stroke: #000000; stroke-width: 2; stroke-linejoin: miter; stroke-linecap: square"/>
   </g>
   <g id="patch_4">
    <path d="M 53.808357 167.24 
L 97.208923 167.24 
" style="fill: none; stroke: #000000; stroke-width: 2; stroke-linejoin: miter; stroke-linecap: square"/>
   </g>
   <g id="text_7">
    <!-- SMA -->
    <g transform="translate(61.514149 47.52) scale(0.12 -0.12)">
     <defs>
      <path id="DejaVuSans-53" d="M 3425 4513 
L 3425 3897 
Q 3066 4069 2747 4153 
Q 2428 4238 2131 4238 
Q 1616 4238 1336 4038 
Q 1056 3838 1056 3469 
Q 1056 3159 1242 3001 
Q 1428 2844 1947 2747 
L 2328 2669 
Q 3034 2534 3370 2195 
Q 3706 1856 3706 1288 
Q 3706 609 3251 259 
Q 2797 -91 1919 -91 
Q 1588 -91 1214 -16 
Q 841 59 441 206 
L 441 856 
Q 825 641 1194 531 
Q 1563 422 1919 422 
Q 2459 422 2753 634 
Q 3047 847 3047 1241 
Q 3047 1584 2836 1778 
Q 2625 1972 2144 2069 
L 1759 2144 
Q 1053 2284 737 2584 
Q 422 2884 422 3419 
Q 422 4038 858 4394 
Q 1294 4750 2059 4750 
Q 2388 4750 2728 4690 
Q 3069 4631 3425 4513 
z
" transform="scale(0.015625)"/>
      <path id="DejaVuSans-4d" d="M 628 4666 
L 1569 4666 
L 2759 1491 
L 3956 4666 
L 4897 4666 
L 4897 0 
L 4281 0 
L 4281 4097 
L 3078 897 
L 2444 897 
L 1241 4097 
L 1241 0 
L 628 0 
L 628 4666 
z
" transform="scale(0.015625)"/>
      <path id="DejaVuSans-41" d="M 2188 4044 
L 1331 1722 
L 3047 1722 
L 2188 4044 
z
M 1831 4666 
L 2547 4666 
L 4325 0 
L 3669 0 
L 3244 1197 
L 1141 1197 
L 716 0 
L 50 0 
L 1831 4666 
z
" transform="scale(0.015625)"/>
     </defs>
     <use xlink:href="#DejaVuSans-53"/>
     <use xlink:href="#DejaVuSans-4d" transform="translate(63.476562 0)"/>
     <use xlink:href="#DejaVuSans-41" transform="translate(149.755859 0)"/>
    </g>
   </g>
  </g>
  <g id="axes_2">
   <g id="patch_5">
    <path d="M 115.604348 167.24 
L 160.813271 167.24 
L 160.813271 53.52 
L 115.604348 53.52 
z
" style="fill: #ffffff"/>
   </g>
   <g id="FillBetweenPolyCollection_3">
    <defs>
     <path id="mb5686984c5" d="M 83.053924 -125.05754 
L 83.053924 -94.34028 
L 86.670638 -86.943184 
L 90.287352 -82.573103 
L 93.904065 -75.266886 
L 97.520779 -87.141695 
L 101.137493 -97.238594 
L 104.754207 -111.358893 
L 108.370921 -111.784498 
L 111.987635 -103.382472 
L 115.604348 -97.625436 
L 119.221062 -91.447801 
L 122.837776 -83.753809 
L 126.45449 -74.925285 
L 130.071204 -75.142114 
L 133.687918 -103.764874 
L 137.304631 -121.760845 
L 140.921345 -130.932969 
L 144.538059 -123.091973 
L 148.154773 -107.445136 
L 151.771487 -100.281618 
L 155.388201 -91.793821 
L 159.004914 -84.269873 
L 162.621628 -74.874785 
L 166.238342 -85.316679 
L 169.855056 -98.398678 
L 173.47177 -107.125623 
L 177.088484 -108.733416 
L 180.705197 -101.342527 
L 184.321911 -93.934374 
L 187.938625 -90.622775 
L 191.555339 -84.413329 
L 191.555339 -111.599896 
L 191.555339 -111.599896 
L 187.938625 -118.397245 
L 184.321911 -123.765721 
L 180.705197 -129.523656 
L 177.088484 -138.6269 
L 173.47177 -135.747927 
L 169.855056 -126.122537 
L 166.238342 -114.642432 
L 162.621628 -104.300721 
L 159.004914 -113.22131 
L 155.388201 -120.310339 
L 151.771487 -130.127207 
L 148.154773 -139.100575 
L 144.538059 -154.336792 
L 140.921345 -160.613515 
L 137.304631 -151.992583 
L 133.687918 -133.619661 
L 130.071204 -109.646293 
L 126.45449 -105.131886 
L 122.837776 -114.367786 
L 119.221062 -122.103049 
L 115.604348 -128.790949 
L 111.987635 -135.310448 
L 108.370921 -144.381785 
L 104.754207 -143.633701 
L 101.137493 -130.110734 
L 97.520779 -117.286147 
L 93.904065 -104.652146 
L 90.287352 -111.284337 
L 86.670638 -117.828792 
L 83.053924 -125.05754 
z
"/>
    </defs>
    <g clip-path="url(#p5182aa7d54)">
     <use xlink:href="#mb5686984c5" x="0" y="223.92" style="fill: #ff7f7f; fill-opacity: 0.2"/>
    </g>
   </g>
   <g id="FillBetweenPolyCollection_4">
    <defs>
     <path id="md1edd1c6db" d="M 83.053924 -122.935575 
L 83.053924 -92.472977 
L 86.670638 -85.931934 
L 90.287352 -81.823231 
L 93.904065 -74.097984 
L 97.520779 -87.697436 
L 101.137493 -105.070394 
L 104.754207 -117.139161 
L 108.370921 -116.858883 
L 111.987635 -108.998904 
L 115.604348 -98.923871 
L 119.221062 -93.004527 
L 122.837776 -84.665789 
L 126.45449 -83.025413 
L 130.071204 -83.445236 
L 133.687918 -88.906296 
L 137.304631 -95.526113 
L 140.921345 -100.564192 
L 144.538059 -101.78153 
L 148.154773 -102.137712 
L 151.771487 -98.319327 
L 155.388201 -94.263227 
L 159.004914 -88.529401 
L 162.621628 -80.031467 
L 166.238342 -94.293817 
L 169.855056 -109.340477 
L 173.47177 -118.609504 
L 177.088484 -119.376706 
L 180.705197 -112.407515 
L 184.321911 -105.38623 
L 187.938625 -98.484147 
L 191.555339 -92.204882 
L 191.555339 -119.310376 
L 191.555339 -119.310376 
L 187.938625 -127.728019 
L 184.321911 -134.95372 
L 180.705197 -143.111752 
L 177.088484 -150.594687 
L 173.47177 -147.667129 
L 169.855056 -138.029927 
L 166.238342 -121.744322 
L 162.621628 -109.999908 
L 159.004914 -116.685576 
L 155.388201 -123.310519 
L 151.771487 -128.538692 
L 148.154773 -128.452715 
L 144.538059 -129.911954 
L 140.921345 -125.213927 
L 137.304631 -119.654733 
L 133.687918 -113.735877 
L 130.071204 -108.18751 
L 126.45449 -110.812106 
L 122.837776 -114.192348 
L 119.221062 -121.87155 
L 115.604348 -130.738905 
L 111.987635 -138.04199 
L 108.370921 -149.006903 
L 104.754207 -149.2599 
L 101.137493 -135.05478 
L 97.520779 -120.189914 
L 93.904065 -104.612706 
L 90.287352 -112.005942 
L 86.670638 -115.479184 
L 83.053924 -122.935575 
z
"/>
    </defs>
    <g clip-path="url(#p5182aa7d54)">
     <use xlink:href="#md1edd1c6db" x="0" y="223.92" style="fill: #000080; fill-opacity: 0.2"/>
    </g>
   </g>
   <g id="matplotlib.axis_3">
    <g id="xtick_4">
     <g id="line2d_11">
      <g>
       <use xlink:href="#m3b372ec847" x="117.412705" y="167.24" style="stroke: #000000; stroke-width: 2"/>
      </g>
     </g>
     <g id="text_8">
      <!-- 0 -->
      <g transform="translate(114.231455 181.838437) scale(0.1 -0.1)">
       <use xlink:href="#DejaVuSans-30"/>
      </g>
     </g>
    </g>
    <g id="xtick_5">
     <g id="line2d_12">
      <g>
       <use xlink:href="#m3b372ec847" x="139.112988" y="167.24" style="stroke: #000000; stroke-width: 2"/>
      </g>
     </g>
     <g id="text_9">
      <!-- 6 -->
      <g transform="translate(135.931738 181.838437) scale(0.1 -0.1)">
       <use xlink:href="#DejaVuSans-36"/>
      </g>
     </g>
    </g>
    <g id="xtick_6">
     <g id="line2d_13">
      <g>
       <use xlink:href="#m3b372ec847" x="160.813271" y="167.24" style="stroke: #000000; stroke-width: 2"/>
      </g>
     </g>
     <g id="text_10">
      <!-- 12 -->
      <g transform="translate(154.450771 181.838437) scale(0.1 -0.1)">
       <use xlink:href="#DejaVuSans-31"/>
       <use xlink:href="#DejaVuSans-32" transform="translate(63.623047 0)"/>
      </g>
     </g>
    </g>
   </g>
   <g id="matplotlib.axis_4">
    <g id="ytick_4">
     <g id="line2d_14">
      <defs>
       <path id="m51f79b9fa2" d="M 0 0 
L -3.5 0 
"/>
      </defs>
      <g>
       <use xlink:href="#m51f79b9fa2" x="115.604348" y="150.009697"/>
      </g>
     </g>
    </g>
    <g id="ytick_5">
     <g id="line2d_15">
      <g>
       <use xlink:href="#m51f79b9fa2" x="115.604348" y="115.549091"/>
      </g>
     </g>
    </g>
    <g id="ytick_6">
     <g id="line2d_16">
      <g>
       <use xlink:href="#m51f79b9fa2" x="115.604348" y="81.088485"/>
      </g>
     </g>
    </g>
   </g>
   <g id="line2d_17">
    <path d="M 83.053924 114.22109 
L 86.670638 121.534012 
L 90.287352 126.99128 
L 93.904065 133.960484 
L 97.520779 121.706079 
L 101.137493 110.245336 
L 104.754207 96.423703 
L 108.370921 95.836858 
L 111.987635 104.57354 
L 115.604348 110.711808 
L 119.221062 117.144575 
L 122.837776 124.859202 
L 126.45449 133.891414 
L 130.071204 131.525797 
L 133.687918 105.227732 
L 137.304631 87.043286 
L 140.921345 78.146758 
L 144.538059 85.205617 
L 148.154773 100.647144 
L 151.771487 108.715588 
L 155.388201 117.86792 
L 159.004914 125.174409 
L 162.621628 134.332247 
L 166.238342 123.940445 
L 169.855056 111.659393 
L 173.47177 102.483225 
L 177.088484 100.239842 
L 180.705197 108.486908 
L 184.321911 115.069953 
L 187.938625 119.40999 
L 191.555339 125.913387 
" clip-path="url(#p5182aa7d54)" style="fill: none; stroke: #ff7f7f; stroke-width: 1.5; stroke-linecap: square"/>
   </g>
   <g id="line2d_18">
    <path d="M 83.053924 116.215724 
L 86.670638 123.214441 
L 90.287352 127.005413 
L 93.904065 134.564655 
L 97.520779 119.976325 
L 101.137493 103.857413 
L 104.754207 90.72047 
L 108.370921 90.987107 
L 111.987635 100.399553 
L 115.604348 109.088612 
L 119.221062 116.481962 
L 122.837776 124.490931 
L 126.45449 127.00124 
L 130.071204 128.103627 
L 133.687918 122.598914 
L 137.304631 116.329577 
L 140.921345 111.03094 
L 144.538059 108.073258 
L 148.154773 108.624787 
L 151.771487 110.49099 
L 155.388201 115.133127 
L 159.004914 121.312511 
L 162.621628 128.904312 
L 166.238342 115.90093 
L 169.855056 100.234798 
L 173.47177 90.781683 
L 177.088484 88.934303 
L 180.705197 96.160367 
L 184.321911 103.750025 
L 187.938625 110.813917 
L 191.555339 118.162371 
" clip-path="url(#p5182aa7d54)" style="fill: none; stroke: #000080; stroke-width: 1.5; stroke-linecap: square"/>
   </g>
   <g id="line2d_19">
    <path d="M 117.412705 167.24 
L 117.412705 53.52 
" clip-path="url(#p5182aa7d54)" style="fill: none; stroke: #000000; stroke-width: 0.8; stroke-linecap: square"/>
   </g>
   <g id="line2d_20">
    <path d="M 126.45449 167.24 
L 126.45449 53.52 
" clip-path="url(#p5182aa7d54)" style="fill: none; stroke-dasharray: 2.96,1.28; stroke-dashoffset: 0; stroke: #000000; stroke-width: 0.8"/>
   </g>
   <g id="patch_6">
    <path d="M 117.412705 167.24 
L 160.813271 167.24 
" style="fill: none; stroke: #000000; stroke-width: 2; stroke-linejoin: miter; stroke-linecap: square"/>
   </g>
   <g id="text_11">
    <!-- PMd -->
    <g transform="translate(125.60506 47.52) scale(0.12 -0.12)">
     <defs>
      <path id="DejaVuSans-50" d="M 1259 4147 
L 1259 2394 
L 2053 2394 
Q 2494 2394 2734 2622 
Q 2975 2850 2975 3272 
Q 2975 3691 2734 3919 
Q 2494 4147 2053 4147 
L 1259 4147 
z
M 628 4666 
L 2053 4666 
Q 2838 4666 3239 4311 
Q 3641 3956 3641 3272 
Q 3641 2581 3239 2228 
Q 2838 1875 2053 1875 
L 1259 1875 
L 1259 0 
L 628 0 
L 628 4666 
z
" transform="scale(0.015625)"/>
      <path id="DejaVuSans-64" d="M 2906 2969 
L 2906 4863 
L 3481 4863 
L 3481 0 
L 2906 0 
L 2906 525 
Q 2725 213 2448 61 
Q 2172 -91 1784 -91 
Q 1150 -91 751 415 
Q 353 922 353 1747 
Q 353 2572 751 3078 
Q 1150 3584 1784 3584 
Q 2172 3584 2448 3432 
Q 2725 3281 2906 2969 
z
M 947 1747 
Q 947 1113 1208 752 
Q 1469 391 1925 391 
Q 2381 391 2643 752 
Q 2906 1113 2906 1747 
Q 2906 2381 2643 2742 
Q 2381 3103 1925 3103 
Q 1469 3103 1208 2742 
Q 947 2381 947 1747 
z
" transform="scale(0.015625)"/>
     </defs>
     <use xlink:href="#DejaVuSans-50"/>
     <use xlink:href="#DejaVuSans-4d" transform="translate(60.302734 0)"/>
     <use xlink:href="#DejaVuSans-64" transform="translate(146.582031 0)"/>
    </g>
   </g>
  </g>
  <g id="axes_3">
   <g id="patch_7">
    <path d="M 179.208697 167.24 
L 224.41762 167.24 
L 224.41762 53.52 
L 179.208697 53.52 
z
" style="fill: #ffffff"/>
   </g>
   <g id="FillBetweenPolyCollection_5">
    <defs>
     <path id="m6146cc42cf" d="M 146.658272 -122.733365 
L 146.658272 -94.055298 
L 150.274986 -90.636992 
L 153.8917 -88.69843 
L 157.508414 -82.178152 
L 161.125128 -89.357946 
L 164.741841 -96.146932 
L 168.358555 -106.757509 
L 171.975269 -108.298528 
L 175.591983 -100.018317 
L 179.208697 -96.280652 
L 182.825411 -94.776414 
L 186.442124 -90.418872 
L 190.058838 -82.095279 
L 193.675552 -82.590118 
L 197.292266 -102.365147 
L 200.90898 -116.111714 
L 204.525694 -124.026772 
L 208.142407 -114.601228 
L 211.759121 -98.865419 
L 215.375835 -95.742372 
L 218.992549 -92.442467 
L 222.609263 -87.272149 
L 226.225977 -80.578892 
L 229.84269 -87.434034 
L 233.459404 -96.175533 
L 237.076118 -104.186325 
L 240.692832 -106.870072 
L 244.309546 -98.735234 
L 247.92626 -94.64662 
L 251.542973 -93.606177 
L 255.159687 -89.786511 
L 255.159687 -116.361956 
L 255.159687 -116.361956 
L 251.542973 -120.164813 
L 247.92626 -121.573604 
L 244.309546 -125.149556 
L 240.692832 -132.680229 
L 237.076118 -129.678587 
L 233.459404 -121.947829 
L 229.84269 -113.356033 
L 226.225977 -105.953416 
L 222.609263 -113.965001 
L 218.992549 -119.063309 
L 215.375835 -122.528945 
L 211.759121 -127.110719 
L 208.142407 -141.473716 
L 204.525694 -149.96038 
L 200.90898 -143.931141 
L 197.292266 -130.316579 
L 193.675552 -112.440834 
L 190.058838 -109.14793 
L 186.442124 -117.526289 
L 182.825411 -122.478885 
L 179.208697 -124.378983 
L 175.591983 -129.044953 
L 171.975269 -136.694466 
L 168.358555 -136.133658 
L 164.741841 -125.188957 
L 161.125128 -116.702983 
L 157.508414 -108.298915 
L 153.8917 -114.480654 
L 150.274986 -119.381031 
L 146.658272 -122.733365 
z
"/>
    </defs>
    <g clip-path="url(#pac14c7c490)">
     <use xlink:href="#m6146cc42cf" x="0" y="223.92" style="fill: #ff7f7f; fill-opacity: 0.2"/>
    </g>
   </g>
   <g id="FillBetweenPolyCollection_6">
    <defs>
     <path id="m60db77114b" d="M 146.658272 -121.020236 
L 146.658272 -94.326362 
L 150.274986 -91.866859 
L 153.8917 -87.33925 
L 157.508414 -82.124194 
L 161.125128 -90.570851 
L 164.741841 -103.304954 
L 168.358555 -112.924254 
L 171.975269 -112.743176 
L 175.591983 -103.172432 
L 179.208697 -96.879785 
L 182.825411 -92.883823 
L 186.442124 -89.223336 
L 190.058838 -87.46992 
L 193.675552 -85.822269 
L 197.292266 -87.366289 
L 200.90898 -90.591588 
L 204.525694 -96.076064 
L 208.142407 -99.94706 
L 211.759121 -104.890794 
L 215.375835 -103.122718 
L 218.992549 -101.020159 
L 222.609263 -95.550659 
L 226.225977 -87.964593 
L 229.84269 -96.169234 
L 233.459404 -105.607407 
L 237.076118 -111.963652 
L 240.692832 -113.401326 
L 244.309546 -104.966153 
L 247.92626 -101.451764 
L 251.542973 -98.806658 
L 255.159687 -95.174033 
L 255.159687 -120.346662 
L 255.159687 -120.346662 
L 251.542973 -124.538934 
L 247.92626 -127.045372 
L 244.309546 -131.766777 
L 240.692832 -140.067035 
L 237.076118 -139.574846 
L 233.459404 -132.003892 
L 229.84269 -122.090361 
L 226.225977 -113.871729 
L 222.609263 -121.308668 
L 218.992549 -128.135819 
L 215.375835 -130.846466 
L 211.759121 -129.482437 
L 208.142407 -125.5738 
L 204.525694 -118.636001 
L 200.90898 -112.534083 
L 197.292266 -109.855668 
L 193.675552 -108.853057 
L 190.058838 -112.286669 
L 186.442124 -117.763417 
L 182.825411 -119.656804 
L 179.208697 -124.642694 
L 175.591983 -129.151783 
L 171.975269 -140.094233 
L 168.358555 -141.610152 
L 164.741841 -130.114799 
L 161.125128 -119.915221 
L 157.508414 -109.595196 
L 153.8917 -116.319554 
L 150.274986 -118.684393 
L 146.658272 -121.020236 
z
"/>
    </defs>
    <g clip-path="url(#pac14c7c490)">
     <use xlink:href="#m60db77114b" x="0" y="223.92" style="fill: #000080; fill-opacity: 0.2"/>
    </g>
   </g>
   <g id="matplotlib.axis_5">
    <g id="xtick_7">
     <g id="line2d_21">
      <g>
       <use xlink:href="#m3b372ec847" x="181.017054" y="167.24" style="stroke: #000000; stroke-width: 2"/>
      </g>
     </g>
     <g id="text_12">
      <!-- 0 -->
      <g transform="translate(177.835804 181.838437) scale(0.1 -0.1)">
       <use xlink:href="#DejaVuSans-30"/>
      </g>
     </g>
    </g>
    <g id="xtick_8">
     <g id="line2d_22">
      <g>
       <use xlink:href="#m3b372ec847" x="202.717337" y="167.24" style="stroke: #000000; stroke-width: 2"/>
      </g>
     </g>
     <g id="text_13">
      <!-- 6 -->
      <g transform="translate(199.536087 181.838437) scale(0.1 -0.1)">
       <use xlink:href="#DejaVuSans-36"/>
      </g>
     </g>
    </g>
    <g id="xtick_9">
     <g id="line2d_23">
      <g>
       <use xlink:href="#m3b372ec847" x="224.41762" y="167.24" style="stroke: #000000; stroke-width: 2"/>
      </g>
     </g>
     <g id="text_14">
      <!-- 12 -->
      <g transform="translate(218.05512 181.838437) scale(0.1 -0.1)">
       <use xlink:href="#DejaVuSans-31"/>
       <use xlink:href="#DejaVuSans-32" transform="translate(63.623047 0)"/>
      </g>
     </g>
    </g>
   </g>
   <g id="matplotlib.axis_6">
    <g id="ytick_7">
     <g id="line2d_24">
      <g>
       <use xlink:href="#m51f79b9fa2" x="179.208697" y="150.009697"/>
      </g>
     </g>
    </g>
    <g id="ytick_8">
     <g id="line2d_25">
      <g>
       <use xlink:href="#m51f79b9fa2" x="179.208697" y="115.549091"/>
      </g>
     </g>
    </g>
    <g id="ytick_9">
     <g id="line2d_26">
      <g>
       <use xlink:href="#m51f79b9fa2" x="179.208697" y="81.088485"/>
      </g>
     </g>
    </g>
   </g>
   <g id="line2d_27">
    <path d="M 146.658272 115.525669 
L 150.274986 118.910988 
L 153.8917 122.330458 
L 157.508414 128.681466 
L 161.125128 120.889536 
L 164.741841 113.252056 
L 168.358555 102.474416 
L 171.975269 101.423503 
L 175.591983 109.388365 
L 179.208697 113.590182 
L 182.825411 115.29235 
L 186.442124 119.947419 
L 190.058838 128.298396 
L 193.675552 126.404524 
L 197.292266 107.579137 
L 200.90898 93.898572 
L 204.525694 86.926424 
L 208.142407 95.882528 
L 211.759121 110.931931 
L 215.375835 114.784342 
L 218.992549 118.167112 
L 222.609263 123.301425 
L 226.225977 130.653846 
L 229.84269 123.524966 
L 233.459404 114.858319 
L 237.076118 106.987544 
L 240.692832 104.14485 
L 244.309546 111.977605 
L 247.92626 115.809888 
L 251.542973 117.034505 
L 255.159687 120.845767 
" clip-path="url(#pac14c7c490)" style="fill: none; stroke: #ff7f7f; stroke-width: 1.5; stroke-linecap: square"/>
   </g>
   <g id="line2d_28">
    <path d="M 146.658272 116.246701 
L 150.274986 118.644374 
L 153.8917 122.090598 
L 157.508414 128.060305 
L 161.125128 118.676964 
L 164.741841 107.210124 
L 168.358555 96.652797 
L 171.975269 97.501296 
L 175.591983 107.757892 
L 179.208697 113.15876 
L 182.825411 117.649686 
L 186.442124 120.426623 
L 190.058838 124.041705 
L 193.675552 126.582337 
L 197.292266 125.309021 
L 200.90898 122.357165 
L 204.525694 116.563967 
L 208.142407 111.15957 
L 211.759121 106.733385 
L 215.375835 106.935408 
L 218.992549 109.342011 
L 222.609263 115.490337 
L 226.225977 123.001839 
L 229.84269 114.790203 
L 233.459404 105.11435 
L 237.076118 98.150751 
L 240.692832 97.18582 
L 244.309546 105.553535 
L 247.92626 109.671432 
L 251.542973 112.247204 
L 255.159687 116.159653 
" clip-path="url(#pac14c7c490)" style="fill: none; stroke: #000080; stroke-width: 1.5; stroke-linecap: square"/>
   </g>
   <g id="line2d_29">
    <path d="M 181.017054 167.24 
L 181.017054 53.52 
" clip-path="url(#pac14c7c490)" style="fill: none; stroke: #000000; stroke-width: 0.8; stroke-linecap: square"/>
   </g>
   <g id="line2d_30">
    <path d="M 190.058838 167.24 
L 190.058838 53.52 
" clip-path="url(#pac14c7c490)" style="fill: none; stroke-dasharray: 2.96,1.28; stroke-dashoffset: 0; stroke: #000000; stroke-width: 0.8"/>
   </g>
   <g id="patch_8">
    <path d="M 181.017054 167.24 
L 224.41762 167.24 
" style="fill: none; stroke: #000000; stroke-width: 2; stroke-linejoin: miter; stroke-linecap: square"/>
   </g>
   <g id="text_15">
    <!-- PMv -->
    <g transform="translate(189.467221 47.52) scale(0.12 -0.12)">
     <defs>
      <path id="DejaVuSans-76" d="M 191 3500 
L 800 3500 
L 1894 563 
L 2988 3500 
L 3597 3500 
L 2284 0 
L 1503 0 
L 191 3500 
z
" transform="scale(0.015625)"/>
     </defs>
     <use xlink:href="#DejaVuSans-50"/>
     <use xlink:href="#DejaVuSans-4d" transform="translate(60.302734 0)"/>
     <use xlink:href="#DejaVuSans-76" transform="translate(146.582031 0)"/>
    </g>
   </g>
  </g>
  <g id="axes_4">
   <g id="patch_9">
    <path d="M 242.813045 167.24 
L 288.021968 167.24 
L 288.021968 53.52 
L 242.813045 53.52 
z
" style="fill: #ffffff"/>
   </g>
   <g id="FillBetweenPolyCollection_7">
    <defs>
     <path id="m3c7528b9eb" d="M 210.262621 -133.650751 
L 210.262621 -98.55018 
L 213.879335 -91.997563 
L 217.496048 -81.342517 
L 221.112762 -71.817551 
L 224.729476 -79.93247 
L 228.34619 -94.12118 
L 231.962904 -107.836505 
L 235.579618 -105.89718 
L 239.196331 -100.318797 
L 242.813045 -98.751777 
L 246.429759 -95.82929 
L 250.046473 -87.485163 
L 253.663187 -70.895391 
L 257.279901 -74.950367 
L 260.896614 -100.222097 
L 264.513328 -127.798626 
L 268.130042 -135.62712 
L 271.746756 -126.125987 
L 275.36347 -115.590784 
L 278.980184 -112.134222 
L 282.596897 -101.638407 
L 286.213611 -85.567419 
L 289.830325 -71.360608 
L 293.447039 -76.538384 
L 297.063753 -90.388592 
L 300.680466 -100.665494 
L 304.29718 -100.151397 
L 307.913894 -94.687163 
L 311.530608 -92.667435 
L 315.147322 -92.908403 
L 318.764036 -86.045509 
L 318.764036 -118.274591 
L 318.764036 -118.274591 
L 315.147322 -125.277519 
L 311.530608 -125.762872 
L 307.913894 -126.12577 
L 304.29718 -133.677392 
L 300.680466 -135.928176 
L 297.063753 -122.909684 
L 293.447039 -107.605501 
L 289.830325 -106.93863 
L 286.213611 -120.440224 
L 282.596897 -135.626761 
L 278.980184 -145.65543 
L 275.36347 -149.310068 
L 271.746756 -158.474834 
L 268.130042 -169.415431 
L 264.513328 -162.718125 
L 260.896614 -132.340707 
L 257.279901 -111.144145 
L 253.663187 -106.580674 
L 250.046473 -120.471964 
L 246.429759 -130.320077 
L 242.813045 -133.160768 
L 239.196331 -135.205077 
L 235.579618 -141.073775 
L 231.962904 -145.235408 
L 228.34619 -129.191152 
L 224.729476 -112.020834 
L 221.112762 -105.668922 
L 217.496048 -114.061353 
L 213.879335 -125.707365 
L 210.262621 -133.650751 
z
"/>
    </defs>
    <g clip-path="url(#pefc9570e92)">
     <use xlink:href="#m3c7528b9eb" x="0" y="223.92" style="fill: #ff7f7f; fill-opacity: 0.2"/>
    </g>
   </g>
   <g id="FillBetweenPolyCollection_8">
    <defs>
     <path id="mbf78e7f1e4" d="M 210.262621 -129.524206 
L 210.262621 -95.47352 
L 213.879335 -90.955687 
L 217.496048 -81.262994 
L 221.112762 -72.972496 
L 224.729476 -82.898158 
L 228.34619 -102.653678 
L 231.962904 -116.613708 
L 235.579618 -112.773715 
L 239.196331 -107.776643 
L 242.813045 -103.211056 
L 246.429759 -99.159241 
L 250.046473 -92.983933 
L 253.663187 -82.060211 
L 257.279901 -77.128477 
L 260.896614 -78.205269 
L 264.513328 -80.976826 
L 268.130042 -82.297668 
L 271.746756 -83.952747 
L 275.36347 -89.105836 
L 278.980184 -93.089133 
L 282.596897 -95.239241 
L 286.213611 -87.940553 
L 289.830325 -81.790654 
L 293.447039 -92.397724 
L 297.063753 -108.693653 
L 300.680466 -119.070128 
L 304.29718 -117.775492 
L 307.913894 -113.835755 
L 311.530608 -113.933368 
L 315.147322 -110.034981 
L 318.764036 -99.584924 
L 318.764036 -131.916655 
L 318.764036 -131.916655 
L 315.147322 -142.402626 
L 311.530608 -147.276851 
L 307.913894 -148.486442 
L 304.29718 -153.219294 
L 300.680466 -156.401515 
L 297.063753 -141.7041 
L 293.447039 -122.267618 
L 289.830325 -113.65542 
L 286.213611 -118.940863 
L 282.596897 -125.405484 
L 278.980184 -124.326831 
L 275.36347 -118.433777 
L 271.746756 -113.577467 
L 268.130042 -110.031782 
L 264.513328 -107.9826 
L 260.896614 -105.642514 
L 257.279901 -106.323922 
L 253.663187 -112.829367 
L 250.046473 -126.2644 
L 246.429759 -132.560805 
L 242.813045 -138.915322 
L 239.196331 -140.344808 
L 235.579618 -148.777444 
L 231.962904 -155.142326 
L 228.34619 -137.316877 
L 224.729476 -116.290715 
L 221.112762 -108.529184 
L 217.496048 -115.405428 
L 213.879335 -124.314637 
L 210.262621 -129.524206 
z
"/>
    </defs>
    <g clip-path="url(#pefc9570e92)">
     <use xlink:href="#mbf78e7f1e4" x="0" y="223.92" style="fill: #000080; fill-opacity: 0.2"/>
    </g>
   </g>
   <g id="matplotlib.axis_7">
    <g id="xtick_10">
     <g id="line2d_31">
      <g>
       <use xlink:href="#m3b372ec847" x="244.621402" y="167.24" style="stroke: #000000; stroke-width: 2"/>
      </g>
     </g>
     <g id="text_16">
      <!-- 0 -->
      <g transform="translate(241.440152 181.838437) scale(0.1 -0.1)">
       <use xlink:href="#DejaVuSans-30"/>
      </g>
     </g>
    </g>
    <g id="xtick_11">
     <g id="line2d_32">
      <g>
       <use xlink:href="#m3b372ec847" x="266.321685" y="167.24" style="stroke: #000000; stroke-width: 2"/>
      </g>
     </g>
     <g id="text_17">
      <!-- 6 -->
      <g transform="translate(263.140435 181.838437) scale(0.1 -0.1)">
       <use xlink:href="#DejaVuSans-36"/>
      </g>
     </g>
    </g>
    <g id="xtick_12">
     <g id="line2d_33">
      <g>
       <use xlink:href="#m3b372ec847" x="288.021968" y="167.24" style="stroke: #000000; stroke-width: 2"/>
      </g>
     </g>
     <g id="text_18">
      <!-- 12 -->
      <g transform="translate(281.659468 181.838437) scale(0.1 -0.1)">
       <use xlink:href="#DejaVuSans-31"/>
       <use xlink:href="#DejaVuSans-32" transform="translate(63.623047 0)"/>
      </g>
     </g>
    </g>
   </g>
   <g id="matplotlib.axis_8">
    <g id="ytick_10">
     <g id="line2d_34">
      <g>
       <use xlink:href="#m51f79b9fa2" x="242.813045" y="150.009697"/>
      </g>
     </g>
    </g>
    <g id="ytick_11">
     <g id="line2d_35">
      <g>
       <use xlink:href="#m51f79b9fa2" x="242.813045" y="115.549091"/>
      </g>
     </g>
    </g>
    <g id="ytick_12">
     <g id="line2d_36">
      <g>
       <use xlink:href="#m51f79b9fa2" x="242.813045" y="81.088485"/>
      </g>
     </g>
    </g>
   </g>
   <g id="line2d_37">
    <path d="M 210.262621 107.819534 
L 213.879335 115.067536 
L 217.496048 126.218065 
L 221.112762 135.176764 
L 224.729476 127.943348 
L 228.34619 112.263834 
L 231.962904 97.384044 
L 235.579618 100.434522 
L 239.196331 106.158063 
L 242.813045 107.963727 
L 246.429759 110.845316 
L 250.046473 119.941436 
L 253.663187 135.181967 
L 257.279901 130.872744 
L 260.896614 107.638598 
L 264.513328 78.661625 
L 268.130042 71.398725 
L 271.746756 81.619589 
L 275.36347 91.469574 
L 278.980184 95.025174 
L 282.596897 105.287416 
L 286.213611 120.916178 
L 289.830325 134.770381 
L 293.447039 131.848058 
L 297.063753 117.270862 
L 300.680466 105.623165 
L 304.29718 107.005605 
L 307.913894 113.513533 
L 311.530608 114.704847 
L 315.147322 114.827039 
L 318.764036 121.75995 
" clip-path="url(#pefc9570e92)" style="fill: none; stroke: #ff7f7f; stroke-width: 1.5; stroke-linecap: square"/>
   </g>
   <g id="line2d_38">
    <path d="M 210.262621 111.421137 
L 213.879335 116.284838 
L 217.496048 125.585789 
L 221.112762 133.16916 
L 224.729476 124.325563 
L 228.34619 103.934722 
L 231.962904 88.041983 
L 235.579618 93.144421 
L 239.196331 99.859275 
L 242.813045 102.856811 
L 246.429759 108.059977 
L 250.046473 114.295834 
L 253.663187 126.475211 
L 257.279901 132.1938 
L 260.896614 131.996109 
L 264.513328 129.440287 
L 268.130042 127.755275 
L 271.746756 125.154893 
L 275.36347 120.150193 
L 278.980184 115.212018 
L 282.596897 113.597638 
L 286.213611 120.479292 
L 289.830325 126.196963 
L 293.447039 116.587329 
L 297.063753 98.721124 
L 300.680466 86.184179 
L 304.29718 88.422607 
L 307.913894 92.758902 
L 311.530608 93.31489 
L 315.147322 97.701196 
L 318.764036 108.16921 
" clip-path="url(#pefc9570e92)" style="fill: none; stroke: #000080; stroke-width: 1.5; stroke-linecap: square"/>
   </g>
   <g id="line2d_39">
    <path d="M 244.621402 167.24 
L 244.621402 53.52 
" clip-path="url(#pefc9570e92)" style="fill: none; stroke: #000000; stroke-width: 0.8; stroke-linecap: square"/>
   </g>
   <g id="line2d_40">
    <path d="M 253.663187 167.24 
L 253.663187 53.52 
" clip-path="url(#pefc9570e92)" style="fill: none; stroke-dasharray: 2.96,1.28; stroke-dashoffset: 0; stroke: #000000; stroke-width: 0.8"/>
   </g>
   <g id="patch_10">
    <path d="M 244.621402 167.24 
L 288.021968 167.24 
" style="fill: none; stroke: #000000; stroke-width: 2; stroke-linejoin: miter; stroke-linecap: square"/>
   </g>
   <g id="text_19">
    <!-- M1 -->
    <g transform="translate(256.423132 47.52) scale(0.12 -0.12)">
     <use xlink:href="#DejaVuSans-4d"/>
     <use xlink:href="#DejaVuSans-31" transform="translate(86.279297 0)"/>
    </g>
   </g>
  </g>
  <g id="axes_5">
   <g id="patch_11">
    <path d="M 306.417394 167.24 
L 351.626316 167.24 
L 351.626316 53.52 
L 306.417394 53.52 
z
" style="fill: #ffffff"/>
   </g>
   <g id="FillBetweenPolyCollection_9">
    <defs>
     <path id="m0d0a5429c0" d="M 273.866969 -142.479354 
L 273.866969 -105.769733 
L 277.483683 -98.922087 
L 281.100397 -86.589626 
L 284.717111 -68.580439 
L 288.333824 -67.326997 
L 291.950538 -79.810293 
L 295.567252 -100.424154 
L 299.183966 -106.440532 
L 302.80068 -103.463765 
L 306.417394 -104.820394 
L 310.034107 -104.008646 
L 313.650821 -93.071925 
L 317.267535 -75.359243 
L 320.884249 -58.289554 
L 324.500963 -78.636663 
L 328.117677 -113.407056 
L 331.73439 -137.872756 
L 335.351104 -137.442863 
L 338.967818 -130.135441 
L 342.584532 -128.376186 
L 346.201246 -116.915474 
L 349.81796 -97.670677 
L 353.434673 -73.595428 
L 357.051387 -64.892071 
L 360.668101 -76.055112 
L 364.284815 -91.428332 
L 367.901529 -97.903995 
L 371.518243 -97.16766 
L 375.134956 -96.885837 
L 378.75167 -98.833319 
L 382.368384 -90.582024 
L 382.368384 -124.117241 
L 382.368384 -124.117241 
L 378.75167 -132.29415 
L 375.134956 -131.822827 
L 371.518243 -130.980403 
L 367.901529 -135.523042 
L 364.284815 -128.179202 
L 360.668101 -108.7287 
L 357.051387 -98.124868 
L 353.434673 -110.193768 
L 349.81796 -133.728081 
L 346.201246 -152.722128 
L 342.584532 -162.690067 
L 338.967818 -163.743169 
L 335.351104 -170.724873 
L 331.73439 -169.346031 
L 328.117677 -146.941245 
L 324.500963 -110.511845 
L 320.884249 -96.243192 
L 317.267535 -110.826226 
L 313.650821 -128.445243 
L 310.034107 -139.408885 
L 306.417394 -141.121525 
L 302.80068 -141.761856 
L 299.183966 -144.382679 
L 295.567252 -138.927913 
L 291.950538 -114.323825 
L 288.333824 -100.077741 
L 284.717111 -104.231189 
L 281.100397 -121.100401 
L 277.483683 -135.392509 
L 273.866969 -142.479354 
z
"/>
    </defs>
    <g clip-path="url(#p3d7a6eec58)">
     <use xlink:href="#m0d0a5429c0" x="0" y="223.92" style="fill: #ff7f7f; fill-opacity: 0.2"/>
    </g>
   </g>
   <g id="FillBetweenPolyCollection_10">
    <defs>
     <path id="m11b0c99ed5" d="M 273.866969 -140.253302 
L 273.866969 -104.133552 
L 277.483683 -98.570775 
L 281.100397 -86.877178 
L 284.717111 -70.243736 
L 288.333824 -70.90122 
L 291.950538 -88.941209 
L 295.567252 -109.86237 
L 299.183966 -115.160562 
L 302.80068 -113.821526 
L 306.417394 -110.898634 
L 310.034107 -108.668009 
L 313.650821 -98.925309 
L 317.267535 -87.163483 
L 320.884249 -76.058684 
L 324.500963 -69.324765 
L 328.117677 -68.625293 
L 331.73439 -70.177841 
L 335.351104 -73.448855 
L 338.967818 -80.995389 
L 342.584532 -90.10014 
L 346.201246 -93.385135 
L 349.81796 -86.27596 
L 353.434673 -74.00822 
L 357.051387 -78.255875 
L 360.668101 -97.619166 
L 364.284815 -115.040914 
L 367.901529 -121.67956 
L 371.518243 -120.812338 
L 375.134956 -124.008157 
L 378.75167 -121.204548 
L 382.368384 -110.068852 
L 382.368384 -144.542449 
L 382.368384 -144.542449 
L 378.75167 -156.586928 
L 375.134956 -159.503192 
L 371.518243 -159.056891 
L 367.901529 -158.634049 
L 364.284815 -149.347869 
L 360.668101 -127.970016 
L 357.051387 -109.750201 
L 353.434673 -108.521355 
L 349.81796 -118.47836 
L 346.201246 -123.299663 
L 342.584532 -120.355082 
L 338.967818 -111.643819 
L 335.351104 -104.880068 
L 331.73439 -99.071084 
L 328.117677 -97.443743 
L 324.500963 -99.301306 
L 320.884249 -106.352788 
L 317.267535 -119.741123 
L 313.650821 -135.538026 
L 310.034107 -144.900615 
L 306.417394 -148.73385 
L 302.80068 -148.794127 
L 299.183966 -154.675719 
L 295.567252 -149.538178 
L 291.950538 -121.769608 
L 288.333824 -103.245672 
L 284.717111 -106.537647 
L 281.100397 -121.972485 
L 277.483683 -134.011316 
L 273.866969 -140.253302 
z
"/>
    </defs>
    <g clip-path="url(#p3d7a6eec58)">
     <use xlink:href="#m11b0c99ed5" x="0" y="223.92" style="fill: #000080; fill-opacity: 0.2"/>
    </g>
   </g>
   <g id="matplotlib.axis_9">
    <g id="xtick_13">
     <g id="line2d_41">
      <g>
       <use xlink:href="#m3b372ec847" x="308.225751" y="167.24" style="stroke: #000000; stroke-width: 2"/>
      </g>
     </g>
     <g id="text_20">
      <!-- 0 -->
      <g transform="translate(305.044501 181.838437) scale(0.1 -0.1)">
       <use xlink:href="#DejaVuSans-30"/>
      </g>
     </g>
    </g>
    <g id="xtick_14">
     <g id="line2d_42">
      <g>
       <use xlink:href="#m3b372ec847" x="329.926034" y="167.24" style="stroke: #000000; stroke-width: 2"/>
      </g>
     </g>
     <g id="text_21">
      <!-- 6 -->
      <g transform="translate(326.744784 181.838437) scale(0.1 -0.1)">
       <use xlink:href="#DejaVuSans-36"/>
      </g>
     </g>
    </g>
    <g id="xtick_15">
     <g id="line2d_43">
      <g>
       <use xlink:href="#m3b372ec847" x="351.626316" y="167.24" style="stroke: #000000; stroke-width: 2"/>
      </g>
     </g>
     <g id="text_22">
      <!-- 12 -->
      <g transform="translate(345.263816 181.838437) scale(0.1 -0.1)">
       <use xlink:href="#DejaVuSans-31"/>
       <use xlink:href="#DejaVuSans-32" transform="translate(63.623047 0)"/>
      </g>
     </g>
    </g>
   </g>
   <g id="matplotlib.axis_10">
    <g id="ytick_13">
     <g id="line2d_44">
      <g>
       <use xlink:href="#m51f79b9fa2" x="306.417394" y="150.009697"/>
      </g>
     </g>
    </g>
    <g id="ytick_14">
     <g id="line2d_45">
      <g>
       <use xlink:href="#m51f79b9fa2" x="306.417394" y="115.549091"/>
      </g>
     </g>
    </g>
    <g id="ytick_15">
     <g id="line2d_46">
      <g>
       <use xlink:href="#m51f79b9fa2" x="306.417394" y="81.088485"/>
      </g>
     </g>
    </g>
   </g>
   <g id="line2d_47">
    <path d="M 273.866969 99.795456 
L 277.483683 106.762702 
L 281.100397 120.074987 
L 284.717111 137.514186 
L 288.333824 140.217631 
L 291.950538 126.852941 
L 295.567252 104.243966 
L 299.183966 98.508395 
L 302.80068 101.307189 
L 306.417394 100.94904 
L 310.034107 102.211234 
L 313.650821 113.161416 
L 317.267535 130.827265 
L 320.884249 146.653627 
L 324.500963 129.345746 
L 328.117677 93.74585 
L 331.73439 70.310606 
L 335.351104 69.836132 
L 338.967818 76.980695 
L 342.584532 78.386873 
L 346.201246 89.101199 
L 349.81796 108.220621 
L 353.434673 132.025402 
L 357.051387 142.41153 
L 360.668101 131.528094 
L 364.284815 114.116233 
L 367.901529 107.206482 
L 371.518243 109.845969 
L 375.134956 109.565668 
L 378.75167 108.356265 
L 382.368384 116.570367 
" clip-path="url(#p3d7a6eec58)" style="fill: none; stroke: #ff7f7f; stroke-width: 1.5; stroke-linecap: square"/>
   </g>
   <g id="line2d_48">
    <path d="M 273.866969 101.726573 
L 277.483683 107.628954 
L 281.100397 119.495169 
L 284.717111 135.529309 
L 288.333824 136.846554 
L 291.950538 118.564592 
L 295.567252 94.219726 
L 299.183966 89.00186 
L 302.80068 92.612173 
L 306.417394 94.103758 
L 310.034107 97.135688 
L 313.650821 106.688332 
L 317.267535 120.467697 
L 320.884249 132.714264 
L 324.500963 139.606965 
L 328.117677 140.885482 
L 331.73439 139.295537 
L 335.351104 134.755539 
L 338.967818 127.600396 
L 342.584532 118.692389 
L 346.201246 115.577601 
L 349.81796 121.54284 
L 353.434673 132.655212 
L 357.051387 129.916962 
L 360.668101 111.125409 
L 364.284815 91.725608 
L 367.901529 83.763196 
L 371.518243 83.985386 
L 375.134956 82.164326 
L 378.75167 85.024262 
L 382.368384 96.614349 
" clip-path="url(#p3d7a6eec58)" style="fill: none; stroke: #000080; stroke-width: 1.5; stroke-linecap: square"/>
   </g>
   <g id="line2d_49">
    <path d="M 308.225751 167.24 
L 308.225751 53.52 
" clip-path="url(#p3d7a6eec58)" style="fill: none; stroke: #000000; stroke-width: 0.8; stroke-linecap: square"/>
   </g>
   <g id="line2d_50">
    <path d="M 317.267535 167.24 
L 317.267535 53.52 
" clip-path="url(#p3d7a6eec58)" style="fill: none; stroke-dasharray: 2.96,1.28; stroke-dashoffset: 0; stroke: #000000; stroke-width: 0.8"/>
   </g>
   <g id="patch_12">
    <path d="M 308.225751 167.24 
L 351.626316 167.24 
" style="fill: none; stroke: #000000; stroke-width: 2; stroke-linejoin: miter; stroke-linecap: square"/>
   </g>
   <g id="text_23">
    <!-- S1 -->
    <g transform="translate(321.395293 47.52) scale(0.12 -0.12)">
     <use xlink:href="#DejaVuSans-53"/>
     <use xlink:href="#DejaVuSans-31" transform="translate(63.476562 0)"/>
    </g>
   </g>
  </g>
  <g id="axes_6">
   <g id="patch_13">
    <path d="M 370.021742 167.24 
L 415.230665 167.24 
L 415.230665 53.52 
L 370.021742 53.52 
z
" style="fill: #ffffff"/>
   </g>
   <g id="FillBetweenPolyCollection_11">
    <defs>
     <path id="m6ec860f75b" d="M 337.471318 -128.971732 
L 337.471318 -98.405325 
L 341.088031 -93.731357 
L 344.704745 -85.444039 
L 348.321459 -74.549761 
L 351.938173 -82.536325 
L 355.554887 -93.243695 
L 359.171601 -106.786711 
L 362.788314 -108.655531 
L 366.405028 -102.280974 
L 370.021742 -99.838098 
L 373.638456 -97.193045 
L 377.25517 -91.055956 
L 380.871884 -76.373041 
L 384.488597 -71.727811 
L 388.105311 -94.616655 
L 391.722025 -116.101993 
L 395.338739 -127.55326 
L 398.955453 -122.400057 
L 402.572166 -109.826501 
L 406.18888 -106.496388 
L 409.805594 -101.251328 
L 413.422308 -91.413041 
L 417.039022 -78.818715 
L 420.655736 -82.53461 
L 424.272449 -92.747397 
L 427.889163 -102.332464 
L 431.505877 -105.097268 
L 435.122591 -100.294931 
L 438.739305 -96.088237 
L 442.356019 -96.346577 
L 445.972732 -91.001665 
L 445.972732 -119.158712 
L 445.972732 -119.158712 
L 442.356019 -124.188805 
L 438.739305 -125.638594 
L 435.122591 -129.622527 
L 431.505877 -135.589196 
L 427.889163 -132.285865 
L 424.272449 -120.941057 
L 420.655736 -111.349464 
L 417.039022 -109.068315 
L 413.422308 -120.072659 
L 409.805594 -129.91094 
L 406.18888 -134.499209 
L 402.572166 -139.523552 
L 398.955453 -152.42694 
L 395.338739 -157.468995 
L 391.722025 -146.128471 
L 388.105311 -124.280998 
L 384.488597 -105.194151 
L 380.871884 -106.771289 
L 377.25517 -120.02408 
L 373.638456 -126.83306 
L 370.021742 -130.368011 
L 366.405028 -134.370784 
L 362.788314 -140.271118 
L 359.171601 -139.643969 
L 355.554887 -123.073862 
L 351.938173 -112.087591 
L 348.321459 -105.169428 
L 344.704745 -114.177929 
L 341.088031 -123.659221 
L 337.471318 -128.971732 
z
"/>
    </defs>
    <g clip-path="url(#pf3d4293b7b)">
     <use xlink:href="#m6ec860f75b" x="0" y="223.92" style="fill: #ff7f7f; fill-opacity: 0.2"/>
    </g>
   </g>
   <g id="FillBetweenPolyCollection_12">
    <defs>
     <path id="me2688fac0b" d="M 337.471318 -127.338437 
L 337.471318 -97.423984 
L 341.088031 -93.730337 
L 344.704745 -85.232823 
L 348.321459 -73.736097 
L 351.938173 -82.46598 
L 355.554887 -98.515328 
L 359.171601 -111.69916 
L 362.788314 -113.646006 
L 366.405028 -108.219905 
L 370.021742 -102.469618 
L 373.638456 -99.030085 
L 377.25517 -93.114947 
L 380.871884 -85.307796 
L 384.488597 -82.517028 
L 388.105311 -84.452607 
L 391.722025 -87.794657 
L 395.338739 -92.441675 
L 398.955453 -96.086298 
L 402.572166 -100.256656 
L 406.18888 -102.84613 
L 409.805594 -100.599505 
L 413.422308 -90.83405 
L 417.039022 -76.83571 
L 420.655736 -87.506721 
L 424.272449 -101.971997 
L 427.889163 -112.954077 
L 431.505877 -116.199966 
L 435.122591 -110.478377 
L 438.739305 -109.10426 
L 442.356019 -104.375591 
L 445.972732 -98.504242 
L 445.972732 -127.046662 
L 445.972732 -127.046662 
L 442.356019 -133.17108 
L 438.739305 -138.109377 
L 435.122591 -141.863946 
L 431.505877 -147.286992 
L 427.889163 -143.262071 
L 424.272449 -130.15984 
L 420.655736 -117.548417 
L 417.039022 -109.071637 
L 413.422308 -120.241121 
L 409.805594 -128.080958 
L 406.18888 -131.412166 
L 402.572166 -130.01476 
L 398.955453 -125.232947 
L 395.338739 -118.400446 
L 391.722025 -113.096869 
L 388.105311 -110.792431 
L 384.488597 -109.645139 
L 380.871884 -112.403144 
L 377.25517 -123.012445 
L 373.638456 -127.821771 
L 370.021742 -132.693836 
L 366.405028 -137.319627 
L 362.788314 -147.412125 
L 359.171601 -146.148195 
L 355.554887 -127.565456 
L 351.938173 -113.381692 
L 348.321459 -105.438178 
L 344.704745 -115.190868 
L 341.088031 -122.730217 
L 337.471318 -127.338437 
z
"/>
    </defs>
    <g clip-path="url(#pf3d4293b7b)">
     <use xlink:href="#me2688fac0b" x="0" y="223.92" style="fill: #000080; fill-opacity: 0.2"/>
    </g>
   </g>
   <g id="matplotlib.axis_11">
    <g id="xtick_16">
     <g id="line2d_51">
      <g>
       <use xlink:href="#m3b372ec847" x="371.830099" y="167.24" style="stroke: #000000; stroke-width: 2"/>
      </g>
     </g>
     <g id="text_24">
      <!-- 0 -->
      <g transform="translate(368.648849 181.838437) scale(0.1 -0.1)">
       <use xlink:href="#DejaVuSans-30"/>
      </g>
     </g>
    </g>
    <g id="xtick_17">
     <g id="line2d_52">
      <g>
       <use xlink:href="#m3b372ec847" x="393.530382" y="167.24" style="stroke: #000000; stroke-width: 2"/>
      </g>
     </g>
     <g id="text_25">
      <!-- 6 -->
      <g transform="translate(390.349132 181.838437) scale(0.1 -0.1)">
       <use xlink:href="#DejaVuSans-36"/>
      </g>
     </g>
    </g>
    <g id="xtick_18">
     <g id="line2d_53">
      <g>
       <use xlink:href="#m3b372ec847" x="415.230665" y="167.24" style="stroke: #000000; stroke-width: 2"/>
      </g>
     </g>
     <g id="text_26">
      <!-- 12 -->
      <g transform="translate(408.868165 181.838437) scale(0.1 -0.1)">
       <use xlink:href="#DejaVuSans-31"/>
       <use xlink:href="#DejaVuSans-32" transform="translate(63.623047 0)"/>
      </g>
     </g>
    </g>
   </g>
   <g id="matplotlib.axis_12">
    <g id="ytick_16">
     <g id="line2d_54">
      <g>
       <use xlink:href="#m51f79b9fa2" x="370.021742" y="150.009697"/>
      </g>
     </g>
    </g>
    <g id="ytick_17">
     <g id="line2d_55">
      <g>
       <use xlink:href="#m51f79b9fa2" x="370.021742" y="115.549091"/>
      </g>
     </g>
    </g>
    <g id="ytick_18">
     <g id="line2d_56">
      <g>
       <use xlink:href="#m51f79b9fa2" x="370.021742" y="81.088485"/>
      </g>
     </g>
    </g>
   </g>
   <g id="line2d_57">
    <path d="M 337.471318 110.231471 
L 341.088031 115.224711 
L 344.704745 124.109016 
L 348.321459 134.060405 
L 351.938173 126.608042 
L 355.554887 115.761221 
L 359.171601 100.70466 
L 362.788314 99.456676 
L 366.405028 105.594121 
L 370.021742 108.816945 
L 373.638456 111.906948 
L 377.25517 118.379982 
L 380.871884 132.347835 
L 384.488597 135.459019 
L 388.105311 114.471173 
L 391.722025 92.804768 
L 395.338739 81.408872 
L 398.955453 86.506502 
L 402.572166 99.244973 
L 406.18888 103.422202 
L 409.805594 108.338866 
L 413.422308 118.17715 
L 417.039022 129.976485 
L 420.655736 126.977963 
L 424.272449 117.075773 
L 427.889163 106.610835 
L 431.505877 103.576768 
L 435.122591 108.961271 
L 438.739305 113.056584 
L 442.356019 113.652309 
L 445.972732 118.839811 
" clip-path="url(#pf3d4293b7b)" style="fill: none; stroke: #ff7f7f; stroke-width: 1.5; stroke-linecap: square"/>
   </g>
   <g id="line2d_58">
    <path d="M 337.471318 111.53879 
L 341.088031 115.689723 
L 344.704745 123.708154 
L 348.321459 134.332862 
L 351.938173 125.996164 
L 355.554887 110.879608 
L 359.171601 94.996323 
L 362.788314 93.390935 
L 366.405028 101.150234 
L 370.021742 106.338273 
L 373.638456 110.494072 
L 377.25517 115.856304 
L 380.871884 125.06453 
L 384.488597 127.838916 
L 388.105311 126.297481 
L 391.722025 123.474237 
L 395.338739 118.49894 
L 398.955453 113.260377 
L 402.572166 108.784292 
L 406.18888 106.790852 
L 409.805594 109.579768 
L 413.422308 118.382414 
L 417.039022 130.966327 
L 420.655736 121.392431 
L 424.272449 107.854081 
L 427.889163 95.811926 
L 431.505877 92.176521 
L 435.122591 97.748839 
L 438.739305 100.313182 
L 442.356019 105.146664 
L 445.972732 111.144548 
" clip-path="url(#pf3d4293b7b)" style="fill: none; stroke: #000080; stroke-width: 1.5; stroke-linecap: square"/>
   </g>
   <g id="line2d_59">
    <path d="M 371.830099 167.24 
L 371.830099 53.52 
" clip-path="url(#pf3d4293b7b)" style="fill: none; stroke: #000000; stroke-width: 0.8; stroke-linecap: square"/>
   </g>
   <g id="line2d_60">
    <path d="M 380.871884 167.24 
L 380.871884 53.52 
" clip-path="url(#pf3d4293b7b)" style="fill: none; stroke-dasharray: 2.96,1.28; stroke-dashoffset: 0; stroke: #000000; stroke-width: 0.8"/>
   </g>
   <g id="patch_14">
    <path d="M 371.830099 167.24 
L 415.230665 167.24 
" style="fill: none; stroke: #000000; stroke-width: 2; stroke-linejoin: miter; stroke-linecap: square"/>
   </g>
   <g id="text_27">
    <!-- SPLa -->
    <g transform="translate(378.179328 47.52) scale(0.12 -0.12)">
     <defs>
      <path id="DejaVuSans-4c" d="M 628 4666 
L 1259 4666 
L 1259 531 
L 3531 531 
L 3531 0 
L 628 0 
L 628 4666 
z
" transform="scale(0.015625)"/>
      <path id="DejaVuSans-61" d="M 2194 1759 
Q 1497 1759 1228 1600 
Q 959 1441 959 1056 
Q 959 750 1161 570 
Q 1363 391 1709 391 
Q 2188 391 2477 730 
Q 2766 1069 2766 1631 
L 2766 1759 
L 2194 1759 
z
M 3341 1997 
L 3341 0 
L 2766 0 
L 2766 531 
Q 2569 213 2275 61 
Q 1981 -91 1556 -91 
Q 1019 -91 701 211 
Q 384 513 384 1019 
Q 384 1609 779 1909 
Q 1175 2209 1959 2209 
L 2766 2209 
L 2766 2266 
Q 2766 2663 2505 2880 
Q 2244 3097 1772 3097 
Q 1472 3097 1187 3025 
Q 903 2953 641 2809 
L 641 3341 
Q 956 3463 1253 3523 
Q 1550 3584 1831 3584 
Q 2591 3584 2966 3190 
Q 3341 2797 3341 1997 
z
" transform="scale(0.015625)"/>
     </defs>
     <use xlink:href="#DejaVuSans-53"/>
     <use xlink:href="#DejaVuSans-50" transform="translate(63.476562 0)"/>
     <use xlink:href="#DejaVuSans-4c" transform="translate(123.779297 0)"/>
     <use xlink:href="#DejaVuSans-61" transform="translate(179.492188 0)"/>
    </g>
   </g>
  </g>
  <g id="axes_7">
   <g id="patch_15">
    <path d="M 433.62609 167.24 
L 478.835013 167.24 
L 478.835013 53.52 
L 433.62609 53.52 
z
" style="fill: #ffffff"/>
   </g>
   <g id="FillBetweenPolyCollection_13">
    <defs>
     <path id="m84269ea157" d="M 401.075666 -128.972151 
L 401.075666 -100.934864 
L 404.69238 -95.507623 
L 408.309094 -86.583982 
L 411.925807 -77.833318 
L 415.542521 -85.853739 
L 419.159235 -93.6184 
L 422.775949 -104.6591 
L 426.392663 -105.656815 
L 430.009377 -102.045023 
L 433.62609 -101.753293 
L 437.242804 -99.937576 
L 440.859518 -91.885559 
L 444.476232 -78.926006 
L 448.092946 -78.084475 
L 451.70966 -97.586659 
L 455.326373 -112.675258 
L 458.943087 -120.915295 
L 462.559801 -117.828372 
L 466.176515 -111.924957 
L 469.793229 -107.956053 
L 473.409943 -101.008358 
L 477.026656 -89.029236 
L 480.64337 -76.880247 
L 484.260084 -82.672952 
L 487.876798 -90.414104 
L 491.493512 -98.455005 
L 495.110226 -100.508027 
L 498.726939 -100.731011 
L 502.343653 -98.738298 
L 505.960367 -99.453324 
L 509.577081 -91.692159 
L 509.577081 -118.940832 
L 509.577081 -118.940832 
L 505.960367 -125.12648 
L 502.343653 -127.845552 
L 498.726939 -128.628246 
L 495.110226 -129.172046 
L 491.493512 -124.985919 
L 487.876798 -116.031749 
L 484.260084 -109.375874 
L 480.64337 -106.144473 
L 477.026656 -114.510417 
L 473.409943 -128.950667 
L 469.793229 -135.675073 
L 466.176515 -142.390983 
L 462.559801 -148.66329 
L 458.943087 -149.178405 
L 455.326373 -140.029526 
L 451.70966 -124.353011 
L 448.092946 -110.794995 
L 444.476232 -108.069417 
L 440.859518 -117.849384 
L 437.242804 -125.952425 
L 433.62609 -130.281423 
L 430.009377 -132.829032 
L 426.392663 -135.448297 
L 422.775949 -133.390786 
L 419.159235 -124.089115 
L 415.542521 -112.973527 
L 411.925807 -106.215144 
L 408.309094 -112.820686 
L 404.69238 -123.396268 
L 401.075666 -128.972151 
z
"/>
    </defs>
    <g clip-path="url(#p9516931a36)">
     <use xlink:href="#m84269ea157" x="0" y="223.92" style="fill: #ff7f7f; fill-opacity: 0.2"/>
    </g>
   </g>
   <g id="FillBetweenPolyCollection_14">
    <defs>
     <path id="m9b15c3a5bf" d="M 401.075666 -126.154223 
L 401.075666 -99.149842 
L 404.69238 -94.79638 
L 408.309094 -87.6854 
L 411.925807 -76.600985 
L 415.542521 -85.494015 
L 419.159235 -96.862224 
L 422.775949 -107.192731 
L 426.392663 -107.658747 
L 430.009377 -107.18316 
L 433.62609 -102.506762 
L 437.242804 -102.354815 
L 440.859518 -93.997268 
L 444.476232 -85.3538 
L 448.092946 -84.102871 
L 451.70966 -85.513616 
L 455.326373 -87.603536 
L 458.943087 -89.868262 
L 462.559801 -92.749419 
L 466.176515 -98.636337 
L 469.793229 -104.761051 
L 473.409943 -103.841725 
L 477.026656 -96.379762 
L 480.64337 -88.726336 
L 484.260084 -93.610828 
L 487.876798 -104.509955 
L 491.493512 -110.175046 
L 495.110226 -111.713579 
L 498.726939 -108.073728 
L 502.343653 -109.401614 
L 505.960367 -105.469623 
L 509.577081 -97.736267 
L 509.577081 -123.503511 
L 509.577081 -123.503511 
L 505.960367 -132.19523 
L 502.343653 -137.379769 
L 498.726939 -139.941701 
L 495.110226 -142.745105 
L 491.493512 -138.581521 
L 487.876798 -131.235289 
L 484.260084 -122.329285 
L 480.64337 -116.474937 
L 477.026656 -123.171206 
L 473.409943 -128.292354 
L 469.793229 -129.626414 
L 466.176515 -126.492082 
L 462.559801 -120.555337 
L 458.943087 -113.766905 
L 455.326373 -110.328056 
L 451.70966 -109.788788 
L 448.092946 -108.357832 
L 444.476232 -111.306918 
L 440.859518 -123.528101 
L 437.242804 -129.44341 
L 433.62609 -134.722839 
L 430.009377 -135.996933 
L 426.392663 -140.178281 
L 422.775949 -138.011662 
L 419.159235 -124.244534 
L 415.542521 -115.434343 
L 411.925807 -109.455317 
L 408.309094 -114.028067 
L 404.69238 -122.386563 
L 401.075666 -126.154223 
z
"/>
    </defs>
    <g clip-path="url(#p9516931a36)">
     <use xlink:href="#m9b15c3a5bf" x="0" y="223.92" style="fill: #000080; fill-opacity: 0.2"/>
    </g>
   </g>
   <g id="matplotlib.axis_13">
    <g id="xtick_19">
     <g id="line2d_61">
      <g>
       <use xlink:href="#m3b372ec847" x="435.434447" y="167.24" style="stroke: #000000; stroke-width: 2"/>
      </g>
     </g>
     <g id="text_28">
      <!-- 0 -->
      <g transform="translate(432.253197 181.838437) scale(0.1 -0.1)">
       <use xlink:href="#DejaVuSans-30"/>
      </g>
     </g>
    </g>
    <g id="xtick_20">
     <g id="line2d_62">
      <g>
       <use xlink:href="#m3b372ec847" x="457.13473" y="167.24" style="stroke: #000000; stroke-width: 2"/>
      </g>
     </g>
     <g id="text_29">
      <!-- 6 -->
      <g transform="translate(453.95348 181.838437) scale(0.1 -0.1)">
       <use xlink:href="#DejaVuSans-36"/>
      </g>
     </g>
    </g>
    <g id="xtick_21">
     <g id="line2d_63">
      <g>
       <use xlink:href="#m3b372ec847" x="478.835013" y="167.24" style="stroke: #000000; stroke-width: 2"/>
      </g>
     </g>
     <g id="text_30">
      <!-- 12 -->
      <g transform="translate(472.472513 181.838437) scale(0.1 -0.1)">
       <use xlink:href="#DejaVuSans-31"/>
       <use xlink:href="#DejaVuSans-32" transform="translate(63.623047 0)"/>
      </g>
     </g>
    </g>
   </g>
   <g id="matplotlib.axis_14">
    <g id="ytick_19">
     <g id="line2d_64">
      <g>
       <use xlink:href="#m51f79b9fa2" x="433.62609" y="150.009697"/>
      </g>
     </g>
    </g>
    <g id="ytick_20">
     <g id="line2d_65">
      <g>
       <use xlink:href="#m51f79b9fa2" x="433.62609" y="115.549091"/>
      </g>
     </g>
    </g>
    <g id="ytick_21">
     <g id="line2d_66">
      <g>
       <use xlink:href="#m51f79b9fa2" x="433.62609" y="81.088485"/>
      </g>
     </g>
    </g>
   </g>
   <g id="line2d_67">
    <path d="M 401.075666 108.966492 
L 404.69238 114.468055 
L 408.309094 124.217666 
L 411.925807 131.895769 
L 415.542521 124.506367 
L 419.159235 115.066242 
L 422.775949 104.895057 
L 426.392663 103.367444 
L 430.009377 106.482973 
L 433.62609 107.902642 
L 437.242804 110.974999 
L 440.859518 119.052529 
L 444.476232 130.422288 
L 448.092946 129.480265 
L 451.70966 112.950165 
L 455.326373 97.567608 
L 458.943087 88.87315 
L 462.559801 90.674169 
L 466.176515 96.76203 
L 469.793229 102.104437 
L 473.409943 108.940487 
L 477.026656 122.150174 
L 480.64337 132.40764 
L 484.260084 127.895587 
L 487.876798 120.697073 
L 491.493512 112.199538 
L 495.110226 109.079964 
L 498.726939 109.240371 
L 502.343653 110.628075 
L 505.960367 111.630098 
L 509.577081 118.603504 
" clip-path="url(#p9516931a36)" style="fill: none; stroke: #ff7f7f; stroke-width: 1.5; stroke-linecap: square"/>
   </g>
   <g id="line2d_68">
    <path d="M 401.075666 111.267967 
L 404.69238 115.328529 
L 408.309094 123.063266 
L 411.925807 130.891849 
L 415.542521 123.455821 
L 419.159235 113.366621 
L 422.775949 101.317804 
L 426.392663 100.001486 
L 430.009377 102.329954 
L 433.62609 105.305199 
L 437.242804 108.020888 
L 440.859518 115.157316 
L 444.476232 125.589641 
L 448.092946 127.689649 
L 451.70966 126.268798 
L 455.326373 124.954204 
L 458.943087 122.102416 
L 462.559801 117.267622 
L 466.176515 111.355791 
L 469.793229 106.726268 
L 473.409943 107.852961 
L 477.026656 114.144516 
L 480.64337 121.319363 
L 484.260084 115.949944 
L 487.876798 106.047378 
L 491.493512 99.541716 
L 495.110226 96.690658 
L 498.726939 99.912285 
L 502.343653 100.529309 
L 505.960367 105.087574 
L 509.577081 113.300111 
" clip-path="url(#p9516931a36)" style="fill: none; stroke: #000080; stroke-width: 1.5; stroke-linecap: square"/>
   </g>
   <g id="line2d_69">
    <path d="M 435.434447 167.24 
L 435.434447 53.52 
" clip-path="url(#p9516931a36)" style="fill: none; stroke: #000000; stroke-width: 0.8; stroke-linecap: square"/>
   </g>
   <g id="line2d_70">
    <path d="M 444.476232 167.24 
L 444.476232 53.52 
" clip-path="url(#p9516931a36)" style="fill: none; stroke-dasharray: 2.96,1.28; stroke-dashoffset: 0; stroke: #000000; stroke-width: 0.8"/>
   </g>
   <g id="patch_16">
    <path d="M 435.434447 167.24 
L 478.835013 167.24 
" style="fill: none; stroke: #000000; stroke-width: 2; stroke-linejoin: miter; stroke-linecap: square"/>
   </g>
   <g id="text_31">
    <!-- SPLp -->
    <g transform="translate(441.651489 47.52) scale(0.12 -0.12)">
     <defs>
      <path id="DejaVuSans-70" d="M 1159 525 
L 1159 -1331 
L 581 -1331 
L 581 3500 
L 1159 3500 
L 1159 2969 
Q 1341 3281 1617 3432 
Q 1894 3584 2278 3584 
Q 2916 3584 3314 3078 
Q 3713 2572 3713 1747 
Q 3713 922 3314 415 
Q 2916 -91 2278 -91 
Q 1894 -91 1617 61 
Q 1341 213 1159 525 
z
M 3116 1747 
Q 3116 2381 2855 2742 
Q 2594 3103 2138 3103 
Q 1681 3103 1420 2742 
Q 1159 2381 1159 1747 
Q 1159 1113 1420 752 
Q 1681 391 2138 391 
Q 2594 391 2855 752 
Q 3116 1113 3116 1747 
z
" transform="scale(0.015625)"/>
     </defs>
     <use xlink:href="#DejaVuSans-53"/>
     <use xlink:href="#DejaVuSans-50" transform="translate(63.476562 0)"/>
     <use xlink:href="#DejaVuSans-4c" transform="translate(123.779297 0)"/>
     <use xlink:href="#DejaVuSans-70" transform="translate(179.492188 0)"/>
    </g>
   </g>
  </g>
  <g id="axes_8">
   <g id="patch_17">
    <path d="M 497.230439 167.24 
L 542.439362 167.24 
L 542.439362 53.52 
L 497.230439 53.52 
z
" style="fill: #ffffff"/>
   </g>
   <g id="FillBetweenPolyCollection_15">
    <defs>
     <path id="m83567a1fae" d="M 464.680014 -125.069991 
L 464.680014 -101.454046 
L 468.296728 -98.415256 
L 471.913442 -93.082705 
L 475.530156 -86.03186 
L 479.14687 -89.658259 
L 482.763584 -92.55581 
L 486.380297 -98.76009 
L 489.997011 -98.860191 
L 493.613725 -100.659307 
L 497.230439 -102.528492 
L 500.847153 -102.308484 
L 504.463866 -96.817973 
L 508.08058 -89.96534 
L 511.697294 -85.626906 
L 515.314008 -96.47243 
L 518.930722 -107.557995 
L 522.547436 -111.268887 
L 526.164149 -112.324805 
L 529.780863 -110.281464 
L 533.397577 -106.836696 
L 537.014291 -102.102693 
L 540.631005 -94.773545 
L 544.247719 -85.223604 
L 547.864432 -85.056633 
L 551.481146 -86.848319 
L 555.09786 -91.122142 
L 558.714574 -93.038906 
L 562.331288 -96.382484 
L 565.948002 -98.851099 
L 569.564715 -99.041967 
L 573.181429 -95.465391 
L 573.181429 -119.360648 
L 573.181429 -119.360648 
L 569.564715 -121.904528 
L 565.948002 -121.655377 
L 562.331288 -121.442789 
L 558.714574 -117.341073 
L 555.09786 -114.699515 
L 551.481146 -110.985987 
L 547.864432 -109.104213 
L 544.247719 -110.785491 
L 540.631005 -117.706319 
L 537.014291 -124.621768 
L 533.397577 -130.387091 
L 529.780863 -136.107842 
L 526.164149 -138.547346 
L 522.547436 -135.986972 
L 518.930722 -131.714199 
L 515.314008 -121.593999 
L 511.697294 -113.643288 
L 508.08058 -114.719597 
L 504.463866 -120.93679 
L 500.847153 -124.82145 
L 497.230439 -127.082588 
L 493.613725 -127.290327 
L 489.997011 -124.710687 
L 486.380297 -125.360367 
L 482.763584 -117.545693 
L 479.14687 -114.246466 
L 475.530156 -112.265639 
L 471.913442 -117.349977 
L 468.296728 -121.559992 
L 464.680014 -125.069991 
z
"/>
    </defs>
    <g clip-path="url(#pc7a78eb52d)">
     <use xlink:href="#m83567a1fae" x="0" y="223.92" style="fill: #ff7f7f; fill-opacity: 0.2"/>
    </g>
   </g>
   <g id="FillBetweenPolyCollection_16">
    <defs>
     <path id="me47d9ec652" d="M 464.680014 -124.529836 
L 464.680014 -100.607013 
L 468.296728 -97.932163 
L 471.913442 -93.324079 
L 475.530156 -86.970225 
L 479.14687 -88.924038 
L 482.763584 -94.820003 
L 486.380297 -101.56128 
L 489.997011 -100.749754 
L 493.613725 -102.864968 
L 497.230439 -103.038707 
L 500.847153 -102.190456 
L 504.463866 -97.899239 
L 508.08058 -93.426067 
L 511.697294 -87.504891 
L 515.314008 -83.14392 
L 518.930722 -79.766707 
L 522.547436 -80.054463 
L 526.164149 -83.940264 
L 529.780863 -93.962284 
L 533.397577 -101.007261 
L 537.014291 -103.811574 
L 540.631005 -101.528084 
L 544.247719 -94.829551 
L 547.864432 -96.65742 
L 551.481146 -102.034285 
L 555.09786 -107.249682 
L 558.714574 -106.341721 
L 562.331288 -107.62899 
L 565.948002 -110.304609 
L 569.564715 -108.614296 
L 573.181429 -104.015271 
L 573.181429 -126.720274 
L 573.181429 -126.720274 
L 569.564715 -131.512693 
L 565.948002 -135.111551 
L 562.331288 -135.373519 
L 558.714574 -133.012631 
L 555.09786 -132.886168 
L 551.481146 -126.121533 
L 547.864432 -122.956982 
L 544.247719 -119.957372 
L 540.631005 -125.479498 
L 537.014291 -126.923706 
L 533.397577 -123.255822 
L 529.780863 -116.154479 
L 526.164149 -106.844484 
L 522.547436 -103.240551 
L 518.930722 -102.356063 
L 515.314008 -105.761315 
L 511.697294 -111.555931 
L 508.08058 -116.812085 
L 504.463866 -121.55044 
L 500.847153 -125.469761 
L 497.230439 -127.702617 
L 493.613725 -128.81107 
L 489.997011 -127.825614 
L 486.380297 -128.290359 
L 482.763584 -119.72829 
L 479.14687 -114.411843 
L 475.530156 -111.882029 
L 471.913442 -116.887372 
L 468.296728 -121.285285 
L 464.680014 -124.529836 
z
"/>
    </defs>
    <g clip-path="url(#pc7a78eb52d)">
     <use xlink:href="#me47d9ec652" x="0" y="223.92" style="fill: #000080; fill-opacity: 0.2"/>
    </g>
   </g>
   <g id="matplotlib.axis_15">
    <g id="xtick_22">
     <g id="line2d_71">
      <g>
       <use xlink:href="#m3b372ec847" x="499.038796" y="167.24" style="stroke: #000000; stroke-width: 2"/>
      </g>
     </g>
     <g id="text_32">
      <!-- 0 -->
      <g transform="translate(495.857546 181.838437) scale(0.1 -0.1)">
       <use xlink:href="#DejaVuSans-30"/>
      </g>
     </g>
    </g>
    <g id="xtick_23">
     <g id="line2d_72">
      <g>
       <use xlink:href="#m3b372ec847" x="520.739079" y="167.24" style="stroke: #000000; stroke-width: 2"/>
      </g>
     </g>
     <g id="text_33">
      <!-- 6 -->
      <g transform="translate(517.557829 181.838437) scale(0.1 -0.1)">
       <use xlink:href="#DejaVuSans-36"/>
      </g>
     </g>
    </g>
    <g id="xtick_24">
     <g id="line2d_73">
      <g>
       <use xlink:href="#m3b372ec847" x="542.439362" y="167.24" style="stroke: #000000; stroke-width: 2"/>
      </g>
     </g>
     <g id="text_34">
      <!-- 12 -->
      <g transform="translate(536.076862 181.838437) scale(0.1 -0.1)">
       <use xlink:href="#DejaVuSans-31"/>
       <use xlink:href="#DejaVuSans-32" transform="translate(63.623047 0)"/>
      </g>
     </g>
    </g>
   </g>
   <g id="matplotlib.axis_16">
    <g id="ytick_22">
     <g id="line2d_74">
      <g>
       <use xlink:href="#m51f79b9fa2" x="497.230439" y="150.009697"/>
      </g>
     </g>
    </g>
    <g id="ytick_23">
     <g id="line2d_75">
      <g>
       <use xlink:href="#m51f79b9fa2" x="497.230439" y="115.549091"/>
      </g>
     </g>
    </g>
    <g id="ytick_24">
     <g id="line2d_76">
      <g>
       <use xlink:href="#m51f79b9fa2" x="497.230439" y="81.088485"/>
      </g>
     </g>
    </g>
   </g>
   <g id="line2d_77">
    <path d="M 464.680014 110.657981 
L 468.296728 113.932376 
L 471.913442 118.703659 
L 475.530156 124.771251 
L 479.14687 121.967638 
L 482.763584 118.869248 
L 486.380297 111.859771 
L 489.997011 112.134561 
L 493.613725 109.945183 
L 497.230439 109.11446 
L 500.847153 110.355033 
L 504.463866 115.042619 
L 508.08058 121.577531 
L 511.697294 124.284903 
L 515.314008 114.886786 
L 518.930722 104.283903 
L 522.547436 100.292071 
L 526.164149 98.483925 
L 529.780863 100.725347 
L 533.397577 105.308106 
L 537.014291 110.557769 
L 540.631005 117.680068 
L 544.247719 125.915453 
L 547.864432 126.839577 
L 551.481146 125.002847 
L 555.09786 121.009171 
L 557.001862 119.809318 
" clip-path="url(#pc7a78eb52d)" style="fill: none; stroke: #ff7f7f; stroke-width: 1.5; stroke-linecap: square"/>
   </g>
   <g id="line2d_78">
    <path d="M 464.680014 111.351576 
L 468.296728 114.311276 
L 471.913442 118.814275 
L 475.530156 124.493873 
L 479.14687 122.25206 
L 482.763584 116.645854 
L 486.380297 108.994181 
L 489.997011 109.632316 
L 493.613725 108.081981 
L 497.230439 108.549338 
L 500.847153 110.089891 
L 504.463866 114.195161 
L 508.08058 118.800924 
L 511.697294 124.389589 
L 515.314008 129.467382 
L 518.930722 132.858615 
L 522.547436 132.272493 
L 526.164149 128.527626 
L 529.780863 118.861618 
L 533.397577 111.788459 
L 537.014291 108.55236 
L 540.631005 110.416209 
L 544.247719 116.526539 
L 547.864432 114.112799 
L 551.481146 109.842091 
L 555.09786 103.852075 
L 557.001862 104.057783 
" clip-path="url(#pc7a78eb52d)" style="fill: none; stroke: #000080; stroke-width: 1.5; stroke-linecap: square"/>
   </g>
   <g id="line2d_79">
    <path d="M 499.038796 167.24 
L 499.038796 53.52 
" clip-path="url(#pc7a78eb52d)" style="fill: none; stroke: #000000; stroke-width: 0.8; stroke-linecap: square"/>
   </g>
   <g id="line2d_80">
    <path d="M 508.08058 167.24 
L 508.08058 53.52 
" clip-path="url(#pc7a78eb52d)" style="fill: none; stroke-dasharray: 2.96,1.28; stroke-dashoffset: 0; stroke: #000000; stroke-width: 0.8"/>
   </g>
   <g id="patch_18">
    <path d="M 499.038796 167.24 
L 542.439362 167.24 
" style="fill: none; stroke: #000000; stroke-width: 2; stroke-linejoin: miter; stroke-linecap: square"/>
   </g>
   <g id="text_35">
    <!-- V1 -->
    <g transform="translate(511.913025 47.52) scale(0.12 -0.12)">
     <defs>
      <path id="DejaVuSans-56" d="M 1831 0 
L 50 4666 
L 709 4666 
L 2188 738 
L 3669 4666 
L 4325 4666 
L 2547 0 
L 1831 0 
z
" transform="scale(0.015625)"/>
     </defs>
     <use xlink:href="#DejaVuSans-56"/>
     <use xlink:href="#DejaVuSans-31" transform="translate(68.408203 0)"/>
    </g>
   </g>
   <g id="legend_1">
    <g id="line2d_81">
     <path d="M 480.515924 66.618437 
L 490.515924 66.618437 
L 500.515924 66.618437 
" style="fill: none; stroke: #ff7f7f; stroke-width: 1.5; stroke-linecap: square"/>
    </g>
    <g id="text_36">
     <!-- go -->
     <g transform="translate(508.515924 70.118437) scale(0.1 -0.1)">
      <defs>
       <path id="DejaVuSans-67" d="M 2906 1791 
Q 2906 2416 2648 2759 
Q 2391 3103 1925 3103 
Q 1463 3103 1205 2759 
Q 947 2416 947 1791 
Q 947 1169 1205 825 
Q 1463 481 1925 481 
Q 2391 481 2648 825 
Q 2906 1169 2906 1791 
z
M 3481 434 
Q 3481 -459 3084 -895 
Q 2688 -1331 1869 -1331 
Q 1566 -1331 1297 -1286 
Q 1028 -1241 775 -1147 
L 775 -588 
Q 1028 -725 1275 -790 
Q 1522 -856 1778 -856 
Q 2344 -856 2625 -561 
Q 2906 -266 2906 331 
L 2906 616 
Q 2728 306 2450 153 
Q 2172 0 1784 0 
Q 1141 0 747 490 
Q 353 981 353 1791 
Q 353 2603 747 3093 
Q 1141 3584 1784 3584 
Q 2172 3584 2450 3431 
Q 2728 3278 2906 2969 
L 2906 3500 
L 3481 3500 
L 3481 434 
z
" transform="scale(0.015625)"/>
       <path id="DejaVuSans-6f" d="M 1959 3097 
Q 1497 3097 1228 2736 
Q 959 2375 959 1747 
Q 959 1119 1226 758 
Q 1494 397 1959 397 
Q 2419 397 2687 759 
Q 2956 1122 2956 1747 
Q 2956 2369 2687 2733 
Q 2419 3097 1959 3097 
z
M 1959 3584 
Q 2709 3584 3137 3096 
Q 3566 2609 3566 1747 
Q 3566 888 3137 398 
Q 2709 -91 1959 -91 
Q 1206 -91 779 398 
Q 353 888 353 1747 
Q 353 2609 779 3096 
Q 1206 3584 1959 3584 
z
" transform="scale(0.015625)"/>
      </defs>
      <use xlink:href="#DejaVuSans-67"/>
      <use xlink:href="#DejaVuSans-6f" transform="translate(63.476562 0)"/>
     </g>
    </g>
    <g id="line2d_82">
     <path d="M 480.515924 81.296562 
L 490.515924 81.296562 
L 500.515924 81.296562 
" style="fill: none; stroke: #000080; stroke-width: 1.5; stroke-linecap: square"/>
    </g>
    <g id="text_37">
     <!-- nogo -->
     <g transform="translate(508.515924 84.796562) scale(0.1 -0.1)">
      <defs>
       <path id="DejaVuSans-6e" d="M 3513 2113 
L 3513 0 
L 2938 0 
L 2938 2094 
Q 2938 2591 2744 2837 
Q 2550 3084 2163 3084 
Q 1697 3084 1428 2787 
Q 1159 2491 1159 1978 
L 1159 0 
L 581 0 
L 581 3500 
L 1159 3500 
L 1159 2956 
Q 1366 3272 1645 3428 
Q 1925 3584 2291 3584 
Q 2894 3584 3203 3211 
Q 3513 2838 3513 2113 
z
" transform="scale(0.015625)"/>
      </defs>
      <use xlink:href="#DejaVuSans-6e"/>
      <use xlink:href="#DejaVuSans-6f" transform="translate(63.378906 0)"/>
      <use xlink:href="#DejaVuSans-67" transform="translate(124.560547 0)"/>
      <use xlink:href="#DejaVuSans-6f" transform="translate(188.037109 0)"/>
     </g>
    </g>
   </g>
  </g>
  <g id="text_38">
   <!-- activation (a.u.) -->
   <g transform="translate(16.318125 158.477812) rotate(-90) scale(0.12 -0.12)">
    <defs>
     <path id="DejaVuSans-63" d="M 3122 3366 
L 3122 2828 
Q 2878 2963 2633 3030 
Q 2388 3097 2138 3097 
Q 1578 3097 1268 2742 
Q 959 2388 959 1747 
Q 959 1106 1268 751 
Q 1578 397 2138 397 
Q 2388 397 2633 464 
Q 2878 531 3122 666 
L 3122 134 
Q 2881 22 2623 -34 
Q 2366 -91 2075 -91 
Q 1284 -91 818 406 
Q 353 903 353 1747 
Q 353 2603 823 3093 
Q 1294 3584 2113 3584 
Q 2378 3584 2631 3529 
Q 2884 3475 3122 3366 
z
" transform="scale(0.015625)"/>
     <path id="DejaVuSans-74" d="M 1172 4494 
L 1172 3500 
L 2356 3500 
L 2356 3053 
L 1172 3053 
L 1172 1153 
Q 1172 725 1289 603 
Q 1406 481 1766 481 
L 2356 481 
L 2356 0 
L 1766 0 
Q 1100 0 847 248 
Q 594 497 594 1153 
L 594 3053 
L 172 3053 
L 172 3500 
L 594 3500 
L 594 4494 
L 1172 4494 
z
" transform="scale(0.015625)"/>
     <path id="DejaVuSans-69" d="M 603 3500 
L 1178 3500 
L 1178 0 
L 603 0 
L 603 3500 
z
M 603 4863 
L 1178 4863 
L 1178 4134 
L 603 4134 
L 603 4863 
z
" transform="scale(0.015625)"/>
     <path id="DejaVuSans-20" transform="scale(0.015625)"/>
     <path id="DejaVuSans-28" d="M 1984 4856 
Q 1566 4138 1362 3434 
Q 1159 2731 1159 2009 
Q 1159 1288 1364 580 
Q 1569 -128 1984 -844 
L 1484 -844 
Q 1016 -109 783 600 
Q 550 1309 550 2009 
Q 550 2706 781 3412 
Q 1013 4119 1484 4856 
L 1984 4856 
z
" transform="scale(0.015625)"/>
     <path id="DejaVuSans-2e" d="M 684 794 
L 1344 794 
L 1344 0 
L 684 0 
L 684 794 
z
" transform="scale(0.015625)"/>
     <path id="DejaVuSans-75" d="M 544 1381 
L 544 3500 
L 1119 3500 
L 1119 1403 
Q 1119 906 1312 657 
Q 1506 409 1894 409 
Q 2359 409 2629 706 
Q 2900 1003 2900 1516 
L 2900 3500 
L 3475 3500 
L 3475 0 
L 2900 0 
L 2900 538 
Q 2691 219 2414 64 
Q 2138 -91 1772 -91 
Q 1169 -91 856 284 
Q 544 659 544 1381 
z
M 1991 3584 
L 1991 3584 
z
" transform="scale(0.015625)"/>
     <path id="DejaVuSans-29" d="M 513 4856 
L 1013 4856 
Q 1481 4119 1714 3412 
Q 1947 2706 1947 2009 
Q 1947 1309 1714 600 
Q 1481 -109 1013 -844 
L 513 -844 
Q 928 -128 1133 580 
Q 1338 1288 1338 2009 
Q 1338 2731 1133 3434 
Q 928 4138 513 4856 
z
" transform="scale(0.015625)"/>
    </defs>
    <use xlink:href="#DejaVuSans-61"/>
    <use xlink:href="#DejaVuSans-63" transform="translate(61.279297 0)"/>
    <use xlink:href="#DejaVuSans-74" transform="translate(116.259766 0)"/>
    <use xlink:href="#DejaVuSans-69" transform="translate(155.46875 0)"/>
    <use xlink:href="#DejaVuSans-76" transform="translate(183.251953 0)"/>
    <use xlink:href="#DejaVuSans-61" transform="translate(242.431641 0)"/>
    <use xlink:href="#DejaVuSans-74" transform="translate(303.710938 0)"/>
    <use xlink:href="#DejaVuSans-69" transform="translate(342.919922 0)"/>
    <use xlink:href="#DejaVuSans-6f" transform="translate(370.703125 0)"/>
    <use xlink:href="#DejaVuSans-6e" transform="translate(431.884766 0)"/>
    <use xlink:href="#DejaVuSans-20" transform="translate(495.263672 0)"/>
    <use xlink:href="#DejaVuSans-28" transform="translate(527.050781 0)"/>
    <use xlink:href="#DejaVuSans-61" transform="translate(566.064453 0)"/>
    <use xlink:href="#DejaVuSans-2e" transform="translate(627.34375 0)"/>
    <use xlink:href="#DejaVuSans-75" transform="translate(659.130859 0)"/>
    <use xlink:href="#DejaVuSans-2e" transform="translate(722.509766 0)"/>
    <use xlink:href="#DejaVuSans-29" transform="translate(754.296875 0)"/>
   </g>
  </g>
  <g id="text_39">
   <!-- time relative to cue presentation onset (s) -->
   <g transform="translate(156.811875 214.224375) scale(0.12 -0.12)">
    <defs>
     <path id="DejaVuSans-6d" d="M 3328 2828 
Q 3544 3216 3844 3400 
Q 4144 3584 4550 3584 
Q 5097 3584 5394 3201 
Q 5691 2819 5691 2113 
L 5691 0 
L 5113 0 
L 5113 2094 
Q 5113 2597 4934 2840 
Q 4756 3084 4391 3084 
Q 3944 3084 3684 2787 
Q 3425 2491 3425 1978 
L 3425 0 
L 2847 0 
L 2847 2094 
Q 2847 2600 2669 2842 
Q 2491 3084 2119 3084 
Q 1678 3084 1418 2786 
Q 1159 2488 1159 1978 
L 1159 0 
L 581 0 
L 581 3500 
L 1159 3500 
L 1159 2956 
Q 1356 3278 1631 3431 
Q 1906 3584 2284 3584 
Q 2666 3584 2933 3390 
Q 3200 3197 3328 2828 
z
" transform="scale(0.015625)"/>
     <path id="DejaVuSans-65" d="M 3597 1894 
L 3597 1613 
L 953 1613 
Q 991 1019 1311 708 
Q 1631 397 2203 397 
Q 2534 397 2845 478 
Q 3156 559 3463 722 
L 3463 178 
Q 3153 47 2828 -22 
Q 2503 -91 2169 -91 
Q 1331 -91 842 396 
Q 353 884 353 1716 
Q 353 2575 817 3079 
Q 1281 3584 2069 3584 
Q 2775 3584 3186 3129 
Q 3597 2675 3597 1894 
z
M 3022 2063 
Q 3016 2534 2758 2815 
Q 2500 3097 2075 3097 
Q 1594 3097 1305 2825 
Q 1016 2553 972 2059 
L 3022 2063 
z
" transform="scale(0.015625)"/>
     <path id="DejaVuSans-72" d="M 2631 2963 
Q 2534 3019 2420 3045 
Q 2306 3072 2169 3072 
Q 1681 3072 1420 2755 
Q 1159 2438 1159 1844 
L 1159 0 
L 581 0 
L 581 3500 
L 1159 3500 
L 1159 2956 
Q 1341 3275 1631 3429 
Q 1922 3584 2338 3584 
Q 2397 3584 2469 3576 
Q 2541 3569 2628 3553 
L 2631 2963 
z
" transform="scale(0.015625)"/>
     <path id="DejaVuSans-6c" d="M 603 4863 
L 1178 4863 
L 1178 0 
L 603 0 
L 603 4863 
z
" transform="scale(0.015625)"/>
     <path id="DejaVuSans-73" d="M 2834 3397 
L 2834 2853 
Q 2591 2978 2328 3040 
Q 2066 3103 1784 3103 
Q 1356 3103 1142 2972 
Q 928 2841 928 2578 
Q 928 2378 1081 2264 
Q 1234 2150 1697 2047 
L 1894 2003 
Q 2506 1872 2764 1633 
Q 3022 1394 3022 966 
Q 3022 478 2636 193 
Q 2250 -91 1575 -91 
Q 1294 -91 989 -36 
Q 684 19 347 128 
L 347 722 
Q 666 556 975 473 
Q 1284 391 1588 391 
Q 1994 391 2212 530 
Q 2431 669 2431 922 
Q 2431 1156 2273 1281 
Q 2116 1406 1581 1522 
L 1381 1569 
Q 847 1681 609 1914 
Q 372 2147 372 2553 
Q 372 3047 722 3315 
Q 1072 3584 1716 3584 
Q 2034 3584 2315 3537 
Q 2597 3491 2834 3397 
z
" transform="scale(0.015625)"/>
    </defs>
    <use xlink:href="#DejaVuSans-74"/>
    <use xlink:href="#DejaVuSans-69" transform="translate(39.208984 0)"/>
    <use xlink:href="#DejaVuSans-6d" transform="translate(66.992188 0)"/>
    <use xlink:href="#DejaVuSans-65" transform="translate(164.404297 0)"/>
    <use xlink:href="#DejaVuSans-20" transform="translate(225.927734 0)"/>
    <use xlink:href="#DejaVuSans-72" transform="translate(257.714844 0)"/>
    <use xlink:href="#DejaVuSans-65" transform="translate(296.578125 0)"/>
    <use xlink:href="#DejaVuSans-6c" transform="translate(358.101562 0)"/>
    <use xlink:href="#DejaVuSans-61" transform="translate(385.884766 0)"/>
    <use xlink:href="#DejaVuSans-74" transform="translate(447.164062 0)"/>
    <use xlink:href="#DejaVuSans-69" transform="translate(486.373047 0)"/>
    <use xlink:href="#DejaVuSans-76" transform="translate(514.15625 0)"/>
    <use xlink:href="#DejaVuSans-65" transform="translate(573.335938 0)"/>
    <use xlink:href="#DejaVuSans-20" transform="translate(634.859375 0)"/>
    <use xlink:href="#DejaVuSans-74" transform="translate(666.646484 0)"/>
    <use xlink:href="#DejaVuSans-6f" transform="translate(705.855469 0)"/>
    <use xlink:href="#DejaVuSans-20" transform="translate(767.037109 0)"/>
    <use xlink:href="#DejaVuSans-63" transform="translate(798.824219 0)"/>
    <use xlink:href="#DejaVuSans-75" transform="translate(853.804688 0)"/>
    <use xlink:href="#DejaVuSans-65" transform="translate(917.183594 0)"/>
    <use xlink:href="#DejaVuSans-20" transform="translate(978.707031 0)"/>
    <use xlink:href="#DejaVuSans-70" transform="translate(1010.494141 0)"/>
    <use xlink:href="#DejaVuSans-72" transform="translate(1073.970703 0)"/>
    <use xlink:href="#DejaVuSans-65" transform="translate(1112.833984 0)"/>
    <use xlink:href="#DejaVuSans-73" transform="translate(1174.357422 0)"/>
    <use xlink:href="#DejaVuSans-65" transform="translate(1226.457031 0)"/>
    <use xlink:href="#DejaVuSans-6e" transform="translate(1287.980469 0)"/>
    <use xlink:href="#DejaVuSans-74" transform="translate(1351.359375 0)"/>
    <use xlink:href="#DejaVuSans-61" transform="translate(1390.568359 0)"/>
    <use xlink:href="#DejaVuSans-74" transform="translate(1451.847656 0)"/>
    <use xlink:href="#DejaVuSans-69" transform="translate(1491.056641 0)"/>
    <use xlink:href="#DejaVuSans-6f" transform="translate(1518.839844 0)"/>
    <use xlink:href="#DejaVuSans-6e" transform="translate(1580.021484 0)"/>
    <use xlink:href="#DejaVuSans-20" transform="translate(1643.400391 0)"/>
    <use xlink:href="#DejaVuSans-6f" transform="translate(1675.1875 0)"/>
    <use xlink:href="#DejaVuSans-6e" transform="translate(1736.369141 0)"/>
    <use xlink:href="#DejaVuSans-73" transform="translate(1799.748047 0)"/>
    <use xlink:href="#DejaVuSans-65" transform="translate(1851.847656 0)"/>
    <use xlink:href="#DejaVuSans-74" transform="translate(1913.371094 0)"/>
    <use xlink:href="#DejaVuSans-20" transform="translate(1952.580078 0)"/>
    <use xlink:href="#DejaVuSans-28" transform="translate(1984.367188 0)"/>
    <use xlink:href="#DejaVuSans-73" transform="translate(2023.380859 0)"/>
    <use xlink:href="#DejaVuSans-29" transform="translate(2075.480469 0)"/>
   </g>
  </g>
  <g id="text_40">
   <!-- Average BOLD timeseries -->
   <g transform="translate(207.205312 16.318125) scale(0.12 -0.12)">
    <defs>
     <path id="DejaVuSans-42" d="M 1259 2228 
L 1259 519 
L 2272 519 
Q 2781 519 3026 730 
Q 3272 941 3272 1375 
Q 3272 1813 3026 2020 
Q 2781 2228 2272 2228 
L 1259 2228 
z
M 1259 4147 
L 1259 2741 
L 2194 2741 
Q 2656 2741 2882 2914 
Q 3109 3088 3109 3444 
Q 3109 3797 2882 3972 
Q 2656 4147 2194 4147 
L 1259 4147 
z
M 628 4666 
L 2241 4666 
Q 2963 4666 3353 4366 
Q 3744 4066 3744 3513 
Q 3744 3084 3544 2831 
Q 3344 2578 2956 2516 
Q 3422 2416 3680 2098 
Q 3938 1781 3938 1306 
Q 3938 681 3513 340 
Q 3088 0 2303 0 
L 628 0 
L 628 4666 
z
" transform="scale(0.015625)"/>
     <path id="DejaVuSans-4f" d="M 2522 4238 
Q 1834 4238 1429 3725 
Q 1025 3213 1025 2328 
Q 1025 1447 1429 934 
Q 1834 422 2522 422 
Q 3209 422 3611 934 
Q 4013 1447 4013 2328 
Q 4013 3213 3611 3725 
Q 3209 4238 2522 4238 
z
M 2522 4750 
Q 3503 4750 4090 4092 
Q 4678 3434 4678 2328 
Q 4678 1225 4090 567 
Q 3503 -91 2522 -91 
Q 1538 -91 948 565 
Q 359 1222 359 2328 
Q 359 3434 948 4092 
Q 1538 4750 2522 4750 
z
" transform="scale(0.015625)"/>
     <path id="DejaVuSans-44" d="M 1259 4147 
L 1259 519 
L 2022 519 
Q 2988 519 3436 956 
Q 3884 1394 3884 2338 
Q 3884 3275 3436 3711 
Q 2988 4147 2022 4147 
L 1259 4147 
z
M 628 4666 
L 1925 4666 
Q 3281 4666 3915 4102 
Q 4550 3538 4550 2338 
Q 4550 1131 3912 565 
Q 3275 0 1925 0 
L 628 0 
L 628 4666 
z
" transform="scale(0.015625)"/>
    </defs>
    <use xlink:href="#DejaVuSans-41"/>
    <use xlink:href="#DejaVuSans-76" transform="translate(62.533203 0)"/>
    <use xlink:href="#DejaVuSans-65" transform="translate(121.712891 0)"/>
    <use xlink:href="#DejaVuSans-72" transform="translate(183.236328 0)"/>
    <use xlink:href="#DejaVuSans-61" transform="translate(224.349609 0)"/>
    <use xlink:href="#DejaVuSans-67" transform="translate(285.628906 0)"/>
    <use xlink:href="#DejaVuSans-65" transform="translate(349.105469 0)"/>
    <use xlink:href="#DejaVuSans-20" transform="translate(410.628906 0)"/>
    <use xlink:href="#DejaVuSans-42" transform="translate(442.416016 0)"/>
    <use xlink:href="#DejaVuSans-4f" transform="translate(509.269531 0)"/>
    <use xlink:href="#DejaVuSans-4c" transform="translate(587.980469 0)"/>
    <use xlink:href="#DejaVuSans-44" transform="translate(643.693359 0)"/>
    <use xlink:href="#DejaVuSans-20" transform="translate(720.695312 0)"/>
    <use xlink:href="#DejaVuSans-74" transform="translate(752.482422 0)"/>
    <use xlink:href="#DejaVuSans-69" transform="translate(791.691406 0)"/>
    <use xlink:href="#DejaVuSans-6d" transform="translate(819.474609 0)"/>
    <use xlink:href="#DejaVuSans-65" transform="translate(916.886719 0)"/>
    <use xlink:href="#DejaVuSans-73" transform="translate(978.410156 0)"/>
    <use xlink:href="#DejaVuSans-65" transform="translate(1030.509766 0)"/>
    <use xlink:href="#DejaVuSans-72" transform="translate(1092.033203 0)"/>
    <use xlink:href="#DejaVuSans-69" transform="translate(1133.146484 0)"/>
    <use xlink:href="#DejaVuSans-65" transform="translate(1160.929688 0)"/>
    <use xlink:href="#DejaVuSans-73" transform="translate(1222.453125 0)"/>
   </g>
  </g>
 </g>
 <defs>
  <clipPath id="pdb1dae7fe5">
   <rect x="52" y="53.52" width="45.208923" height="113.72"/>
  </clipPath>
  <clipPath id="p5182aa7d54">
   <rect x="115.604348" y="53.52" width="45.208923" height="113.72"/>
  </clipPath>
  <clipPath id="pac14c7c490">
   <rect x="179.208697" y="53.52" width="45.208923" height="113.72"/>
  </clipPath>
  <clipPath id="pefc9570e92">
   <rect x="242.813045" y="53.52" width="45.208923" height="113.72"/>
  </clipPath>
  <clipPath id="p3d7a6eec58">
   <rect x="306.417394" y="53.52" width="45.208923" height="113.72"/>
  </clipPath>
  <clipPath id="pf3d4293b7b">
   <rect x="370.021742" y="53.52" width="45.208923" height="113.72"/>
  </clipPath>
  <clipPath id="p9516931a36">
   <rect x="433.62609" y="53.52" width="45.208923" height="113.72"/>
  </clipPath>
  <clipPath id="pc7a78eb52d">
   <rect x="497.230439" y="53.52" width="45.208923" height="113.72"/>
  </clipPath>
 </defs>
</svg>
