<?xml version="1.0" encoding="utf-8" standalone="no"?>
<!DOCTYPE svg PUBLIC "-//W3C//DTD SVG 1.1//EN"
  "http://www.w3.org/Graphics/SVG/1.1/DTD/svg11.dtd">
<svg xmlns:xlink="http://www.w3.org/1999/xlink" width="720pt" height="216pt" viewBox="0 0 720 216" xmlns="http://www.w3.org/2000/svg" version="1.1">
 <metadata>
  <rdf:RDF xmlns:dc="http://purl.org/dc/elements/1.1/" xmlns:cc="http://creativecommons.org/ns#" xmlns:rdf="http://www.w3.org/1999/02/22-rdf-syntax-ns#">
   <cc:Work>
    <dc:type rdf:resource="http://purl.org/dc/dcmitype/StillImage"/>
    <dc:date>2025-08-02T11:44:59.476737</dc:date>
    <dc:format>image/svg+xml</dc:format>
    <dc:creator>
     <cc:Agent>
      <dc:title>Matplotlib v3.10.1, https://matplotlib.org/</dc:title>
     </cc:Agent>
    </dc:creator>
   </cc:Work>
  </rdf:RDF>
 </metadata>
 <defs>
  <style type="text/css">*{stroke-linejoin: round; stroke-linecap: butt}</style>
 </defs>
 <g id="figure_1">
  <g id="patch_1">
   <path d="M 0 216 
L 720 216 
L 720 0 
L 0 0 
z
" style="fill: #ffffff"/>
  </g>
  <g id="axes_1">
   <g id="patch_2">
    <path d="M 57.6 172.8 
L 120.408511 172.8 
L 120.408511 43.2 
L 57.6 43.2 
z
" style="fill: #ffffff"/>
   </g>
   <g id="FillBetweenPolyCollection_1">
    <defs>
     <path id="m922327496c" d="M 16.532897 -119.444175 
L 16.532897 -90.4019 
L 21.364321 -82.714931 
L 26.195745 -78.625575 
L 31.027169 -73.116102 
L 35.858592 -81.131728 
L 40.690016 -91.415453 
L 45.52144 -106.146439 
L 50.352864 -109.399872 
L 55.184288 -99.341079 
L 60.015712 -91.945508 
L 64.847136 -87.510572 
L 69.67856 -79.861609 
L 74.509984 -73.06138 
L 79.341408 -71.958578 
L 84.172831 -93.662425 
L 89.004255 -109.733908 
L 93.835679 -124.014673 
L 98.667103 -114.026398 
L 103.498527 -99.070568 
L 108.329951 -94.3723 
L 113.161375 -84.508597 
L 117.992799 -79.101242 
L 122.824223 -71.74224 
L 127.655646 -79.481648 
L 132.48707 -91.285929 
L 137.318494 -101.849966 
L 142.149918 -104.730927 
L 146.981342 -96.563563 
L 151.812766 -89.052607 
L 156.64419 -84.674008 
L 161.475614 -77.977668 
L 161.475614 -105.532823 
L 161.475614 -105.532823 
L 156.64419 -112.222004 
L 151.812766 -116.680561 
L 146.981342 -123.446459 
L 142.149918 -132.213457 
L 137.318494 -127.453116 
L 132.48707 -116.277394 
L 127.655646 -104.960946 
L 122.824223 -98.299118 
L 117.992799 -106.111526 
L 113.161375 -113.594732 
L 108.329951 -122.943351 
L 103.498527 -130.765909 
L 98.667103 -145.822216 
L 93.835679 -151.377942 
L 89.004255 -136.901164 
L 84.172831 -119.203859 
L 79.341408 -99.692418 
L 74.509984 -100.724027 
L 69.67856 -109.190614 
L 64.847136 -116.858331 
L 60.015712 -122.501856 
L 55.184288 -128.659384 
L 50.352864 -137.704815 
L 45.52144 -134.533083 
L 40.690016 -119.27953 
L 35.858592 -107.021256 
L 31.027169 -100.604699 
L 26.195745 -106.763934 
L 21.364321 -112.206784 
L 16.532897 -119.444175 
z
"/>
    </defs>
    <g clip-path="url(#p66feaa19df)">
     <use xlink:href="#m922327496c" x="0" y="216" style="fill: #ff7f7f; fill-opacity: 0.2"/>
    </g>
   </g>
   <g id="FillBetweenPolyCollection_2">
    <defs>
     <path id="m6b68e4535e" d="M 16.532897 -116.579217 
L 16.532897 -87.18016 
L 21.364321 -82.253222 
L 26.195745 -77.006688 
L 31.027169 -70.043564 
L 35.858592 -80.568271 
L 40.690016 -94.788034 
L 45.52144 -109.59612 
L 50.352864 -110.764335 
L 55.184288 -100.351276 
L 60.015712 -93.158465 
L 64.847136 -88.063016 
L 69.67856 -80.560958 
L 74.509984 -76.335103 
L 79.341408 -79.219956 
L 84.172831 -84.305919 
L 89.004255 -90.934629 
L 93.835679 -95.948836 
L 98.667103 -101.584419 
L 103.498527 -96.728758 
L 108.329951 -91.476336 
L 113.161375 -88.594718 
L 117.992799 -81.936459 
L 122.824223 -77.431597 
L 127.655646 -86.147805 
L 132.48707 -97.706346 
L 137.318494 -109.677337 
L 142.149918 -114.924573 
L 146.981342 -105.040344 
L 151.812766 -99.377628 
L 156.64419 -95.408873 
L 161.475614 -89.543791 
L 161.475614 -117.280515 
L 161.475614 -117.280515 
L 156.64419 -124.173666 
L 151.812766 -129.656473 
L 146.981342 -137.15969 
L 142.149918 -144.308332 
L 137.318494 -137.431795 
L 132.48707 -125.829196 
L 127.655646 -110.836822 
L 122.824223 -103.69549 
L 117.992799 -110.667098 
L 113.161375 -116.703208 
L 108.329951 -120.893191 
L 103.498527 -123.977511 
L 98.667103 -126.002403 
L 93.835679 -119.885203 
L 89.004255 -113.488577 
L 84.172831 -107.158039 
L 79.341408 -101.895883 
L 74.509984 -103.136193 
L 69.67856 -108.119372 
L 64.847136 -116.094583 
L 60.015712 -123.67792 
L 55.184288 -130.658087 
L 50.352864 -140.858831 
L 45.52144 -138.851866 
L 40.690016 -121.580296 
L 35.858592 -107.421499 
L 31.027169 -97.327948 
L 26.195745 -104.393726 
L 21.364321 -110.565748 
L 16.532897 -116.579217 
z
"/>
    </defs>
    <g clip-path="url(#p66feaa19df)">
     <use xlink:href="#m6b68e4535e" x="0" y="216" style="fill: #000080; fill-opacity: 0.2"/>
    </g>
   </g>
   <g id="matplotlib.axis_1">
    <g id="xtick_1">
     <g id="line2d_1">
      <defs>
       <path id="m1af3cc3362" d="M 0 0 
L 0 3.5 
" style="stroke: #000000; stroke-width: 0.8"/>
      </defs>
      <g>
       <use xlink:href="#m1af3cc3362" x="62.431424" y="172.8" style="stroke: #000000; stroke-width: 0.8"/>
      </g>
     </g>
     <g id="text_1">
      <!-- 0 -->
      <g transform="translate(59.250174 187.398438) scale(0.1 -0.1)">
       <defs>
        <path id="DejaVuSans-30" d="M 2034 4250 
Q 1547 4250 1301 3770 
Q 1056 3291 1056 2328 
Q 1056 1369 1301 889 
Q 1547 409 2034 409 
Q 2525 409 2770 889 
Q 3016 1369 3016 2328 
Q 3016 3291 2770 3770 
Q 2525 4250 2034 4250 
z
M 2034 4750 
Q 2819 4750 3233 4129 
Q 3647 3509 3647 2328 
Q 3647 1150 3233 529 
Q 2819 -91 2034 -91 
Q 1250 -91 836 529 
Q 422 1150 422 2328 
Q 422 3509 836 4129 
Q 1250 4750 2034 4750 
z
" transform="scale(0.015625)"/>
       </defs>
       <use xlink:href="#DejaVuSans-30"/>
      </g>
     </g>
    </g>
    <g id="xtick_2">
     <g id="line2d_2">
      <g>
       <use xlink:href="#m1af3cc3362" x="91.419967" y="172.8" style="stroke: #000000; stroke-width: 0.8"/>
      </g>
     </g>
     <g id="text_2">
      <!-- 6 -->
      <g transform="translate(88.238717 187.398438) scale(0.1 -0.1)">
       <defs>
        <path id="DejaVuSans-36" d="M 2113 2584 
Q 1688 2584 1439 2293 
Q 1191 2003 1191 1497 
Q 1191 994 1439 701 
Q 1688 409 2113 409 
Q 2538 409 2786 701 
Q 3034 994 3034 1497 
Q 3034 2003 2786 2293 
Q 2538 2584 2113 2584 
z
M 3366 4563 
L 3366 3988 
Q 3128 4100 2886 4159 
Q 2644 4219 2406 4219 
Q 1781 4219 1451 3797 
Q 1122 3375 1075 2522 
Q 1259 2794 1537 2939 
Q 1816 3084 2150 3084 
Q 2853 3084 3261 2657 
Q 3669 2231 3669 1497 
Q 3669 778 3244 343 
Q 2819 -91 2113 -91 
Q 1303 -91 875 529 
Q 447 1150 447 2328 
Q 447 3434 972 4092 
Q 1497 4750 2381 4750 
Q 2619 4750 2861 4703 
Q 3103 4656 3366 4563 
z
" transform="scale(0.015625)"/>
       </defs>
       <use xlink:href="#DejaVuSans-36"/>
      </g>
     </g>
    </g>
    <g id="xtick_3">
     <g id="line2d_3">
      <g>
       <use xlink:href="#m1af3cc3362" x="120.408511" y="172.8" style="stroke: #000000; stroke-width: 0.8"/>
      </g>
     </g>
     <g id="text_3">
      <!-- 12 -->
      <g transform="translate(114.046011 187.398438) scale(0.1 -0.1)">
       <defs>
        <path id="DejaVuSans-31" d="M 794 531 
L 1825 531 
L 1825 4091 
L 703 3866 
L 703 4441 
L 1819 4666 
L 2450 4666 
L 2450 531 
L 3481 531 
L 3481 0 
L 794 0 
L 794 531 
z
" transform="scale(0.015625)"/>
        <path id="DejaVuSans-32" d="M 1228 531 
L 3431 531 
L 3431 0 
L 469 0 
L 469 531 
Q 828 903 1448 1529 
Q 2069 2156 2228 2338 
Q 2531 2678 2651 2914 
Q 2772 3150 2772 3378 
Q 2772 3750 2511 3984 
Q 2250 4219 1831 4219 
Q 1534 4219 1204 4116 
Q 875 4013 500 3803 
L 500 4441 
Q 881 4594 1212 4672 
Q 1544 4750 1819 4750 
Q 2544 4750 2975 4387 
Q 3406 4025 3406 3419 
Q 3406 3131 3298 2873 
Q 3191 2616 2906 2266 
Q 2828 2175 2409 1742 
Q 1991 1309 1228 531 
z
" transform="scale(0.015625)"/>
       </defs>
       <use xlink:href="#DejaVuSans-31"/>
       <use xlink:href="#DejaVuSans-32" transform="translate(63.623047 0)"/>
      </g>
     </g>
    </g>
   </g>
   <g id="matplotlib.axis_2">
    <g id="ytick_1">
     <g id="line2d_4">
      <defs>
       <path id="m5252b707c1" d="M 0 0 
L -3.5 0 
" style="stroke: #000000; stroke-width: 0.8"/>
      </defs>
      <g>
       <use xlink:href="#m5252b707c1" x="57.6" y="153.163636" style="stroke: #000000; stroke-width: 0.8"/>
      </g>
     </g>
     <g id="text_4">
      <!-- −2 -->
      <g transform="translate(35.857813 156.962855) scale(0.1 -0.1)">
       <defs>
        <path id="DejaVuSans-2212" d="M 678 2272 
L 4684 2272 
L 4684 1741 
L 678 1741 
L 678 2272 
z
" transform="scale(0.015625)"/>
       </defs>
       <use xlink:href="#DejaVuSans-2212"/>
       <use xlink:href="#DejaVuSans-32" transform="translate(83.789062 0)"/>
      </g>
     </g>
    </g>
    <g id="ytick_2">
     <g id="line2d_5">
      <g>
       <use xlink:href="#m5252b707c1" x="57.6" y="113.890909" style="stroke: #000000; stroke-width: 0.8"/>
      </g>
     </g>
     <g id="text_5">
      <!-- 0 -->
      <g transform="translate(44.2375 117.690128) scale(0.1 -0.1)">
       <use xlink:href="#DejaVuSans-30"/>
      </g>
     </g>
    </g>
    <g id="ytick_3">
     <g id="line2d_6">
      <g>
       <use xlink:href="#m5252b707c1" x="57.6" y="74.618182" style="stroke: #000000; stroke-width: 0.8"/>
      </g>
     </g>
     <g id="text_6">
      <!-- 2 -->
      <g transform="translate(44.2375 78.417401) scale(0.1 -0.1)">
       <use xlink:href="#DejaVuSans-32"/>
      </g>
     </g>
    </g>
   </g>
   <g id="line2d_7">
    <path d="M 16.532897 111.076962 
L 21.364321 118.539143 
L 26.195745 123.305246 
L 31.027169 129.1396 
L 35.858592 121.923508 
L 40.690016 110.652509 
L 45.52144 95.660239 
L 50.352864 92.447656 
L 55.184288 101.999769 
L 60.015712 108.776318 
L 64.847136 113.815549 
L 69.67856 121.473889 
L 74.509984 129.107297 
L 79.341408 130.174502 
L 84.172831 109.566858 
L 89.004255 92.682464 
L 93.835679 78.303692 
L 98.667103 86.075693 
L 103.498527 101.081762 
L 108.329951 107.342175 
L 113.161375 116.948336 
L 117.992799 123.393616 
L 122.824223 130.979321 
L 127.655646 123.778703 
L 132.48707 112.218338 
L 137.318494 101.348459 
L 142.149918 97.527808 
L 146.981342 105.994989 
L 151.812766 113.133416 
L 156.64419 117.551994 
L 161.475614 124.244755 
" clip-path="url(#p66feaa19df)" style="fill: none; stroke: #ff7f7f; stroke-width: 1.5; stroke-linecap: square"/>
   </g>
   <g id="line2d_8">
    <path d="M 16.532897 114.120311 
L 21.364321 119.590515 
L 26.195745 125.299793 
L 31.027169 132.314244 
L 35.858592 122.005115 
L 40.690016 107.815835 
L 45.52144 91.776007 
L 50.352864 90.188417 
L 55.184288 100.495319 
L 60.015712 107.581808 
L 64.847136 113.921201 
L 69.67856 121.659835 
L 74.509984 126.264352 
L 79.341408 125.442081 
L 84.172831 120.268021 
L 89.004255 113.788397 
L 93.835679 108.082981 
L 98.667103 102.206589 
L 103.498527 105.646866 
L 108.329951 109.815236 
L 113.161375 113.351037 
L 117.992799 119.698222 
L 122.824223 125.436457 
L 127.655646 117.507686 
L 132.48707 104.232229 
L 137.318494 92.445434 
L 142.149918 86.383547 
L 146.981342 94.899983 
L 151.812766 101.482949 
L 156.64419 106.208731 
L 161.475614 112.587847 
" clip-path="url(#p66feaa19df)" style="fill: none; stroke: #000080; stroke-width: 1.5; stroke-linecap: square"/>
   </g>
   <g id="line2d_9">
    <path d="M 62.431424 172.8 
L 62.431424 43.2 
" clip-path="url(#p66feaa19df)" style="fill: none; stroke: #000000; stroke-width: 0.8; stroke-linecap: square"/>
   </g>
   <g id="line2d_10">
    <path d="M 74.509984 172.8 
L 74.509984 43.2 
" clip-path="url(#p66feaa19df)" style="fill: none; stroke-dasharray: 2.96,1.28; stroke-dashoffset: 0; stroke: #000000; stroke-width: 0.8"/>
   </g>
   <g id="line2d_11">
    <path d="M 57.6 113.890909 
L 120.408511 113.890909 
" clip-path="url(#p66feaa19df)" style="fill: none; stroke: #000000; stroke-width: 0.8; stroke-linecap: square"/>
   </g>
   <g id="patch_3">
    <path d="M 57.6 153.163636 
L 57.6 74.618182 
" style="fill: none; stroke: #000000; stroke-width: 0.8; stroke-linejoin: miter; stroke-linecap: square"/>
   </g>
   <g id="patch_4">
    <path d="M 62.431424 172.8 
L 120.408511 172.8 
" style="fill: none; stroke: #000000; stroke-width: 0.8; stroke-linejoin: miter; stroke-linecap: square"/>
   </g>
   <g id="text_7">
    <!-- SMA -->
    <g transform="translate(75.913943 37.2) scale(0.12 -0.12)">
     <defs>
      <path id="DejaVuSans-53" d="M 3425 4513 
L 3425 3897 
Q 3066 4069 2747 4153 
Q 2428 4238 2131 4238 
Q 1616 4238 1336 4038 
Q 1056 3838 1056 3469 
Q 1056 3159 1242 3001 
Q 1428 2844 1947 2747 
L 2328 2669 
Q 3034 2534 3370 2195 
Q 3706 1856 3706 1288 
Q 3706 609 3251 259 
Q 2797 -91 1919 -91 
Q 1588 -91 1214 -16 
Q 841 59 441 206 
L 441 856 
Q 825 641 1194 531 
Q 1563 422 1919 422 
Q 2459 422 2753 634 
Q 3047 847 3047 1241 
Q 3047 1584 2836 1778 
Q 2625 1972 2144 2069 
L 1759 2144 
Q 1053 2284 737 2584 
Q 422 2884 422 3419 
Q 422 4038 858 4394 
Q 1294 4750 2059 4750 
Q 2388 4750 2728 4690 
Q 3069 4631 3425 4513 
z
" transform="scale(0.015625)"/>
      <path id="DejaVuSans-4d" d="M 628 4666 
L 1569 4666 
L 2759 1491 
L 3956 4666 
L 4897 4666 
L 4897 0 
L 4281 0 
L 4281 4097 
L 3078 897 
L 2444 897 
L 1241 4097 
L 1241 0 
L 628 0 
L 628 4666 
z
" transform="scale(0.015625)"/>
      <path id="DejaVuSans-41" d="M 2188 4044 
L 1331 1722 
L 3047 1722 
L 2188 4044 
z
M 1831 4666 
L 2547 4666 
L 4325 0 
L 3669 0 
L 3244 1197 
L 1141 1197 
L 716 0 
L 50 0 
L 1831 4666 
z
" transform="scale(0.015625)"/>
     </defs>
     <use xlink:href="#DejaVuSans-53"/>
     <use xlink:href="#DejaVuSans-4d" transform="translate(63.476562 0)"/>
     <use xlink:href="#DejaVuSans-41" transform="translate(149.755859 0)"/>
    </g>
   </g>
  </g>
  <g id="axes_2">
   <g id="patch_5">
    <path d="M 132.970213 172.8 
L 195.778723 172.8 
L 195.778723 43.2 
L 132.970213 43.2 
z
" style="fill: #ffffff"/>
   </g>
   <g id="FillBetweenPolyCollection_3">
    <defs>
     <path id="me99854c87a" d="M 91.90311 -118.281902 
L 91.90311 -86.582027 
L 96.734534 -80.005065 
L 101.565957 -76.580118 
L 106.397381 -67.591502 
L 111.228805 -81.572161 
L 116.060229 -94.210174 
L 120.891653 -109.770466 
L 125.723077 -110.393601 
L 130.554501 -97.113912 
L 135.385925 -89.254784 
L 140.217349 -83.465702 
L 145.048773 -77.390972 
L 149.880196 -68.176777 
L 154.71162 -68.464828 
L 159.543044 -98.90393 
L 164.374468 -118.966544 
L 169.205892 -130.700326 
L 174.037316 -119.501207 
L 178.86874 -100.611859 
L 183.700164 -93.609319 
L 188.531588 -85.125764 
L 193.363011 -79.140026 
L 198.194435 -69.221497 
L 203.025859 -81.046415 
L 207.857283 -95.530257 
L 212.688707 -105.822235 
L 217.520131 -107.465262 
L 222.351555 -96.480308 
L 227.182979 -86.540444 
L 232.014403 -81.731538 
L 236.845827 -76.777781 
L 236.845827 -105.625323 
L 236.845827 -105.625323 
L 232.014403 -112.015247 
L 227.182979 -117.681352 
L 222.351555 -126.462319 
L 217.520131 -137.202833 
L 212.688707 -134.359785 
L 207.857283 -123.322662 
L 203.025859 -109.988831 
L 198.194435 -98.659601 
L 193.363011 -108.145668 
L 188.531588 -115.570144 
L 183.700164 -124.585529 
L 178.86874 -134.46421 
L 174.037316 -153.29378 
L 169.205892 -160.301786 
L 164.374468 -148.438848 
L 159.543044 -127.729967 
L 154.71162 -101.243742 
L 149.880196 -98.501006 
L 145.048773 -108.552242 
L 140.217349 -115.44226 
L 135.385925 -121.954879 
L 130.554501 -130.549404 
L 125.723077 -142.336343 
L 120.891653 -140.850678 
L 116.060229 -125.783408 
L 111.228805 -110.8307 
L 106.397381 -98.157509 
L 101.565957 -105.506063 
L 96.734534 -112.042443 
L 91.90311 -118.281902 
z
"/>
    </defs>
    <g clip-path="url(#pd07c6d0281)">
     <use xlink:href="#me99854c87a" x="0" y="216" style="fill: #ff7f7f; fill-opacity: 0.2"/>
    </g>
   </g>
   <g id="FillBetweenPolyCollection_4">
    <defs>
     <path id="m18d504b32b" d="M 91.90311 -117.429735 
L 91.90311 -85.47188 
L 96.734534 -80.122391 
L 101.565957 -75.546731 
L 106.397381 -67.181055 
L 111.228805 -82.162668 
L 116.060229 -101.208379 
L 120.891653 -114.925166 
L 125.723077 -115.50394 
L 130.554501 -102.401021 
L 135.385925 -92.665093 
L 140.217349 -86.691375 
L 145.048773 -79.361089 
L 149.880196 -76.887101 
L 154.71162 -78.900589 
L 159.543044 -86.33191 
L 164.374468 -92.846638 
L 169.205892 -97.856193 
L 174.037316 -98.405529 
L 178.86874 -93.585654 
L 183.700164 -88.027734 
L 188.531588 -85.007789 
L 193.363011 -79.438683 
L 198.194435 -72.347384 
L 203.025859 -87.832378 
L 207.857283 -102.801939 
L 212.688707 -114.886596 
L 217.520131 -118.044122 
L 222.351555 -104.390524 
L 227.182979 -97.666345 
L 232.014403 -92.461802 
L 236.845827 -86.119014 
L 236.845827 -115.736551 
L 236.845827 -115.736551 
L 232.014403 -123.108875 
L 227.182979 -129.331316 
L 222.351555 -139.839541 
L 217.520131 -149.902255 
L 212.688707 -144.052848 
L 207.857283 -133.967041 
L 203.025859 -114.62212 
L 198.194435 -101.728563 
L 193.363011 -109.03152 
L 188.531588 -115.728164 
L 183.700164 -120.234722 
L 178.86874 -122.989272 
L 174.037316 -126.727402 
L 169.205892 -123.736463 
L 164.374468 -117.768931 
L 159.543044 -111.212243 
L 154.71162 -104.20743 
L 149.880196 -105.346943 
L 145.048773 -109.29499 
L 140.217349 -117.963606 
L 135.385925 -125.380041 
L 130.554501 -135.075582 
L 125.723077 -147.76392 
L 120.891653 -147.323368 
L 116.060229 -130.914683 
L 111.228805 -113.417616 
L 106.397381 -97.581358 
L 101.565957 -106.093735 
L 96.734534 -110.371651 
L 91.90311 -117.429735 
z
"/>
    </defs>
    <g clip-path="url(#pd07c6d0281)">
     <use xlink:href="#m18d504b32b" x="0" y="216" style="fill: #000080; fill-opacity: 0.2"/>
    </g>
   </g>
   <g id="matplotlib.axis_3">
    <g id="xtick_4">
     <g id="line2d_12">
      <g>
       <use xlink:href="#m1af3cc3362" x="137.801637" y="172.8" style="stroke: #000000; stroke-width: 0.8"/>
      </g>
     </g>
     <g id="text_8">
      <!-- 0 -->
      <g transform="translate(134.620387 187.398438) scale(0.1 -0.1)">
       <use xlink:href="#DejaVuSans-30"/>
      </g>
     </g>
    </g>
    <g id="xtick_5">
     <g id="line2d_13">
      <g>
       <use xlink:href="#m1af3cc3362" x="166.79018" y="172.8" style="stroke: #000000; stroke-width: 0.8"/>
      </g>
     </g>
     <g id="text_9">
      <!-- 6 -->
      <g transform="translate(163.60893 187.398438) scale(0.1 -0.1)">
       <use xlink:href="#DejaVuSans-36"/>
      </g>
     </g>
    </g>
    <g id="xtick_6">
     <g id="line2d_14">
      <g>
       <use xlink:href="#m1af3cc3362" x="195.778723" y="172.8" style="stroke: #000000; stroke-width: 0.8"/>
      </g>
     </g>
     <g id="text_10">
      <!-- 12 -->
      <g transform="translate(189.416223 187.398438) scale(0.1 -0.1)">
       <use xlink:href="#DejaVuSans-31"/>
       <use xlink:href="#DejaVuSans-32" transform="translate(63.623047 0)"/>
      </g>
     </g>
    </g>
   </g>
   <g id="matplotlib.axis_4">
    <g id="ytick_4">
     <g id="line2d_15">
      <defs>
       <path id="mb9d7aac1bc" d="M 0 0 
L -3.5 0 
"/>
      </defs>
      <g>
       <use xlink:href="#mb9d7aac1bc" x="132.970213" y="153.163636"/>
      </g>
     </g>
    </g>
    <g id="ytick_5">
     <g id="line2d_16">
      <g>
       <use xlink:href="#mb9d7aac1bc" x="132.970213" y="113.890909"/>
      </g>
     </g>
    </g>
    <g id="ytick_6">
     <g id="line2d_17">
      <g>
       <use xlink:href="#mb9d7aac1bc" x="132.970213" y="74.618182"/>
      </g>
     </g>
    </g>
   </g>
   <g id="line2d_18">
    <path d="M 91.90311 113.568035 
L 96.734534 119.976246 
L 101.565957 124.956909 
L 106.397381 133.125495 
L 111.228805 119.798569 
L 116.060229 106.003209 
L 120.891653 90.689428 
L 125.723077 89.635028 
L 130.554501 102.168342 
L 135.385925 110.395168 
L 140.217349 116.546019 
L 145.048773 123.028393 
L 149.880196 132.661108 
L 154.71162 131.145715 
L 159.543044 102.683052 
L 164.374468 82.297304 
L 169.205892 70.498944 
L 174.037316 79.602507 
L 178.86874 98.461966 
L 183.700164 106.902576 
L 188.531588 115.652046 
L 193.363011 122.357153 
L 198.194435 132.059451 
L 203.025859 120.482377 
L 207.857283 106.573541 
L 212.688707 95.90899 
L 217.520131 93.665953 
L 222.351555 104.528686 
L 227.182979 113.889102 
L 232.014403 119.126607 
L 236.845827 124.798448 
" clip-path="url(#pd07c6d0281)" style="fill: none; stroke: #ff7f7f; stroke-width: 1.5; stroke-linecap: square"/>
   </g>
   <g id="line2d_19">
    <path d="M 91.90311 114.549192 
L 96.734534 120.752979 
L 101.565957 125.179767 
L 106.397381 133.618794 
L 111.228805 118.209858 
L 116.060229 99.938469 
L 120.891653 84.875733 
L 125.723077 84.36607 
L 130.554501 97.261699 
L 135.385925 106.977433 
L 140.217349 113.672509 
L 145.048773 121.671961 
L 149.880196 124.882978 
L 154.71162 124.44599 
L 159.543044 117.227923 
L 164.374468 110.692215 
L 169.205892 105.203672 
L 174.037316 103.433535 
L 178.86874 107.712537 
L 183.700164 111.868772 
L 188.531588 115.632024 
L 193.363011 121.764898 
L 198.194435 128.962027 
L 203.025859 114.772751 
L 207.857283 97.61551 
L 212.688707 86.530278 
L 217.520131 82.026812 
L 222.351555 93.884967 
L 227.182979 102.501169 
L 232.014403 108.214661 
L 236.845827 115.072217 
" clip-path="url(#pd07c6d0281)" style="fill: none; stroke: #000080; stroke-width: 1.5; stroke-linecap: square"/>
   </g>
   <g id="line2d_20">
    <path d="M 137.801637 172.8 
L 137.801637 43.2 
" clip-path="url(#pd07c6d0281)" style="fill: none; stroke: #000000; stroke-width: 0.8; stroke-linecap: square"/>
   </g>
   <g id="line2d_21">
    <path d="M 149.880196 172.8 
L 149.880196 43.2 
" clip-path="url(#pd07c6d0281)" style="fill: none; stroke-dasharray: 2.96,1.28; stroke-dashoffset: 0; stroke: #000000; stroke-width: 0.8"/>
   </g>
   <g id="line2d_22">
    <path d="M 132.970213 113.890909 
L 195.778723 113.890909 
" clip-path="url(#pd07c6d0281)" style="fill: none; stroke: #000000; stroke-width: 0.8; stroke-linecap: square"/>
   </g>
   <g id="patch_6">
    <path d="M 137.801637 172.8 
L 195.778723 172.8 
" style="fill: none; stroke: #000000; stroke-width: 0.8; stroke-linejoin: miter; stroke-linecap: square"/>
   </g>
   <g id="text_11">
    <!-- PMd -->
    <g transform="translate(151.770718 37.2) scale(0.12 -0.12)">
     <defs>
      <path id="DejaVuSans-50" d="M 1259 4147 
L 1259 2394 
L 2053 2394 
Q 2494 2394 2734 2622 
Q 2975 2850 2975 3272 
Q 2975 3691 2734 3919 
Q 2494 4147 2053 4147 
L 1259 4147 
z
M 628 4666 
L 2053 4666 
Q 2838 4666 3239 4311 
Q 3641 3956 3641 3272 
Q 3641 2581 3239 2228 
Q 2838 1875 2053 1875 
L 1259 1875 
L 1259 0 
L 628 0 
L 628 4666 
z
" transform="scale(0.015625)"/>
      <path id="DejaVuSans-64" d="M 2906 2969 
L 2906 4863 
L 3481 4863 
L 3481 0 
L 2906 0 
L 2906 525 
Q 2725 213 2448 61 
Q 2172 -91 1784 -91 
Q 1150 -91 751 415 
Q 353 922 353 1747 
Q 353 2572 751 3078 
Q 1150 3584 1784 3584 
Q 2172 3584 2448 3432 
Q 2725 3281 2906 2969 
z
M 947 1747 
Q 947 1113 1208 752 
Q 1469 391 1925 391 
Q 2381 391 2643 752 
Q 2906 1113 2906 1747 
Q 2906 2381 2643 2742 
Q 2381 3103 1925 3103 
Q 1469 3103 1208 2742 
Q 947 2381 947 1747 
z
" transform="scale(0.015625)"/>
     </defs>
     <use xlink:href="#DejaVuSans-50"/>
     <use xlink:href="#DejaVuSans-4d" transform="translate(60.302734 0)"/>
     <use xlink:href="#DejaVuSans-64" transform="translate(146.582031 0)"/>
    </g>
   </g>
  </g>
  <g id="axes_3">
   <g id="patch_7">
    <path d="M 208.340426 172.8 
L 271.148936 172.8 
L 271.148936 43.2 
L 208.340426 43.2 
z
" style="fill: #ffffff"/>
   </g>
   <g id="FillBetweenPolyCollection_5">
    <defs>
     <path id="m85fc0647ee" d="M 167.273322 -116.927475 
L 167.273322 -88.867861 
L 172.104746 -85.747359 
L 176.93617 -83.624484 
L 181.767594 -75.277969 
L 186.599018 -84.696682 
L 191.430442 -92.417677 
L 196.261866 -104.11366 
L 201.09329 -105.377016 
L 205.924714 -95.149805 
L 210.756137 -90.375423 
L 215.587561 -88.461787 
L 220.418985 -85.844143 
L 225.250409 -76.111138 
L 230.081833 -77.17943 
L 234.913257 -97.013182 
L 239.744681 -111.083107 
L 244.576105 -120.714531 
L 249.407529 -110.888165 
L 254.238953 -94.29889 
L 259.070376 -89.992068 
L 263.9018 -87.26965 
L 268.733224 -82.868331 
L 273.564648 -74.968651 
L 278.396072 -82.921597 
L 283.227496 -91.491763 
L 288.05892 -100.556599 
L 292.890344 -103.859184 
L 297.721768 -94.174552 
L 302.553191 -88.766732 
L 307.384615 -86.201646 
L 312.216039 -84.508689 
L 312.216039 -110.910333 
L 312.216039 -110.910333 
L 307.384615 -114.30028 
L 302.553191 -116.122455 
L 297.721768 -120.794283 
L 292.890344 -129.876853 
L 288.05892 -125.396387 
L 283.227496 -116.277981 
L 278.396072 -107.851151 
L 273.564648 -99.777134 
L 268.733224 -108.424763 
L 263.9018 -114.174034 
L 259.070376 -118.263857 
L 254.238953 -123.277353 
L 249.407529 -139.412811 
L 244.576105 -147.642776 
L 239.744681 -138.444724 
L 234.913257 -123.427237 
L 230.081833 -105.449274 
L 225.250409 -102.328679 
L 220.418985 -112.154617 
L 215.587561 -116.722874 
L 210.756137 -119.351418 
L 205.924714 -124.147444 
L 201.09329 -133.265607 
L 196.261866 -131.605929 
L 191.430442 -119.239955 
L 186.599018 -110.437877 
L 181.767594 -101.302135 
L 176.93617 -108.574165 
L 172.104746 -113.934318 
L 167.273322 -116.927475 
z
"/>
    </defs>
    <g clip-path="url(#p574b70d16f)">
     <use xlink:href="#m85fc0647ee" x="0" y="216" style="fill: #ff7f7f; fill-opacity: 0.2"/>
    </g>
   </g>
   <g id="FillBetweenPolyCollection_6">
    <defs>
     <path id="mb12fd03ed1" d="M 167.273322 -116.497185 
L 167.273322 -88.333076 
L 172.104746 -85.973909 
L 176.93617 -82.199377 
L 181.767594 -75.832928 
L 186.599018 -85.712214 
L 191.430442 -97.978907 
L 196.261866 -109.010354 
L 201.09329 -109.991812 
L 205.924714 -96.522928 
L 210.756137 -92.200305 
L 215.587561 -88.403425 
L 220.418985 -84.72888 
L 225.250409 -81.423007 
L 230.081833 -80.667308 
L 234.913257 -83.407781 
L 239.744681 -87.134821 
L 244.576105 -92.653842 
L 249.407529 -95.716889 
L 254.238953 -96.493242 
L 259.070376 -95.571982 
L 263.9018 -93.937353 
L 268.733224 -89.316329 
L 273.564648 -81.558213 
L 278.396072 -90.930867 
L 283.227496 -99.246432 
L 288.05892 -108.892226 
L 292.890344 -110.702054 
L 297.721768 -99.087547 
L 302.553191 -95.364918 
L 307.384615 -93.896962 
L 312.216039 -90.50454 
L 312.216039 -115.956533 
L 312.216039 -115.956533 
L 307.384615 -120.902987 
L 302.553191 -123.351945 
L 297.721768 -128.034231 
L 292.890344 -138.577814 
L 288.05892 -135.066832 
L 283.227496 -126.218657 
L 278.396072 -115.590836 
L 273.564648 -106.163116 
L 268.733224 -114.516763 
L 263.9018 -120.647237 
L 259.070376 -122.550412 
L 254.238953 -122.886294 
L 249.407529 -121.312386 
L 244.576105 -115.267918 
L 239.744681 -108.411851 
L 234.913257 -104.679836 
L 230.081833 -102.571049 
L 225.250409 -105.618998 
L 220.418985 -111.980667 
L 215.587561 -115.761438 
L 210.756137 -120.43885 
L 205.924714 -126.094902 
L 201.09329 -138.380184 
L 196.261866 -137.099359 
L 191.430442 -124.672828 
L 186.599018 -113.420278 
L 181.767594 -102.200986 
L 176.93617 -109.490689 
L 172.104746 -113.177198 
L 167.273322 -116.497185 
z
"/>
    </defs>
    <g clip-path="url(#p574b70d16f)">
     <use xlink:href="#mb12fd03ed1" x="0" y="216" style="fill: #000080; fill-opacity: 0.2"/>
    </g>
   </g>
   <g id="matplotlib.axis_5">
    <g id="xtick_7">
     <g id="line2d_23">
      <g>
       <use xlink:href="#m1af3cc3362" x="213.171849" y="172.8" style="stroke: #000000; stroke-width: 0.8"/>
      </g>
     </g>
     <g id="text_12">
      <!-- 0 -->
      <g transform="translate(209.990599 187.398438) scale(0.1 -0.1)">
       <use xlink:href="#DejaVuSans-30"/>
      </g>
     </g>
    </g>
    <g id="xtick_8">
     <g id="line2d_24">
      <g>
       <use xlink:href="#m1af3cc3362" x="242.160393" y="172.8" style="stroke: #000000; stroke-width: 0.8"/>
      </g>
     </g>
     <g id="text_13">
      <!-- 6 -->
      <g transform="translate(238.979143 187.398438) scale(0.1 -0.1)">
       <use xlink:href="#DejaVuSans-36"/>
      </g>
     </g>
    </g>
    <g id="xtick_9">
     <g id="line2d_25">
      <g>
       <use xlink:href="#m1af3cc3362" x="271.148936" y="172.8" style="stroke: #000000; stroke-width: 0.8"/>
      </g>
     </g>
     <g id="text_14">
      <!-- 12 -->
      <g transform="translate(264.786436 187.398438) scale(0.1 -0.1)">
       <use xlink:href="#DejaVuSans-31"/>
       <use xlink:href="#DejaVuSans-32" transform="translate(63.623047 0)"/>
      </g>
     </g>
    </g>
   </g>
   <g id="matplotlib.axis_6">
    <g id="ytick_7">
     <g id="line2d_26">
      <g>
       <use xlink:href="#mb9d7aac1bc" x="208.340426" y="153.163636"/>
      </g>
     </g>
    </g>
    <g id="ytick_8">
     <g id="line2d_27">
      <g>
       <use xlink:href="#mb9d7aac1bc" x="208.340426" y="113.890909"/>
      </g>
     </g>
    </g>
    <g id="ytick_9">
     <g id="line2d_28">
      <g>
       <use xlink:href="#mb9d7aac1bc" x="208.340426" y="74.618182"/>
      </g>
     </g>
    </g>
   </g>
   <g id="line2d_29">
    <path d="M 167.273322 113.102332 
L 172.104746 116.159162 
L 176.93617 119.900676 
L 181.767594 127.709948 
L 186.599018 118.43272 
L 191.430442 110.171184 
L 196.261866 98.140206 
L 201.09329 96.678689 
L 205.924714 106.351375 
L 210.756137 111.13658 
L 215.587561 113.40767 
L 220.418985 117.00062 
L 225.250409 126.780092 
L 230.081833 124.685648 
L 234.913257 105.779791 
L 239.744681 91.236085 
L 244.576105 81.821347 
L 249.407529 90.849512 
L 254.238953 107.211878 
L 259.070376 111.872038 
L 263.9018 115.278158 
L 268.733224 120.353453 
L 273.564648 128.627108 
L 278.396072 120.613626 
L 283.227496 112.115128 
L 288.05892 103.023507 
L 292.890344 99.131981 
L 297.721768 108.515583 
L 302.553191 113.555406 
L 307.384615 115.749037 
L 312.216039 118.290489 
" clip-path="url(#p574b70d16f)" style="fill: none; stroke: #ff7f7f; stroke-width: 1.5; stroke-linecap: square"/>
   </g>
   <g id="line2d_30">
    <path d="M 167.273322 113.58487 
L 172.104746 116.424447 
L 176.93617 120.154967 
L 181.767594 126.983043 
L 186.599018 116.433754 
L 191.430442 104.674132 
L 196.261866 92.945143 
L 201.09329 91.814002 
L 205.924714 104.691085 
L 210.756137 109.680423 
L 215.587561 113.917568 
L 220.418985 117.645226 
L 225.250409 122.478998 
L 230.081833 124.380821 
L 234.913257 121.956191 
L 239.744681 118.226664 
L 244.576105 112.03912 
L 249.407529 107.485362 
L 254.238953 106.310232 
L 259.070376 106.938803 
L 263.9018 108.707705 
L 268.733224 114.083454 
L 273.564648 122.139336 
L 278.396072 112.739148 
L 283.227496 103.267456 
L 288.05892 94.020471 
L 292.890344 91.360066 
L 297.721768 102.439111 
L 302.553191 106.641568 
L 307.384615 108.600026 
L 312.216039 112.769464 
" clip-path="url(#p574b70d16f)" style="fill: none; stroke: #000080; stroke-width: 1.5; stroke-linecap: square"/>
   </g>
   <g id="line2d_31">
    <path d="M 213.171849 172.8 
L 213.171849 43.2 
" clip-path="url(#p574b70d16f)" style="fill: none; stroke: #000000; stroke-width: 0.8; stroke-linecap: square"/>
   </g>
   <g id="line2d_32">
    <path d="M 225.250409 172.8 
L 225.250409 43.2 
" clip-path="url(#p574b70d16f)" style="fill: none; stroke-dasharray: 2.96,1.28; stroke-dashoffset: 0; stroke: #000000; stroke-width: 0.8"/>
   </g>
   <g id="line2d_33">
    <path d="M 208.340426 113.890909 
L 271.148936 113.890909 
" clip-path="url(#p574b70d16f)" style="fill: none; stroke: #000000; stroke-width: 0.8; stroke-linecap: square"/>
   </g>
   <g id="patch_8">
    <path d="M 213.171849 172.8 
L 271.148936 172.8 
" style="fill: none; stroke: #000000; stroke-width: 0.8; stroke-linejoin: miter; stroke-linecap: square"/>
   </g>
   <g id="text_15">
    <!-- PMv -->
    <g transform="translate(227.398743 37.2) scale(0.12 -0.12)">
     <defs>
      <path id="DejaVuSans-76" d="M 191 3500 
L 800 3500 
L 1894 563 
L 2988 3500 
L 3597 3500 
L 2284 0 
L 1503 0 
L 191 3500 
z
" transform="scale(0.015625)"/>
     </defs>
     <use xlink:href="#DejaVuSans-50"/>
     <use xlink:href="#DejaVuSans-4d" transform="translate(60.302734 0)"/>
     <use xlink:href="#DejaVuSans-76" transform="translate(146.582031 0)"/>
    </g>
   </g>
  </g>
  <g id="axes_4">
   <g id="patch_9">
    <path d="M 283.710638 172.8 
L 346.519149 172.8 
L 346.519149 43.2 
L 283.710638 43.2 
z
" style="fill: #ffffff"/>
   </g>
   <g id="FillBetweenPolyCollection_7">
    <defs>
     <path id="m214c432e14" d="M 242.643535 -129.099555 
L 242.643535 -94.270097 
L 247.474959 -87.240571 
L 252.306383 -74.785362 
L 257.137807 -63.50214 
L 261.969231 -73.861593 
L 266.800655 -90.046688 
L 271.632079 -106.552999 
L 276.463502 -104.633526 
L 281.294926 -95.421821 
L 286.12635 -93.636796 
L 290.957774 -91.524967 
L 295.789198 -81.794269 
L 300.620622 -63.726854 
L 305.452046 -66.992806 
L 310.28347 -94.218329 
L 315.114894 -124.738279 
L 319.946318 -136.424846 
L 324.777741 -124.884372 
L 329.609165 -113.970324 
L 334.440589 -112.023721 
L 339.272013 -99.39316 
L 344.103437 -80.242378 
L 348.934861 -64.636315 
L 353.766285 -70.680418 
L 358.597709 -86.004744 
L 363.429133 -98.961431 
L 368.260556 -98.268013 
L 373.09198 -89.905925 
L 377.923404 -88.030635 
L 382.754828 -87.317789 
L 387.586252 -79.061232 
L 387.586252 -111.1827 
L 387.586252 -111.1827 
L 382.754828 -120.202792 
L 377.923404 -121.579199 
L 373.09198 -122.552752 
L 368.260556 -130.888663 
L 363.429133 -132.661638 
L 358.597709 -117.707505 
L 353.766285 -101.528046 
L 348.934861 -99.745546 
L 344.103437 -114.975633 
L 339.272013 -133.795271 
L 334.440589 -145.651385 
L 329.609165 -148.484049 
L 324.777741 -157.950945 
L 319.946318 -168.666644 
L 315.114894 -157.802674 
L 310.28347 -125.251607 
L 305.452046 -102.038302 
L 300.620622 -98.528724 
L 295.789198 -114.57185 
L 290.957774 -125.925725 
L 286.12635 -128.997973 
L 281.294926 -130.472735 
L 276.463502 -138.821371 
L 271.632079 -142.025094 
L 266.800655 -123.411574 
L 261.969231 -104.933186 
L 257.137807 -98.358648 
L 252.306383 -107.493404 
L 247.474959 -121.660571 
L 242.643535 -129.099555 
z
"/>
    </defs>
    <g clip-path="url(#p5592a115c0)">
     <use xlink:href="#m214c432e14" x="0" y="216" style="fill: #ff7f7f; fill-opacity: 0.2"/>
    </g>
   </g>
   <g id="FillBetweenPolyCollection_8">
    <defs>
     <path id="m24e6e94063" d="M 242.643535 -127.177105 
L 242.643535 -91.815476 
L 247.474959 -86.78975 
L 252.306383 -74.5924 
L 257.137807 -65.186206 
L 261.969231 -76.413421 
L 266.800655 -97.734774 
L 271.632079 -113.827735 
L 276.463502 -111.902951 
L 281.294926 -102.900246 
L 286.12635 -100.138789 
L 290.957774 -95.872285 
L 295.789198 -87.741279 
L 300.620622 -75.198497 
L 305.452046 -72.412599 
L 310.28347 -75.583445 
L 315.114894 -77.956958 
L 319.946318 -79.22827 
L 324.777741 -78.337626 
L 329.609165 -79.30224 
L 334.440589 -82.258957 
L 339.272013 -85.919524 
L 344.103437 -78.535658 
L 348.934861 -73.315235 
L 353.766285 -86.31487 
L 358.597709 -101.736294 
L 363.429133 -116.391704 
L 368.260556 -117.521916 
L 373.09198 -109.605126 
L 377.923404 -110.068776 
L 382.754828 -107.735513 
L 387.586252 -96.20202 
L 387.586252 -130.07936 
L 387.586252 -130.07936 
L 382.754828 -142.27021 
L 377.923404 -145.221946 
L 373.09198 -146.014176 
L 368.260556 -152.357146 
L 363.429133 -151.575965 
L 358.597709 -136.737688 
L 353.766285 -115.354508 
L 348.934861 -104.593782 
L 344.103437 -109.838123 
L 339.272013 -117.957859 
L 334.440589 -114.335939 
L 329.609165 -110.939364 
L 324.777741 -108.370136 
L 319.946318 -107.473145 
L 315.114894 -105.15737 
L 310.28347 -103.063249 
L 305.452046 -101.333065 
L 300.620622 -107.01908 
L 295.789198 -121.653832 
L 290.957774 -131.072669 
L 286.12635 -136.265191 
L 281.294926 -137.690819 
L 276.463502 -146.994185 
L 271.632079 -151.005806 
L 266.800655 -131.487287 
L 261.969231 -108.647655 
L 257.137807 -99.582847 
L 252.306383 -108.496978 
L 247.474959 -120.112291 
L 242.643535 -127.177105 
z
"/>
    </defs>
    <g clip-path="url(#p5592a115c0)">
     <use xlink:href="#m24e6e94063" x="0" y="216" style="fill: #000080; fill-opacity: 0.2"/>
    </g>
   </g>
   <g id="matplotlib.axis_7">
    <g id="xtick_10">
     <g id="line2d_34">
      <g>
       <use xlink:href="#m1af3cc3362" x="288.542062" y="172.8" style="stroke: #000000; stroke-width: 0.8"/>
      </g>
     </g>
     <g id="text_16">
      <!-- 0 -->
      <g transform="translate(285.360812 187.398438) scale(0.1 -0.1)">
       <use xlink:href="#DejaVuSans-30"/>
      </g>
     </g>
    </g>
    <g id="xtick_11">
     <g id="line2d_35">
      <g>
       <use xlink:href="#m1af3cc3362" x="317.530606" y="172.8" style="stroke: #000000; stroke-width: 0.8"/>
      </g>
     </g>
     <g id="text_17">
      <!-- 6 -->
      <g transform="translate(314.349356 187.398438) scale(0.1 -0.1)">
       <use xlink:href="#DejaVuSans-36"/>
      </g>
     </g>
    </g>
    <g id="xtick_12">
     <g id="line2d_36">
      <g>
       <use xlink:href="#m1af3cc3362" x="346.519149" y="172.8" style="stroke: #000000; stroke-width: 0.8"/>
      </g>
     </g>
     <g id="text_18">
      <!-- 12 -->
      <g transform="translate(340.156649 187.398438) scale(0.1 -0.1)">
       <use xlink:href="#DejaVuSans-31"/>
       <use xlink:href="#DejaVuSans-32" transform="translate(63.623047 0)"/>
      </g>
     </g>
    </g>
   </g>
   <g id="matplotlib.axis_8">
    <g id="ytick_10">
     <g id="line2d_37">
      <g>
       <use xlink:href="#mb9d7aac1bc" x="283.710638" y="153.163636"/>
      </g>
     </g>
    </g>
    <g id="ytick_11">
     <g id="line2d_38">
      <g>
       <use xlink:href="#mb9d7aac1bc" x="283.710638" y="113.890909"/>
      </g>
     </g>
    </g>
    <g id="ytick_12">
     <g id="line2d_39">
      <g>
       <use xlink:href="#mb9d7aac1bc" x="283.710638" y="74.618182"/>
      </g>
     </g>
    </g>
   </g>
   <g id="line2d_40">
    <path d="M 242.643535 104.315174 
L 247.474959 111.549429 
L 252.306383 124.860617 
L 257.137807 135.069606 
L 261.969231 126.60261 
L 266.800655 109.270869 
L 271.632079 91.710953 
L 276.463502 94.272551 
L 281.294926 103.052722 
L 286.12635 104.682616 
L 290.957774 107.274654 
L 295.789198 117.816941 
L 300.620622 134.872211 
L 305.452046 131.484446 
L 310.28347 106.265032 
L 315.114894 74.729523 
L 319.946318 63.454255 
L 324.777741 74.582342 
L 329.609165 84.772813 
L 334.440589 87.162447 
L 339.272013 99.405785 
L 344.103437 118.390994 
L 348.934861 133.809069 
L 353.766285 129.895768 
L 358.597709 114.143876 
L 363.429133 100.188466 
L 368.260556 101.421662 
L 373.09198 109.770661 
L 377.923404 111.195083 
L 382.754828 112.23971 
L 387.586252 120.878034 
" clip-path="url(#p5592a115c0)" style="fill: none; stroke: #ff7f7f; stroke-width: 1.5; stroke-linecap: square"/>
   </g>
   <g id="line2d_41">
    <path d="M 242.643535 106.503709 
L 247.474959 112.54898 
L 252.306383 124.455311 
L 257.137807 133.615473 
L 261.969231 123.469462 
L 266.800655 101.388969 
L 271.632079 83.58323 
L 276.463502 86.551432 
L 281.294926 95.704468 
L 286.12635 97.79801 
L 290.957774 102.527523 
L 295.789198 111.302445 
L 300.620622 124.891211 
L 305.452046 129.127168 
L 310.28347 126.676653 
L 315.114894 124.442836 
L 319.946318 122.649293 
L 324.777741 122.646119 
L 329.609165 120.879198 
L 334.440589 117.702552 
L 339.272013 114.061309 
L 344.103437 121.81311 
L 348.934861 127.045492 
L 353.766285 115.165311 
L 358.597709 96.763009 
L 363.429133 82.016166 
L 368.260556 81.060469 
L 373.09198 88.190349 
L 377.923404 88.354639 
L 382.754828 90.997138 
L 387.586252 102.85931 
" clip-path="url(#p5592a115c0)" style="fill: none; stroke: #000080; stroke-width: 1.5; stroke-linecap: square"/>
   </g>
   <g id="line2d_42">
    <path d="M 288.542062 172.8 
L 288.542062 43.2 
" clip-path="url(#p5592a115c0)" style="fill: none; stroke: #000000; stroke-width: 0.8; stroke-linecap: square"/>
   </g>
   <g id="line2d_43">
    <path d="M 300.620622 172.8 
L 300.620622 43.2 
" clip-path="url(#p5592a115c0)" style="fill: none; stroke-dasharray: 2.96,1.28; stroke-dashoffset: 0; stroke: #000000; stroke-width: 0.8"/>
   </g>
   <g id="line2d_44">
    <path d="M 283.710638 113.890909 
L 346.519149 113.890909 
" clip-path="url(#p5592a115c0)" style="fill: none; stroke: #000000; stroke-width: 0.8; stroke-linecap: square"/>
   </g>
   <g id="patch_10">
    <path d="M 288.542062 172.8 
L 346.519149 172.8 
" style="fill: none; stroke: #000000; stroke-width: 0.8; stroke-linejoin: miter; stroke-linecap: square"/>
   </g>
   <g id="text_19">
    <!-- M1 -->
    <g transform="translate(306.120519 37.2) scale(0.12 -0.12)">
     <use xlink:href="#DejaVuSans-4d"/>
     <use xlink:href="#DejaVuSans-31" transform="translate(86.279297 0)"/>
    </g>
   </g>
  </g>
  <g id="axes_5">
   <g id="patch_11">
    <path d="M 359.080851 172.8 
L 421.889362 172.8 
L 421.889362 43.2 
L 359.080851 43.2 
z
" style="fill: #ffffff"/>
   </g>
   <g id="FillBetweenPolyCollection_9">
    <defs>
     <path id="me08fe36c3b" d="M 318.013748 -138.690832 
L 318.013748 -101.785303 
L 322.845172 -95.004054 
L 327.676596 -80.724744 
L 332.50802 -61.005694 
L 337.339444 -58.735806 
L 342.170867 -73.459334 
L 347.002291 -96.78005 
L 351.833715 -103.549495 
L 356.665139 -98.508328 
L 361.496563 -99.898106 
L 366.327987 -100.373185 
L 371.159411 -89.168116 
L 375.990835 -69.297192 
L 380.822259 -50.8416 
L 385.653682 -71.154744 
L 390.485106 -108.773049 
L 395.31653 -136.065051 
L 400.147954 -134.8533 
L 404.979378 -128.474885 
L 409.810802 -128.785962 
L 414.642226 -116.417377 
L 419.47365 -94.498566 
L 424.305074 -67.64148 
L 429.136498 -58.284063 
L 433.967921 -69.799834 
L 438.799345 -87.485076 
L 443.630769 -94.45458 
L 448.462193 -92.402425 
L 453.293617 -92.456404 
L 458.125041 -93.676957 
L 462.956465 -85.58176 
L 462.956465 -119.033415 
L 462.956465 -119.033415 
L 458.125041 -128.65162 
L 453.293617 -128.554075 
L 448.462193 -127.128381 
L 443.630769 -130.613543 
L 438.799345 -122.538045 
L 433.967921 -102.203189 
L 429.136498 -91.713654 
L 424.305074 -104.329248 
L 419.47365 -130.549332 
L 414.642226 -152.538036 
L 409.810802 -163.739395 
L 404.979378 -163.803971 
L 400.147954 -169.900894 
L 395.31653 -167.576101 
L 390.485106 -141.206368 
L 385.653682 -102.736598 
L 380.822259 -87.668659 
L 375.990835 -104.481804 
L 371.159411 -124.324967 
L 366.327987 -136.574202 
L 361.496563 -137.67994 
L 356.665139 -136.716022 
L 351.833715 -140.228788 
L 347.002291 -133.041692 
L 342.170867 -107.104624 
L 337.339444 -92.370361 
L 332.50802 -97.260802 
L 327.676596 -115.930374 
L 322.845172 -131.605989 
L 318.013748 -138.690832 
z
"/>
    </defs>
    <g clip-path="url(#p8ac07740ba)">
     <use xlink:href="#me08fe36c3b" x="0" y="216" style="fill: #ff7f7f; fill-opacity: 0.2"/>
    </g>
   </g>
   <g id="FillBetweenPolyCollection_10">
    <defs>
     <path id="mefb91f180a" d="M 318.013748 -138.815668 
L 318.013748 -100.098356 
L 322.845172 -96.04273 
L 327.676596 -82.160814 
L 332.50802 -62.973609 
L 337.339444 -63.368802 
L 342.170867 -82.127447 
L 347.002291 -105.771591 
L 351.833715 -112.348089 
L 356.665139 -109.173856 
L 361.496563 -107.384171 
L 366.327987 -106.419471 
L 371.159411 -95.75274 
L 375.990835 -80.787062 
L 380.822259 -70.439113 
L 385.653682 -64.568443 
L 390.485106 -62.866778 
L 395.31653 -64.278072 
L 400.147954 -67.518803 
L 404.979378 -71.196745 
L 409.810802 -79.182462 
L 414.642226 -84.669395 
L 419.47365 -76.690074 
L 424.305074 -66.614619 
L 429.136498 -71.174892 
L 433.967921 -89.012722 
L 438.799345 -108.540559 
L 443.630769 -119.461132 
L 448.462193 -116.196325 
L 453.293617 -120.594419 
L 458.125041 -119.418686 
L 462.956465 -107.173734 
L 462.956465 -143.399048 
L 462.956465 -143.399048 
L 458.125041 -157.111785 
L 453.293617 -157.654228 
L 448.462193 -156.365043 
L 443.630769 -156.267005 
L 438.799345 -145.021741 
L 433.967921 -121.934405 
L 429.136498 -101.652315 
L 424.305074 -99.847174 
L 419.47365 -110.520517 
L 414.642226 -116.555612 
L 409.810802 -112.355547 
L 404.979378 -104.804957 
L 400.147954 -98.902596 
L 395.31653 -93.763315 
L 390.485106 -91.485467 
L 385.653682 -94.50335 
L 380.822259 -101.158237 
L 375.990835 -115.446912 
L 371.159411 -132.555702 
L 366.327987 -143.971933 
L 361.496563 -146.411989 
L 356.665139 -146.415158 
L 351.833715 -151.051889 
L 347.002291 -144.29159 
L 342.170867 -114.838947 
L 337.339444 -95.446433 
L 332.50802 -98.642605 
L 327.676596 -117.188405 
L 322.845172 -131.972707 
L 318.013748 -138.815668 
z
"/>
    </defs>
    <g clip-path="url(#p8ac07740ba)">
     <use xlink:href="#mefb91f180a" x="0" y="216" style="fill: #000080; fill-opacity: 0.2"/>
    </g>
   </g>
   <g id="matplotlib.axis_9">
    <g id="xtick_13">
     <g id="line2d_45">
      <g>
       <use xlink:href="#m1af3cc3362" x="363.912275" y="172.8" style="stroke: #000000; stroke-width: 0.8"/>
      </g>
     </g>
     <g id="text_20">
      <!-- 0 -->
      <g transform="translate(360.731025 187.398438) scale(0.1 -0.1)">
       <use xlink:href="#DejaVuSans-30"/>
      </g>
     </g>
    </g>
    <g id="xtick_14">
     <g id="line2d_46">
      <g>
       <use xlink:href="#m1af3cc3362" x="392.900818" y="172.8" style="stroke: #000000; stroke-width: 0.8"/>
      </g>
     </g>
     <g id="text_21">
      <!-- 6 -->
      <g transform="translate(389.719568 187.398438) scale(0.1 -0.1)">
       <use xlink:href="#DejaVuSans-36"/>
      </g>
     </g>
    </g>
    <g id="xtick_15">
     <g id="line2d_47">
      <g>
       <use xlink:href="#m1af3cc3362" x="421.889362" y="172.8" style="stroke: #000000; stroke-width: 0.8"/>
      </g>
     </g>
     <g id="text_22">
      <!-- 12 -->
      <g transform="translate(415.526862 187.398438) scale(0.1 -0.1)">
       <use xlink:href="#DejaVuSans-31"/>
       <use xlink:href="#DejaVuSans-32" transform="translate(63.623047 0)"/>
      </g>
     </g>
    </g>
   </g>
   <g id="matplotlib.axis_10">
    <g id="ytick_13">
     <g id="line2d_48">
      <g>
       <use xlink:href="#mb9d7aac1bc" x="359.080851" y="153.163636"/>
      </g>
     </g>
    </g>
    <g id="ytick_14">
     <g id="line2d_49">
      <g>
       <use xlink:href="#mb9d7aac1bc" x="359.080851" y="113.890909"/>
      </g>
     </g>
    </g>
    <g id="ytick_15">
     <g id="line2d_50">
      <g>
       <use xlink:href="#mb9d7aac1bc" x="359.080851" y="74.618182"/>
      </g>
     </g>
    </g>
   </g>
   <g id="line2d_51">
    <path d="M 318.013748 95.761933 
L 322.845172 102.694979 
L 327.676596 117.672441 
L 332.50802 136.866752 
L 337.339444 140.446917 
L 342.170867 125.718021 
L 347.002291 101.089129 
L 351.833715 94.110859 
L 356.665139 98.387825 
L 361.496563 97.210977 
L 366.327987 97.526307 
L 371.159411 109.253458 
L 375.990835 129.110502 
L 380.822259 146.74487 
L 385.653682 129.054329 
L 390.485106 91.010292 
L 395.31653 64.179424 
L 400.147954 63.622903 
L 404.979378 69.860572 
L 409.810802 69.737322 
L 414.642226 81.522294 
L 419.47365 103.476051 
L 424.305074 130.014636 
L 429.136498 141.001142 
L 433.967921 129.998488 
L 438.799345 110.988439 
L 443.630769 103.465938 
L 448.462193 106.234597 
L 453.293617 105.49476 
L 458.125041 104.835712 
L 462.956465 113.692413 
" clip-path="url(#p8ac07740ba)" style="fill: none; stroke: #ff7f7f; stroke-width: 1.5; stroke-linecap: square"/>
   </g>
   <g id="line2d_52">
    <path d="M 318.013748 96.542988 
L 322.845172 101.992281 
L 327.676596 116.32539 
L 332.50802 135.191893 
L 337.339444 136.592383 
L 342.170867 117.516803 
L 347.002291 90.968409 
L 351.833715 84.300011 
L 356.665139 88.205493 
L 361.496563 89.10192 
L 366.327987 90.804298 
L 371.159411 101.845779 
L 375.990835 117.883013 
L 380.822259 130.201325 
L 385.653682 136.464104 
L 390.485106 138.823878 
L 395.31653 136.979307 
L 400.147954 132.789301 
L 404.979378 127.999149 
L 409.810802 120.230996 
L 414.642226 115.387496 
L 419.47365 122.394705 
L 424.305074 132.769103 
L 429.136498 129.586397 
L 433.967921 110.526437 
L 438.799345 89.21885 
L 443.630769 78.135932 
L 448.462193 79.719316 
L 453.293617 76.875677 
L 458.125041 77.734765 
L 462.956465 90.713609 
" clip-path="url(#p8ac07740ba)" style="fill: none; stroke: #000080; stroke-width: 1.5; stroke-linecap: square"/>
   </g>
   <g id="line2d_53">
    <path d="M 363.912275 172.8 
L 363.912275 43.2 
" clip-path="url(#p8ac07740ba)" style="fill: none; stroke: #000000; stroke-width: 0.8; stroke-linecap: square"/>
   </g>
   <g id="line2d_54">
    <path d="M 375.990835 172.8 
L 375.990835 43.2 
" clip-path="url(#p8ac07740ba)" style="fill: none; stroke-dasharray: 2.96,1.28; stroke-dashoffset: 0; stroke: #000000; stroke-width: 0.8"/>
   </g>
   <g id="line2d_55">
    <path d="M 359.080851 113.890909 
L 421.889362 113.890909 
" clip-path="url(#p8ac07740ba)" style="fill: none; stroke: #000000; stroke-width: 0.8; stroke-linecap: square"/>
   </g>
   <g id="patch_12">
    <path d="M 363.912275 172.8 
L 421.889362 172.8 
" style="fill: none; stroke: #000000; stroke-width: 0.8; stroke-linejoin: miter; stroke-linecap: square"/>
   </g>
   <g id="text_23">
    <!-- S1 -->
    <g transform="translate(382.858544 37.2) scale(0.12 -0.12)">
     <use xlink:href="#DejaVuSans-53"/>
     <use xlink:href="#DejaVuSans-31" transform="translate(63.476562 0)"/>
    </g>
   </g>
  </g>
  <g id="axes_6">
   <g id="patch_13">
    <path d="M 434.451064 172.8 
L 497.259574 172.8 
L 497.259574 43.2 
L 434.451064 43.2 
z
" style="fill: #ffffff"/>
   </g>
   <g id="FillBetweenPolyCollection_11">
    <defs>
     <path id="m348a9e8929" d="M 393.383961 -122.233777 
L 393.383961 -89.460274 
L 398.215385 -86.128801 
L 403.046809 -78.680909 
L 407.878232 -67.983982 
L 412.709656 -77.694154 
L 417.54108 -89.391746 
L 422.372504 -104.120996 
L 427.203928 -104.796507 
L 432.035352 -95.40224 
L 436.866776 -90.524736 
L 441.6982 -87.934976 
L 446.529624 -84.169012 
L 451.361047 -70.716566 
L 456.192471 -67.535033 
L 461.023895 -90.71255 
L 465.855319 -112.935272 
L 470.686743 -124.595813 
L 475.518167 -116.892607 
L 480.349591 -102.942853 
L 485.181015 -98.28533 
L 490.012439 -94.629689 
L 494.843863 -86.683796 
L 499.675286 -75.071588 
L 504.50671 -79.185514 
L 509.338134 -89.704503 
L 514.169558 -99.99808 
L 519.000982 -101.764066 
L 523.832406 -95.106607 
L 528.66383 -88.475093 
L 533.495254 -86.615744 
L 538.326678 -84.468417 
L 538.326678 -113.084589 
L 538.326678 -113.084589 
L 533.495254 -117.156269 
L 528.66383 -118.682104 
L 523.832406 -124.303801 
L 519.000982 -131.866813 
L 514.169558 -129.936904 
L 509.338134 -119.297708 
L 504.50671 -108.884982 
L 499.675286 -104.639756 
L 494.843863 -115.451059 
L 490.012439 -125.447834 
L 485.181015 -129.524169 
L 480.349591 -135.008298 
L 475.518167 -148.633849 
L 470.686743 -154.895519 
L 465.855319 -143.165145 
L 461.023895 -120.988077 
L 456.192471 -99.76535 
L 451.361047 -100.832805 
L 446.529624 -114.113353 
L 441.6982 -120.779733 
L 436.866776 -123.70406 
L 432.035352 -127.536275 
L 427.203928 -135.519177 
L 422.372504 -135.798287 
L 417.54108 -119.719522 
L 412.709656 -107.715848 
L 407.878232 -100.332326 
L 403.046809 -109.516278 
L 398.215385 -118.30613 
L 393.383961 -122.233777 
z
"/>
    </defs>
    <g clip-path="url(#pb9622c6230)">
     <use xlink:href="#m348a9e8929" x="0" y="216" style="fill: #ff7f7f; fill-opacity: 0.2"/>
    </g>
   </g>
   <g id="FillBetweenPolyCollection_12">
    <defs>
     <path id="m8731d25572" d="M 393.383961 -121.191418 
L 393.383961 -89.425419 
L 398.215385 -87.206212 
L 403.046809 -78.960134 
L 407.878232 -68.878573 
L 412.709656 -77.701374 
L 417.54108 -94.390515 
L 422.372504 -108.211522 
L 427.203928 -109.978038 
L 432.035352 -99.8252 
L 436.866776 -95.427753 
L 441.6982 -91.901362 
L 446.529624 -87.313459 
L 451.361047 -77.966965 
L 456.192471 -78.23835 
L 461.023895 -81.503521 
L 465.855319 -84.490805 
L 470.686743 -88.766432 
L 475.518167 -91.597655 
L 480.349591 -91.948938 
L 485.181015 -92.266307 
L 490.012439 -89.913968 
L 494.843863 -80.846278 
L 499.675286 -71.626559 
L 504.50671 -83.320835 
L 509.338134 -95.17181 
L 514.169558 -108.226872 
L 519.000982 -112.13996 
L 523.832406 -102.221759 
L 528.66383 -101.036222 
L 533.495254 -96.222831 
L 538.326678 -91.405801 
L 538.326678 -122.679122 
L 538.326678 -122.679122 
L 533.495254 -129.374215 
L 528.66383 -133.029405 
L 523.832406 -136.724689 
L 519.000982 -143.873424 
L 514.169558 -139.190729 
L 509.338134 -127.765982 
L 504.50671 -112.300553 
L 499.675286 -102.521443 
L 494.843863 -114.480068 
L 490.012439 -121.839041 
L 485.181015 -123.208475 
L 480.349591 -122.945401 
L 475.518167 -120.21698 
L 470.686743 -115.20567 
L 465.855319 -110.300482 
L 461.023895 -108.137387 
L 456.192471 -105.737393 
L 451.361047 -109.476134 
L 446.529624 -118.865055 
L 441.6982 -123.688142 
L 436.866776 -126.416063 
L 432.035352 -132.310405 
L 427.203928 -143.129625 
L 422.372504 -142.237105 
L 417.54108 -124.404942 
L 412.709656 -108.073467 
L 407.878232 -99.454719 
L 403.046809 -109.22446 
L 398.215385 -117.455746 
L 393.383961 -121.191418 
z
"/>
    </defs>
    <g clip-path="url(#pb9622c6230)">
     <use xlink:href="#m8731d25572" x="0" y="216" style="fill: #000080; fill-opacity: 0.2"/>
    </g>
   </g>
   <g id="matplotlib.axis_11">
    <g id="xtick_16">
     <g id="line2d_56">
      <g>
       <use xlink:href="#m1af3cc3362" x="439.282488" y="172.8" style="stroke: #000000; stroke-width: 0.8"/>
      </g>
     </g>
     <g id="text_24">
      <!-- 0 -->
      <g transform="translate(436.101238 187.398438) scale(0.1 -0.1)">
       <use xlink:href="#DejaVuSans-30"/>
      </g>
     </g>
    </g>
    <g id="xtick_17">
     <g id="line2d_57">
      <g>
       <use xlink:href="#m1af3cc3362" x="468.271031" y="172.8" style="stroke: #000000; stroke-width: 0.8"/>
      </g>
     </g>
     <g id="text_25">
      <!-- 6 -->
      <g transform="translate(465.089781 187.398438) scale(0.1 -0.1)">
       <use xlink:href="#DejaVuSans-36"/>
      </g>
     </g>
    </g>
    <g id="xtick_18">
     <g id="line2d_58">
      <g>
       <use xlink:href="#m1af3cc3362" x="497.259574" y="172.8" style="stroke: #000000; stroke-width: 0.8"/>
      </g>
     </g>
     <g id="text_26">
      <!-- 12 -->
      <g transform="translate(490.897074 187.398438) scale(0.1 -0.1)">
       <use xlink:href="#DejaVuSans-31"/>
       <use xlink:href="#DejaVuSans-32" transform="translate(63.623047 0)"/>
      </g>
     </g>
    </g>
   </g>
   <g id="matplotlib.axis_12">
    <g id="ytick_16">
     <g id="line2d_59">
      <g>
       <use xlink:href="#mb9d7aac1bc" x="434.451064" y="153.163636"/>
      </g>
     </g>
    </g>
    <g id="ytick_17">
     <g id="line2d_60">
      <g>
       <use xlink:href="#mb9d7aac1bc" x="434.451064" y="113.890909"/>
      </g>
     </g>
    </g>
    <g id="ytick_18">
     <g id="line2d_61">
      <g>
       <use xlink:href="#mb9d7aac1bc" x="434.451064" y="74.618182"/>
      </g>
     </g>
    </g>
   </g>
   <g id="line2d_62">
    <path d="M 393.383961 110.152975 
L 398.215385 113.782534 
L 403.046809 121.901406 
L 407.878232 131.841846 
L 412.709656 123.294999 
L 417.54108 111.444366 
L 422.372504 96.040359 
L 427.203928 95.842158 
L 432.035352 104.530743 
L 436.866776 108.885602 
L 441.6982 111.642645 
L 446.529624 116.858818 
L 451.361047 130.225315 
L 456.192471 132.349808 
L 461.023895 110.149686 
L 465.855319 87.949791 
L 470.686743 76.254334 
L 475.518167 83.236772 
L 480.349591 97.024424 
L 485.181015 102.095251 
L 490.012439 105.961239 
L 494.843863 114.932572 
L 499.675286 126.144328 
L 504.50671 121.964752 
L 509.338134 111.498895 
L 514.169558 101.032508 
L 519.000982 99.18456 
L 523.832406 106.294796 
L 528.66383 112.421401 
L 533.495254 114.113993 
L 538.326678 117.223497 
" clip-path="url(#pb9622c6230)" style="fill: none; stroke: #ff7f7f; stroke-width: 1.5; stroke-linecap: square"/>
   </g>
   <g id="line2d_63">
    <path d="M 393.383961 110.691582 
L 398.215385 113.669021 
L 403.046809 121.907703 
L 407.878232 131.833354 
L 412.709656 123.112579 
L 417.54108 106.602272 
L 422.372504 90.775687 
L 427.203928 89.446168 
L 432.035352 99.932197 
L 436.866776 105.078092 
L 441.6982 108.205248 
L 446.529624 112.910743 
L 451.361047 122.27845 
L 456.192471 124.012128 
L 461.023895 121.179546 
L 465.855319 118.604357 
L 470.686743 114.013949 
L 475.518167 110.092683 
L 480.349591 108.55283 
L 485.181015 108.262609 
L 490.012439 110.123496 
L 494.843863 118.336827 
L 499.675286 128.925999 
L 504.50671 118.189306 
L 509.338134 104.531104 
L 514.169558 92.291199 
L 519.000982 87.993308 
L 523.832406 96.526776 
L 528.66383 98.967187 
L 533.495254 103.201477 
L 538.326678 108.957539 
" clip-path="url(#pb9622c6230)" style="fill: none; stroke: #000080; stroke-width: 1.5; stroke-linecap: square"/>
   </g>
   <g id="line2d_64">
    <path d="M 439.282488 172.8 
L 439.282488 43.2 
" clip-path="url(#pb9622c6230)" style="fill: none; stroke: #000000; stroke-width: 0.8; stroke-linecap: square"/>
   </g>
   <g id="line2d_65">
    <path d="M 451.361047 172.8 
L 451.361047 43.2 
" clip-path="url(#pb9622c6230)" style="fill: none; stroke-dasharray: 2.96,1.28; stroke-dashoffset: 0; stroke: #000000; stroke-width: 0.8"/>
   </g>
   <g id="line2d_66">
    <path d="M 434.451064 113.890909 
L 497.259574 113.890909 
" clip-path="url(#pb9622c6230)" style="fill: none; stroke: #000000; stroke-width: 0.8; stroke-linecap: square"/>
   </g>
   <g id="patch_14">
    <path d="M 439.282488 172.8 
L 497.259574 172.8 
" style="fill: none; stroke: #000000; stroke-width: 0.8; stroke-linejoin: miter; stroke-linecap: square"/>
   </g>
   <g id="text_27">
    <!-- SPLa -->
    <g transform="translate(451.408444 37.2) scale(0.12 -0.12)">
     <defs>
      <path id="DejaVuSans-4c" d="M 628 4666 
L 1259 4666 
L 1259 531 
L 3531 531 
L 3531 0 
L 628 0 
L 628 4666 
z
" transform="scale(0.015625)"/>
      <path id="DejaVuSans-61" d="M 2194 1759 
Q 1497 1759 1228 1600 
Q 959 1441 959 1056 
Q 959 750 1161 570 
Q 1363 391 1709 391 
Q 2188 391 2477 730 
Q 2766 1069 2766 1631 
L 2766 1759 
L 2194 1759 
z
M 3341 1997 
L 3341 0 
L 2766 0 
L 2766 531 
Q 2569 213 2275 61 
Q 1981 -91 1556 -91 
Q 1019 -91 701 211 
Q 384 513 384 1019 
Q 384 1609 779 1909 
Q 1175 2209 1959 2209 
L 2766 2209 
L 2766 2266 
Q 2766 2663 2505 2880 
Q 2244 3097 1772 3097 
Q 1472 3097 1187 3025 
Q 903 2953 641 2809 
L 641 3341 
Q 956 3463 1253 3523 
Q 1550 3584 1831 3584 
Q 2591 3584 2966 3190 
Q 3341 2797 3341 1997 
z
" transform="scale(0.015625)"/>
     </defs>
     <use xlink:href="#DejaVuSans-53"/>
     <use xlink:href="#DejaVuSans-50" transform="translate(63.476562 0)"/>
     <use xlink:href="#DejaVuSans-4c" transform="translate(123.779297 0)"/>
     <use xlink:href="#DejaVuSans-61" transform="translate(179.492188 0)"/>
    </g>
   </g>
  </g>
  <g id="axes_7">
   <g id="patch_15">
    <path d="M 509.821277 172.8 
L 572.629787 172.8 
L 572.629787 43.2 
L 509.821277 43.2 
z
" style="fill: #ffffff"/>
   </g>
   <g id="FillBetweenPolyCollection_13">
    <defs>
     <path id="mbc70d57c99" d="M 468.754173 -122.391345 
L 468.754173 -91.386354 
L 473.585597 -84.737444 
L 478.417021 -77.769789 
L 483.248445 -71.498824 
L 488.079869 -79.672253 
L 492.911293 -89.790006 
L 497.742717 -100.401494 
L 502.574141 -98.391475 
L 507.405565 -93.960797 
L 512.236989 -89.918213 
L 517.068412 -88.075621 
L 521.899836 -82.539737 
L 526.73126 -72.754661 
L 531.562684 -73.815283 
L 536.394108 -92.76626 
L 541.225532 -108.338976 
L 546.056956 -115.062089 
L 550.88838 -109.527566 
L 555.719804 -102.470415 
L 560.551227 -98.369509 
L 565.382651 -90.996261 
L 570.214075 -81.990642 
L 575.045499 -71.364776 
L 579.876923 -77.667108 
L 584.708347 -86.416246 
L 589.539771 -94.421713 
L 594.371195 -95.048752 
L 599.202619 -94.081205 
L 604.034043 -90.454156 
L 608.865466 -88.485205 
L 613.69689 -83.240408 
L 613.69689 -112.723098 
L 613.69689 -112.723098 
L 608.865466 -118.514725 
L 604.034043 -121.061077 
L 599.202619 -124.354149 
L 594.371195 -125.237384 
L 589.539771 -122.800147 
L 584.708347 -114.643191 
L 579.876923 -105.874064 
L 575.045499 -100.530313 
L 570.214075 -108.57835 
L 565.382651 -122.506751 
L 560.551227 -129.508765 
L 555.719804 -135.501433 
L 550.88838 -143.653598 
L 546.056956 -145.697762 
L 541.225532 -137.329396 
L 536.394108 -121.308623 
L 531.562684 -105.808828 
L 526.73126 -102.106081 
L 521.899836 -112.501566 
L 517.068412 -120.874743 
L 512.236989 -124.174467 
L 507.405565 -126.680814 
L 502.574141 -130.160477 
L 497.742717 -129.986943 
L 492.911293 -120.988736 
L 488.079869 -109.327894 
L 483.248445 -101.956906 
L 478.417021 -108.081477 
L 473.585597 -118.148016 
L 468.754173 -122.391345 
z
"/>
    </defs>
    <g clip-path="url(#p8f32b1de5e)">
     <use xlink:href="#mbc70d57c99" x="0" y="216" style="fill: #ff7f7f; fill-opacity: 0.2"/>
    </g>
   </g>
   <g id="FillBetweenPolyCollection_14">
    <defs>
     <path id="mef00e8726c" d="M 468.754173 -119.426495 
L 468.754173 -88.802558 
L 473.585597 -85.865531 
L 478.417021 -79.368385 
L 483.248445 -71.140045 
L 488.079869 -80.384955 
L 492.911293 -92.131341 
L 497.742717 -103.333568 
L 502.574141 -102.343606 
L 507.405565 -97.778386 
L 512.236989 -94.186045 
L 517.068412 -94.352659 
L 521.899836 -87.071977 
L 526.73126 -75.627066 
L 531.562684 -78.319145 
L 536.394108 -80.840027 
L 541.225532 -83.398 
L 546.056956 -83.888881 
L 550.88838 -86.933419 
L 555.719804 -85.843777 
L 560.551227 -92.951321 
L 565.382651 -89.842332 
L 570.214075 -82.850532 
L 575.045499 -83.165415 
L 579.876923 -89.920741 
L 584.708347 -98.488761 
L 589.539771 -103.662928 
L 594.371195 -104.806053 
L 599.202619 -99.085242 
L 604.034043 -100.538024 
L 608.865466 -96.012617 
L 613.69689 -89.122677 
L 613.69689 -118.588074 
L 613.69689 -118.588074 
L 608.865466 -128.13164 
L 604.034043 -131.241072 
L 599.202619 -134.874912 
L 594.371195 -138.493522 
L 589.539771 -135.36008 
L 584.708347 -129.200674 
L 579.876923 -118.677813 
L 575.045499 -111.61168 
L 570.214075 -118.141734 
L 565.382651 -123.027649 
L 560.551227 -122.898958 
L 555.719804 -122.461645 
L 550.88838 -116.32406 
L 546.056956 -111.074583 
L 541.225532 -108.721324 
L 536.394108 -107.338286 
L 531.562684 -104.24027 
L 526.73126 -107.470109 
L 521.899836 -117.453921 
L 517.068412 -124.194942 
L 512.236989 -127.337879 
L 507.405565 -130.863755 
L 502.574141 -135.404516 
L 497.742717 -135.491573 
L 492.911293 -121.320332 
L 488.079869 -110.853637 
L 483.248445 -103.068755 
L 478.417021 -107.682116 
L 473.585597 -115.278197 
L 468.754173 -119.426495 
z
"/>
    </defs>
    <g clip-path="url(#p8f32b1de5e)">
     <use xlink:href="#mef00e8726c" x="0" y="216" style="fill: #000080; fill-opacity: 0.2"/>
    </g>
   </g>
   <g id="matplotlib.axis_13">
    <g id="xtick_19">
     <g id="line2d_67">
      <g>
       <use xlink:href="#m1af3cc3362" x="514.6527" y="172.8" style="stroke: #000000; stroke-width: 0.8"/>
      </g>
     </g>
     <g id="text_28">
      <!-- 0 -->
      <g transform="translate(511.47145 187.398438) scale(0.1 -0.1)">
       <use xlink:href="#DejaVuSans-30"/>
      </g>
     </g>
    </g>
    <g id="xtick_20">
     <g id="line2d_68">
      <g>
       <use xlink:href="#m1af3cc3362" x="543.641244" y="172.8" style="stroke: #000000; stroke-width: 0.8"/>
      </g>
     </g>
     <g id="text_29">
      <!-- 6 -->
      <g transform="translate(540.459994 187.398438) scale(0.1 -0.1)">
       <use xlink:href="#DejaVuSans-36"/>
      </g>
     </g>
    </g>
    <g id="xtick_21">
     <g id="line2d_69">
      <g>
       <use xlink:href="#m1af3cc3362" x="572.629787" y="172.8" style="stroke: #000000; stroke-width: 0.8"/>
      </g>
     </g>
     <g id="text_30">
      <!-- 12 -->
      <g transform="translate(566.267287 187.398438) scale(0.1 -0.1)">
       <use xlink:href="#DejaVuSans-31"/>
       <use xlink:href="#DejaVuSans-32" transform="translate(63.623047 0)"/>
      </g>
     </g>
    </g>
   </g>
   <g id="matplotlib.axis_14">
    <g id="ytick_19">
     <g id="line2d_70">
      <g>
       <use xlink:href="#mb9d7aac1bc" x="509.821277" y="153.163636"/>
      </g>
     </g>
    </g>
    <g id="ytick_20">
     <g id="line2d_71">
      <g>
       <use xlink:href="#mb9d7aac1bc" x="509.821277" y="113.890909"/>
      </g>
     </g>
    </g>
    <g id="ytick_21">
     <g id="line2d_72">
      <g>
       <use xlink:href="#mb9d7aac1bc" x="509.821277" y="74.618182"/>
      </g>
     </g>
    </g>
   </g>
   <g id="line2d_73">
    <path d="M 468.754173 109.11115 
L 473.585597 114.55727 
L 478.417021 123.074367 
L 483.248445 129.272135 
L 488.079869 121.499927 
L 492.911293 110.610629 
L 497.742717 100.805781 
L 502.574141 101.724024 
L 507.405565 105.679194 
L 512.236989 108.95366 
L 517.068412 111.524818 
L 521.899836 118.479348 
L 526.73126 128.569629 
L 531.562684 126.187944 
L 536.394108 108.962559 
L 541.225532 93.165814 
L 546.056956 85.620074 
L 550.88838 89.409418 
L 555.719804 97.014076 
L 560.551227 102.060863 
L 565.382651 109.248494 
L 570.214075 120.715504 
L 575.045499 130.052456 
L 579.876923 124.229414 
L 584.708347 115.470282 
L 589.539771 107.38907 
L 594.371195 105.856932 
L 599.202619 106.782323 
L 604.034043 110.242384 
L 608.865466 112.500035 
L 613.69689 118.018247 
" clip-path="url(#p8f32b1de5e)" style="fill: none; stroke: #ff7f7f; stroke-width: 1.5; stroke-linecap: square"/>
   </g>
   <g id="line2d_74">
    <path d="M 468.754173 111.885473 
L 473.585597 115.428136 
L 478.417021 122.47475 
L 483.248445 128.8956 
L 488.079869 120.380704 
L 492.911293 109.274163 
L 497.742717 96.58743 
L 502.574141 97.125939 
L 507.405565 101.678929 
L 512.236989 105.238038 
L 517.068412 106.726199 
L 521.899836 113.737051 
L 526.73126 124.451412 
L 531.562684 124.720292 
L 536.394108 121.910843 
L 541.225532 119.940338 
L 546.056956 118.518268 
L 550.88838 114.37126 
L 555.719804 111.847289 
L 560.551227 108.07486 
L 565.382651 109.565009 
L 570.214075 115.503867 
L 575.045499 118.611453 
L 579.876923 111.700723 
L 584.708347 102.155283 
L 589.539771 96.488496 
L 594.371195 94.350212 
L 599.202619 99.019923 
L 604.034043 100.110452 
L 608.865466 103.927872 
L 613.69689 112.144625 
" clip-path="url(#p8f32b1de5e)" style="fill: none; stroke: #000080; stroke-width: 1.5; stroke-linecap: square"/>
   </g>
   <g id="line2d_75">
    <path d="M 514.6527 172.8 
L 514.6527 43.2 
" clip-path="url(#p8f32b1de5e)" style="fill: none; stroke: #000000; stroke-width: 0.8; stroke-linecap: square"/>
   </g>
   <g id="line2d_76">
    <path d="M 526.73126 172.8 
L 526.73126 43.2 
" clip-path="url(#p8f32b1de5e)" style="fill: none; stroke-dasharray: 2.96,1.28; stroke-dashoffset: 0; stroke: #000000; stroke-width: 0.8"/>
   </g>
   <g id="line2d_77">
    <path d="M 509.821277 113.890909 
L 572.629787 113.890909 
" clip-path="url(#p8f32b1de5e)" style="fill: none; stroke: #000000; stroke-width: 0.8; stroke-linecap: square"/>
   </g>
   <g id="patch_16">
    <path d="M 514.6527 172.8 
L 572.629787 172.8 
" style="fill: none; stroke: #000000; stroke-width: 0.8; stroke-linejoin: miter; stroke-linecap: square"/>
   </g>
   <g id="text_31">
    <!-- SPLp -->
    <g transform="translate(526.646469 37.2) scale(0.12 -0.12)">
     <defs>
      <path id="DejaVuSans-70" d="M 1159 525 
L 1159 -1331 
L 581 -1331 
L 581 3500 
L 1159 3500 
L 1159 2969 
Q 1341 3281 1617 3432 
Q 1894 3584 2278 3584 
Q 2916 3584 3314 3078 
Q 3713 2572 3713 1747 
Q 3713 922 3314 415 
Q 2916 -91 2278 -91 
Q 1894 -91 1617 61 
Q 1341 213 1159 525 
z
M 3116 1747 
Q 3116 2381 2855 2742 
Q 2594 3103 2138 3103 
Q 1681 3103 1420 2742 
Q 1159 2381 1159 1747 
Q 1159 1113 1420 752 
Q 1681 391 2138 391 
Q 2594 391 2855 752 
Q 3116 1113 3116 1747 
z
" transform="scale(0.015625)"/>
     </defs>
     <use xlink:href="#DejaVuSans-53"/>
     <use xlink:href="#DejaVuSans-50" transform="translate(63.476562 0)"/>
     <use xlink:href="#DejaVuSans-4c" transform="translate(123.779297 0)"/>
     <use xlink:href="#DejaVuSans-70" transform="translate(179.492188 0)"/>
    </g>
   </g>
  </g>
  <g id="axes_8">
   <g id="patch_17">
    <path d="M 585.191489 172.8 
L 648 172.8 
L 648 43.2 
L 585.191489 43.2 
z
" style="fill: #ffffff"/>
   </g>
   <g id="FillBetweenPolyCollection_15">
    <defs>
     <path id="mc5ed01a350" d="M 544.124386 -117.478522 
L 544.124386 -92.764513 
L 548.95581 -91.048495 
L 553.787234 -86.05956 
L 558.618658 -80.253371 
L 563.450082 -85.915647 
L 568.281506 -87.442645 
L 573.11293 -93.073618 
L 577.944354 -90.436196 
L 582.775777 -90.283873 
L 587.607201 -92.969694 
L 592.438625 -93.042572 
L 597.270049 -89.790149 
L 602.101473 -83.620136 
L 606.932897 -83.700765 
L 611.764321 -93.443517 
L 616.595745 -102.982867 
L 621.427169 -104.374022 
L 626.258592 -102.553892 
L 631.090016 -99.997136 
L 635.92144 -97.855869 
L 640.752864 -93.995703 
L 645.584288 -88.25655 
L 650.415712 -80.16805 
L 655.247136 -81.113464 
L 660.07856 -81.925948 
L 664.909984 -85.890988 
L 669.741408 -85.466562 
L 674.572831 -87.605011 
L 679.404255 -89.912232 
L 684.235679 -90.148836 
L 689.067103 -88.779289 
L 689.067103 -112.282371 
L 689.067103 -112.282371 
L 684.235679 -114.611802 
L 679.404255 -113.15391 
L 674.572831 -113.278365 
L 669.741408 -110.122803 
L 664.909984 -110.486106 
L 660.07856 -107.973319 
L 655.247136 -106.854454 
L 650.415712 -105.481357 
L 645.584288 -110.927538 
L 640.752864 -118.00405 
L 635.92144 -122.84107 
L 631.090016 -127.854628 
L 626.258592 -130.805168 
L 621.427169 -130.403974 
L 616.595745 -128.762912 
L 611.764321 -120.128839 
L 606.932897 -111.454608 
L 602.101473 -108.277703 
L 597.270049 -113.968053 
L 592.438625 -117.228433 
L 587.607201 -117.953303 
L 582.775777 -117.37482 
L 577.944354 -116.311307 
L 573.11293 -119.494263 
L 568.281506 -113.253513 
L 563.450082 -111.151941 
L 558.618658 -106.921097 
L 553.787234 -111.183669 
L 548.95581 -115.069349 
L 544.124386 -117.478522 
z
"/>
    </defs>
    <g clip-path="url(#p6db4293992)">
     <use xlink:href="#mc5ed01a350" x="0" y="216" style="fill: #ff7f7f; fill-opacity: 0.2"/>
    </g>
   </g>
   <g id="FillBetweenPolyCollection_16">
    <defs>
     <path id="mc8178254b3" d="M 544.124386 -117.040149 
L 544.124386 -92.530464 
L 548.95581 -90.903453 
L 553.787234 -87.016464 
L 558.618658 -81.926246 
L 563.450082 -85.177928 
L 568.281506 -89.887726 
L 573.11293 -95.978102 
L 577.944354 -92.824972 
L 582.775777 -92.914205 
L 587.607201 -94.492765 
L 592.438625 -95.166277 
L 597.270049 -92.361168 
L 602.101473 -86.17001 
L 606.932897 -81.691103 
L 611.764321 -77.291716 
L 616.595745 -73.270078 
L 621.427169 -71.665999 
L 626.258592 -74.458153 
L 631.090016 -84.481645 
L 635.92144 -91.413069 
L 640.752864 -95.003194 
L 645.584288 -92.149305 
L 650.415712 -89.940623 
L 655.247136 -94.116531 
L 660.07856 -96.551145 
L 664.909984 -101.575501 
L 669.741408 -98.988191 
L 674.572831 -97.45806 
L 679.404255 -101.161284 
L 684.235679 -99.75808 
L 689.067103 -96.197779 
L 689.067103 -120.356461 
L 689.067103 -120.356461 
L 684.235679 -124.926818 
L 679.404255 -129.524348 
L 674.572831 -128.084978 
L 669.741408 -126.925561 
L 664.909984 -127.872065 
L 660.07856 -122.783708 
L 655.247136 -119.781491 
L 650.415712 -115.054297 
L 645.584288 -119.434776 
L 640.752864 -119.880117 
L 635.92144 -115.150632 
L 631.090016 -107.650857 
L 626.258592 -98.579282 
L 621.427169 -96.002186 
L 616.595745 -96.898352 
L 611.764321 -100.545635 
L 606.932897 -105.958136 
L 602.101473 -112.241747 
L 597.270049 -116.241792 
L 592.438625 -120.278335 
L 587.607201 -122.149591 
L 582.775777 -122.053968 
L 577.944354 -121.090435 
L 573.11293 -123.520335 
L 568.281506 -116.282936 
L 563.450082 -111.501708 
L 558.618658 -106.816637 
L 553.787234 -110.908054 
L 548.95581 -114.653307 
L 544.124386 -117.040149 
z
"/>
    </defs>
    <g clip-path="url(#p6db4293992)">
     <use xlink:href="#mc8178254b3" x="0" y="216" style="fill: #000080; fill-opacity: 0.2"/>
    </g>
   </g>
   <g id="matplotlib.axis_15">
    <g id="xtick_22">
     <g id="line2d_78">
      <g>
       <use xlink:href="#m1af3cc3362" x="590.022913" y="172.8" style="stroke: #000000; stroke-width: 0.8"/>
      </g>
     </g>
     <g id="text_32">
      <!-- 0 -->
      <g transform="translate(586.841663 187.398438) scale(0.1 -0.1)">
       <use xlink:href="#DejaVuSans-30"/>
      </g>
     </g>
    </g>
    <g id="xtick_23">
     <g id="line2d_79">
      <g>
       <use xlink:href="#m1af3cc3362" x="619.011457" y="172.8" style="stroke: #000000; stroke-width: 0.8"/>
      </g>
     </g>
     <g id="text_33">
      <!-- 6 -->
      <g transform="translate(615.830207 187.398438) scale(0.1 -0.1)">
       <use xlink:href="#DejaVuSans-36"/>
      </g>
     </g>
    </g>
    <g id="xtick_24">
     <g id="line2d_80">
      <g>
       <use xlink:href="#m1af3cc3362" x="648" y="172.8" style="stroke: #000000; stroke-width: 0.8"/>
      </g>
     </g>
     <g id="text_34">
      <!-- 12 -->
      <g transform="translate(641.6375 187.398438) scale(0.1 -0.1)">
       <use xlink:href="#DejaVuSans-31"/>
       <use xlink:href="#DejaVuSans-32" transform="translate(63.623047 0)"/>
      </g>
     </g>
    </g>
   </g>
   <g id="matplotlib.axis_16">
    <g id="ytick_22">
     <g id="line2d_81">
      <g>
       <use xlink:href="#mb9d7aac1bc" x="585.191489" y="153.163636"/>
      </g>
     </g>
    </g>
    <g id="ytick_23">
     <g id="line2d_82">
      <g>
       <use xlink:href="#mb9d7aac1bc" x="585.191489" y="113.890909"/>
      </g>
     </g>
    </g>
    <g id="ytick_24">
     <g id="line2d_83">
      <g>
       <use xlink:href="#mb9d7aac1bc" x="585.191489" y="74.618182"/>
      </g>
     </g>
    </g>
   </g>
   <g id="line2d_84">
    <path d="M 544.124386 110.878482 
L 548.95581 112.941078 
L 553.787234 117.378385 
L 558.618658 122.412766 
L 563.450082 117.466206 
L 568.281506 115.651921 
L 573.11293 109.71606 
L 577.944354 112.626249 
L 582.775777 112.170654 
L 587.607201 110.538501 
L 592.438625 110.864498 
L 597.270049 114.120899 
L 602.101473 120.051081 
L 606.932897 118.422313 
L 611.764321 109.213822 
L 616.595745 100.127111 
L 621.427169 98.611002 
L 626.258592 99.32047 
L 631.090016 102.074118 
L 635.92144 105.65153 
L 640.752864 110.000123 
L 645.584288 116.407956 
L 650.415712 123.175297 
L 655.247136 122.016041 
L 660.07856 121.050366 
L 664.909984 117.811453 
L 669.741408 118.205317 
L 674.572831 115.558312 
L 679.404255 114.466929 
L 684.235679 113.619681 
L 689.067103 115.46917 
" clip-path="url(#p6db4293992)" style="fill: none; stroke: #ff7f7f; stroke-width: 1.5; stroke-linecap: square"/>
   </g>
   <g id="line2d_85">
    <path d="M 544.124386 111.214694 
L 548.95581 113.22162 
L 553.787234 117.037741 
L 558.618658 121.628558 
L 563.450082 117.660182 
L 568.281506 112.914669 
L 573.11293 106.250782 
L 577.944354 109.042297 
L 582.775777 108.515914 
L 587.607201 107.678822 
L 592.438625 108.277694 
L 597.270049 111.69852 
L 602.101473 116.794121 
L 606.932897 122.175381 
L 611.764321 127.081324 
L 616.595745 130.915785 
L 621.427169 132.165908 
L 626.258592 129.481283 
L 631.090016 119.933749 
L 635.92144 112.71815 
L 640.752864 108.558344 
L 645.584288 110.20796 
L 650.415712 113.50254 
L 655.247136 109.050989 
L 660.07856 106.332573 
L 664.909984 101.276217 
L 669.741408 103.043124 
L 674.572831 103.228481 
L 679.404255 100.657184 
L 684.235679 103.657551 
L 689.067103 107.72288 
" clip-path="url(#p6db4293992)" style="fill: none; stroke: #000080; stroke-width: 1.5; stroke-linecap: square"/>
   </g>
   <g id="line2d_86">
    <path d="M 590.022913 172.8 
L 590.022913 43.2 
" clip-path="url(#p6db4293992)" style="fill: none; stroke: #000000; stroke-width: 0.8; stroke-linecap: square"/>
   </g>
   <g id="line2d_87">
    <path d="M 602.101473 172.8 
L 602.101473 43.2 
" clip-path="url(#p6db4293992)" style="fill: none; stroke-dasharray: 2.96,1.28; stroke-dashoffset: 0; stroke: #000000; stroke-width: 0.8"/>
   </g>
   <g id="line2d_88">
    <path d="M 585.191489 113.890909 
L 648 113.890909 
" clip-path="url(#p6db4293992)" style="fill: none; stroke: #000000; stroke-width: 0.8; stroke-linecap: square"/>
   </g>
   <g id="patch_18">
    <path d="M 590.022913 172.8 
L 648 172.8 
" style="fill: none; stroke: #000000; stroke-width: 0.8; stroke-linejoin: miter; stroke-linecap: square"/>
   </g>
   <g id="text_35">
    <!-- V1 -->
    <g transform="translate(608.67387 37.2) scale(0.12 -0.12)">
     <defs>
      <path id="DejaVuSans-56" d="M 1831 0 
L 50 4666 
L 709 4666 
L 2188 738 
L 3669 4666 
L 4325 4666 
L 2547 0 
L 1831 0 
z
" transform="scale(0.015625)"/>
     </defs>
     <use xlink:href="#DejaVuSans-56"/>
     <use xlink:href="#DejaVuSans-31" transform="translate(68.408203 0)"/>
    </g>
   </g>
   <g id="legend_1">
    <g id="line2d_89">
     <path d="M 586.076562 198.858438 
L 596.076562 198.858438 
L 606.076562 198.858438 
" style="fill: none; stroke: #ff7f7f; stroke-width: 1.5; stroke-linecap: square"/>
    </g>
    <g id="text_36">
     <!-- go -->
     <g transform="translate(614.076562 202.358438) scale(0.1 -0.1)">
      <defs>
       <path id="DejaVuSans-67" d="M 2906 1791 
Q 2906 2416 2648 2759 
Q 2391 3103 1925 3103 
Q 1463 3103 1205 2759 
Q 947 2416 947 1791 
Q 947 1169 1205 825 
Q 1463 481 1925 481 
Q 2391 481 2648 825 
Q 2906 1169 2906 1791 
z
M 3481 434 
Q 3481 -459 3084 -895 
Q 2688 -1331 1869 -1331 
Q 1566 -1331 1297 -1286 
Q 1028 -1241 775 -1147 
L 775 -588 
Q 1028 -725 1275 -790 
Q 1522 -856 1778 -856 
Q 2344 -856 2625 -561 
Q 2906 -266 2906 331 
L 2906 616 
Q 2728 306 2450 153 
Q 2172 0 1784 0 
Q 1141 0 747 490 
Q 353 981 353 1791 
Q 353 2603 747 3093 
Q 1141 3584 1784 3584 
Q 2172 3584 2450 3431 
Q 2728 3278 2906 2969 
L 2906 3500 
L 3481 3500 
L 3481 434 
z
" transform="scale(0.015625)"/>
       <path id="DejaVuSans-6f" d="M 1959 3097 
Q 1497 3097 1228 2736 
Q 959 2375 959 1747 
Q 959 1119 1226 758 
Q 1494 397 1959 397 
Q 2419 397 2687 759 
Q 2956 1122 2956 1747 
Q 2956 2369 2687 2733 
Q 2419 3097 1959 3097 
z
M 1959 3584 
Q 2709 3584 3137 3096 
Q 3566 2609 3566 1747 
Q 3566 888 3137 398 
Q 2709 -91 1959 -91 
Q 1206 -91 779 398 
Q 353 888 353 1747 
Q 353 2609 779 3096 
Q 1206 3584 1959 3584 
z
" transform="scale(0.015625)"/>
      </defs>
      <use xlink:href="#DejaVuSans-67"/>
      <use xlink:href="#DejaVuSans-6f" transform="translate(63.476562 0)"/>
     </g>
    </g>
    <g id="line2d_90">
     <path d="M 586.076562 213.536563 
L 596.076562 213.536563 
L 606.076562 213.536563 
" style="fill: none; stroke: #000080; stroke-width: 1.5; stroke-linecap: square"/>
    </g>
    <g id="text_37">
     <!-- nogo -->
     <g transform="translate(614.076562 217.036563) scale(0.1 -0.1)">
      <defs>
       <path id="DejaVuSans-6e" d="M 3513 2113 
L 3513 0 
L 2938 0 
L 2938 2094 
Q 2938 2591 2744 2837 
Q 2550 3084 2163 3084 
Q 1697 3084 1428 2787 
Q 1159 2491 1159 1978 
L 1159 0 
L 581 0 
L 581 3500 
L 1159 3500 
L 1159 2956 
Q 1366 3272 1645 3428 
Q 1925 3584 2291 3584 
Q 2894 3584 3203 3211 
Q 3513 2838 3513 2113 
z
" transform="scale(0.015625)"/>
      </defs>
      <use xlink:href="#DejaVuSans-6e"/>
      <use xlink:href="#DejaVuSans-6f" transform="translate(63.378906 0)"/>
      <use xlink:href="#DejaVuSans-67" transform="translate(124.560547 0)"/>
      <use xlink:href="#DejaVuSans-6f" transform="translate(188.037109 0)"/>
     </g>
    </g>
   </g>
  </g>
  <g id="text_38">
   <!-- activation (a.u.) -->
   <g transform="translate(23.518125 155.597813) rotate(-90) scale(0.12 -0.12)">
    <defs>
     <path id="DejaVuSans-63" d="M 3122 3366 
L 3122 2828 
Q 2878 2963 2633 3030 
Q 2388 3097 2138 3097 
Q 1578 3097 1268 2742 
Q 959 2388 959 1747 
Q 959 1106 1268 751 
Q 1578 397 2138 397 
Q 2388 397 2633 464 
Q 2878 531 3122 666 
L 3122 134 
Q 2881 22 2623 -34 
Q 2366 -91 2075 -91 
Q 1284 -91 818 406 
Q 353 903 353 1747 
Q 353 2603 823 3093 
Q 1294 3584 2113 3584 
Q 2378 3584 2631 3529 
Q 2884 3475 3122 3366 
z
" transform="scale(0.015625)"/>
     <path id="DejaVuSans-74" d="M 1172 4494 
L 1172 3500 
L 2356 3500 
L 2356 3053 
L 1172 3053 
L 1172 1153 
Q 1172 725 1289 603 
Q 1406 481 1766 481 
L 2356 481 
L 2356 0 
L 1766 0 
Q 1100 0 847 248 
Q 594 497 594 1153 
L 594 3053 
L 172 3053 
L 172 3500 
L 594 3500 
L 594 4494 
L 1172 4494 
z
" transform="scale(0.015625)"/>
     <path id="DejaVuSans-69" d="M 603 3500 
L 1178 3500 
L 1178 0 
L 603 0 
L 603 3500 
z
M 603 4863 
L 1178 4863 
L 1178 4134 
L 603 4134 
L 603 4863 
z
" transform="scale(0.015625)"/>
     <path id="DejaVuSans-20" transform="scale(0.015625)"/>
     <path id="DejaVuSans-28" d="M 1984 4856 
Q 1566 4138 1362 3434 
Q 1159 2731 1159 2009 
Q 1159 1288 1364 580 
Q 1569 -128 1984 -844 
L 1484 -844 
Q 1016 -109 783 600 
Q 550 1309 550 2009 
Q 550 2706 781 3412 
Q 1013 4119 1484 4856 
L 1984 4856 
z
" transform="scale(0.015625)"/>
     <path id="DejaVuSans-2e" d="M 684 794 
L 1344 794 
L 1344 0 
L 684 0 
L 684 794 
z
" transform="scale(0.015625)"/>
     <path id="DejaVuSans-75" d="M 544 1381 
L 544 3500 
L 1119 3500 
L 1119 1403 
Q 1119 906 1312 657 
Q 1506 409 1894 409 
Q 2359 409 2629 706 
Q 2900 1003 2900 1516 
L 2900 3500 
L 3475 3500 
L 3475 0 
L 2900 0 
L 2900 538 
Q 2691 219 2414 64 
Q 2138 -91 1772 -91 
Q 1169 -91 856 284 
Q 544 659 544 1381 
z
M 1991 3584 
L 1991 3584 
z
" transform="scale(0.015625)"/>
     <path id="DejaVuSans-29" d="M 513 4856 
L 1013 4856 
Q 1481 4119 1714 3412 
Q 1947 2706 1947 2009 
Q 1947 1309 1714 600 
Q 1481 -109 1013 -844 
L 513 -844 
Q 928 -128 1133 580 
Q 1338 1288 1338 2009 
Q 1338 2731 1133 3434 
Q 928 4138 513 4856 
z
" transform="scale(0.015625)"/>
    </defs>
    <use xlink:href="#DejaVuSans-61"/>
    <use xlink:href="#DejaVuSans-63" transform="translate(61.279297 0)"/>
    <use xlink:href="#DejaVuSans-74" transform="translate(116.259766 0)"/>
    <use xlink:href="#DejaVuSans-69" transform="translate(155.46875 0)"/>
    <use xlink:href="#DejaVuSans-76" transform="translate(183.251953 0)"/>
    <use xlink:href="#DejaVuSans-61" transform="translate(242.431641 0)"/>
    <use xlink:href="#DejaVuSans-74" transform="translate(303.710938 0)"/>
    <use xlink:href="#DejaVuSans-69" transform="translate(342.919922 0)"/>
    <use xlink:href="#DejaVuSans-6f" transform="translate(370.703125 0)"/>
    <use xlink:href="#DejaVuSans-6e" transform="translate(431.884766 0)"/>
    <use xlink:href="#DejaVuSans-20" transform="translate(495.263672 0)"/>
    <use xlink:href="#DejaVuSans-28" transform="translate(527.050781 0)"/>
    <use xlink:href="#DejaVuSans-61" transform="translate(566.064453 0)"/>
    <use xlink:href="#DejaVuSans-2e" transform="translate(627.34375 0)"/>
    <use xlink:href="#DejaVuSans-75" transform="translate(659.130859 0)"/>
    <use xlink:href="#DejaVuSans-2e" transform="translate(722.509766 0)"/>
    <use xlink:href="#DejaVuSans-29" transform="translate(754.296875 0)"/>
   </g>
  </g>
  <g id="text_39">
   <!-- time relative to cue presentation onset (s) -->
   <g transform="translate(233.131875 211.344375) scale(0.12 -0.12)">
    <defs>
     <path id="DejaVuSans-6d" d="M 3328 2828 
Q 3544 3216 3844 3400 
Q 4144 3584 4550 3584 
Q 5097 3584 5394 3201 
Q 5691 2819 5691 2113 
L 5691 0 
L 5113 0 
L 5113 2094 
Q 5113 2597 4934 2840 
Q 4756 3084 4391 3084 
Q 3944 3084 3684 2787 
Q 3425 2491 3425 1978 
L 3425 0 
L 2847 0 
L 2847 2094 
Q 2847 2600 2669 2842 
Q 2491 3084 2119 3084 
Q 1678 3084 1418 2786 
Q 1159 2488 1159 1978 
L 1159 0 
L 581 0 
L 581 3500 
L 1159 3500 
L 1159 2956 
Q 1356 3278 1631 3431 
Q 1906 3584 2284 3584 
Q 2666 3584 2933 3390 
Q 3200 3197 3328 2828 
z
" transform="scale(0.015625)"/>
     <path id="DejaVuSans-65" d="M 3597 1894 
L 3597 1613 
L 953 1613 
Q 991 1019 1311 708 
Q 1631 397 2203 397 
Q 2534 397 2845 478 
Q 3156 559 3463 722 
L 3463 178 
Q 3153 47 2828 -22 
Q 2503 -91 2169 -91 
Q 1331 -91 842 396 
Q 353 884 353 1716 
Q 353 2575 817 3079 
Q 1281 3584 2069 3584 
Q 2775 3584 3186 3129 
Q 3597 2675 3597 1894 
z
M 3022 2063 
Q 3016 2534 2758 2815 
Q 2500 3097 2075 3097 
Q 1594 3097 1305 2825 
Q 1016 2553 972 2059 
L 3022 2063 
z
" transform="scale(0.015625)"/>
     <path id="DejaVuSans-72" d="M 2631 2963 
Q 2534 3019 2420 3045 
Q 2306 3072 2169 3072 
Q 1681 3072 1420 2755 
Q 1159 2438 1159 1844 
L 1159 0 
L 581 0 
L 581 3500 
L 1159 3500 
L 1159 2956 
Q 1341 3275 1631 3429 
Q 1922 3584 2338 3584 
Q 2397 3584 2469 3576 
Q 2541 3569 2628 3553 
L 2631 2963 
z
" transform="scale(0.015625)"/>
     <path id="DejaVuSans-6c" d="M 603 4863 
L 1178 4863 
L 1178 0 
L 603 0 
L 603 4863 
z
" transform="scale(0.015625)"/>
     <path id="DejaVuSans-73" d="M 2834 3397 
L 2834 2853 
Q 2591 2978 2328 3040 
Q 2066 3103 1784 3103 
Q 1356 3103 1142 2972 
Q 928 2841 928 2578 
Q 928 2378 1081 2264 
Q 1234 2150 1697 2047 
L 1894 2003 
Q 2506 1872 2764 1633 
Q 3022 1394 3022 966 
Q 3022 478 2636 193 
Q 2250 -91 1575 -91 
Q 1294 -91 989 -36 
Q 684 19 347 128 
L 347 722 
Q 666 556 975 473 
Q 1284 391 1588 391 
Q 1994 391 2212 530 
Q 2431 669 2431 922 
Q 2431 1156 2273 1281 
Q 2116 1406 1581 1522 
L 1381 1569 
Q 847 1681 609 1914 
Q 372 2147 372 2553 
Q 372 3047 722 3315 
Q 1072 3584 1716 3584 
Q 2034 3584 2315 3537 
Q 2597 3491 2834 3397 
z
" transform="scale(0.015625)"/>
    </defs>
    <use xlink:href="#DejaVuSans-74"/>
    <use xlink:href="#DejaVuSans-69" transform="translate(39.208984 0)"/>
    <use xlink:href="#DejaVuSans-6d" transform="translate(66.992188 0)"/>
    <use xlink:href="#DejaVuSans-65" transform="translate(164.404297 0)"/>
    <use xlink:href="#DejaVuSans-20" transform="translate(225.927734 0)"/>
    <use xlink:href="#DejaVuSans-72" transform="translate(257.714844 0)"/>
    <use xlink:href="#DejaVuSans-65" transform="translate(296.578125 0)"/>
    <use xlink:href="#DejaVuSans-6c" transform="translate(358.101562 0)"/>
    <use xlink:href="#DejaVuSans-61" transform="translate(385.884766 0)"/>
    <use xlink:href="#DejaVuSans-74" transform="translate(447.164062 0)"/>
    <use xlink:href="#DejaVuSans-69" transform="translate(486.373047 0)"/>
    <use xlink:href="#DejaVuSans-76" transform="translate(514.15625 0)"/>
    <use xlink:href="#DejaVuSans-65" transform="translate(573.335938 0)"/>
    <use xlink:href="#DejaVuSans-20" transform="translate(634.859375 0)"/>
    <use xlink:href="#DejaVuSans-74" transform="translate(666.646484 0)"/>
    <use xlink:href="#DejaVuSans-6f" transform="translate(705.855469 0)"/>
    <use xlink:href="#DejaVuSans-20" transform="translate(767.037109 0)"/>
    <use xlink:href="#DejaVuSans-63" transform="translate(798.824219 0)"/>
    <use xlink:href="#DejaVuSans-75" transform="translate(853.804688 0)"/>
    <use xlink:href="#DejaVuSans-65" transform="translate(917.183594 0)"/>
    <use xlink:href="#DejaVuSans-20" transform="translate(978.707031 0)"/>
    <use xlink:href="#DejaVuSans-70" transform="translate(1010.494141 0)"/>
    <use xlink:href="#DejaVuSans-72" transform="translate(1073.970703 0)"/>
    <use xlink:href="#DejaVuSans-65" transform="translate(1112.833984 0)"/>
    <use xlink:href="#DejaVuSans-73" transform="translate(1174.357422 0)"/>
    <use xlink:href="#DejaVuSans-65" transform="translate(1226.457031 0)"/>
    <use xlink:href="#DejaVuSans-6e" transform="translate(1287.980469 0)"/>
    <use xlink:href="#DejaVuSans-74" transform="translate(1351.359375 0)"/>
    <use xlink:href="#DejaVuSans-61" transform="translate(1390.568359 0)"/>
    <use xlink:href="#DejaVuSans-74" transform="translate(1451.847656 0)"/>
    <use xlink:href="#DejaVuSans-69" transform="translate(1491.056641 0)"/>
    <use xlink:href="#DejaVuSans-6f" transform="translate(1518.839844 0)"/>
    <use xlink:href="#DejaVuSans-6e" transform="translate(1580.021484 0)"/>
    <use xlink:href="#DejaVuSans-20" transform="translate(1643.400391 0)"/>
    <use xlink:href="#DejaVuSans-6f" transform="translate(1675.1875 0)"/>
    <use xlink:href="#DejaVuSans-6e" transform="translate(1736.369141 0)"/>
    <use xlink:href="#DejaVuSans-73" transform="translate(1799.748047 0)"/>
    <use xlink:href="#DejaVuSans-65" transform="translate(1851.847656 0)"/>
    <use xlink:href="#DejaVuSans-74" transform="translate(1913.371094 0)"/>
    <use xlink:href="#DejaVuSans-20" transform="translate(1952.580078 0)"/>
    <use xlink:href="#DejaVuSans-28" transform="translate(1984.367188 0)"/>
    <use xlink:href="#DejaVuSans-73" transform="translate(2023.380859 0)"/>
    <use xlink:href="#DejaVuSans-29" transform="translate(2075.480469 0)"/>
   </g>
  </g>
  <g id="text_40">
   <!-- Average BOLD timeseries -->
   <g transform="translate(283.525312 13.438125) scale(0.12 -0.12)">
    <defs>
     <path id="DejaVuSans-42" d="M 1259 2228 
L 1259 519 
L 2272 519 
Q 2781 519 3026 730 
Q 3272 941 3272 1375 
Q 3272 1813 3026 2020 
Q 2781 2228 2272 2228 
L 1259 2228 
z
M 1259 4147 
L 1259 2741 
L 2194 2741 
Q 2656 2741 2882 2914 
Q 3109 3088 3109 3444 
Q 3109 3797 2882 3972 
Q 2656 4147 2194 4147 
L 1259 4147 
z
M 628 4666 
L 2241 4666 
Q 2963 4666 3353 4366 
Q 3744 4066 3744 3513 
Q 3744 3084 3544 2831 
Q 3344 2578 2956 2516 
Q 3422 2416 3680 2098 
Q 3938 1781 3938 1306 
Q 3938 681 3513 340 
Q 3088 0 2303 0 
L 628 0 
L 628 4666 
z
" transform="scale(0.015625)"/>
     <path id="DejaVuSans-4f" d="M 2522 4238 
Q 1834 4238 1429 3725 
Q 1025 3213 1025 2328 
Q 1025 1447 1429 934 
Q 1834 422 2522 422 
Q 3209 422 3611 934 
Q 4013 1447 4013 2328 
Q 4013 3213 3611 3725 
Q 3209 4238 2522 4238 
z
M 2522 4750 
Q 3503 4750 4090 4092 
Q 4678 3434 4678 2328 
Q 4678 1225 4090 567 
Q 3503 -91 2522 -91 
Q 1538 -91 948 565 
Q 359 1222 359 2328 
Q 359 3434 948 4092 
Q 1538 4750 2522 4750 
z
" transform="scale(0.015625)"/>
     <path id="DejaVuSans-44" d="M 1259 4147 
L 1259 519 
L 2022 519 
Q 2988 519 3436 956 
Q 3884 1394 3884 2338 
Q 3884 3275 3436 3711 
Q 2988 4147 2022 4147 
L 1259 4147 
z
M 628 4666 
L 1925 4666 
Q 3281 4666 3915 4102 
Q 4550 3538 4550 2338 
Q 4550 1131 3912 565 
Q 3275 0 1925 0 
L 628 0 
L 628 4666 
z
" transform="scale(0.015625)"/>
    </defs>
    <use xlink:href="#DejaVuSans-41"/>
    <use xlink:href="#DejaVuSans-76" transform="translate(62.533203 0)"/>
    <use xlink:href="#DejaVuSans-65" transform="translate(121.712891 0)"/>
    <use xlink:href="#DejaVuSans-72" transform="translate(183.236328 0)"/>
    <use xlink:href="#DejaVuSans-61" transform="translate(224.349609 0)"/>
    <use xlink:href="#DejaVuSans-67" transform="translate(285.628906 0)"/>
    <use xlink:href="#DejaVuSans-65" transform="translate(349.105469 0)"/>
    <use xlink:href="#DejaVuSans-20" transform="translate(410.628906 0)"/>
    <use xlink:href="#DejaVuSans-42" transform="translate(442.416016 0)"/>
    <use xlink:href="#DejaVuSans-4f" transform="translate(509.269531 0)"/>
    <use xlink:href="#DejaVuSans-4c" transform="translate(587.980469 0)"/>
    <use xlink:href="#DejaVuSans-44" transform="translate(643.693359 0)"/>
    <use xlink:href="#DejaVuSans-20" transform="translate(720.695312 0)"/>
    <use xlink:href="#DejaVuSans-74" transform="translate(752.482422 0)"/>
    <use xlink:href="#DejaVuSans-69" transform="translate(791.691406 0)"/>
    <use xlink:href="#DejaVuSans-6d" transform="translate(819.474609 0)"/>
    <use xlink:href="#DejaVuSans-65" transform="translate(916.886719 0)"/>
    <use xlink:href="#DejaVuSans-73" transform="translate(978.410156 0)"/>
    <use xlink:href="#DejaVuSans-65" transform="translate(1030.509766 0)"/>
    <use xlink:href="#DejaVuSans-72" transform="translate(1092.033203 0)"/>
    <use xlink:href="#DejaVuSans-69" transform="translate(1133.146484 0)"/>
    <use xlink:href="#DejaVuSans-65" transform="translate(1160.929688 0)"/>
    <use xlink:href="#DejaVuSans-73" transform="translate(1222.453125 0)"/>
   </g>
  </g>
 </g>
 <defs>
  <clipPath id="p66feaa19df">
   <rect x="57.6" y="43.2" width="62.808511" height="129.6"/>
  </clipPath>
  <clipPath id="pd07c6d0281">
   <rect x="132.970213" y="43.2" width="62.808511" height="129.6"/>
  </clipPath>
  <clipPath id="p574b70d16f">
   <rect x="208.340426" y="43.2" width="62.808511" height="129.6"/>
  </clipPath>
  <clipPath id="p5592a115c0">
   <rect x="283.710638" y="43.2" width="62.808511" height="129.6"/>
  </clipPath>
  <clipPath id="p8ac07740ba">
   <rect x="359.080851" y="43.2" width="62.808511" height="129.6"/>
  </clipPath>
  <clipPath id="pb9622c6230">
   <rect x="434.451064" y="43.2" width="62.808511" height="129.6"/>
  </clipPath>
  <clipPath id="p8f32b1de5e">
   <rect x="509.821277" y="43.2" width="62.808511" height="129.6"/>
  </clipPath>
  <clipPath id="p6db4293992">
   <rect x="585.191489" y="43.2" width="62.808511" height="129.6"/>
  </clipPath>
 </defs>
</svg>
