<?xml version="1.0" encoding="utf-8" standalone="no"?>
<!DOCTYPE svg PUBLIC "-//W3C//DTD SVG 1.1//EN"
  "http://www.w3.org/Graphics/SVG/1.1/DTD/svg11.dtd">
<svg xmlns:xlink="http://www.w3.org/1999/xlink" width="568.0975pt" height="223.92pt" viewBox="0 0 568.0975 223.92" xmlns="http://www.w3.org/2000/svg" version="1.1">
 <metadata>
  <rdf:RDF xmlns:dc="http://purl.org/dc/elements/1.1/" xmlns:cc="http://creativecommons.org/ns#" xmlns:rdf="http://www.w3.org/1999/02/22-rdf-syntax-ns#">
   <cc:Work>
    <dc:type rdf:resource="http://purl.org/dc/dcmitype/StillImage"/>
    <dc:date>2025-06-07T21:27:34.867192</dc:date>
    <dc:format>image/svg+xml</dc:format>
    <dc:creator>
     <cc:Agent>
      <dc:title>Matplotlib v3.10.1, https://matplotlib.org/</dc:title>
     </cc:Agent>
    </dc:creator>
   </cc:Work>
  </rdf:RDF>
 </metadata>
 <defs>
  <style type="text/css">*{stroke-linejoin: round; stroke-linecap: butt}</style>
 </defs>
 <g id="figure_1">
  <g id="patch_1">
   <path d="M 0 223.92 
L 568.0975 223.92 
L 568.0975 0 
L 0 0 
z
" style="fill: #ffffff"/>
  </g>
  <g id="axes_1">
   <g id="patch_2">
    <path d="M 52 167.24 
L 98.720878 167.24 
L 98.720878 53.52 
L 52 53.52 
z
" style="fill: #ffffff"/>
   </g>
   <g id="FillBetweenPolyCollection_1">
    <defs>
     <path id="mb1ef6a6212" d="M 18.360968 -124.83473 
L 18.360968 -98.179686 
L 22.098638 -91.624323 
L 25.836309 -86.601167 
L 29.573979 -81.191626 
L 33.311649 -87.469627 
L 37.049319 -95.629416 
L 40.786989 -107.777407 
L 44.52466 -111.749323 
L 48.26233 -105.909956 
L 52 -100.651676 
L 55.73767 -96.467496 
L 59.47534 -88.36291 
L 63.213011 -80.925123 
L 66.950681 -79.633797 
L 70.688351 -97.809958 
L 74.426021 -112.149592 
L 78.163691 -124.550819 
L 81.901362 -119.435316 
L 85.639032 -107.592662 
L 89.376702 -102.458864 
L 93.114372 -94.307678 
L 96.852043 -86.474444 
L 100.589713 -79.134945 
L 104.327383 -84.938063 
L 108.065053 -94.771636 
L 111.802723 -104.043973 
L 115.540394 -107.904891 
L 119.278064 -102.320642 
L 123.015734 -97.240288 
L 126.753404 -94.671394 
L 130.491074 -87.809946 
L 130.491074 -111.37573 
L 130.491074 -111.37573 
L 126.753404 -118.539082 
L 123.015734 -121.948805 
L 119.278064 -125.607811 
L 115.540394 -132.760579 
L 111.802723 -128.137971 
L 108.065053 -117.859686 
L 104.327383 -108.297586 
L 100.589713 -103.93713 
L 96.852043 -111.802047 
L 93.114372 -119.43343 
L 89.376702 -129.103429 
L 85.639032 -134.662338 
L 81.901362 -146.524078 
L 78.163691 -149.94069 
L 74.426021 -137.91361 
L 70.688351 -121.88265 
L 66.950681 -106.033984 
L 63.213011 -106.378148 
L 59.47534 -114.279016 
L 55.73767 -122.953301 
L 52 -127.6821 
L 48.26233 -131.838599 
L 44.52466 -138.612175 
L 40.786989 -135.16325 
L 37.049319 -121.497994 
L 33.311649 -111.639747 
L 29.573979 -106.004846 
L 25.836309 -111.346235 
L 22.098638 -117.306093 
L 18.360968 -124.83473 
z
"/>
    </defs>
    <g clip-path="url(#pb64491fa98)">
     <use xlink:href="#mb1ef6a6212" x="0" y="223.92" style="fill: #228b22; fill-opacity: 0.2"/>
    </g>
   </g>
   <g id="FillBetweenPolyCollection_2">
    <defs>
     <path id="m76e364a875" d="M 18.360968 -122.247197 
L 18.360968 -96.721312 
L 22.098638 -91.007244 
L 25.836309 -85.134094 
L 29.573979 -79.145649 
L 33.311649 -86.71654 
L 37.049319 -99.805755 
L 40.786989 -111.84169 
L 44.52466 -114.185278 
L 48.26233 -107.89121 
L 52 -101.575179 
L 55.73767 -96.226785 
L 59.47534 -88.609242 
L 63.213011 -84.757349 
L 66.950681 -85.295226 
L 70.688351 -88.782843 
L 74.426021 -94.874514 
L 78.163691 -99.041393 
L 81.901362 -104.707337 
L 85.639032 -104.511651 
L 89.376702 -101.419635 
L 93.114372 -98.147877 
L 96.852043 -92.429099 
L 100.589713 -85.394242 
L 104.327383 -92.217146 
L 108.065053 -103.671014 
L 111.802723 -112.807084 
L 115.540394 -117.533819 
L 119.278064 -112.694433 
L 123.015734 -107.366758 
L 126.753404 -102.312858 
L 130.491074 -96.304167 
L 130.491074 -120.122815 
L 130.491074 -120.122815 
L 126.753404 -129.161293 
L 123.015734 -134.280287 
L 119.278064 -139.829661 
L 115.540394 -144.53088 
L 111.802723 -138.502556 
L 108.065053 -127.932341 
L 104.327383 -115.83526 
L 100.589713 -109.760579 
L 96.852043 -115.396949 
L 93.114372 -122.349446 
L 89.376702 -126.627972 
L 85.639032 -126.746375 
L 81.901362 -126.961178 
L 78.163691 -121.012351 
L 74.426021 -115.821207 
L 70.688351 -110.350325 
L 66.950681 -106.275613 
L 63.213011 -108.193074 
L 59.47534 -112.840616 
L 55.73767 -120.848057 
L 52 -128.029636 
L 48.26233 -133.20151 
L 44.52466 -141.409932 
L 40.786989 -139.157284 
L 37.049319 -124.233946 
L 33.311649 -112.373703 
L 29.573979 -103.687922 
L 25.836309 -110.194351 
L 22.098638 -116.238197 
L 18.360968 -122.247197 
z
"/>
    </defs>
    <g clip-path="url(#pb64491fa98)">
     <use xlink:href="#m76e364a875" x="0" y="223.92" style="fill: #8b008b; fill-opacity: 0.2"/>
    </g>
   </g>
   <g id="matplotlib.axis_1">
    <g id="xtick_1">
     <g id="line2d_1">
      <defs>
       <path id="m92a2910a54" d="M 0 0 
L 0 3.5 
" style="stroke: #000000; stroke-width: 2"/>
      </defs>
      <g>
       <use xlink:href="#m92a2910a54" x="53.868835" y="167.24" style="stroke: #000000; stroke-width: 2"/>
      </g>
     </g>
     <g id="text_1">
      <!-- 0 -->
      <g transform="translate(50.687585 181.838437) scale(0.1 -0.1)">
       <defs>
        <path id="DejaVuSans-30" d="M 2034 4250 
Q 1547 4250 1301 3770 
Q 1056 3291 1056 2328 
Q 1056 1369 1301 889 
Q 1547 409 2034 409 
Q 2525 409 2770 889 
Q 3016 1369 3016 2328 
Q 3016 3291 2770 3770 
Q 2525 4250 2034 4250 
z
M 2034 4750 
Q 2819 4750 3233 4129 
Q 3647 3509 3647 2328 
Q 3647 1150 3233 529 
Q 2819 -91 2034 -91 
Q 1250 -91 836 529 
Q 422 1150 422 2328 
Q 422 3509 836 4129 
Q 1250 4750 2034 4750 
z
" transform="scale(0.015625)"/>
       </defs>
       <use xlink:href="#DejaVuSans-30"/>
      </g>
     </g>
    </g>
    <g id="xtick_2">
     <g id="line2d_2">
      <g>
       <use xlink:href="#m92a2910a54" x="76.294856" y="167.24" style="stroke: #000000; stroke-width: 2"/>
      </g>
     </g>
     <g id="text_2">
      <!-- 6 -->
      <g transform="translate(73.113606 181.838437) scale(0.1 -0.1)">
       <defs>
        <path id="DejaVuSans-36" d="M 2113 2584 
Q 1688 2584 1439 2293 
Q 1191 2003 1191 1497 
Q 1191 994 1439 701 
Q 1688 409 2113 409 
Q 2538 409 2786 701 
Q 3034 994 3034 1497 
Q 3034 2003 2786 2293 
Q 2538 2584 2113 2584 
z
M 3366 4563 
L 3366 3988 
Q 3128 4100 2886 4159 
Q 2644 4219 2406 4219 
Q 1781 4219 1451 3797 
Q 1122 3375 1075 2522 
Q 1259 2794 1537 2939 
Q 1816 3084 2150 3084 
Q 2853 3084 3261 2657 
Q 3669 2231 3669 1497 
Q 3669 778 3244 343 
Q 2819 -91 2113 -91 
Q 1303 -91 875 529 
Q 447 1150 447 2328 
Q 447 3434 972 4092 
Q 1497 4750 2381 4750 
Q 2619 4750 2861 4703 
Q 3103 4656 3366 4563 
z
" transform="scale(0.015625)"/>
       </defs>
       <use xlink:href="#DejaVuSans-36"/>
      </g>
     </g>
    </g>
    <g id="xtick_3">
     <g id="line2d_3">
      <g>
       <use xlink:href="#m92a2910a54" x="98.720878" y="167.24" style="stroke: #000000; stroke-width: 2"/>
      </g>
     </g>
     <g id="text_3">
      <!-- 12 -->
      <g transform="translate(92.358378 181.838437) scale(0.1 -0.1)">
       <defs>
        <path id="DejaVuSans-31" d="M 794 531 
L 1825 531 
L 1825 4091 
L 703 3866 
L 703 4441 
L 1819 4666 
L 2450 4666 
L 2450 531 
L 3481 531 
L 3481 0 
L 794 0 
L 794 531 
z
" transform="scale(0.015625)"/>
        <path id="DejaVuSans-32" d="M 1228 531 
L 3431 531 
L 3431 0 
L 469 0 
L 469 531 
Q 828 903 1448 1529 
Q 2069 2156 2228 2338 
Q 2531 2678 2651 2914 
Q 2772 3150 2772 3378 
Q 2772 3750 2511 3984 
Q 2250 4219 1831 4219 
Q 1534 4219 1204 4116 
Q 875 4013 500 3803 
L 500 4441 
Q 881 4594 1212 4672 
Q 1544 4750 1819 4750 
Q 2544 4750 2975 4387 
Q 3406 4025 3406 3419 
Q 3406 3131 3298 2873 
Q 3191 2616 2906 2266 
Q 2828 2175 2409 1742 
Q 1991 1309 1228 531 
z
" transform="scale(0.015625)"/>
       </defs>
       <use xlink:href="#DejaVuSans-31"/>
       <use xlink:href="#DejaVuSans-32" transform="translate(63.623047 0)"/>
      </g>
     </g>
    </g>
   </g>
   <g id="matplotlib.axis_2">
    <g id="ytick_1">
     <g id="line2d_4">
      <defs>
       <path id="m063945842a" d="M 0 0 
L -3.5 0 
" style="stroke: #000000; stroke-width: 2"/>
      </defs>
      <g>
       <use xlink:href="#m063945842a" x="52" y="147.707971" style="stroke: #000000; stroke-width: 2"/>
      </g>
     </g>
     <g id="text_4">
      <!-- −2 -->
      <g transform="translate(30.257813 151.50719) scale(0.1 -0.1)">
       <defs>
        <path id="DejaVuSans-2212" d="M 678 2272 
L 4684 2272 
L 4684 1741 
L 678 1741 
L 678 2272 
z
" transform="scale(0.015625)"/>
       </defs>
       <use xlink:href="#DejaVuSans-2212"/>
       <use xlink:href="#DejaVuSans-32" transform="translate(83.789062 0)"/>
      </g>
     </g>
    </g>
    <g id="ytick_2">
     <g id="line2d_5">
      <g>
       <use xlink:href="#m063945842a" x="52" y="116.022197" style="stroke: #000000; stroke-width: 2"/>
      </g>
     </g>
     <g id="text_5">
      <!-- 0 -->
      <g transform="translate(38.6375 119.821416) scale(0.1 -0.1)">
       <use xlink:href="#DejaVuSans-30"/>
      </g>
     </g>
    </g>
    <g id="ytick_3">
     <g id="line2d_6">
      <g>
       <use xlink:href="#m063945842a" x="52" y="84.336423" style="stroke: #000000; stroke-width: 2"/>
      </g>
     </g>
     <g id="text_6">
      <!-- 2 -->
      <g transform="translate(38.6375 88.135642) scale(0.1 -0.1)">
       <use xlink:href="#DejaVuSans-32"/>
      </g>
     </g>
    </g>
   </g>
   <g id="line2d_7">
    <path d="M 18.360968 112.412792 
L 22.098638 119.454792 
L 25.836309 124.946299 
L 29.573979 130.321764 
L 33.311649 124.365313 
L 37.049319 115.356295 
L 40.786989 102.449672 
L 44.52466 98.739251 
L 48.26233 105.045723 
L 52 109.753112 
L 55.73767 114.209601 
L 59.47534 122.599037 
L 63.213011 130.268365 
L 66.950681 131.086109 
L 70.688351 114.073696 
L 74.426021 98.888399 
L 78.163691 86.674246 
L 81.901362 90.940303 
L 85.639032 102.7925 
L 89.376702 108.138854 
L 93.114372 117.049446 
L 96.852043 124.781754 
L 100.589713 132.383962 
L 104.327383 127.302176 
L 108.065053 117.604339 
L 111.802723 107.829028 
L 115.540394 103.587265 
L 119.278064 109.955773 
L 123.015734 114.325454 
L 126.753404 117.314762 
L 130.491074 124.327162 
" clip-path="url(#pb64491fa98)" style="fill: none; stroke: #228b22; stroke-width: 1.5; stroke-linecap: square"/>
   </g>
   <g id="line2d_8">
    <path d="M 18.360968 114.435745 
L 22.098638 120.297279 
L 25.836309 126.255778 
L 29.573979 132.503214 
L 33.311649 124.374879 
L 37.049319 111.90015 
L 40.786989 98.420513 
L 44.52466 96.122395 
L 48.26233 103.37364 
L 52 109.117593 
L 55.73767 115.382579 
L 59.47534 123.195071 
L 63.213011 127.444789 
L 66.950681 128.13458 
L 70.688351 124.353416 
L 74.426021 118.572139 
L 78.163691 113.893128 
L 81.901362 108.085742 
L 85.639032 108.290987 
L 89.376702 109.896197 
L 93.114372 113.671338 
L 96.852043 120.006976 
L 100.589713 126.342589 
L 104.327383 119.893797 
L 108.065053 108.118323 
L 111.802723 98.26518 
L 115.540394 92.88765 
L 119.278064 97.657953 
L 123.015734 103.096477 
L 126.753404 108.182924 
L 130.491074 115.706509 
" clip-path="url(#pb64491fa98)" style="fill: none; stroke: #8b008b; stroke-width: 1.5; stroke-linecap: square"/>
   </g>
   <g id="line2d_9">
    <path d="M 53.868835 167.24 
L 53.868835 53.52 
" clip-path="url(#pb64491fa98)" style="fill: none; stroke: #000000; stroke-width: 0.8; stroke-linecap: square"/>
   </g>
   <g id="line2d_10">
    <path d="M 63.213011 167.24 
L 63.213011 53.52 
" clip-path="url(#pb64491fa98)" style="fill: none; stroke-dasharray: 2.96,1.28; stroke-dashoffset: 0; stroke: #000000; stroke-width: 0.8"/>
   </g>
   <g id="patch_3">
    <path d="M 52 147.707971 
L 52 84.336423 
" style="fill: none; stroke: #000000; stroke-width: 2; stroke-linejoin: miter; stroke-linecap: square"/>
   </g>
   <g id="patch_4">
    <path d="M 53.868835 167.24 
L 98.720878 167.24 
" style="fill: none; stroke: #000000; stroke-width: 2; stroke-linejoin: miter; stroke-linecap: square"/>
   </g>
   <g id="text_7">
    <!-- SMA -->
    <g transform="translate(62.270126 47.52) scale(0.12 -0.12)">
     <defs>
      <path id="DejaVuSans-53" d="M 3425 4513 
L 3425 3897 
Q 3066 4069 2747 4153 
Q 2428 4238 2131 4238 
Q 1616 4238 1336 4038 
Q 1056 3838 1056 3469 
Q 1056 3159 1242 3001 
Q 1428 2844 1947 2747 
L 2328 2669 
Q 3034 2534 3370 2195 
Q 3706 1856 3706 1288 
Q 3706 609 3251 259 
Q 2797 -91 1919 -91 
Q 1588 -91 1214 -16 
Q 841 59 441 206 
L 441 856 
Q 825 641 1194 531 
Q 1563 422 1919 422 
Q 2459 422 2753 634 
Q 3047 847 3047 1241 
Q 3047 1584 2836 1778 
Q 2625 1972 2144 2069 
L 1759 2144 
Q 1053 2284 737 2584 
Q 422 2884 422 3419 
Q 422 4038 858 4394 
Q 1294 4750 2059 4750 
Q 2388 4750 2728 4690 
Q 3069 4631 3425 4513 
z
" transform="scale(0.015625)"/>
      <path id="DejaVuSans-4d" d="M 628 4666 
L 1569 4666 
L 2759 1491 
L 3956 4666 
L 4897 4666 
L 4897 0 
L 4281 0 
L 4281 4097 
L 3078 897 
L 2444 897 
L 1241 4097 
L 1241 0 
L 628 0 
L 628 4666 
z
" transform="scale(0.015625)"/>
      <path id="DejaVuSans-41" d="M 2188 4044 
L 1331 1722 
L 3047 1722 
L 2188 4044 
z
M 1831 4666 
L 2547 4666 
L 4325 0 
L 3669 0 
L 3244 1197 
L 1141 1197 
L 716 0 
L 50 0 
L 1831 4666 
z
" transform="scale(0.015625)"/>
     </defs>
     <use xlink:href="#DejaVuSans-53"/>
     <use xlink:href="#DejaVuSans-4d" transform="translate(63.476562 0)"/>
     <use xlink:href="#DejaVuSans-41" transform="translate(149.755859 0)"/>
    </g>
   </g>
  </g>
  <g id="axes_2">
   <g id="patch_5">
    <path d="M 117.116303 167.24 
L 163.837181 167.24 
L 163.837181 53.52 
L 117.116303 53.52 
z
" style="fill: #ffffff"/>
   </g>
   <g id="FillBetweenPolyCollection_3">
    <defs>
     <path id="m2d076dec25" d="M 83.477271 -123.240795 
L 83.477271 -94.996946 
L 87.214941 -88.195478 
L 90.952612 -84.177284 
L 94.690282 -77.459377 
L 98.427952 -88.378004 
L 102.165622 -97.661882 
L 105.903293 -110.645188 
L 109.640963 -111.036523 
L 113.378633 -103.311043 
L 117.116303 -98.017575 
L 120.853973 -92.337375 
L 124.591644 -85.262917 
L 128.329314 -77.145282 
L 132.066984 -77.344652 
L 135.804654 -103.662654 
L 139.542324 -120.209556 
L 143.279995 -128.643123 
L 147.017665 -121.433499 
L 150.755335 -107.046575 
L 154.493005 -100.459876 
L 158.230676 -92.655532 
L 161.968346 -85.737426 
L 165.706016 -77.098848 
L 169.443686 -86.699942 
L 173.181356 -98.728554 
L 176.919027 -106.752789 
L 180.656697 -108.231119 
L 184.394367 -101.435359 
L 188.132037 -94.623724 
L 191.869707 -91.578781 
L 195.607378 -85.869331 
L 195.607378 -110.866785 
L 195.607378 -110.866785 
L 191.869707 -117.116799 
L 188.132037 -122.052995 
L 184.394367 -127.347291 
L 180.656697 -135.717525 
L 176.919027 -133.070372 
L 173.181356 -124.220036 
L 169.443686 -113.664331 
L 165.706016 -104.155353 
L 161.968346 -112.35764 
L 158.230676 -118.875848 
L 154.493005 -127.902243 
L 150.755335 -136.153058 
L 147.017665 -150.162428 
L 143.279995 -155.933737 
L 139.542324 -148.006978 
L 135.804654 -131.113478 
L 132.066984 -109.07049 
L 128.329314 -104.919592 
L 124.591644 -113.4118 
L 120.853973 -120.524205 
L 117.116303 -126.673582 
L 113.378633 -132.668119 
L 109.640963 -141.009016 
L 105.903293 -140.321169 
L 102.165622 -127.887096 
L 98.427952 -116.095169 
L 94.690282 -104.478482 
L 90.952612 -110.576636 
L 87.214941 -116.594119 
L 83.477271 -123.240795 
z
"/>
    </defs>
    <g clip-path="url(#pd163088d03)">
     <use xlink:href="#m2d076dec25" x="0" y="223.92" style="fill: #228b22; fill-opacity: 0.2"/>
    </g>
   </g>
   <g id="FillBetweenPolyCollection_4">
    <defs>
     <path id="md5f150331b" d="M 83.477271 -121.289694 
L 83.477271 -93.280002 
L 87.214941 -87.265655 
L 90.952612 -83.487793 
L 94.690282 -76.384597 
L 98.427952 -88.888996 
L 102.165622 -104.863051 
L 105.903293 -115.960018 
L 109.640963 -115.702309 
L 113.378633 -108.47523 
L 117.116303 -99.211457 
L 120.853973 -93.76875 
L 124.591644 -86.101463 
L 128.329314 -84.593173 
L 132.066984 -84.979191 
L 135.804654 -90.000516 
L 139.542324 -96.087293 
L 143.279995 -100.719697 
L 147.017665 -101.839013 
L 150.755335 -102.166514 
L 154.493005 -98.655592 
L 158.230676 -94.926097 
L 161.968346 -89.65397 
L 165.706016 -81.840305 
L 169.443686 -94.954224 
L 173.181356 -108.789299 
L 176.919027 -117.311967 
L 180.656697 -118.017392 
L 184.394367 -111.609373 
L 188.132037 -105.153456 
L 191.869707 -98.807141 
L 195.607378 -93.033494 
L 195.607378 -117.956403 
L 195.607378 -117.956403 
L 191.869707 -125.696242 
L 188.132037 -132.340116 
L 184.394367 -139.841248 
L 180.656697 -146.721644 
L 176.919027 -144.029818 
L 173.181356 -135.168622 
L 169.443686 -120.194364 
L 165.706016 -109.395631 
L 161.968346 -115.542957 
L 158.230676 -121.634447 
L 154.493005 -126.441638 
L 150.755335 -126.362584 
L 147.017665 -127.704323 
L 143.279995 -123.38459 
L 139.542324 -118.273032 
L 135.804654 -112.830773 
L 132.066984 -107.729171 
L 128.329314 -110.14243 
L 124.591644 -113.250489 
L 120.853973 -120.311346 
L 117.116303 -128.464686 
L 113.378633 -135.179713 
L 109.640963 -145.261711 
L 105.903293 -145.494336 
L 102.165622 -132.433039 
L 98.427952 -118.765119 
L 94.690282 -104.442217 
L 90.952612 -111.240136 
L 87.214941 -114.433706 
L 83.477271 -121.289694 
z
"/>
    </defs>
    <g clip-path="url(#pd163088d03)">
     <use xlink:href="#md5f150331b" x="0" y="223.92" style="fill: #8b008b; fill-opacity: 0.2"/>
    </g>
   </g>
   <g id="matplotlib.axis_3">
    <g id="xtick_4">
     <g id="line2d_11">
      <g>
       <use xlink:href="#m92a2910a54" x="118.985138" y="167.24" style="stroke: #000000; stroke-width: 2"/>
      </g>
     </g>
     <g id="text_8">
      <!-- 0 -->
      <g transform="translate(115.803888 181.838437) scale(0.1 -0.1)">
       <use xlink:href="#DejaVuSans-30"/>
      </g>
     </g>
    </g>
    <g id="xtick_5">
     <g id="line2d_12">
      <g>
       <use xlink:href="#m92a2910a54" x="141.41116" y="167.24" style="stroke: #000000; stroke-width: 2"/>
      </g>
     </g>
     <g id="text_9">
      <!-- 6 -->
      <g transform="translate(138.22991 181.838437) scale(0.1 -0.1)">
       <use xlink:href="#DejaVuSans-36"/>
      </g>
     </g>
    </g>
    <g id="xtick_6">
     <g id="line2d_13">
      <g>
       <use xlink:href="#m92a2910a54" x="163.837181" y="167.24" style="stroke: #000000; stroke-width: 2"/>
      </g>
     </g>
     <g id="text_10">
      <!-- 12 -->
      <g transform="translate(157.474681 181.838437) scale(0.1 -0.1)">
       <use xlink:href="#DejaVuSans-31"/>
       <use xlink:href="#DejaVuSans-32" transform="translate(63.623047 0)"/>
      </g>
     </g>
    </g>
   </g>
   <g id="matplotlib.axis_4">
    <g id="ytick_4">
     <g id="line2d_14">
      <defs>
       <path id="m18b13251d8" d="M 0 0 
L -3.5 0 
"/>
      </defs>
      <g>
       <use xlink:href="#m18b13251d8" x="117.116303" y="147.707971"/>
      </g>
     </g>
    </g>
    <g id="ytick_5">
     <g id="line2d_15">
      <g>
       <use xlink:href="#m18b13251d8" x="117.116303" y="116.022197"/>
      </g>
     </g>
    </g>
    <g id="ytick_6">
     <g id="line2d_16">
      <g>
       <use xlink:href="#m18b13251d8" x="117.116303" y="84.336423"/>
      </g>
     </g>
    </g>
   </g>
   <g id="line2d_17">
    <path d="M 83.477271 114.80113 
L 87.214941 121.525201 
L 90.952612 126.54304 
L 94.690282 132.951071 
L 98.427952 121.683414 
L 102.165622 111.145511 
L 105.903293 98.436821 
L 109.640963 97.897231 
L 113.378633 105.930419 
L 117.116303 111.574421 
L 120.853973 117.48921 
L 124.591644 124.582641 
L 128.329314 132.887563 
L 132.066984 130.712429 
L 135.804654 106.531934 
L 139.542324 89.811733 
L 143.279995 81.63157 
L 147.017665 88.122037 
L 150.755335 102.320183 
L 154.493005 109.738941 
L 158.230676 118.15431 
L 161.968346 124.872467 
L 165.706016 133.292899 
L 169.443686 123.737864 
L 173.181356 112.445705 
L 176.919027 104.008419 
L 180.656697 101.945678 
L 184.394367 109.528675 
L 188.132037 115.581641 
L 191.869707 119.57221 
L 195.607378 125.551942 
" clip-path="url(#pd163088d03)" style="fill: none; stroke: #228b22; stroke-width: 1.5; stroke-linecap: square"/>
   </g>
   <g id="line2d_18">
    <path d="M 83.477271 116.635152 
L 87.214941 123.07032 
L 90.952612 126.556035 
L 94.690282 133.506593 
L 98.427952 120.092942 
L 102.165622 105.271955 
L 105.903293 93.192823 
L 109.640963 93.43799 
L 113.378633 102.092529 
L 117.116303 110.081928 
L 120.853973 116.879952 
L 124.591644 124.244024 
L 128.329314 126.552199 
L 132.066984 127.565819 
L 135.804654 122.504355 
L 139.542324 116.739837 
L 143.279995 111.867857 
L 147.017665 109.148332 
L 150.755335 109.655451 
L 154.493005 111.371385 
L 158.230676 115.639728 
L 161.968346 121.321537 
L 165.706016 128.302032 
L 169.443686 116.345706 
L 173.181356 101.94104 
L 176.919027 93.249108 
L 180.656697 91.550482 
L 184.394367 98.19469 
L 188.132037 105.173214 
L 191.869707 111.668309 
L 195.607378 118.425051 
" clip-path="url(#pd163088d03)" style="fill: none; stroke: #8b008b; stroke-width: 1.5; stroke-linecap: square"/>
   </g>
   <g id="line2d_19">
    <path d="M 118.985138 167.24 
L 118.985138 53.52 
" clip-path="url(#pd163088d03)" style="fill: none; stroke: #000000; stroke-width: 0.8; stroke-linecap: square"/>
   </g>
   <g id="line2d_20">
    <path d="M 128.329314 167.24 
L 128.329314 53.52 
" clip-path="url(#pd163088d03)" style="fill: none; stroke-dasharray: 2.96,1.28; stroke-dashoffset: 0; stroke: #000000; stroke-width: 0.8"/>
   </g>
   <g id="patch_6">
    <path d="M 118.985138 167.24 
L 163.837181 167.24 
" style="fill: none; stroke: #000000; stroke-width: 2; stroke-linejoin: miter; stroke-linecap: square"/>
   </g>
   <g id="text_11">
    <!-- PMd -->
    <g transform="translate(127.872992 47.52) scale(0.12 -0.12)">
     <defs>
      <path id="DejaVuSans-50" d="M 1259 4147 
L 1259 2394 
L 2053 2394 
Q 2494 2394 2734 2622 
Q 2975 2850 2975 3272 
Q 2975 3691 2734 3919 
Q 2494 4147 2053 4147 
L 1259 4147 
z
M 628 4666 
L 2053 4666 
Q 2838 4666 3239 4311 
Q 3641 3956 3641 3272 
Q 3641 2581 3239 2228 
Q 2838 1875 2053 1875 
L 1259 1875 
L 1259 0 
L 628 0 
L 628 4666 
z
" transform="scale(0.015625)"/>
      <path id="DejaVuSans-64" d="M 2906 2969 
L 2906 4863 
L 3481 4863 
L 3481 0 
L 2906 0 
L 2906 525 
Q 2725 213 2448 61 
Q 2172 -91 1784 -91 
Q 1150 -91 751 415 
Q 353 922 353 1747 
Q 353 2572 751 3078 
Q 1150 3584 1784 3584 
Q 2172 3584 2448 3432 
Q 2725 3281 2906 2969 
z
M 947 1747 
Q 947 1113 1208 752 
Q 1469 391 1925 391 
Q 2381 391 2643 752 
Q 2906 1113 2906 1747 
Q 2906 2381 2643 2742 
Q 2381 3103 1925 3103 
Q 1469 3103 1208 2742 
Q 947 2381 947 1747 
z
" transform="scale(0.015625)"/>
     </defs>
     <use xlink:href="#DejaVuSans-50"/>
     <use xlink:href="#DejaVuSans-4d" transform="translate(60.302734 0)"/>
     <use xlink:href="#DejaVuSans-64" transform="translate(146.582031 0)"/>
    </g>
   </g>
  </g>
  <g id="axes_3">
   <g id="patch_7">
    <path d="M 182.232606 167.24 
L 228.953484 167.24 
L 228.953484 53.52 
L 182.232606 53.52 
z
" style="fill: #ffffff"/>
   </g>
   <g id="FillBetweenPolyCollection_5">
    <defs>
     <path id="m186cec4f80" d="M 148.593574 -121.103767 
L 148.593574 -94.734911 
L 152.331245 -91.591854 
L 156.068915 -89.809388 
L 159.806585 -83.814135 
L 163.544255 -90.415798 
L 167.281926 -96.658122 
L 171.019596 -106.414317 
L 174.757266 -107.831249 
L 178.494936 -100.217777 
L 182.232606 -96.781075 
L 185.970277 -95.397962 
L 189.707947 -91.391297 
L 193.445617 -83.737935 
L 197.183287 -84.192928 
L 200.920957 -102.375636 
L 204.658628 -115.015304 
L 208.396298 -122.293026 
L 212.133968 -113.626444 
L 215.871638 -99.157712 
L 219.609309 -96.286138 
L 223.346979 -93.251948 
L 227.084649 -88.497954 
L 230.822319 -82.343651 
L 234.559989 -88.646804 
L 238.29766 -96.684421 
L 242.03533 -104.050169 
L 245.773 -106.517815 
L 249.51067 -99.03801 
L 253.24834 -95.278619 
L 256.986011 -94.321954 
L 260.723681 -90.809854 
L 260.723681 -115.245396 
L 260.723681 -115.245396 
L 256.986011 -118.742039 
L 253.24834 -120.037392 
L 249.51067 -123.325402 
L 245.773 -130.249691 
L 242.03533 -127.489746 
L 238.29766 -120.381484 
L 234.559989 -112.481515 
L 230.822319 -105.674971 
L 227.084649 -113.041447 
L 223.346979 -117.729231 
L 219.609309 -120.915807 
L 215.871638 -125.128649 
L 212.133968 -138.33511 
L 208.396298 -146.138412 
L 204.658628 -140.594658 
L 200.920957 -128.076366 
L 197.183287 -111.64001 
L 193.445617 -108.612257 
L 189.707947 -116.315974 
L 185.970277 -120.869778 
L 182.232606 -122.616877 
L 178.494936 -126.907134 
L 174.757266 -133.940694 
L 171.019596 -133.425043 
L 167.281926 -123.36163 
L 163.544255 -115.558962 
L 159.806585 -107.831606 
L 156.068915 -113.515579 
L 152.331245 -118.021369 
L 148.593574 -121.103767 
z
"/>
    </defs>
    <g clip-path="url(#p967cdb4d13)">
     <use xlink:href="#m186cec4f80" x="0" y="223.92" style="fill: #228b22; fill-opacity: 0.2"/>
    </g>
   </g>
   <g id="FillBetweenPolyCollection_6">
    <defs>
     <path id="m6094d89e92" d="M 148.593574 -119.528582 
L 148.593574 -94.984148 
L 152.331245 -92.72269 
L 156.068915 -88.559652 
L 159.806585 -83.764521 
L 163.544255 -91.531039 
L 167.281926 -103.239767 
L 171.019596 -112.084503 
L 174.757266 -111.918006 
L 178.494936 -103.117917 
L 182.232606 -97.331965 
L 185.970277 -93.657766 
L 189.707947 -90.292028 
L 193.445617 -88.6798 
L 197.183287 -87.16482 
L 200.920957 -88.584514 
L 204.658628 -91.550105 
L 208.396298 -96.592961 
L 212.133968 -100.152258 
L 215.871638 -104.697912 
L 219.609309 -103.072206 
L 223.346979 -101.138948 
L 227.084649 -96.109863 
L 230.822319 -89.134641 
L 234.559989 -96.678629 
L 238.29766 -105.356823 
L 242.03533 -111.201251 
L 245.773 -112.523161 
L 249.51067 -104.767203 
L 253.24834 -101.5358 
L 256.986011 -99.103683 
L 260.723681 -95.763563 
L 260.723681 -118.909246 
L 260.723681 -118.909246 
L 256.986011 -122.763948 
L 253.24834 -125.068563 
L 249.51067 -129.409791 
L 245.773 -137.041697 
L 242.03533 -136.58914 
L 238.29766 -129.627814 
L 234.559989 -120.512538 
L 230.822319 -112.955687 
L 227.084649 -119.793789 
L 223.346979 -126.071205 
L 219.609309 -128.563586 
L 215.871638 -127.309391 
L 212.133968 -123.715485 
L 208.396298 -117.33633 
L 204.658628 -111.72575 
L 200.920957 -109.263006 
L 197.183287 -108.341127 
L 193.445617 -111.498258 
L 189.707947 -116.534009 
L 185.970277 -118.274936 
L 182.232606 -122.859353 
L 178.494936 -127.005362 
L 174.757266 -137.066705 
L 171.019596 -138.46056 
L 167.281926 -127.890834 
L 163.544255 -118.512545 
L 159.806585 -109.023508 
L 156.068915 -115.206408 
L 152.331245 -117.380826 
L 148.593574 -119.528582 
z
"/>
    </defs>
    <g clip-path="url(#p967cdb4d13)">
     <use xlink:href="#m6094d89e92" x="0" y="223.92" style="fill: #8b008b; fill-opacity: 0.2"/>
    </g>
   </g>
   <g id="matplotlib.axis_5">
    <g id="xtick_7">
     <g id="line2d_21">
      <g>
       <use xlink:href="#m92a2910a54" x="184.101441" y="167.24" style="stroke: #000000; stroke-width: 2"/>
      </g>
     </g>
     <g id="text_12">
      <!-- 0 -->
      <g transform="translate(180.920191 181.838437) scale(0.1 -0.1)">
       <use xlink:href="#DejaVuSans-30"/>
      </g>
     </g>
    </g>
    <g id="xtick_8">
     <g id="line2d_22">
      <g>
       <use xlink:href="#m92a2910a54" x="206.527463" y="167.24" style="stroke: #000000; stroke-width: 2"/>
      </g>
     </g>
     <g id="text_13">
      <!-- 6 -->
      <g transform="translate(203.346213 181.838437) scale(0.1 -0.1)">
       <use xlink:href="#DejaVuSans-36"/>
      </g>
     </g>
    </g>
    <g id="xtick_9">
     <g id="line2d_23">
      <g>
       <use xlink:href="#m92a2910a54" x="228.953484" y="167.24" style="stroke: #000000; stroke-width: 2"/>
      </g>
     </g>
     <g id="text_14">
      <!-- 12 -->
      <g transform="translate(222.590984 181.838437) scale(0.1 -0.1)">
       <use xlink:href="#DejaVuSans-31"/>
       <use xlink:href="#DejaVuSans-32" transform="translate(63.623047 0)"/>
      </g>
     </g>
    </g>
   </g>
   <g id="matplotlib.axis_6">
    <g id="ytick_7">
     <g id="line2d_24">
      <g>
       <use xlink:href="#m18b13251d8" x="182.232606" y="147.707971"/>
      </g>
     </g>
    </g>
    <g id="ytick_8">
     <g id="line2d_25">
      <g>
       <use xlink:href="#m18b13251d8" x="182.232606" y="116.022197"/>
      </g>
     </g>
    </g>
    <g id="ytick_9">
     <g id="line2d_26">
      <g>
       <use xlink:href="#m18b13251d8" x="182.232606" y="84.336423"/>
      </g>
     </g>
    </g>
   </g>
   <g id="line2d_27">
    <path d="M 148.593574 116.000661 
L 152.331245 119.113389 
L 156.068915 122.257517 
L 159.806585 128.09713 
L 163.544255 120.93262 
L 167.281926 113.910124 
L 171.019596 104.00032 
L 174.757266 103.034028 
L 178.494936 110.357545 
L 182.232606 114.221024 
L 185.970277 115.78613 
L 189.707947 120.066364 
L 193.445617 127.744904 
L 197.183287 126.003531 
L 200.920957 108.693999 
L 204.658628 96.115019 
L 208.396298 89.704281 
L 212.133968 97.939223 
L 215.871638 111.77682 
L 219.609309 115.319027 
L 223.346979 118.429411 
L 227.084649 123.1503 
L 230.822319 129.910689 
L 234.559989 123.35584 
L 238.29766 115.387048 
L 242.03533 108.150042 
L 245.773 105.536247 
L 249.51067 112.738294 
L 253.24834 116.261995 
L 256.986011 117.388003 
L 260.723681 120.892375 
" clip-path="url(#p967cdb4d13)" style="fill: none; stroke: #228b22; stroke-width: 1.5; stroke-linecap: square"/>
   </g>
   <g id="line2d_28">
    <path d="M 148.593574 116.663635 
L 152.331245 118.868242 
L 156.068915 122.03697 
L 159.806585 127.525985 
L 163.544255 118.898208 
L 167.281926 108.354699 
L 171.019596 98.647468 
L 174.757266 99.427644 
L 178.494936 108.858361 
L 182.232606 113.824341 
L 185.970277 117.953649 
L 189.707947 120.506982 
L 193.445617 123.830971 
L 197.183287 126.167026 
L 200.920957 124.99624 
L 204.658628 122.282073 
L 208.396298 116.955354 
L 212.133968 111.986129 
L 215.871638 107.916348 
L 219.609309 108.102104 
L 223.346979 110.314923 
L 227.084649 115.968174 
L 230.822319 122.874836 
L 234.559989 115.324417 
L 238.29766 106.427682 
L 242.03533 100.024804 
L 245.773 99.137571 
L 249.51067 106.831503 
L 253.24834 110.617819 
L 256.986011 112.986184 
L 260.723681 116.583596 
" clip-path="url(#p967cdb4d13)" style="fill: none; stroke: #8b008b; stroke-width: 1.5; stroke-linecap: square"/>
   </g>
   <g id="line2d_29">
    <path d="M 184.101441 167.24 
L 184.101441 53.52 
" clip-path="url(#p967cdb4d13)" style="fill: none; stroke: #000000; stroke-width: 0.8; stroke-linecap: square"/>
   </g>
   <g id="line2d_30">
    <path d="M 193.445617 167.24 
L 193.445617 53.52 
" clip-path="url(#p967cdb4d13)" style="fill: none; stroke-dasharray: 2.96,1.28; stroke-dashoffset: 0; stroke: #000000; stroke-width: 0.8"/>
   </g>
   <g id="patch_8">
    <path d="M 184.101441 167.24 
L 228.953484 167.24 
" style="fill: none; stroke: #000000; stroke-width: 2; stroke-linejoin: miter; stroke-linecap: square"/>
   </g>
   <g id="text_15">
    <!-- PMv -->
    <g transform="translate(193.247108 47.52) scale(0.12 -0.12)">
     <defs>
      <path id="DejaVuSans-76" d="M 191 3500 
L 800 3500 
L 1894 563 
L 2988 3500 
L 3597 3500 
L 2284 0 
L 1503 0 
L 191 3500 
z
" transform="scale(0.015625)"/>
     </defs>
     <use xlink:href="#DejaVuSans-50"/>
     <use xlink:href="#DejaVuSans-4d" transform="translate(60.302734 0)"/>
     <use xlink:href="#DejaVuSans-76" transform="translate(146.582031 0)"/>
    </g>
   </g>
  </g>
  <g id="axes_4">
   <g id="patch_9">
    <path d="M 247.34891 167.24 
L 294.069787 167.24 
L 294.069787 53.52 
L 247.34891 53.52 
z
" style="fill: #ffffff"/>
   </g>
   <g id="FillBetweenPolyCollection_7">
    <defs>
     <path id="m2a28da37b1" d="M 213.709878 -131.142065 
L 213.709878 -98.867857 
L 217.447548 -92.842869 
L 221.185218 -83.045787 
L 224.922888 -74.287789 
L 228.660559 -81.74928 
L 232.398229 -94.795488 
L 236.135899 -107.40643 
L 239.873569 -105.623263 
L 243.611239 -100.494061 
L 247.34891 -99.053221 
L 251.08658 -96.366058 
L 254.82425 -88.693816 
L 258.56192 -73.439883 
L 262.29959 -77.168344 
L 266.037261 -100.405148 
L 269.774931 -125.761163 
L 273.512601 -132.959292 
L 277.250271 -124.223209 
L 280.987941 -114.53632 
L 284.725612 -111.358087 
L 288.463282 -101.707414 
L 292.200952 -86.930492 
L 295.938622 -73.86764 
L 299.676293 -78.628491 
L 303.413963 -91.363455 
L 307.151633 -100.812842 
L 310.889303 -100.340141 
L 314.626973 -95.315897 
L 318.364644 -93.458802 
L 322.102314 -93.680366 
L 325.839984 -87.370085 
L 325.839984 -117.004022 
L 325.839984 -117.004022 
L 322.102314 -123.443061 
L 318.364644 -123.889332 
L 314.626973 -124.223009 
L 310.889303 -131.16656 
L 307.151633 -133.236107 
L 303.413963 -121.265889 
L 299.676293 -107.194027 
L 295.938622 -106.580854 
L 292.200952 -118.995274 
L 288.463282 -132.958962 
L 284.725612 -142.180105 
L 280.987941 -145.540464 
L 277.250271 -153.967266 
L 273.512601 -164.026906 
L 269.774931 -157.86888 
L 266.037261 -129.937508 
L 262.29959 -110.447732 
L 258.56192 -106.251721 
L 254.82425 -119.024458 
L 251.08658 -128.079583 
L 247.34891 -130.691536 
L 243.611239 -132.571234 
L 239.873569 -137.967372 
L 236.135899 -141.793903 
L 232.398229 -127.041561 
L 228.660559 -111.253828 
L 224.922888 -105.413384 
L 221.185218 -113.130041 
L 217.447548 -123.838295 
L 213.709878 -131.142065 
z
"/>
    </defs>
    <g clip-path="url(#p3d29d8691e)">
     <use xlink:href="#m2a28da37b1" x="0" y="223.92" style="fill: #228b22; fill-opacity: 0.2"/>
    </g>
   </g>
   <g id="FillBetweenPolyCollection_8">
    <defs>
     <path id="meca53a887a" d="M 213.709878 -127.347796 
L 213.709878 -96.038935 
L 217.447548 -91.884887 
L 221.185218 -82.972667 
L 224.922888 -75.349735 
L 228.660559 -84.476165 
L 232.398229 -102.640934 
L 236.135899 -115.476876 
L 239.873569 -111.946086 
L 243.611239 -107.351388 
L 247.34891 -103.15343 
L 251.08658 -99.427875 
L 254.82425 -93.749814 
L 258.56192 -83.705691 
L 262.29959 -79.171069 
L 266.037261 -80.161156 
L 269.774931 -82.709542 
L 273.512601 -83.924027 
L 277.250271 -85.445836 
L 280.987941 -90.183989 
L 284.725612 -93.846543 
L 288.463282 -95.82352 
L 292.200952 -89.112537 
L 295.938622 -83.457839 
L 299.676293 -93.210808 
L 303.413963 -108.194558 
L 307.151633 -117.7355 
L 310.889303 -116.545111 
L 314.626973 -112.922608 
L 318.364644 -113.012362 
L 322.102314 -109.42788 
L 325.839984 -99.819281 
L 325.839984 -129.547602 
L 325.839984 -129.547602 
L 322.102314 -139.189223 
L 318.364644 -143.670966 
L 314.626973 -144.783158 
L 310.889303 -149.134912 
L 307.151633 -152.060895 
L 303.413963 -138.546943 
L 299.676293 -120.675523 
L 295.938622 -112.756795 
L 292.200952 -117.616644 
L 288.463282 -123.560722 
L 284.725612 -122.568924 
L 280.987941 -117.15039 
L 277.250271 -112.685118 
L 273.512601 -109.424938 
L 269.774931 -107.540761 
L 266.037261 -105.389103 
L 262.29959 -106.015643 
L 258.56192 -111.997257 
L 254.82425 -124.350476 
L 251.08658 -130.139883 
L 247.34891 -135.982723 
L 243.611239 -137.297103 
L 239.873569 -145.050728 
L 236.135899 -150.903098 
L 232.398229 -134.512987 
L 228.660559 -115.179891 
L 224.922888 -108.043333 
L 221.185218 -114.365889 
L 217.447548 -122.557711 
L 213.709878 -127.347796 
z
"/>
    </defs>
    <g clip-path="url(#p3d29d8691e)">
     <use xlink:href="#meca53a887a" x="0" y="223.92" style="fill: #8b008b; fill-opacity: 0.2"/>
    </g>
   </g>
   <g id="matplotlib.axis_7">
    <g id="xtick_10">
     <g id="line2d_31">
      <g>
       <use xlink:href="#m92a2910a54" x="249.217745" y="167.24" style="stroke: #000000; stroke-width: 2"/>
      </g>
     </g>
     <g id="text_16">
      <!-- 0 -->
      <g transform="translate(246.036495 181.838437) scale(0.1 -0.1)">
       <use xlink:href="#DejaVuSans-30"/>
      </g>
     </g>
    </g>
    <g id="xtick_11">
     <g id="line2d_32">
      <g>
       <use xlink:href="#m92a2910a54" x="271.643766" y="167.24" style="stroke: #000000; stroke-width: 2"/>
      </g>
     </g>
     <g id="text_17">
      <!-- 6 -->
      <g transform="translate(268.462516 181.838437) scale(0.1 -0.1)">
       <use xlink:href="#DejaVuSans-36"/>
      </g>
     </g>
    </g>
    <g id="xtick_12">
     <g id="line2d_33">
      <g>
       <use xlink:href="#m92a2910a54" x="294.069787" y="167.24" style="stroke: #000000; stroke-width: 2"/>
      </g>
     </g>
     <g id="text_18">
      <!-- 12 -->
      <g transform="translate(287.707287 181.838437) scale(0.1 -0.1)">
       <use xlink:href="#DejaVuSans-31"/>
       <use xlink:href="#DejaVuSans-32" transform="translate(63.623047 0)"/>
      </g>
     </g>
    </g>
   </g>
   <g id="matplotlib.axis_8">
    <g id="ytick_10">
     <g id="line2d_34">
      <g>
       <use xlink:href="#m18b13251d8" x="247.34891" y="147.707971"/>
      </g>
     </g>
    </g>
    <g id="ytick_11">
     <g id="line2d_35">
      <g>
       <use xlink:href="#m18b13251d8" x="247.34891" y="116.022197"/>
      </g>
     </g>
    </g>
    <g id="ytick_12">
     <g id="line2d_36">
      <g>
       <use xlink:href="#m18b13251d8" x="247.34891" y="84.336423"/>
      </g>
     </g>
    </g>
   </g>
   <g id="line2d_37">
    <path d="M 213.709878 108.915039 
L 217.447548 115.579418 
L 221.185218 125.832086 
L 224.922888 134.069413 
L 228.660559 127.418446 
L 232.398229 113.001476 
L 236.135899 99.319834 
L 239.873569 102.124682 
L 243.611239 107.387353 
L 247.34891 109.047622 
L 251.08658 111.69718 
L 254.82425 120.060863 
L 258.56192 134.074198 
L 262.29959 130.111962 
L 266.037261 108.748672 
L 269.774931 82.104979 
L 273.512601 75.426901 
L 277.250271 84.824763 
L 280.987941 93.881608 
L 284.725612 97.150904 
L 288.463282 106.586812 
L 292.200952 120.957117 
L 295.938622 133.695753 
L 299.676293 131.008741 
L 303.413963 117.605328 
L 307.151633 106.895526 
L 310.889303 108.166649 
L 314.626973 114.150547 
L 318.364644 115.245933 
L 322.102314 115.358286 
L 325.839984 121.732946 
" clip-path="url(#p3d29d8691e)" style="fill: none; stroke: #228b22; stroke-width: 1.5; stroke-linecap: square"/>
   </g>
   <g id="line2d_38">
    <path d="M 213.709878 112.226634 
L 217.447548 116.698701 
L 221.185218 125.250722 
L 224.922888 132.223466 
L 228.660559 124.091972 
L 232.398229 105.34304 
L 236.135899 90.730013 
L 239.873569 95.421593 
L 243.611239 101.595755 
L 247.34891 104.351923 
L 251.08658 109.136121 
L 254.82425 114.869855 
L 258.56192 126.068526 
L 262.29959 131.326644 
L 266.037261 131.144871 
L 269.774931 128.794848 
L 273.512601 127.245517 
L 277.250271 124.854523 
L 280.987941 120.252811 
L 284.725612 115.712266 
L 288.463282 114.227879 
L 292.200952 120.55541 
L 295.938622 125.812683 
L 299.676293 116.976835 
L 303.413963 100.549249 
L 307.151633 89.021803 
L 310.889303 91.079989 
L 314.626973 95.067117 
L 318.364644 95.578336 
L 322.102314 99.611449 
L 325.839984 109.236559 
" clip-path="url(#p3d29d8691e)" style="fill: none; stroke: #8b008b; stroke-width: 1.5; stroke-linecap: square"/>
   </g>
   <g id="line2d_39">
    <path d="M 249.217745 167.24 
L 249.217745 53.52 
" clip-path="url(#p3d29d8691e)" style="fill: none; stroke: #000000; stroke-width: 0.8; stroke-linecap: square"/>
   </g>
   <g id="line2d_40">
    <path d="M 258.56192 167.24 
L 258.56192 53.52 
" clip-path="url(#p3d29d8691e)" style="fill: none; stroke-dasharray: 2.96,1.28; stroke-dashoffset: 0; stroke: #000000; stroke-width: 0.8"/>
   </g>
   <g id="patch_10">
    <path d="M 249.217745 167.24 
L 294.069787 167.24 
" style="fill: none; stroke: #000000; stroke-width: 2; stroke-linejoin: miter; stroke-linecap: square"/>
   </g>
   <g id="text_19">
    <!-- M1 -->
    <g transform="translate(261.714973 47.52) scale(0.12 -0.12)">
     <use xlink:href="#DejaVuSans-4d"/>
     <use xlink:href="#DejaVuSans-31" transform="translate(86.279297 0)"/>
    </g>
   </g>
  </g>
  <g id="axes_5">
   <g id="patch_11">
    <path d="M 312.465213 167.24 
L 359.18609 167.24 
L 359.18609 53.52 
L 312.465213 53.52 
z
" style="fill: #ffffff"/>
   </g>
   <g id="FillBetweenPolyCollection_9">
    <defs>
     <path id="m5fc3c7c728" d="M 278.826181 -139.259772 
L 278.826181 -105.506078 
L 282.563851 -99.209817 
L 286.301521 -87.870389 
L 290.039191 -71.311335 
L 293.776862 -70.158822 
L 297.514532 -81.63694 
L 301.252202 -100.590935 
L 304.989872 -106.122863 
L 308.727543 -103.385791 
L 312.465213 -104.633181 
L 316.202883 -103.886797 
L 319.940553 -93.830721 
L 323.678223 -77.544297 
L 327.415894 -61.849091 
L 331.153564 -80.557813 
L 334.891234 -112.528429 
L 338.628904 -135.024106 
L 342.366574 -134.628829 
L 346.104245 -127.909813 
L 349.841915 -126.292217 
L 353.579585 -115.754343 
L 357.317255 -98.059173 
L 361.054926 -75.922507 
L 364.792596 -67.919962 
L 368.530266 -78.184134 
L 372.267936 -92.319473 
L 376.005606 -98.273703 
L 379.743277 -97.59666 
L 383.480947 -97.33753 
L 387.218617 -99.128197 
L 390.956287 -91.541311 
L 390.956287 -122.376211 
L 390.956287 -122.376211 
L 387.218617 -129.8947 
L 383.480947 -129.461328 
L 379.743277 -128.686738 
L 376.005606 -132.863595 
L 372.267936 -126.111095 
L 368.530266 -108.226783 
L 364.792596 -98.476791 
L 361.054926 -109.573881 
L 357.317255 -131.213168 
L 353.579585 -148.677779 
L 349.841915 -157.843081 
L 346.104245 -158.811385 
L 342.366574 -165.230909 
L 338.628904 -163.963094 
L 334.891234 -143.362383 
L 331.153564 -109.866346 
L 327.415894 -96.746631 
L 323.678223 -110.155413 
L 319.940553 -126.355714 
L 316.202883 -136.436543 
L 312.465213 -138.011278 
L 308.727543 -138.600049 
L 304.989872 -141.009838 
L 301.252202 -135.9943 
L 297.514532 -113.371379 
L 293.776862 -100.272416 
L 290.039191 -104.09142 
L 286.301521 -119.602292 
L 282.563851 -132.743573 
L 278.826181 -139.259772 
z
"/>
    </defs>
    <g clip-path="url(#pd05b02a90d)">
     <use xlink:href="#m5fc3c7c728" x="0" y="223.92" style="fill: #228b22; fill-opacity: 0.2"/>
    </g>
   </g>
   <g id="FillBetweenPolyCollection_10">
    <defs>
     <path id="m2c9a9edef9" d="M 278.826181 -137.212966 
L 278.826181 -104.001645 
L 282.563851 -98.886794 
L 286.301521 -88.134786 
L 290.039191 -72.8407 
L 293.776862 -73.445242 
L 297.514532 -90.032618 
L 301.252202 -109.269168 
L 304.989872 -114.14074 
L 308.727543 -112.909526 
L 312.465213 -110.221991 
L 316.202883 -108.170979 
L 319.940553 -99.21278 
L 323.678223 -88.398038 
L 327.415894 -78.187418 
L 331.153564 -71.995726 
L 334.891234 -71.352578 
L 338.628904 -72.780112 
L 342.366574 -75.787737 
L 346.104245 -82.72661 
L 349.841915 -91.09823 
L 353.579585 -94.118711 
L 357.317255 -87.581979 
L 361.054926 -76.302061 
L 364.792596 -80.207687 
L 368.530266 -98.011809 
L 372.267936 -114.030727 
L 376.005606 -120.134816 
L 379.743277 -119.337424 
L 383.480947 -122.27591 
L 387.218617 -119.698053 
L 390.956287 -109.459024 
L 390.956287 -141.156743 
L 390.956287 -141.156743 
L 387.218617 -152.231378 
L 383.480947 -154.912819 
L 379.743277 -154.502455 
L 376.005606 -154.113661 
L 372.267936 -145.575222 
L 368.530266 -125.918753 
L 364.792596 -109.166031 
L 361.054926 -108.036135 
L 357.317255 -117.191383 
L 353.579585 -121.624465 
L 349.841915 -118.916987 
L 346.104245 -110.907171 
L 342.366574 -104.68805 
L 338.628904 -99.346817 
L 334.891234 -97.850512 
L 331.153564 -99.558501 
L 327.415894 -106.042184 
L 323.678223 -118.352466 
L 319.940553 -132.877373 
L 316.202883 -141.486069 
L 312.465213 -145.010645 
L 308.727543 -145.066068 
L 304.989872 -150.474063 
L 301.252202 -145.750207 
L 297.514532 -120.217613 
L 293.776862 -103.185259 
L 290.039191 -106.212158 
L 286.301521 -120.404154 
L 282.563851 -131.473596 
L 278.826181 -137.212966 
z
"/>
    </defs>
    <g clip-path="url(#pd05b02a90d)">
     <use xlink:href="#m2c9a9edef9" x="0" y="223.92" style="fill: #8b008b; fill-opacity: 0.2"/>
    </g>
   </g>
   <g id="matplotlib.axis_9">
    <g id="xtick_13">
     <g id="line2d_41">
      <g>
       <use xlink:href="#m92a2910a54" x="314.334048" y="167.24" style="stroke: #000000; stroke-width: 2"/>
      </g>
     </g>
     <g id="text_20">
      <!-- 0 -->
      <g transform="translate(311.152798 181.838437) scale(0.1 -0.1)">
       <use xlink:href="#DejaVuSans-30"/>
      </g>
     </g>
    </g>
    <g id="xtick_14">
     <g id="line2d_42">
      <g>
       <use xlink:href="#m92a2910a54" x="336.760069" y="167.24" style="stroke: #000000; stroke-width: 2"/>
      </g>
     </g>
     <g id="text_21">
      <!-- 6 -->
      <g transform="translate(333.578819 181.838437) scale(0.1 -0.1)">
       <use xlink:href="#DejaVuSans-36"/>
      </g>
     </g>
    </g>
    <g id="xtick_15">
     <g id="line2d_43">
      <g>
       <use xlink:href="#m92a2910a54" x="359.18609" y="167.24" style="stroke: #000000; stroke-width: 2"/>
      </g>
     </g>
     <g id="text_22">
      <!-- 12 -->
      <g transform="translate(352.82359 181.838437) scale(0.1 -0.1)">
       <use xlink:href="#DejaVuSans-31"/>
       <use xlink:href="#DejaVuSans-32" transform="translate(63.623047 0)"/>
      </g>
     </g>
    </g>
   </g>
   <g id="matplotlib.axis_10">
    <g id="ytick_13">
     <g id="line2d_44">
      <g>
       <use xlink:href="#m18b13251d8" x="312.465213" y="147.707971"/>
      </g>
     </g>
    </g>
    <g id="ytick_14">
     <g id="line2d_45">
      <g>
       <use xlink:href="#m18b13251d8" x="312.465213" y="116.022197"/>
      </g>
     </g>
    </g>
    <g id="ytick_15">
     <g id="line2d_46">
      <g>
       <use xlink:href="#m18b13251d8" x="312.465213" y="84.336423"/>
      </g>
     </g>
    </g>
   </g>
   <g id="line2d_47">
    <path d="M 278.826181 101.537075 
L 282.563851 107.943305 
L 286.301521 120.18366 
L 290.039191 136.218622 
L 293.776862 138.704381 
L 297.514532 126.415841 
L 301.252202 105.627382 
L 304.989872 100.35365 
L 308.727543 102.92708 
L 312.465213 102.59777 
L 316.202883 103.75833 
L 319.940553 113.826783 
L 323.678223 130.070145 
L 327.415894 144.622139 
L 331.153564 128.70792 
L 334.891234 95.974594 
L 338.628904 74.4264 
L 342.366574 73.990131 
L 346.104245 80.559401 
L 349.841915 81.852351 
L 353.579585 91.703939 
L 357.317255 109.283829 
L 361.054926 131.171806 
L 364.792596 140.721623 
L 368.530266 130.714541 
L 372.267936 114.704716 
L 376.005606 108.351351 
L 379.743277 110.778301 
L 383.480947 110.520571 
L 387.218617 109.408552 
L 390.956287 116.961239 
" clip-path="url(#pd05b02a90d)" style="fill: none; stroke: #228b22; stroke-width: 1.5; stroke-linecap: square"/>
   </g>
   <g id="line2d_48">
    <path d="M 278.826181 103.312695 
L 282.563851 108.739805 
L 286.301521 119.65053 
L 290.039191 134.393571 
L 293.776862 135.604749 
L 297.514532 118.794884 
L 301.252202 96.410313 
L 304.989872 91.612599 
L 308.727543 94.932203 
L 312.465213 96.303682 
L 316.202883 99.091476 
L 319.940553 107.874924 
L 323.678223 120.544748 
L 327.415894 131.805199 
L 331.153564 138.142886 
L 334.891234 139.318455 
L 338.628904 137.856536 
L 342.366574 133.682106 
L 346.104245 127.103109 
L 349.841915 118.912392 
L 353.579585 116.048412 
L 357.317255 121.533319 
L 361.054926 131.750902 
L 364.792596 129.233141 
L 368.530266 111.954719 
L 372.267936 94.117026 
L 376.005606 86.795762 
L 379.743277 87.000061 
L 383.480947 85.325636 
L 387.218617 87.955285 
L 390.956287 98.612117 
" clip-path="url(#pd05b02a90d)" style="fill: none; stroke: #8b008b; stroke-width: 1.5; stroke-linecap: square"/>
   </g>
   <g id="line2d_49">
    <path d="M 314.334048 167.24 
L 314.334048 53.52 
" clip-path="url(#pd05b02a90d)" style="fill: none; stroke: #000000; stroke-width: 0.8; stroke-linecap: square"/>
   </g>
   <g id="line2d_50">
    <path d="M 323.678223 167.24 
L 323.678223 53.52 
" clip-path="url(#pd05b02a90d)" style="fill: none; stroke-dasharray: 2.96,1.28; stroke-dashoffset: 0; stroke: #000000; stroke-width: 0.8"/>
   </g>
   <g id="patch_12">
    <path d="M 314.334048 167.24 
L 359.18609 167.24 
" style="fill: none; stroke: #000000; stroke-width: 2; stroke-linejoin: miter; stroke-linecap: square"/>
   </g>
   <g id="text_23">
    <!-- S1 -->
    <g transform="translate(328.199089 47.52) scale(0.12 -0.12)">
     <use xlink:href="#DejaVuSans-53"/>
     <use xlink:href="#DejaVuSans-31" transform="translate(63.476562 0)"/>
    </g>
   </g>
  </g>
  <g id="axes_6">
   <g id="patch_13">
    <path d="M 377.581516 167.24 
L 424.302394 167.24 
L 424.302394 53.52 
L 377.581516 53.52 
z
" style="fill: #ffffff"/>
   </g>
   <g id="FillBetweenPolyCollection_11">
    <defs>
     <path id="mf5d41d438c" d="M 343.942484 -126.839809 
L 343.942484 -98.734666 
L 347.680154 -94.437054 
L 351.417824 -86.817047 
L 355.155495 -76.799997 
L 358.893165 -84.143467 
L 362.630835 -93.98866 
L 366.368505 -106.441167 
L 370.106176 -108.159506 
L 373.843846 -102.298241 
L 377.581516 -100.052069 
L 381.319186 -97.620001 
L 385.056856 -91.977082 
L 388.794527 -78.476462 
L 392.532197 -74.205275 
L 396.269867 -95.251067 
L 400.007537 -115.006366 
L 403.745207 -125.535555 
L 407.482878 -120.797297 
L 411.220548 -109.236188 
L 414.958218 -106.174221 
L 418.695888 -101.351503 
L 422.433559 -92.305414 
L 426.171229 -80.725206 
L 429.908899 -84.14189 
L 433.646569 -93.532324 
L 437.384239 -102.345585 
L 441.12191 -104.887761 
L 444.85958 -100.472118 
L 448.59725 -96.604154 
L 452.33492 -96.841692 
L 456.07259 -91.927162 
L 456.07259 -117.816952 
L 456.07259 -117.816952 
L 452.33492 -122.442012 
L 448.59725 -123.775061 
L 444.85958 -127.438201 
L 441.12191 -132.924422 
L 437.384239 -129.887082 
L 433.646569 -119.455778 
L 429.908899 -110.636519 
L 426.171229 -108.539052 
L 422.433559 -118.657306 
L 418.695888 -127.70339 
L 414.958218 -131.922203 
L 411.220548 -136.541977 
L 407.482878 -148.40636 
L 403.745207 -153.04242 
L 400.007537 -142.615055 
L 396.269867 -122.526781 
L 392.532197 -104.976843 
L 388.794527 -106.426986 
L 385.056856 -118.612639 
L 381.319186 -124.873347 
L 377.581516 -128.123657 
L 373.843846 -131.804119 
L 370.106176 -137.229347 
L 366.368505 -136.652698 
L 362.630835 -121.416847 
L 358.893165 -111.315211 
L 355.155495 -104.954111 
L 351.417824 -113.23723 
L 347.680154 -121.955071 
L 343.942484 -126.839809 
z
"/>
    </defs>
    <g clip-path="url(#pd559128740)">
     <use xlink:href="#mf5d41d438c" x="0" y="223.92" style="fill: #228b22; fill-opacity: 0.2"/>
    </g>
   </g>
   <g id="FillBetweenPolyCollection_12">
    <defs>
     <path id="m8ef5bb9aba" d="M 343.942484 -125.33803 
L 343.942484 -97.832344 
L 347.680154 -94.436116 
L 351.417824 -86.622838 
L 355.155495 -76.05185 
L 358.893165 -84.078787 
L 362.630835 -98.835811 
L 366.368505 -110.958056 
L 370.106176 -112.748139 
L 373.843846 -107.758957 
L 377.581516 -102.471694 
L 381.319186 -99.309119 
L 385.056856 -93.870279 
L 388.794527 -86.691774 
L 392.532197 -84.125724 
L 396.269867 -85.905447 
L 400.007537 -88.978389 
L 403.745207 -93.25122 
L 407.482878 -96.602371 
L 411.220548 -100.436924 
L 414.958218 -102.817889 
L 418.695888 -100.752167 
L 422.433559 -91.773044 
L 426.171229 -78.901876 
L 429.908899 -88.713637 
L 433.646569 -102.014143 
L 437.384239 -112.111926 
L 441.12191 -115.096449 
L 444.85958 -109.835573 
L 448.59725 -108.572102 
L 452.33492 -104.224195 
L 456.07259 -98.825618 
L 456.07259 -125.069749 
L 456.07259 -125.069749 
L 452.33492 -130.701017 
L 448.59725 -135.241673 
L 444.85958 -138.693917 
L 441.12191 -143.68029 
L 437.384239 -139.979463 
L 433.646569 -127.932248 
L 429.908899 -116.33632 
L 426.171229 -108.542106 
L 422.433559 -118.812203 
L 418.695888 -126.020762 
L 414.958218 -129.083735 
L 411.220548 -127.798851 
L 407.482878 -123.402078 
L 403.745207 -117.119742 
L 400.007537 -112.243219 
L 396.269867 -110.124339 
L 392.532197 -109.069429 
L 388.794527 -111.605355 
L 385.056856 -121.360375 
L 381.319186 -125.782445 
L 377.581516 -130.262202 
L 373.843846 -134.515516 
L 370.106176 -143.795347 
L 366.368505 -142.633191 
L 362.630835 -125.546769 
L 358.893165 -112.505108 
L 355.155495 -105.201221 
L 351.417824 -114.168606 
L 347.680154 -121.100872 
L 343.942484 -125.33803 
z
"/>
    </defs>
    <g clip-path="url(#pd559128740)">
     <use xlink:href="#m8ef5bb9aba" x="0" y="223.92" style="fill: #8b008b; fill-opacity: 0.2"/>
    </g>
   </g>
   <g id="matplotlib.axis_11">
    <g id="xtick_16">
     <g id="line2d_51">
      <g>
       <use xlink:href="#m92a2910a54" x="379.450351" y="167.24" style="stroke: #000000; stroke-width: 2"/>
      </g>
     </g>
     <g id="text_24">
      <!-- 0 -->
      <g transform="translate(376.269101 181.838437) scale(0.1 -0.1)">
       <use xlink:href="#DejaVuSans-30"/>
      </g>
     </g>
    </g>
    <g id="xtick_17">
     <g id="line2d_52">
      <g>
       <use xlink:href="#m92a2910a54" x="401.876372" y="167.24" style="stroke: #000000; stroke-width: 2"/>
      </g>
     </g>
     <g id="text_25">
      <!-- 6 -->
      <g transform="translate(398.695122 181.838437) scale(0.1 -0.1)">
       <use xlink:href="#DejaVuSans-36"/>
      </g>
     </g>
    </g>
    <g id="xtick_18">
     <g id="line2d_53">
      <g>
       <use xlink:href="#m92a2910a54" x="424.302394" y="167.24" style="stroke: #000000; stroke-width: 2"/>
      </g>
     </g>
     <g id="text_26">
      <!-- 12 -->
      <g transform="translate(417.939894 181.838437) scale(0.1 -0.1)">
       <use xlink:href="#DejaVuSans-31"/>
       <use xlink:href="#DejaVuSans-32" transform="translate(63.623047 0)"/>
      </g>
     </g>
    </g>
   </g>
   <g id="matplotlib.axis_12">
    <g id="ytick_16">
     <g id="line2d_54">
      <g>
       <use xlink:href="#m18b13251d8" x="377.581516" y="147.707971"/>
      </g>
     </g>
    </g>
    <g id="ytick_17">
     <g id="line2d_55">
      <g>
       <use xlink:href="#m18b13251d8" x="377.581516" y="116.022197"/>
      </g>
     </g>
    </g>
    <g id="ytick_18">
     <g id="line2d_56">
      <g>
       <use xlink:href="#m18b13251d8" x="377.581516" y="84.336423"/>
      </g>
     </g>
    </g>
   </g>
   <g id="line2d_57">
    <path d="M 343.942484 111.132762 
L 347.680154 115.723937 
L 351.417824 123.892861 
L 355.155495 133.042946 
L 358.893165 126.190661 
L 362.630835 116.217247 
L 366.368505 102.373068 
L 370.106176 101.225574 
L 373.843846 106.86882 
L 377.581516 109.832137 
L 381.319186 112.673326 
L 385.056856 118.62514 
L 388.794527 131.468276 
L 392.532197 134.328941 
L 396.269867 115.031076 
L 400.007537 95.10929 
L 403.745207 84.631013 
L 407.482878 89.318172 
L 411.220548 101.030918 
L 414.958218 104.871788 
L 418.695888 109.392553 
L 422.433559 118.43864 
L 426.171229 129.287871 
L 429.908899 126.530795 
L 433.646569 117.425949 
L 437.384239 107.803667 
L 441.12191 105.013909 
L 444.85958 109.964841 
L 448.59725 113.730392 
L 452.33492 114.278148 
L 456.07259 119.047943 
" clip-path="url(#pd559128740)" style="fill: none; stroke: #228b22; stroke-width: 1.5; stroke-linecap: square"/>
   </g>
   <g id="line2d_58">
    <path d="M 343.942484 112.334813 
L 347.680154 116.151506 
L 351.417824 123.524278 
L 355.155495 133.293465 
L 358.893165 125.628053 
L 362.630835 111.72871 
L 366.368505 97.124376 
L 370.106176 95.648257 
L 373.843846 102.782763 
L 377.581516 107.553052 
L 381.319186 111.374218 
L 385.056856 116.304673 
L 388.794527 124.771435 
L 392.532197 127.322423 
L 396.269867 125.905107 
L 400.007537 123.309196 
L 403.745207 118.734519 
L 407.482878 113.917775 
L 411.220548 109.802112 
L 414.958218 107.969188 
L 418.695888 110.533536 
L 422.433559 118.627377 
L 426.171229 130.198009 
L 429.908899 121.395021 
L 433.646569 108.946804 
L 437.384239 97.874305 
L 441.12191 94.53163 
L 444.85958 99.655255 
L 448.59725 102.013112 
L 452.33492 106.457394 
L 456.07259 111.972316 
" clip-path="url(#pd559128740)" style="fill: none; stroke: #8b008b; stroke-width: 1.5; stroke-linecap: square"/>
   </g>
   <g id="line2d_59">
    <path d="M 379.450351 167.24 
L 379.450351 53.52 
" clip-path="url(#pd559128740)" style="fill: none; stroke: #000000; stroke-width: 0.8; stroke-linecap: square"/>
   </g>
   <g id="line2d_60">
    <path d="M 388.794527 167.24 
L 388.794527 53.52 
" clip-path="url(#pd559128740)" style="fill: none; stroke-dasharray: 2.96,1.28; stroke-dashoffset: 0; stroke: #000000; stroke-width: 0.8"/>
   </g>
   <g id="patch_14">
    <path d="M 379.450351 167.24 
L 424.302394 167.24 
" style="fill: none; stroke: #000000; stroke-width: 2; stroke-linejoin: miter; stroke-linecap: square"/>
   </g>
   <g id="text_27">
    <!-- SPLa -->
    <g transform="translate(386.49508 47.52) scale(0.12 -0.12)">
     <defs>
      <path id="DejaVuSans-4c" d="M 628 4666 
L 1259 4666 
L 1259 531 
L 3531 531 
L 3531 0 
L 628 0 
L 628 4666 
z
" transform="scale(0.015625)"/>
      <path id="DejaVuSans-61" d="M 2194 1759 
Q 1497 1759 1228 1600 
Q 959 1441 959 1056 
Q 959 750 1161 570 
Q 1363 391 1709 391 
Q 2188 391 2477 730 
Q 2766 1069 2766 1631 
L 2766 1759 
L 2194 1759 
z
M 3341 1997 
L 3341 0 
L 2766 0 
L 2766 531 
Q 2569 213 2275 61 
Q 1981 -91 1556 -91 
Q 1019 -91 701 211 
Q 384 513 384 1019 
Q 384 1609 779 1909 
Q 1175 2209 1959 2209 
L 2766 2209 
L 2766 2266 
Q 2766 2663 2505 2880 
Q 2244 3097 1772 3097 
Q 1472 3097 1187 3025 
Q 903 2953 641 2809 
L 641 3341 
Q 956 3463 1253 3523 
Q 1550 3584 1831 3584 
Q 2591 3584 2966 3190 
Q 3341 2797 3341 1997 
z
" transform="scale(0.015625)"/>
     </defs>
     <use xlink:href="#DejaVuSans-53"/>
     <use xlink:href="#DejaVuSans-50" transform="translate(63.476562 0)"/>
     <use xlink:href="#DejaVuSans-4c" transform="translate(123.779297 0)"/>
     <use xlink:href="#DejaVuSans-61" transform="translate(179.492188 0)"/>
    </g>
   </g>
  </g>
  <g id="axes_7">
   <g id="patch_15">
    <path d="M 442.697819 167.24 
L 489.418697 167.24 
L 489.418697 53.52 
L 442.697819 53.52 
z
" style="fill: #ffffff"/>
   </g>
   <g id="FillBetweenPolyCollection_13">
    <defs>
     <path id="m130ddc6ff5" d="M 409.058787 -126.840195 
L 409.058787 -101.060522 
L 412.796457 -96.070292 
L 416.534128 -87.865199 
L 420.271798 -79.819155 
L 424.009468 -87.193756 
L 427.747138 -94.333193 
L 431.484809 -104.484875 
L 435.222479 -105.402252 
L 438.960149 -102.081288 
L 442.697819 -101.81305 
L 446.435489 -100.143537 
L 450.17316 -92.739883 
L 453.91083 -80.823858 
L 457.6485 -80.050088 
L 461.38617 -97.98192 
L 465.12384 -111.855557 
L 468.861511 -119.432091 
L 472.599181 -116.593733 
L 476.336851 -111.165672 
L 480.074521 -107.516351 
L 483.812191 -101.128098 
L 487.549862 -90.113557 
L 491.287532 -78.942827 
L 495.025202 -84.269093 
L 498.762872 -91.386913 
L 502.500543 -98.780345 
L 506.238213 -100.668054 
L 509.975883 -100.873083 
L 513.713553 -99.040827 
L 517.451223 -99.698278 
L 521.188894 -92.562056 
L 521.188894 -117.616616 
L 521.188894 -117.616616 
L 517.451223 -123.304184 
L 513.713553 -125.804311 
L 509.975883 -126.523981 
L 506.238213 -127.023993 
L 502.500543 -123.174941 
L 498.762872 -114.941778 
L 495.025202 -108.821846 
L 491.287532 -105.850644 
L 487.549862 -113.542945 
L 483.812191 -126.82044 
L 480.074521 -133.003385 
L 476.336851 -139.178516 
L 472.599181 -144.945766 
L 468.861511 -145.419403 
L 465.12384 -137.007209 
L 461.38617 -122.592996 
L 457.6485 -110.126696 
L 453.91083 -107.620588 
L 450.17316 -116.613053 
L 446.435489 -124.063622 
L 442.697819 -128.044041 
L 438.960149 -130.386512 
L 435.222479 -132.794868 
L 431.484809 -130.903032 
L 427.747138 -122.35035 
L 424.009468 -112.129809 
L 420.271798 -105.915623 
L 416.534128 -111.989275 
L 412.796457 -121.713291 
L 409.058787 -126.840195 
z
"/>
    </defs>
    <g clip-path="url(#p9e107786ce)">
     <use xlink:href="#m130ddc6ff5" x="0" y="223.92" style="fill: #228b22; fill-opacity: 0.2"/>
    </g>
   </g>
   <g id="FillBetweenPolyCollection_14">
    <defs>
     <path id="m11ccb2c835" d="M 409.058787 -124.249171 
L 409.058787 -99.419233 
L 412.796457 -95.416319 
L 416.534128 -88.877929 
L 420.271798 -78.686051 
L 424.009468 -86.862999 
L 427.747138 -97.315818 
L 431.484809 -106.814494 
L 435.222479 -107.242985 
L 438.960149 -106.805693 
L 442.697819 -102.505848 
L 446.435489 -102.366136 
L 450.17316 -94.681553 
L 453.91083 -86.734074 
L 457.6485 -85.583872 
L 461.38617 -86.881021 
L 465.12384 -88.802657 
L 468.861511 -90.885023 
L 472.599181 -93.534184 
L 476.336851 -98.947076 
L 480.074521 -104.578616 
L 483.812191 -103.733316 
L 487.549862 -96.872205 
L 491.287532 -89.835047 
L 495.025202 -94.326231 
L 498.762872 -104.347739 
L 502.500543 -109.556667 
L 506.238213 -110.971315 
L 509.975883 -107.624551 
L 513.713553 -108.845513 
L 517.451223 -105.230133 
L 521.188894 -98.119482 
L 521.188894 -121.811899 
L 521.188894 -121.811899 
L 517.451223 -129.803745 
L 513.713553 -134.570815 
L 509.975883 -136.926456 
L 506.238213 -139.504124 
L 502.500543 -135.6758 
L 498.762872 -128.9211 
L 495.025202 -120.732224 
L 491.287532 -115.349279 
L 487.549862 -121.506352 
L 483.812191 -126.215135 
L 480.074521 -127.441775 
L 476.336851 -124.559825 
L 472.599181 -119.101118 
L 468.861511 -112.859303 
L 465.12384 -109.697356 
L 461.38617 -109.201511 
L 457.6485 -107.885778 
L 453.91083 -110.597398 
L 450.17316 -121.834509 
L 446.435489 -127.273506 
L 442.697819 -132.127826 
L 438.960149 -133.299328 
L 435.222479 -137.143986 
L 431.484809 -135.151827 
L 427.747138 -122.493254 
L 424.009468 -114.392475 
L 420.271798 -108.894892 
L 416.534128 -113.099436 
L 412.796457 -120.78489 
L 409.058787 -124.249171 
z
"/>
    </defs>
    <g clip-path="url(#p9e107786ce)">
     <use xlink:href="#m11ccb2c835" x="0" y="223.92" style="fill: #8b008b; fill-opacity: 0.2"/>
    </g>
   </g>
   <g id="matplotlib.axis_13">
    <g id="xtick_19">
     <g id="line2d_61">
      <g>
       <use xlink:href="#m92a2910a54" x="444.566654" y="167.24" style="stroke: #000000; stroke-width: 2"/>
      </g>
     </g>
     <g id="text_28">
      <!-- 0 -->
      <g transform="translate(441.385404 181.838437) scale(0.1 -0.1)">
       <use xlink:href="#DejaVuSans-30"/>
      </g>
     </g>
    </g>
    <g id="xtick_20">
     <g id="line2d_62">
      <g>
       <use xlink:href="#m92a2910a54" x="466.992676" y="167.24" style="stroke: #000000; stroke-width: 2"/>
      </g>
     </g>
     <g id="text_29">
      <!-- 6 -->
      <g transform="translate(463.811426 181.838437) scale(0.1 -0.1)">
       <use xlink:href="#DejaVuSans-36"/>
      </g>
     </g>
    </g>
    <g id="xtick_21">
     <g id="line2d_63">
      <g>
       <use xlink:href="#m92a2910a54" x="489.418697" y="167.24" style="stroke: #000000; stroke-width: 2"/>
      </g>
     </g>
     <g id="text_30">
      <!-- 12 -->
      <g transform="translate(483.056197 181.838437) scale(0.1 -0.1)">
       <use xlink:href="#DejaVuSans-31"/>
       <use xlink:href="#DejaVuSans-32" transform="translate(63.623047 0)"/>
      </g>
     </g>
    </g>
   </g>
   <g id="matplotlib.axis_14">
    <g id="ytick_19">
     <g id="line2d_64">
      <g>
       <use xlink:href="#m18b13251d8" x="442.697819" y="147.707971"/>
      </g>
     </g>
    </g>
    <g id="ytick_20">
     <g id="line2d_65">
      <g>
       <use xlink:href="#m18b13251d8" x="442.697819" y="116.022197"/>
      </g>
     </g>
    </g>
    <g id="ytick_21">
     <g id="line2d_66">
      <g>
       <use xlink:href="#m18b13251d8" x="442.697819" y="84.336423"/>
      </g>
     </g>
    </g>
   </g>
   <g id="line2d_67">
    <path d="M 409.058787 109.969642 
L 412.796457 115.028208 
L 416.534128 123.992763 
L 420.271798 131.052611 
L 424.009468 124.258217 
L 427.747138 115.578229 
L 431.484809 106.226046 
L 435.222479 104.82144 
L 438.960149 107.6861 
L 442.697819 108.991455 
L 446.435489 111.81642 
L 450.17316 119.243532 
L 453.91083 129.697777 
L 457.6485 128.831608 
L 461.38617 113.632542 
L 465.12384 99.488617 
L 468.861511 91.494253 
L 472.599181 93.150251 
L 476.336851 98.747906 
L 480.074521 103.660132 
L 483.812191 109.945731 
L 487.549862 122.091749 
L 491.287532 131.523265 
L 495.025202 127.374531 
L 498.762872 120.755655 
L 502.500543 112.942357 
L 506.238213 110.073976 
L 509.975883 110.221468 
L 513.713553 111.497431 
L 517.451223 112.418769 
L 521.188894 118.830664 
" clip-path="url(#p9e107786ce)" style="fill: none; stroke: #228b22; stroke-width: 1.5; stroke-linecap: square"/>
   </g>
   <g id="line2d_68">
    <path d="M 409.058787 112.085798 
L 412.796457 115.819396 
L 416.534128 122.931318 
L 420.271798 130.129528 
L 424.009468 123.292263 
L 427.747138 114.015464 
L 431.484809 102.93684 
L 435.222479 101.726515 
L 438.960149 103.86749 
L 442.697819 106.603163 
L 446.435489 109.100179 
L 450.17316 115.661969 
L 453.91083 125.254264 
L 457.6485 127.185175 
L 461.38617 125.878734 
L 465.12384 124.669993 
L 468.861511 122.047837 
L 472.599181 117.602349 
L 476.336851 112.16655 
L 480.074521 107.909805 
L 483.812191 108.945774 
L 487.549862 114.730721 
L 491.287532 121.327837 
L 495.025202 116.390773 
L 498.762872 107.28558 
L 502.500543 101.303767 
L 506.238213 98.682281 
L 509.975883 101.644497 
L 513.713553 102.211836 
L 517.451223 106.403061 
L 521.188894 113.95431 
" clip-path="url(#p9e107786ce)" style="fill: none; stroke: #8b008b; stroke-width: 1.5; stroke-linecap: square"/>
   </g>
   <g id="line2d_69">
    <path d="M 444.566654 167.24 
L 444.566654 53.52 
" clip-path="url(#p9e107786ce)" style="fill: none; stroke: #000000; stroke-width: 0.8; stroke-linecap: square"/>
   </g>
   <g id="line2d_70">
    <path d="M 453.91083 167.24 
L 453.91083 53.52 
" clip-path="url(#p9e107786ce)" style="fill: none; stroke-dasharray: 2.96,1.28; stroke-dashoffset: 0; stroke: #000000; stroke-width: 0.8"/>
   </g>
   <g id="patch_16">
    <path d="M 444.566654 167.24 
L 489.418697 167.24 
" style="fill: none; stroke: #000000; stroke-width: 2; stroke-linejoin: miter; stroke-linecap: square"/>
   </g>
   <g id="text_31">
    <!-- SPLp -->
    <g transform="translate(451.479195 47.52) scale(0.12 -0.12)">
     <defs>
      <path id="DejaVuSans-70" d="M 1159 525 
L 1159 -1331 
L 581 -1331 
L 581 3500 
L 1159 3500 
L 1159 2969 
Q 1341 3281 1617 3432 
Q 1894 3584 2278 3584 
Q 2916 3584 3314 3078 
Q 3713 2572 3713 1747 
Q 3713 922 3314 415 
Q 2916 -91 2278 -91 
Q 1894 -91 1617 61 
Q 1341 213 1159 525 
z
M 3116 1747 
Q 3116 2381 2855 2742 
Q 2594 3103 2138 3103 
Q 1681 3103 1420 2742 
Q 1159 2381 1159 1747 
Q 1159 1113 1420 752 
Q 1681 391 2138 391 
Q 2594 391 2855 752 
Q 3116 1113 3116 1747 
z
" transform="scale(0.015625)"/>
     </defs>
     <use xlink:href="#DejaVuSans-53"/>
     <use xlink:href="#DejaVuSans-50" transform="translate(63.476562 0)"/>
     <use xlink:href="#DejaVuSans-4c" transform="translate(123.779297 0)"/>
     <use xlink:href="#DejaVuSans-70" transform="translate(179.492188 0)"/>
    </g>
   </g>
  </g>
  <g id="axes_8">
   <g id="patch_17">
    <path d="M 507.814122 167.24 
L 554.535 167.24 
L 554.535 53.52 
L 507.814122 53.52 
z
" style="fill: #ffffff"/>
   </g>
   <g id="FillBetweenPolyCollection_15">
    <defs>
     <path id="md04efd3fc6" d="M 474.17509 -123.252243 
L 474.17509 -101.537898 
L 477.912761 -98.743797 
L 481.650431 -93.840633 
L 485.388101 -87.357535 
L 489.125771 -90.691929 
L 492.863441 -93.356164 
L 496.601112 -99.060864 
L 500.338782 -99.152905 
L 504.076452 -100.807153 
L 507.814122 -102.525828 
L 511.551793 -102.323535 
L 515.289463 -97.27513 
L 519.027133 -90.974284 
L 522.764803 -86.985189 
L 526.502473 -96.957411 
L 530.240144 -107.150346 
L 533.977814 -110.562429 
L 537.715484 -111.533323 
L 541.453154 -109.654516 
L 545.190824 -106.487127 
L 548.928495 -102.134315 
L 552.666165 -95.395323 
L 556.403835 -86.614361 
L 560.141505 -86.460835 
L 563.879176 -88.108252 
L 567.616846 -92.037938 
L 571.354516 -93.80036 
L 575.092186 -96.874708 
L 578.829856 -99.144546 
L 582.567527 -99.320044 
L 586.305197 -96.031461 
L 586.305197 -118.002628 
L 586.305197 -118.002628 
L 582.567527 -120.341669 
L 578.829856 -120.11258 
L 575.092186 -119.917111 
L 571.354516 -116.145672 
L 567.616846 -113.716818 
L 563.879176 -110.302309 
L 560.141505 -108.572059 
L 556.403835 -110.117958 
L 552.666165 -116.481508 
L 548.928495 -122.840112 
L 545.190824 -128.141201 
L 541.453154 -133.401306 
L 537.715484 -135.644377 
L 533.977814 -133.290169 
L 530.240144 -129.361447 
L 526.502473 -120.056145 
L 522.764803 -112.745639 
L 519.027133 -113.735282 
L 515.289463 -119.451855 
L 511.551793 -123.023715 
L 507.814122 -125.102782 
L 504.076452 -125.293794 
L 500.338782 -122.921871 
L 496.601112 -123.519238 
L 492.863441 -116.333816 
L 489.125771 -113.300248 
L 485.388101 -111.478921 
L 481.650431 -116.153859 
L 477.912761 -120.024876 
L 474.17509 -123.252243 
z
"/>
    </defs>
    <g clip-path="url(#p5a97f80eb5)">
     <use xlink:href="#md04efd3fc6" x="0" y="223.92" style="fill: #228b22; fill-opacity: 0.2"/>
    </g>
   </g>
   <g id="FillBetweenPolyCollection_16">
    <defs>
     <path id="md28bba8158" d="M 474.17509 -122.755583 
L 474.17509 -100.759069 
L 477.912761 -98.299604 
L 481.650431 -94.062571 
L 485.388101 -88.220341 
L 489.125771 -90.016829 
L 492.863441 -95.43804 
L 496.601112 -101.636497 
L 500.338782 -100.890317 
L 504.076452 -102.83521 
L 507.814122 -102.994959 
L 511.551793 -102.215011 
L 515.289463 -98.26933 
L 519.027133 -94.156347 
L 522.764803 -88.711955 
L 526.502473 -84.702138 
L 530.240144 -81.596864 
L 533.977814 -81.86145 
L 537.715484 -85.434358 
L 541.453154 -94.649387 
L 545.190824 -101.127089 
L 548.928495 -103.705594 
L 552.666165 -101.605974 
L 556.403835 -95.446819 
L 560.141505 -97.127506 
L 563.879176 -102.071415 
L 567.616846 -106.866858 
L 571.354516 -106.032009 
L 575.092186 -107.215624 
L 578.829856 -109.675797 
L 582.567527 -108.121591 
L 586.305197 -103.892888 
L 586.305197 -124.769642 
L 586.305197 -124.769642 
L 582.567527 -129.176167 
L 578.829856 -132.485239 
L 575.092186 -132.726112 
L 571.354516 -130.555327 
L 567.616846 -130.439048 
L 563.879176 -124.219113 
L 560.141505 -121.309378 
L 556.403835 -118.551302 
L 552.666165 -123.628776 
L 548.928495 -124.956694 
L 545.190824 -121.584154 
L 541.453154 -115.054625 
L 537.715484 -106.494288 
L 533.977814 -103.180551 
L 530.240144 -102.367283 
L 526.502473 -105.498337 
L 522.764803 -110.826361 
L 519.027133 -115.659279 
L 515.289463 -120.016093 
L 511.551793 -123.619823 
L 507.814122 -125.672885 
L 504.076452 -126.692084 
L 500.338782 -125.785978 
L 496.601112 -126.213301 
L 492.863441 -118.340666 
L 489.125771 -113.452309 
L 485.388101 -111.126201 
L 481.650431 -115.728504 
L 477.912761 -119.772289 
L 474.17509 -122.755583 
z
"/>
    </defs>
    <g clip-path="url(#p5a97f80eb5)">
     <use xlink:href="#md28bba8158" x="0" y="223.92" style="fill: #8b008b; fill-opacity: 0.2"/>
    </g>
   </g>
   <g id="matplotlib.axis_15">
    <g id="xtick_22">
     <g id="line2d_71">
      <g>
       <use xlink:href="#m92a2910a54" x="509.682957" y="167.24" style="stroke: #000000; stroke-width: 2"/>
      </g>
     </g>
     <g id="text_32">
      <!-- 0 -->
      <g transform="translate(506.501707 181.838437) scale(0.1 -0.1)">
       <use xlink:href="#DejaVuSans-30"/>
      </g>
     </g>
    </g>
    <g id="xtick_23">
     <g id="line2d_72">
      <g>
       <use xlink:href="#m92a2910a54" x="532.108979" y="167.24" style="stroke: #000000; stroke-width: 2"/>
      </g>
     </g>
     <g id="text_33">
      <!-- 6 -->
      <g transform="translate(528.927729 181.838437) scale(0.1 -0.1)">
       <use xlink:href="#DejaVuSans-36"/>
      </g>
     </g>
    </g>
    <g id="xtick_24">
     <g id="line2d_73">
      <g>
       <use xlink:href="#m92a2910a54" x="554.535" y="167.24" style="stroke: #000000; stroke-width: 2"/>
      </g>
     </g>
     <g id="text_34">
      <!-- 12 -->
      <g transform="translate(548.1725 181.838437) scale(0.1 -0.1)">
       <use xlink:href="#DejaVuSans-31"/>
       <use xlink:href="#DejaVuSans-32" transform="translate(63.623047 0)"/>
      </g>
     </g>
    </g>
   </g>
   <g id="matplotlib.axis_16">
    <g id="ytick_22">
     <g id="line2d_74">
      <g>
       <use xlink:href="#m18b13251d8" x="507.814122" y="147.707971"/>
      </g>
     </g>
    </g>
    <g id="ytick_23">
     <g id="line2d_75">
      <g>
       <use xlink:href="#m18b13251d8" x="507.814122" y="116.022197"/>
      </g>
     </g>
    </g>
    <g id="ytick_24">
     <g id="line2d_76">
      <g>
       <use xlink:href="#m18b13251d8" x="507.814122" y="84.336423"/>
      </g>
     </g>
    </g>
   </g>
   <g id="line2d_77">
    <path d="M 474.17509 111.524929 
L 477.912761 114.535664 
L 481.650431 118.922754 
L 485.388101 124.501772 
L 489.125771 121.923911 
L 492.863441 119.07501 
L 496.601112 112.629949 
L 500.338782 112.882612 
L 504.076452 110.869527 
L 507.814122 110.105695 
L 511.551793 111.246375 
L 515.289463 115.556507 
L 519.027133 121.565217 
L 522.764803 124.054586 
L 526.502473 115.413222 
L 530.240144 105.664104 
L 533.977814 101.993701 
L 537.715484 100.33115 
L 541.453154 102.392089 
L 545.190824 106.605836 
L 548.928495 111.432787 
L 552.666165 117.981584 
L 556.403835 125.553841 
L 560.141505 126.403553 
L 563.879176 124.71472 
L 567.616846 121.042622 
L 569.0975 120.212448 
" clip-path="url(#p5a97f80eb5)" style="fill: none; stroke: #228b22; stroke-width: 1.5; stroke-linecap: square"/>
   </g>
   <g id="line2d_78">
    <path d="M 474.17509 112.162674 
L 477.912761 114.884053 
L 481.650431 119.024463 
L 485.388101 124.246729 
L 489.125771 122.185431 
L 492.863441 117.030647 
L 496.601112 109.995101 
L 500.338782 110.581852 
L 504.076452 109.156353 
L 507.814122 109.586078 
L 511.551793 111.002583 
L 515.289463 114.777288 
L 519.027133 119.012187 
L 522.764803 124.150842 
L 526.502473 128.819762 
L 530.240144 131.937926 
L 533.977814 131.399 
L 537.715484 127.955677 
L 541.453154 119.067994 
L 545.190824 112.564378 
L 548.928495 109.588856 
L 552.666165 111.302625 
L 556.403835 116.920939 
L 560.141505 114.701558 
L 563.879176 110.774736 
L 567.616846 105.267047 
L 569.0975 105.409376 
" clip-path="url(#p5a97f80eb5)" style="fill: none; stroke: #8b008b; stroke-width: 1.5; stroke-linecap: square"/>
   </g>
   <g id="line2d_79">
    <path d="M 509.682957 167.24 
L 509.682957 53.52 
" clip-path="url(#p5a97f80eb5)" style="fill: none; stroke: #000000; stroke-width: 0.8; stroke-linecap: square"/>
   </g>
   <g id="line2d_80">
    <path d="M 519.027133 167.24 
L 519.027133 53.52 
" clip-path="url(#p5a97f80eb5)" style="fill: none; stroke-dasharray: 2.96,1.28; stroke-dashoffset: 0; stroke: #000000; stroke-width: 0.8"/>
   </g>
   <g id="patch_18">
    <path d="M 509.682957 167.24 
L 554.535 167.24 
" style="fill: none; stroke: #000000; stroke-width: 2; stroke-linejoin: miter; stroke-linecap: square"/>
   </g>
   <g id="text_35">
    <!-- V1 -->
    <g transform="translate(523.252686 47.52) scale(0.12 -0.12)">
     <defs>
      <path id="DejaVuSans-56" d="M 1831 0 
L 50 4666 
L 709 4666 
L 2188 738 
L 3669 4666 
L 4325 4666 
L 2547 0 
L 1831 0 
z
" transform="scale(0.015625)"/>
     </defs>
     <use xlink:href="#DejaVuSans-56"/>
     <use xlink:href="#DejaVuSans-31" transform="translate(68.408203 0)"/>
    </g>
   </g>
  </g>
  <g id="text_36">
   <!-- activation (a.u.) -->
   <g transform="translate(16.318125 158.477812) rotate(-90) scale(0.12 -0.12)">
    <defs>
     <path id="DejaVuSans-63" d="M 3122 3366 
L 3122 2828 
Q 2878 2963 2633 3030 
Q 2388 3097 2138 3097 
Q 1578 3097 1268 2742 
Q 959 2388 959 1747 
Q 959 1106 1268 751 
Q 1578 397 2138 397 
Q 2388 397 2633 464 
Q 2878 531 3122 666 
L 3122 134 
Q 2881 22 2623 -34 
Q 2366 -91 2075 -91 
Q 1284 -91 818 406 
Q 353 903 353 1747 
Q 353 2603 823 3093 
Q 1294 3584 2113 3584 
Q 2378 3584 2631 3529 
Q 2884 3475 3122 3366 
z
" transform="scale(0.015625)"/>
     <path id="DejaVuSans-74" d="M 1172 4494 
L 1172 3500 
L 2356 3500 
L 2356 3053 
L 1172 3053 
L 1172 1153 
Q 1172 725 1289 603 
Q 1406 481 1766 481 
L 2356 481 
L 2356 0 
L 1766 0 
Q 1100 0 847 248 
Q 594 497 594 1153 
L 594 3053 
L 172 3053 
L 172 3500 
L 594 3500 
L 594 4494 
L 1172 4494 
z
" transform="scale(0.015625)"/>
     <path id="DejaVuSans-69" d="M 603 3500 
L 1178 3500 
L 1178 0 
L 603 0 
L 603 3500 
z
M 603 4863 
L 1178 4863 
L 1178 4134 
L 603 4134 
L 603 4863 
z
" transform="scale(0.015625)"/>
     <path id="DejaVuSans-6f" d="M 1959 3097 
Q 1497 3097 1228 2736 
Q 959 2375 959 1747 
Q 959 1119 1226 758 
Q 1494 397 1959 397 
Q 2419 397 2687 759 
Q 2956 1122 2956 1747 
Q 2956 2369 2687 2733 
Q 2419 3097 1959 3097 
z
M 1959 3584 
Q 2709 3584 3137 3096 
Q 3566 2609 3566 1747 
Q 3566 888 3137 398 
Q 2709 -91 1959 -91 
Q 1206 -91 779 398 
Q 353 888 353 1747 
Q 353 2609 779 3096 
Q 1206 3584 1959 3584 
z
" transform="scale(0.015625)"/>
     <path id="DejaVuSans-6e" d="M 3513 2113 
L 3513 0 
L 2938 0 
L 2938 2094 
Q 2938 2591 2744 2837 
Q 2550 3084 2163 3084 
Q 1697 3084 1428 2787 
Q 1159 2491 1159 1978 
L 1159 0 
L 581 0 
L 581 3500 
L 1159 3500 
L 1159 2956 
Q 1366 3272 1645 3428 
Q 1925 3584 2291 3584 
Q 2894 3584 3203 3211 
Q 3513 2838 3513 2113 
z
" transform="scale(0.015625)"/>
     <path id="DejaVuSans-20" transform="scale(0.015625)"/>
     <path id="DejaVuSans-28" d="M 1984 4856 
Q 1566 4138 1362 3434 
Q 1159 2731 1159 2009 
Q 1159 1288 1364 580 
Q 1569 -128 1984 -844 
L 1484 -844 
Q 1016 -109 783 600 
Q 550 1309 550 2009 
Q 550 2706 781 3412 
Q 1013 4119 1484 4856 
L 1984 4856 
z
" transform="scale(0.015625)"/>
     <path id="DejaVuSans-2e" d="M 684 794 
L 1344 794 
L 1344 0 
L 684 0 
L 684 794 
z
" transform="scale(0.015625)"/>
     <path id="DejaVuSans-75" d="M 544 1381 
L 544 3500 
L 1119 3500 
L 1119 1403 
Q 1119 906 1312 657 
Q 1506 409 1894 409 
Q 2359 409 2629 706 
Q 2900 1003 2900 1516 
L 2900 3500 
L 3475 3500 
L 3475 0 
L 2900 0 
L 2900 538 
Q 2691 219 2414 64 
Q 2138 -91 1772 -91 
Q 1169 -91 856 284 
Q 544 659 544 1381 
z
M 1991 3584 
L 1991 3584 
z
" transform="scale(0.015625)"/>
     <path id="DejaVuSans-29" d="M 513 4856 
L 1013 4856 
Q 1481 4119 1714 3412 
Q 1947 2706 1947 2009 
Q 1947 1309 1714 600 
Q 1481 -109 1013 -844 
L 513 -844 
Q 928 -128 1133 580 
Q 1338 1288 1338 2009 
Q 1338 2731 1133 3434 
Q 928 4138 513 4856 
z
" transform="scale(0.015625)"/>
    </defs>
    <use xlink:href="#DejaVuSans-61"/>
    <use xlink:href="#DejaVuSans-63" transform="translate(61.279297 0)"/>
    <use xlink:href="#DejaVuSans-74" transform="translate(116.259766 0)"/>
    <use xlink:href="#DejaVuSans-69" transform="translate(155.46875 0)"/>
    <use xlink:href="#DejaVuSans-76" transform="translate(183.251953 0)"/>
    <use xlink:href="#DejaVuSans-61" transform="translate(242.431641 0)"/>
    <use xlink:href="#DejaVuSans-74" transform="translate(303.710938 0)"/>
    <use xlink:href="#DejaVuSans-69" transform="translate(342.919922 0)"/>
    <use xlink:href="#DejaVuSans-6f" transform="translate(370.703125 0)"/>
    <use xlink:href="#DejaVuSans-6e" transform="translate(431.884766 0)"/>
    <use xlink:href="#DejaVuSans-20" transform="translate(495.263672 0)"/>
    <use xlink:href="#DejaVuSans-28" transform="translate(527.050781 0)"/>
    <use xlink:href="#DejaVuSans-61" transform="translate(566.064453 0)"/>
    <use xlink:href="#DejaVuSans-2e" transform="translate(627.34375 0)"/>
    <use xlink:href="#DejaVuSans-75" transform="translate(659.130859 0)"/>
    <use xlink:href="#DejaVuSans-2e" transform="translate(722.509766 0)"/>
    <use xlink:href="#DejaVuSans-29" transform="translate(754.296875 0)"/>
   </g>
  </g>
  <g id="text_37">
   <!-- time relative to cue presentation onset (s) -->
   <g transform="translate(156.811875 214.224375) scale(0.12 -0.12)">
    <defs>
     <path id="DejaVuSans-6d" d="M 3328 2828 
Q 3544 3216 3844 3400 
Q 4144 3584 4550 3584 
Q 5097 3584 5394 3201 
Q 5691 2819 5691 2113 
L 5691 0 
L 5113 0 
L 5113 2094 
Q 5113 2597 4934 2840 
Q 4756 3084 4391 3084 
Q 3944 3084 3684 2787 
Q 3425 2491 3425 1978 
L 3425 0 
L 2847 0 
L 2847 2094 
Q 2847 2600 2669 2842 
Q 2491 3084 2119 3084 
Q 1678 3084 1418 2786 
Q 1159 2488 1159 1978 
L 1159 0 
L 581 0 
L 581 3500 
L 1159 3500 
L 1159 2956 
Q 1356 3278 1631 3431 
Q 1906 3584 2284 3584 
Q 2666 3584 2933 3390 
Q 3200 3197 3328 2828 
z
" transform="scale(0.015625)"/>
     <path id="DejaVuSans-65" d="M 3597 1894 
L 3597 1613 
L 953 1613 
Q 991 1019 1311 708 
Q 1631 397 2203 397 
Q 2534 397 2845 478 
Q 3156 559 3463 722 
L 3463 178 
Q 3153 47 2828 -22 
Q 2503 -91 2169 -91 
Q 1331 -91 842 396 
Q 353 884 353 1716 
Q 353 2575 817 3079 
Q 1281 3584 2069 3584 
Q 2775 3584 3186 3129 
Q 3597 2675 3597 1894 
z
M 3022 2063 
Q 3016 2534 2758 2815 
Q 2500 3097 2075 3097 
Q 1594 3097 1305 2825 
Q 1016 2553 972 2059 
L 3022 2063 
z
" transform="scale(0.015625)"/>
     <path id="DejaVuSans-72" d="M 2631 2963 
Q 2534 3019 2420 3045 
Q 2306 3072 2169 3072 
Q 1681 3072 1420 2755 
Q 1159 2438 1159 1844 
L 1159 0 
L 581 0 
L 581 3500 
L 1159 3500 
L 1159 2956 
Q 1341 3275 1631 3429 
Q 1922 3584 2338 3584 
Q 2397 3584 2469 3576 
Q 2541 3569 2628 3553 
L 2631 2963 
z
" transform="scale(0.015625)"/>
     <path id="DejaVuSans-6c" d="M 603 4863 
L 1178 4863 
L 1178 0 
L 603 0 
L 603 4863 
z
" transform="scale(0.015625)"/>
     <path id="DejaVuSans-73" d="M 2834 3397 
L 2834 2853 
Q 2591 2978 2328 3040 
Q 2066 3103 1784 3103 
Q 1356 3103 1142 2972 
Q 928 2841 928 2578 
Q 928 2378 1081 2264 
Q 1234 2150 1697 2047 
L 1894 2003 
Q 2506 1872 2764 1633 
Q 3022 1394 3022 966 
Q 3022 478 2636 193 
Q 2250 -91 1575 -91 
Q 1294 -91 989 -36 
Q 684 19 347 128 
L 347 722 
Q 666 556 975 473 
Q 1284 391 1588 391 
Q 1994 391 2212 530 
Q 2431 669 2431 922 
Q 2431 1156 2273 1281 
Q 2116 1406 1581 1522 
L 1381 1569 
Q 847 1681 609 1914 
Q 372 2147 372 2553 
Q 372 3047 722 3315 
Q 1072 3584 1716 3584 
Q 2034 3584 2315 3537 
Q 2597 3491 2834 3397 
z
" transform="scale(0.015625)"/>
    </defs>
    <use xlink:href="#DejaVuSans-74"/>
    <use xlink:href="#DejaVuSans-69" transform="translate(39.208984 0)"/>
    <use xlink:href="#DejaVuSans-6d" transform="translate(66.992188 0)"/>
    <use xlink:href="#DejaVuSans-65" transform="translate(164.404297 0)"/>
    <use xlink:href="#DejaVuSans-20" transform="translate(225.927734 0)"/>
    <use xlink:href="#DejaVuSans-72" transform="translate(257.714844 0)"/>
    <use xlink:href="#DejaVuSans-65" transform="translate(296.578125 0)"/>
    <use xlink:href="#DejaVuSans-6c" transform="translate(358.101562 0)"/>
    <use xlink:href="#DejaVuSans-61" transform="translate(385.884766 0)"/>
    <use xlink:href="#DejaVuSans-74" transform="translate(447.164062 0)"/>
    <use xlink:href="#DejaVuSans-69" transform="translate(486.373047 0)"/>
    <use xlink:href="#DejaVuSans-76" transform="translate(514.15625 0)"/>
    <use xlink:href="#DejaVuSans-65" transform="translate(573.335938 0)"/>
    <use xlink:href="#DejaVuSans-20" transform="translate(634.859375 0)"/>
    <use xlink:href="#DejaVuSans-74" transform="translate(666.646484 0)"/>
    <use xlink:href="#DejaVuSans-6f" transform="translate(705.855469 0)"/>
    <use xlink:href="#DejaVuSans-20" transform="translate(767.037109 0)"/>
    <use xlink:href="#DejaVuSans-63" transform="translate(798.824219 0)"/>
    <use xlink:href="#DejaVuSans-75" transform="translate(853.804688 0)"/>
    <use xlink:href="#DejaVuSans-65" transform="translate(917.183594 0)"/>
    <use xlink:href="#DejaVuSans-20" transform="translate(978.707031 0)"/>
    <use xlink:href="#DejaVuSans-70" transform="translate(1010.494141 0)"/>
    <use xlink:href="#DejaVuSans-72" transform="translate(1073.970703 0)"/>
    <use xlink:href="#DejaVuSans-65" transform="translate(1112.833984 0)"/>
    <use xlink:href="#DejaVuSans-73" transform="translate(1174.357422 0)"/>
    <use xlink:href="#DejaVuSans-65" transform="translate(1226.457031 0)"/>
    <use xlink:href="#DejaVuSans-6e" transform="translate(1287.980469 0)"/>
    <use xlink:href="#DejaVuSans-74" transform="translate(1351.359375 0)"/>
    <use xlink:href="#DejaVuSans-61" transform="translate(1390.568359 0)"/>
    <use xlink:href="#DejaVuSans-74" transform="translate(1451.847656 0)"/>
    <use xlink:href="#DejaVuSans-69" transform="translate(1491.056641 0)"/>
    <use xlink:href="#DejaVuSans-6f" transform="translate(1518.839844 0)"/>
    <use xlink:href="#DejaVuSans-6e" transform="translate(1580.021484 0)"/>
    <use xlink:href="#DejaVuSans-20" transform="translate(1643.400391 0)"/>
    <use xlink:href="#DejaVuSans-6f" transform="translate(1675.1875 0)"/>
    <use xlink:href="#DejaVuSans-6e" transform="translate(1736.369141 0)"/>
    <use xlink:href="#DejaVuSans-73" transform="translate(1799.748047 0)"/>
    <use xlink:href="#DejaVuSans-65" transform="translate(1851.847656 0)"/>
    <use xlink:href="#DejaVuSans-74" transform="translate(1913.371094 0)"/>
    <use xlink:href="#DejaVuSans-20" transform="translate(1952.580078 0)"/>
    <use xlink:href="#DejaVuSans-28" transform="translate(1984.367188 0)"/>
    <use xlink:href="#DejaVuSans-73" transform="translate(2023.380859 0)"/>
    <use xlink:href="#DejaVuSans-29" transform="translate(2075.480469 0)"/>
   </g>
  </g>
  <g id="text_38">
   <!-- Average BOLD timeseries relative to cue presentation -->
   <g transform="translate(122.157188 16.318125) scale(0.12 -0.12)">
    <defs>
     <path id="DejaVuSans-67" d="M 2906 1791 
Q 2906 2416 2648 2759 
Q 2391 3103 1925 3103 
Q 1463 3103 1205 2759 
Q 947 2416 947 1791 
Q 947 1169 1205 825 
Q 1463 481 1925 481 
Q 2391 481 2648 825 
Q 2906 1169 2906 1791 
z
M 3481 434 
Q 3481 -459 3084 -895 
Q 2688 -1331 1869 -1331 
Q 1566 -1331 1297 -1286 
Q 1028 -1241 775 -1147 
L 775 -588 
Q 1028 -725 1275 -790 
Q 1522 -856 1778 -856 
Q 2344 -856 2625 -561 
Q 2906 -266 2906 331 
L 2906 616 
Q 2728 306 2450 153 
Q 2172 0 1784 0 
Q 1141 0 747 490 
Q 353 981 353 1791 
Q 353 2603 747 3093 
Q 1141 3584 1784 3584 
Q 2172 3584 2450 3431 
Q 2728 3278 2906 2969 
L 2906 3500 
L 3481 3500 
L 3481 434 
z
" transform="scale(0.015625)"/>
     <path id="DejaVuSans-42" d="M 1259 2228 
L 1259 519 
L 2272 519 
Q 2781 519 3026 730 
Q 3272 941 3272 1375 
Q 3272 1813 3026 2020 
Q 2781 2228 2272 2228 
L 1259 2228 
z
M 1259 4147 
L 1259 2741 
L 2194 2741 
Q 2656 2741 2882 2914 
Q 3109 3088 3109 3444 
Q 3109 3797 2882 3972 
Q 2656 4147 2194 4147 
L 1259 4147 
z
M 628 4666 
L 2241 4666 
Q 2963 4666 3353 4366 
Q 3744 4066 3744 3513 
Q 3744 3084 3544 2831 
Q 3344 2578 2956 2516 
Q 3422 2416 3680 2098 
Q 3938 1781 3938 1306 
Q 3938 681 3513 340 
Q 3088 0 2303 0 
L 628 0 
L 628 4666 
z
" transform="scale(0.015625)"/>
     <path id="DejaVuSans-4f" d="M 2522 4238 
Q 1834 4238 1429 3725 
Q 1025 3213 1025 2328 
Q 1025 1447 1429 934 
Q 1834 422 2522 422 
Q 3209 422 3611 934 
Q 4013 1447 4013 2328 
Q 4013 3213 3611 3725 
Q 3209 4238 2522 4238 
z
M 2522 4750 
Q 3503 4750 4090 4092 
Q 4678 3434 4678 2328 
Q 4678 1225 4090 567 
Q 3503 -91 2522 -91 
Q 1538 -91 948 565 
Q 359 1222 359 2328 
Q 359 3434 948 4092 
Q 1538 4750 2522 4750 
z
" transform="scale(0.015625)"/>
     <path id="DejaVuSans-44" d="M 1259 4147 
L 1259 519 
L 2022 519 
Q 2988 519 3436 956 
Q 3884 1394 3884 2338 
Q 3884 3275 3436 3711 
Q 2988 4147 2022 4147 
L 1259 4147 
z
M 628 4666 
L 1925 4666 
Q 3281 4666 3915 4102 
Q 4550 3538 4550 2338 
Q 4550 1131 3912 565 
Q 3275 0 1925 0 
L 628 0 
L 628 4666 
z
" transform="scale(0.015625)"/>
    </defs>
    <use xlink:href="#DejaVuSans-41"/>
    <use xlink:href="#DejaVuSans-76" transform="translate(62.533203 0)"/>
    <use xlink:href="#DejaVuSans-65" transform="translate(121.712891 0)"/>
    <use xlink:href="#DejaVuSans-72" transform="translate(183.236328 0)"/>
    <use xlink:href="#DejaVuSans-61" transform="translate(224.349609 0)"/>
    <use xlink:href="#DejaVuSans-67" transform="translate(285.628906 0)"/>
    <use xlink:href="#DejaVuSans-65" transform="translate(349.105469 0)"/>
    <use xlink:href="#DejaVuSans-20" transform="translate(410.628906 0)"/>
    <use xlink:href="#DejaVuSans-42" transform="translate(442.416016 0)"/>
    <use xlink:href="#DejaVuSans-4f" transform="translate(509.269531 0)"/>
    <use xlink:href="#DejaVuSans-4c" transform="translate(587.980469 0)"/>
    <use xlink:href="#DejaVuSans-44" transform="translate(643.693359 0)"/>
    <use xlink:href="#DejaVuSans-20" transform="translate(720.695312 0)"/>
    <use xlink:href="#DejaVuSans-74" transform="translate(752.482422 0)"/>
    <use xlink:href="#DejaVuSans-69" transform="translate(791.691406 0)"/>
    <use xlink:href="#DejaVuSans-6d" transform="translate(819.474609 0)"/>
    <use xlink:href="#DejaVuSans-65" transform="translate(916.886719 0)"/>
    <use xlink:href="#DejaVuSans-73" transform="translate(978.410156 0)"/>
    <use xlink:href="#DejaVuSans-65" transform="translate(1030.509766 0)"/>
    <use xlink:href="#DejaVuSans-72" transform="translate(1092.033203 0)"/>
    <use xlink:href="#DejaVuSans-69" transform="translate(1133.146484 0)"/>
    <use xlink:href="#DejaVuSans-65" transform="translate(1160.929688 0)"/>
    <use xlink:href="#DejaVuSans-73" transform="translate(1222.453125 0)"/>
    <use xlink:href="#DejaVuSans-20" transform="translate(1274.552734 0)"/>
    <use xlink:href="#DejaVuSans-72" transform="translate(1306.339844 0)"/>
    <use xlink:href="#DejaVuSans-65" transform="translate(1345.203125 0)"/>
    <use xlink:href="#DejaVuSans-6c" transform="translate(1406.726562 0)"/>
    <use xlink:href="#DejaVuSans-61" transform="translate(1434.509766 0)"/>
    <use xlink:href="#DejaVuSans-74" transform="translate(1495.789062 0)"/>
    <use xlink:href="#DejaVuSans-69" transform="translate(1534.998047 0)"/>
    <use xlink:href="#DejaVuSans-76" transform="translate(1562.78125 0)"/>
    <use xlink:href="#DejaVuSans-65" transform="translate(1621.960938 0)"/>
    <use xlink:href="#DejaVuSans-20" transform="translate(1683.484375 0)"/>
    <use xlink:href="#DejaVuSans-74" transform="translate(1715.271484 0)"/>
    <use xlink:href="#DejaVuSans-6f" transform="translate(1754.480469 0)"/>
    <use xlink:href="#DejaVuSans-20" transform="translate(1815.662109 0)"/>
    <use xlink:href="#DejaVuSans-63" transform="translate(1847.449219 0)"/>
    <use xlink:href="#DejaVuSans-75" transform="translate(1902.429688 0)"/>
    <use xlink:href="#DejaVuSans-65" transform="translate(1965.808594 0)"/>
    <use xlink:href="#DejaVuSans-20" transform="translate(2027.332031 0)"/>
    <use xlink:href="#DejaVuSans-70" transform="translate(2059.119141 0)"/>
    <use xlink:href="#DejaVuSans-72" transform="translate(2122.595703 0)"/>
    <use xlink:href="#DejaVuSans-65" transform="translate(2161.458984 0)"/>
    <use xlink:href="#DejaVuSans-73" transform="translate(2222.982422 0)"/>
    <use xlink:href="#DejaVuSans-65" transform="translate(2275.082031 0)"/>
    <use xlink:href="#DejaVuSans-6e" transform="translate(2336.605469 0)"/>
    <use xlink:href="#DejaVuSans-74" transform="translate(2399.984375 0)"/>
    <use xlink:href="#DejaVuSans-61" transform="translate(2439.193359 0)"/>
    <use xlink:href="#DejaVuSans-74" transform="translate(2500.472656 0)"/>
    <use xlink:href="#DejaVuSans-69" transform="translate(2539.681641 0)"/>
    <use xlink:href="#DejaVuSans-6f" transform="translate(2567.464844 0)"/>
    <use xlink:href="#DejaVuSans-6e" transform="translate(2628.646484 0)"/>
   </g>
  </g>
 </g>
 <defs>
  <clipPath id="pb64491fa98">
   <rect x="52" y="53.52" width="46.720878" height="113.72"/>
  </clipPath>
  <clipPath id="pd163088d03">
   <rect x="117.116303" y="53.52" width="46.720878" height="113.72"/>
  </clipPath>
  <clipPath id="p967cdb4d13">
   <rect x="182.232606" y="53.52" width="46.720878" height="113.72"/>
  </clipPath>
  <clipPath id="p3d29d8691e">
   <rect x="247.34891" y="53.52" width="46.720878" height="113.72"/>
  </clipPath>
  <clipPath id="pd05b02a90d">
   <rect x="312.465213" y="53.52" width="46.720878" height="113.72"/>
  </clipPath>
  <clipPath id="pd559128740">
   <rect x="377.581516" y="53.52" width="46.720878" height="113.72"/>
  </clipPath>
  <clipPath id="p9e107786ce">
   <rect x="442.697819" y="53.52" width="46.720878" height="113.72"/>
  </clipPath>
  <clipPath id="p5a97f80eb5">
   <rect x="507.814122" y="53.52" width="46.720878" height="113.72"/>
  </clipPath>
 </defs>
</svg>
