<?xml version="1.0" encoding="utf-8" standalone="no"?>
<!DOCTYPE svg PUBLIC "-//W3C//DTD SVG 1.1//EN"
  "http://www.w3.org/Graphics/SVG/1.1/DTD/svg11.dtd">
<svg xmlns:xlink="http://www.w3.org/1999/xlink" width="496.204532pt" height="164.92pt" viewBox="0 0 496.204532 164.92" xmlns="http://www.w3.org/2000/svg" version="1.1">
 <metadata>
  <rdf:RDF xmlns:dc="http://purl.org/dc/elements/1.1/" xmlns:cc="http://creativecommons.org/ns#" xmlns:rdf="http://www.w3.org/1999/02/22-rdf-syntax-ns#">
   <cc:Work>
    <dc:type rdf:resource="http://purl.org/dc/dcmitype/StillImage"/>
    <dc:date>2025-06-14T16:27:52.116744</dc:date>
    <dc:format>image/svg+xml</dc:format>
    <dc:creator>
     <cc:Agent>
      <dc:title>Matplotlib v3.10.1, https://matplotlib.org/</dc:title>
     </cc:Agent>
    </dc:creator>
   </cc:Work>
  </rdf:RDF>
 </metadata>
 <defs>
  <style type="text/css">*{stroke-linejoin: round; stroke-linecap: butt}</style>
 </defs>
 <g id="figure_1">
  <g id="patch_1">
   <path d="M -0 164.92 
L 496.204532 164.92 
L 496.204532 0 
L -0 0 
z
"/>
  </g>
  <g id="axes_1">
   <g id="patch_2">
    <path d="M 40.603125 131.4 
L 83.257872 131.4 
L 83.257872 54.96 
L 40.603125 54.96 
z
"/>
   </g>
   <g id="patch_3">
    <path d="M 40.603125 131.4 
L 54.821374 131.4 
L 54.821374 111.356023 
L 40.603125 111.356023 
z
" clip-path="url(#pe196c366ff)" style="fill: #c0a54b"/>
   </g>
   <g id="patch_4">
    <path d="M 54.821374 131.4 
L 69.039623 131.4 
L 69.039623 127.351618 
L 54.821374 127.351618 
z
" clip-path="url(#pe196c366ff)" style="fill: #df2020"/>
   </g>
   <g id="patch_5">
    <path d="M 69.039623 131.4 
L 83.257872 131.4 
L 83.257872 104.253526 
L 69.039623 104.253526 
z
" clip-path="url(#pe196c366ff)" style="fill: #df20df"/>
   </g>
   <g id="matplotlib.axis_1">
    <g id="xtick_1"/>
    <g id="xtick_2"/>
    <g id="xtick_3"/>
   </g>
   <g id="matplotlib.axis_2">
    <g id="ytick_1">
     <g id="line2d_1">
      <defs>
       <path id="m89799c81b6" d="M 0 0 
L -3.5 0 
" style="stroke: #ffffff; stroke-width: 0.8"/>
      </defs>
      <g>
       <use xlink:href="#m89799c81b6" x="40.603125" y="131.4" style="fill: #ffffff; stroke: #ffffff; stroke-width: 0.8"/>
      </g>
     </g>
     <g id="text_1">
      <!-- 0 -->
      <g style="fill: #ffffff" transform="translate(27.240625 135.199219) scale(0.1 -0.1)">
       <defs>
        <path id="DejaVuSans-30" d="M 2034 4250 
Q 1547 4250 1301 3770 
Q 1056 3291 1056 2328 
Q 1056 1369 1301 889 
Q 1547 409 2034 409 
Q 2525 409 2770 889 
Q 3016 1369 3016 2328 
Q 3016 3291 2770 3770 
Q 2525 4250 2034 4250 
z
M 2034 4750 
Q 2819 4750 3233 4129 
Q 3647 3509 3647 2328 
Q 3647 1150 3233 529 
Q 2819 -91 2034 -91 
Q 1250 -91 836 529 
Q 422 1150 422 2328 
Q 422 3509 836 4129 
Q 1250 4750 2034 4750 
z
" transform="scale(0.015625)"/>
       </defs>
       <use xlink:href="#DejaVuSans-30"/>
      </g>
     </g>
    </g>
    <g id="ytick_2">
     <g id="line2d_2">
      <g>
       <use xlink:href="#m89799c81b6" x="40.603125" y="100.824" style="fill: #ffffff; stroke: #ffffff; stroke-width: 0.8"/>
      </g>
     </g>
     <g id="text_2">
      <!-- 20 -->
      <g style="fill: #ffffff" transform="translate(20.878125 104.623219) scale(0.1 -0.1)">
       <defs>
        <path id="DejaVuSans-32" d="M 1228 531 
L 3431 531 
L 3431 0 
L 469 0 
L 469 531 
Q 828 903 1448 1529 
Q 2069 2156 2228 2338 
Q 2531 2678 2651 2914 
Q 2772 3150 2772 3378 
Q 2772 3750 2511 3984 
Q 2250 4219 1831 4219 
Q 1534 4219 1204 4116 
Q 875 4013 500 3803 
L 500 4441 
Q 881 4594 1212 4672 
Q 1544 4750 1819 4750 
Q 2544 4750 2975 4387 
Q 3406 4025 3406 3419 
Q 3406 3131 3298 2873 
Q 3191 2616 2906 2266 
Q 2828 2175 2409 1742 
Q 1991 1309 1228 531 
z
" transform="scale(0.015625)"/>
       </defs>
       <use xlink:href="#DejaVuSans-32"/>
       <use xlink:href="#DejaVuSans-30" transform="translate(63.623047 0)"/>
      </g>
     </g>
    </g>
    <g id="ytick_3">
     <g id="line2d_3">
      <g>
       <use xlink:href="#m89799c81b6" x="40.603125" y="70.248" style="fill: #ffffff; stroke: #ffffff; stroke-width: 0.8"/>
      </g>
     </g>
     <g id="text_3">
      <!-- 40 -->
      <g style="fill: #ffffff" transform="translate(20.878125 74.047219) scale(0.1 -0.1)">
       <defs>
        <path id="DejaVuSans-34" d="M 2419 4116 
L 825 1625 
L 2419 1625 
L 2419 4116 
z
M 2253 4666 
L 3047 4666 
L 3047 1625 
L 3713 1625 
L 3713 1100 
L 3047 1100 
L 3047 0 
L 2419 0 
L 2419 1100 
L 313 1100 
L 313 1709 
L 2253 4666 
z
" transform="scale(0.015625)"/>
       </defs>
       <use xlink:href="#DejaVuSans-34"/>
       <use xlink:href="#DejaVuSans-30" transform="translate(63.623047 0)"/>
      </g>
     </g>
    </g>
    <g id="text_4">
     <!-- Bayes Factor -->
     <g style="fill: #ffffff" transform="translate(14.798438 125.212031) rotate(-90) scale(0.1 -0.1)">
      <defs>
       <path id="DejaVuSans-42" d="M 1259 2228 
L 1259 519 
L 2272 519 
Q 2781 519 3026 730 
Q 3272 941 3272 1375 
Q 3272 1813 3026 2020 
Q 2781 2228 2272 2228 
L 1259 2228 
z
M 1259 4147 
L 1259 2741 
L 2194 2741 
Q 2656 2741 2882 2914 
Q 3109 3088 3109 3444 
Q 3109 3797 2882 3972 
Q 2656 4147 2194 4147 
L 1259 4147 
z
M 628 4666 
L 2241 4666 
Q 2963 4666 3353 4366 
Q 3744 4066 3744 3513 
Q 3744 3084 3544 2831 
Q 3344 2578 2956 2516 
Q 3422 2416 3680 2098 
Q 3938 1781 3938 1306 
Q 3938 681 3513 340 
Q 3088 0 2303 0 
L 628 0 
L 628 4666 
z
" transform="scale(0.015625)"/>
       <path id="DejaVuSans-61" d="M 2194 1759 
Q 1497 1759 1228 1600 
Q 959 1441 959 1056 
Q 959 750 1161 570 
Q 1363 391 1709 391 
Q 2188 391 2477 730 
Q 2766 1069 2766 1631 
L 2766 1759 
L 2194 1759 
z
M 3341 1997 
L 3341 0 
L 2766 0 
L 2766 531 
Q 2569 213 2275 61 
Q 1981 -91 1556 -91 
Q 1019 -91 701 211 
Q 384 513 384 1019 
Q 384 1609 779 1909 
Q 1175 2209 1959 2209 
L 2766 2209 
L 2766 2266 
Q 2766 2663 2505 2880 
Q 2244 3097 1772 3097 
Q 1472 3097 1187 3025 
Q 903 2953 641 2809 
L 641 3341 
Q 956 3463 1253 3523 
Q 1550 3584 1831 3584 
Q 2591 3584 2966 3190 
Q 3341 2797 3341 1997 
z
" transform="scale(0.015625)"/>
       <path id="DejaVuSans-79" d="M 2059 -325 
Q 1816 -950 1584 -1140 
Q 1353 -1331 966 -1331 
L 506 -1331 
L 506 -850 
L 844 -850 
Q 1081 -850 1212 -737 
Q 1344 -625 1503 -206 
L 1606 56 
L 191 3500 
L 800 3500 
L 1894 763 
L 2988 3500 
L 3597 3500 
L 2059 -325 
z
" transform="scale(0.015625)"/>
       <path id="DejaVuSans-65" d="M 3597 1894 
L 3597 1613 
L 953 1613 
Q 991 1019 1311 708 
Q 1631 397 2203 397 
Q 2534 397 2845 478 
Q 3156 559 3463 722 
L 3463 178 
Q 3153 47 2828 -22 
Q 2503 -91 2169 -91 
Q 1331 -91 842 396 
Q 353 884 353 1716 
Q 353 2575 817 3079 
Q 1281 3584 2069 3584 
Q 2775 3584 3186 3129 
Q 3597 2675 3597 1894 
z
M 3022 2063 
Q 3016 2534 2758 2815 
Q 2500 3097 2075 3097 
Q 1594 3097 1305 2825 
Q 1016 2553 972 2059 
L 3022 2063 
z
" transform="scale(0.015625)"/>
       <path id="DejaVuSans-73" d="M 2834 3397 
L 2834 2853 
Q 2591 2978 2328 3040 
Q 2066 3103 1784 3103 
Q 1356 3103 1142 2972 
Q 928 2841 928 2578 
Q 928 2378 1081 2264 
Q 1234 2150 1697 2047 
L 1894 2003 
Q 2506 1872 2764 1633 
Q 3022 1394 3022 966 
Q 3022 478 2636 193 
Q 2250 -91 1575 -91 
Q 1294 -91 989 -36 
Q 684 19 347 128 
L 347 722 
Q 666 556 975 473 
Q 1284 391 1588 391 
Q 1994 391 2212 530 
Q 2431 669 2431 922 
Q 2431 1156 2273 1281 
Q 2116 1406 1581 1522 
L 1381 1569 
Q 847 1681 609 1914 
Q 372 2147 372 2553 
Q 372 3047 722 3315 
Q 1072 3584 1716 3584 
Q 2034 3584 2315 3537 
Q 2597 3491 2834 3397 
z
" transform="scale(0.015625)"/>
       <path id="DejaVuSans-20" transform="scale(0.015625)"/>
       <path id="DejaVuSans-46" d="M 628 4666 
L 3309 4666 
L 3309 4134 
L 1259 4134 
L 1259 2759 
L 3109 2759 
L 3109 2228 
L 1259 2228 
L 1259 0 
L 628 0 
L 628 4666 
z
" transform="scale(0.015625)"/>
       <path id="DejaVuSans-63" d="M 3122 3366 
L 3122 2828 
Q 2878 2963 2633 3030 
Q 2388 3097 2138 3097 
Q 1578 3097 1268 2742 
Q 959 2388 959 1747 
Q 959 1106 1268 751 
Q 1578 397 2138 397 
Q 2388 397 2633 464 
Q 2878 531 3122 666 
L 3122 134 
Q 2881 22 2623 -34 
Q 2366 -91 2075 -91 
Q 1284 -91 818 406 
Q 353 903 353 1747 
Q 353 2603 823 3093 
Q 1294 3584 2113 3584 
Q 2378 3584 2631 3529 
Q 2884 3475 3122 3366 
z
" transform="scale(0.015625)"/>
       <path id="DejaVuSans-74" d="M 1172 4494 
L 1172 3500 
L 2356 3500 
L 2356 3053 
L 1172 3053 
L 1172 1153 
Q 1172 725 1289 603 
Q 1406 481 1766 481 
L 2356 481 
L 2356 0 
L 1766 0 
Q 1100 0 847 248 
Q 594 497 594 1153 
L 594 3053 
L 172 3053 
L 172 3500 
L 594 3500 
L 594 4494 
L 1172 4494 
z
" transform="scale(0.015625)"/>
       <path id="DejaVuSans-6f" d="M 1959 3097 
Q 1497 3097 1228 2736 
Q 959 2375 959 1747 
Q 959 1119 1226 758 
Q 1494 397 1959 397 
Q 2419 397 2687 759 
Q 2956 1122 2956 1747 
Q 2956 2369 2687 2733 
Q 2419 3097 1959 3097 
z
M 1959 3584 
Q 2709 3584 3137 3096 
Q 3566 2609 3566 1747 
Q 3566 888 3137 398 
Q 2709 -91 1959 -91 
Q 1206 -91 779 398 
Q 353 888 353 1747 
Q 353 2609 779 3096 
Q 1206 3584 1959 3584 
z
" transform="scale(0.015625)"/>
       <path id="DejaVuSans-72" d="M 2631 2963 
Q 2534 3019 2420 3045 
Q 2306 3072 2169 3072 
Q 1681 3072 1420 2755 
Q 1159 2438 1159 1844 
L 1159 0 
L 581 0 
L 581 3500 
L 1159 3500 
L 1159 2956 
Q 1341 3275 1631 3429 
Q 1922 3584 2338 3584 
Q 2397 3584 2469 3576 
Q 2541 3569 2628 3553 
L 2631 2963 
z
" transform="scale(0.015625)"/>
      </defs>
      <use xlink:href="#DejaVuSans-42"/>
      <use xlink:href="#DejaVuSans-61" transform="translate(68.603516 0)"/>
      <use xlink:href="#DejaVuSans-79" transform="translate(129.882812 0)"/>
      <use xlink:href="#DejaVuSans-65" transform="translate(189.0625 0)"/>
      <use xlink:href="#DejaVuSans-73" transform="translate(250.585938 0)"/>
      <use xlink:href="#DejaVuSans-20" transform="translate(302.685547 0)"/>
      <use xlink:href="#DejaVuSans-46" transform="translate(334.472656 0)"/>
      <use xlink:href="#DejaVuSans-61" transform="translate(382.867188 0)"/>
      <use xlink:href="#DejaVuSans-63" transform="translate(444.146484 0)"/>
      <use xlink:href="#DejaVuSans-74" transform="translate(499.126953 0)"/>
      <use xlink:href="#DejaVuSans-6f" transform="translate(538.335938 0)"/>
      <use xlink:href="#DejaVuSans-72" transform="translate(599.517578 0)"/>
     </g>
    </g>
   </g>
   <g id="line2d_4">
    <path d="M 47.71225 118.716637 
L 47.71225 103.995408 
" clip-path="url(#pe196c366ff)" style="fill: none; stroke: #424242; stroke-width: 2.25; stroke-linecap: square"/>
   </g>
   <g id="line2d_5">
    <path d="M 61.930499 131.914499 
L 61.930499 122.788737 
" clip-path="url(#pe196c366ff)" style="fill: none; stroke: #424242; stroke-width: 2.25; stroke-linecap: square"/>
   </g>
   <g id="line2d_6">
    <path d="M 76.148748 111.173092 
L 76.148748 97.333961 
" clip-path="url(#pe196c366ff)" style="fill: none; stroke: #424242; stroke-width: 2.25; stroke-linecap: square"/>
   </g>
   <g id="patch_6">
    <path d="M 40.603125 131.4 
L 40.603125 70.248 
" style="fill: none; stroke: #ffffff; stroke-width: 0.8; stroke-linejoin: miter; stroke-linecap: square"/>
   </g>
   <g id="text_5">
    <!-- ** -->
    <g style="fill: #ffffff" transform="translate(41.71225 101.767532) scale(0.12 -0.12)">
     <defs>
      <path id="DejaVuSans-2a" d="M 3009 3897 
L 1888 3291 
L 3009 2681 
L 2828 2375 
L 1778 3009 
L 1778 1831 
L 1422 1831 
L 1422 3009 
L 372 2375 
L 191 2681 
L 1313 3291 
L 191 3897 
L 372 4206 
L 1422 3572 
L 1422 4750 
L 1778 4750 
L 1778 3572 
L 2828 4206 
L 3009 3897 
z
" transform="scale(0.015625)"/>
     </defs>
     <use xlink:href="#DejaVuSans-2a"/>
     <use xlink:href="#DejaVuSans-2a" transform="translate(50 0)"/>
    </g>
   </g>
   <g id="text_6">
    <!-- *** -->
    <g style="fill: #ffffff" transform="translate(67.148748 95.090041) scale(0.12 -0.12)">
     <use xlink:href="#DejaVuSans-2a"/>
     <use xlink:href="#DejaVuSans-2a" transform="translate(50 0)"/>
     <use xlink:href="#DejaVuSans-2a" transform="translate(100 0)"/>
    </g>
   </g>
   <g id="text_7">
    <!-- SMA -->
    <g style="fill: #ffffff" transform="translate(48.840186 48.96) scale(0.12 -0.12)">
     <defs>
      <path id="DejaVuSans-53" d="M 3425 4513 
L 3425 3897 
Q 3066 4069 2747 4153 
Q 2428 4238 2131 4238 
Q 1616 4238 1336 4038 
Q 1056 3838 1056 3469 
Q 1056 3159 1242 3001 
Q 1428 2844 1947 2747 
L 2328 2669 
Q 3034 2534 3370 2195 
Q 3706 1856 3706 1288 
Q 3706 609 3251 259 
Q 2797 -91 1919 -91 
Q 1588 -91 1214 -16 
Q 841 59 441 206 
L 441 856 
Q 825 641 1194 531 
Q 1563 422 1919 422 
Q 2459 422 2753 634 
Q 3047 847 3047 1241 
Q 3047 1584 2836 1778 
Q 2625 1972 2144 2069 
L 1759 2144 
Q 1053 2284 737 2584 
Q 422 2884 422 3419 
Q 422 4038 858 4394 
Q 1294 4750 2059 4750 
Q 2388 4750 2728 4690 
Q 3069 4631 3425 4513 
z
" transform="scale(0.015625)"/>
      <path id="DejaVuSans-4d" d="M 628 4666 
L 1569 4666 
L 2759 1491 
L 3956 4666 
L 4897 4666 
L 4897 0 
L 4281 0 
L 4281 4097 
L 3078 897 
L 2444 897 
L 1241 4097 
L 1241 0 
L 628 0 
L 628 4666 
z
" transform="scale(0.015625)"/>
      <path id="DejaVuSans-41" d="M 2188 4044 
L 1331 1722 
L 3047 1722 
L 2188 4044 
z
M 1831 4666 
L 2547 4666 
L 4325 0 
L 3669 0 
L 3244 1197 
L 1141 1197 
L 716 0 
L 50 0 
L 1831 4666 
z
" transform="scale(0.015625)"/>
     </defs>
     <use xlink:href="#DejaVuSans-53"/>
     <use xlink:href="#DejaVuSans-4d" transform="translate(63.476562 0)"/>
     <use xlink:href="#DejaVuSans-41" transform="translate(149.755859 0)"/>
    </g>
   </g>
  </g>
  <g id="axes_2">
   <g id="patch_7">
    <path d="M 98.296809 131.4 
L 140.951556 131.4 
L 140.951556 54.96 
L 98.296809 54.96 
z
"/>
   </g>
   <g id="patch_8">
    <path d="M 98.296809 131.4 
L 112.515058 131.4 
L 112.515058 88.51651 
L 98.296809 88.51651 
z
" clip-path="url(#pc642b3d4c8)" style="fill: #c0a54b"/>
   </g>
   <g id="patch_9">
    <path d="M 112.515058 131.4 
L 126.733307 131.4 
L 126.733307 117.929147 
L 112.515058 117.929147 
z
" clip-path="url(#pc642b3d4c8)" style="fill: #df2020"/>
   </g>
   <g id="patch_10">
    <path d="M 126.733307 131.4 
L 140.951556 131.4 
L 140.951556 84.226934 
L 126.733307 84.226934 
z
" clip-path="url(#pc642b3d4c8)" style="fill: #df20df"/>
   </g>
   <g id="matplotlib.axis_3">
    <g id="xtick_4"/>
    <g id="xtick_5"/>
    <g id="xtick_6"/>
   </g>
   <g id="matplotlib.axis_4">
    <g id="ytick_4">
     <g id="line2d_7">
      <defs>
       <path id="m5c6b50ee8e" d="M 0 0 
L -3.5 0 
"/>
      </defs>
      <g>
       <use xlink:href="#m5c6b50ee8e" x="98.296809" y="131.4" style="fill: #ffffff"/>
      </g>
     </g>
    </g>
    <g id="ytick_5">
     <g id="line2d_8">
      <g>
       <use xlink:href="#m5c6b50ee8e" x="98.296809" y="100.824" style="fill: #ffffff"/>
      </g>
     </g>
    </g>
    <g id="ytick_6">
     <g id="line2d_9">
      <g>
       <use xlink:href="#m5c6b50ee8e" x="98.296809" y="70.248" style="fill: #ffffff"/>
      </g>
     </g>
    </g>
   </g>
   <g id="line2d_10">
    <path d="M 105.405933 94.682745 
L 105.405933 82.350275 
" clip-path="url(#pc642b3d4c8)" style="fill: none; stroke: #424242; stroke-width: 2.25; stroke-linecap: square"/>
   </g>
   <g id="line2d_11">
    <path d="M 119.624182 125.152368 
L 119.624182 110.705927 
" clip-path="url(#pc642b3d4c8)" style="fill: none; stroke: #424242; stroke-width: 2.25; stroke-linecap: square"/>
   </g>
   <g id="line2d_12">
    <path d="M 133.842431 91.275731 
L 133.842431 77.178137 
" clip-path="url(#pc642b3d4c8)" style="fill: none; stroke: #424242; stroke-width: 2.25; stroke-linecap: square"/>
   </g>
   <g id="text_8">
    <!-- *** -->
    <g style="fill: #ffffff" transform="translate(96.405933 80.078952) scale(0.12 -0.12)">
     <use xlink:href="#DejaVuSans-2a"/>
     <use xlink:href="#DejaVuSans-2a" transform="translate(50 0)"/>
     <use xlink:href="#DejaVuSans-2a" transform="translate(100 0)"/>
    </g>
   </g>
   <g id="text_9">
    <!-- * -->
    <g style="fill: #ffffff" transform="translate(116.624182 108.473053) scale(0.12 -0.12)">
     <use xlink:href="#DejaVuSans-2a"/>
    </g>
   </g>
   <g id="text_10">
    <!-- *** -->
    <g style="fill: #ffffff" transform="translate(124.842431 74.938918) scale(0.12 -0.12)">
     <use xlink:href="#DejaVuSans-2a"/>
     <use xlink:href="#DejaVuSans-2a" transform="translate(50 0)"/>
     <use xlink:href="#DejaVuSans-2a" transform="translate(100 0)"/>
    </g>
   </g>
   <g id="text_11">
    <!-- PMd -->
    <g style="fill: #ffffff" transform="translate(107.020432 48.96) scale(0.12 -0.12)">
     <defs>
      <path id="DejaVuSans-50" d="M 1259 4147 
L 1259 2394 
L 2053 2394 
Q 2494 2394 2734 2622 
Q 2975 2850 2975 3272 
Q 2975 3691 2734 3919 
Q 2494 4147 2053 4147 
L 1259 4147 
z
M 628 4666 
L 2053 4666 
Q 2838 4666 3239 4311 
Q 3641 3956 3641 3272 
Q 3641 2581 3239 2228 
Q 2838 1875 2053 1875 
L 1259 1875 
L 1259 0 
L 628 0 
L 628 4666 
z
" transform="scale(0.015625)"/>
      <path id="DejaVuSans-64" d="M 2906 2969 
L 2906 4863 
L 3481 4863 
L 3481 0 
L 2906 0 
L 2906 525 
Q 2725 213 2448 61 
Q 2172 -91 1784 -91 
Q 1150 -91 751 415 
Q 353 922 353 1747 
Q 353 2572 751 3078 
Q 1150 3584 1784 3584 
Q 2172 3584 2448 3432 
Q 2725 3281 2906 2969 
z
M 947 1747 
Q 947 1113 1208 752 
Q 1469 391 1925 391 
Q 2381 391 2643 752 
Q 2906 1113 2906 1747 
Q 2906 2381 2643 2742 
Q 2381 3103 1925 3103 
Q 1469 3103 1208 2742 
Q 947 2381 947 1747 
z
" transform="scale(0.015625)"/>
     </defs>
     <use xlink:href="#DejaVuSans-50"/>
     <use xlink:href="#DejaVuSans-4d" transform="translate(60.302734 0)"/>
     <use xlink:href="#DejaVuSans-64" transform="translate(146.582031 0)"/>
    </g>
   </g>
  </g>
  <g id="axes_3">
   <g id="patch_11">
    <path d="M 155.990492 131.4 
L 198.645239 131.4 
L 198.645239 54.96 
L 155.990492 54.96 
z
"/>
   </g>
   <g id="patch_12">
    <path d="M 155.990492 131.4 
L 170.208741 131.4 
L 170.208741 101.051714 
L 155.990492 101.051714 
z
" clip-path="url(#p9cd5a70cb9)" style="fill: #c0a54b"/>
   </g>
   <g id="patch_13">
    <path d="M 170.208741 131.4 
L 184.42699 131.4 
L 184.42699 132.897873 
L 170.208741 132.897873 
z
" clip-path="url(#p9cd5a70cb9)" style="fill: #df2020"/>
   </g>
   <g id="patch_14">
    <path d="M 184.42699 131.4 
L 198.645239 131.4 
L 198.645239 99.810062 
L 184.42699 99.810062 
z
" clip-path="url(#p9cd5a70cb9)" style="fill: #df20df"/>
   </g>
   <g id="matplotlib.axis_5">
    <g id="xtick_7"/>
    <g id="xtick_8"/>
    <g id="xtick_9"/>
   </g>
   <g id="matplotlib.axis_6">
    <g id="ytick_7">
     <g id="line2d_13">
      <g>
       <use xlink:href="#m5c6b50ee8e" x="155.990492" y="131.4" style="fill: #ffffff"/>
      </g>
     </g>
    </g>
    <g id="ytick_8">
     <g id="line2d_14">
      <g>
       <use xlink:href="#m5c6b50ee8e" x="155.990492" y="100.824" style="fill: #ffffff"/>
      </g>
     </g>
    </g>
    <g id="ytick_9">
     <g id="line2d_15">
      <g>
       <use xlink:href="#m5c6b50ee8e" x="155.990492" y="70.248" style="fill: #ffffff"/>
      </g>
     </g>
    </g>
   </g>
   <g id="line2d_16">
    <path d="M 163.099617 109.56125 
L 163.099617 92.542177 
" clip-path="url(#p9cd5a70cb9)" style="fill: none; stroke: #424242; stroke-width: 2.25; stroke-linecap: square"/>
   </g>
   <g id="line2d_17">
    <path d="M 177.317866 132.928804 
L 177.317866 132.866943 
" clip-path="url(#p9cd5a70cb9)" style="fill: none; stroke: #424242; stroke-width: 2.25; stroke-linecap: square"/>
   </g>
   <g id="line2d_18">
    <path d="M 191.536115 107.086993 
L 191.536115 92.533131 
" clip-path="url(#p9cd5a70cb9)" style="fill: none; stroke: #424242; stroke-width: 2.25; stroke-linecap: square"/>
   </g>
   <g id="text_12">
    <!-- ** -->
    <g style="fill: #ffffff" transform="translate(157.099617 90.356094) scale(0.12 -0.12)">
     <use xlink:href="#DejaVuSans-2a"/>
     <use xlink:href="#DejaVuSans-2a" transform="translate(50 0)"/>
    </g>
   </g>
   <g id="text_13">
    <!-- *** -->
    <g style="fill: #ffffff" transform="translate(182.536115 90.302211) scale(0.12 -0.12)">
     <use xlink:href="#DejaVuSans-2a"/>
     <use xlink:href="#DejaVuSans-2a" transform="translate(50 0)"/>
     <use xlink:href="#DejaVuSans-2a" transform="translate(100 0)"/>
    </g>
   </g>
   <g id="text_14">
    <!-- PMv -->
    <g style="fill: #ffffff" transform="translate(164.971928 48.96) scale(0.12 -0.12)">
     <defs>
      <path id="DejaVuSans-76" d="M 191 3500 
L 800 3500 
L 1894 563 
L 2988 3500 
L 3597 3500 
L 2284 0 
L 1503 0 
L 191 3500 
z
" transform="scale(0.015625)"/>
     </defs>
     <use xlink:href="#DejaVuSans-50"/>
     <use xlink:href="#DejaVuSans-4d" transform="translate(60.302734 0)"/>
     <use xlink:href="#DejaVuSans-76" transform="translate(146.582031 0)"/>
    </g>
   </g>
  </g>
  <g id="axes_4">
   <g id="patch_15">
    <path d="M 213.684176 131.4 
L 256.338923 131.4 
L 256.338923 54.96 
L 213.684176 54.96 
z
"/>
   </g>
   <g id="patch_16">
    <path d="M 213.684176 131.4 
L 227.902425 131.4 
L 227.902425 74.122527 
L 213.684176 74.122527 
z
" clip-path="url(#p8d778fed89)" style="fill: #c0a54b"/>
   </g>
   <g id="patch_17">
    <path d="M 227.902425 131.4 
L 242.120674 131.4 
L 242.120674 124.686418 
L 227.902425 124.686418 
z
" clip-path="url(#p8d778fed89)" style="fill: #df2020"/>
   </g>
   <g id="patch_18">
    <path d="M 242.120674 131.4 
L 256.338923 131.4 
L 256.338923 114.518803 
L 242.120674 114.518803 
z
" clip-path="url(#p8d778fed89)" style="fill: #df20df"/>
   </g>
   <g id="matplotlib.axis_7">
    <g id="xtick_10"/>
    <g id="xtick_11"/>
    <g id="xtick_12"/>
   </g>
   <g id="matplotlib.axis_8">
    <g id="ytick_10">
     <g id="line2d_19">
      <g>
       <use xlink:href="#m5c6b50ee8e" x="213.684176" y="131.4" style="fill: #ffffff"/>
      </g>
     </g>
    </g>
    <g id="ytick_11">
     <g id="line2d_20">
      <g>
       <use xlink:href="#m5c6b50ee8e" x="213.684176" y="100.824" style="fill: #ffffff"/>
      </g>
     </g>
    </g>
    <g id="ytick_12">
     <g id="line2d_21">
      <g>
       <use xlink:href="#m5c6b50ee8e" x="213.684176" y="70.248" style="fill: #ffffff"/>
      </g>
     </g>
    </g>
   </g>
   <g id="line2d_22">
    <path d="M 220.7933 77.558175 
L 220.7933 70.686879 
" clip-path="url(#p8d778fed89)" style="fill: none; stroke: #424242; stroke-width: 2.25; stroke-linecap: square"/>
   </g>
   <g id="line2d_23">
    <path d="M 235.011549 129.291887 
L 235.011549 120.080949 
" clip-path="url(#p8d778fed89)" style="fill: none; stroke: #424242; stroke-width: 2.25; stroke-linecap: square"/>
   </g>
   <g id="line2d_24">
    <path d="M 249.229798 120.941226 
L 249.229798 108.09638 
" clip-path="url(#p8d778fed89)" style="fill: none; stroke: #424242; stroke-width: 2.25; stroke-linecap: square"/>
   </g>
   <g id="text_15">
    <!-- *** -->
    <g style="fill: #ffffff" transform="translate(211.7933 68.316228) scale(0.12 -0.12)">
     <use xlink:href="#DejaVuSans-2a"/>
     <use xlink:href="#DejaVuSans-2a" transform="translate(50 0)"/>
     <use xlink:href="#DejaVuSans-2a" transform="translate(100 0)"/>
    </g>
   </g>
   <g id="text_16">
    <!-- * -->
    <g style="fill: #ffffff" transform="translate(246.229798 105.834376) scale(0.12 -0.12)">
     <use xlink:href="#DejaVuSans-2a"/>
    </g>
   </g>
   <g id="text_17">
    <!-- M1 -->
    <g style="fill: #ffffff" transform="translate(226.017174 48.96) scale(0.12 -0.12)">
     <defs>
      <path id="DejaVuSans-31" d="M 794 531 
L 1825 531 
L 1825 4091 
L 703 3866 
L 703 4441 
L 1819 4666 
L 2450 4666 
L 2450 531 
L 3481 531 
L 3481 0 
L 794 0 
L 794 531 
z
" transform="scale(0.015625)"/>
     </defs>
     <use xlink:href="#DejaVuSans-4d"/>
     <use xlink:href="#DejaVuSans-31" transform="translate(86.279297 0)"/>
    </g>
   </g>
  </g>
  <g id="axes_5">
   <g id="patch_19">
    <path d="M 271.377859 131.4 
L 314.032606 131.4 
L 314.032606 54.96 
L 271.377859 54.96 
z
"/>
   </g>
   <g id="patch_20">
    <path d="M 271.377859 131.4 
L 285.596108 131.4 
L 285.596108 68.74209 
L 271.377859 68.74209 
z
" clip-path="url(#pd5c968bc23)" style="fill: #c0a54b"/>
   </g>
   <g id="patch_21">
    <path d="M 285.596108 131.4 
L 299.814357 131.4 
L 299.814357 112.272957 
L 285.596108 112.272957 
z
" clip-path="url(#pd5c968bc23)" style="fill: #df2020"/>
   </g>
   <g id="patch_22">
    <path d="M 299.814357 131.4 
L 314.032606 131.4 
L 314.032606 103.206735 
L 299.814357 103.206735 
z
" clip-path="url(#pd5c968bc23)" style="fill: #df20df"/>
   </g>
   <g id="matplotlib.axis_9">
    <g id="xtick_13"/>
    <g id="xtick_14"/>
    <g id="xtick_15"/>
   </g>
   <g id="matplotlib.axis_10">
    <g id="ytick_13">
     <g id="line2d_25">
      <g>
       <use xlink:href="#m5c6b50ee8e" x="271.377859" y="131.4" style="fill: #ffffff"/>
      </g>
     </g>
    </g>
    <g id="ytick_14">
     <g id="line2d_26">
      <g>
       <use xlink:href="#m5c6b50ee8e" x="271.377859" y="100.824" style="fill: #ffffff"/>
      </g>
     </g>
    </g>
    <g id="ytick_15">
     <g id="line2d_27">
      <g>
       <use xlink:href="#m5c6b50ee8e" x="271.377859" y="70.248" style="fill: #ffffff"/>
      </g>
     </g>
    </g>
   </g>
   <g id="line2d_28">
    <path d="M 278.486984 69.447637 
L 278.486984 68.036542 
" clip-path="url(#pd5c968bc23)" style="fill: none; stroke: #424242; stroke-width: 2.25; stroke-linecap: square"/>
   </g>
   <g id="line2d_29">
    <path d="M 292.705233 118.90168 
L 292.705233 105.644234 
" clip-path="url(#pd5c968bc23)" style="fill: none; stroke: #424242; stroke-width: 2.25; stroke-linecap: square"/>
   </g>
   <g id="line2d_30">
    <path d="M 306.923482 110.831682 
L 306.923482 95.581788 
" clip-path="url(#pd5c968bc23)" style="fill: none; stroke: #424242; stroke-width: 2.25; stroke-linecap: square"/>
   </g>
   <g id="text_18">
    <!-- *** -->
    <g style="fill: #ffffff" transform="translate(269.486984 65.566582) scale(0.12 -0.12)">
     <use xlink:href="#DejaVuSans-2a"/>
     <use xlink:href="#DejaVuSans-2a" transform="translate(50 0)"/>
     <use xlink:href="#DejaVuSans-2a" transform="translate(100 0)"/>
    </g>
   </g>
   <g id="text_19">
    <!-- ** -->
    <g style="fill: #ffffff" transform="translate(286.705233 103.389734) scale(0.12 -0.12)">
     <use xlink:href="#DejaVuSans-2a"/>
     <use xlink:href="#DejaVuSans-2a" transform="translate(50 0)"/>
    </g>
   </g>
   <g id="text_20">
    <!-- ** -->
    <g style="fill: #ffffff" transform="translate(300.923482 93.363527) scale(0.12 -0.12)">
     <use xlink:href="#DejaVuSans-2a"/>
     <use xlink:href="#DejaVuSans-2a" transform="translate(50 0)"/>
    </g>
   </g>
   <g id="text_21">
    <!-- S1 -->
    <g style="fill: #ffffff" transform="translate(285.07867 48.96) scale(0.12 -0.12)">
     <use xlink:href="#DejaVuSans-53"/>
     <use xlink:href="#DejaVuSans-31" transform="translate(63.476562 0)"/>
    </g>
   </g>
  </g>
  <g id="axes_6">
   <g id="patch_23">
    <path d="M 329.071543 131.4 
L 371.72629 131.4 
L 371.72629 54.96 
L 329.071543 54.96 
z
"/>
   </g>
   <g id="patch_24">
    <path d="M 329.071543 131.4 
L 343.289792 131.4 
L 343.289792 94.572355 
L 329.071543 94.572355 
z
" clip-path="url(#p228ad3e578)" style="fill: #c0a54b"/>
   </g>
   <g id="patch_25">
    <path d="M 343.289792 131.4 
L 357.508041 131.4 
L 357.508041 119.43867 
L 343.289792 119.43867 
z
" clip-path="url(#p228ad3e578)" style="fill: #df2020"/>
   </g>
   <g id="patch_26">
    <path d="M 357.508041 131.4 
L 371.72629 131.4 
L 371.72629 86.277597 
L 357.508041 86.277597 
z
" clip-path="url(#p228ad3e578)" style="fill: #df20df"/>
   </g>
   <g id="matplotlib.axis_11">
    <g id="xtick_16"/>
    <g id="xtick_17"/>
    <g id="xtick_18"/>
   </g>
   <g id="matplotlib.axis_12">
    <g id="ytick_16">
     <g id="line2d_31">
      <g>
       <use xlink:href="#m5c6b50ee8e" x="329.071543" y="131.4" style="fill: #ffffff"/>
      </g>
     </g>
    </g>
    <g id="ytick_17">
     <g id="line2d_32">
      <g>
       <use xlink:href="#m5c6b50ee8e" x="329.071543" y="100.824" style="fill: #ffffff"/>
      </g>
     </g>
    </g>
    <g id="ytick_18">
     <g id="line2d_33">
      <g>
       <use xlink:href="#m5c6b50ee8e" x="329.071543" y="70.248" style="fill: #ffffff"/>
      </g>
     </g>
    </g>
   </g>
   <g id="line2d_34">
    <path d="M 336.180667 102.433138 
L 336.180667 86.711571 
" clip-path="url(#p228ad3e578)" style="fill: none; stroke: #424242; stroke-width: 2.25; stroke-linecap: square"/>
   </g>
   <g id="line2d_35">
    <path d="M 350.398916 126.042355 
L 350.398916 112.834986 
" clip-path="url(#p228ad3e578)" style="fill: none; stroke: #424242; stroke-width: 2.25; stroke-linecap: square"/>
   </g>
   <g id="line2d_36">
    <path d="M 364.617165 93.773142 
L 364.617165 78.782051 
" clip-path="url(#p228ad3e578)" style="fill: none; stroke: #424242; stroke-width: 2.25; stroke-linecap: square"/>
   </g>
   <g id="text_22">
    <!-- *** -->
    <g style="fill: #ffffff" transform="translate(327.180667 84.501889) scale(0.12 -0.12)">
     <use xlink:href="#DejaVuSans-2a"/>
     <use xlink:href="#DejaVuSans-2a" transform="translate(50 0)"/>
     <use xlink:href="#DejaVuSans-2a" transform="translate(100 0)"/>
    </g>
   </g>
   <g id="text_23">
    <!-- * -->
    <g style="fill: #ffffff" transform="translate(347.398916 110.579575) scale(0.12 -0.12)">
     <use xlink:href="#DejaVuSans-2a"/>
    </g>
   </g>
   <g id="text_24">
    <!-- *** -->
    <g style="fill: #ffffff" transform="translate(355.617165 76.559083) scale(0.12 -0.12)">
     <use xlink:href="#DejaVuSans-2a"/>
     <use xlink:href="#DejaVuSans-2a" transform="translate(50 0)"/>
     <use xlink:href="#DejaVuSans-2a" transform="translate(100 0)"/>
    </g>
   </g>
   <g id="text_25">
    <!-- SPLa -->
    <g style="fill: #ffffff" transform="translate(335.952041 48.96) scale(0.12 -0.12)">
     <defs>
      <path id="DejaVuSans-4c" d="M 628 4666 
L 1259 4666 
L 1259 531 
L 3531 531 
L 3531 0 
L 628 0 
L 628 4666 
z
" transform="scale(0.015625)"/>
     </defs>
     <use xlink:href="#DejaVuSans-53"/>
     <use xlink:href="#DejaVuSans-50" transform="translate(63.476562 0)"/>
     <use xlink:href="#DejaVuSans-4c" transform="translate(123.779297 0)"/>
     <use xlink:href="#DejaVuSans-61" transform="translate(179.492188 0)"/>
    </g>
   </g>
  </g>
  <g id="axes_7">
   <g id="patch_27">
    <path d="M 386.765226 131.4 
L 429.419973 131.4 
L 429.419973 54.96 
L 386.765226 54.96 
z
"/>
   </g>
   <g id="patch_28">
    <path d="M 386.765226 131.4 
L 400.983475 131.4 
L 400.983475 118.077155 
L 386.765226 118.077155 
z
" clip-path="url(#p8453114d0b)" style="fill: #c0a54b"/>
   </g>
   <g id="patch_29">
    <path d="M 400.983475 131.4 
L 415.201724 131.4 
L 415.201724 121.84131 
L 400.983475 121.84131 
z
" clip-path="url(#p8453114d0b)" style="fill: #df2020"/>
   </g>
   <g id="patch_30">
    <path d="M 415.201724 131.4 
L 429.419973 131.4 
L 429.419973 83.003082 
L 415.201724 83.003082 
z
" clip-path="url(#p8453114d0b)" style="fill: #df20df"/>
   </g>
   <g id="matplotlib.axis_13">
    <g id="xtick_19"/>
    <g id="xtick_20"/>
    <g id="xtick_21"/>
   </g>
   <g id="matplotlib.axis_14">
    <g id="ytick_19">
     <g id="line2d_37">
      <g>
       <use xlink:href="#m5c6b50ee8e" x="386.765226" y="131.4" style="fill: #ffffff"/>
      </g>
     </g>
    </g>
    <g id="ytick_20">
     <g id="line2d_38">
      <g>
       <use xlink:href="#m5c6b50ee8e" x="386.765226" y="100.824" style="fill: #ffffff"/>
      </g>
     </g>
    </g>
    <g id="ytick_21">
     <g id="line2d_39">
      <g>
       <use xlink:href="#m5c6b50ee8e" x="386.765226" y="70.248" style="fill: #ffffff"/>
      </g>
     </g>
    </g>
   </g>
   <g id="line2d_40">
    <path d="M 393.874351 124.402229 
L 393.874351 111.75208 
" clip-path="url(#p8453114d0b)" style="fill: none; stroke: #424242; stroke-width: 2.25; stroke-linecap: square"/>
   </g>
   <g id="line2d_41">
    <path d="M 408.0926 127.225248 
L 408.0926 116.457371 
" clip-path="url(#p8453114d0b)" style="fill: none; stroke: #424242; stroke-width: 2.25; stroke-linecap: square"/>
   </g>
   <g id="line2d_42">
    <path d="M 422.310849 89.406488 
L 422.310849 76.599676 
" clip-path="url(#p8453114d0b)" style="fill: none; stroke: #424242; stroke-width: 2.25; stroke-linecap: square"/>
   </g>
   <g id="text_26">
    <!-- * -->
    <g style="fill: #ffffff" transform="translate(390.874351 109.486535) scale(0.12 -0.12)">
     <use xlink:href="#DejaVuSans-2a"/>
    </g>
   </g>
   <g id="text_27">
    <!-- * -->
    <g style="fill: #ffffff" transform="translate(405.0926 114.157591) scale(0.12 -0.12)">
     <use xlink:href="#DejaVuSans-2a"/>
    </g>
   </g>
   <g id="text_28">
    <!-- *** -->
    <g style="fill: #ffffff" transform="translate(413.310849 74.33698) scale(0.12 -0.12)">
     <use xlink:href="#DejaVuSans-2a"/>
     <use xlink:href="#DejaVuSans-2a" transform="translate(50 0)"/>
     <use xlink:href="#DejaVuSans-2a" transform="translate(100 0)"/>
    </g>
   </g>
   <g id="text_29">
    <!-- SPLp -->
    <g style="fill: #ffffff" transform="translate(393.513537 48.96) scale(0.12 -0.12)">
     <defs>
      <path id="DejaVuSans-70" d="M 1159 525 
L 1159 -1331 
L 581 -1331 
L 581 3500 
L 1159 3500 
L 1159 2969 
Q 1341 3281 1617 3432 
Q 1894 3584 2278 3584 
Q 2916 3584 3314 3078 
Q 3713 2572 3713 1747 
Q 3713 922 3314 415 
Q 2916 -91 2278 -91 
Q 1894 -91 1617 61 
Q 1341 213 1159 525 
z
M 3116 1747 
Q 3116 2381 2855 2742 
Q 2594 3103 2138 3103 
Q 1681 3103 1420 2742 
Q 1159 2381 1159 1747 
Q 1159 1113 1420 752 
Q 1681 391 2138 391 
Q 2594 391 2855 752 
Q 3116 1113 3116 1747 
z
" transform="scale(0.015625)"/>
     </defs>
     <use xlink:href="#DejaVuSans-53"/>
     <use xlink:href="#DejaVuSans-50" transform="translate(63.476562 0)"/>
     <use xlink:href="#DejaVuSans-4c" transform="translate(123.779297 0)"/>
     <use xlink:href="#DejaVuSans-70" transform="translate(179.492188 0)"/>
    </g>
   </g>
  </g>
  <g id="axes_8">
   <g id="patch_31">
    <path d="M 444.45891 131.4 
L 487.113657 131.4 
L 487.113657 54.96 
L 444.45891 54.96 
z
"/>
   </g>
   <g id="patch_32">
    <path d="M 444.45891 131.4 
L 458.677159 131.4 
L 458.677159 99.053559 
L 444.45891 99.053559 
z
" clip-path="url(#p3e045c3c44)" style="fill: #c0a54b"/>
   </g>
   <g id="patch_33">
    <path d="M 458.677159 131.4 
L 472.895408 131.4 
L 472.895408 104.365717 
L 458.677159 104.365717 
z
" clip-path="url(#p3e045c3c44)" style="fill: #df2020"/>
   </g>
   <g id="patch_34">
    <path d="M 472.895408 131.4 
L 487.113657 131.4 
L 487.113657 97.601725 
L 472.895408 97.601725 
z
" clip-path="url(#p3e045c3c44)" style="fill: #df20df"/>
   </g>
   <g id="matplotlib.axis_15">
    <g id="xtick_22"/>
    <g id="xtick_23"/>
    <g id="xtick_24"/>
   </g>
   <g id="matplotlib.axis_16">
    <g id="ytick_22">
     <g id="line2d_43">
      <g>
       <use xlink:href="#m5c6b50ee8e" x="444.45891" y="131.4" style="fill: #ffffff"/>
      </g>
     </g>
    </g>
    <g id="ytick_23">
     <g id="line2d_44">
      <g>
       <use xlink:href="#m5c6b50ee8e" x="444.45891" y="100.824" style="fill: #ffffff"/>
      </g>
     </g>
    </g>
    <g id="ytick_24">
     <g id="line2d_45">
      <g>
       <use xlink:href="#m5c6b50ee8e" x="444.45891" y="70.248" style="fill: #ffffff"/>
      </g>
     </g>
    </g>
   </g>
   <g id="line2d_46">
    <path d="M 451.568034 106.920375 
L 451.568034 91.186742 
" clip-path="url(#p3e045c3c44)" style="fill: none; stroke: #424242; stroke-width: 2.25; stroke-linecap: square"/>
   </g>
   <g id="line2d_47">
    <path d="M 465.786283 112.257088 
L 465.786283 96.474346 
" clip-path="url(#p3e045c3c44)" style="fill: none; stroke: #424242; stroke-width: 2.25; stroke-linecap: square"/>
   </g>
   <g id="line2d_48">
    <path d="M 480.004532 105.125164 
L 480.004532 90.078285 
" clip-path="url(#p3e045c3c44)" style="fill: none; stroke: #424242; stroke-width: 2.25; stroke-linecap: square"/>
   </g>
   <g id="text_30">
    <!-- *** -->
    <g style="fill: #ffffff" transform="translate(442.568034 88.977279) scale(0.12 -0.12)">
     <use xlink:href="#DejaVuSans-2a"/>
     <use xlink:href="#DejaVuSans-2a" transform="translate(50 0)"/>
     <use xlink:href="#DejaVuSans-2a" transform="translate(100 0)"/>
    </g>
   </g>
   <g id="text_31">
    <!-- ** -->
    <g style="fill: #ffffff" transform="translate(459.786283 94.265776) scale(0.12 -0.12)">
     <use xlink:href="#DejaVuSans-2a"/>
     <use xlink:href="#DejaVuSans-2a" transform="translate(50 0)"/>
    </g>
   </g>
   <g id="text_32">
    <!-- *** -->
    <g style="fill: #ffffff" transform="translate(471.004532 87.856332) scale(0.12 -0.12)">
     <use xlink:href="#DejaVuSans-2a"/>
     <use xlink:href="#DejaVuSans-2a" transform="translate(50 0)"/>
     <use xlink:href="#DejaVuSans-2a" transform="translate(100 0)"/>
    </g>
   </g>
   <g id="text_33">
    <!-- V1 -->
    <g style="fill: #ffffff" transform="translate(457.864408 48.96) scale(0.12 -0.12)">
     <defs>
      <path id="DejaVuSans-56" d="M 1831 0 
L 50 4666 
L 709 4666 
L 2188 738 
L 3669 4666 
L 4325 4666 
L 2547 0 
L 1831 0 
z
" transform="scale(0.015625)"/>
     </defs>
     <use xlink:href="#DejaVuSans-56"/>
     <use xlink:href="#DejaVuSans-31" transform="translate(68.408203 0)"/>
    </g>
   </g>
  </g>
  <g id="text_34">
   <!-- Component Bayes factor -->
   <g style="fill: #ffffff" transform="translate(173.644375 16.318125) scale(0.12 -0.12)">
    <defs>
     <path id="DejaVuSans-43" d="M 4122 4306 
L 4122 3641 
Q 3803 3938 3442 4084 
Q 3081 4231 2675 4231 
Q 1875 4231 1450 3742 
Q 1025 3253 1025 2328 
Q 1025 1406 1450 917 
Q 1875 428 2675 428 
Q 3081 428 3442 575 
Q 3803 722 4122 1019 
L 4122 359 
Q 3791 134 3420 21 
Q 3050 -91 2638 -91 
Q 1578 -91 968 557 
Q 359 1206 359 2328 
Q 359 3453 968 4101 
Q 1578 4750 2638 4750 
Q 3056 4750 3426 4639 
Q 3797 4528 4122 4306 
z
" transform="scale(0.015625)"/>
     <path id="DejaVuSans-6d" d="M 3328 2828 
Q 3544 3216 3844 3400 
Q 4144 3584 4550 3584 
Q 5097 3584 5394 3201 
Q 5691 2819 5691 2113 
L 5691 0 
L 5113 0 
L 5113 2094 
Q 5113 2597 4934 2840 
Q 4756 3084 4391 3084 
Q 3944 3084 3684 2787 
Q 3425 2491 3425 1978 
L 3425 0 
L 2847 0 
L 2847 2094 
Q 2847 2600 2669 2842 
Q 2491 3084 2119 3084 
Q 1678 3084 1418 2786 
Q 1159 2488 1159 1978 
L 1159 0 
L 581 0 
L 581 3500 
L 1159 3500 
L 1159 2956 
Q 1356 3278 1631 3431 
Q 1906 3584 2284 3584 
Q 2666 3584 2933 3390 
Q 3200 3197 3328 2828 
z
" transform="scale(0.015625)"/>
     <path id="DejaVuSans-6e" d="M 3513 2113 
L 3513 0 
L 2938 0 
L 2938 2094 
Q 2938 2591 2744 2837 
Q 2550 3084 2163 3084 
Q 1697 3084 1428 2787 
Q 1159 2491 1159 1978 
L 1159 0 
L 581 0 
L 581 3500 
L 1159 3500 
L 1159 2956 
Q 1366 3272 1645 3428 
Q 1925 3584 2291 3584 
Q 2894 3584 3203 3211 
Q 3513 2838 3513 2113 
z
" transform="scale(0.015625)"/>
     <path id="DejaVuSans-66" d="M 2375 4863 
L 2375 4384 
L 1825 4384 
Q 1516 4384 1395 4259 
Q 1275 4134 1275 3809 
L 1275 3500 
L 2222 3500 
L 2222 3053 
L 1275 3053 
L 1275 0 
L 697 0 
L 697 3053 
L 147 3053 
L 147 3500 
L 697 3500 
L 697 3744 
Q 697 4328 969 4595 
Q 1241 4863 1831 4863 
L 2375 4863 
z
" transform="scale(0.015625)"/>
    </defs>
    <use xlink:href="#DejaVuSans-43"/>
    <use xlink:href="#DejaVuSans-6f" transform="translate(69.824219 0)"/>
    <use xlink:href="#DejaVuSans-6d" transform="translate(131.005859 0)"/>
    <use xlink:href="#DejaVuSans-70" transform="translate(228.417969 0)"/>
    <use xlink:href="#DejaVuSans-6f" transform="translate(291.894531 0)"/>
    <use xlink:href="#DejaVuSans-6e" transform="translate(353.076172 0)"/>
    <use xlink:href="#DejaVuSans-65" transform="translate(416.455078 0)"/>
    <use xlink:href="#DejaVuSans-6e" transform="translate(477.978516 0)"/>
    <use xlink:href="#DejaVuSans-74" transform="translate(541.357422 0)"/>
    <use xlink:href="#DejaVuSans-20" transform="translate(580.566406 0)"/>
    <use xlink:href="#DejaVuSans-42" transform="translate(612.353516 0)"/>
    <use xlink:href="#DejaVuSans-61" transform="translate(680.957031 0)"/>
    <use xlink:href="#DejaVuSans-79" transform="translate(742.236328 0)"/>
    <use xlink:href="#DejaVuSans-65" transform="translate(801.416016 0)"/>
    <use xlink:href="#DejaVuSans-73" transform="translate(862.939453 0)"/>
    <use xlink:href="#DejaVuSans-20" transform="translate(915.039062 0)"/>
    <use xlink:href="#DejaVuSans-66" transform="translate(946.826172 0)"/>
    <use xlink:href="#DejaVuSans-61" transform="translate(982.03125 0)"/>
    <use xlink:href="#DejaVuSans-63" transform="translate(1043.310547 0)"/>
    <use xlink:href="#DejaVuSans-74" transform="translate(1098.291016 0)"/>
    <use xlink:href="#DejaVuSans-6f" transform="translate(1137.5 0)"/>
    <use xlink:href="#DejaVuSans-72" transform="translate(1198.681641 0)"/>
   </g>
  </g>
  <g id="legend_1">
   <g id="patch_35">
    <path d="M 142.285469 151.640313 
L 162.285469 151.640313 
L 162.285469 144.640313 
L 142.285469 144.640313 
z
" style="fill: #ffcc33; stroke: #000000; stroke-linejoin: miter"/>
   </g>
   <g id="text_35">
    <!-- finger -->
    <g style="fill: #ffffff" transform="translate(170.285469 151.640313) scale(0.1 -0.1)">
     <defs>
      <path id="DejaVuSans-69" d="M 603 3500 
L 1178 3500 
L 1178 0 
L 603 0 
L 603 3500 
z
M 603 4863 
L 1178 4863 
L 1178 4134 
L 603 4134 
L 603 4863 
z
" transform="scale(0.015625)"/>
      <path id="DejaVuSans-67" d="M 2906 1791 
Q 2906 2416 2648 2759 
Q 2391 3103 1925 3103 
Q 1463 3103 1205 2759 
Q 947 2416 947 1791 
Q 947 1169 1205 825 
Q 1463 481 1925 481 
Q 2391 481 2648 825 
Q 2906 1169 2906 1791 
z
M 3481 434 
Q 3481 -459 3084 -895 
Q 2688 -1331 1869 -1331 
Q 1566 -1331 1297 -1286 
Q 1028 -1241 775 -1147 
L 775 -588 
Q 1028 -725 1275 -790 
Q 1522 -856 1778 -856 
Q 2344 -856 2625 -561 
Q 2906 -266 2906 331 
L 2906 616 
Q 2728 306 2450 153 
Q 2172 0 1784 0 
Q 1141 0 747 490 
Q 353 981 353 1791 
Q 353 2603 747 3093 
Q 1141 3584 1784 3584 
Q 2172 3584 2450 3431 
Q 2728 3278 2906 2969 
L 2906 3500 
L 3481 3500 
L 3481 434 
z
" transform="scale(0.015625)"/>
     </defs>
     <use xlink:href="#DejaVuSans-66"/>
     <use xlink:href="#DejaVuSans-69" transform="translate(35.205078 0)"/>
     <use xlink:href="#DejaVuSans-6e" transform="translate(62.988281 0)"/>
     <use xlink:href="#DejaVuSans-67" transform="translate(126.367188 0)"/>
     <use xlink:href="#DejaVuSans-65" transform="translate(189.84375 0)"/>
     <use xlink:href="#DejaVuSans-72" transform="translate(251.367188 0)"/>
    </g>
   </g>
   <g id="patch_36">
    <path d="M 219.533906 151.640313 
L 239.533906 151.640313 
L 239.533906 144.640313 
L 219.533906 144.640313 
z
" style="fill: #ff0000; stroke: #000000; stroke-linejoin: miter"/>
   </g>
   <g id="text_36">
    <!-- cue -->
    <g style="fill: #ffffff" transform="translate(247.533906 151.640313) scale(0.1 -0.1)">
     <defs>
      <path id="DejaVuSans-75" d="M 544 1381 
L 544 3500 
L 1119 3500 
L 1119 1403 
Q 1119 906 1312 657 
Q 1506 409 1894 409 
Q 2359 409 2629 706 
Q 2900 1003 2900 1516 
L 2900 3500 
L 3475 3500 
L 3475 0 
L 2900 0 
L 2900 538 
Q 2691 219 2414 64 
Q 2138 -91 1772 -91 
Q 1169 -91 856 284 
Q 544 659 544 1381 
z
M 1991 3584 
L 1991 3584 
z
" transform="scale(0.015625)"/>
     </defs>
     <use xlink:href="#DejaVuSans-63"/>
     <use xlink:href="#DejaVuSans-75" transform="translate(54.980469 0)"/>
     <use xlink:href="#DejaVuSans-65" transform="translate(118.359375 0)"/>
    </g>
   </g>
   <g id="patch_37">
    <path d="M 285.522969 151.640313 
L 305.522969 151.640313 
L 305.522969 144.640313 
L 285.522969 144.640313 
z
" style="fill: #ff00ff; stroke: #000000; stroke-linejoin: miter"/>
   </g>
   <g id="text_37">
    <!-- surprise -->
    <g style="fill: #ffffff" transform="translate(313.522969 151.640313) scale(0.1 -0.1)">
     <use xlink:href="#DejaVuSans-73"/>
     <use xlink:href="#DejaVuSans-75" transform="translate(52.099609 0)"/>
     <use xlink:href="#DejaVuSans-72" transform="translate(115.478516 0)"/>
     <use xlink:href="#DejaVuSans-70" transform="translate(156.591797 0)"/>
     <use xlink:href="#DejaVuSans-72" transform="translate(220.068359 0)"/>
     <use xlink:href="#DejaVuSans-69" transform="translate(261.181641 0)"/>
     <use xlink:href="#DejaVuSans-73" transform="translate(288.964844 0)"/>
     <use xlink:href="#DejaVuSans-65" transform="translate(341.064453 0)"/>
    </g>
   </g>
  </g>
 </g>
 <defs>
  <clipPath id="pe196c366ff">
   <rect x="40.603125" y="54.96" width="42.654747" height="76.44"/>
  </clipPath>
  <clipPath id="pc642b3d4c8">
   <rect x="98.296809" y="54.96" width="42.654747" height="76.44"/>
  </clipPath>
  <clipPath id="p9cd5a70cb9">
   <rect x="155.990492" y="54.96" width="42.654747" height="76.44"/>
  </clipPath>
  <clipPath id="p8d778fed89">
   <rect x="213.684176" y="54.96" width="42.654747" height="76.44"/>
  </clipPath>
  <clipPath id="pd5c968bc23">
   <rect x="271.377859" y="54.96" width="42.654747" height="76.44"/>
  </clipPath>
  <clipPath id="p228ad3e578">
   <rect x="329.071543" y="54.96" width="42.654747" height="76.44"/>
  </clipPath>
  <clipPath id="p8453114d0b">
   <rect x="386.765226" y="54.96" width="42.654747" height="76.44"/>
  </clipPath>
  <clipPath id="p3e045c3c44">
   <rect x="444.45891" y="54.96" width="42.654747" height="76.44"/>
  </clipPath>
 </defs>
</svg>
