<?xml version="1.0" encoding="utf-8" standalone="no"?>
<!DOCTYPE svg PUBLIC "-//W3C//DTD SVG 1.1//EN"
  "http://www.w3.org/Graphics/SVG/1.1/DTD/svg11.dtd">
<svg xmlns:xlink="http://www.w3.org/1999/xlink" width="280.523125pt" height="164.92pt" viewBox="0 0 280.523125 164.92" xmlns="http://www.w3.org/2000/svg" version="1.1">
 <metadata>
  <rdf:RDF xmlns:dc="http://purl.org/dc/elements/1.1/" xmlns:cc="http://creativecommons.org/ns#" xmlns:rdf="http://www.w3.org/1999/02/22-rdf-syntax-ns#">
   <cc:Work>
    <dc:type rdf:resource="http://purl.org/dc/dcmitype/StillImage"/>
    <dc:date>2025-06-14T16:17:04.934395</dc:date>
    <dc:format>image/svg+xml</dc:format>
    <dc:creator>
     <cc:Agent>
      <dc:title>Matplotlib v3.10.1, https://matplotlib.org/</dc:title>
     </cc:Agent>
    </dc:creator>
   </cc:Work>
  </rdf:RDF>
 </metadata>
 <defs>
  <style type="text/css">*{stroke-linejoin: round; stroke-linecap: butt}</style>
 </defs>
 <g id="figure_1">
  <g id="patch_1">
   <path d="M 0 164.92 
L 280.523125 164.92 
L 280.523125 0 
L 0 0 
z
"/>
  </g>
  <g id="axes_1">
   <g id="patch_2">
    <path d="M 40.603125 137.52 
L 89.964592 137.52 
L 89.964592 54.96 
L 40.603125 54.96 
z
"/>
   </g>
   <g id="patch_3">
    <path d="M 40.603125 130.014545 
L 57.056947 130.014545 
L 57.056947 131.178611 
L 40.603125 131.178611 
z
" clip-path="url(#p2c97d6ca59)" style="fill: #c0a54b"/>
   </g>
   <g id="patch_4">
    <path d="M 57.056947 130.014545 
L 73.51077 130.014545 
L 73.51077 131.452944 
L 57.056947 131.452944 
z
" clip-path="url(#p2c97d6ca59)" style="fill: #df2020"/>
   </g>
   <g id="patch_5">
    <path d="M 73.51077 130.014545 
L 89.964592 130.014545 
L 89.964592 131.139226 
L 73.51077 131.139226 
z
" clip-path="url(#p2c97d6ca59)" style="fill: #df20df"/>
   </g>
   <g id="matplotlib.axis_1">
    <g id="xtick_1"/>
    <g id="xtick_2"/>
    <g id="xtick_3"/>
   </g>
   <g id="matplotlib.axis_2">
    <g id="ytick_1">
     <g id="line2d_1">
      <defs>
       <path id="mbe4d7d479f" d="M 0 0 
L -3.5 0 
" style="stroke: #ffffff"/>
      </defs>
      <g>
       <use xlink:href="#mbe4d7d479f" x="40.603125" y="130.014545" style="fill: #ffffff; stroke: #ffffff"/>
      </g>
     </g>
     <g id="text_1">
      <!-- 0 -->
      <g style="fill: #ffffff" transform="translate(27.240625 133.813764) scale(0.1 -0.1)">
       <defs>
        <path id="DejaVuSans-30" d="M 2034 4250 
Q 1547 4250 1301 3770 
Q 1056 3291 1056 2328 
Q 1056 1369 1301 889 
Q 1547 409 2034 409 
Q 2525 409 2770 889 
Q 3016 1369 3016 2328 
Q 3016 3291 2770 3770 
Q 2525 4250 2034 4250 
z
M 2034 4750 
Q 2819 4750 3233 4129 
Q 3647 3509 3647 2328 
Q 3647 1150 3233 529 
Q 2819 -91 2034 -91 
Q 1250 -91 836 529 
Q 422 1150 422 2328 
Q 422 3509 836 4129 
Q 1250 4750 2034 4750 
z
" transform="scale(0.015625)"/>
       </defs>
       <use xlink:href="#DejaVuSans-30"/>
      </g>
     </g>
    </g>
    <g id="ytick_2">
     <g id="line2d_2">
      <g>
       <use xlink:href="#mbe4d7d479f" x="40.603125" y="99.992727" style="fill: #ffffff; stroke: #ffffff"/>
      </g>
     </g>
     <g id="text_2">
      <!-- 20 -->
      <g style="fill: #ffffff" transform="translate(20.878125 103.791946) scale(0.1 -0.1)">
       <defs>
        <path id="DejaVuSans-32" d="M 1228 531 
L 3431 531 
L 3431 0 
L 469 0 
L 469 531 
Q 828 903 1448 1529 
Q 2069 2156 2228 2338 
Q 2531 2678 2651 2914 
Q 2772 3150 2772 3378 
Q 2772 3750 2511 3984 
Q 2250 4219 1831 4219 
Q 1534 4219 1204 4116 
Q 875 4013 500 3803 
L 500 4441 
Q 881 4594 1212 4672 
Q 1544 4750 1819 4750 
Q 2544 4750 2975 4387 
Q 3406 4025 3406 3419 
Q 3406 3131 3298 2873 
Q 3191 2616 2906 2266 
Q 2828 2175 2409 1742 
Q 1991 1309 1228 531 
z
" transform="scale(0.015625)"/>
       </defs>
       <use xlink:href="#DejaVuSans-32"/>
       <use xlink:href="#DejaVuSans-30" transform="translate(63.623047 0)"/>
      </g>
     </g>
    </g>
    <g id="ytick_3">
     <g id="line2d_3">
      <g>
       <use xlink:href="#mbe4d7d479f" x="40.603125" y="69.970909" style="fill: #ffffff; stroke: #ffffff"/>
      </g>
     </g>
     <g id="text_3">
      <!-- 40 -->
      <g style="fill: #ffffff" transform="translate(20.878125 73.770128) scale(0.1 -0.1)">
       <defs>
        <path id="DejaVuSans-34" d="M 2419 4116 
L 825 1625 
L 2419 1625 
L 2419 4116 
z
M 2253 4666 
L 3047 4666 
L 3047 1625 
L 3713 1625 
L 3713 1100 
L 3047 1100 
L 3047 0 
L 2419 0 
L 2419 1100 
L 313 1100 
L 313 1709 
L 2253 4666 
z
" transform="scale(0.015625)"/>
       </defs>
       <use xlink:href="#DejaVuSans-34"/>
       <use xlink:href="#DejaVuSans-30" transform="translate(63.623047 0)"/>
      </g>
     </g>
    </g>
    <g id="text_4">
     <!-- Bayes Factor -->
     <g style="fill: #ffffff" transform="translate(14.798438 128.272031) rotate(-90) scale(0.1 -0.1)">
      <defs>
       <path id="DejaVuSans-42" d="M 1259 2228 
L 1259 519 
L 2272 519 
Q 2781 519 3026 730 
Q 3272 941 3272 1375 
Q 3272 1813 3026 2020 
Q 2781 2228 2272 2228 
L 1259 2228 
z
M 1259 4147 
L 1259 2741 
L 2194 2741 
Q 2656 2741 2882 2914 
Q 3109 3088 3109 3444 
Q 3109 3797 2882 3972 
Q 2656 4147 2194 4147 
L 1259 4147 
z
M 628 4666 
L 2241 4666 
Q 2963 4666 3353 4366 
Q 3744 4066 3744 3513 
Q 3744 3084 3544 2831 
Q 3344 2578 2956 2516 
Q 3422 2416 3680 2098 
Q 3938 1781 3938 1306 
Q 3938 681 3513 340 
Q 3088 0 2303 0 
L 628 0 
L 628 4666 
z
" transform="scale(0.015625)"/>
       <path id="DejaVuSans-61" d="M 2194 1759 
Q 1497 1759 1228 1600 
Q 959 1441 959 1056 
Q 959 750 1161 570 
Q 1363 391 1709 391 
Q 2188 391 2477 730 
Q 2766 1069 2766 1631 
L 2766 1759 
L 2194 1759 
z
M 3341 1997 
L 3341 0 
L 2766 0 
L 2766 531 
Q 2569 213 2275 61 
Q 1981 -91 1556 -91 
Q 1019 -91 701 211 
Q 384 513 384 1019 
Q 384 1609 779 1909 
Q 1175 2209 1959 2209 
L 2766 2209 
L 2766 2266 
Q 2766 2663 2505 2880 
Q 2244 3097 1772 3097 
Q 1472 3097 1187 3025 
Q 903 2953 641 2809 
L 641 3341 
Q 956 3463 1253 3523 
Q 1550 3584 1831 3584 
Q 2591 3584 2966 3190 
Q 3341 2797 3341 1997 
z
" transform="scale(0.015625)"/>
       <path id="DejaVuSans-79" d="M 2059 -325 
Q 1816 -950 1584 -1140 
Q 1353 -1331 966 -1331 
L 506 -1331 
L 506 -850 
L 844 -850 
Q 1081 -850 1212 -737 
Q 1344 -625 1503 -206 
L 1606 56 
L 191 3500 
L 800 3500 
L 1894 763 
L 2988 3500 
L 3597 3500 
L 2059 -325 
z
" transform="scale(0.015625)"/>
       <path id="DejaVuSans-65" d="M 3597 1894 
L 3597 1613 
L 953 1613 
Q 991 1019 1311 708 
Q 1631 397 2203 397 
Q 2534 397 2845 478 
Q 3156 559 3463 722 
L 3463 178 
Q 3153 47 2828 -22 
Q 2503 -91 2169 -91 
Q 1331 -91 842 396 
Q 353 884 353 1716 
Q 353 2575 817 3079 
Q 1281 3584 2069 3584 
Q 2775 3584 3186 3129 
Q 3597 2675 3597 1894 
z
M 3022 2063 
Q 3016 2534 2758 2815 
Q 2500 3097 2075 3097 
Q 1594 3097 1305 2825 
Q 1016 2553 972 2059 
L 3022 2063 
z
" transform="scale(0.015625)"/>
       <path id="DejaVuSans-73" d="M 2834 3397 
L 2834 2853 
Q 2591 2978 2328 3040 
Q 2066 3103 1784 3103 
Q 1356 3103 1142 2972 
Q 928 2841 928 2578 
Q 928 2378 1081 2264 
Q 1234 2150 1697 2047 
L 1894 2003 
Q 2506 1872 2764 1633 
Q 3022 1394 3022 966 
Q 3022 478 2636 193 
Q 2250 -91 1575 -91 
Q 1294 -91 989 -36 
Q 684 19 347 128 
L 347 722 
Q 666 556 975 473 
Q 1284 391 1588 391 
Q 1994 391 2212 530 
Q 2431 669 2431 922 
Q 2431 1156 2273 1281 
Q 2116 1406 1581 1522 
L 1381 1569 
Q 847 1681 609 1914 
Q 372 2147 372 2553 
Q 372 3047 722 3315 
Q 1072 3584 1716 3584 
Q 2034 3584 2315 3537 
Q 2597 3491 2834 3397 
z
" transform="scale(0.015625)"/>
       <path id="DejaVuSans-20" transform="scale(0.015625)"/>
       <path id="DejaVuSans-46" d="M 628 4666 
L 3309 4666 
L 3309 4134 
L 1259 4134 
L 1259 2759 
L 3109 2759 
L 3109 2228 
L 1259 2228 
L 1259 0 
L 628 0 
L 628 4666 
z
" transform="scale(0.015625)"/>
       <path id="DejaVuSans-63" d="M 3122 3366 
L 3122 2828 
Q 2878 2963 2633 3030 
Q 2388 3097 2138 3097 
Q 1578 3097 1268 2742 
Q 959 2388 959 1747 
Q 959 1106 1268 751 
Q 1578 397 2138 397 
Q 2388 397 2633 464 
Q 2878 531 3122 666 
L 3122 134 
Q 2881 22 2623 -34 
Q 2366 -91 2075 -91 
Q 1284 -91 818 406 
Q 353 903 353 1747 
Q 353 2603 823 3093 
Q 1294 3584 2113 3584 
Q 2378 3584 2631 3529 
Q 2884 3475 3122 3366 
z
" transform="scale(0.015625)"/>
       <path id="DejaVuSans-74" d="M 1172 4494 
L 1172 3500 
L 2356 3500 
L 2356 3053 
L 1172 3053 
L 1172 1153 
Q 1172 725 1289 603 
Q 1406 481 1766 481 
L 2356 481 
L 2356 0 
L 1766 0 
Q 1100 0 847 248 
Q 594 497 594 1153 
L 594 3053 
L 172 3053 
L 172 3500 
L 594 3500 
L 594 4494 
L 1172 4494 
z
" transform="scale(0.015625)"/>
       <path id="DejaVuSans-6f" d="M 1959 3097 
Q 1497 3097 1228 2736 
Q 959 2375 959 1747 
Q 959 1119 1226 758 
Q 1494 397 1959 397 
Q 2419 397 2687 759 
Q 2956 1122 2956 1747 
Q 2956 2369 2687 2733 
Q 2419 3097 1959 3097 
z
M 1959 3584 
Q 2709 3584 3137 3096 
Q 3566 2609 3566 1747 
Q 3566 888 3137 398 
Q 2709 -91 1959 -91 
Q 1206 -91 779 398 
Q 353 888 353 1747 
Q 353 2609 779 3096 
Q 1206 3584 1959 3584 
z
" transform="scale(0.015625)"/>
       <path id="DejaVuSans-72" d="M 2631 2963 
Q 2534 3019 2420 3045 
Q 2306 3072 2169 3072 
Q 1681 3072 1420 2755 
Q 1159 2438 1159 1844 
L 1159 0 
L 581 0 
L 581 3500 
L 1159 3500 
L 1159 2956 
Q 1341 3275 1631 3429 
Q 1922 3584 2338 3584 
Q 2397 3584 2469 3576 
Q 2541 3569 2628 3553 
L 2631 2963 
z
" transform="scale(0.015625)"/>
      </defs>
      <use xlink:href="#DejaVuSans-42"/>
      <use xlink:href="#DejaVuSans-61" transform="translate(68.603516 0)"/>
      <use xlink:href="#DejaVuSans-79" transform="translate(129.882812 0)"/>
      <use xlink:href="#DejaVuSans-65" transform="translate(189.0625 0)"/>
      <use xlink:href="#DejaVuSans-73" transform="translate(250.585938 0)"/>
      <use xlink:href="#DejaVuSans-20" transform="translate(302.685547 0)"/>
      <use xlink:href="#DejaVuSans-46" transform="translate(334.472656 0)"/>
      <use xlink:href="#DejaVuSans-61" transform="translate(382.867188 0)"/>
      <use xlink:href="#DejaVuSans-63" transform="translate(444.146484 0)"/>
      <use xlink:href="#DejaVuSans-74" transform="translate(499.126953 0)"/>
      <use xlink:href="#DejaVuSans-6f" transform="translate(538.335938 0)"/>
      <use xlink:href="#DejaVuSans-72" transform="translate(599.517578 0)"/>
     </g>
    </g>
   </g>
   <g id="line2d_4">
    <path d="M 48.830036 131.509428 
L 48.830036 130.568911 
" clip-path="url(#p2c97d6ca59)" style="fill: none; stroke: #424242; stroke-width: 2.25; stroke-linecap: square"/>
   </g>
   <g id="line2d_5">
    <path d="M 65.283859 131.517199 
L 65.283859 131.328713 
" clip-path="url(#p2c97d6ca59)" style="fill: none; stroke: #424242; stroke-width: 2.25; stroke-linecap: square"/>
   </g>
   <g id="line2d_6">
    <path d="M 81.737681 131.498472 
L 81.737681 130.473838 
" clip-path="url(#p2c97d6ca59)" style="fill: none; stroke: #424242; stroke-width: 2.25; stroke-linecap: square"/>
   </g>
   <g id="patch_6">
    <path d="M 40.603125 130.014545 
L 40.603125 69.970909 
" style="fill: none; stroke: #ffffff; stroke-width: 0.8; stroke-linejoin: miter; stroke-linecap: square"/>
   </g>
   <g id="text_5">
    <!-- Pre -->
    <g style="fill: #ffffff" transform="translate(55.747609 48.96) scale(0.12 -0.12)">
     <defs>
      <path id="DejaVuSans-50" d="M 1259 4147 
L 1259 2394 
L 2053 2394 
Q 2494 2394 2734 2622 
Q 2975 2850 2975 3272 
Q 2975 3691 2734 3919 
Q 2494 4147 2053 4147 
L 1259 4147 
z
M 628 4666 
L 2053 4666 
Q 2838 4666 3239 4311 
Q 3641 3956 3641 3272 
Q 3641 2581 3239 2228 
Q 2838 1875 2053 1875 
L 1259 1875 
L 1259 0 
L 628 0 
L 628 4666 
z
" transform="scale(0.015625)"/>
     </defs>
     <use xlink:href="#DejaVuSans-50"/>
     <use xlink:href="#DejaVuSans-72" transform="translate(58.552734 0)"/>
     <use xlink:href="#DejaVuSans-65" transform="translate(97.416016 0)"/>
    </g>
   </g>
  </g>
  <g id="axes_2">
   <g id="patch_7">
    <path d="M 101.722636 137.52 
L 151.084103 137.52 
L 151.084103 54.96 
L 101.722636 54.96 
z
"/>
   </g>
   <g id="patch_8">
    <path d="M 101.722636 130.014545 
L 118.176458 130.014545 
L 118.176458 128.601565 
L 101.722636 128.601565 
z
" clip-path="url(#p120abffaed)" style="fill: #c0a54b"/>
   </g>
   <g id="patch_9">
    <path d="M 118.176458 130.014545 
L 134.630281 130.014545 
L 134.630281 130.360681 
L 118.176458 130.360681 
z
" clip-path="url(#p120abffaed)" style="fill: #df2020"/>
   </g>
   <g id="patch_10">
    <path d="M 134.630281 130.014545 
L 151.084103 130.014545 
L 151.084103 131.395743 
L 134.630281 131.395743 
z
" clip-path="url(#p120abffaed)" style="fill: #df20df"/>
   </g>
   <g id="matplotlib.axis_3">
    <g id="xtick_4"/>
    <g id="xtick_5"/>
    <g id="xtick_6"/>
   </g>
   <g id="matplotlib.axis_4">
    <g id="ytick_4">
     <g id="line2d_7">
      <defs>
       <path id="mdd1f725aea" d="M 0 0 
L -3.5 0 
"/>
      </defs>
      <g>
       <use xlink:href="#mdd1f725aea" x="101.722636" y="130.014545" style="fill: #ffffff"/>
      </g>
     </g>
    </g>
    <g id="ytick_5">
     <g id="line2d_8">
      <g>
       <use xlink:href="#mdd1f725aea" x="101.722636" y="99.992727" style="fill: #ffffff"/>
      </g>
     </g>
    </g>
    <g id="ytick_6">
     <g id="line2d_9">
      <g>
       <use xlink:href="#mdd1f725aea" x="101.722636" y="69.970909" style="fill: #ffffff"/>
      </g>
     </g>
    </g>
   </g>
   <g id="line2d_10">
    <path d="M 109.949547 130.46499 
L 109.949547 125.787312 
" clip-path="url(#p120abffaed)" style="fill: none; stroke: #424242; stroke-width: 2.25; stroke-linecap: square"/>
   </g>
   <g id="line2d_11">
    <path d="M 126.40337 131.343845 
L 126.40337 129.155836 
" clip-path="url(#p120abffaed)" style="fill: none; stroke: #424242; stroke-width: 2.25; stroke-linecap: square"/>
   </g>
   <g id="line2d_12">
    <path d="M 142.857192 131.501323 
L 142.857192 131.276486 
" clip-path="url(#p120abffaed)" style="fill: none; stroke: #424242; stroke-width: 2.25; stroke-linecap: square"/>
   </g>
   <g id="text_6">
    <!-- SLR -->
    <g style="fill: #ffffff" transform="translate(115.08212 48.96) scale(0.12 -0.12)">
     <defs>
      <path id="DejaVuSans-53" d="M 3425 4513 
L 3425 3897 
Q 3066 4069 2747 4153 
Q 2428 4238 2131 4238 
Q 1616 4238 1336 4038 
Q 1056 3838 1056 3469 
Q 1056 3159 1242 3001 
Q 1428 2844 1947 2747 
L 2328 2669 
Q 3034 2534 3370 2195 
Q 3706 1856 3706 1288 
Q 3706 609 3251 259 
Q 2797 -91 1919 -91 
Q 1588 -91 1214 -16 
Q 841 59 441 206 
L 441 856 
Q 825 641 1194 531 
Q 1563 422 1919 422 
Q 2459 422 2753 634 
Q 3047 847 3047 1241 
Q 3047 1584 2836 1778 
Q 2625 1972 2144 2069 
L 1759 2144 
Q 1053 2284 737 2584 
Q 422 2884 422 3419 
Q 422 4038 858 4394 
Q 1294 4750 2059 4750 
Q 2388 4750 2728 4690 
Q 3069 4631 3425 4513 
z
" transform="scale(0.015625)"/>
      <path id="DejaVuSans-4c" d="M 628 4666 
L 1259 4666 
L 1259 531 
L 3531 531 
L 3531 0 
L 628 0 
L 628 4666 
z
" transform="scale(0.015625)"/>
      <path id="DejaVuSans-52" d="M 2841 2188 
Q 3044 2119 3236 1894 
Q 3428 1669 3622 1275 
L 4263 0 
L 3584 0 
L 2988 1197 
Q 2756 1666 2539 1819 
Q 2322 1972 1947 1972 
L 1259 1972 
L 1259 0 
L 628 0 
L 628 4666 
L 2053 4666 
Q 2853 4666 3247 4331 
Q 3641 3997 3641 3322 
Q 3641 2881 3436 2590 
Q 3231 2300 2841 2188 
z
M 1259 4147 
L 1259 2491 
L 2053 2491 
Q 2509 2491 2742 2702 
Q 2975 2913 2975 3322 
Q 2975 3731 2742 3939 
Q 2509 4147 2053 4147 
L 1259 4147 
z
" transform="scale(0.015625)"/>
     </defs>
     <use xlink:href="#DejaVuSans-53"/>
     <use xlink:href="#DejaVuSans-4c" transform="translate(63.476562 0)"/>
     <use xlink:href="#DejaVuSans-52" transform="translate(119.189453 0)"/>
    </g>
   </g>
  </g>
  <g id="axes_3">
   <g id="patch_11">
    <path d="M 162.842147 137.52 
L 212.203614 137.52 
L 212.203614 54.96 
L 162.842147 54.96 
z
"/>
   </g>
   <g id="patch_12">
    <path d="M 162.842147 130.014545 
L 179.295969 130.014545 
L 179.295969 121.223271 
L 162.842147 121.223271 
z
" clip-path="url(#p881c815a32)" style="fill: #c0a54b"/>
   </g>
   <g id="patch_13">
    <path d="M 179.295969 130.014545 
L 195.749792 130.014545 
L 195.749792 125.560999 
L 179.295969 125.560999 
z
" clip-path="url(#p881c815a32)" style="fill: #df2020"/>
   </g>
   <g id="patch_14">
    <path d="M 195.749792 130.014545 
L 212.203614 130.014545 
L 212.203614 127.505528 
L 195.749792 127.505528 
z
" clip-path="url(#p881c815a32)" style="fill: #df20df"/>
   </g>
   <g id="matplotlib.axis_5">
    <g id="xtick_7"/>
    <g id="xtick_8"/>
    <g id="xtick_9"/>
   </g>
   <g id="matplotlib.axis_6">
    <g id="ytick_7">
     <g id="line2d_13">
      <g>
       <use xlink:href="#mdd1f725aea" x="162.842147" y="130.014545" style="fill: #ffffff"/>
      </g>
     </g>
    </g>
    <g id="ytick_8">
     <g id="line2d_14">
      <g>
       <use xlink:href="#mdd1f725aea" x="162.842147" y="99.992727" style="fill: #ffffff"/>
      </g>
     </g>
    </g>
    <g id="ytick_9">
     <g id="line2d_15">
      <g>
       <use xlink:href="#mdd1f725aea" x="162.842147" y="69.970909" style="fill: #ffffff"/>
      </g>
     </g>
    </g>
   </g>
   <g id="line2d_16">
    <path d="M 171.069058 127.719232 
L 171.069058 113.682888 
" clip-path="url(#p881c815a32)" style="fill: none; stroke: #424242; stroke-width: 2.25; stroke-linecap: square"/>
   </g>
   <g id="line2d_17">
    <path d="M 187.52288 128.804976 
L 187.52288 121.56351 
" clip-path="url(#p881c815a32)" style="fill: none; stroke: #424242; stroke-width: 2.25; stroke-linecap: square"/>
   </g>
   <g id="line2d_18">
    <path d="M 203.976703 130.102664 
L 203.976703 124.728805 
" clip-path="url(#p881c815a32)" style="fill: none; stroke: #424242; stroke-width: 2.25; stroke-linecap: square"/>
   </g>
   <g id="text_7">
    <!-- * -->
    <g style="fill: #ffffff" transform="translate(168.069058 109.913384) scale(0.12 -0.12)">
     <defs>
      <path id="DejaVuSans-2a" d="M 3009 3897 
L 1888 3291 
L 3009 2681 
L 2828 2375 
L 1778 3009 
L 1778 1831 
L 1422 1831 
L 1422 3009 
L 372 2375 
L 191 2681 
L 1313 3291 
L 191 3897 
L 372 4206 
L 1422 3572 
L 1422 4750 
L 1778 4750 
L 1778 3572 
L 2828 4206 
L 3009 3897 
z
" transform="scale(0.015625)"/>
     </defs>
     <use xlink:href="#DejaVuSans-2a"/>
    </g>
   </g>
   <g id="text_8">
    <!-- * -->
    <g style="fill: #ffffff" transform="translate(184.52288 118.74734) scale(0.12 -0.12)">
     <use xlink:href="#DejaVuSans-2a"/>
    </g>
   </g>
   <g id="text_9">
    <!-- LLR -->
    <g style="fill: #ffffff" transform="translate(176.667568 48.96) scale(0.12 -0.12)">
     <use xlink:href="#DejaVuSans-4c"/>
     <use xlink:href="#DejaVuSans-4c" transform="translate(55.712891 0)"/>
     <use xlink:href="#DejaVuSans-52" transform="translate(111.425781 0)"/>
    </g>
   </g>
  </g>
  <g id="axes_4">
   <g id="patch_15">
    <path d="M 223.961658 137.52 
L 273.323125 137.52 
L 273.323125 54.96 
L 223.961658 54.96 
z
"/>
   </g>
   <g id="patch_16">
    <path d="M 223.961658 130.014545 
L 240.41548 130.014545 
L 240.41548 82.256194 
L 223.961658 82.256194 
z
" clip-path="url(#p63314acc78)" style="fill: #c0a54b"/>
   </g>
   <g id="patch_17">
    <path d="M 240.41548 130.014545 
L 256.869303 130.014545 
L 256.869303 122.807861 
L 240.41548 122.807861 
z
" clip-path="url(#p63314acc78)" style="fill: #df2020"/>
   </g>
   <g id="patch_18">
    <path d="M 256.869303 130.014545 
L 273.323125 130.014545 
L 273.323125 129.289809 
L 256.869303 129.289809 
z
" clip-path="url(#p63314acc78)" style="fill: #df20df"/>
   </g>
   <g id="matplotlib.axis_7">
    <g id="xtick_10"/>
    <g id="xtick_11"/>
    <g id="xtick_12"/>
   </g>
   <g id="matplotlib.axis_8">
    <g id="ytick_10">
     <g id="line2d_19">
      <g>
       <use xlink:href="#mdd1f725aea" x="223.961658" y="130.014545" style="fill: #ffffff"/>
      </g>
     </g>
    </g>
    <g id="ytick_11">
     <g id="line2d_20">
      <g>
       <use xlink:href="#mdd1f725aea" x="223.961658" y="99.992727" style="fill: #ffffff"/>
      </g>
     </g>
    </g>
    <g id="ytick_12">
     <g id="line2d_21">
      <g>
       <use xlink:href="#mdd1f725aea" x="223.961658" y="69.970909" style="fill: #ffffff"/>
      </g>
     </g>
    </g>
   </g>
   <g id="line2d_22">
    <path d="M 232.188569 94.226393 
L 232.188569 71.842608 
" clip-path="url(#p63314acc78)" style="fill: none; stroke: #424242; stroke-width: 2.25; stroke-linecap: square"/>
   </g>
   <g id="line2d_23">
    <path d="M 248.642391 128.074541 
L 248.642391 115.332547 
" clip-path="url(#p63314acc78)" style="fill: none; stroke: #424242; stroke-width: 2.25; stroke-linecap: square"/>
   </g>
   <g id="line2d_24">
    <path d="M 265.096214 130.59036 
L 265.096214 127.976791 
" clip-path="url(#p63314acc78)" style="fill: none; stroke: #424242; stroke-width: 2.25; stroke-linecap: square"/>
   </g>
   <g id="text_10">
    <!-- *** -->
    <g style="fill: #ffffff" transform="translate(223.188569 65.634083) scale(0.12 -0.12)">
     <use xlink:href="#DejaVuSans-2a"/>
     <use xlink:href="#DejaVuSans-2a" transform="translate(50 0)"/>
     <use xlink:href="#DejaVuSans-2a" transform="translate(100 0)"/>
    </g>
   </g>
   <g id="text_11">
    <!-- * -->
    <g style="fill: #ffffff" transform="translate(245.642391 112.397124) scale(0.12 -0.12)">
     <use xlink:href="#DejaVuSans-2a"/>
    </g>
   </g>
   <g id="text_12">
    <!-- Vol -->
    <g style="fill: #ffffff" transform="translate(239.664891 48.96) scale(0.12 -0.12)">
     <defs>
      <path id="DejaVuSans-56" d="M 1831 0 
L 50 4666 
L 709 4666 
L 2188 738 
L 3669 4666 
L 4325 4666 
L 2547 0 
L 1831 0 
z
" transform="scale(0.015625)"/>
      <path id="DejaVuSans-6c" d="M 603 4863 
L 1178 4863 
L 1178 0 
L 603 0 
L 603 4863 
z
" transform="scale(0.015625)"/>
     </defs>
     <use xlink:href="#DejaVuSans-56"/>
     <use xlink:href="#DejaVuSans-6f" transform="translate(60.658203 0)"/>
     <use xlink:href="#DejaVuSans-6c" transform="translate(121.839844 0)"/>
    </g>
   </g>
  </g>
  <g id="text_13">
   <!-- Component Bayes factor -->
   <g style="fill: #ffffff" transform="translate(65.734375 16.318125) scale(0.12 -0.12)">
    <defs>
     <path id="DejaVuSans-43" d="M 4122 4306 
L 4122 3641 
Q 3803 3938 3442 4084 
Q 3081 4231 2675 4231 
Q 1875 4231 1450 3742 
Q 1025 3253 1025 2328 
Q 1025 1406 1450 917 
Q 1875 428 2675 428 
Q 3081 428 3442 575 
Q 3803 722 4122 1019 
L 4122 359 
Q 3791 134 3420 21 
Q 3050 -91 2638 -91 
Q 1578 -91 968 557 
Q 359 1206 359 2328 
Q 359 3453 968 4101 
Q 1578 4750 2638 4750 
Q 3056 4750 3426 4639 
Q 3797 4528 4122 4306 
z
" transform="scale(0.015625)"/>
     <path id="DejaVuSans-6d" d="M 3328 2828 
Q 3544 3216 3844 3400 
Q 4144 3584 4550 3584 
Q 5097 3584 5394 3201 
Q 5691 2819 5691 2113 
L 5691 0 
L 5113 0 
L 5113 2094 
Q 5113 2597 4934 2840 
Q 4756 3084 4391 3084 
Q 3944 3084 3684 2787 
Q 3425 2491 3425 1978 
L 3425 0 
L 2847 0 
L 2847 2094 
Q 2847 2600 2669 2842 
Q 2491 3084 2119 3084 
Q 1678 3084 1418 2786 
Q 1159 2488 1159 1978 
L 1159 0 
L 581 0 
L 581 3500 
L 1159 3500 
L 1159 2956 
Q 1356 3278 1631 3431 
Q 1906 3584 2284 3584 
Q 2666 3584 2933 3390 
Q 3200 3197 3328 2828 
z
" transform="scale(0.015625)"/>
     <path id="DejaVuSans-70" d="M 1159 525 
L 1159 -1331 
L 581 -1331 
L 581 3500 
L 1159 3500 
L 1159 2969 
Q 1341 3281 1617 3432 
Q 1894 3584 2278 3584 
Q 2916 3584 3314 3078 
Q 3713 2572 3713 1747 
Q 3713 922 3314 415 
Q 2916 -91 2278 -91 
Q 1894 -91 1617 61 
Q 1341 213 1159 525 
z
M 3116 1747 
Q 3116 2381 2855 2742 
Q 2594 3103 2138 3103 
Q 1681 3103 1420 2742 
Q 1159 2381 1159 1747 
Q 1159 1113 1420 752 
Q 1681 391 2138 391 
Q 2594 391 2855 752 
Q 3116 1113 3116 1747 
z
" transform="scale(0.015625)"/>
     <path id="DejaVuSans-6e" d="M 3513 2113 
L 3513 0 
L 2938 0 
L 2938 2094 
Q 2938 2591 2744 2837 
Q 2550 3084 2163 3084 
Q 1697 3084 1428 2787 
Q 1159 2491 1159 1978 
L 1159 0 
L 581 0 
L 581 3500 
L 1159 3500 
L 1159 2956 
Q 1366 3272 1645 3428 
Q 1925 3584 2291 3584 
Q 2894 3584 3203 3211 
Q 3513 2838 3513 2113 
z
" transform="scale(0.015625)"/>
     <path id="DejaVuSans-66" d="M 2375 4863 
L 2375 4384 
L 1825 4384 
Q 1516 4384 1395 4259 
Q 1275 4134 1275 3809 
L 1275 3500 
L 2222 3500 
L 2222 3053 
L 1275 3053 
L 1275 0 
L 697 0 
L 697 3053 
L 147 3053 
L 147 3500 
L 697 3500 
L 697 3744 
Q 697 4328 969 4595 
Q 1241 4863 1831 4863 
L 2375 4863 
z
" transform="scale(0.015625)"/>
    </defs>
    <use xlink:href="#DejaVuSans-43"/>
    <use xlink:href="#DejaVuSans-6f" transform="translate(69.824219 0)"/>
    <use xlink:href="#DejaVuSans-6d" transform="translate(131.005859 0)"/>
    <use xlink:href="#DejaVuSans-70" transform="translate(228.417969 0)"/>
    <use xlink:href="#DejaVuSans-6f" transform="translate(291.894531 0)"/>
    <use xlink:href="#DejaVuSans-6e" transform="translate(353.076172 0)"/>
    <use xlink:href="#DejaVuSans-65" transform="translate(416.455078 0)"/>
    <use xlink:href="#DejaVuSans-6e" transform="translate(477.978516 0)"/>
    <use xlink:href="#DejaVuSans-74" transform="translate(541.357422 0)"/>
    <use xlink:href="#DejaVuSans-20" transform="translate(580.566406 0)"/>
    <use xlink:href="#DejaVuSans-42" transform="translate(612.353516 0)"/>
    <use xlink:href="#DejaVuSans-61" transform="translate(680.957031 0)"/>
    <use xlink:href="#DejaVuSans-79" transform="translate(742.236328 0)"/>
    <use xlink:href="#DejaVuSans-65" transform="translate(801.416016 0)"/>
    <use xlink:href="#DejaVuSans-73" transform="translate(862.939453 0)"/>
    <use xlink:href="#DejaVuSans-20" transform="translate(915.039062 0)"/>
    <use xlink:href="#DejaVuSans-66" transform="translate(946.826172 0)"/>
    <use xlink:href="#DejaVuSans-61" transform="translate(982.03125 0)"/>
    <use xlink:href="#DejaVuSans-63" transform="translate(1043.310547 0)"/>
    <use xlink:href="#DejaVuSans-74" transform="translate(1098.291016 0)"/>
    <use xlink:href="#DejaVuSans-6f" transform="translate(1137.5 0)"/>
    <use xlink:href="#DejaVuSans-72" transform="translate(1198.681641 0)"/>
   </g>
  </g>
  <g id="legend_1">
   <g id="patch_19">
    <path d="M 34.375469 151.640313 
L 54.375469 151.640313 
L 54.375469 144.640313 
L 34.375469 144.640313 
z
" style="fill: #ffcc33; stroke: #000000; stroke-linejoin: miter"/>
   </g>
   <g id="text_14">
    <!-- finger -->
    <g style="fill: #ffffff" transform="translate(62.375469 151.640313) scale(0.1 -0.1)">
     <defs>
      <path id="DejaVuSans-69" d="M 603 3500 
L 1178 3500 
L 1178 0 
L 603 0 
L 603 3500 
z
M 603 4863 
L 1178 4863 
L 1178 4134 
L 603 4134 
L 603 4863 
z
" transform="scale(0.015625)"/>
      <path id="DejaVuSans-67" d="M 2906 1791 
Q 2906 2416 2648 2759 
Q 2391 3103 1925 3103 
Q 1463 3103 1205 2759 
Q 947 2416 947 1791 
Q 947 1169 1205 825 
Q 1463 481 1925 481 
Q 2391 481 2648 825 
Q 2906 1169 2906 1791 
z
M 3481 434 
Q 3481 -459 3084 -895 
Q 2688 -1331 1869 -1331 
Q 1566 -1331 1297 -1286 
Q 1028 -1241 775 -1147 
L 775 -588 
Q 1028 -725 1275 -790 
Q 1522 -856 1778 -856 
Q 2344 -856 2625 -561 
Q 2906 -266 2906 331 
L 2906 616 
Q 2728 306 2450 153 
Q 2172 0 1784 0 
Q 1141 0 747 490 
Q 353 981 353 1791 
Q 353 2603 747 3093 
Q 1141 3584 1784 3584 
Q 2172 3584 2450 3431 
Q 2728 3278 2906 2969 
L 2906 3500 
L 3481 3500 
L 3481 434 
z
" transform="scale(0.015625)"/>
     </defs>
     <use xlink:href="#DejaVuSans-66"/>
     <use xlink:href="#DejaVuSans-69" transform="translate(35.205078 0)"/>
     <use xlink:href="#DejaVuSans-6e" transform="translate(62.988281 0)"/>
     <use xlink:href="#DejaVuSans-67" transform="translate(126.367188 0)"/>
     <use xlink:href="#DejaVuSans-65" transform="translate(189.84375 0)"/>
     <use xlink:href="#DejaVuSans-72" transform="translate(251.367188 0)"/>
    </g>
   </g>
   <g id="patch_20">
    <path d="M 111.623906 151.640313 
L 131.623906 151.640313 
L 131.623906 144.640313 
L 111.623906 144.640313 
z
" style="fill: #ff0000; stroke: #000000; stroke-linejoin: miter"/>
   </g>
   <g id="text_15">
    <!-- cue -->
    <g style="fill: #ffffff" transform="translate(139.623906 151.640313) scale(0.1 -0.1)">
     <defs>
      <path id="DejaVuSans-75" d="M 544 1381 
L 544 3500 
L 1119 3500 
L 1119 1403 
Q 1119 906 1312 657 
Q 1506 409 1894 409 
Q 2359 409 2629 706 
Q 2900 1003 2900 1516 
L 2900 3500 
L 3475 3500 
L 3475 0 
L 2900 0 
L 2900 538 
Q 2691 219 2414 64 
Q 2138 -91 1772 -91 
Q 1169 -91 856 284 
Q 544 659 544 1381 
z
M 1991 3584 
L 1991 3584 
z
" transform="scale(0.015625)"/>
     </defs>
     <use xlink:href="#DejaVuSans-63"/>
     <use xlink:href="#DejaVuSans-75" transform="translate(54.980469 0)"/>
     <use xlink:href="#DejaVuSans-65" transform="translate(118.359375 0)"/>
    </g>
   </g>
   <g id="patch_21">
    <path d="M 177.612969 151.640313 
L 197.612969 151.640313 
L 197.612969 144.640313 
L 177.612969 144.640313 
z
" style="fill: #ff00ff; stroke: #000000; stroke-linejoin: miter"/>
   </g>
   <g id="text_16">
    <!-- surprise -->
    <g style="fill: #ffffff" transform="translate(205.612969 151.640313) scale(0.1 -0.1)">
     <use xlink:href="#DejaVuSans-73"/>
     <use xlink:href="#DejaVuSans-75" transform="translate(52.099609 0)"/>
     <use xlink:href="#DejaVuSans-72" transform="translate(115.478516 0)"/>
     <use xlink:href="#DejaVuSans-70" transform="translate(156.591797 0)"/>
     <use xlink:href="#DejaVuSans-72" transform="translate(220.068359 0)"/>
     <use xlink:href="#DejaVuSans-69" transform="translate(261.181641 0)"/>
     <use xlink:href="#DejaVuSans-73" transform="translate(288.964844 0)"/>
     <use xlink:href="#DejaVuSans-65" transform="translate(341.064453 0)"/>
    </g>
   </g>
  </g>
 </g>
 <defs>
  <clipPath id="p2c97d6ca59">
   <rect x="40.603125" y="54.96" width="49.361467" height="82.56"/>
  </clipPath>
  <clipPath id="p120abffaed">
   <rect x="101.722636" y="54.96" width="49.361467" height="82.56"/>
  </clipPath>
  <clipPath id="p881c815a32">
   <rect x="162.842147" y="54.96" width="49.361467" height="82.56"/>
  </clipPath>
  <clipPath id="p63314acc78">
   <rect x="223.961658" y="54.96" width="49.361467" height="82.56"/>
  </clipPath>
 </defs>
</svg>
