<?xml version="1.0" encoding="utf-8" standalone="no"?>
<!DOCTYPE svg PUBLIC "-//W3C//DTD SVG 1.1//EN"
  "http://www.w3.org/Graphics/SVG/1.1/DTD/svg11.dtd">
<svg xmlns:xlink="http://www.w3.org/1999/xlink" width="576pt" height="216pt" viewBox="0 0 576 216" xmlns="http://www.w3.org/2000/svg" version="1.1">
 <metadata>
  <rdf:RDF xmlns:dc="http://purl.org/dc/elements/1.1/" xmlns:cc="http://creativecommons.org/ns#" xmlns:rdf="http://www.w3.org/1999/02/22-rdf-syntax-ns#">
   <cc:Work>
    <dc:type rdf:resource="http://purl.org/dc/dcmitype/StillImage"/>
    <dc:date>2025-11-27T18:13:53.701662</dc:date>
    <dc:format>image/svg+xml</dc:format>
    <dc:creator>
     <cc:Agent>
      <dc:title>Matplotlib v3.10.1, https://matplotlib.org/</dc:title>
     </cc:Agent>
    </dc:creator>
   </cc:Work>
  </rdf:RDF>
 </metadata>
 <defs>
  <style type="text/css">*{stroke-linejoin: round; stroke-linecap: butt}</style>
 </defs>
 <g id="figure_1">
  <g id="patch_1">
   <path d="M 0 216 
L 576 216 
L 576 0 
L 0 0 
z
" style="fill: #ffffff"/>
  </g>
  <g id="axes_1">
   <g id="patch_2">
    <path d="M 47.961178 178.707405 
L 98.957723 178.707405 
L 98.957723 35.732595 
L 47.961178 35.732595 
z
" style="fill: #ffffff"/>
   </g>
   <g id="patch_3">
    <path d="M 47.961178 166.792837 
L 98.957723 166.792837 
L 98.957723 166.792837 
L 47.961178 166.792837 
z
" clip-path="url(#p8b988b24a2)" style="fill: #d3d3d3"/>
   </g>
   <g id="PathCollection_1">
    <defs>
     <path id="m6daa90ff88" d="M 0 3 
C 0.795609 3 1.55874 2.683901 2.12132 2.12132 
C 2.683901 1.55874 3 0.795609 3 0 
C 3 -0.795609 2.683901 -1.55874 2.12132 -2.12132 
C 1.55874 -2.683901 0.795609 -3 0 -3 
C -0.795609 -3 -1.55874 -2.683901 -2.12132 -2.12132 
C -2.683901 -1.55874 -3 -0.795609 -3 0 
C -3 0.795609 -2.683901 1.55874 -2.12132 2.12132 
C -1.55874 2.683901 -0.795609 3 0 3 
z
" style="stroke: #000000"/>
    </defs>
    <g clip-path="url(#p8b988b24a2)">
     <use xlink:href="#m6daa90ff88" x="54.151436" y="166.758165" style="stroke: #000000"/>
     <use xlink:href="#m6daa90ff88" x="58.258272" y="166.792837" style="stroke: #000000"/>
     <use xlink:href="#m6daa90ff88" x="55.559886" y="166.792837" style="stroke: #000000"/>
     <use xlink:href="#m6daa90ff88" x="56.854391" y="166.792837" style="stroke: #000000"/>
     <use xlink:href="#m6daa90ff88" x="56.199616" y="166.792837" style="stroke: #000000"/>
     <use xlink:href="#m6daa90ff88" x="55.023652" y="166.792837" style="stroke: #000000"/>
     <use xlink:href="#m6daa90ff88" x="55.902004" y="166.79268" style="stroke: #000000"/>
     <use xlink:href="#m6daa90ff88" x="58.751952" y="166.792837" style="stroke: #000000"/>
     <use xlink:href="#m6daa90ff88" x="55.399974" y="166.792837" style="stroke: #000000"/>
     <use xlink:href="#m6daa90ff88" x="55.155226" y="166.790562" style="stroke: #000000"/>
     <use xlink:href="#m6daa90ff88" x="53.96602" y="166.792837" style="stroke: #000000"/>
     <use xlink:href="#m6daa90ff88" x="56.238671" y="166.792837" style="stroke: #000000"/>
     <use xlink:href="#m6daa90ff88" x="55.959202" y="166.792837" style="stroke: #000000"/>
     <use xlink:href="#m6daa90ff88" x="53.79462" y="166.792837" style="stroke: #000000"/>
    </g>
   </g>
   <g id="matplotlib.axis_1">
    <g id="xtick_1">
     <g id="line2d_1">
      <defs>
       <path id="m81b8071170" d="M 0 0 
L 0 3.5 
" style="stroke: #000000; stroke-width: 0.8"/>
      </defs>
      <g>
       <use xlink:href="#m81b8071170" x="50.067429" y="178.707405" style="stroke: #000000; stroke-width: 0.8"/>
      </g>
     </g>
     <g id="text_1">
      <!-- 0.00 -->
      <g transform="translate(38.934616 193.305843) scale(0.1 -0.1)">
       <defs>
        <path id="DejaVuSans-30" d="M 2034 4250 
Q 1547 4250 1301 3770 
Q 1056 3291 1056 2328 
Q 1056 1369 1301 889 
Q 1547 409 2034 409 
Q 2525 409 2770 889 
Q 3016 1369 3016 2328 
Q 3016 3291 2770 3770 
Q 2525 4250 2034 4250 
z
M 2034 4750 
Q 2819 4750 3233 4129 
Q 3647 3509 3647 2328 
Q 3647 1150 3233 529 
Q 2819 -91 2034 -91 
Q 1250 -91 836 529 
Q 422 1150 422 2328 
Q 422 3509 836 4129 
Q 1250 4750 2034 4750 
z
" transform="scale(0.015625)"/>
        <path id="DejaVuSans-2e" d="M 684 794 
L 1344 794 
L 1344 0 
L 684 0 
L 684 794 
z
" transform="scale(0.015625)"/>
       </defs>
       <use xlink:href="#DejaVuSans-30"/>
       <use xlink:href="#DejaVuSans-2e" transform="translate(63.623047 0)"/>
       <use xlink:href="#DejaVuSans-30" transform="translate(95.410156 0)"/>
       <use xlink:href="#DejaVuSans-30" transform="translate(159.033203 0)"/>
      </g>
     </g>
    </g>
    <g id="xtick_2">
     <g id="line2d_2">
      <g>
       <use xlink:href="#m81b8071170" x="98.957723" y="178.707405" style="stroke: #000000; stroke-width: 0.8"/>
      </g>
     </g>
     <g id="text_2">
      <!-- 0.15 -->
      <g transform="translate(87.82491 193.305843) scale(0.1 -0.1)">
       <defs>
        <path id="DejaVuSans-31" d="M 794 531 
L 1825 531 
L 1825 4091 
L 703 3866 
L 703 4441 
L 1819 4666 
L 2450 4666 
L 2450 531 
L 3481 531 
L 3481 0 
L 794 0 
L 794 531 
z
" transform="scale(0.015625)"/>
        <path id="DejaVuSans-35" d="M 691 4666 
L 3169 4666 
L 3169 4134 
L 1269 4134 
L 1269 2991 
Q 1406 3038 1543 3061 
Q 1681 3084 1819 3084 
Q 2600 3084 3056 2656 
Q 3513 2228 3513 1497 
Q 3513 744 3044 326 
Q 2575 -91 1722 -91 
Q 1428 -91 1123 -41 
Q 819 9 494 109 
L 494 744 
Q 775 591 1075 516 
Q 1375 441 1709 441 
Q 2250 441 2565 725 
Q 2881 1009 2881 1497 
Q 2881 1984 2565 2268 
Q 2250 2553 1709 2553 
Q 1456 2553 1204 2497 
Q 953 2441 691 2322 
L 691 4666 
z
" transform="scale(0.015625)"/>
       </defs>
       <use xlink:href="#DejaVuSans-30"/>
       <use xlink:href="#DejaVuSans-2e" transform="translate(63.623047 0)"/>
       <use xlink:href="#DejaVuSans-31" transform="translate(95.410156 0)"/>
       <use xlink:href="#DejaVuSans-35" transform="translate(159.033203 0)"/>
      </g>
     </g>
    </g>
   </g>
   <g id="matplotlib.axis_2">
    <g id="ytick_1">
     <g id="line2d_3">
      <defs>
       <path id="m289aec0f6f" d="M 0 0 
L -3.5 0 
" style="stroke: #000000; stroke-width: 0.8"/>
      </defs>
      <g>
       <use xlink:href="#m289aec0f6f" x="47.961178" y="166.792837" style="stroke: #000000; stroke-width: 0.8"/>
      </g>
     </g>
     <g id="text_3">
      <!-- −1.0 -->
      <g transform="translate(16.678365 170.592056) scale(0.1 -0.1)">
       <defs>
        <path id="DejaVuSans-2212" d="M 678 2272 
L 4684 2272 
L 4684 1741 
L 678 1741 
L 678 2272 
z
" transform="scale(0.015625)"/>
       </defs>
       <use xlink:href="#DejaVuSans-2212"/>
       <use xlink:href="#DejaVuSans-31" transform="translate(83.789062 0)"/>
       <use xlink:href="#DejaVuSans-2e" transform="translate(147.412109 0)"/>
       <use xlink:href="#DejaVuSans-30" transform="translate(179.199219 0)"/>
      </g>
     </g>
    </g>
    <g id="ytick_2">
     <g id="line2d_4">
      <g>
       <use xlink:href="#m289aec0f6f" x="47.961178" y="137.006419" style="stroke: #000000; stroke-width: 0.8"/>
      </g>
     </g>
     <g id="text_4">
      <!-- −0.5 -->
      <g transform="translate(16.678365 140.805637) scale(0.1 -0.1)">
       <use xlink:href="#DejaVuSans-2212"/>
       <use xlink:href="#DejaVuSans-30" transform="translate(83.789062 0)"/>
       <use xlink:href="#DejaVuSans-2e" transform="translate(147.412109 0)"/>
       <use xlink:href="#DejaVuSans-35" transform="translate(179.199219 0)"/>
      </g>
     </g>
    </g>
    <g id="ytick_3">
     <g id="line2d_5">
      <g>
       <use xlink:href="#m289aec0f6f" x="47.961178" y="107.22" style="stroke: #000000; stroke-width: 0.8"/>
      </g>
     </g>
     <g id="text_5">
      <!-- 0.0 -->
      <g transform="translate(25.058053 111.019219) scale(0.1 -0.1)">
       <use xlink:href="#DejaVuSans-30"/>
       <use xlink:href="#DejaVuSans-2e" transform="translate(63.623047 0)"/>
       <use xlink:href="#DejaVuSans-30" transform="translate(95.410156 0)"/>
      </g>
     </g>
    </g>
    <g id="ytick_4">
     <g id="line2d_6">
      <g>
       <use xlink:href="#m289aec0f6f" x="47.961178" y="77.433581" style="stroke: #000000; stroke-width: 0.8"/>
      </g>
     </g>
     <g id="text_6">
      <!-- 0.5 -->
      <g transform="translate(25.058053 81.2328) scale(0.1 -0.1)">
       <use xlink:href="#DejaVuSans-30"/>
       <use xlink:href="#DejaVuSans-2e" transform="translate(63.623047 0)"/>
       <use xlink:href="#DejaVuSans-35" transform="translate(95.410156 0)"/>
      </g>
     </g>
    </g>
    <g id="ytick_5">
     <g id="line2d_7">
      <g>
       <use xlink:href="#m289aec0f6f" x="47.961178" y="47.647163" style="stroke: #000000; stroke-width: 0.8"/>
      </g>
     </g>
     <g id="text_7">
      <!-- 1.0 -->
      <g transform="translate(25.058053 51.446381) scale(0.1 -0.1)">
       <use xlink:href="#DejaVuSans-31"/>
       <use xlink:href="#DejaVuSans-2e" transform="translate(63.623047 0)"/>
       <use xlink:href="#DejaVuSans-30" transform="translate(95.410156 0)"/>
      </g>
     </g>
    </g>
    <g id="text_8">
     <!-- correlation -->
     <g transform="translate(10.598678 134.046562) rotate(-90) scale(0.1 -0.1)">
      <defs>
       <path id="DejaVuSans-63" d="M 3122 3366 
L 3122 2828 
Q 2878 2963 2633 3030 
Q 2388 3097 2138 3097 
Q 1578 3097 1268 2742 
Q 959 2388 959 1747 
Q 959 1106 1268 751 
Q 1578 397 2138 397 
Q 2388 397 2633 464 
Q 2878 531 3122 666 
L 3122 134 
Q 2881 22 2623 -34 
Q 2366 -91 2075 -91 
Q 1284 -91 818 406 
Q 353 903 353 1747 
Q 353 2603 823 3093 
Q 1294 3584 2113 3584 
Q 2378 3584 2631 3529 
Q 2884 3475 3122 3366 
z
" transform="scale(0.015625)"/>
       <path id="DejaVuSans-6f" d="M 1959 3097 
Q 1497 3097 1228 2736 
Q 959 2375 959 1747 
Q 959 1119 1226 758 
Q 1494 397 1959 397 
Q 2419 397 2687 759 
Q 2956 1122 2956 1747 
Q 2956 2369 2687 2733 
Q 2419 3097 1959 3097 
z
M 1959 3584 
Q 2709 3584 3137 3096 
Q 3566 2609 3566 1747 
Q 3566 888 3137 398 
Q 2709 -91 1959 -91 
Q 1206 -91 779 398 
Q 353 888 353 1747 
Q 353 2609 779 3096 
Q 1206 3584 1959 3584 
z
" transform="scale(0.015625)"/>
       <path id="DejaVuSans-72" d="M 2631 2963 
Q 2534 3019 2420 3045 
Q 2306 3072 2169 3072 
Q 1681 3072 1420 2755 
Q 1159 2438 1159 1844 
L 1159 0 
L 581 0 
L 581 3500 
L 1159 3500 
L 1159 2956 
Q 1341 3275 1631 3429 
Q 1922 3584 2338 3584 
Q 2397 3584 2469 3576 
Q 2541 3569 2628 3553 
L 2631 2963 
z
" transform="scale(0.015625)"/>
       <path id="DejaVuSans-65" d="M 3597 1894 
L 3597 1613 
L 953 1613 
Q 991 1019 1311 708 
Q 1631 397 2203 397 
Q 2534 397 2845 478 
Q 3156 559 3463 722 
L 3463 178 
Q 3153 47 2828 -22 
Q 2503 -91 2169 -91 
Q 1331 -91 842 396 
Q 353 884 353 1716 
Q 353 2575 817 3079 
Q 1281 3584 2069 3584 
Q 2775 3584 3186 3129 
Q 3597 2675 3597 1894 
z
M 3022 2063 
Q 3016 2534 2758 2815 
Q 2500 3097 2075 3097 
Q 1594 3097 1305 2825 
Q 1016 2553 972 2059 
L 3022 2063 
z
" transform="scale(0.015625)"/>
       <path id="DejaVuSans-6c" d="M 603 4863 
L 1178 4863 
L 1178 0 
L 603 0 
L 603 4863 
z
" transform="scale(0.015625)"/>
       <path id="DejaVuSans-61" d="M 2194 1759 
Q 1497 1759 1228 1600 
Q 959 1441 959 1056 
Q 959 750 1161 570 
Q 1363 391 1709 391 
Q 2188 391 2477 730 
Q 2766 1069 2766 1631 
L 2766 1759 
L 2194 1759 
z
M 3341 1997 
L 3341 0 
L 2766 0 
L 2766 531 
Q 2569 213 2275 61 
Q 1981 -91 1556 -91 
Q 1019 -91 701 211 
Q 384 513 384 1019 
Q 384 1609 779 1909 
Q 1175 2209 1959 2209 
L 2766 2209 
L 2766 2266 
Q 2766 2663 2505 2880 
Q 2244 3097 1772 3097 
Q 1472 3097 1187 3025 
Q 903 2953 641 2809 
L 641 3341 
Q 956 3463 1253 3523 
Q 1550 3584 1831 3584 
Q 2591 3584 2966 3190 
Q 3341 2797 3341 1997 
z
" transform="scale(0.015625)"/>
       <path id="DejaVuSans-74" d="M 1172 4494 
L 1172 3500 
L 2356 3500 
L 2356 3053 
L 1172 3053 
L 1172 1153 
Q 1172 725 1289 603 
Q 1406 481 1766 481 
L 2356 481 
L 2356 0 
L 1766 0 
Q 1100 0 847 248 
Q 594 497 594 1153 
L 594 3053 
L 172 3053 
L 172 3500 
L 594 3500 
L 594 4494 
L 1172 4494 
z
" transform="scale(0.015625)"/>
       <path id="DejaVuSans-69" d="M 603 3500 
L 1178 3500 
L 1178 0 
L 603 0 
L 603 3500 
z
M 603 4863 
L 1178 4863 
L 1178 4134 
L 603 4134 
L 603 4863 
z
" transform="scale(0.015625)"/>
       <path id="DejaVuSans-6e" d="M 3513 2113 
L 3513 0 
L 2938 0 
L 2938 2094 
Q 2938 2591 2744 2837 
Q 2550 3084 2163 3084 
Q 1697 3084 1428 2787 
Q 1159 2491 1159 1978 
L 1159 0 
L 581 0 
L 581 3500 
L 1159 3500 
L 1159 2956 
Q 1366 3272 1645 3428 
Q 1925 3584 2291 3584 
Q 2894 3584 3203 3211 
Q 3513 2838 3513 2113 
z
" transform="scale(0.015625)"/>
      </defs>
      <use xlink:href="#DejaVuSans-63"/>
      <use xlink:href="#DejaVuSans-6f" transform="translate(54.980469 0)"/>
      <use xlink:href="#DejaVuSans-72" transform="translate(116.162109 0)"/>
      <use xlink:href="#DejaVuSans-72" transform="translate(155.525391 0)"/>
      <use xlink:href="#DejaVuSans-65" transform="translate(194.388672 0)"/>
      <use xlink:href="#DejaVuSans-6c" transform="translate(255.912109 0)"/>
      <use xlink:href="#DejaVuSans-61" transform="translate(283.695312 0)"/>
      <use xlink:href="#DejaVuSans-74" transform="translate(344.974609 0)"/>
      <use xlink:href="#DejaVuSans-69" transform="translate(384.183594 0)"/>
      <use xlink:href="#DejaVuSans-6f" transform="translate(411.966797 0)"/>
      <use xlink:href="#DejaVuSans-6e" transform="translate(473.148438 0)"/>
     </g>
    </g>
   </g>
   <g id="line2d_8">
    <path d="M 47.961178 166.792837 
L 98.957723 166.792837 
" clip-path="url(#p8b988b24a2)" style="fill: none; stroke-dasharray: 5.55,2.4; stroke-dashoffset: 0; stroke: #ff0000; stroke-width: 1.5"/>
   </g>
   <g id="line2d_9">
    <path d="M 47.961178 107.22 
L 98.957723 107.22 
" clip-path="url(#p8b988b24a2)" style="fill: none; stroke: #000000; stroke-width: 0.8; stroke-linecap: square"/>
   </g>
   <g id="patch_4">
    <path d="M 47.961178 166.792837 
L 47.961178 47.647163 
" style="fill: none; stroke: #000000; stroke-width: 0.8; stroke-linejoin: miter; stroke-linecap: square"/>
   </g>
   <g id="patch_5">
    <path d="M 50.067429 178.707405 
L 98.957723 178.707405 
" style="fill: none; stroke: #000000; stroke-width: 0.8; stroke-linejoin: miter; stroke-linecap: square"/>
   </g>
   <g id="text_9">
    <!-- SMA -->
    <g transform="translate(60.369138 29.732595) scale(0.12 -0.12)">
     <defs>
      <path id="DejaVuSans-53" d="M 3425 4513 
L 3425 3897 
Q 3066 4069 2747 4153 
Q 2428 4238 2131 4238 
Q 1616 4238 1336 4038 
Q 1056 3838 1056 3469 
Q 1056 3159 1242 3001 
Q 1428 2844 1947 2747 
L 2328 2669 
Q 3034 2534 3370 2195 
Q 3706 1856 3706 1288 
Q 3706 609 3251 259 
Q 2797 -91 1919 -91 
Q 1588 -91 1214 -16 
Q 841 59 441 206 
L 441 856 
Q 825 641 1194 531 
Q 1563 422 1919 422 
Q 2459 422 2753 634 
Q 3047 847 3047 1241 
Q 3047 1584 2836 1778 
Q 2625 1972 2144 2069 
L 1759 2144 
Q 1053 2284 737 2584 
Q 422 2884 422 3419 
Q 422 4038 858 4394 
Q 1294 4750 2059 4750 
Q 2388 4750 2728 4690 
Q 3069 4631 3425 4513 
z
" transform="scale(0.015625)"/>
      <path id="DejaVuSans-4d" d="M 628 4666 
L 1569 4666 
L 2759 1491 
L 3956 4666 
L 4897 4666 
L 4897 0 
L 4281 0 
L 4281 4097 
L 3078 897 
L 2444 897 
L 1241 4097 
L 1241 0 
L 628 0 
L 628 4666 
z
" transform="scale(0.015625)"/>
      <path id="DejaVuSans-41" d="M 2188 4044 
L 1331 1722 
L 3047 1722 
L 2188 4044 
z
M 1831 4666 
L 2547 4666 
L 4325 0 
L 3669 0 
L 3244 1197 
L 1141 1197 
L 716 0 
L 50 0 
L 1831 4666 
z
" transform="scale(0.015625)"/>
     </defs>
     <use xlink:href="#DejaVuSans-53"/>
     <use xlink:href="#DejaVuSans-4d" transform="translate(63.476562 0)"/>
     <use xlink:href="#DejaVuSans-41" transform="translate(149.755859 0)"/>
    </g>
   </g>
  </g>
  <g id="axes_2">
   <g id="patch_6">
    <path d="M 125.112715 178.707405 
L 176.10926 178.707405 
L 176.10926 35.732595 
L 125.112715 35.732595 
z
" style="fill: #ffffff"/>
   </g>
   <g id="patch_7">
    <path d="M 125.112715 166.792837 
L 176.10926 166.792837 
L 176.10926 166.792837 
L 125.112715 166.792837 
z
" clip-path="url(#p02c221e3f3)" style="fill: #d3d3d3"/>
   </g>
   <g id="PathCollection_2">
    <g clip-path="url(#p02c221e3f3)">
     <use xlink:href="#m6daa90ff88" x="133.175402" y="166.792837" style="stroke: #000000"/>
     <use xlink:href="#m6daa90ff88" x="133.017511" y="166.792837" style="stroke: #000000"/>
     <use xlink:href="#m6daa90ff88" x="135.212246" y="166.792836" style="stroke: #000000"/>
     <use xlink:href="#m6daa90ff88" x="133.118371" y="166.792837" style="stroke: #000000"/>
     <use xlink:href="#m6daa90ff88" x="132.553655" y="166.792837" style="stroke: #000000"/>
     <use xlink:href="#m6daa90ff88" x="132.657506" y="166.792837" style="stroke: #000000"/>
     <use xlink:href="#m6daa90ff88" x="134.46201" y="166.792837" style="stroke: #000000"/>
     <use xlink:href="#m6daa90ff88" x="135.728989" y="166.792837" style="stroke: #000000"/>
     <use xlink:href="#m6daa90ff88" x="132.976688" y="166.792837" style="stroke: #000000"/>
     <use xlink:href="#m6daa90ff88" x="133.477749" y="166.792837" style="stroke: #000000"/>
     <use xlink:href="#m6daa90ff88" x="133.002551" y="166.792837" style="stroke: #000000"/>
     <use xlink:href="#m6daa90ff88" x="135.20296" y="166.792837" style="stroke: #000000"/>
     <use xlink:href="#m6daa90ff88" x="134.47497" y="166.792837" style="stroke: #000000"/>
     <use xlink:href="#m6daa90ff88" x="132.575444" y="166.792837" style="stroke: #000000"/>
    </g>
   </g>
   <g id="matplotlib.axis_3">
    <g id="xtick_3">
     <g id="line2d_10">
      <g>
       <use xlink:href="#m81b8071170" x="127.218966" y="178.707405" style="stroke: #000000; stroke-width: 0.8"/>
      </g>
     </g>
     <g id="text_10">
      <!-- 0.00 -->
      <g transform="translate(116.086154 193.305843) scale(0.1 -0.1)">
       <use xlink:href="#DejaVuSans-30"/>
       <use xlink:href="#DejaVuSans-2e" transform="translate(63.623047 0)"/>
       <use xlink:href="#DejaVuSans-30" transform="translate(95.410156 0)"/>
       <use xlink:href="#DejaVuSans-30" transform="translate(159.033203 0)"/>
      </g>
     </g>
    </g>
    <g id="xtick_4">
     <g id="line2d_11">
      <g>
       <use xlink:href="#m81b8071170" x="176.10926" y="178.707405" style="stroke: #000000; stroke-width: 0.8"/>
      </g>
     </g>
     <g id="text_11">
      <!-- 0.15 -->
      <g transform="translate(164.976448 193.305843) scale(0.1 -0.1)">
       <use xlink:href="#DejaVuSans-30"/>
       <use xlink:href="#DejaVuSans-2e" transform="translate(63.623047 0)"/>
       <use xlink:href="#DejaVuSans-31" transform="translate(95.410156 0)"/>
       <use xlink:href="#DejaVuSans-35" transform="translate(159.033203 0)"/>
      </g>
     </g>
    </g>
   </g>
   <g id="matplotlib.axis_4">
    <g id="ytick_6"/>
    <g id="ytick_7"/>
    <g id="ytick_8"/>
    <g id="ytick_9"/>
    <g id="ytick_10"/>
   </g>
   <g id="line2d_12">
    <path d="M 125.112715 166.792837 
L 176.10926 166.792837 
" clip-path="url(#p02c221e3f3)" style="fill: none; stroke-dasharray: 5.55,2.4; stroke-dashoffset: 0; stroke: #ff0000; stroke-width: 1.5"/>
   </g>
   <g id="line2d_13">
    <path d="M 125.112715 107.22 
L 176.10926 107.22 
" clip-path="url(#p02c221e3f3)" style="fill: none; stroke: #000000; stroke-width: 0.8; stroke-linecap: square"/>
   </g>
   <g id="patch_8">
    <path d="M 127.218966 178.707405 
L 176.10926 178.707405 
" style="fill: none; stroke: #000000; stroke-width: 0.8; stroke-linejoin: miter; stroke-linecap: square"/>
   </g>
   <g id="text_12">
    <!-- PMd -->
    <g transform="translate(138.007238 29.732595) scale(0.12 -0.12)">
     <defs>
      <path id="DejaVuSans-50" d="M 1259 4147 
L 1259 2394 
L 2053 2394 
Q 2494 2394 2734 2622 
Q 2975 2850 2975 3272 
Q 2975 3691 2734 3919 
Q 2494 4147 2053 4147 
L 1259 4147 
z
M 628 4666 
L 2053 4666 
Q 2838 4666 3239 4311 
Q 3641 3956 3641 3272 
Q 3641 2581 3239 2228 
Q 2838 1875 2053 1875 
L 1259 1875 
L 1259 0 
L 628 0 
L 628 4666 
z
" transform="scale(0.015625)"/>
      <path id="DejaVuSans-64" d="M 2906 2969 
L 2906 4863 
L 3481 4863 
L 3481 0 
L 2906 0 
L 2906 525 
Q 2725 213 2448 61 
Q 2172 -91 1784 -91 
Q 1150 -91 751 415 
Q 353 922 353 1747 
Q 353 2572 751 3078 
Q 1150 3584 1784 3584 
Q 2172 3584 2448 3432 
Q 2725 3281 2906 2969 
z
M 947 1747 
Q 947 1113 1208 752 
Q 1469 391 1925 391 
Q 2381 391 2643 752 
Q 2906 1113 2906 1747 
Q 2906 2381 2643 2742 
Q 2381 3103 1925 3103 
Q 1469 3103 1208 2742 
Q 947 2381 947 1747 
z
" transform="scale(0.015625)"/>
     </defs>
     <use xlink:href="#DejaVuSans-50"/>
     <use xlink:href="#DejaVuSans-4d" transform="translate(60.302734 0)"/>
     <use xlink:href="#DejaVuSans-64" transform="translate(146.582031 0)"/>
    </g>
   </g>
  </g>
  <g id="axes_3">
   <g id="patch_9">
    <path d="M 202.264252 178.707405 
L 253.260798 178.707405 
L 253.260798 35.732595 
L 202.264252 35.732595 
z
" style="fill: #ffffff"/>
   </g>
   <g id="patch_10">
    <path d="M 202.264252 166.792837 
L 253.260798 166.792837 
L 253.260798 166.792836 
L 202.264252 166.792836 
z
" clip-path="url(#p38fce5a4a2)" style="fill: #d3d3d3"/>
   </g>
   <g id="PathCollection_3">
    <g clip-path="url(#p38fce5a4a2)">
     <use xlink:href="#m6daa90ff88" x="208.76514" y="166.792837" style="stroke: #000000"/>
     <use xlink:href="#m6daa90ff88" x="211.334375" y="166.792837" style="stroke: #000000"/>
     <use xlink:href="#m6daa90ff88" x="209.587559" y="166.792837" style="stroke: #000000"/>
     <use xlink:href="#m6daa90ff88" x="212.020632" y="166.792837" style="stroke: #000000"/>
     <use xlink:href="#m6daa90ff88" x="210.705319" y="166.792801" style="stroke: #000000"/>
     <use xlink:href="#m6daa90ff88" x="210.221009" y="166.792837" style="stroke: #000000"/>
     <use xlink:href="#m6daa90ff88" x="210.531077" y="166.792837" style="stroke: #000000"/>
     <use xlink:href="#m6daa90ff88" x="210.172066" y="166.792837" style="stroke: #000000"/>
     <use xlink:href="#m6daa90ff88" x="209.617881" y="166.792832" style="stroke: #000000"/>
     <use xlink:href="#m6daa90ff88" x="210.67494" y="166.792837" style="stroke: #000000"/>
     <use xlink:href="#m6daa90ff88" x="209.908159" y="166.792837" style="stroke: #000000"/>
     <use xlink:href="#m6daa90ff88" x="209.616436" y="166.792837" style="stroke: #000000"/>
     <use xlink:href="#m6daa90ff88" x="210.900105" y="166.792837" style="stroke: #000000"/>
     <use xlink:href="#m6daa90ff88" x="209.984915" y="166.792837" style="stroke: #000000"/>
    </g>
   </g>
   <g id="matplotlib.axis_5">
    <g id="xtick_5">
     <g id="line2d_14">
      <g>
       <use xlink:href="#m81b8071170" x="204.370504" y="178.707405" style="stroke: #000000; stroke-width: 0.8"/>
      </g>
     </g>
     <g id="text_13">
      <!-- 0.00 -->
      <g transform="translate(193.237691 193.305843) scale(0.1 -0.1)">
       <use xlink:href="#DejaVuSans-30"/>
       <use xlink:href="#DejaVuSans-2e" transform="translate(63.623047 0)"/>
       <use xlink:href="#DejaVuSans-30" transform="translate(95.410156 0)"/>
       <use xlink:href="#DejaVuSans-30" transform="translate(159.033203 0)"/>
      </g>
     </g>
    </g>
    <g id="xtick_6">
     <g id="line2d_15">
      <g>
       <use xlink:href="#m81b8071170" x="253.260798" y="178.707405" style="stroke: #000000; stroke-width: 0.8"/>
      </g>
     </g>
     <g id="text_14">
      <!-- 0.15 -->
      <g transform="translate(242.127985 193.305843) scale(0.1 -0.1)">
       <use xlink:href="#DejaVuSans-30"/>
       <use xlink:href="#DejaVuSans-2e" transform="translate(63.623047 0)"/>
       <use xlink:href="#DejaVuSans-31" transform="translate(95.410156 0)"/>
       <use xlink:href="#DejaVuSans-35" transform="translate(159.033203 0)"/>
      </g>
     </g>
    </g>
   </g>
   <g id="matplotlib.axis_6">
    <g id="ytick_11"/>
    <g id="ytick_12"/>
    <g id="ytick_13"/>
    <g id="ytick_14"/>
    <g id="ytick_15"/>
   </g>
   <g id="line2d_16">
    <path d="M 202.264252 166.792837 
L 253.260798 166.792837 
" clip-path="url(#p38fce5a4a2)" style="fill: none; stroke-dasharray: 5.55,2.4; stroke-dashoffset: 0; stroke: #ff0000; stroke-width: 1.5"/>
   </g>
   <g id="line2d_17">
    <path d="M 202.264252 107.22 
L 253.260798 107.22 
" clip-path="url(#p38fce5a4a2)" style="fill: none; stroke: #000000; stroke-width: 0.8; stroke-linecap: square"/>
   </g>
   <g id="patch_11">
    <path d="M 204.370504 178.707405 
L 253.260798 178.707405 
" style="fill: none; stroke: #000000; stroke-width: 0.8; stroke-linejoin: miter; stroke-linecap: square"/>
   </g>
   <g id="text_15">
    <!-- PMv -->
    <g transform="translate(215.416588 29.732595) scale(0.12 -0.12)">
     <defs>
      <path id="DejaVuSans-76" d="M 191 3500 
L 800 3500 
L 1894 563 
L 2988 3500 
L 3597 3500 
L 2284 0 
L 1503 0 
L 191 3500 
z
" transform="scale(0.015625)"/>
     </defs>
     <use xlink:href="#DejaVuSans-50"/>
     <use xlink:href="#DejaVuSans-4d" transform="translate(60.302734 0)"/>
     <use xlink:href="#DejaVuSans-76" transform="translate(146.582031 0)"/>
    </g>
   </g>
  </g>
  <g id="axes_4">
   <g id="patch_12">
    <path d="M 279.41579 178.707405 
L 330.412335 178.707405 
L 330.412335 35.732595 
L 279.41579 35.732595 
z
" style="fill: #ffffff"/>
   </g>
   <g id="patch_13">
    <path d="M 279.41579 166.792837 
L 330.412335 166.792837 
L 330.412335 148.031843 
L 279.41579 148.031843 
z
" clip-path="url(#p2eb147005c)" style="fill: #d3d3d3"/>
   </g>
   <g id="PathCollection_4">
    <g clip-path="url(#p2eb147005c)">
     <use xlink:href="#m6daa90ff88" x="290.275728" y="166.792835" style="stroke: #000000"/>
     <use xlink:href="#m6daa90ff88" x="302.75744" y="146.674428" style="stroke: #000000"/>
     <use xlink:href="#m6daa90ff88" x="301.92008" y="159.398254" style="stroke: #000000"/>
     <use xlink:href="#m6daa90ff88" x="292.286103" y="166.792837" style="stroke: #000000"/>
     <use xlink:href="#m6daa90ff88" x="297.61279" y="151.115977" style="stroke: #000000"/>
     <use xlink:href="#m6daa90ff88" x="290.119597" y="166.792837" style="stroke: #000000"/>
     <use xlink:href="#m6daa90ff88" x="289.119217" y="166.792836" style="stroke: #000000"/>
     <use xlink:href="#m6daa90ff88" x="296.527143" y="166.792834" style="stroke: #000000"/>
     <use xlink:href="#m6daa90ff88" x="312.651007" y="145.783153" style="stroke: #000000"/>
     <use xlink:href="#m6daa90ff88" x="291.118726" y="166.792837" style="stroke: #000000"/>
     <use xlink:href="#m6daa90ff88" x="291.33403" y="166.792821" style="stroke: #000000"/>
     <use xlink:href="#m6daa90ff88" x="300.016286" y="134.801034" style="stroke: #000000"/>
     <use xlink:href="#m6daa90ff88" x="300.5921" y="141.067724" style="stroke: #000000"/>
     <use xlink:href="#m6daa90ff88" x="290.438035" y="166.792746" style="stroke: #000000"/>
    </g>
   </g>
   <g id="matplotlib.axis_7">
    <g id="xtick_7">
     <g id="line2d_18">
      <g>
       <use xlink:href="#m81b8071170" x="281.522041" y="178.707405" style="stroke: #000000; stroke-width: 0.8"/>
      </g>
     </g>
     <g id="text_16">
      <!-- 0.00 -->
      <g transform="translate(270.389229 193.305843) scale(0.1 -0.1)">
       <use xlink:href="#DejaVuSans-30"/>
       <use xlink:href="#DejaVuSans-2e" transform="translate(63.623047 0)"/>
       <use xlink:href="#DejaVuSans-30" transform="translate(95.410156 0)"/>
       <use xlink:href="#DejaVuSans-30" transform="translate(159.033203 0)"/>
      </g>
     </g>
    </g>
    <g id="xtick_8">
     <g id="line2d_19">
      <g>
       <use xlink:href="#m81b8071170" x="330.412335" y="178.707405" style="stroke: #000000; stroke-width: 0.8"/>
      </g>
     </g>
     <g id="text_17">
      <!-- 0.15 -->
      <g transform="translate(319.279523 193.305843) scale(0.1 -0.1)">
       <use xlink:href="#DejaVuSans-30"/>
       <use xlink:href="#DejaVuSans-2e" transform="translate(63.623047 0)"/>
       <use xlink:href="#DejaVuSans-31" transform="translate(95.410156 0)"/>
       <use xlink:href="#DejaVuSans-35" transform="translate(159.033203 0)"/>
      </g>
     </g>
    </g>
   </g>
   <g id="matplotlib.axis_8">
    <g id="ytick_16"/>
    <g id="ytick_17"/>
    <g id="ytick_18"/>
    <g id="ytick_19"/>
    <g id="ytick_20"/>
   </g>
   <g id="line2d_20">
    <path d="M 279.41579 156.260918 
L 330.412335 156.260918 
" clip-path="url(#p2eb147005c)" style="fill: none; stroke-dasharray: 5.55,2.4; stroke-dashoffset: 0; stroke: #ff0000; stroke-width: 1.5"/>
   </g>
   <g id="line2d_21">
    <path d="M 279.41579 107.22 
L 330.412335 107.22 
" clip-path="url(#p2eb147005c)" style="fill: none; stroke: #000000; stroke-width: 0.8; stroke-linecap: square"/>
   </g>
   <g id="patch_14">
    <path d="M 281.522041 178.707405 
L 330.412335 178.707405 
" style="fill: none; stroke: #000000; stroke-width: 0.8; stroke-linejoin: miter; stroke-linecap: square"/>
   </g>
   <g id="text_18">
    <!-- M1 -->
    <g transform="translate(295.919688 29.732595) scale(0.12 -0.12)">
     <use xlink:href="#DejaVuSans-4d"/>
     <use xlink:href="#DejaVuSans-31" transform="translate(86.279297 0)"/>
    </g>
   </g>
  </g>
  <g id="axes_5">
   <g id="patch_15">
    <path d="M 356.567327 178.707405 
L 407.563873 178.707405 
L 407.563873 35.732595 
L 356.567327 35.732595 
z
" style="fill: #ffffff"/>
   </g>
   <g id="patch_16">
    <path d="M 356.567327 162.787969 
L 407.563873 162.787969 
L 407.563873 139.152913 
L 356.567327 139.152913 
z
" clip-path="url(#p5c00187e00)" style="fill: #d3d3d3"/>
   </g>
   <g id="PathCollection_5">
    <g clip-path="url(#p5c00187e00)">
     <use xlink:href="#m6daa90ff88" x="368.855529" y="166.792837" style="stroke: #000000"/>
     <use xlink:href="#m6daa90ff88" x="380.425733" y="143.352067" style="stroke: #000000"/>
     <use xlink:href="#m6daa90ff88" x="396.684641" y="139.302355" style="stroke: #000000"/>
     <use xlink:href="#m6daa90ff88" x="366.984013" y="166.792834" style="stroke: #000000"/>
     <use xlink:href="#m6daa90ff88" x="375.468716" y="149.612888" style="stroke: #000000"/>
     <use xlink:href="#m6daa90ff88" x="370.532177" y="166.792819" style="stroke: #000000"/>
     <use xlink:href="#m6daa90ff88" x="366.894756" y="166.792815" style="stroke: #000000"/>
     <use xlink:href="#m6daa90ff88" x="376.465728" y="153.662876" style="stroke: #000000"/>
     <use xlink:href="#m6daa90ff88" x="400.799566" y="140.341047" style="stroke: #000000"/>
     <use xlink:href="#m6daa90ff88" x="380.037416" y="163.880621" style="stroke: #000000"/>
     <use xlink:href="#m6daa90ff88" x="369.777218" y="142.963316" style="stroke: #000000"/>
     <use xlink:href="#m6daa90ff88" x="396.428306" y="126.323492" style="stroke: #000000"/>
     <use xlink:href="#m6daa90ff88" x="375.103398" y="132.055863" style="stroke: #000000"/>
     <use xlink:href="#m6daa90ff88" x="364.742102" y="166.792834" style="stroke: #000000"/>
    </g>
   </g>
   <g id="matplotlib.axis_9">
    <g id="xtick_9">
     <g id="line2d_22">
      <g>
       <use xlink:href="#m81b8071170" x="358.673579" y="178.707405" style="stroke: #000000; stroke-width: 0.8"/>
      </g>
     </g>
     <g id="text_19">
      <!-- 0.00 -->
      <g transform="translate(347.540766 193.305843) scale(0.1 -0.1)">
       <use xlink:href="#DejaVuSans-30"/>
       <use xlink:href="#DejaVuSans-2e" transform="translate(63.623047 0)"/>
       <use xlink:href="#DejaVuSans-30" transform="translate(95.410156 0)"/>
       <use xlink:href="#DejaVuSans-30" transform="translate(159.033203 0)"/>
      </g>
     </g>
    </g>
    <g id="xtick_10">
     <g id="line2d_23">
      <g>
       <use xlink:href="#m81b8071170" x="407.563873" y="178.707405" style="stroke: #000000; stroke-width: 0.8"/>
      </g>
     </g>
     <g id="text_20">
      <!-- 0.15 -->
      <g transform="translate(396.43106 193.305843) scale(0.1 -0.1)">
       <use xlink:href="#DejaVuSans-30"/>
       <use xlink:href="#DejaVuSans-2e" transform="translate(63.623047 0)"/>
       <use xlink:href="#DejaVuSans-31" transform="translate(95.410156 0)"/>
       <use xlink:href="#DejaVuSans-35" transform="translate(159.033203 0)"/>
      </g>
     </g>
    </g>
   </g>
   <g id="matplotlib.axis_10">
    <g id="ytick_21"/>
    <g id="ytick_22"/>
    <g id="ytick_23"/>
    <g id="ytick_24"/>
    <g id="ytick_25"/>
   </g>
   <g id="line2d_24">
    <path d="M 356.567327 143.76546 
L 407.563873 143.76546 
" clip-path="url(#p5c00187e00)" style="fill: none; stroke-dasharray: 5.55,2.4; stroke-dashoffset: 0; stroke: #ff0000; stroke-width: 1.5"/>
   </g>
   <g id="line2d_25">
    <path d="M 356.567327 107.22 
L 407.563873 107.22 
" clip-path="url(#p5c00187e00)" style="fill: none; stroke: #000000; stroke-width: 0.8; stroke-linecap: square"/>
   </g>
   <g id="patch_17">
    <path d="M 358.673579 178.707405 
L 407.563873 178.707405 
" style="fill: none; stroke: #000000; stroke-width: 0.8; stroke-linejoin: miter; stroke-linecap: square"/>
   </g>
   <g id="text_21">
    <!-- S1 -->
    <g transform="translate(374.439037 29.732595) scale(0.12 -0.12)">
     <use xlink:href="#DejaVuSans-53"/>
     <use xlink:href="#DejaVuSans-31" transform="translate(63.476562 0)"/>
    </g>
   </g>
  </g>
  <g id="axes_6">
   <g id="patch_18">
    <path d="M 433.718865 178.707405 
L 484.71541 178.707405 
L 484.71541 35.732595 
L 433.718865 35.732595 
z
" style="fill: #ffffff"/>
   </g>
   <g id="patch_19">
    <path d="M 433.718865 166.792837 
L 484.71541 166.792837 
L 484.71541 166.792836 
L 433.718865 166.792836 
z
" clip-path="url(#p817e9825c4)" style="fill: #d3d3d3"/>
   </g>
   <g id="PathCollection_6">
    <g clip-path="url(#p817e9825c4)">
     <use xlink:href="#m6daa90ff88" x="435.825162" y="166.792836" style="stroke: #000000"/>
     <use xlink:href="#m6daa90ff88" x="444.538962" y="166.792837" style="stroke: #000000"/>
     <use xlink:href="#m6daa90ff88" x="439.876374" y="166.792564" style="stroke: #000000"/>
     <use xlink:href="#m6daa90ff88" x="441.789579" y="166.792837" style="stroke: #000000"/>
     <use xlink:href="#m6daa90ff88" x="441.13541" y="166.792837" style="stroke: #000000"/>
     <use xlink:href="#m6daa90ff88" x="440.380912" y="166.792837" style="stroke: #000000"/>
     <use xlink:href="#m6daa90ff88" x="443.658332" y="166.792837" style="stroke: #000000"/>
     <use xlink:href="#m6daa90ff88" x="444.32402" y="166.792837" style="stroke: #000000"/>
     <use xlink:href="#m6daa90ff88" x="441.499531" y="166.792837" style="stroke: #000000"/>
     <use xlink:href="#m6daa90ff88" x="440.648215" y="166.792837" style="stroke: #000000"/>
     <use xlink:href="#m6daa90ff88" x="441.450889" y="166.792837" style="stroke: #000000"/>
     <use xlink:href="#m6daa90ff88" x="441.052804" y="166.792837" style="stroke: #000000"/>
     <use xlink:href="#m6daa90ff88" x="441.264518" y="166.792837" style="stroke: #000000"/>
     <use xlink:href="#m6daa90ff88" x="441.709655" y="166.792837" style="stroke: #000000"/>
    </g>
   </g>
   <g id="matplotlib.axis_11">
    <g id="xtick_11">
     <g id="line2d_26">
      <g>
       <use xlink:href="#m81b8071170" x="435.825116" y="178.707405" style="stroke: #000000; stroke-width: 0.8"/>
      </g>
     </g>
     <g id="text_22">
      <!-- 0.00 -->
      <g transform="translate(424.692304 193.305843) scale(0.1 -0.1)">
       <use xlink:href="#DejaVuSans-30"/>
       <use xlink:href="#DejaVuSans-2e" transform="translate(63.623047 0)"/>
       <use xlink:href="#DejaVuSans-30" transform="translate(95.410156 0)"/>
       <use xlink:href="#DejaVuSans-30" transform="translate(159.033203 0)"/>
      </g>
     </g>
    </g>
    <g id="xtick_12">
     <g id="line2d_27">
      <g>
       <use xlink:href="#m81b8071170" x="484.71541" y="178.707405" style="stroke: #000000; stroke-width: 0.8"/>
      </g>
     </g>
     <g id="text_23">
      <!-- 0.15 -->
      <g transform="translate(473.582598 193.305843) scale(0.1 -0.1)">
       <use xlink:href="#DejaVuSans-30"/>
       <use xlink:href="#DejaVuSans-2e" transform="translate(63.623047 0)"/>
       <use xlink:href="#DejaVuSans-31" transform="translate(95.410156 0)"/>
       <use xlink:href="#DejaVuSans-35" transform="translate(159.033203 0)"/>
      </g>
     </g>
    </g>
   </g>
   <g id="matplotlib.axis_12">
    <g id="ytick_26"/>
    <g id="ytick_27"/>
    <g id="ytick_28"/>
    <g id="ytick_29"/>
    <g id="ytick_30"/>
   </g>
   <g id="line2d_28">
    <path d="M 433.718865 166.792837 
L 484.71541 166.792837 
" clip-path="url(#p817e9825c4)" style="fill: none; stroke-dasharray: 5.55,2.4; stroke-dashoffset: 0; stroke: #ff0000; stroke-width: 1.5"/>
   </g>
   <g id="line2d_29">
    <path d="M 433.718865 107.22 
L 484.71541 107.22 
" clip-path="url(#p817e9825c4)" style="fill: none; stroke: #000000; stroke-width: 0.8; stroke-linecap: square"/>
   </g>
   <g id="patch_20">
    <path d="M 435.825116 178.707405 
L 484.71541 178.707405 
" style="fill: none; stroke: #000000; stroke-width: 0.8; stroke-linejoin: miter; stroke-linecap: square"/>
   </g>
   <g id="text_24">
    <!-- SPLa -->
    <g transform="translate(444.770262 29.732595) scale(0.12 -0.12)">
     <defs>
      <path id="DejaVuSans-4c" d="M 628 4666 
L 1259 4666 
L 1259 531 
L 3531 531 
L 3531 0 
L 628 0 
L 628 4666 
z
" transform="scale(0.015625)"/>
     </defs>
     <use xlink:href="#DejaVuSans-53"/>
     <use xlink:href="#DejaVuSans-50" transform="translate(63.476562 0)"/>
     <use xlink:href="#DejaVuSans-4c" transform="translate(123.779297 0)"/>
     <use xlink:href="#DejaVuSans-61" transform="translate(179.492188 0)"/>
    </g>
   </g>
  </g>
  <g id="axes_7">
   <g id="patch_21">
    <path d="M 510.870402 178.707405 
L 561.866948 178.707405 
L 561.866948 35.732595 
L 510.870402 35.732595 
z
" style="fill: #ffffff"/>
   </g>
   <g id="patch_22">
    <path d="M 510.870402 166.792837 
L 561.866948 166.792837 
L 561.866948 166.792837 
L 510.870402 166.792837 
z
" clip-path="url(#p74c47a19aa)" style="fill: #d3d3d3"/>
   </g>
   <g id="PathCollection_7">
    <g clip-path="url(#p74c47a19aa)">
     <use xlink:href="#m6daa90ff88" x="521.330596" y="166.792837" style="stroke: #000000"/>
     <use xlink:href="#m6daa90ff88" x="518.381705" y="166.792837" style="stroke: #000000"/>
     <use xlink:href="#m6daa90ff88" x="516.929621" y="166.792765" style="stroke: #000000"/>
     <use xlink:href="#m6daa90ff88" x="518.930483" y="166.792837" style="stroke: #000000"/>
     <use xlink:href="#m6daa90ff88" x="519.851622" y="166.792837" style="stroke: #000000"/>
     <use xlink:href="#m6daa90ff88" x="519.474423" y="166.792837" style="stroke: #000000"/>
     <use xlink:href="#m6daa90ff88" x="520.785063" y="166.792837" style="stroke: #000000"/>
     <use xlink:href="#m6daa90ff88" x="520.862156" y="166.792837" style="stroke: #000000"/>
     <use xlink:href="#m6daa90ff88" x="517.884364" y="166.792837" style="stroke: #000000"/>
     <use xlink:href="#m6daa90ff88" x="519.180037" y="166.792837" style="stroke: #000000"/>
     <use xlink:href="#m6daa90ff88" x="518.203055" y="166.792837" style="stroke: #000000"/>
     <use xlink:href="#m6daa90ff88" x="518.105082" y="166.792837" style="stroke: #000000"/>
     <use xlink:href="#m6daa90ff88" x="520.832176" y="166.792837" style="stroke: #000000"/>
     <use xlink:href="#m6daa90ff88" x="518.841117" y="166.792837" style="stroke: #000000"/>
    </g>
   </g>
   <g id="matplotlib.axis_13">
    <g id="xtick_13">
     <g id="line2d_30">
      <g>
       <use xlink:href="#m81b8071170" x="512.976654" y="178.707405" style="stroke: #000000; stroke-width: 0.8"/>
      </g>
     </g>
     <g id="text_25">
      <!-- 0.00 -->
      <g transform="translate(501.843841 193.305843) scale(0.1 -0.1)">
       <use xlink:href="#DejaVuSans-30"/>
       <use xlink:href="#DejaVuSans-2e" transform="translate(63.623047 0)"/>
       <use xlink:href="#DejaVuSans-30" transform="translate(95.410156 0)"/>
       <use xlink:href="#DejaVuSans-30" transform="translate(159.033203 0)"/>
      </g>
     </g>
    </g>
    <g id="xtick_14">
     <g id="line2d_31">
      <g>
       <use xlink:href="#m81b8071170" x="561.866948" y="178.707405" style="stroke: #000000; stroke-width: 0.8"/>
      </g>
     </g>
     <g id="text_26">
      <!-- 0.15 -->
      <g transform="translate(550.734135 193.305843) scale(0.1 -0.1)">
       <use xlink:href="#DejaVuSans-30"/>
       <use xlink:href="#DejaVuSans-2e" transform="translate(63.623047 0)"/>
       <use xlink:href="#DejaVuSans-31" transform="translate(95.410156 0)"/>
       <use xlink:href="#DejaVuSans-35" transform="translate(159.033203 0)"/>
      </g>
     </g>
    </g>
   </g>
   <g id="matplotlib.axis_14">
    <g id="ytick_31"/>
    <g id="ytick_32"/>
    <g id="ytick_33"/>
    <g id="ytick_34"/>
    <g id="ytick_35"/>
   </g>
   <g id="line2d_32">
    <path d="M 510.870402 166.792837 
L 561.866948 166.792837 
" clip-path="url(#p74c47a19aa)" style="fill: none; stroke-dasharray: 5.55,2.4; stroke-dashoffset: 0; stroke: #ff0000; stroke-width: 1.5"/>
   </g>
   <g id="line2d_33">
    <path d="M 510.870402 107.22 
L 561.866948 107.22 
" clip-path="url(#p74c47a19aa)" style="fill: none; stroke: #000000; stroke-width: 0.8; stroke-linecap: square"/>
   </g>
   <g id="patch_23">
    <path d="M 512.976654 178.707405 
L 561.866948 178.707405 
" style="fill: none; stroke: #000000; stroke-width: 0.8; stroke-linejoin: miter; stroke-linecap: square"/>
   </g>
   <g id="text_27">
    <!-- SPLp -->
    <g transform="translate(521.789612 29.732595) scale(0.12 -0.12)">
     <defs>
      <path id="DejaVuSans-70" d="M 1159 525 
L 1159 -1331 
L 581 -1331 
L 581 3500 
L 1159 3500 
L 1159 2969 
Q 1341 3281 1617 3432 
Q 1894 3584 2278 3584 
Q 2916 3584 3314 3078 
Q 3713 2572 3713 1747 
Q 3713 922 3314 415 
Q 2916 -91 2278 -91 
Q 1894 -91 1617 61 
Q 1341 213 1159 525 
z
M 3116 1747 
Q 3116 2381 2855 2742 
Q 2594 3103 2138 3103 
Q 1681 3103 1420 2742 
Q 1159 2381 1159 1747 
Q 1159 1113 1420 752 
Q 1681 391 2138 391 
Q 2594 391 2855 752 
Q 3116 1113 3116 1747 
z
" transform="scale(0.015625)"/>
     </defs>
     <use xlink:href="#DejaVuSans-53"/>
     <use xlink:href="#DejaVuSans-50" transform="translate(63.476562 0)"/>
     <use xlink:href="#DejaVuSans-4c" transform="translate(123.779297 0)"/>
     <use xlink:href="#DejaVuSans-70" transform="translate(179.492188 0)"/>
    </g>
   </g>
  </g>
  <g id="text_28">
   <!-- SNR -->
   <g transform="translate(275.533125 210.504135) scale(0.12 -0.12)">
    <defs>
     <path id="DejaVuSans-4e" d="M 628 4666 
L 1478 4666 
L 3547 763 
L 3547 4666 
L 4159 4666 
L 4159 0 
L 3309 0 
L 1241 3903 
L 1241 0 
L 628 0 
L 628 4666 
z
" transform="scale(0.015625)"/>
     <path id="DejaVuSans-52" d="M 2841 2188 
Q 3044 2119 3236 1894 
Q 3428 1669 3622 1275 
L 4263 0 
L 3584 0 
L 2988 1197 
Q 2756 1666 2539 1819 
Q 2322 1972 1947 1972 
L 1259 1972 
L 1259 0 
L 628 0 
L 628 4666 
L 2053 4666 
Q 2853 4666 3247 4331 
Q 3641 3997 3641 3322 
Q 3641 2881 3436 2590 
Q 3231 2300 2841 2188 
z
M 1259 4147 
L 1259 2491 
L 2053 2491 
Q 2509 2491 2742 2702 
Q 2975 2913 2975 3322 
Q 2975 3731 2742 3939 
Q 2509 4147 2053 4147 
L 1259 4147 
z
" transform="scale(0.015625)"/>
    </defs>
    <use xlink:href="#DejaVuSans-53"/>
    <use xlink:href="#DejaVuSans-4e" transform="translate(63.476562 0)"/>
    <use xlink:href="#DejaVuSans-52" transform="translate(138.28125 0)"/>
   </g>
  </g>
  <g id="text_29">
   <!-- Cue-finger correlation -->
   <g transform="translate(222.503438 12.118365) scale(0.12 -0.12)">
    <defs>
     <path id="DejaVuSans-43" d="M 4122 4306 
L 4122 3641 
Q 3803 3938 3442 4084 
Q 3081 4231 2675 4231 
Q 1875 4231 1450 3742 
Q 1025 3253 1025 2328 
Q 1025 1406 1450 917 
Q 1875 428 2675 428 
Q 3081 428 3442 575 
Q 3803 722 4122 1019 
L 4122 359 
Q 3791 134 3420 21 
Q 3050 -91 2638 -91 
Q 1578 -91 968 557 
Q 359 1206 359 2328 
Q 359 3453 968 4101 
Q 1578 4750 2638 4750 
Q 3056 4750 3426 4639 
Q 3797 4528 4122 4306 
z
" transform="scale(0.015625)"/>
     <path id="DejaVuSans-75" d="M 544 1381 
L 544 3500 
L 1119 3500 
L 1119 1403 
Q 1119 906 1312 657 
Q 1506 409 1894 409 
Q 2359 409 2629 706 
Q 2900 1003 2900 1516 
L 2900 3500 
L 3475 3500 
L 3475 0 
L 2900 0 
L 2900 538 
Q 2691 219 2414 64 
Q 2138 -91 1772 -91 
Q 1169 -91 856 284 
Q 544 659 544 1381 
z
M 1991 3584 
L 1991 3584 
z
" transform="scale(0.015625)"/>
     <path id="DejaVuSans-2d" d="M 313 2009 
L 1997 2009 
L 1997 1497 
L 313 1497 
L 313 2009 
z
" transform="scale(0.015625)"/>
     <path id="DejaVuSans-66" d="M 2375 4863 
L 2375 4384 
L 1825 4384 
Q 1516 4384 1395 4259 
Q 1275 4134 1275 3809 
L 1275 3500 
L 2222 3500 
L 2222 3053 
L 1275 3053 
L 1275 0 
L 697 0 
L 697 3053 
L 147 3053 
L 147 3500 
L 697 3500 
L 697 3744 
Q 697 4328 969 4595 
Q 1241 4863 1831 4863 
L 2375 4863 
z
" transform="scale(0.015625)"/>
     <path id="DejaVuSans-67" d="M 2906 1791 
Q 2906 2416 2648 2759 
Q 2391 3103 1925 3103 
Q 1463 3103 1205 2759 
Q 947 2416 947 1791 
Q 947 1169 1205 825 
Q 1463 481 1925 481 
Q 2391 481 2648 825 
Q 2906 1169 2906 1791 
z
M 3481 434 
Q 3481 -459 3084 -895 
Q 2688 -1331 1869 -1331 
Q 1566 -1331 1297 -1286 
Q 1028 -1241 775 -1147 
L 775 -588 
Q 1028 -725 1275 -790 
Q 1522 -856 1778 -856 
Q 2344 -856 2625 -561 
Q 2906 -266 2906 331 
L 2906 616 
Q 2728 306 2450 153 
Q 2172 0 1784 0 
Q 1141 0 747 490 
Q 353 981 353 1791 
Q 353 2603 747 3093 
Q 1141 3584 1784 3584 
Q 2172 3584 2450 3431 
Q 2728 3278 2906 2969 
L 2906 3500 
L 3481 3500 
L 3481 434 
z
" transform="scale(0.015625)"/>
     <path id="DejaVuSans-20" transform="scale(0.015625)"/>
    </defs>
    <use xlink:href="#DejaVuSans-43"/>
    <use xlink:href="#DejaVuSans-75" transform="translate(69.824219 0)"/>
    <use xlink:href="#DejaVuSans-65" transform="translate(133.203125 0)"/>
    <use xlink:href="#DejaVuSans-2d" transform="translate(194.726562 0)"/>
    <use xlink:href="#DejaVuSans-66" transform="translate(230.810547 0)"/>
    <use xlink:href="#DejaVuSans-69" transform="translate(266.015625 0)"/>
    <use xlink:href="#DejaVuSans-6e" transform="translate(293.798828 0)"/>
    <use xlink:href="#DejaVuSans-67" transform="translate(357.177734 0)"/>
    <use xlink:href="#DejaVuSans-65" transform="translate(420.654297 0)"/>
    <use xlink:href="#DejaVuSans-72" transform="translate(482.177734 0)"/>
    <use xlink:href="#DejaVuSans-20" transform="translate(523.291016 0)"/>
    <use xlink:href="#DejaVuSans-63" transform="translate(555.078125 0)"/>
    <use xlink:href="#DejaVuSans-6f" transform="translate(610.058594 0)"/>
    <use xlink:href="#DejaVuSans-72" transform="translate(671.240234 0)"/>
    <use xlink:href="#DejaVuSans-72" transform="translate(710.603516 0)"/>
    <use xlink:href="#DejaVuSans-65" transform="translate(749.466797 0)"/>
    <use xlink:href="#DejaVuSans-6c" transform="translate(810.990234 0)"/>
    <use xlink:href="#DejaVuSans-61" transform="translate(838.773438 0)"/>
    <use xlink:href="#DejaVuSans-74" transform="translate(900.052734 0)"/>
    <use xlink:href="#DejaVuSans-69" transform="translate(939.261719 0)"/>
    <use xlink:href="#DejaVuSans-6f" transform="translate(967.044922 0)"/>
    <use xlink:href="#DejaVuSans-6e" transform="translate(1028.226562 0)"/>
   </g>
  </g>
 </g>
 <defs>
  <clipPath id="p8b988b24a2">
   <rect x="47.961178" y="35.732595" width="50.996545" height="142.97481"/>
  </clipPath>
  <clipPath id="p02c221e3f3">
   <rect x="125.112715" y="35.732595" width="50.996545" height="142.97481"/>
  </clipPath>
  <clipPath id="p38fce5a4a2">
   <rect x="202.264252" y="35.732595" width="50.996545" height="142.97481"/>
  </clipPath>
  <clipPath id="p2eb147005c">
   <rect x="279.41579" y="35.732595" width="50.996545" height="142.97481"/>
  </clipPath>
  <clipPath id="p5c00187e00">
   <rect x="356.567327" y="35.732595" width="50.996545" height="142.97481"/>
  </clipPath>
  <clipPath id="p817e9825c4">
   <rect x="433.718865" y="35.732595" width="50.996545" height="142.97481"/>
  </clipPath>
  <clipPath id="p74c47a19aa">
   <rect x="510.870402" y="35.732595" width="50.996545" height="142.97481"/>
  </clipPath>
 </defs>
</svg>
