<?xml version="1.0" encoding="utf-8" standalone="no"?>
<!DOCTYPE svg PUBLIC "-//W3C//DTD SVG 1.1//EN"
  "http://www.w3.org/Graphics/SVG/1.1/DTD/svg11.dtd">
<svg xmlns:xlink="http://www.w3.org/1999/xlink" width="216.684264pt" height="252.118125pt" viewBox="0 0 216.684264 252.118125" xmlns="http://www.w3.org/2000/svg" version="1.1">
 <metadata>
  <rdf:RDF xmlns:dc="http://purl.org/dc/elements/1.1/" xmlns:cc="http://creativecommons.org/ns#" xmlns:rdf="http://www.w3.org/1999/02/22-rdf-syntax-ns#">
   <cc:Work>
    <dc:type rdf:resource="http://purl.org/dc/dcmitype/StillImage"/>
    <dc:date>2025-06-09T12:04:49.610413</dc:date>
    <dc:format>image/svg+xml</dc:format>
    <dc:creator>
     <cc:Agent>
      <dc:title>Matplotlib v3.10.1, https://matplotlib.org/</dc:title>
     </cc:Agent>
    </dc:creator>
   </cc:Work>
  </rdf:RDF>
 </metadata>
 <defs>
  <style type="text/css">*{stroke-linejoin: round; stroke-linecap: butt}</style>
 </defs>
 <g id="figure_1">
  <g id="patch_1">
   <path d="M 0 252.118125 
L 216.684264 252.118125 
L 216.684264 0 
L 0 0 
z
" style="fill: #ffffff"/>
  </g>
  <g id="axes_1">
   <g id="patch_2">
    <path d="M 60.28 195.798125 
L 124.723571 195.798125 
L 124.723571 22.318125 
L 60.28 22.318125 
z
" style="fill: #ffffff"/>
   </g>
   <g id="FillBetweenPolyCollection_1">
    <defs>
     <path id="ma718fab933" d="M 63.209253 -150.844803 
L 63.209253 -76.203258 
L 63.801022 -76.785085 
L 64.39279 -77.361039 
L 64.984558 -77.930836 
L 65.576327 -78.494179 
L 66.168095 -79.050752 
L 66.759863 -79.600224 
L 67.351632 -80.142246 
L 67.9434 -80.676453 
L 68.535168 -81.202457 
L 69.126937 -81.719857 
L 69.718705 -82.228226 
L 70.310473 -82.727121 
L 70.902242 -83.216078 
L 71.49401 -83.694612 
L 72.085778 -84.162215 
L 72.677547 -84.618363 
L 73.269315 -85.062509 
L 73.861083 -85.494086 
L 74.452852 -85.912511 
L 75.04462 -86.317182 
L 75.636388 -86.707483 
L 76.228157 -87.082782 
L 76.819925 -87.44244 
L 77.411693 -87.785807 
L 78.003461 -88.112231 
L 78.59523 -88.421058 
L 79.186998 -88.711639 
L 79.778766 -88.983334 
L 80.370535 -89.235519 
L 80.962303 -89.46759 
L 81.554071 -89.678967 
L 82.14584 -89.869107 
L 82.737608 -90.037503 
L 83.329376 -90.183695 
L 83.921145 -90.307272 
L 84.512913 -90.407883 
L 85.104681 -90.485237 
L 85.69645 -90.539108 
L 86.288218 -90.56934 
L 86.879986 -90.57585 
L 87.471755 -90.558626 
L 88.063523 -90.51773 
L 88.655291 -90.453296 
L 89.24706 -90.365529 
L 89.838828 -90.254699 
L 90.430596 -90.12114 
L 91.022365 -89.965246 
L 91.614133 -89.787461 
L 92.205901 -89.58828 
L 92.79767 -89.368234 
L 93.389438 -89.127893 
L 93.981206 -88.867854 
L 94.572975 -88.588736 
L 95.164743 -88.291175 
L 95.756511 -87.975817 
L 96.34828 -87.643315 
L 96.940048 -87.294323 
L 97.531816 -86.92949 
L 98.123585 -86.549461 
L 98.715353 -86.154869 
L 99.307121 -85.746336 
L 99.89889 -85.324468 
L 100.490658 -84.889854 
L 101.082426 -84.443067 
L 101.674195 -83.984658 
L 102.265963 -83.51516 
L 102.857731 -83.035086 
L 103.4495 -82.544927 
L 104.041268 -82.045153 
L 104.633036 -81.536215 
L 105.224805 -81.018544 
L 105.816573 -80.49255 
L 106.408341 -79.958623 
L 107.00011 -79.417136 
L 107.591878 -78.868443 
L 108.183646 -78.31288 
L 108.775415 -77.750768 
L 109.367183 -77.18241 
L 109.958951 -76.608093 
L 110.55072 -76.028092 
L 111.142488 -75.442666 
L 111.734256 -74.852061 
L 112.326025 -74.25651 
L 112.917793 -73.656235 
L 113.509561 -73.051446 
L 114.10133 -72.442341 
L 114.693098 -71.82911 
L 115.284866 -71.211932 
L 115.876635 -70.590977 
L 116.468403 -69.966407 
L 117.060171 -69.338373 
L 117.65194 -68.707022 
L 118.243708 -68.072492 
L 118.835476 -67.434914 
L 119.427245 -66.794413 
L 120.019013 -66.151106 
L 120.610781 -65.505107 
L 121.20255 -64.856523 
L 121.794318 -64.205455 
L 121.794318 -163.410676 
L 121.794318 -163.410676 
L 121.20255 -162.75387 
L 120.610781 -162.099547 
L 120.019013 -161.44781 
L 119.427245 -160.798765 
L 118.835476 -160.152526 
L 118.243708 -159.50921 
L 117.65194 -158.868941 
L 117.060171 -158.231853 
L 116.468403 -157.598081 
L 115.876635 -156.967772 
L 115.284866 -156.341079 
L 114.693098 -155.718163 
L 114.10133 -155.099194 
L 113.509561 -154.484352 
L 112.917793 -153.873824 
L 112.326025 -153.267811 
L 111.734256 -152.666523 
L 111.142488 -152.070179 
L 110.55072 -151.479015 
L 109.958951 -150.893276 
L 109.367183 -150.313221 
L 108.775415 -149.739125 
L 108.183646 -149.171274 
L 107.591878 -148.609974 
L 107.00011 -148.055543 
L 106.408341 -147.508318 
L 105.816573 -146.968653 
L 105.224805 -146.43692 
L 104.633036 -145.913511 
L 104.041268 -145.398835 
L 103.4495 -144.893324 
L 102.857731 -144.397426 
L 102.265963 -143.911614 
L 101.674195 -143.436378 
L 101.082426 -142.972231 
L 100.490658 -142.519706 
L 99.89889 -142.079354 
L 99.307121 -141.651747 
L 98.715353 -141.237476 
L 98.123585 -140.837146 
L 97.531816 -140.451379 
L 96.940048 -140.080809 
L 96.34828 -139.726078 
L 95.756511 -139.387838 
L 95.164743 -139.066742 
L 94.572975 -138.763443 
L 93.981206 -138.478587 
L 93.389438 -138.21281 
L 92.79767 -137.966731 
L 92.205901 -137.740947 
L 91.614133 -137.536027 
L 91.022365 -137.352505 
L 90.430596 -137.190872 
L 89.838828 -137.051576 
L 89.24706 -136.935008 
L 88.655291 -136.841502 
L 88.063523 -136.77133 
L 87.471755 -136.724696 
L 86.879986 -136.701734 
L 86.288218 -136.702506 
L 85.69645 -136.727001 
L 85.104681 -136.775133 
L 84.512913 -136.846749 
L 83.921145 -136.941622 
L 83.329376 -137.059461 
L 82.737608 -137.199915 
L 82.14584 -137.362572 
L 81.554071 -137.546974 
L 80.962303 -137.752614 
L 80.370535 -137.978946 
L 79.778766 -138.225393 
L 79.186998 -138.491351 
L 78.59523 -138.776193 
L 78.003461 -139.079282 
L 77.411693 -139.399968 
L 76.819925 -139.737597 
L 76.228157 -140.091517 
L 75.636388 -140.461078 
L 75.04462 -140.845641 
L 74.452852 -141.244574 
L 73.861083 -141.657261 
L 73.269315 -142.0831 
L 72.677547 -142.521508 
L 72.085778 -142.971917 
L 71.49401 -143.433783 
L 70.902242 -143.906578 
L 70.310473 -144.389797 
L 69.718705 -144.882954 
L 69.126937 -145.385586 
L 68.535168 -145.897247 
L 67.9434 -146.417513 
L 67.351632 -146.945981 
L 66.759863 -147.482266 
L 66.168095 -148.026 
L 65.576327 -148.576835 
L 64.984558 -149.134439 
L 64.39279 -149.698499 
L 63.801022 -150.268715 
L 63.209253 -150.844803 
z
"/>
    </defs>
    <g clip-path="url(#p7cc91ecf0d)">
     <use xlink:href="#ma718fab933" x="0" y="252.118125" style="fill-opacity: 0.2"/>
    </g>
   </g>
   <g id="PathCollection_1">
    <defs>
     <path id="meff233f2a3" d="M 0 3 
C 0.795609 3 1.55874 2.683901 2.12132 2.12132 
C 2.683901 1.55874 3 0.795609 3 0 
C 3 -0.795609 2.683901 -1.55874 2.12132 -2.12132 
C 1.55874 -2.683901 0.795609 -3 0 -3 
C -0.795609 -3 -1.55874 -2.683901 -2.12132 -2.12132 
C -2.683901 -1.55874 -3 -0.795609 -3 0 
C -3 0.795609 -2.683901 1.55874 -2.12132 2.12132 
C -1.55874 2.683901 -0.795609 3 0 3 
z
" style="stroke: #000000"/>
    </defs>
    <g clip-path="url(#p7cc91ecf0d)">
     <use xlink:href="#meff233f2a3" x="66.42523" y="186.910966" style="stroke: #000000"/>
     <use xlink:href="#meff233f2a3" x="88.505046" y="100.947447" style="stroke: #000000"/>
     <use xlink:href="#meff233f2a3" x="121.794318" y="144.45129" style="stroke: #000000"/>
     <use xlink:href="#meff233f2a3" x="111.548671" y="186.910966" style="stroke: #000000"/>
     <use xlink:href="#meff233f2a3" x="78.022329" y="175.242372" style="stroke: #000000"/>
     <use xlink:href="#meff233f2a3" x="117.873097" y="151.440443" style="stroke: #000000"/>
     <use xlink:href="#meff233f2a3" x="80.908172" y="181.531908" style="stroke: #000000"/>
     <use xlink:href="#meff233f2a3" x="73.566638" y="118.879511" style="stroke: #000000"/>
     <use xlink:href="#meff233f2a3" x="70.644469" y="94.259191" style="stroke: #000000"/>
     <use xlink:href="#meff233f2a3" x="76.146796" y="166.701764" style="stroke: #000000"/>
     <use xlink:href="#meff233f2a3" x="76.594171" y="177.080635" style="stroke: #000000"/>
     <use xlink:href="#meff233f2a3" x="86.606571" y="133.005005" style="stroke: #000000"/>
     <use xlink:href="#meff233f2a3" x="63.209253" y="91.159506" style="stroke: #000000"/>
     <use xlink:href="#meff233f2a3" x="101.603186" y="30.20358" style="stroke: #000000"/>
    </g>
   </g>
   <g id="matplotlib.axis_1">
    <g id="xtick_1">
     <g id="line2d_1">
      <defs>
       <path id="m88dbc780a5" d="M 0 0 
L 0 3.5 
" style="stroke: #000000; stroke-width: 2"/>
      </defs>
      <g>
       <use xlink:href="#m88dbc780a5" x="71.41686" y="195.798125" style="stroke: #000000; stroke-width: 2"/>
      </g>
     </g>
     <g id="text_1">
      <!-- 0.00 -->
      <g transform="translate(60.284047 210.396562) scale(0.1 -0.1)">
       <defs>
        <path id="DejaVuSans-30" d="M 2034 4250 
Q 1547 4250 1301 3770 
Q 1056 3291 1056 2328 
Q 1056 1369 1301 889 
Q 1547 409 2034 409 
Q 2525 409 2770 889 
Q 3016 1369 3016 2328 
Q 3016 3291 2770 3770 
Q 2525 4250 2034 4250 
z
M 2034 4750 
Q 2819 4750 3233 4129 
Q 3647 3509 3647 2328 
Q 3647 1150 3233 529 
Q 2819 -91 2034 -91 
Q 1250 -91 836 529 
Q 422 1150 422 2328 
Q 422 3509 836 4129 
Q 1250 4750 2034 4750 
z
" transform="scale(0.015625)"/>
        <path id="DejaVuSans-2e" d="M 684 794 
L 1344 794 
L 1344 0 
L 684 0 
L 684 794 
z
" transform="scale(0.015625)"/>
       </defs>
       <use xlink:href="#DejaVuSans-30"/>
       <use xlink:href="#DejaVuSans-2e" transform="translate(63.623047 0)"/>
       <use xlink:href="#DejaVuSans-30" transform="translate(95.410156 0)"/>
       <use xlink:href="#DejaVuSans-30" transform="translate(159.033203 0)"/>
      </g>
     </g>
    </g>
    <g id="xtick_2">
     <g id="line2d_2">
      <g>
       <use xlink:href="#m88dbc780a5" x="117.301452" y="195.798125" style="stroke: #000000; stroke-width: 2"/>
      </g>
     </g>
     <g id="text_2">
      <!-- 0.08 -->
      <g transform="translate(106.168639 210.396562) scale(0.1 -0.1)">
       <defs>
        <path id="DejaVuSans-38" d="M 2034 2216 
Q 1584 2216 1326 1975 
Q 1069 1734 1069 1313 
Q 1069 891 1326 650 
Q 1584 409 2034 409 
Q 2484 409 2743 651 
Q 3003 894 3003 1313 
Q 3003 1734 2745 1975 
Q 2488 2216 2034 2216 
z
M 1403 2484 
Q 997 2584 770 2862 
Q 544 3141 544 3541 
Q 544 4100 942 4425 
Q 1341 4750 2034 4750 
Q 2731 4750 3128 4425 
Q 3525 4100 3525 3541 
Q 3525 3141 3298 2862 
Q 3072 2584 2669 2484 
Q 3125 2378 3379 2068 
Q 3634 1759 3634 1313 
Q 3634 634 3220 271 
Q 2806 -91 2034 -91 
Q 1263 -91 848 271 
Q 434 634 434 1313 
Q 434 1759 690 2068 
Q 947 2378 1403 2484 
z
M 1172 3481 
Q 1172 3119 1398 2916 
Q 1625 2713 2034 2713 
Q 2441 2713 2670 2916 
Q 2900 3119 2900 3481 
Q 2900 3844 2670 4047 
Q 2441 4250 2034 4250 
Q 1625 4250 1398 4047 
Q 1172 3844 1172 3481 
z
" transform="scale(0.015625)"/>
       </defs>
       <use xlink:href="#DejaVuSans-30"/>
       <use xlink:href="#DejaVuSans-2e" transform="translate(63.623047 0)"/>
       <use xlink:href="#DejaVuSans-30" transform="translate(95.410156 0)"/>
       <use xlink:href="#DejaVuSans-38" transform="translate(159.033203 0)"/>
      </g>
     </g>
    </g>
   </g>
   <g id="matplotlib.axis_2">
    <g id="ytick_1">
     <g id="line2d_3">
      <defs>
       <path id="md7ec736a40" d="M 0 0 
L -3.5 0 
" style="stroke: #000000; stroke-width: 2"/>
      </defs>
      <g>
       <use xlink:href="#md7ec736a40" x="60.28" y="186.910966" style="stroke: #000000; stroke-width: 2"/>
      </g>
     </g>
     <g id="text_3">
      <!-- 0.0 -->
      <g transform="translate(37.376875 190.710185) scale(0.1 -0.1)">
       <use xlink:href="#DejaVuSans-30"/>
       <use xlink:href="#DejaVuSans-2e" transform="translate(63.623047 0)"/>
       <use xlink:href="#DejaVuSans-30" transform="translate(95.410156 0)"/>
      </g>
     </g>
    </g>
    <g id="ytick_2">
     <g id="line2d_4">
      <g>
       <use xlink:href="#md7ec736a40" x="60.28" y="162.740567" style="stroke: #000000; stroke-width: 2"/>
      </g>
     </g>
     <g id="text_4">
      <!-- 0.1 -->
      <g transform="translate(37.376875 166.539786) scale(0.1 -0.1)">
       <defs>
        <path id="DejaVuSans-31" d="M 794 531 
L 1825 531 
L 1825 4091 
L 703 3866 
L 703 4441 
L 1819 4666 
L 2450 4666 
L 2450 531 
L 3481 531 
L 3481 0 
L 794 0 
L 794 531 
z
" transform="scale(0.015625)"/>
       </defs>
       <use xlink:href="#DejaVuSans-30"/>
       <use xlink:href="#DejaVuSans-2e" transform="translate(63.623047 0)"/>
       <use xlink:href="#DejaVuSans-31" transform="translate(95.410156 0)"/>
      </g>
     </g>
    </g>
    <g id="ytick_3">
     <g id="line2d_5">
      <g>
       <use xlink:href="#md7ec736a40" x="60.28" y="138.570167" style="stroke: #000000; stroke-width: 2"/>
      </g>
     </g>
     <g id="text_5">
      <!-- 0.2 -->
      <g transform="translate(37.376875 142.369386) scale(0.1 -0.1)">
       <defs>
        <path id="DejaVuSans-32" d="M 1228 531 
L 3431 531 
L 3431 0 
L 469 0 
L 469 531 
Q 828 903 1448 1529 
Q 2069 2156 2228 2338 
Q 2531 2678 2651 2914 
Q 2772 3150 2772 3378 
Q 2772 3750 2511 3984 
Q 2250 4219 1831 4219 
Q 1534 4219 1204 4116 
Q 875 4013 500 3803 
L 500 4441 
Q 881 4594 1212 4672 
Q 1544 4750 1819 4750 
Q 2544 4750 2975 4387 
Q 3406 4025 3406 3419 
Q 3406 3131 3298 2873 
Q 3191 2616 2906 2266 
Q 2828 2175 2409 1742 
Q 1991 1309 1228 531 
z
" transform="scale(0.015625)"/>
       </defs>
       <use xlink:href="#DejaVuSans-30"/>
       <use xlink:href="#DejaVuSans-2e" transform="translate(63.623047 0)"/>
       <use xlink:href="#DejaVuSans-32" transform="translate(95.410156 0)"/>
      </g>
     </g>
    </g>
    <g id="ytick_4">
     <g id="line2d_6">
      <g>
       <use xlink:href="#md7ec736a40" x="60.28" y="114.399768" style="stroke: #000000; stroke-width: 2"/>
      </g>
     </g>
     <g id="text_6">
      <!-- 0.3 -->
      <g transform="translate(37.376875 118.198986) scale(0.1 -0.1)">
       <defs>
        <path id="DejaVuSans-33" d="M 2597 2516 
Q 3050 2419 3304 2112 
Q 3559 1806 3559 1356 
Q 3559 666 3084 287 
Q 2609 -91 1734 -91 
Q 1441 -91 1130 -33 
Q 819 25 488 141 
L 488 750 
Q 750 597 1062 519 
Q 1375 441 1716 441 
Q 2309 441 2620 675 
Q 2931 909 2931 1356 
Q 2931 1769 2642 2001 
Q 2353 2234 1838 2234 
L 1294 2234 
L 1294 2753 
L 1863 2753 
Q 2328 2753 2575 2939 
Q 2822 3125 2822 3475 
Q 2822 3834 2567 4026 
Q 2313 4219 1838 4219 
Q 1578 4219 1281 4162 
Q 984 4106 628 3988 
L 628 4550 
Q 988 4650 1302 4700 
Q 1616 4750 1894 4750 
Q 2613 4750 3031 4423 
Q 3450 4097 3450 3541 
Q 3450 3153 3228 2886 
Q 3006 2619 2597 2516 
z
" transform="scale(0.015625)"/>
       </defs>
       <use xlink:href="#DejaVuSans-30"/>
       <use xlink:href="#DejaVuSans-2e" transform="translate(63.623047 0)"/>
       <use xlink:href="#DejaVuSans-33" transform="translate(95.410156 0)"/>
      </g>
     </g>
    </g>
    <g id="ytick_5">
     <g id="line2d_7">
      <g>
       <use xlink:href="#md7ec736a40" x="60.28" y="90.229368" style="stroke: #000000; stroke-width: 2"/>
      </g>
     </g>
     <g id="text_7">
      <!-- 0.4 -->
      <g transform="translate(37.376875 94.028587) scale(0.1 -0.1)">
       <defs>
        <path id="DejaVuSans-34" d="M 2419 4116 
L 825 1625 
L 2419 1625 
L 2419 4116 
z
M 2253 4666 
L 3047 4666 
L 3047 1625 
L 3713 1625 
L 3713 1100 
L 3047 1100 
L 3047 0 
L 2419 0 
L 2419 1100 
L 313 1100 
L 313 1709 
L 2253 4666 
z
" transform="scale(0.015625)"/>
       </defs>
       <use xlink:href="#DejaVuSans-30"/>
       <use xlink:href="#DejaVuSans-2e" transform="translate(63.623047 0)"/>
       <use xlink:href="#DejaVuSans-34" transform="translate(95.410156 0)"/>
      </g>
     </g>
    </g>
    <g id="ytick_6">
     <g id="line2d_8">
      <g>
       <use xlink:href="#md7ec736a40" x="60.28" y="66.058969" style="stroke: #000000; stroke-width: 2"/>
      </g>
     </g>
     <g id="text_8">
      <!-- 0.5 -->
      <g transform="translate(37.376875 69.858187) scale(0.1 -0.1)">
       <defs>
        <path id="DejaVuSans-35" d="M 691 4666 
L 3169 4666 
L 3169 4134 
L 1269 4134 
L 1269 2991 
Q 1406 3038 1543 3061 
Q 1681 3084 1819 3084 
Q 2600 3084 3056 2656 
Q 3513 2228 3513 1497 
Q 3513 744 3044 326 
Q 2575 -91 1722 -91 
Q 1428 -91 1123 -41 
Q 819 9 494 109 
L 494 744 
Q 775 591 1075 516 
Q 1375 441 1709 441 
Q 2250 441 2565 725 
Q 2881 1009 2881 1497 
Q 2881 1984 2565 2268 
Q 2250 2553 1709 2553 
Q 1456 2553 1204 2497 
Q 953 2441 691 2322 
L 691 4666 
z
" transform="scale(0.015625)"/>
       </defs>
       <use xlink:href="#DejaVuSans-30"/>
       <use xlink:href="#DejaVuSans-2e" transform="translate(63.623047 0)"/>
       <use xlink:href="#DejaVuSans-35" transform="translate(95.410156 0)"/>
      </g>
     </g>
    </g>
    <g id="ytick_7">
     <g id="line2d_9">
      <g>
       <use xlink:href="#md7ec736a40" x="60.28" y="41.888569" style="stroke: #000000; stroke-width: 2"/>
      </g>
     </g>
     <g id="text_9">
      <!-- 0.6 -->
      <g transform="translate(37.376875 45.687788) scale(0.1 -0.1)">
       <defs>
        <path id="DejaVuSans-36" d="M 2113 2584 
Q 1688 2584 1439 2293 
Q 1191 2003 1191 1497 
Q 1191 994 1439 701 
Q 1688 409 2113 409 
Q 2538 409 2786 701 
Q 3034 994 3034 1497 
Q 3034 2003 2786 2293 
Q 2538 2584 2113 2584 
z
M 3366 4563 
L 3366 3988 
Q 3128 4100 2886 4159 
Q 2644 4219 2406 4219 
Q 1781 4219 1451 3797 
Q 1122 3375 1075 2522 
Q 1259 2794 1537 2939 
Q 1816 3084 2150 3084 
Q 2853 3084 3261 2657 
Q 3669 2231 3669 1497 
Q 3669 778 3244 343 
Q 2819 -91 2113 -91 
Q 1303 -91 875 529 
Q 447 1150 447 2328 
Q 447 3434 972 4092 
Q 1497 4750 2381 4750 
Q 2619 4750 2861 4703 
Q 3103 4656 3366 4563 
z
" transform="scale(0.015625)"/>
       </defs>
       <use xlink:href="#DejaVuSans-30"/>
       <use xlink:href="#DejaVuSans-2e" transform="translate(63.623047 0)"/>
       <use xlink:href="#DejaVuSans-36" transform="translate(95.410156 0)"/>
      </g>
     </g>
    </g>
   </g>
   <g id="line2d_10">
    <path d="M 63.209253 138.594094 
L 63.801022 138.591225 
L 64.39279 138.588356 
L 64.984558 138.585487 
L 65.576327 138.582618 
L 66.168095 138.579749 
L 66.759863 138.57688 
L 67.351632 138.574011 
L 67.9434 138.571142 
L 68.535168 138.568273 
L 69.126937 138.565404 
L 69.718705 138.562535 
L 70.310473 138.559666 
L 70.902242 138.556797 
L 71.49401 138.553928 
L 72.085778 138.551059 
L 72.677547 138.54819 
L 73.269315 138.545321 
L 73.861083 138.542452 
L 74.452852 138.539583 
L 75.04462 138.536714 
L 75.636388 138.533845 
L 76.228157 138.530976 
L 76.819925 138.528106 
L 77.411693 138.525237 
L 78.003461 138.522368 
L 78.59523 138.519499 
L 79.186998 138.51663 
L 79.778766 138.513761 
L 80.370535 138.510892 
L 80.962303 138.508023 
L 81.554071 138.505154 
L 82.14584 138.502285 
L 82.737608 138.499416 
L 83.329376 138.496547 
L 83.921145 138.493678 
L 84.512913 138.490809 
L 85.104681 138.48794 
L 85.69645 138.485071 
L 86.288218 138.482202 
L 86.879986 138.479333 
L 87.471755 138.476464 
L 88.063523 138.473595 
L 88.655291 138.470726 
L 89.24706 138.467857 
L 89.838828 138.464988 
L 90.430596 138.462119 
L 91.022365 138.45925 
L 91.614133 138.456381 
L 92.205901 138.453512 
L 92.79767 138.450643 
L 93.389438 138.447773 
L 93.981206 138.444904 
L 94.572975 138.442035 
L 95.164743 138.439166 
L 95.756511 138.436297 
L 96.34828 138.433428 
L 96.940048 138.430559 
L 97.531816 138.42769 
L 98.123585 138.424821 
L 98.715353 138.421952 
L 99.307121 138.419083 
L 99.89889 138.416214 
L 100.490658 138.413345 
L 101.082426 138.410476 
L 101.674195 138.407607 
L 102.265963 138.404738 
L 102.857731 138.401869 
L 103.4495 138.399 
L 104.041268 138.396131 
L 104.633036 138.393262 
L 105.224805 138.390393 
L 105.816573 138.387524 
L 106.408341 138.384655 
L 107.00011 138.381786 
L 107.591878 138.378917 
L 108.183646 138.376048 
L 108.775415 138.373179 
L 109.367183 138.37031 
L 109.958951 138.36744 
L 110.55072 138.364571 
L 111.142488 138.361702 
L 111.734256 138.358833 
L 112.326025 138.355964 
L 112.917793 138.353095 
L 113.509561 138.350226 
L 114.10133 138.347357 
L 114.693098 138.344488 
L 115.284866 138.341619 
L 115.876635 138.33875 
L 116.468403 138.335881 
L 117.060171 138.333012 
L 117.65194 138.330143 
L 118.243708 138.327274 
L 118.835476 138.324405 
L 119.427245 138.321536 
L 120.019013 138.318667 
L 120.610781 138.315798 
L 121.20255 138.312929 
L 121.794318 138.31006 
" clip-path="url(#p7cc91ecf0d)" style="fill: none; stroke-dasharray: 5.55,2.4; stroke-dashoffset: 0; stroke: #000000; stroke-width: 1.5"/>
   </g>
   <g id="line2d_11">
    <path d="M 71.41686 195.798125 
L 71.41686 22.318125 
" clip-path="url(#p7cc91ecf0d)" style="fill: none; stroke: #000000; stroke-width: 0.8; stroke-linecap: square"/>
   </g>
   <g id="line2d_12">
    <path d="M 60.28 186.910966 
L 124.723571 186.910966 
" clip-path="url(#p7cc91ecf0d)" style="fill: none; stroke: #000000; stroke-width: 0.8; stroke-linecap: square"/>
   </g>
   <g id="patch_3">
    <path d="M 60.28 186.910966 
L 60.28 41.888569 
" style="fill: none; stroke: #000000; stroke-width: 2; stroke-linejoin: miter; stroke-linecap: square"/>
   </g>
   <g id="patch_4">
    <path d="M 71.41686 195.798125 
L 117.301452 195.798125 
" style="fill: none; stroke: #000000; stroke-width: 2; stroke-linejoin: miter; stroke-linecap: square"/>
   </g>
   <g id="text_10">
    <!-- M1 -->
    <g transform="translate(83.507411 16.318125) scale(0.12 -0.12)">
     <defs>
      <path id="DejaVuSans-4d" d="M 628 4666 
L 1569 4666 
L 2759 1491 
L 3956 4666 
L 4897 4666 
L 4897 0 
L 4281 0 
L 4281 4097 
L 3078 897 
L 2444 897 
L 1241 4097 
L 1241 0 
L 628 0 
L 628 4666 
z
" transform="scale(0.015625)"/>
     </defs>
     <use xlink:href="#DejaVuSans-4d"/>
     <use xlink:href="#DejaVuSans-31" transform="translate(86.279297 0)"/>
    </g>
   </g>
  </g>
  <g id="axes_2">
   <g id="patch_5">
    <path d="M 141.33 195.798125 
L 205.773571 195.798125 
L 205.773571 22.318125 
L 141.33 22.318125 
z
" style="fill: #ffffff"/>
   </g>
   <g id="FillBetweenPolyCollection_2">
    <defs>
     <path id="mc229bde04f" d="M 144.259253 -165.698689 
L 144.259253 -100.977206 
L 144.851022 -101.528014 
L 145.44279 -102.07373 
L 146.034558 -102.614108 
L 146.626327 -103.148889 
L 147.218095 -103.6778 
L 147.809863 -104.200553 
L 148.401632 -104.716847 
L 148.9934 -105.226364 
L 149.585168 -105.728769 
L 150.176937 -106.223712 
L 150.768705 -106.710825 
L 151.360473 -107.189724 
L 151.952242 -107.660005 
L 152.54401 -108.121248 
L 153.135778 -108.573014 
L 153.727547 -109.014846 
L 154.319315 -109.446271 
L 154.911083 -109.866798 
L 155.502852 -110.275921 
L 156.09462 -110.673119 
L 156.686388 -111.057855 
L 157.278157 -111.429584 
L 157.869925 -111.78775 
L 158.461693 -112.131791 
L 159.053461 -112.46114 
L 159.64523 -112.77523 
L 160.236998 -113.0735 
L 160.828766 -113.355394 
L 161.420535 -113.620371 
L 162.012303 -113.867907 
L 162.604071 -114.097499 
L 163.19584 -114.308677 
L 163.787608 -114.501 
L 164.379376 -114.674071 
L 164.971145 -114.827532 
L 165.562913 -114.961079 
L 166.154681 -115.07446 
L 166.74645 -115.167479 
L 167.338218 -115.240001 
L 167.929986 -115.291954 
L 168.521755 -115.323327 
L 169.113523 -115.334174 
L 169.705291 -115.324612 
L 170.29706 -115.294816 
L 170.888828 -115.245024 
L 171.480596 -115.175523 
L 172.072365 -115.086656 
L 172.664133 -114.978807 
L 173.255901 -114.852405 
L 173.84767 -114.707911 
L 174.439438 -114.54582 
L 175.031206 -114.366649 
L 175.622975 -114.170935 
L 176.214743 -113.959228 
L 176.806511 -113.73209 
L 177.39828 -113.490086 
L 177.990048 -113.233783 
L 178.581816 -112.963746 
L 179.173585 -112.680531 
L 179.765353 -112.38469 
L 180.357121 -112.07676 
L 180.94889 -111.757267 
L 181.540658 -111.426722 
L 182.132426 -111.085622 
L 182.724195 -110.734444 
L 183.315963 -110.373652 
L 183.907731 -110.003689 
L 184.4995 -109.62498 
L 185.091268 -109.237936 
L 185.683036 -108.842945 
L 186.274805 -108.440382 
L 186.866573 -108.030601 
L 187.458341 -107.613943 
L 188.05011 -107.190729 
L 188.641878 -106.761266 
L 189.233646 -106.325847 
L 189.825415 -105.884749 
L 190.417183 -105.438235 
L 191.008951 -104.986554 
L 191.60072 -104.529945 
L 192.192488 -104.068631 
L 192.784256 -103.602827 
L 193.376025 -103.132734 
L 193.967793 -102.658545 
L 194.559561 -102.180441 
L 195.15133 -101.698596 
L 195.743098 -101.213174 
L 196.334866 -100.724328 
L 196.926635 -100.232207 
L 197.518403 -99.736952 
L 198.110171 -99.238693 
L 198.70194 -98.737559 
L 199.293708 -98.233667 
L 199.885476 -97.727133 
L 200.477245 -97.218063 
L 201.069013 -96.706562 
L 201.660781 -96.192725 
L 202.25255 -95.676647 
L 202.844318 -95.158416 
L 202.844318 -181.178995 
L 202.844318 -181.178995 
L 202.25255 -180.563173 
L 201.660781 -179.949504 
L 201.069013 -179.338076 
L 200.477245 -178.728984 
L 199.885476 -178.122323 
L 199.293708 -177.518198 
L 198.70194 -176.916715 
L 198.110171 -176.317989 
L 197.518403 -175.72214 
L 196.926635 -175.129293 
L 196.334866 -174.539581 
L 195.743098 -173.953145 
L 195.15133 -173.370131 
L 194.559561 -172.790695 
L 193.967793 -172.215 
L 193.376025 -171.64322 
L 192.784256 -171.075536 
L 192.192488 -170.512141 
L 191.60072 -169.953236 
L 191.008951 -169.399036 
L 190.417183 -168.849764 
L 189.825415 -168.305659 
L 189.233646 -167.766969 
L 188.641878 -167.233959 
L 188.05011 -166.706906 
L 187.458341 -166.186101 
L 186.866573 -165.671851 
L 186.274805 -165.164479 
L 185.683036 -164.664325 
L 185.091268 -164.171743 
L 184.4995 -163.687107 
L 183.907731 -163.210808 
L 183.315963 -162.743254 
L 182.724195 -162.28487 
L 182.132426 -161.836102 
L 181.540658 -161.397411 
L 180.94889 -160.969275 
L 180.357121 -160.552191 
L 179.765353 -160.14667 
L 179.173585 -159.753237 
L 178.581816 -159.372431 
L 177.990048 -159.004803 
L 177.39828 -158.650909 
L 176.806511 -158.311314 
L 176.214743 -157.986585 
L 175.622975 -157.677287 
L 175.031206 -157.383982 
L 174.439438 -157.107219 
L 173.84767 -156.847537 
L 173.255901 -156.605453 
L 172.664133 -156.38146 
L 172.072365 -156.17602 
L 171.480596 -155.989561 
L 170.888828 -155.82247 
L 170.29706 -155.675086 
L 169.705291 -155.5477 
L 169.113523 -155.440546 
L 168.521755 -155.353802 
L 167.929986 -155.287584 
L 167.338218 -155.241945 
L 166.74645 -155.216877 
L 166.154681 -155.212305 
L 165.562913 -155.228094 
L 164.971145 -155.26405 
L 164.379376 -155.319921 
L 163.787608 -155.3954 
L 163.19584 -155.490132 
L 162.604071 -155.603719 
L 162.012303 -155.735721 
L 161.420535 -155.885665 
L 160.828766 -156.053051 
L 160.236998 -156.237354 
L 159.64523 -156.438033 
L 159.053461 -156.654532 
L 158.461693 -156.88629 
L 157.869925 -157.132739 
L 157.278157 -157.393315 
L 156.686388 -157.667453 
L 156.09462 -157.954598 
L 155.502852 -158.254204 
L 154.911083 -158.565736 
L 154.319315 -158.888672 
L 153.727547 -159.222506 
L 153.135778 -159.566748 
L 152.54401 -159.920922 
L 151.952242 -160.284574 
L 151.360473 -160.657264 
L 150.768705 -161.038571 
L 150.176937 -161.428094 
L 149.585168 -161.825446 
L 148.9934 -162.23026 
L 148.401632 -162.642185 
L 147.809863 -163.060888 
L 147.218095 -163.486051 
L 146.626327 -163.91737 
L 146.034558 -164.35456 
L 145.44279 -164.797347 
L 144.851022 -165.245472 
L 144.259253 -165.698689 
z
"/>
    </defs>
    <g clip-path="url(#pf13727f1cf)">
     <use xlink:href="#mc229bde04f" x="0" y="252.118125" style="fill-opacity: 0.2"/>
    </g>
   </g>
   <g id="PathCollection_2">
    <g clip-path="url(#pf13727f1cf)">
     <use xlink:href="#meff233f2a3" x="147.47523" y="186.909002" style="stroke: #000000"/>
     <use xlink:href="#meff233f2a3" x="169.555046" y="100.924715" style="stroke: #000000"/>
     <use xlink:href="#meff233f2a3" x="202.844318" y="72.942452" style="stroke: #000000"/>
     <use xlink:href="#meff233f2a3" x="192.598671" y="139.719495" style="stroke: #000000"/>
     <use xlink:href="#meff233f2a3" x="159.072329" y="156.615644" style="stroke: #000000"/>
     <use xlink:href="#meff233f2a3" x="198.923097" y="164.498993" style="stroke: #000000"/>
     <use xlink:href="#meff233f2a3" x="161.958172" y="135.966669" style="stroke: #000000"/>
     <use xlink:href="#meff233f2a3" x="154.616638" y="101.319694" style="stroke: #000000"/>
     <use xlink:href="#meff233f2a3" x="151.694469" y="81.743348" style="stroke: #000000"/>
     <use xlink:href="#meff233f2a3" x="157.196796" y="142.117934" style="stroke: #000000"/>
     <use xlink:href="#meff233f2a3" x="157.644171" y="122.694993" style="stroke: #000000"/>
     <use xlink:href="#meff233f2a3" x="167.656571" y="116.693056" style="stroke: #000000"/>
     <use xlink:href="#meff233f2a3" x="144.259253" y="55.740004" style="stroke: #000000"/>
     <use xlink:href="#meff233f2a3" x="182.653186" y="57.947792" style="stroke: #000000"/>
    </g>
   </g>
   <g id="matplotlib.axis_3">
    <g id="xtick_3">
     <g id="line2d_13">
      <g>
       <use xlink:href="#m88dbc780a5" x="152.46686" y="195.798125" style="stroke: #000000; stroke-width: 2"/>
      </g>
     </g>
     <g id="text_11">
      <!-- 0.00 -->
      <g transform="translate(141.334047 210.396562) scale(0.1 -0.1)">
       <use xlink:href="#DejaVuSans-30"/>
       <use xlink:href="#DejaVuSans-2e" transform="translate(63.623047 0)"/>
       <use xlink:href="#DejaVuSans-30" transform="translate(95.410156 0)"/>
       <use xlink:href="#DejaVuSans-30" transform="translate(159.033203 0)"/>
      </g>
     </g>
    </g>
    <g id="xtick_4">
     <g id="line2d_14">
      <g>
       <use xlink:href="#m88dbc780a5" x="198.351452" y="195.798125" style="stroke: #000000; stroke-width: 2"/>
      </g>
     </g>
     <g id="text_12">
      <!-- 0.08 -->
      <g transform="translate(187.218639 210.396562) scale(0.1 -0.1)">
       <use xlink:href="#DejaVuSans-30"/>
       <use xlink:href="#DejaVuSans-2e" transform="translate(63.623047 0)"/>
       <use xlink:href="#DejaVuSans-30" transform="translate(95.410156 0)"/>
       <use xlink:href="#DejaVuSans-38" transform="translate(159.033203 0)"/>
      </g>
     </g>
    </g>
   </g>
   <g id="matplotlib.axis_4">
    <g id="ytick_8">
     <g id="line2d_15">
      <g>
       <use xlink:href="#md7ec736a40" x="141.33" y="186.910966" style="stroke: #000000; stroke-width: 2"/>
      </g>
     </g>
    </g>
    <g id="ytick_9">
     <g id="line2d_16">
      <g>
       <use xlink:href="#md7ec736a40" x="141.33" y="162.740567" style="stroke: #000000; stroke-width: 2"/>
      </g>
     </g>
    </g>
    <g id="ytick_10">
     <g id="line2d_17">
      <g>
       <use xlink:href="#md7ec736a40" x="141.33" y="138.570167" style="stroke: #000000; stroke-width: 2"/>
      </g>
     </g>
    </g>
    <g id="ytick_11">
     <g id="line2d_18">
      <g>
       <use xlink:href="#md7ec736a40" x="141.33" y="114.399768" style="stroke: #000000; stroke-width: 2"/>
      </g>
     </g>
    </g>
    <g id="ytick_12">
     <g id="line2d_19">
      <g>
       <use xlink:href="#md7ec736a40" x="141.33" y="90.229368" style="stroke: #000000; stroke-width: 2"/>
      </g>
     </g>
    </g>
    <g id="ytick_13">
     <g id="line2d_20">
      <g>
       <use xlink:href="#md7ec736a40" x="141.33" y="66.058969" style="stroke: #000000; stroke-width: 2"/>
      </g>
     </g>
    </g>
    <g id="ytick_14">
     <g id="line2d_21">
      <g>
       <use xlink:href="#md7ec736a40" x="141.33" y="41.888569" style="stroke: #000000; stroke-width: 2"/>
      </g>
     </g>
    </g>
   </g>
   <g id="line2d_22">
    <path d="M 144.259253 118.780178 
L 144.851022 118.731382 
L 145.44279 118.682586 
L 146.034558 118.633791 
L 146.626327 118.584995 
L 147.218095 118.5362 
L 147.809863 118.487404 
L 148.401632 118.438609 
L 148.9934 118.389813 
L 149.585168 118.341018 
L 150.176937 118.292222 
L 150.768705 118.243427 
L 151.360473 118.194631 
L 151.952242 118.145836 
L 152.54401 118.09704 
L 153.135778 118.048244 
L 153.727547 117.999449 
L 154.319315 117.950653 
L 154.911083 117.901858 
L 155.502852 117.853062 
L 156.09462 117.804267 
L 156.686388 117.755471 
L 157.278157 117.706676 
L 157.869925 117.65788 
L 158.461693 117.609085 
L 159.053461 117.560289 
L 159.64523 117.511494 
L 160.236998 117.462698 
L 160.828766 117.413902 
L 161.420535 117.365107 
L 162.012303 117.316311 
L 162.604071 117.267516 
L 163.19584 117.21872 
L 163.787608 117.169925 
L 164.379376 117.121129 
L 164.971145 117.072334 
L 165.562913 117.023538 
L 166.154681 116.974743 
L 166.74645 116.925947 
L 167.338218 116.877152 
L 167.929986 116.828356 
L 168.521755 116.779561 
L 169.113523 116.730765 
L 169.705291 116.681969 
L 170.29706 116.633174 
L 170.888828 116.584378 
L 171.480596 116.535583 
L 172.072365 116.486787 
L 172.664133 116.437992 
L 173.255901 116.389196 
L 173.84767 116.340401 
L 174.439438 116.291605 
L 175.031206 116.24281 
L 175.622975 116.194014 
L 176.214743 116.145219 
L 176.806511 116.096423 
L 177.39828 116.047627 
L 177.990048 115.998832 
L 178.581816 115.950036 
L 179.173585 115.901241 
L 179.765353 115.852445 
L 180.357121 115.80365 
L 180.94889 115.754854 
L 181.540658 115.706059 
L 182.132426 115.657263 
L 182.724195 115.608468 
L 183.315963 115.559672 
L 183.907731 115.510877 
L 184.4995 115.462081 
L 185.091268 115.413285 
L 185.683036 115.36449 
L 186.274805 115.315694 
L 186.866573 115.266899 
L 187.458341 115.218103 
L 188.05011 115.169308 
L 188.641878 115.120512 
L 189.233646 115.071717 
L 189.825415 115.022921 
L 190.417183 114.974126 
L 191.008951 114.92533 
L 191.60072 114.876535 
L 192.192488 114.827739 
L 192.784256 114.778944 
L 193.376025 114.730148 
L 193.967793 114.681352 
L 194.559561 114.632557 
L 195.15133 114.583761 
L 195.743098 114.534966 
L 196.334866 114.48617 
L 196.926635 114.437375 
L 197.518403 114.388579 
L 198.110171 114.339784 
L 198.70194 114.290988 
L 199.293708 114.242193 
L 199.885476 114.193397 
L 200.477245 114.144602 
L 201.069013 114.095806 
L 201.660781 114.04701 
L 202.25255 113.998215 
L 202.844318 113.949419 
" clip-path="url(#pf13727f1cf)" style="fill: none; stroke-dasharray: 5.55,2.4; stroke-dashoffset: 0; stroke: #000000; stroke-width: 1.5"/>
   </g>
   <g id="line2d_23">
    <path d="M 152.46686 195.798125 
L 152.46686 22.318125 
" clip-path="url(#pf13727f1cf)" style="fill: none; stroke: #000000; stroke-width: 0.8; stroke-linecap: square"/>
   </g>
   <g id="line2d_24">
    <path d="M 141.33 186.910966 
L 205.773571 186.910966 
" clip-path="url(#pf13727f1cf)" style="fill: none; stroke: #000000; stroke-width: 0.8; stroke-linecap: square"/>
   </g>
   <g id="patch_6">
    <path d="M 141.33 186.910966 
L 141.33 41.888569 
" style="fill: none; stroke: #000000; stroke-width: 2; stroke-linejoin: miter; stroke-linecap: square"/>
   </g>
   <g id="patch_7">
    <path d="M 152.46686 195.798125 
L 198.351452 195.798125 
" style="fill: none; stroke: #000000; stroke-width: 2; stroke-linejoin: miter; stroke-linecap: square"/>
   </g>
   <g id="text_13">
    <!-- S1 -->
    <g transform="translate(165.925223 16.318125) scale(0.12 -0.12)">
     <defs>
      <path id="DejaVuSans-53" d="M 3425 4513 
L 3425 3897 
Q 3066 4069 2747 4153 
Q 2428 4238 2131 4238 
Q 1616 4238 1336 4038 
Q 1056 3838 1056 3469 
Q 1056 3159 1242 3001 
Q 1428 2844 1947 2747 
L 2328 2669 
Q 3034 2534 3370 2195 
Q 3706 1856 3706 1288 
Q 3706 609 3251 259 
Q 2797 -91 1919 -91 
Q 1588 -91 1214 -16 
Q 841 59 441 206 
L 441 856 
Q 825 641 1194 531 
Q 1563 422 1919 422 
Q 2459 422 2753 634 
Q 3047 847 3047 1241 
Q 3047 1584 2836 1778 
Q 2625 1972 2144 2069 
L 1759 2144 
Q 1053 2284 737 2584 
Q 422 2884 422 3419 
Q 422 4038 858 4394 
Q 1294 4750 2059 4750 
Q 2388 4750 2728 4690 
Q 3069 4631 3425 4513 
z
" transform="scale(0.015625)"/>
     </defs>
     <use xlink:href="#DejaVuSans-53"/>
     <use xlink:href="#DejaVuSans-31" transform="translate(63.476562 0)"/>
    </g>
   </g>
  </g>
  <g id="text_14">
   <!-- finger pre-activation (N) -->
   <g transform="translate(38.633437 242.4225) scale(0.12 -0.12)">
    <defs>
     <path id="DejaVuSans-66" d="M 2375 4863 
L 2375 4384 
L 1825 4384 
Q 1516 4384 1395 4259 
Q 1275 4134 1275 3809 
L 1275 3500 
L 2222 3500 
L 2222 3053 
L 1275 3053 
L 1275 0 
L 697 0 
L 697 3053 
L 147 3053 
L 147 3500 
L 697 3500 
L 697 3744 
Q 697 4328 969 4595 
Q 1241 4863 1831 4863 
L 2375 4863 
z
" transform="scale(0.015625)"/>
     <path id="DejaVuSans-69" d="M 603 3500 
L 1178 3500 
L 1178 0 
L 603 0 
L 603 3500 
z
M 603 4863 
L 1178 4863 
L 1178 4134 
L 603 4134 
L 603 4863 
z
" transform="scale(0.015625)"/>
     <path id="DejaVuSans-6e" d="M 3513 2113 
L 3513 0 
L 2938 0 
L 2938 2094 
Q 2938 2591 2744 2837 
Q 2550 3084 2163 3084 
Q 1697 3084 1428 2787 
Q 1159 2491 1159 1978 
L 1159 0 
L 581 0 
L 581 3500 
L 1159 3500 
L 1159 2956 
Q 1366 3272 1645 3428 
Q 1925 3584 2291 3584 
Q 2894 3584 3203 3211 
Q 3513 2838 3513 2113 
z
" transform="scale(0.015625)"/>
     <path id="DejaVuSans-67" d="M 2906 1791 
Q 2906 2416 2648 2759 
Q 2391 3103 1925 3103 
Q 1463 3103 1205 2759 
Q 947 2416 947 1791 
Q 947 1169 1205 825 
Q 1463 481 1925 481 
Q 2391 481 2648 825 
Q 2906 1169 2906 1791 
z
M 3481 434 
Q 3481 -459 3084 -895 
Q 2688 -1331 1869 -1331 
Q 1566 -1331 1297 -1286 
Q 1028 -1241 775 -1147 
L 775 -588 
Q 1028 -725 1275 -790 
Q 1522 -856 1778 -856 
Q 2344 -856 2625 -561 
Q 2906 -266 2906 331 
L 2906 616 
Q 2728 306 2450 153 
Q 2172 0 1784 0 
Q 1141 0 747 490 
Q 353 981 353 1791 
Q 353 2603 747 3093 
Q 1141 3584 1784 3584 
Q 2172 3584 2450 3431 
Q 2728 3278 2906 2969 
L 2906 3500 
L 3481 3500 
L 3481 434 
z
" transform="scale(0.015625)"/>
     <path id="DejaVuSans-65" d="M 3597 1894 
L 3597 1613 
L 953 1613 
Q 991 1019 1311 708 
Q 1631 397 2203 397 
Q 2534 397 2845 478 
Q 3156 559 3463 722 
L 3463 178 
Q 3153 47 2828 -22 
Q 2503 -91 2169 -91 
Q 1331 -91 842 396 
Q 353 884 353 1716 
Q 353 2575 817 3079 
Q 1281 3584 2069 3584 
Q 2775 3584 3186 3129 
Q 3597 2675 3597 1894 
z
M 3022 2063 
Q 3016 2534 2758 2815 
Q 2500 3097 2075 3097 
Q 1594 3097 1305 2825 
Q 1016 2553 972 2059 
L 3022 2063 
z
" transform="scale(0.015625)"/>
     <path id="DejaVuSans-72" d="M 2631 2963 
Q 2534 3019 2420 3045 
Q 2306 3072 2169 3072 
Q 1681 3072 1420 2755 
Q 1159 2438 1159 1844 
L 1159 0 
L 581 0 
L 581 3500 
L 1159 3500 
L 1159 2956 
Q 1341 3275 1631 3429 
Q 1922 3584 2338 3584 
Q 2397 3584 2469 3576 
Q 2541 3569 2628 3553 
L 2631 2963 
z
" transform="scale(0.015625)"/>
     <path id="DejaVuSans-20" transform="scale(0.015625)"/>
     <path id="DejaVuSans-70" d="M 1159 525 
L 1159 -1331 
L 581 -1331 
L 581 3500 
L 1159 3500 
L 1159 2969 
Q 1341 3281 1617 3432 
Q 1894 3584 2278 3584 
Q 2916 3584 3314 3078 
Q 3713 2572 3713 1747 
Q 3713 922 3314 415 
Q 2916 -91 2278 -91 
Q 1894 -91 1617 61 
Q 1341 213 1159 525 
z
M 3116 1747 
Q 3116 2381 2855 2742 
Q 2594 3103 2138 3103 
Q 1681 3103 1420 2742 
Q 1159 2381 1159 1747 
Q 1159 1113 1420 752 
Q 1681 391 2138 391 
Q 2594 391 2855 752 
Q 3116 1113 3116 1747 
z
" transform="scale(0.015625)"/>
     <path id="DejaVuSans-2d" d="M 313 2009 
L 1997 2009 
L 1997 1497 
L 313 1497 
L 313 2009 
z
" transform="scale(0.015625)"/>
     <path id="DejaVuSans-61" d="M 2194 1759 
Q 1497 1759 1228 1600 
Q 959 1441 959 1056 
Q 959 750 1161 570 
Q 1363 391 1709 391 
Q 2188 391 2477 730 
Q 2766 1069 2766 1631 
L 2766 1759 
L 2194 1759 
z
M 3341 1997 
L 3341 0 
L 2766 0 
L 2766 531 
Q 2569 213 2275 61 
Q 1981 -91 1556 -91 
Q 1019 -91 701 211 
Q 384 513 384 1019 
Q 384 1609 779 1909 
Q 1175 2209 1959 2209 
L 2766 2209 
L 2766 2266 
Q 2766 2663 2505 2880 
Q 2244 3097 1772 3097 
Q 1472 3097 1187 3025 
Q 903 2953 641 2809 
L 641 3341 
Q 956 3463 1253 3523 
Q 1550 3584 1831 3584 
Q 2591 3584 2966 3190 
Q 3341 2797 3341 1997 
z
" transform="scale(0.015625)"/>
     <path id="DejaVuSans-63" d="M 3122 3366 
L 3122 2828 
Q 2878 2963 2633 3030 
Q 2388 3097 2138 3097 
Q 1578 3097 1268 2742 
Q 959 2388 959 1747 
Q 959 1106 1268 751 
Q 1578 397 2138 397 
Q 2388 397 2633 464 
Q 2878 531 3122 666 
L 3122 134 
Q 2881 22 2623 -34 
Q 2366 -91 2075 -91 
Q 1284 -91 818 406 
Q 353 903 353 1747 
Q 353 2603 823 3093 
Q 1294 3584 2113 3584 
Q 2378 3584 2631 3529 
Q 2884 3475 3122 3366 
z
" transform="scale(0.015625)"/>
     <path id="DejaVuSans-74" d="M 1172 4494 
L 1172 3500 
L 2356 3500 
L 2356 3053 
L 1172 3053 
L 1172 1153 
Q 1172 725 1289 603 
Q 1406 481 1766 481 
L 2356 481 
L 2356 0 
L 1766 0 
Q 1100 0 847 248 
Q 594 497 594 1153 
L 594 3053 
L 172 3053 
L 172 3500 
L 594 3500 
L 594 4494 
L 1172 4494 
z
" transform="scale(0.015625)"/>
     <path id="DejaVuSans-76" d="M 191 3500 
L 800 3500 
L 1894 563 
L 2988 3500 
L 3597 3500 
L 2284 0 
L 1503 0 
L 191 3500 
z
" transform="scale(0.015625)"/>
     <path id="DejaVuSans-6f" d="M 1959 3097 
Q 1497 3097 1228 2736 
Q 959 2375 959 1747 
Q 959 1119 1226 758 
Q 1494 397 1959 397 
Q 2419 397 2687 759 
Q 2956 1122 2956 1747 
Q 2956 2369 2687 2733 
Q 2419 3097 1959 3097 
z
M 1959 3584 
Q 2709 3584 3137 3096 
Q 3566 2609 3566 1747 
Q 3566 888 3137 398 
Q 2709 -91 1959 -91 
Q 1206 -91 779 398 
Q 353 888 353 1747 
Q 353 2609 779 3096 
Q 1206 3584 1959 3584 
z
" transform="scale(0.015625)"/>
     <path id="DejaVuSans-28" d="M 1984 4856 
Q 1566 4138 1362 3434 
Q 1159 2731 1159 2009 
Q 1159 1288 1364 580 
Q 1569 -128 1984 -844 
L 1484 -844 
Q 1016 -109 783 600 
Q 550 1309 550 2009 
Q 550 2706 781 3412 
Q 1013 4119 1484 4856 
L 1984 4856 
z
" transform="scale(0.015625)"/>
     <path id="DejaVuSans-4e" d="M 628 4666 
L 1478 4666 
L 3547 763 
L 3547 4666 
L 4159 4666 
L 4159 0 
L 3309 0 
L 1241 3903 
L 1241 0 
L 628 0 
L 628 4666 
z
" transform="scale(0.015625)"/>
     <path id="DejaVuSans-29" d="M 513 4856 
L 1013 4856 
Q 1481 4119 1714 3412 
Q 1947 2706 1947 2009 
Q 1947 1309 1714 600 
Q 1481 -109 1013 -844 
L 513 -844 
Q 928 -128 1133 580 
Q 1338 1288 1338 2009 
Q 1338 2731 1133 3434 
Q 928 4138 513 4856 
z
" transform="scale(0.015625)"/>
    </defs>
    <use xlink:href="#DejaVuSans-66"/>
    <use xlink:href="#DejaVuSans-69" transform="translate(35.205078 0)"/>
    <use xlink:href="#DejaVuSans-6e" transform="translate(62.988281 0)"/>
    <use xlink:href="#DejaVuSans-67" transform="translate(126.367188 0)"/>
    <use xlink:href="#DejaVuSans-65" transform="translate(189.84375 0)"/>
    <use xlink:href="#DejaVuSans-72" transform="translate(251.367188 0)"/>
    <use xlink:href="#DejaVuSans-20" transform="translate(292.480469 0)"/>
    <use xlink:href="#DejaVuSans-70" transform="translate(324.267578 0)"/>
    <use xlink:href="#DejaVuSans-72" transform="translate(387.744141 0)"/>
    <use xlink:href="#DejaVuSans-65" transform="translate(426.607422 0)"/>
    <use xlink:href="#DejaVuSans-2d" transform="translate(488.130859 0)"/>
    <use xlink:href="#DejaVuSans-61" transform="translate(524.214844 0)"/>
    <use xlink:href="#DejaVuSans-63" transform="translate(585.494141 0)"/>
    <use xlink:href="#DejaVuSans-74" transform="translate(640.474609 0)"/>
    <use xlink:href="#DejaVuSans-69" transform="translate(679.683594 0)"/>
    <use xlink:href="#DejaVuSans-76" transform="translate(707.466797 0)"/>
    <use xlink:href="#DejaVuSans-61" transform="translate(766.646484 0)"/>
    <use xlink:href="#DejaVuSans-74" transform="translate(827.925781 0)"/>
    <use xlink:href="#DejaVuSans-69" transform="translate(867.134766 0)"/>
    <use xlink:href="#DejaVuSans-6f" transform="translate(894.917969 0)"/>
    <use xlink:href="#DejaVuSans-6e" transform="translate(956.099609 0)"/>
    <use xlink:href="#DejaVuSans-20" transform="translate(1019.478516 0)"/>
    <use xlink:href="#DejaVuSans-28" transform="translate(1051.265625 0)"/>
    <use xlink:href="#DejaVuSans-4e" transform="translate(1090.279297 0)"/>
    <use xlink:href="#DejaVuSans-29" transform="translate(1165.083984 0)"/>
   </g>
  </g>
  <g id="text_15">
   <!-- Cue variance (a.u.) -->
   <g transform="translate(16.318125 178.742812) rotate(-90) scale(0.12 -0.12)">
    <defs>
     <path id="DejaVuSans-43" d="M 4122 4306 
L 4122 3641 
Q 3803 3938 3442 4084 
Q 3081 4231 2675 4231 
Q 1875 4231 1450 3742 
Q 1025 3253 1025 2328 
Q 1025 1406 1450 917 
Q 1875 428 2675 428 
Q 3081 428 3442 575 
Q 3803 722 4122 1019 
L 4122 359 
Q 3791 134 3420 21 
Q 3050 -91 2638 -91 
Q 1578 -91 968 557 
Q 359 1206 359 2328 
Q 359 3453 968 4101 
Q 1578 4750 2638 4750 
Q 3056 4750 3426 4639 
Q 3797 4528 4122 4306 
z
" transform="scale(0.015625)"/>
     <path id="DejaVuSans-75" d="M 544 1381 
L 544 3500 
L 1119 3500 
L 1119 1403 
Q 1119 906 1312 657 
Q 1506 409 1894 409 
Q 2359 409 2629 706 
Q 2900 1003 2900 1516 
L 2900 3500 
L 3475 3500 
L 3475 0 
L 2900 0 
L 2900 538 
Q 2691 219 2414 64 
Q 2138 -91 1772 -91 
Q 1169 -91 856 284 
Q 544 659 544 1381 
z
M 1991 3584 
L 1991 3584 
z
" transform="scale(0.015625)"/>
    </defs>
    <use xlink:href="#DejaVuSans-43"/>
    <use xlink:href="#DejaVuSans-75" transform="translate(69.824219 0)"/>
    <use xlink:href="#DejaVuSans-65" transform="translate(133.203125 0)"/>
    <use xlink:href="#DejaVuSans-20" transform="translate(194.726562 0)"/>
    <use xlink:href="#DejaVuSans-76" transform="translate(226.513672 0)"/>
    <use xlink:href="#DejaVuSans-61" transform="translate(285.693359 0)"/>
    <use xlink:href="#DejaVuSans-72" transform="translate(346.972656 0)"/>
    <use xlink:href="#DejaVuSans-69" transform="translate(388.085938 0)"/>
    <use xlink:href="#DejaVuSans-61" transform="translate(415.869141 0)"/>
    <use xlink:href="#DejaVuSans-6e" transform="translate(477.148438 0)"/>
    <use xlink:href="#DejaVuSans-63" transform="translate(540.527344 0)"/>
    <use xlink:href="#DejaVuSans-65" transform="translate(595.507812 0)"/>
    <use xlink:href="#DejaVuSans-20" transform="translate(657.03125 0)"/>
    <use xlink:href="#DejaVuSans-28" transform="translate(688.818359 0)"/>
    <use xlink:href="#DejaVuSans-61" transform="translate(727.832031 0)"/>
    <use xlink:href="#DejaVuSans-2e" transform="translate(789.111328 0)"/>
    <use xlink:href="#DejaVuSans-75" transform="translate(820.898438 0)"/>
    <use xlink:href="#DejaVuSans-2e" transform="translate(884.277344 0)"/>
    <use xlink:href="#DejaVuSans-29" transform="translate(916.064453 0)"/>
   </g>
  </g>
 </g>
 <defs>
  <clipPath id="p7cc91ecf0d">
   <rect x="60.28" y="22.318125" width="64.443571" height="173.48"/>
  </clipPath>
  <clipPath id="pf13727f1cf">
   <rect x="141.33" y="22.318125" width="64.443571" height="173.48"/>
  </clipPath>
 </defs>
</svg>
