<?xml version="1.0" encoding="utf-8" standalone="no"?>
<!DOCTYPE svg PUBLIC "-//W3C//DTD SVG 1.1//EN"
  "http://www.w3.org/Graphics/SVG/1.1/DTD/svg11.dtd">
<svg xmlns:xlink="http://www.w3.org/1999/xlink" width="216pt" height="252pt" viewBox="0 0 216 252" xmlns="http://www.w3.org/2000/svg" version="1.1">
 <metadata>
  <rdf:RDF xmlns:dc="http://purl.org/dc/elements/1.1/" xmlns:cc="http://creativecommons.org/ns#" xmlns:rdf="http://www.w3.org/1999/02/22-rdf-syntax-ns#">
   <cc:Work>
    <dc:type rdf:resource="http://purl.org/dc/dcmitype/StillImage"/>
    <dc:date>2025-08-07T16:52:16.640333</dc:date>
    <dc:format>image/svg+xml</dc:format>
    <dc:creator>
     <cc:Agent>
      <dc:title>Matplotlib v3.10.1, https://matplotlib.org/</dc:title>
     </cc:Agent>
    </dc:creator>
   </cc:Work>
  </rdf:RDF>
 </metadata>
 <defs>
  <style type="text/css">*{stroke-linejoin: round; stroke-linecap: butt}</style>
 </defs>
 <g id="figure_1">
  <g id="patch_1">
   <path d="M 0 252 
L 216 252 
L 216 0 
L 0 0 
z
" style="fill: #ffffff"/>
  </g>
  <g id="axes_1">
   <g id="patch_2">
    <path d="M 47.72 203.24 
L 117.003571 203.24 
L 117.003571 49.536 
L 47.72 49.536 
z
" style="fill: #ffffff"/>
   </g>
   <g id="FillBetweenPolyCollection_1">
    <defs>
     <path id="mc65a01f29d" d="M 50.869253 -116.840509 
L 50.869253 -60.950104 
L 51.505466 -61.42395 
L 52.141679 -61.893399 
L 52.777892 -62.358239 
L 53.414104 -62.818245 
L 54.050317 -63.273182 
L 54.68653 -63.722801 
L 55.322743 -64.166843 
L 55.958955 -64.605032 
L 56.595168 -65.03708 
L 57.231381 -65.462684 
L 57.867594 -65.881527 
L 58.503807 -66.293276 
L 59.140019 -66.697583 
L 59.776232 -67.094085 
L 60.412445 -67.482403 
L 61.048658 -67.862143 
L 61.68487 -68.232896 
L 62.321083 -68.594238 
L 62.957296 -68.945732 
L 63.593509 -69.286928 
L 64.229722 -69.617362 
L 64.865934 -69.936565 
L 65.502147 -70.244055 
L 66.13836 -70.539347 
L 66.774573 -70.821951 
L 67.410785 -71.09138 
L 68.046998 -71.347146 
L 68.683211 -71.588771 
L 69.319424 -71.815788 
L 69.955636 -72.027742 
L 70.591849 -72.224202 
L 71.228062 -72.40476 
L 71.864275 -72.569036 
L 72.500488 -72.716686 
L 73.1367 -72.847403 
L 73.772913 -72.960922 
L 74.409126 -73.057027 
L 75.045339 -73.135549 
L 75.681551 -73.19637 
L 76.317764 -73.239429 
L 76.953977 -73.264716 
L 77.59019 -73.272277 
L 78.226403 -73.262214 
L 78.862615 -73.234679 
L 79.498828 -73.189875 
L 80.135041 -73.128053 
L 80.771254 -73.049505 
L 81.407466 -72.954567 
L 82.043679 -72.843607 
L 82.679892 -72.717024 
L 83.316105 -72.575245 
L 83.952318 -72.418715 
L 84.58853 -72.2479 
L 85.224743 -72.063275 
L 85.860956 -71.865324 
L 86.497169 -71.654536 
L 87.133381 -71.4314 
L 87.769594 -71.196403 
L 88.405807 -70.950027 
L 89.04202 -70.692747 
L 89.678232 -70.425028 
L 90.314445 -70.147323 
L 90.950658 -69.860075 
L 91.586871 -69.563712 
L 92.223084 -69.258646 
L 92.859296 -68.945278 
L 93.495509 -68.62399 
L 94.131722 -68.29515 
L 94.767935 -67.959111 
L 95.404147 -67.616211 
L 96.04036 -67.266771 
L 96.676573 -66.911098 
L 97.312786 -66.549486 
L 97.948999 -66.182214 
L 98.585211 -65.809545 
L 99.221424 -65.431732 
L 99.857637 -65.049015 
L 100.49385 -64.661621 
L 101.130062 -64.269766 
L 101.766275 -63.873655 
L 102.402488 -63.473481 
L 103.038701 -63.069429 
L 103.674914 -62.661674 
L 104.311126 -62.250381 
L 104.947339 -61.835709 
L 105.583552 -61.417805 
L 106.219765 -60.996811 
L 106.855977 -60.572862 
L 107.49219 -60.146085 
L 108.128403 -59.7166 
L 108.764616 -59.284522 
L 109.400829 -58.849961 
L 110.037041 -58.413019 
L 110.673254 -57.973794 
L 111.309467 -57.532381 
L 111.94568 -57.088867 
L 112.581892 -56.643337 
L 113.218105 -56.195871 
L 113.854318 -55.746545 
L 113.854318 -130.029842 
L 113.854318 -130.029842 
L 113.218105 -129.499852 
L 112.581892 -128.971722 
L 111.94568 -128.445527 
L 111.309467 -127.921349 
L 110.673254 -127.399271 
L 110.037041 -126.879382 
L 109.400829 -126.361776 
L 108.764616 -125.84655 
L 108.128403 -125.333808 
L 107.49219 -124.823659 
L 106.855977 -124.316217 
L 106.219765 -123.811603 
L 105.583552 -123.309945 
L 104.947339 -122.811377 
L 104.311126 -122.31604 
L 103.674914 -121.824083 
L 103.038701 -121.335664 
L 102.402488 -120.850947 
L 101.766275 -120.370109 
L 101.130062 -119.893333 
L 100.49385 -119.420813 
L 99.857637 -118.952755 
L 99.221424 -118.489374 
L 98.585211 -118.030897 
L 97.948999 -117.577564 
L 97.312786 -117.129627 
L 96.676573 -116.68735 
L 96.04036 -116.251013 
L 95.404147 -115.820909 
L 94.767935 -115.397344 
L 94.131722 -114.980641 
L 93.495509 -114.571137 
L 92.859296 -114.169184 
L 92.223084 -113.775151 
L 91.586871 -113.389422 
L 90.950658 -113.012394 
L 90.314445 -112.644482 
L 89.678232 -112.286113 
L 89.04202 -111.937729 
L 88.405807 -111.599785 
L 87.769594 -111.272744 
L 87.133381 -110.957083 
L 86.497169 -110.653282 
L 85.860956 -110.36183 
L 85.224743 -110.083214 
L 84.58853 -109.817925 
L 83.952318 -109.566445 
L 83.316105 -109.329252 
L 82.679892 -109.106808 
L 82.043679 -108.899561 
L 81.407466 -108.707936 
L 80.771254 -108.532333 
L 80.135041 -108.373122 
L 79.498828 -108.230635 
L 78.862615 -108.105166 
L 78.226403 -107.996967 
L 77.59019 -107.90624 
L 76.953977 -107.833137 
L 76.317764 -107.77776 
L 75.681551 -107.740153 
L 75.045339 -107.720311 
L 74.409126 -107.718168 
L 73.772913 -107.733608 
L 73.1367 -107.766464 
L 72.500488 -107.816516 
L 71.864275 -107.883501 
L 71.228062 -107.967113 
L 70.591849 -108.067006 
L 69.955636 -108.182802 
L 69.319424 -108.314092 
L 68.683211 -108.460444 
L 68.046998 -108.621405 
L 67.410785 -108.796507 
L 66.774573 -108.985271 
L 66.13836 -109.187211 
L 65.502147 -109.401839 
L 64.865934 -109.628664 
L 64.229722 -109.867202 
L 63.593509 -110.116973 
L 62.957296 -110.377504 
L 62.321083 -110.648333 
L 61.68487 -110.929011 
L 61.048658 -111.219099 
L 60.412445 -111.518175 
L 59.776232 -111.825829 
L 59.140019 -112.141667 
L 58.503807 -112.465309 
L 57.867594 -112.796394 
L 57.231381 -113.134572 
L 56.595168 -113.479512 
L 55.958955 -113.830896 
L 55.322743 -114.18842 
L 54.68653 -114.551797 
L 54.050317 -114.920753 
L 53.414104 -115.295026 
L 52.777892 -115.674367 
L 52.141679 -116.058542 
L 51.505466 -116.447327 
L 50.869253 -116.840509 
z
"/>
    </defs>
    <g clip-path="url(#pac379b25e6)">
     <use xlink:href="#mc65a01f29d" x="0" y="252" style="fill-opacity: 0.2"/>
    </g>
   </g>
   <g id="PathCollection_1">
    <defs>
     <path id="mb8aa878c2f" d="M 0 3 
C 0.795609 3 1.55874 2.683901 2.12132 2.12132 
C 2.683901 1.55874 3 0.795609 3 0 
C 3 -0.795609 2.683901 -1.55874 2.12132 -2.12132 
C 1.55874 -2.683901 0.795609 -3 0 -3 
C -0.795609 -3 -1.55874 -2.683901 -2.12132 -2.12132 
C -2.683901 -1.55874 -3 -0.795609 -3 0 
C -3 0.795609 -2.683901 1.55874 -2.12132 2.12132 
C -1.55874 2.683901 -0.795609 3 0 3 
z
" style="stroke: #000000"/>
    </defs>
    <g clip-path="url(#pac379b25e6)">
     <use xlink:href="#mb8aa878c2f" x="54.326765" y="184.134282" style="stroke: #000000"/>
     <use xlink:href="#mb8aa878c2f" x="78.064873" y="145.733501" style="stroke: #000000"/>
     <use xlink:href="#mb8aa878c2f" x="113.854318" y="174.76589" style="stroke: #000000"/>
     <use xlink:href="#mb8aa878c2f" x="102.839177" y="184.134282" style="stroke: #000000"/>
     <use xlink:href="#mb8aa878c2f" x="66.794857" y="183.426745" style="stroke: #000000"/>
     <use xlink:href="#mb8aa878c2f" x="109.638596" y="177.596252" style="stroke: #000000"/>
     <use xlink:href="#mb8aa878c2f" x="69.89744" y="183.983925" style="stroke: #000000"/>
     <use xlink:href="#mb8aa878c2f" x="62.004524" y="160.083389" style="stroke: #000000"/>
     <use xlink:href="#mb8aa878c2f" x="58.862887" y="139.525622" style="stroke: #000000"/>
     <use xlink:href="#mb8aa878c2f" x="64.778464" y="182.011966" style="stroke: #000000"/>
     <use xlink:href="#mb8aa878c2f" x="65.259438" y="183.632115" style="stroke: #000000"/>
     <use xlink:href="#mb8aa878c2f" x="76.023815" y="169.033992" style="stroke: #000000"/>
     <use xlink:href="#mb8aa878c2f" x="50.869253" y="136.49091" style="stroke: #000000"/>
     <use xlink:href="#mb8aa878c2f" x="92.146741" y="56.522545" style="stroke: #000000"/>
    </g>
   </g>
   <g id="matplotlib.axis_1">
    <g id="xtick_1">
     <g id="line2d_1">
      <defs>
       <path id="m9f9c2a52bf" d="M 0 0 
L 0 3.5 
" style="stroke: #000000; stroke-width: 0.8"/>
      </defs>
      <g>
       <use xlink:href="#m9f9c2a52bf" x="59.693288" y="203.24" style="stroke: #000000; stroke-width: 0.8"/>
      </g>
     </g>
     <g id="text_1">
      <!-- 0.00 -->
      <g transform="translate(48.560475 217.838437) scale(0.1 -0.1)">
       <defs>
        <path id="DejaVuSans-30" d="M 2034 4250 
Q 1547 4250 1301 3770 
Q 1056 3291 1056 2328 
Q 1056 1369 1301 889 
Q 1547 409 2034 409 
Q 2525 409 2770 889 
Q 3016 1369 3016 2328 
Q 3016 3291 2770 3770 
Q 2525 4250 2034 4250 
z
M 2034 4750 
Q 2819 4750 3233 4129 
Q 3647 3509 3647 2328 
Q 3647 1150 3233 529 
Q 2819 -91 2034 -91 
Q 1250 -91 836 529 
Q 422 1150 422 2328 
Q 422 3509 836 4129 
Q 1250 4750 2034 4750 
z
" transform="scale(0.015625)"/>
        <path id="DejaVuSans-2e" d="M 684 794 
L 1344 794 
L 1344 0 
L 684 0 
L 684 794 
z
" transform="scale(0.015625)"/>
       </defs>
       <use xlink:href="#DejaVuSans-30"/>
       <use xlink:href="#DejaVuSans-2e" transform="translate(63.623047 0)"/>
       <use xlink:href="#DejaVuSans-30" transform="translate(95.410156 0)"/>
       <use xlink:href="#DejaVuSans-30" transform="translate(159.033203 0)"/>
      </g>
     </g>
    </g>
    <g id="xtick_2">
     <g id="line2d_2">
      <g>
       <use xlink:href="#m9f9c2a52bf" x="109.024017" y="203.24" style="stroke: #000000; stroke-width: 0.8"/>
      </g>
     </g>
     <g id="text_2">
      <!-- 0.08 -->
      <g transform="translate(97.891205 217.838437) scale(0.1 -0.1)">
       <defs>
        <path id="DejaVuSans-38" d="M 2034 2216 
Q 1584 2216 1326 1975 
Q 1069 1734 1069 1313 
Q 1069 891 1326 650 
Q 1584 409 2034 409 
Q 2484 409 2743 651 
Q 3003 894 3003 1313 
Q 3003 1734 2745 1975 
Q 2488 2216 2034 2216 
z
M 1403 2484 
Q 997 2584 770 2862 
Q 544 3141 544 3541 
Q 544 4100 942 4425 
Q 1341 4750 2034 4750 
Q 2731 4750 3128 4425 
Q 3525 4100 3525 3541 
Q 3525 3141 3298 2862 
Q 3072 2584 2669 2484 
Q 3125 2378 3379 2068 
Q 3634 1759 3634 1313 
Q 3634 634 3220 271 
Q 2806 -91 2034 -91 
Q 1263 -91 848 271 
Q 434 634 434 1313 
Q 434 1759 690 2068 
Q 947 2378 1403 2484 
z
M 1172 3481 
Q 1172 3119 1398 2916 
Q 1625 2713 2034 2713 
Q 2441 2713 2670 2916 
Q 2900 3119 2900 3481 
Q 2900 3844 2670 4047 
Q 2441 4250 2034 4250 
Q 1625 4250 1398 4047 
Q 1172 3844 1172 3481 
z
" transform="scale(0.015625)"/>
       </defs>
       <use xlink:href="#DejaVuSans-30"/>
       <use xlink:href="#DejaVuSans-2e" transform="translate(63.623047 0)"/>
       <use xlink:href="#DejaVuSans-30" transform="translate(95.410156 0)"/>
       <use xlink:href="#DejaVuSans-38" transform="translate(159.033203 0)"/>
      </g>
     </g>
    </g>
   </g>
   <g id="matplotlib.axis_2">
    <g id="ytick_1">
     <g id="line2d_3">
      <defs>
       <path id="m07939d18a7" d="M 0 0 
L -3.5 0 
" style="stroke: #000000; stroke-width: 0.8"/>
      </defs>
      <g>
       <use xlink:href="#m07939d18a7" x="47.72" y="184.134282" style="stroke: #000000; stroke-width: 0.8"/>
      </g>
     </g>
     <g id="text_3">
      <!-- 0.0 -->
      <g transform="translate(24.816875 187.9335) scale(0.1 -0.1)">
       <use xlink:href="#DejaVuSans-30"/>
       <use xlink:href="#DejaVuSans-2e" transform="translate(63.623047 0)"/>
       <use xlink:href="#DejaVuSans-30" transform="translate(95.410156 0)"/>
      </g>
     </g>
    </g>
    <g id="ytick_2">
     <g id="line2d_4">
      <g>
       <use xlink:href="#m07939d18a7" x="47.72" y="153.77585" style="stroke: #000000; stroke-width: 0.8"/>
      </g>
     </g>
     <g id="text_4">
      <!-- 0.1 -->
      <g transform="translate(24.816875 157.575068) scale(0.1 -0.1)">
       <defs>
        <path id="DejaVuSans-31" d="M 794 531 
L 1825 531 
L 1825 4091 
L 703 3866 
L 703 4441 
L 1819 4666 
L 2450 4666 
L 2450 531 
L 3481 531 
L 3481 0 
L 794 0 
L 794 531 
z
" transform="scale(0.015625)"/>
       </defs>
       <use xlink:href="#DejaVuSans-30"/>
       <use xlink:href="#DejaVuSans-2e" transform="translate(63.623047 0)"/>
       <use xlink:href="#DejaVuSans-31" transform="translate(95.410156 0)"/>
      </g>
     </g>
    </g>
    <g id="ytick_3">
     <g id="line2d_5">
      <g>
       <use xlink:href="#m07939d18a7" x="47.72" y="123.417417" style="stroke: #000000; stroke-width: 0.8"/>
      </g>
     </g>
     <g id="text_5">
      <!-- 0.2 -->
      <g transform="translate(24.816875 127.216636) scale(0.1 -0.1)">
       <defs>
        <path id="DejaVuSans-32" d="M 1228 531 
L 3431 531 
L 3431 0 
L 469 0 
L 469 531 
Q 828 903 1448 1529 
Q 2069 2156 2228 2338 
Q 2531 2678 2651 2914 
Q 2772 3150 2772 3378 
Q 2772 3750 2511 3984 
Q 2250 4219 1831 4219 
Q 1534 4219 1204 4116 
Q 875 4013 500 3803 
L 500 4441 
Q 881 4594 1212 4672 
Q 1544 4750 1819 4750 
Q 2544 4750 2975 4387 
Q 3406 4025 3406 3419 
Q 3406 3131 3298 2873 
Q 3191 2616 2906 2266 
Q 2828 2175 2409 1742 
Q 1991 1309 1228 531 
z
" transform="scale(0.015625)"/>
       </defs>
       <use xlink:href="#DejaVuSans-30"/>
       <use xlink:href="#DejaVuSans-2e" transform="translate(63.623047 0)"/>
       <use xlink:href="#DejaVuSans-32" transform="translate(95.410156 0)"/>
      </g>
     </g>
    </g>
    <g id="ytick_4">
     <g id="line2d_6">
      <g>
       <use xlink:href="#m07939d18a7" x="47.72" y="93.058985" style="stroke: #000000; stroke-width: 0.8"/>
      </g>
     </g>
     <g id="text_6">
      <!-- 0.3 -->
      <g transform="translate(24.816875 96.858204) scale(0.1 -0.1)">
       <defs>
        <path id="DejaVuSans-33" d="M 2597 2516 
Q 3050 2419 3304 2112 
Q 3559 1806 3559 1356 
Q 3559 666 3084 287 
Q 2609 -91 1734 -91 
Q 1441 -91 1130 -33 
Q 819 25 488 141 
L 488 750 
Q 750 597 1062 519 
Q 1375 441 1716 441 
Q 2309 441 2620 675 
Q 2931 909 2931 1356 
Q 2931 1769 2642 2001 
Q 2353 2234 1838 2234 
L 1294 2234 
L 1294 2753 
L 1863 2753 
Q 2328 2753 2575 2939 
Q 2822 3125 2822 3475 
Q 2822 3834 2567 4026 
Q 2313 4219 1838 4219 
Q 1578 4219 1281 4162 
Q 984 4106 628 3988 
L 628 4550 
Q 988 4650 1302 4700 
Q 1616 4750 1894 4750 
Q 2613 4750 3031 4423 
Q 3450 4097 3450 3541 
Q 3450 3153 3228 2886 
Q 3006 2619 2597 2516 
z
" transform="scale(0.015625)"/>
       </defs>
       <use xlink:href="#DejaVuSans-30"/>
       <use xlink:href="#DejaVuSans-2e" transform="translate(63.623047 0)"/>
       <use xlink:href="#DejaVuSans-33" transform="translate(95.410156 0)"/>
      </g>
     </g>
    </g>
    <g id="ytick_5">
     <g id="line2d_7">
      <g>
       <use xlink:href="#m07939d18a7" x="47.72" y="62.700553" style="stroke: #000000; stroke-width: 0.8"/>
      </g>
     </g>
     <g id="text_7">
      <!-- 0.4 -->
      <g transform="translate(24.816875 66.499772) scale(0.1 -0.1)">
       <defs>
        <path id="DejaVuSans-34" d="M 2419 4116 
L 825 1625 
L 2419 1625 
L 2419 4116 
z
M 2253 4666 
L 3047 4666 
L 3047 1625 
L 3713 1625 
L 3713 1100 
L 3047 1100 
L 3047 0 
L 2419 0 
L 2419 1100 
L 313 1100 
L 313 1709 
L 2253 4666 
z
" transform="scale(0.015625)"/>
       </defs>
       <use xlink:href="#DejaVuSans-30"/>
       <use xlink:href="#DejaVuSans-2e" transform="translate(63.623047 0)"/>
       <use xlink:href="#DejaVuSans-34" transform="translate(95.410156 0)"/>
      </g>
     </g>
    </g>
    <g id="text_8">
     <!-- variance (a.u.) -->
     <g transform="translate(18.737188 162.816125) rotate(-90) scale(0.1 -0.1)">
      <defs>
       <path id="DejaVuSans-76" d="M 191 3500 
L 800 3500 
L 1894 563 
L 2988 3500 
L 3597 3500 
L 2284 0 
L 1503 0 
L 191 3500 
z
" transform="scale(0.015625)"/>
       <path id="DejaVuSans-61" d="M 2194 1759 
Q 1497 1759 1228 1600 
Q 959 1441 959 1056 
Q 959 750 1161 570 
Q 1363 391 1709 391 
Q 2188 391 2477 730 
Q 2766 1069 2766 1631 
L 2766 1759 
L 2194 1759 
z
M 3341 1997 
L 3341 0 
L 2766 0 
L 2766 531 
Q 2569 213 2275 61 
Q 1981 -91 1556 -91 
Q 1019 -91 701 211 
Q 384 513 384 1019 
Q 384 1609 779 1909 
Q 1175 2209 1959 2209 
L 2766 2209 
L 2766 2266 
Q 2766 2663 2505 2880 
Q 2244 3097 1772 3097 
Q 1472 3097 1187 3025 
Q 903 2953 641 2809 
L 641 3341 
Q 956 3463 1253 3523 
Q 1550 3584 1831 3584 
Q 2591 3584 2966 3190 
Q 3341 2797 3341 1997 
z
" transform="scale(0.015625)"/>
       <path id="DejaVuSans-72" d="M 2631 2963 
Q 2534 3019 2420 3045 
Q 2306 3072 2169 3072 
Q 1681 3072 1420 2755 
Q 1159 2438 1159 1844 
L 1159 0 
L 581 0 
L 581 3500 
L 1159 3500 
L 1159 2956 
Q 1341 3275 1631 3429 
Q 1922 3584 2338 3584 
Q 2397 3584 2469 3576 
Q 2541 3569 2628 3553 
L 2631 2963 
z
" transform="scale(0.015625)"/>
       <path id="DejaVuSans-69" d="M 603 3500 
L 1178 3500 
L 1178 0 
L 603 0 
L 603 3500 
z
M 603 4863 
L 1178 4863 
L 1178 4134 
L 603 4134 
L 603 4863 
z
" transform="scale(0.015625)"/>
       <path id="DejaVuSans-6e" d="M 3513 2113 
L 3513 0 
L 2938 0 
L 2938 2094 
Q 2938 2591 2744 2837 
Q 2550 3084 2163 3084 
Q 1697 3084 1428 2787 
Q 1159 2491 1159 1978 
L 1159 0 
L 581 0 
L 581 3500 
L 1159 3500 
L 1159 2956 
Q 1366 3272 1645 3428 
Q 1925 3584 2291 3584 
Q 2894 3584 3203 3211 
Q 3513 2838 3513 2113 
z
" transform="scale(0.015625)"/>
       <path id="DejaVuSans-63" d="M 3122 3366 
L 3122 2828 
Q 2878 2963 2633 3030 
Q 2388 3097 2138 3097 
Q 1578 3097 1268 2742 
Q 959 2388 959 1747 
Q 959 1106 1268 751 
Q 1578 397 2138 397 
Q 2388 397 2633 464 
Q 2878 531 3122 666 
L 3122 134 
Q 2881 22 2623 -34 
Q 2366 -91 2075 -91 
Q 1284 -91 818 406 
Q 353 903 353 1747 
Q 353 2603 823 3093 
Q 1294 3584 2113 3584 
Q 2378 3584 2631 3529 
Q 2884 3475 3122 3366 
z
" transform="scale(0.015625)"/>
       <path id="DejaVuSans-65" d="M 3597 1894 
L 3597 1613 
L 953 1613 
Q 991 1019 1311 708 
Q 1631 397 2203 397 
Q 2534 397 2845 478 
Q 3156 559 3463 722 
L 3463 178 
Q 3153 47 2828 -22 
Q 2503 -91 2169 -91 
Q 1331 -91 842 396 
Q 353 884 353 1716 
Q 353 2575 817 3079 
Q 1281 3584 2069 3584 
Q 2775 3584 3186 3129 
Q 3597 2675 3597 1894 
z
M 3022 2063 
Q 3016 2534 2758 2815 
Q 2500 3097 2075 3097 
Q 1594 3097 1305 2825 
Q 1016 2553 972 2059 
L 3022 2063 
z
" transform="scale(0.015625)"/>
       <path id="DejaVuSans-20" transform="scale(0.015625)"/>
       <path id="DejaVuSans-28" d="M 1984 4856 
Q 1566 4138 1362 3434 
Q 1159 2731 1159 2009 
Q 1159 1288 1364 580 
Q 1569 -128 1984 -844 
L 1484 -844 
Q 1016 -109 783 600 
Q 550 1309 550 2009 
Q 550 2706 781 3412 
Q 1013 4119 1484 4856 
L 1984 4856 
z
" transform="scale(0.015625)"/>
       <path id="DejaVuSans-75" d="M 544 1381 
L 544 3500 
L 1119 3500 
L 1119 1403 
Q 1119 906 1312 657 
Q 1506 409 1894 409 
Q 2359 409 2629 706 
Q 2900 1003 2900 1516 
L 2900 3500 
L 3475 3500 
L 3475 0 
L 2900 0 
L 2900 538 
Q 2691 219 2414 64 
Q 2138 -91 1772 -91 
Q 1169 -91 856 284 
Q 544 659 544 1381 
z
M 1991 3584 
L 1991 3584 
z
" transform="scale(0.015625)"/>
       <path id="DejaVuSans-29" d="M 513 4856 
L 1013 4856 
Q 1481 4119 1714 3412 
Q 1947 2706 1947 2009 
Q 1947 1309 1714 600 
Q 1481 -109 1013 -844 
L 513 -844 
Q 928 -128 1133 580 
Q 1338 1288 1338 2009 
Q 1338 2731 1133 3434 
Q 928 4138 513 4856 
z
" transform="scale(0.015625)"/>
      </defs>
      <use xlink:href="#DejaVuSans-76"/>
      <use xlink:href="#DejaVuSans-61" transform="translate(59.179688 0)"/>
      <use xlink:href="#DejaVuSans-72" transform="translate(120.458984 0)"/>
      <use xlink:href="#DejaVuSans-69" transform="translate(161.572266 0)"/>
      <use xlink:href="#DejaVuSans-61" transform="translate(189.355469 0)"/>
      <use xlink:href="#DejaVuSans-6e" transform="translate(250.634766 0)"/>
      <use xlink:href="#DejaVuSans-63" transform="translate(314.013672 0)"/>
      <use xlink:href="#DejaVuSans-65" transform="translate(368.994141 0)"/>
      <use xlink:href="#DejaVuSans-20" transform="translate(430.517578 0)"/>
      <use xlink:href="#DejaVuSans-28" transform="translate(462.304688 0)"/>
      <use xlink:href="#DejaVuSans-61" transform="translate(501.318359 0)"/>
      <use xlink:href="#DejaVuSans-2e" transform="translate(562.597656 0)"/>
      <use xlink:href="#DejaVuSans-75" transform="translate(594.384766 0)"/>
      <use xlink:href="#DejaVuSans-2e" transform="translate(657.763672 0)"/>
      <use xlink:href="#DejaVuSans-29" transform="translate(689.550781 0)"/>
     </g>
    </g>
   </g>
   <g id="line2d_8">
    <path d="M 50.869253 163.104694 
L 51.505466 163.064362 
L 52.141679 163.024029 
L 52.777892 162.983697 
L 53.414104 162.943365 
L 54.050317 162.903033 
L 54.68653 162.862701 
L 55.322743 162.822368 
L 55.958955 162.782036 
L 56.595168 162.741704 
L 57.231381 162.701372 
L 57.867594 162.66104 
L 58.503807 162.620707 
L 59.140019 162.580375 
L 59.776232 162.540043 
L 60.412445 162.499711 
L 61.048658 162.459379 
L 61.68487 162.419046 
L 62.321083 162.378714 
L 62.957296 162.338382 
L 63.593509 162.29805 
L 64.229722 162.257718 
L 64.865934 162.217385 
L 65.502147 162.177053 
L 66.13836 162.136721 
L 66.774573 162.096389 
L 67.410785 162.056057 
L 68.046998 162.015724 
L 68.683211 161.975392 
L 69.319424 161.93506 
L 69.955636 161.894728 
L 70.591849 161.854396 
L 71.228062 161.814064 
L 71.864275 161.773731 
L 72.500488 161.733399 
L 73.1367 161.693067 
L 73.772913 161.652735 
L 74.409126 161.612403 
L 75.045339 161.57207 
L 75.681551 161.531738 
L 76.317764 161.491406 
L 76.953977 161.451074 
L 77.59019 161.410742 
L 78.226403 161.370409 
L 78.862615 161.330077 
L 79.498828 161.289745 
L 80.135041 161.249413 
L 80.771254 161.209081 
L 81.407466 161.168748 
L 82.043679 161.128416 
L 82.679892 161.088084 
L 83.316105 161.047752 
L 83.952318 161.00742 
L 84.58853 160.967087 
L 85.224743 160.926755 
L 85.860956 160.886423 
L 86.497169 160.846091 
L 87.133381 160.805759 
L 87.769594 160.765426 
L 88.405807 160.725094 
L 89.04202 160.684762 
L 89.678232 160.64443 
L 90.314445 160.604098 
L 90.950658 160.563765 
L 91.586871 160.523433 
L 92.223084 160.483101 
L 92.859296 160.442769 
L 93.495509 160.402437 
L 94.131722 160.362104 
L 94.767935 160.321772 
L 95.404147 160.28144 
L 96.04036 160.241108 
L 96.676573 160.200776 
L 97.312786 160.160443 
L 97.948999 160.120111 
L 98.585211 160.079779 
L 99.221424 160.039447 
L 99.857637 159.999115 
L 100.49385 159.958783 
L 101.130062 159.91845 
L 101.766275 159.878118 
L 102.402488 159.837786 
L 103.038701 159.797454 
L 103.674914 159.757122 
L 104.311126 159.716789 
L 104.947339 159.676457 
L 105.583552 159.636125 
L 106.219765 159.595793 
L 106.855977 159.555461 
L 107.49219 159.515128 
L 108.128403 159.474796 
L 108.764616 159.434464 
L 109.400829 159.394132 
L 110.037041 159.3538 
L 110.673254 159.313467 
L 111.309467 159.273135 
L 111.94568 159.232803 
L 112.581892 159.192471 
L 113.218105 159.152139 
L 113.854318 159.111806 
" clip-path="url(#pac379b25e6)" style="fill: none; stroke-dasharray: 5.55,2.4; stroke-dashoffset: 0; stroke: #000000; stroke-width: 1.5"/>
   </g>
   <g id="line2d_9">
    <path d="M 59.693288 203.24 
L 59.693288 49.536 
" clip-path="url(#pac379b25e6)" style="fill: none; stroke: #000000; stroke-width: 0.8; stroke-linecap: square"/>
   </g>
   <g id="line2d_10">
    <path d="M 47.72 184.134282 
L 117.003571 184.134282 
" clip-path="url(#pac379b25e6)" style="fill: none; stroke: #000000; stroke-width: 0.8; stroke-linecap: square"/>
   </g>
   <g id="patch_3">
    <path d="M 47.72 184.134282 
L 47.72 62.700553 
" style="fill: none; stroke: #000000; stroke-width: 0.8; stroke-linejoin: miter; stroke-linecap: square"/>
   </g>
   <g id="patch_4">
    <path d="M 109.024017 203.24 
L 59.693288 203.24 
" style="fill: none; stroke: #000000; stroke-width: 0.8; stroke-linejoin: miter; stroke-linecap: square"/>
   </g>
  </g>
  <g id="axes_2">
   <g id="patch_5">
    <path d="M 133.61 203.24 
L 202.893571 203.24 
L 202.893571 49.536 
L 133.61 49.536 
z
" style="fill: #ffffff"/>
   </g>
   <g id="FillBetweenPolyCollection_2">
    <defs>
     <path id="m278731c590" d="M 136.759253 -125.172841 
L 136.759253 -75.970269 
L 137.395466 -76.368718 
L 138.031679 -76.763295 
L 138.667892 -77.153814 
L 139.304104 -77.540079 
L 139.940317 -77.92188 
L 140.57653 -78.299001 
L 141.212743 -78.671211 
L 141.848955 -79.038269 
L 142.485168 -79.399921 
L 143.121381 -79.7559 
L 143.757594 -80.105926 
L 144.393807 -80.449708 
L 145.030019 -80.786938 
L 145.666232 -81.117297 
L 146.302445 -81.440452 
L 146.938658 -81.756055 
L 147.57487 -82.063746 
L 148.211083 -82.363152 
L 148.847296 -82.653889 
L 149.483509 -82.935559 
L 150.119722 -83.207757 
L 150.755934 -83.470066 
L 151.392147 -83.722064 
L 152.02836 -83.963324 
L 152.664573 -84.193415 
L 153.300785 -84.411906 
L 153.936998 -84.61837 
L 154.573211 -84.812385 
L 155.209424 -84.993538 
L 155.845636 -85.161433 
L 156.481849 -85.315687 
L 157.118062 -85.455942 
L 157.754275 -85.581863 
L 158.390488 -85.693147 
L 159.0267 -85.789525 
L 159.662913 -85.870764 
L 160.299126 -85.936671 
L 160.935339 -85.987099 
L 161.571551 -86.021945 
L 162.207764 -86.041154 
L 162.843977 -86.044717 
L 163.48019 -86.032677 
L 164.116403 -86.00512 
L 164.752615 -85.962182 
L 165.388828 -85.904042 
L 166.025041 -85.83092 
L 166.661254 -85.743074 
L 167.297466 -85.640798 
L 167.933679 -85.524418 
L 168.569892 -85.394284 
L 169.206105 -85.250773 
L 169.842318 -85.094276 
L 170.47853 -84.925203 
L 171.114743 -84.743972 
L 171.750956 -84.551011 
L 172.387169 -84.346748 
L 173.023381 -84.131614 
L 173.659594 -83.90604 
L 174.295807 -83.670447 
L 174.93202 -83.425256 
L 175.568232 -83.170874 
L 176.204445 -82.907702 
L 176.840658 -82.636129 
L 177.476871 -82.356531 
L 178.113084 -82.069272 
L 178.749296 -81.774703 
L 179.385509 -81.473163 
L 180.021722 -81.164974 
L 180.657935 -80.850448 
L 181.294147 -80.529882 
L 181.93036 -80.203558 
L 182.566573 -79.871748 
L 183.202786 -79.534709 
L 183.838999 -79.192686 
L 184.475211 -78.845913 
L 185.111424 -78.494612 
L 185.747637 -78.138993 
L 186.38385 -77.779257 
L 187.020062 -77.415594 
L 187.656275 -77.048183 
L 188.292488 -76.677197 
L 188.928701 -76.302796 
L 189.564914 -75.925135 
L 190.201126 -75.54436 
L 190.837339 -75.16061 
L 191.473552 -74.774014 
L 192.109765 -74.384699 
L 192.745977 -73.992782 
L 193.38219 -73.598375 
L 194.018403 -73.201585 
L 194.654616 -72.802512 
L 195.290829 -72.401253 
L 195.927041 -71.997897 
L 196.563254 -71.592533 
L 197.199467 -71.185241 
L 197.83568 -70.776101 
L 198.471892 -70.365185 
L 199.108105 -69.952565 
L 199.744318 -69.538308 
L 199.744318 -134.932882 
L 199.744318 -134.932882 
L 199.108105 -134.485008 
L 198.471892 -134.038772 
L 197.83568 -133.594239 
L 197.199467 -133.151481 
L 196.563254 -132.710573 
L 195.927041 -132.271591 
L 195.290829 -131.834619 
L 194.654616 -131.399743 
L 194.018403 -130.967053 
L 193.38219 -130.536645 
L 192.745977 -130.108622 
L 192.109765 -129.683088 
L 191.473552 -129.260156 
L 190.837339 -128.839943 
L 190.201126 -128.422576 
L 189.564914 -128.008184 
L 188.928701 -127.596906 
L 188.292488 -127.188889 
L 187.656275 -126.784285 
L 187.020062 -126.383257 
L 186.38385 -125.985977 
L 185.747637 -125.592624 
L 185.111424 -125.203388 
L 184.475211 -124.81847 
L 183.838999 -124.43808 
L 183.202786 -124.062441 
L 182.566573 -123.691784 
L 181.93036 -123.326357 
L 181.294147 -122.966417 
L 180.657935 -122.612233 
L 180.021722 -122.26409 
L 179.385509 -121.922285 
L 178.749296 -121.587127 
L 178.113084 -121.258942 
L 177.476871 -120.938066 
L 176.840658 -120.624851 
L 176.204445 -120.31966 
L 175.568232 -120.022871 
L 174.93202 -119.734873 
L 174.295807 -119.456064 
L 173.659594 -119.186855 
L 173.023381 -118.927663 
L 172.387169 -118.678913 
L 171.750956 -118.441033 
L 171.114743 -118.214454 
L 170.47853 -117.999607 
L 169.842318 -117.796917 
L 169.206105 -117.606803 
L 168.569892 -117.429675 
L 167.933679 -117.265924 
L 167.297466 -117.115927 
L 166.661254 -116.980034 
L 166.025041 -116.858571 
L 165.388828 -116.751832 
L 164.752615 -116.660075 
L 164.116403 -116.58352 
L 163.48019 -116.522347 
L 162.843977 -116.476689 
L 162.207764 -116.446636 
L 161.571551 -116.432227 
L 160.935339 -116.433456 
L 160.299126 -116.450267 
L 159.662913 -116.482558 
L 159.0267 -116.530179 
L 158.390488 -116.59294 
L 157.754275 -116.670607 
L 157.118062 -116.762912 
L 156.481849 -116.869549 
L 155.845636 -116.990187 
L 155.209424 -117.124464 
L 154.573211 -117.272001 
L 153.936998 -117.432399 
L 153.300785 -117.605246 
L 152.664573 -117.79012 
L 152.02836 -117.986594 
L 151.392147 -118.194237 
L 150.755934 -118.412618 
L 150.119722 -118.64131 
L 149.483509 -118.87989 
L 148.847296 -119.127944 
L 148.211083 -119.385063 
L 147.57487 -119.650853 
L 146.938658 -119.924927 
L 146.302445 -120.206913 
L 145.666232 -120.496451 
L 145.030019 -120.793193 
L 144.393807 -121.096806 
L 143.757594 -121.406971 
L 143.121381 -121.72338 
L 142.485168 -122.045742 
L 141.848955 -122.373777 
L 141.212743 -122.707218 
L 140.57653 -123.045811 
L 139.940317 -123.389315 
L 139.304104 -123.7375 
L 138.667892 -124.090147 
L 138.031679 -124.447049 
L 137.395466 -124.80801 
L 136.759253 -125.172841 
z
"/>
    </defs>
    <g clip-path="url(#p3c01189aca)">
     <use xlink:href="#m278731c590" x="0" y="252" style="fill-opacity: 0.2"/>
    </g>
   </g>
   <g id="PathCollection_2">
    <g clip-path="url(#p3c01189aca)">
     <use xlink:href="#mb8aa878c2f" x="140.216765" y="184.134282" style="stroke: #000000"/>
     <use xlink:href="#mb8aa878c2f" x="163.954873" y="145.713189" style="stroke: #000000"/>
     <use xlink:href="#mb8aa878c2f" x="199.744318" y="116.637751" style="stroke: #000000"/>
     <use xlink:href="#mb8aa878c2f" x="188.729177" y="172.561475" style="stroke: #000000"/>
     <use xlink:href="#mb8aa878c2f" x="152.684857" y="179.364892" style="stroke: #000000"/>
     <use xlink:href="#mb8aa878c2f" x="195.528596" y="181.524093" style="stroke: #000000"/>
     <use xlink:href="#mb8aa878c2f" x="155.78744" y="170.64767" style="stroke: #000000"/>
     <use xlink:href="#mb8aa878c2f" x="147.894524" y="146.065354" style="stroke: #000000"/>
     <use xlink:href="#mb8aa878c2f" x="144.752887" y="126.659708" style="stroke: #000000"/>
     <use xlink:href="#mb8aa878c2f" x="150.668464" y="173.707924" style="stroke: #000000"/>
     <use xlink:href="#mb8aa878c2f" x="151.149438" y="162.705483" style="stroke: #000000"/>
     <use xlink:href="#mb8aa878c2f" x="161.913815" y="158.512609" style="stroke: #000000"/>
     <use xlink:href="#mb8aa878c2f" x="136.759253" y="94.724077" style="stroke: #000000"/>
     <use xlink:href="#mb8aa878c2f" x="178.036741" y="97.708541" style="stroke: #000000"/>
    </g>
   </g>
   <g id="matplotlib.axis_3">
    <g id="xtick_3">
     <g id="line2d_11">
      <g>
       <use xlink:href="#m9f9c2a52bf" x="145.583288" y="203.24" style="stroke: #000000; stroke-width: 0.8"/>
      </g>
     </g>
     <g id="text_9">
      <!-- 0.00 -->
      <g transform="translate(134.450475 217.838437) scale(0.1 -0.1)">
       <use xlink:href="#DejaVuSans-30"/>
       <use xlink:href="#DejaVuSans-2e" transform="translate(63.623047 0)"/>
       <use xlink:href="#DejaVuSans-30" transform="translate(95.410156 0)"/>
       <use xlink:href="#DejaVuSans-30" transform="translate(159.033203 0)"/>
      </g>
     </g>
    </g>
    <g id="xtick_4">
     <g id="line2d_12">
      <g>
       <use xlink:href="#m9f9c2a52bf" x="194.914017" y="203.24" style="stroke: #000000; stroke-width: 0.8"/>
      </g>
     </g>
     <g id="text_10">
      <!-- 0.08 -->
      <g transform="translate(183.781205 217.838437) scale(0.1 -0.1)">
       <use xlink:href="#DejaVuSans-30"/>
       <use xlink:href="#DejaVuSans-2e" transform="translate(63.623047 0)"/>
       <use xlink:href="#DejaVuSans-30" transform="translate(95.410156 0)"/>
       <use xlink:href="#DejaVuSans-38" transform="translate(159.033203 0)"/>
      </g>
     </g>
    </g>
   </g>
   <g id="matplotlib.axis_4">
    <g id="ytick_6">
     <g id="line2d_13">
      <g>
       <use xlink:href="#m07939d18a7" x="133.61" y="184.134282" style="stroke: #000000; stroke-width: 0.8"/>
      </g>
     </g>
    </g>
    <g id="ytick_7">
     <g id="line2d_14">
      <g>
       <use xlink:href="#m07939d18a7" x="133.61" y="153.77585" style="stroke: #000000; stroke-width: 0.8"/>
      </g>
     </g>
    </g>
    <g id="ytick_8">
     <g id="line2d_15">
      <g>
       <use xlink:href="#m07939d18a7" x="133.61" y="123.417417" style="stroke: #000000; stroke-width: 0.8"/>
      </g>
     </g>
    </g>
    <g id="ytick_9">
     <g id="line2d_16">
      <g>
       <use xlink:href="#m07939d18a7" x="133.61" y="93.058985" style="stroke: #000000; stroke-width: 0.8"/>
      </g>
     </g>
    </g>
    <g id="ytick_10">
     <g id="line2d_17">
      <g>
       <use xlink:href="#m07939d18a7" x="133.61" y="62.700553" style="stroke: #000000; stroke-width: 0.8"/>
      </g>
     </g>
    </g>
   </g>
   <g id="line2d_18">
    <path d="M 136.759253 151.428445 
L 137.395466 151.411636 
L 138.031679 151.394828 
L 138.667892 151.378019 
L 139.304104 151.361211 
L 139.940317 151.344402 
L 140.57653 151.327594 
L 141.212743 151.310785 
L 141.848955 151.293977 
L 142.485168 151.277168 
L 143.121381 151.26036 
L 143.757594 151.243551 
L 144.393807 151.226743 
L 145.030019 151.209934 
L 145.666232 151.193126 
L 146.302445 151.176318 
L 146.938658 151.159509 
L 147.57487 151.142701 
L 148.211083 151.125892 
L 148.847296 151.109084 
L 149.483509 151.092275 
L 150.119722 151.075467 
L 150.755934 151.058658 
L 151.392147 151.04185 
L 152.02836 151.025041 
L 152.664573 151.008233 
L 153.300785 150.991424 
L 153.936998 150.974616 
L 154.573211 150.957807 
L 155.209424 150.940999 
L 155.845636 150.92419 
L 156.481849 150.907382 
L 157.118062 150.890573 
L 157.754275 150.873765 
L 158.390488 150.856956 
L 159.0267 150.840148 
L 159.662913 150.823339 
L 160.299126 150.806531 
L 160.935339 150.789722 
L 161.571551 150.772914 
L 162.207764 150.756105 
L 162.843977 150.739297 
L 163.48019 150.722488 
L 164.116403 150.70568 
L 164.752615 150.688871 
L 165.388828 150.672063 
L 166.025041 150.655254 
L 166.661254 150.638446 
L 167.297466 150.621637 
L 167.933679 150.604829 
L 168.569892 150.588021 
L 169.206105 150.571212 
L 169.842318 150.554404 
L 170.47853 150.537595 
L 171.114743 150.520787 
L 171.750956 150.503978 
L 172.387169 150.48717 
L 173.023381 150.470361 
L 173.659594 150.453553 
L 174.295807 150.436744 
L 174.93202 150.419936 
L 175.568232 150.403127 
L 176.204445 150.386319 
L 176.840658 150.36951 
L 177.476871 150.352702 
L 178.113084 150.335893 
L 178.749296 150.319085 
L 179.385509 150.302276 
L 180.021722 150.285468 
L 180.657935 150.268659 
L 181.294147 150.251851 
L 181.93036 150.235042 
L 182.566573 150.218234 
L 183.202786 150.201425 
L 183.838999 150.184617 
L 184.475211 150.167808 
L 185.111424 150.151 
L 185.747637 150.134191 
L 186.38385 150.117383 
L 187.020062 150.100574 
L 187.656275 150.083766 
L 188.292488 150.066957 
L 188.928701 150.050149 
L 189.564914 150.03334 
L 190.201126 150.016532 
L 190.837339 149.999724 
L 191.473552 149.982915 
L 192.109765 149.966107 
L 192.745977 149.949298 
L 193.38219 149.93249 
L 194.018403 149.915681 
L 194.654616 149.898873 
L 195.290829 149.882064 
L 195.927041 149.865256 
L 196.563254 149.848447 
L 197.199467 149.831639 
L 197.83568 149.81483 
L 198.471892 149.798022 
L 199.108105 149.781213 
L 199.744318 149.764405 
" clip-path="url(#p3c01189aca)" style="fill: none; stroke-dasharray: 5.55,2.4; stroke-dashoffset: 0; stroke: #000000; stroke-width: 1.5"/>
   </g>
   <g id="line2d_19">
    <path d="M 145.583288 203.24 
L 145.583288 49.536 
" clip-path="url(#p3c01189aca)" style="fill: none; stroke: #000000; stroke-width: 0.8; stroke-linecap: square"/>
   </g>
   <g id="line2d_20">
    <path d="M 133.61 184.134282 
L 202.893571 184.134282 
" clip-path="url(#p3c01189aca)" style="fill: none; stroke: #000000; stroke-width: 0.8; stroke-linecap: square"/>
   </g>
   <g id="patch_6">
    <path d="M 133.61 184.134282 
L 133.61 62.700553 
" style="fill: none; stroke: #000000; stroke-width: 0.8; stroke-linejoin: miter; stroke-linecap: square"/>
   </g>
   <g id="patch_7">
    <path d="M 194.914017 203.24 
L 145.583288 203.24 
" style="fill: none; stroke: #000000; stroke-width: 0.8; stroke-linejoin: miter; stroke-linecap: square"/>
   </g>
  </g>
  <g id="text_11">
   <!-- finger pre-activation (N) -->
   <g transform="translate(47.794531 247.400313) scale(0.1 -0.1)">
    <defs>
     <path id="DejaVuSans-66" d="M 2375 4863 
L 2375 4384 
L 1825 4384 
Q 1516 4384 1395 4259 
Q 1275 4134 1275 3809 
L 1275 3500 
L 2222 3500 
L 2222 3053 
L 1275 3053 
L 1275 0 
L 697 0 
L 697 3053 
L 147 3053 
L 147 3500 
L 697 3500 
L 697 3744 
Q 697 4328 969 4595 
Q 1241 4863 1831 4863 
L 2375 4863 
z
" transform="scale(0.015625)"/>
     <path id="DejaVuSans-67" d="M 2906 1791 
Q 2906 2416 2648 2759 
Q 2391 3103 1925 3103 
Q 1463 3103 1205 2759 
Q 947 2416 947 1791 
Q 947 1169 1205 825 
Q 1463 481 1925 481 
Q 2391 481 2648 825 
Q 2906 1169 2906 1791 
z
M 3481 434 
Q 3481 -459 3084 -895 
Q 2688 -1331 1869 -1331 
Q 1566 -1331 1297 -1286 
Q 1028 -1241 775 -1147 
L 775 -588 
Q 1028 -725 1275 -790 
Q 1522 -856 1778 -856 
Q 2344 -856 2625 -561 
Q 2906 -266 2906 331 
L 2906 616 
Q 2728 306 2450 153 
Q 2172 0 1784 0 
Q 1141 0 747 490 
Q 353 981 353 1791 
Q 353 2603 747 3093 
Q 1141 3584 1784 3584 
Q 2172 3584 2450 3431 
Q 2728 3278 2906 2969 
L 2906 3500 
L 3481 3500 
L 3481 434 
z
" transform="scale(0.015625)"/>
     <path id="DejaVuSans-70" d="M 1159 525 
L 1159 -1331 
L 581 -1331 
L 581 3500 
L 1159 3500 
L 1159 2969 
Q 1341 3281 1617 3432 
Q 1894 3584 2278 3584 
Q 2916 3584 3314 3078 
Q 3713 2572 3713 1747 
Q 3713 922 3314 415 
Q 2916 -91 2278 -91 
Q 1894 -91 1617 61 
Q 1341 213 1159 525 
z
M 3116 1747 
Q 3116 2381 2855 2742 
Q 2594 3103 2138 3103 
Q 1681 3103 1420 2742 
Q 1159 2381 1159 1747 
Q 1159 1113 1420 752 
Q 1681 391 2138 391 
Q 2594 391 2855 752 
Q 3116 1113 3116 1747 
z
" transform="scale(0.015625)"/>
     <path id="DejaVuSans-2d" d="M 313 2009 
L 1997 2009 
L 1997 1497 
L 313 1497 
L 313 2009 
z
" transform="scale(0.015625)"/>
     <path id="DejaVuSans-74" d="M 1172 4494 
L 1172 3500 
L 2356 3500 
L 2356 3053 
L 1172 3053 
L 1172 1153 
Q 1172 725 1289 603 
Q 1406 481 1766 481 
L 2356 481 
L 2356 0 
L 1766 0 
Q 1100 0 847 248 
Q 594 497 594 1153 
L 594 3053 
L 172 3053 
L 172 3500 
L 594 3500 
L 594 4494 
L 1172 4494 
z
" transform="scale(0.015625)"/>
     <path id="DejaVuSans-6f" d="M 1959 3097 
Q 1497 3097 1228 2736 
Q 959 2375 959 1747 
Q 959 1119 1226 758 
Q 1494 397 1959 397 
Q 2419 397 2687 759 
Q 2956 1122 2956 1747 
Q 2956 2369 2687 2733 
Q 2419 3097 1959 3097 
z
M 1959 3584 
Q 2709 3584 3137 3096 
Q 3566 2609 3566 1747 
Q 3566 888 3137 398 
Q 2709 -91 1959 -91 
Q 1206 -91 779 398 
Q 353 888 353 1747 
Q 353 2609 779 3096 
Q 1206 3584 1959 3584 
z
" transform="scale(0.015625)"/>
     <path id="DejaVuSans-4e" d="M 628 4666 
L 1478 4666 
L 3547 763 
L 3547 4666 
L 4159 4666 
L 4159 0 
L 3309 0 
L 1241 3903 
L 1241 0 
L 628 0 
L 628 4666 
z
" transform="scale(0.015625)"/>
    </defs>
    <use xlink:href="#DejaVuSans-66"/>
    <use xlink:href="#DejaVuSans-69" transform="translate(35.205078 0)"/>
    <use xlink:href="#DejaVuSans-6e" transform="translate(62.988281 0)"/>
    <use xlink:href="#DejaVuSans-67" transform="translate(126.367188 0)"/>
    <use xlink:href="#DejaVuSans-65" transform="translate(189.84375 0)"/>
    <use xlink:href="#DejaVuSans-72" transform="translate(251.367188 0)"/>
    <use xlink:href="#DejaVuSans-20" transform="translate(292.480469 0)"/>
    <use xlink:href="#DejaVuSans-70" transform="translate(324.267578 0)"/>
    <use xlink:href="#DejaVuSans-72" transform="translate(387.744141 0)"/>
    <use xlink:href="#DejaVuSans-65" transform="translate(426.607422 0)"/>
    <use xlink:href="#DejaVuSans-2d" transform="translate(488.130859 0)"/>
    <use xlink:href="#DejaVuSans-61" transform="translate(524.214844 0)"/>
    <use xlink:href="#DejaVuSans-63" transform="translate(585.494141 0)"/>
    <use xlink:href="#DejaVuSans-74" transform="translate(640.474609 0)"/>
    <use xlink:href="#DejaVuSans-69" transform="translate(679.683594 0)"/>
    <use xlink:href="#DejaVuSans-76" transform="translate(707.466797 0)"/>
    <use xlink:href="#DejaVuSans-61" transform="translate(766.646484 0)"/>
    <use xlink:href="#DejaVuSans-74" transform="translate(827.925781 0)"/>
    <use xlink:href="#DejaVuSans-69" transform="translate(867.134766 0)"/>
    <use xlink:href="#DejaVuSans-6f" transform="translate(894.917969 0)"/>
    <use xlink:href="#DejaVuSans-6e" transform="translate(956.099609 0)"/>
    <use xlink:href="#DejaVuSans-20" transform="translate(1019.478516 0)"/>
    <use xlink:href="#DejaVuSans-28" transform="translate(1051.265625 0)"/>
    <use xlink:href="#DejaVuSans-4e" transform="translate(1090.279297 0)"/>
    <use xlink:href="#DejaVuSans-29" transform="translate(1165.083984 0)"/>
   </g>
  </g>
  <g id="text_12">
   <!-- Correlation between finger pre-activation -->
   <g transform="translate(-16.011562 14.158125) scale(0.12 -0.12)">
    <defs>
     <path id="DejaVuSans-43" d="M 4122 4306 
L 4122 3641 
Q 3803 3938 3442 4084 
Q 3081 4231 2675 4231 
Q 1875 4231 1450 3742 
Q 1025 3253 1025 2328 
Q 1025 1406 1450 917 
Q 1875 428 2675 428 
Q 3081 428 3442 575 
Q 3803 722 4122 1019 
L 4122 359 
Q 3791 134 3420 21 
Q 3050 -91 2638 -91 
Q 1578 -91 968 557 
Q 359 1206 359 2328 
Q 359 3453 968 4101 
Q 1578 4750 2638 4750 
Q 3056 4750 3426 4639 
Q 3797 4528 4122 4306 
z
" transform="scale(0.015625)"/>
     <path id="DejaVuSans-6c" d="M 603 4863 
L 1178 4863 
L 1178 0 
L 603 0 
L 603 4863 
z
" transform="scale(0.015625)"/>
     <path id="DejaVuSans-62" d="M 3116 1747 
Q 3116 2381 2855 2742 
Q 2594 3103 2138 3103 
Q 1681 3103 1420 2742 
Q 1159 2381 1159 1747 
Q 1159 1113 1420 752 
Q 1681 391 2138 391 
Q 2594 391 2855 752 
Q 3116 1113 3116 1747 
z
M 1159 2969 
Q 1341 3281 1617 3432 
Q 1894 3584 2278 3584 
Q 2916 3584 3314 3078 
Q 3713 2572 3713 1747 
Q 3713 922 3314 415 
Q 2916 -91 2278 -91 
Q 1894 -91 1617 61 
Q 1341 213 1159 525 
L 1159 0 
L 581 0 
L 581 4863 
L 1159 4863 
L 1159 2969 
z
" transform="scale(0.015625)"/>
     <path id="DejaVuSans-77" d="M 269 3500 
L 844 3500 
L 1563 769 
L 2278 3500 
L 2956 3500 
L 3675 769 
L 4391 3500 
L 4966 3500 
L 4050 0 
L 3372 0 
L 2619 2869 
L 1863 0 
L 1184 0 
L 269 3500 
z
" transform="scale(0.015625)"/>
    </defs>
    <use xlink:href="#DejaVuSans-43"/>
    <use xlink:href="#DejaVuSans-6f" transform="translate(69.824219 0)"/>
    <use xlink:href="#DejaVuSans-72" transform="translate(131.005859 0)"/>
    <use xlink:href="#DejaVuSans-72" transform="translate(170.369141 0)"/>
    <use xlink:href="#DejaVuSans-65" transform="translate(209.232422 0)"/>
    <use xlink:href="#DejaVuSans-6c" transform="translate(270.755859 0)"/>
    <use xlink:href="#DejaVuSans-61" transform="translate(298.539062 0)"/>
    <use xlink:href="#DejaVuSans-74" transform="translate(359.818359 0)"/>
    <use xlink:href="#DejaVuSans-69" transform="translate(399.027344 0)"/>
    <use xlink:href="#DejaVuSans-6f" transform="translate(426.810547 0)"/>
    <use xlink:href="#DejaVuSans-6e" transform="translate(487.992188 0)"/>
    <use xlink:href="#DejaVuSans-20" transform="translate(551.371094 0)"/>
    <use xlink:href="#DejaVuSans-62" transform="translate(583.158203 0)"/>
    <use xlink:href="#DejaVuSans-65" transform="translate(646.634766 0)"/>
    <use xlink:href="#DejaVuSans-74" transform="translate(708.158203 0)"/>
    <use xlink:href="#DejaVuSans-77" transform="translate(747.367188 0)"/>
    <use xlink:href="#DejaVuSans-65" transform="translate(829.154297 0)"/>
    <use xlink:href="#DejaVuSans-65" transform="translate(890.677734 0)"/>
    <use xlink:href="#DejaVuSans-6e" transform="translate(952.201172 0)"/>
    <use xlink:href="#DejaVuSans-20" transform="translate(1015.580078 0)"/>
    <use xlink:href="#DejaVuSans-66" transform="translate(1047.367188 0)"/>
    <use xlink:href="#DejaVuSans-69" transform="translate(1082.572266 0)"/>
    <use xlink:href="#DejaVuSans-6e" transform="translate(1110.355469 0)"/>
    <use xlink:href="#DejaVuSans-67" transform="translate(1173.734375 0)"/>
    <use xlink:href="#DejaVuSans-65" transform="translate(1237.210938 0)"/>
    <use xlink:href="#DejaVuSans-72" transform="translate(1298.734375 0)"/>
    <use xlink:href="#DejaVuSans-20" transform="translate(1339.847656 0)"/>
    <use xlink:href="#DejaVuSans-70" transform="translate(1371.634766 0)"/>
    <use xlink:href="#DejaVuSans-72" transform="translate(1435.111328 0)"/>
    <use xlink:href="#DejaVuSans-65" transform="translate(1473.974609 0)"/>
    <use xlink:href="#DejaVuSans-2d" transform="translate(1535.498047 0)"/>
    <use xlink:href="#DejaVuSans-61" transform="translate(1571.582031 0)"/>
    <use xlink:href="#DejaVuSans-63" transform="translate(1632.861328 0)"/>
    <use xlink:href="#DejaVuSans-74" transform="translate(1687.841797 0)"/>
    <use xlink:href="#DejaVuSans-69" transform="translate(1727.050781 0)"/>
    <use xlink:href="#DejaVuSans-76" transform="translate(1754.833984 0)"/>
    <use xlink:href="#DejaVuSans-61" transform="translate(1814.013672 0)"/>
    <use xlink:href="#DejaVuSans-74" transform="translate(1875.292969 0)"/>
    <use xlink:href="#DejaVuSans-69" transform="translate(1914.501953 0)"/>
    <use xlink:href="#DejaVuSans-6f" transform="translate(1942.285156 0)"/>
    <use xlink:href="#DejaVuSans-6e" transform="translate(2003.466797 0)"/>
   </g>
   <!-- and variance explained by probability cue -->
   <g transform="translate(-18.080625 27.5955) scale(0.12 -0.12)">
    <defs>
     <path id="DejaVuSans-64" d="M 2906 2969 
L 2906 4863 
L 3481 4863 
L 3481 0 
L 2906 0 
L 2906 525 
Q 2725 213 2448 61 
Q 2172 -91 1784 -91 
Q 1150 -91 751 415 
Q 353 922 353 1747 
Q 353 2572 751 3078 
Q 1150 3584 1784 3584 
Q 2172 3584 2448 3432 
Q 2725 3281 2906 2969 
z
M 947 1747 
Q 947 1113 1208 752 
Q 1469 391 1925 391 
Q 2381 391 2643 752 
Q 2906 1113 2906 1747 
Q 2906 2381 2643 2742 
Q 2381 3103 1925 3103 
Q 1469 3103 1208 2742 
Q 947 2381 947 1747 
z
" transform="scale(0.015625)"/>
     <path id="DejaVuSans-78" d="M 3513 3500 
L 2247 1797 
L 3578 0 
L 2900 0 
L 1881 1375 
L 863 0 
L 184 0 
L 1544 1831 
L 300 3500 
L 978 3500 
L 1906 2253 
L 2834 3500 
L 3513 3500 
z
" transform="scale(0.015625)"/>
     <path id="DejaVuSans-79" d="M 2059 -325 
Q 1816 -950 1584 -1140 
Q 1353 -1331 966 -1331 
L 506 -1331 
L 506 -850 
L 844 -850 
Q 1081 -850 1212 -737 
Q 1344 -625 1503 -206 
L 1606 56 
L 191 3500 
L 800 3500 
L 1894 763 
L 2988 3500 
L 3597 3500 
L 2059 -325 
z
" transform="scale(0.015625)"/>
    </defs>
    <use xlink:href="#DejaVuSans-61"/>
    <use xlink:href="#DejaVuSans-6e" transform="translate(61.279297 0)"/>
    <use xlink:href="#DejaVuSans-64" transform="translate(124.658203 0)"/>
    <use xlink:href="#DejaVuSans-20" transform="translate(188.134766 0)"/>
    <use xlink:href="#DejaVuSans-76" transform="translate(219.921875 0)"/>
    <use xlink:href="#DejaVuSans-61" transform="translate(279.101562 0)"/>
    <use xlink:href="#DejaVuSans-72" transform="translate(340.380859 0)"/>
    <use xlink:href="#DejaVuSans-69" transform="translate(381.494141 0)"/>
    <use xlink:href="#DejaVuSans-61" transform="translate(409.277344 0)"/>
    <use xlink:href="#DejaVuSans-6e" transform="translate(470.556641 0)"/>
    <use xlink:href="#DejaVuSans-63" transform="translate(533.935547 0)"/>
    <use xlink:href="#DejaVuSans-65" transform="translate(588.916016 0)"/>
    <use xlink:href="#DejaVuSans-20" transform="translate(650.439453 0)"/>
    <use xlink:href="#DejaVuSans-65" transform="translate(682.226562 0)"/>
    <use xlink:href="#DejaVuSans-78" transform="translate(742 0)"/>
    <use xlink:href="#DejaVuSans-70" transform="translate(801.179688 0)"/>
    <use xlink:href="#DejaVuSans-6c" transform="translate(864.65625 0)"/>
    <use xlink:href="#DejaVuSans-61" transform="translate(892.439453 0)"/>
    <use xlink:href="#DejaVuSans-69" transform="translate(953.71875 0)"/>
    <use xlink:href="#DejaVuSans-6e" transform="translate(981.501953 0)"/>
    <use xlink:href="#DejaVuSans-65" transform="translate(1044.880859 0)"/>
    <use xlink:href="#DejaVuSans-64" transform="translate(1106.404297 0)"/>
    <use xlink:href="#DejaVuSans-20" transform="translate(1169.880859 0)"/>
    <use xlink:href="#DejaVuSans-62" transform="translate(1201.667969 0)"/>
    <use xlink:href="#DejaVuSans-79" transform="translate(1265.144531 0)"/>
    <use xlink:href="#DejaVuSans-20" transform="translate(1324.324219 0)"/>
    <use xlink:href="#DejaVuSans-70" transform="translate(1356.111328 0)"/>
    <use xlink:href="#DejaVuSans-72" transform="translate(1419.587891 0)"/>
    <use xlink:href="#DejaVuSans-6f" transform="translate(1458.451172 0)"/>
    <use xlink:href="#DejaVuSans-62" transform="translate(1519.632812 0)"/>
    <use xlink:href="#DejaVuSans-61" transform="translate(1583.109375 0)"/>
    <use xlink:href="#DejaVuSans-62" transform="translate(1644.388672 0)"/>
    <use xlink:href="#DejaVuSans-69" transform="translate(1707.865234 0)"/>
    <use xlink:href="#DejaVuSans-6c" transform="translate(1735.648438 0)"/>
    <use xlink:href="#DejaVuSans-69" transform="translate(1763.431641 0)"/>
    <use xlink:href="#DejaVuSans-74" transform="translate(1791.214844 0)"/>
    <use xlink:href="#DejaVuSans-79" transform="translate(1830.423828 0)"/>
    <use xlink:href="#DejaVuSans-20" transform="translate(1889.603516 0)"/>
    <use xlink:href="#DejaVuSans-63" transform="translate(1921.390625 0)"/>
    <use xlink:href="#DejaVuSans-75" transform="translate(1976.371094 0)"/>
    <use xlink:href="#DejaVuSans-65" transform="translate(2039.75 0)"/>
   </g>
  </g>
 </g>
 <defs>
  <clipPath id="pac379b25e6">
   <rect x="47.72" y="49.536" width="69.283571" height="153.704"/>
  </clipPath>
  <clipPath id="p3c01189aca">
   <rect x="133.61" y="49.536" width="69.283571" height="153.704"/>
  </clipPath>
 </defs>
</svg>
