<?xml version="1.0" encoding="utf-8" standalone="no"?>
<!DOCTYPE svg PUBLIC "-//W3C//DTD SVG 1.1//EN"
  "http://www.w3.org/Graphics/SVG/1.1/DTD/svg11.dtd">
<svg xmlns:xlink="http://www.w3.org/1999/xlink" width="208.380312pt" height="204.875042pt" viewBox="0 0 208.380312 204.875042" xmlns="http://www.w3.org/2000/svg" version="1.1">
 <metadata>
  <rdf:RDF xmlns:dc="http://purl.org/dc/elements/1.1/" xmlns:cc="http://creativecommons.org/ns#" xmlns:rdf="http://www.w3.org/1999/02/22-rdf-syntax-ns#">
   <cc:Work>
    <dc:type rdf:resource="http://purl.org/dc/dcmitype/StillImage"/>
    <dc:date>2025-06-18T19:45:09.371574</dc:date>
    <dc:format>image/svg+xml</dc:format>
    <dc:creator>
     <cc:Agent>
      <dc:title>Matplotlib v3.10.1, https://matplotlib.org/</dc:title>
     </cc:Agent>
    </dc:creator>
   </cc:Work>
  </rdf:RDF>
 </metadata>
 <defs>
  <style type="text/css">*{stroke-linejoin: round; stroke-linecap: butt}</style>
 </defs>
 <g id="figure_1">
  <g id="patch_1">
   <path d="M 0 204.875042 
L 208.380312 204.875042 
L 208.380312 0 
L 0 0 
z
"/>
  </g>
  <g id="axes_1">
   <g id="patch_2">
    <path d="M 42.620313 168.936525 
L 201.180312 168.936525 
L 201.180312 22.318125 
L 42.620313 22.318125 
z
"/>
   </g>
   <g id="PathCollection_1">
    <defs>
     <path id="meb33e661d9" d="M 0 2.738613 
C 0.726289 2.738613 1.422928 2.450055 1.936492 1.936492 
C 2.450055 1.422928 2.738613 0.726289 2.738613 0 
C 2.738613 -0.726289 2.450055 -1.422928 1.936492 -1.936492 
C 1.422928 -2.450055 0.726289 -2.738613 0 -2.738613 
C -0.726289 -2.738613 -1.422928 -2.450055 -1.936492 -1.936492 
C -2.450055 -1.422928 -2.738613 -0.726289 -2.738613 0 
C -2.738613 0.726289 -2.450055 1.422928 -1.936492 1.936492 
C -1.422928 2.450055 -0.726289 2.738613 0 2.738613 
z
" style="stroke: #b8e3b2"/>
    </defs>
    <g clip-path="url(#pb9aa9b095d)">
     <use xlink:href="#meb33e661d9" x="184.892078" y="54.622828" style="fill: #b8e3b2; stroke: #b8e3b2"/>
    </g>
   </g>
   <g id="PathCollection_2">
    <defs>
     <path id="m55992f473c" d="M 0 1.581139 
C 0.419323 1.581139 0.821528 1.41454 1.118034 1.118034 
C 1.41454 0.821528 1.581139 0.419323 1.581139 0 
C 1.581139 -0.419323 1.41454 -0.821528 1.118034 -1.118034 
C 0.821528 -1.41454 0.419323 -1.581139 0 -1.581139 
C -0.419323 -1.581139 -0.821528 -1.41454 -1.118034 -1.118034 
C -1.41454 -0.821528 -1.581139 -0.419323 -1.581139 0 
C -1.581139 0.419323 -1.41454 0.821528 -1.118034 1.118034 
C -0.821528 1.41454 -0.419323 1.581139 0 1.581139 
z
" style="stroke: #b8e3b2"/>
    </defs>
    <g clip-path="url(#pb9aa9b095d)">
     <use xlink:href="#m55992f473c" x="156.223997" y="109.277709" style="fill: #b8e3b2; stroke: #b8e3b2"/>
    </g>
   </g>
   <g id="PathCollection_3">
    <defs>
     <path id="m6886dbaa23" d="M 0 2.738613 
C 0.726289 2.738613 1.422928 2.450055 1.936492 1.936492 
C 2.450055 1.422928 2.738613 0.726289 2.738613 0 
C 2.738613 -0.726289 2.450055 -1.422928 1.936492 -1.936492 
C 1.422928 -2.450055 0.726289 -2.738613 0 -2.738613 
C -0.726289 -2.738613 -1.422928 -2.450055 -1.936492 -1.936492 
C -2.450055 -1.422928 -2.738613 -0.726289 -2.738613 0 
C -2.738613 0.726289 -2.450055 1.422928 -1.936492 1.936492 
C -1.422928 2.450055 -0.726289 2.738613 0 2.738613 
z
" style="stroke: #86cc85"/>
    </defs>
    <g clip-path="url(#pb9aa9b095d)">
     <use xlink:href="#m6886dbaa23" x="163.986758" y="71.426628" style="fill: #86cc85; stroke: #86cc85"/>
    </g>
   </g>
   <g id="PathCollection_4">
    <defs>
     <path id="mdd8f44e183" d="M 0 1.581139 
C 0.419323 1.581139 0.821528 1.41454 1.118034 1.118034 
C 1.41454 0.821528 1.581139 0.419323 1.581139 0 
C 1.581139 -0.419323 1.41454 -0.821528 1.118034 -1.118034 
C 0.821528 -1.41454 0.419323 -1.581139 0 -1.581139 
C -0.419323 -1.581139 -0.821528 -1.41454 -1.118034 -1.118034 
C -1.41454 -0.821528 -1.581139 -0.419323 -1.581139 0 
C -1.581139 0.419323 -1.41454 0.821528 -1.118034 1.118034 
C -0.821528 1.41454 -0.419323 1.581139 0 1.581139 
z
" style="stroke: #86cc85"/>
    </defs>
    <g clip-path="url(#pb9aa9b095d)">
     <use xlink:href="#mdd8f44e183" x="149.00119" y="123.523875" style="fill: #86cc85; stroke: #86cc85"/>
    </g>
   </g>
   <g id="PathCollection_5">
    <defs>
     <path id="m78ed206902" d="M 0 2.738613 
C 0.726289 2.738613 1.422928 2.450055 1.936492 1.936492 
C 2.450055 1.422928 2.738613 0.726289 2.738613 0 
C 2.738613 -0.726289 2.450055 -1.422928 1.936492 -1.936492 
C 1.422928 -2.450055 0.726289 -2.738613 0 -2.738613 
C -0.726289 -2.738613 -1.422928 -2.450055 -1.936492 -1.936492 
C -2.450055 -1.422928 -2.738613 -0.726289 -2.738613 0 
C -2.738613 0.726289 -2.450055 1.422928 -1.936492 1.936492 
C -1.422928 2.450055 -0.726289 2.738613 0 2.738613 
z
" style="stroke: #4bb062"/>
    </defs>
    <g clip-path="url(#pb9aa9b095d)">
     <use xlink:href="#m78ed206902" x="145.775339" y="78.582476" style="fill: #4bb062; stroke: #4bb062"/>
    </g>
   </g>
   <g id="PathCollection_6">
    <defs>
     <path id="mde18e5cbca" d="M 0 1.581139 
C 0.419323 1.581139 0.821528 1.41454 1.118034 1.118034 
C 1.41454 0.821528 1.581139 0.419323 1.581139 0 
C 1.581139 -0.419323 1.41454 -0.821528 1.118034 -1.118034 
C 0.821528 -1.41454 0.419323 -1.581139 0 -1.581139 
C -0.419323 -1.581139 -0.821528 -1.41454 -1.118034 -1.118034 
C -1.41454 -0.821528 -1.581139 -0.419323 -1.581139 0 
C -1.581139 0.419323 -1.41454 0.821528 -1.118034 1.118034 
C -0.821528 1.41454 -0.419323 1.581139 0 1.581139 
z
" style="stroke: #4bb062"/>
    </defs>
    <g clip-path="url(#pb9aa9b095d)">
     <use xlink:href="#mde18e5cbca" x="142.822884" y="132.778664" style="fill: #4bb062; stroke: #4bb062"/>
    </g>
   </g>
   <g id="PathCollection_7">
    <defs>
     <path id="m2b009c4fde" d="M 0 2.738613 
C 0.726289 2.738613 1.422928 2.450055 1.936492 1.936492 
C 2.450055 1.422928 2.738613 0.726289 2.738613 0 
C 2.738613 -0.726289 2.450055 -1.422928 1.936492 -1.936492 
C 1.422928 -2.450055 0.726289 -2.738613 0 -2.738613 
C -0.726289 -2.738613 -1.422928 -2.450055 -1.936492 -1.936492 
C -2.450055 -1.422928 -2.738613 -0.726289 -2.738613 0 
C -2.738613 0.726289 -2.450055 1.422928 -1.936492 1.936492 
C -1.422928 2.450055 -0.726289 2.738613 0 2.738613 
z
" style="stroke: #228a44"/>
    </defs>
    <g clip-path="url(#pb9aa9b095d)">
     <use xlink:href="#m2b009c4fde" x="132.433689" y="51.157584" style="fill: #228a44; stroke: #228a44"/>
    </g>
   </g>
   <g id="PathCollection_8">
    <defs>
     <path id="m0375f4dad0" d="M 0 1.581139 
C 0.419323 1.581139 0.821528 1.41454 1.118034 1.118034 
C 1.41454 0.821528 1.581139 0.419323 1.581139 0 
C 1.581139 -0.419323 1.41454 -0.821528 1.118034 -1.118034 
C 0.821528 -1.41454 0.419323 -1.581139 0 -1.581139 
C -0.419323 -1.581139 -0.821528 -1.41454 -1.118034 -1.118034 
C -1.41454 -0.821528 -1.581139 -0.419323 -1.581139 0 
C -1.581139 0.419323 -1.41454 0.821528 -1.118034 1.118034 
C -0.821528 1.41454 -0.419323 1.581139 0 1.581139 
z
" style="stroke: #228a44"/>
    </defs>
    <g clip-path="url(#pb9aa9b095d)">
     <use xlink:href="#m0375f4dad0" x="126.645828" y="121.047638" style="fill: #228a44; stroke: #228a44"/>
    </g>
   </g>
   <g id="PathCollection_9">
    <defs>
     <path id="md5d4f2cf8d" d="M 0 2.738613 
C 0.726289 2.738613 1.422928 2.450055 1.936492 1.936492 
C 2.450055 1.422928 2.738613 0.726289 2.738613 0 
C 2.738613 -0.726289 2.450055 -1.422928 1.936492 -1.936492 
C 1.422928 -2.450055 0.726289 -2.738613 0 -2.738613 
C -0.726289 -2.738613 -1.422928 -2.450055 -1.936492 -1.936492 
C -2.450055 -1.422928 -2.738613 -0.726289 -2.738613 0 
C -2.738613 0.726289 -2.450055 1.422928 -1.936492 1.936492 
C -1.422928 2.450055 -0.726289 2.738613 0 2.738613 
z
" style="stroke: #fd9a4e"/>
    </defs>
    <g clip-path="url(#pb9aa9b095d)">
     <use xlink:href="#md5d4f2cf8d" x="96.098223" y="66.412613" style="fill: #fd9a4e; stroke: #fd9a4e"/>
    </g>
   </g>
   <g id="PathCollection_10">
    <defs>
     <path id="m7ca681ea5b" d="M 0 1.581139 
C 0.419323 1.581139 0.821528 1.41454 1.118034 1.118034 
C 1.41454 0.821528 1.581139 0.419323 1.581139 0 
C 1.581139 -0.419323 1.41454 -0.821528 1.118034 -1.118034 
C 0.821528 -1.41454 0.419323 -1.581139 0 -1.581139 
C -0.419323 -1.581139 -0.821528 -1.41454 -1.118034 -1.118034 
C -1.41454 -0.821528 -1.581139 -0.419323 -1.581139 0 
C -1.581139 0.419323 -1.41454 0.821528 -1.118034 1.118034 
C -0.821528 1.41454 -0.419323 1.581139 0 1.581139 
z
" style="stroke: #fd9a4e"/>
    </defs>
    <g clip-path="url(#pb9aa9b095d)">
     <use xlink:href="#m7ca681ea5b" x="135.136863" y="132.928812" style="fill: #fd9a4e; stroke: #fd9a4e"/>
    </g>
   </g>
   <g id="PathCollection_11">
    <defs>
     <path id="m38925a72fa" d="M 0 2.738613 
C 0.726289 2.738613 1.422928 2.450055 1.936492 1.936492 
C 2.450055 1.422928 2.738613 0.726289 2.738613 0 
C 2.738613 -0.726289 2.450055 -1.422928 1.936492 -1.936492 
C 1.422928 -2.450055 0.726289 -2.738613 0 -2.738613 
C -0.726289 -2.738613 -1.422928 -2.450055 -1.936492 -1.936492 
C -2.450055 -1.422928 -2.738613 -0.726289 -2.738613 0 
C -2.738613 0.726289 -2.450055 1.422928 -1.936492 1.936492 
C -1.422928 2.450055 -0.726289 2.738613 0 2.738613 
z
" style="stroke: #f3701b"/>
    </defs>
    <g clip-path="url(#pb9aa9b095d)">
     <use xlink:href="#m38925a72fa" x="70.235069" y="62.067051" style="fill: #f3701b; stroke: #f3701b"/>
    </g>
   </g>
   <g id="PathCollection_12">
    <defs>
     <path id="m645a6a016a" d="M 0 1.581139 
C 0.419323 1.581139 0.821528 1.41454 1.118034 1.118034 
C 1.41454 0.821528 1.581139 0.419323 1.581139 0 
C 1.581139 -0.419323 1.41454 -0.821528 1.118034 -1.118034 
C 0.821528 -1.41454 0.419323 -1.581139 0 -1.581139 
C -0.419323 -1.581139 -0.821528 -1.41454 -1.118034 -1.118034 
C -1.41454 -0.821528 -1.581139 -0.419323 -1.581139 0 
C -1.581139 0.419323 -1.41454 0.821528 -1.118034 1.118034 
C -0.821528 1.41454 -0.419323 1.581139 0 1.581139 
z
" style="stroke: #f3701b"/>
    </defs>
    <g clip-path="url(#pb9aa9b095d)">
     <use xlink:href="#m645a6a016a" x="115.483856" y="134.108932" style="fill: #f3701b; stroke: #f3701b"/>
    </g>
   </g>
   <g id="PathCollection_13">
    <defs>
     <path id="m6c96eb437d" d="M 0 2.738613 
C 0.726289 2.738613 1.422928 2.450055 1.936492 1.936492 
C 2.450055 1.422928 2.738613 0.726289 2.738613 0 
C 2.738613 -0.726289 2.450055 -1.422928 1.936492 -1.936492 
C 1.422928 -2.450055 0.726289 -2.738613 0 -2.738613 
C -0.726289 -2.738613 -1.422928 -2.450055 -1.936492 -1.936492 
C -2.450055 -1.422928 -2.738613 -0.726289 -2.738613 0 
C -2.738613 0.726289 -2.450055 1.422928 -1.936492 1.936492 
C -1.422928 2.450055 -0.726289 2.738613 0 2.738613 
z
" style="stroke: #d84801"/>
    </defs>
    <g clip-path="url(#pb9aa9b095d)">
     <use xlink:href="#m6c96eb437d" x="67.018775" y="33.7615" style="fill: #d84801; stroke: #d84801"/>
    </g>
   </g>
   <g id="PathCollection_14">
    <defs>
     <path id="mcc1c59b1b1" d="M 0 1.581139 
C 0.419323 1.581139 0.821528 1.41454 1.118034 1.118034 
C 1.41454 0.821528 1.581139 0.419323 1.581139 0 
C 1.581139 -0.419323 1.41454 -0.821528 1.118034 -1.118034 
C 0.821528 -1.41454 0.419323 -1.581139 0 -1.581139 
C -0.419323 -1.581139 -0.821528 -1.41454 -1.118034 -1.118034 
C -1.41454 -0.821528 -1.581139 -0.419323 -1.581139 0 
C -1.581139 0.419323 -1.41454 0.821528 -1.118034 1.118034 
C -0.821528 1.41454 -0.419323 1.581139 0 1.581139 
z
" style="stroke: #d84801"/>
    </defs>
    <g clip-path="url(#pb9aa9b095d)">
     <use xlink:href="#mcc1c59b1b1" x="97.14241" y="124.46839" style="fill: #d84801; stroke: #d84801"/>
    </g>
   </g>
   <g id="PathCollection_15">
    <defs>
     <path id="md5dd7d7e42" d="M 0 2.738613 
C 0.726289 2.738613 1.422928 2.450055 1.936492 1.936492 
C 2.450055 1.422928 2.738613 0.726289 2.738613 0 
C 2.738613 -0.726289 2.450055 -1.422928 1.936492 -1.936492 
C 1.422928 -2.450055 0.726289 -2.738613 0 -2.738613 
C -0.726289 -2.738613 -1.422928 -2.450055 -1.936492 -1.936492 
C -2.450055 -1.422928 -2.738613 -0.726289 -2.738613 0 
C -2.738613 0.726289 -2.450055 1.422928 -1.936492 1.936492 
C -1.422928 2.450055 -0.726289 2.738613 0 2.738613 
z
" style="stroke: #9e3303"/>
    </defs>
    <g clip-path="url(#pb9aa9b095d)">
     <use xlink:href="#md5dd7d7e42" x="71.531825" y="28.152464" style="fill: #9e3303; stroke: #9e3303"/>
    </g>
   </g>
   <g id="PathCollection_16">
    <defs>
     <path id="m4ac6ba6c32" d="M 0 1.581139 
C 0.419323 1.581139 0.821528 1.41454 1.118034 1.118034 
C 1.41454 0.821528 1.581139 0.419323 1.581139 0 
C 1.581139 -0.419323 1.41454 -0.821528 1.118034 -1.118034 
C 0.821528 -1.41454 0.419323 -1.581139 0 -1.581139 
C -0.419323 -1.581139 -0.821528 -1.41454 -1.118034 -1.118034 
C -1.41454 -0.821528 -1.581139 -0.419323 -1.581139 0 
C -1.581139 0.419323 -1.41454 0.821528 -1.118034 1.118034 
C -0.821528 1.41454 -0.419323 1.581139 0 1.581139 
z
" style="stroke: #9e3303"/>
    </defs>
    <g clip-path="url(#pb9aa9b095d)">
     <use xlink:href="#m4ac6ba6c32" x="97.937857" y="113.531109" style="fill: #9e3303; stroke: #9e3303"/>
    </g>
   </g>
   <g id="matplotlib.axis_1">
    <g id="xtick_1">
     <g id="line2d_1">
      <defs>
       <path id="md9b3875770" d="M 0 0 
L 0 3.5 
" style="stroke: #ffffff; stroke-width: 0.8"/>
      </defs>
      <g>
       <use xlink:href="#md9b3875770" x="53.190979" y="168.936525" style="fill: #ffffff; stroke: #ffffff; stroke-width: 0.8"/>
      </g>
     </g>
     <g id="text_1">
      <!-- −0.5 -->
      <g style="fill: #ffffff" transform="translate(41.049573 183.534963) scale(0.1 -0.1)">
       <defs>
        <path id="DejaVuSans-2212" d="M 678 2272 
L 4684 2272 
L 4684 1741 
L 678 1741 
L 678 2272 
z
" transform="scale(0.015625)"/>
        <path id="DejaVuSans-30" d="M 2034 4250 
Q 1547 4250 1301 3770 
Q 1056 3291 1056 2328 
Q 1056 1369 1301 889 
Q 1547 409 2034 409 
Q 2525 409 2770 889 
Q 3016 1369 3016 2328 
Q 3016 3291 2770 3770 
Q 2525 4250 2034 4250 
z
M 2034 4750 
Q 2819 4750 3233 4129 
Q 3647 3509 3647 2328 
Q 3647 1150 3233 529 
Q 2819 -91 2034 -91 
Q 1250 -91 836 529 
Q 422 1150 422 2328 
Q 422 3509 836 4129 
Q 1250 4750 2034 4750 
z
" transform="scale(0.015625)"/>
        <path id="DejaVuSans-2e" d="M 684 794 
L 1344 794 
L 1344 0 
L 684 0 
L 684 794 
z
" transform="scale(0.015625)"/>
        <path id="DejaVuSans-35" d="M 691 4666 
L 3169 4666 
L 3169 4134 
L 1269 4134 
L 1269 2991 
Q 1406 3038 1543 3061 
Q 1681 3084 1819 3084 
Q 2600 3084 3056 2656 
Q 3513 2228 3513 1497 
Q 3513 744 3044 326 
Q 2575 -91 1722 -91 
Q 1428 -91 1123 -41 
Q 819 9 494 109 
L 494 744 
Q 775 591 1075 516 
Q 1375 441 1709 441 
Q 2250 441 2565 725 
Q 2881 1009 2881 1497 
Q 2881 1984 2565 2268 
Q 2250 2553 1709 2553 
Q 1456 2553 1204 2497 
Q 953 2441 691 2322 
L 691 4666 
z
" transform="scale(0.015625)"/>
       </defs>
       <use xlink:href="#DejaVuSans-2212"/>
       <use xlink:href="#DejaVuSans-30" transform="translate(83.789062 0)"/>
       <use xlink:href="#DejaVuSans-2e" transform="translate(147.412109 0)"/>
       <use xlink:href="#DejaVuSans-35" transform="translate(179.199219 0)"/>
      </g>
     </g>
    </g>
    <g id="xtick_2">
     <g id="line2d_2">
      <g>
       <use xlink:href="#md9b3875770" x="106.044312" y="168.936525" style="fill: #ffffff; stroke: #ffffff; stroke-width: 0.8"/>
      </g>
     </g>
     <g id="text_2">
      <!-- 0.0 -->
      <g style="fill: #ffffff" transform="translate(98.09275 183.534963) scale(0.1 -0.1)">
       <use xlink:href="#DejaVuSans-30"/>
       <use xlink:href="#DejaVuSans-2e" transform="translate(63.623047 0)"/>
       <use xlink:href="#DejaVuSans-30" transform="translate(95.410156 0)"/>
      </g>
     </g>
    </g>
    <g id="xtick_3">
     <g id="line2d_3">
      <g>
       <use xlink:href="#md9b3875770" x="158.897646" y="168.936525" style="fill: #ffffff; stroke: #ffffff; stroke-width: 0.8"/>
      </g>
     </g>
     <g id="text_3">
      <!-- 0.5 -->
      <g style="fill: #ffffff" transform="translate(150.946083 183.534963) scale(0.1 -0.1)">
       <use xlink:href="#DejaVuSans-30"/>
       <use xlink:href="#DejaVuSans-2e" transform="translate(63.623047 0)"/>
       <use xlink:href="#DejaVuSans-35" transform="translate(95.410156 0)"/>
      </g>
     </g>
    </g>
    <g id="text_4">
     <!-- PC2 -->
     <g style="fill: #ffffff" transform="translate(96.356812 195.595355) scale(0.1 -0.1)">
      <defs>
       <path id="DejaVuSans-50" d="M 1259 4147 
L 1259 2394 
L 2053 2394 
Q 2494 2394 2734 2622 
Q 2975 2850 2975 3272 
Q 2975 3691 2734 3919 
Q 2494 4147 2053 4147 
L 1259 4147 
z
M 628 4666 
L 2053 4666 
Q 2838 4666 3239 4311 
Q 3641 3956 3641 3272 
Q 3641 2581 3239 2228 
Q 2838 1875 2053 1875 
L 1259 1875 
L 1259 0 
L 628 0 
L 628 4666 
z
" transform="scale(0.015625)"/>
       <path id="DejaVuSans-43" d="M 4122 4306 
L 4122 3641 
Q 3803 3938 3442 4084 
Q 3081 4231 2675 4231 
Q 1875 4231 1450 3742 
Q 1025 3253 1025 2328 
Q 1025 1406 1450 917 
Q 1875 428 2675 428 
Q 3081 428 3442 575 
Q 3803 722 4122 1019 
L 4122 359 
Q 3791 134 3420 21 
Q 3050 -91 2638 -91 
Q 1578 -91 968 557 
Q 359 1206 359 2328 
Q 359 3453 968 4101 
Q 1578 4750 2638 4750 
Q 3056 4750 3426 4639 
Q 3797 4528 4122 4306 
z
" transform="scale(0.015625)"/>
       <path id="DejaVuSans-32" d="M 1228 531 
L 3431 531 
L 3431 0 
L 469 0 
L 469 531 
Q 828 903 1448 1529 
Q 2069 2156 2228 2338 
Q 2531 2678 2651 2914 
Q 2772 3150 2772 3378 
Q 2772 3750 2511 3984 
Q 2250 4219 1831 4219 
Q 1534 4219 1204 4116 
Q 875 4013 500 3803 
L 500 4441 
Q 881 4594 1212 4672 
Q 1544 4750 1819 4750 
Q 2544 4750 2975 4387 
Q 3406 4025 3406 3419 
Q 3406 3131 3298 2873 
Q 3191 2616 2906 2266 
Q 2828 2175 2409 1742 
Q 1991 1309 1228 531 
z
" transform="scale(0.015625)"/>
      </defs>
      <use xlink:href="#DejaVuSans-50"/>
      <use xlink:href="#DejaVuSans-43" transform="translate(60.302734 0)"/>
      <use xlink:href="#DejaVuSans-32" transform="translate(130.126953 0)"/>
     </g>
    </g>
   </g>
   <g id="matplotlib.axis_2">
    <g id="ytick_1">
     <g id="line2d_4">
      <defs>
       <path id="m1ad74dc791" d="M 0 0 
L -3.5 0 
" style="stroke: #ffffff; stroke-width: 0.8"/>
      </defs>
      <g>
       <use xlink:href="#m1ad74dc791" x="42.620313" y="165.445611" style="fill: #ffffff; stroke: #ffffff; stroke-width: 0.8"/>
      </g>
     </g>
     <g id="text_5">
      <!-- −1 -->
      <g style="fill: #ffffff" transform="translate(20.878125 169.244829) scale(0.1 -0.1)">
       <defs>
        <path id="DejaVuSans-31" d="M 794 531 
L 1825 531 
L 1825 4091 
L 703 3866 
L 703 4441 
L 1819 4666 
L 2450 4666 
L 2450 531 
L 3481 531 
L 3481 0 
L 794 0 
L 794 531 
z
" transform="scale(0.015625)"/>
       </defs>
       <use xlink:href="#DejaVuSans-2212"/>
       <use xlink:href="#DejaVuSans-31" transform="translate(83.789062 0)"/>
      </g>
     </g>
    </g>
    <g id="ytick_2">
     <g id="line2d_5">
      <g>
       <use xlink:href="#m1ad74dc791" x="42.620313" y="130.536468" style="fill: #ffffff; stroke: #ffffff; stroke-width: 0.8"/>
      </g>
     </g>
     <g id="text_6">
      <!-- 0 -->
      <g style="fill: #ffffff" transform="translate(29.257813 134.335687) scale(0.1 -0.1)">
       <use xlink:href="#DejaVuSans-30"/>
      </g>
     </g>
    </g>
    <g id="ytick_3">
     <g id="line2d_6">
      <g>
       <use xlink:href="#m1ad74dc791" x="42.620313" y="95.627325" style="fill: #ffffff; stroke: #ffffff; stroke-width: 0.8"/>
      </g>
     </g>
     <g id="text_7">
      <!-- 1 -->
      <g style="fill: #ffffff" transform="translate(29.257813 99.426544) scale(0.1 -0.1)">
       <use xlink:href="#DejaVuSans-31"/>
      </g>
     </g>
    </g>
    <g id="ytick_4">
     <g id="line2d_7">
      <g>
       <use xlink:href="#m1ad74dc791" x="42.620313" y="60.718182" style="fill: #ffffff; stroke: #ffffff; stroke-width: 0.8"/>
      </g>
     </g>
     <g id="text_8">
      <!-- 2 -->
      <g style="fill: #ffffff" transform="translate(29.257813 64.517401) scale(0.1 -0.1)">
       <use xlink:href="#DejaVuSans-32"/>
      </g>
     </g>
    </g>
    <g id="ytick_5">
     <g id="line2d_8">
      <g>
       <use xlink:href="#m1ad74dc791" x="42.620313" y="25.809039" style="fill: #ffffff; stroke: #ffffff; stroke-width: 0.8"/>
      </g>
     </g>
     <g id="text_9">
      <!-- 3 -->
      <g style="fill: #ffffff" transform="translate(29.257813 29.608258) scale(0.1 -0.1)">
       <defs>
        <path id="DejaVuSans-33" d="M 2597 2516 
Q 3050 2419 3304 2112 
Q 3559 1806 3559 1356 
Q 3559 666 3084 287 
Q 2609 -91 1734 -91 
Q 1441 -91 1130 -33 
Q 819 25 488 141 
L 488 750 
Q 750 597 1062 519 
Q 1375 441 1716 441 
Q 2309 441 2620 675 
Q 2931 909 2931 1356 
Q 2931 1769 2642 2001 
Q 2353 2234 1838 2234 
L 1294 2234 
L 1294 2753 
L 1863 2753 
Q 2328 2753 2575 2939 
Q 2822 3125 2822 3475 
Q 2822 3834 2567 4026 
Q 2313 4219 1838 4219 
Q 1578 4219 1281 4162 
Q 984 4106 628 3988 
L 628 4550 
Q 988 4650 1302 4700 
Q 1616 4750 1894 4750 
Q 2613 4750 3031 4423 
Q 3450 4097 3450 3541 
Q 3450 3153 3228 2886 
Q 3006 2619 2597 2516 
z
" transform="scale(0.015625)"/>
       </defs>
       <use xlink:href="#DejaVuSans-33"/>
      </g>
     </g>
    </g>
    <g id="text_10">
     <!-- PC1 -->
     <g style="fill: #ffffff" transform="translate(14.798438 105.314825) rotate(-90) scale(0.1 -0.1)">
      <use xlink:href="#DejaVuSans-50"/>
      <use xlink:href="#DejaVuSans-43" transform="translate(60.302734 0)"/>
      <use xlink:href="#DejaVuSans-31" transform="translate(130.126953 0)"/>
     </g>
    </g>
   </g>
   <g id="line2d_9">
    <path d="M 101.331743 157.773635 
L 100.122086 158.099291 
L 98.941781 158.634845 
L 98.081329 159.242449 
L 97.63401 159.807574 
L 97.560756 160.215027 
L 97.734542 160.533349 
L 98.170585 160.780638 
L 98.90012 160.925858 
L 100.102703 160.926565 
L 101.732844 160.709382 
L 104.057945 160.155858 
L 106.915946 159.215851 
L 109.917806 157.995754 
L 113.28568 156.388767 
L 116.964917 154.372338 
L 120.442517 152.225791 
L 124.05894 149.743987 
L 127.755618 146.93246 
L 131.471573 143.803994 
L 134.690722 140.822058 
L 137.838009 137.630132 
L 140.876052 134.249374 
L 143.770946 130.704134 
L 146.493254 127.021453 
L 149.018877 123.230484 
L 151.329751 119.361868 
L 153.414343 115.447059 
L 155.267948 111.517649 
L 156.892736 107.60469 
L 158.481132 103.191106 
L 159.805717 98.879586 
L 161.021588 94.197677 
L 162.196352 88.781319 
L 165.417032 73.018857 
L 166.330664 70.201536 
L 167.280469 67.946072 
L 168.376083 65.912958 
L 169.621465 64.088662 
L 171.008982 62.458597 
L 172.519669 61.008107 
L 174.329304 59.573825 
L 176.410397 58.205609 
L 178.877151 56.853133 
L 181.651211 55.583043 
L 184.241939 54.621176 
L 184.977028 54.503479 
L 184.977029 54.516944 
L 184.920464 54.596456 
L 184.920464 54.596456 
" clip-path="url(#pb9aa9b095d)" style="fill: none; stroke: #b8e3b2; stroke-opacity: 0.5; stroke-width: 2; stroke-linecap: square"/>
   </g>
   <g id="line2d_10">
    <path d="M 102.581892 159.233831 
L 101.434412 159.625768 
L 100.015583 160.33133 
L 99.333054 160.872492 
L 99.344754 161.058992 
L 99.626423 161.089061 
L 100.442529 160.923518 
L 102.125671 160.341076 
L 104.88714 159.129679 
L 108.377928 157.349854 
L 112.36472 155.076011 
L 116.974176 152.179122 
L 121.662727 148.958724 
L 126.208057 145.573073 
L 130.870039 141.815454 
L 135.106998 138.12414 
L 139.249572 134.223531 
L 143.2133 130.171072 
L 146.565626 126.444396 
L 149.666565 122.68921 
L 152.480352 118.949532 
L 154.982168 115.266741 
L 157.158564 111.678182 
L 159.007347 108.215998 
L 160.536911 104.906248 
L 161.884015 101.430916 
L 162.895015 98.184335 
L 163.67237 94.884972 
L 164.196734 91.605523 
L 164.484155 88.406741 
L 164.589304 84.715469 
L 164.493825 78.030189 
L 164.305846 73.00223 
L 164.035519 71.572888 
L 164.011611 71.498794 
L 164.011611 71.498794 
" clip-path="url(#pb9aa9b095d)" style="fill: none; stroke: #86cc85; stroke-opacity: 0.5; stroke-width: 2; stroke-linecap: square"/>
   </g>
   <g id="line2d_11">
    <path d="M 102.355192 159.669589 
L 100.848065 159.866596 
L 99.284712 160.266462 
L 99.217288 160.314533 
L 99.448324 160.307405 
L 100.834286 159.963721 
L 103.510177 159.071474 
L 107.083684 157.643866 
L 111.101019 155.799595 
L 115.467269 153.543254 
L 119.924095 150.979882 
L 124.257282 148.229895 
L 128.308593 145.412902 
L 132.338597 142.348666 
L 136.256174 139.080598 
L 139.648986 135.97403 
L 142.822884 132.778664 
L 145.729751 129.533678 
L 148.330479 126.276505 
L 150.384632 123.362832 
L 152.151463 120.488382 
L 153.621778 117.670831 
L 154.792039 114.923657 
L 155.663996 112.255999 
L 156.193911 109.955565 
L 156.501006 107.722775 
L 156.595624 105.556427 
L 156.464179 103.195091 
L 156.102033 100.908407 
L 155.53472 98.689719 
L 154.699144 96.296385 
L 153.472509 93.51475 
L 151.720319 90.16908 
L 146.488823 80.579691 
L 145.814833 78.724691 
L 145.814833 78.724691 
" clip-path="url(#pb9aa9b095d)" style="fill: none; stroke: #4bb062; stroke-opacity: 0.5; stroke-width: 2; stroke-linecap: square"/>
   </g>
   <g id="line2d_12">
    <path d="M 100.718435 158.757508 
L 100.268234 158.963297 
L 99.969862 159.321009 
L 99.992066 159.563723 
L 100.238451 159.679098 
L 100.75156 159.649837 
L 101.655574 159.371848 
L 103.067404 158.683994 
L 104.804118 157.579217 
L 106.753777 156.077952 
L 108.799251 154.236168 
L 111.025879 151.922753 
L 113.171245 149.370018 
L 115.3609 146.397418 
L 117.344215 143.333405 
L 119.280692 139.93449 
L 121.136033 136.216316 
L 122.881841 132.200436 
L 124.496772 127.913869 
L 125.967098 123.388587 
L 127.4103 118.178592 
L 128.672641 112.777591 
L 129.854987 106.736542 
L 130.929529 100.108167 
L 131.941334 92.489683 
L 132.890748 83.62053 
L 133.693728 74.022768 
L 134.184174 65.655002 
L 134.334784 59.467472 
L 134.229167 55.446547 
L 133.968671 52.893953 
L 133.610667 51.355357 
L 133.250362 50.677024 
L 132.97542 50.534047 
L 132.739526 50.642513 
L 132.490535 51.021861 
L 132.461789 51.087727 
L 132.461789 51.087727 
" clip-path="url(#pb9aa9b095d)" style="fill: none; stroke: #228a44; stroke-opacity: 0.5; stroke-width: 2; stroke-linecap: square"/>
   </g>
   <g id="line2d_13">
    <path d="M 103.02869 159.506607 
L 104.727237 158.853407 
L 106.124511 158.295618 
L 118.951252 148.64558 
L 123.527695 144.768453 
L 127.393054 141.216422 
L 130.969003 137.629386 
L 134.120149 134.140596 
L 136.776709 130.860772 
L 138.925561 127.875832 
L 140.856307 124.805115 
L 142.300087 122.121498 
L 143.518287 119.405485 
L 144.484654 116.671763 
L 145.080956 114.390751 
L 145.47523 112.116084 
L 145.658418 109.855999 
L 145.623758 107.618467 
L 145.366943 105.411107 
L 144.886228 103.241113 
L 144.182518 101.115184 
L 143.259398 99.039463 
L 142.123139 97.019479 
L 140.782649 95.060108 
L 139.249385 93.165535 
L 137.174722 90.982408 
L 134.870832 88.902139 
L 132.370131 86.927796 
L 129.252046 84.760271 
L 125.500174 82.461999 
L 121.156564 80.099333 
L 115.872615 77.515031 
L 107.908139 73.923013 
L 102.199291 71.265384 
L 99.51326 69.795542 
L 97.908433 68.699017 
L 96.911203 67.784765 
L 96.35596 67.0279 
L 96.13523 66.534668 
L 96.13523 66.534668 
" clip-path="url(#pb9aa9b095d)" style="fill: none; stroke: #fd9a4e; stroke-opacity: 0.5; stroke-width: 2; stroke-linecap: square"/>
   </g>
   <g id="line2d_14">
    <path d="M 102.346592 159.303539 
L 102.624372 159.185862 
L 102.525405 159.145204 
L 101.763457 158.875468 
L 101.573596 158.577796 
L 101.571153 158.143515 
L 101.828812 157.42199 
L 102.558054 156.1768 
L 104.340009 153.677215 
L 108.564955 147.780168 
L 110.678782 144.443624 
L 112.471589 141.219582 
L 114.007342 137.982661 
L 115.237141 134.836258 
L 116.153834 131.869515 
L 116.782713 129.155366 
L 117.22018 126.343548 
L 117.440513 123.447436 
L 117.42141 120.481419 
L 117.200586 117.894977 
L 116.781812 115.278241 
L 116.15932 112.641336 
L 115.330401 109.994482 
L 114.295552 107.347896 
L 112.833178 104.274021 
L 111.107443 101.229922 
L 109.135963 98.230674 
L 106.942001 95.290571 
L 104.198895 92.019952 
L 101.252169 88.862169 
L 97.763544 85.464531 
L 93.773381 81.90445 
L 88.995819 77.959985 
L 82.63781 73.029831 
L 74.69212 66.849088 
L 72.338142 64.74466 
L 71.000484 63.280087 
L 70.286226 62.177371 
L 70.286226 62.177371 
" clip-path="url(#pb9aa9b095d)" style="fill: none; stroke: #f3701b; stroke-opacity: 0.5; stroke-width: 2; stroke-linecap: square"/>
   </g>
   <g id="line2d_15">
    <path d="M 102.460402 159.022961 
L 102.202707 158.42496 
L 102.234133 157.983716 
L 102.508706 157.530111 
L 104.160143 155.427832 
L 104.520903 154.398079 
L 104.741874 153.10038 
L 104.796219 151.383364 
L 104.624797 149.164303 
L 104.170564 146.367666 
L 103.38258 142.93157 
L 102.105362 138.439369 
L 100.355859 133.128057 
L 97.934168 126.517065 
L 94.750345 118.502367 
L 90.509105 108.47424 
L 84.921767 95.863204 
L 69.923257 62.344205 
L 67.080731 55.310075 
L 65.1742 50.032416 
L 63.902763 45.855677 
L 63.160196 42.62563 
L 62.830494 40.181091 
L 62.801102 38.369046 
L 63.009651 36.885236 
L 63.376309 35.844375 
L 63.902673 35.031103 
L 64.575312 34.431657 
L 65.379482 34.031097 
L 66.299544 33.813666 
L 66.871139 33.765407 
L 66.871139 33.765407 
" clip-path="url(#pb9aa9b095d)" style="fill: none; stroke: #d84801; stroke-opacity: 0.5; stroke-width: 2; stroke-linecap: square"/>
   </g>
   <g id="line2d_16">
    <path d="M 101.55916 159.094496 
L 101.563036 158.267953 
L 101.782986 157.615344 
L 103.5443 153.958739 
L 104.011135 152.099573 
L 104.357233 149.772123 
L 104.530018 147.018256 
L 104.501565 143.922442 
L 104.235221 140.238929 
L 103.740131 136.360506 
L 102.965999 131.973631 
L 101.883461 127.089547 
L 100.473221 121.734922 
L 98.72837 115.951935 
L 96.431658 109.164422 
L 93.770087 102.022744 
L 90.513783 93.959213 
L 86.682461 85.085364 
L 81.763508 74.280981 
L 69.563471 47.787905 
L 67.366841 42.331798 
L 66.015085 38.42525 
L 65.193382 35.425272 
L 64.781316 33.172182 
L 64.663539 31.304111 
L 64.791856 29.977723 
L 65.122489 28.928739 
L 65.554218 28.240994 
L 66.109742 27.738724 
L 66.775122 27.41173 
L 67.670101 27.237042 
L 68.668828 27.267425 
L 69.903937 27.528644 
L 71.366712 28.076651 
L 71.366712 28.076651 
" clip-path="url(#pb9aa9b095d)" style="fill: none; stroke: #9e3303; stroke-opacity: 0.5; stroke-width: 2; stroke-linecap: square"/>
   </g>
   <g id="patch_3">
    <path d="M 42.620313 165.445611 
L 42.620313 25.809039 
" style="fill: none; stroke: #ffffff; stroke-width: 0.8; stroke-linejoin: miter; stroke-linecap: square"/>
   </g>
   <g id="patch_4">
    <path d="M 53.190979 168.936525 
L 158.897646 168.936525 
" style="fill: none; stroke: #ffffff; stroke-width: 0.8; stroke-linejoin: miter; stroke-linecap: square"/>
   </g>
   <g id="text_11">
    <!-- EMG trajectories -->
    <g style="fill: #ffffff" transform="translate(72.248437 16.318125) scale(0.12 -0.12)">
     <defs>
      <path id="DejaVuSans-45" d="M 628 4666 
L 3578 4666 
L 3578 4134 
L 1259 4134 
L 1259 2753 
L 3481 2753 
L 3481 2222 
L 1259 2222 
L 1259 531 
L 3634 531 
L 3634 0 
L 628 0 
L 628 4666 
z
" transform="scale(0.015625)"/>
      <path id="DejaVuSans-4d" d="M 628 4666 
L 1569 4666 
L 2759 1491 
L 3956 4666 
L 4897 4666 
L 4897 0 
L 4281 0 
L 4281 4097 
L 3078 897 
L 2444 897 
L 1241 4097 
L 1241 0 
L 628 0 
L 628 4666 
z
" transform="scale(0.015625)"/>
      <path id="DejaVuSans-47" d="M 3809 666 
L 3809 1919 
L 2778 1919 
L 2778 2438 
L 4434 2438 
L 4434 434 
Q 4069 175 3628 42 
Q 3188 -91 2688 -91 
Q 1594 -91 976 548 
Q 359 1188 359 2328 
Q 359 3472 976 4111 
Q 1594 4750 2688 4750 
Q 3144 4750 3555 4637 
Q 3966 4525 4313 4306 
L 4313 3634 
Q 3963 3931 3569 4081 
Q 3175 4231 2741 4231 
Q 1884 4231 1454 3753 
Q 1025 3275 1025 2328 
Q 1025 1384 1454 906 
Q 1884 428 2741 428 
Q 3075 428 3337 486 
Q 3600 544 3809 666 
z
" transform="scale(0.015625)"/>
      <path id="DejaVuSans-20" transform="scale(0.015625)"/>
      <path id="DejaVuSans-74" d="M 1172 4494 
L 1172 3500 
L 2356 3500 
L 2356 3053 
L 1172 3053 
L 1172 1153 
Q 1172 725 1289 603 
Q 1406 481 1766 481 
L 2356 481 
L 2356 0 
L 1766 0 
Q 1100 0 847 248 
Q 594 497 594 1153 
L 594 3053 
L 172 3053 
L 172 3500 
L 594 3500 
L 594 4494 
L 1172 4494 
z
" transform="scale(0.015625)"/>
      <path id="DejaVuSans-72" d="M 2631 2963 
Q 2534 3019 2420 3045 
Q 2306 3072 2169 3072 
Q 1681 3072 1420 2755 
Q 1159 2438 1159 1844 
L 1159 0 
L 581 0 
L 581 3500 
L 1159 3500 
L 1159 2956 
Q 1341 3275 1631 3429 
Q 1922 3584 2338 3584 
Q 2397 3584 2469 3576 
Q 2541 3569 2628 3553 
L 2631 2963 
z
" transform="scale(0.015625)"/>
      <path id="DejaVuSans-61" d="M 2194 1759 
Q 1497 1759 1228 1600 
Q 959 1441 959 1056 
Q 959 750 1161 570 
Q 1363 391 1709 391 
Q 2188 391 2477 730 
Q 2766 1069 2766 1631 
L 2766 1759 
L 2194 1759 
z
M 3341 1997 
L 3341 0 
L 2766 0 
L 2766 531 
Q 2569 213 2275 61 
Q 1981 -91 1556 -91 
Q 1019 -91 701 211 
Q 384 513 384 1019 
Q 384 1609 779 1909 
Q 1175 2209 1959 2209 
L 2766 2209 
L 2766 2266 
Q 2766 2663 2505 2880 
Q 2244 3097 1772 3097 
Q 1472 3097 1187 3025 
Q 903 2953 641 2809 
L 641 3341 
Q 956 3463 1253 3523 
Q 1550 3584 1831 3584 
Q 2591 3584 2966 3190 
Q 3341 2797 3341 1997 
z
" transform="scale(0.015625)"/>
      <path id="DejaVuSans-6a" d="M 603 3500 
L 1178 3500 
L 1178 -63 
Q 1178 -731 923 -1031 
Q 669 -1331 103 -1331 
L -116 -1331 
L -116 -844 
L 38 -844 
Q 366 -844 484 -692 
Q 603 -541 603 -63 
L 603 3500 
z
M 603 4863 
L 1178 4863 
L 1178 4134 
L 603 4134 
L 603 4863 
z
" transform="scale(0.015625)"/>
      <path id="DejaVuSans-65" d="M 3597 1894 
L 3597 1613 
L 953 1613 
Q 991 1019 1311 708 
Q 1631 397 2203 397 
Q 2534 397 2845 478 
Q 3156 559 3463 722 
L 3463 178 
Q 3153 47 2828 -22 
Q 2503 -91 2169 -91 
Q 1331 -91 842 396 
Q 353 884 353 1716 
Q 353 2575 817 3079 
Q 1281 3584 2069 3584 
Q 2775 3584 3186 3129 
Q 3597 2675 3597 1894 
z
M 3022 2063 
Q 3016 2534 2758 2815 
Q 2500 3097 2075 3097 
Q 1594 3097 1305 2825 
Q 1016 2553 972 2059 
L 3022 2063 
z
" transform="scale(0.015625)"/>
      <path id="DejaVuSans-63" d="M 3122 3366 
L 3122 2828 
Q 2878 2963 2633 3030 
Q 2388 3097 2138 3097 
Q 1578 3097 1268 2742 
Q 959 2388 959 1747 
Q 959 1106 1268 751 
Q 1578 397 2138 397 
Q 2388 397 2633 464 
Q 2878 531 3122 666 
L 3122 134 
Q 2881 22 2623 -34 
Q 2366 -91 2075 -91 
Q 1284 -91 818 406 
Q 353 903 353 1747 
Q 353 2603 823 3093 
Q 1294 3584 2113 3584 
Q 2378 3584 2631 3529 
Q 2884 3475 3122 3366 
z
" transform="scale(0.015625)"/>
      <path id="DejaVuSans-6f" d="M 1959 3097 
Q 1497 3097 1228 2736 
Q 959 2375 959 1747 
Q 959 1119 1226 758 
Q 1494 397 1959 397 
Q 2419 397 2687 759 
Q 2956 1122 2956 1747 
Q 2956 2369 2687 2733 
Q 2419 3097 1959 3097 
z
M 1959 3584 
Q 2709 3584 3137 3096 
Q 3566 2609 3566 1747 
Q 3566 888 3137 398 
Q 2709 -91 1959 -91 
Q 1206 -91 779 398 
Q 353 888 353 1747 
Q 353 2609 779 3096 
Q 1206 3584 1959 3584 
z
" transform="scale(0.015625)"/>
      <path id="DejaVuSans-69" d="M 603 3500 
L 1178 3500 
L 1178 0 
L 603 0 
L 603 3500 
z
M 603 4863 
L 1178 4863 
L 1178 4134 
L 603 4134 
L 603 4863 
z
" transform="scale(0.015625)"/>
      <path id="DejaVuSans-73" d="M 2834 3397 
L 2834 2853 
Q 2591 2978 2328 3040 
Q 2066 3103 1784 3103 
Q 1356 3103 1142 2972 
Q 928 2841 928 2578 
Q 928 2378 1081 2264 
Q 1234 2150 1697 2047 
L 1894 2003 
Q 2506 1872 2764 1633 
Q 3022 1394 3022 966 
Q 3022 478 2636 193 
Q 2250 -91 1575 -91 
Q 1294 -91 989 -36 
Q 684 19 347 128 
L 347 722 
Q 666 556 975 473 
Q 1284 391 1588 391 
Q 1994 391 2212 530 
Q 2431 669 2431 922 
Q 2431 1156 2273 1281 
Q 2116 1406 1581 1522 
L 1381 1569 
Q 847 1681 609 1914 
Q 372 2147 372 2553 
Q 372 3047 722 3315 
Q 1072 3584 1716 3584 
Q 2034 3584 2315 3537 
Q 2597 3491 2834 3397 
z
" transform="scale(0.015625)"/>
     </defs>
     <use xlink:href="#DejaVuSans-45"/>
     <use xlink:href="#DejaVuSans-4d" transform="translate(63.183594 0)"/>
     <use xlink:href="#DejaVuSans-47" transform="translate(149.462891 0)"/>
     <use xlink:href="#DejaVuSans-20" transform="translate(226.953125 0)"/>
     <use xlink:href="#DejaVuSans-74" transform="translate(258.740234 0)"/>
     <use xlink:href="#DejaVuSans-72" transform="translate(297.949219 0)"/>
     <use xlink:href="#DejaVuSans-61" transform="translate(339.0625 0)"/>
     <use xlink:href="#DejaVuSans-6a" transform="translate(400.341797 0)"/>
     <use xlink:href="#DejaVuSans-65" transform="translate(428.125 0)"/>
     <use xlink:href="#DejaVuSans-63" transform="translate(489.648438 0)"/>
     <use xlink:href="#DejaVuSans-74" transform="translate(544.628906 0)"/>
     <use xlink:href="#DejaVuSans-6f" transform="translate(583.837891 0)"/>
     <use xlink:href="#DejaVuSans-72" transform="translate(645.019531 0)"/>
     <use xlink:href="#DejaVuSans-69" transform="translate(686.132812 0)"/>
     <use xlink:href="#DejaVuSans-65" transform="translate(713.916016 0)"/>
     <use xlink:href="#DejaVuSans-73" transform="translate(775.439453 0)"/>
    </g>
   </g>
  </g>
 </g>
 <defs>
  <clipPath id="pb9aa9b095d">
   <rect x="42.620313" y="22.318125" width="158.56" height="146.6184"/>
  </clipPath>
 </defs>
</svg>
