<?xml version="1.0" encoding="utf-8" standalone="no"?>
<!DOCTYPE svg PUBLIC "-//W3C//DTD SVG 1.1//EN"
  "http://www.w3.org/Graphics/SVG/1.1/DTD/svg11.dtd">
<svg xmlns:xlink="http://www.w3.org/1999/xlink" width="661.651875pt" height="144.72pt" viewBox="0 0 661.651875 144.72" xmlns="http://www.w3.org/2000/svg" version="1.1">
 <metadata>
  <rdf:RDF xmlns:dc="http://purl.org/dc/elements/1.1/" xmlns:cc="http://creativecommons.org/ns#" xmlns:rdf="http://www.w3.org/1999/02/22-rdf-syntax-ns#">
   <cc:Work>
    <dc:type rdf:resource="http://purl.org/dc/dcmitype/StillImage"/>
    <dc:date>2025-05-30T18:12:01.845225</dc:date>
    <dc:format>image/svg+xml</dc:format>
    <dc:creator>
     <cc:Agent>
      <dc:title>Matplotlib v3.10.1, https://matplotlib.org/</dc:title>
     </cc:Agent>
    </dc:creator>
   </cc:Work>
  </rdf:RDF>
 </metadata>
 <defs>
  <style type="text/css">*{stroke-linejoin: round; stroke-linecap: butt}</style>
 </defs>
 <g id="figure_1">
  <g id="patch_1">
   <path d="M 0 144.72 
L 661.651875 144.72 
L 661.651875 0 
L 0 0 
z
"/>
  </g>
  <g id="axes_1">
   <g id="patch_2">
    <path d="M 56.50625 137.52 
L 107.78625 137.52 
L 107.78625 38.88 
L 56.50625 38.88 
z
"/>
   </g>
   <g id="patch_3">
    <path d="M 61.63425 126.050233 
L 68.471583 126.050233 
L 68.471583 122.703606 
L 61.63425 122.703606 
z
" clip-path="url(#pd95ff1553f)" style="fill: #c0a54b"/>
   </g>
   <g id="patch_4">
    <path d="M 70.180917 126.050233 
L 77.01825 126.050233 
L 77.01825 128.876917 
L 70.180917 128.876917 
z
" clip-path="url(#pd95ff1553f)" style="fill: #20dfdf"/>
   </g>
   <g id="patch_5">
    <path d="M 78.727583 126.050233 
L 85.564917 126.050233 
L 85.564917 120.699087 
L 78.727583 120.699087 
z
" clip-path="url(#pd95ff1553f)" style="fill: #df2020"/>
   </g>
   <g id="patch_6">
    <path d="M 87.27425 126.050233 
L 94.111583 126.050233 
L 94.111583 125.686046 
L 87.27425 125.686046 
z
" clip-path="url(#pd95ff1553f)" style="fill: #2020df"/>
   </g>
   <g id="patch_7">
    <path d="M 95.820917 126.050233 
L 102.65825 126.050233 
L 102.65825 119.594695 
L 95.820917 119.594695 
z
" clip-path="url(#pd95ff1553f)" style="fill: #df20df"/>
   </g>
   <g id="matplotlib.axis_1">
    <g id="xtick_1"/>
    <g id="xtick_2"/>
    <g id="xtick_3"/>
    <g id="xtick_4"/>
    <g id="xtick_5"/>
   </g>
   <g id="matplotlib.axis_2">
    <g id="ytick_1">
     <g id="line2d_1">
      <defs>
       <path id="mb931eb7fe6" d="M 0 0 
L -3.5 0 
" style="stroke: #ffffff; stroke-width: 2"/>
      </defs>
      <g>
       <use xlink:href="#mb931eb7fe6" x="56.50625" y="126.050233" style="fill: #ffffff; stroke: #ffffff; stroke-width: 2"/>
      </g>
     </g>
     <g id="text_1">
      <!-- 0.000 -->
      <g style="fill: #ffffff" transform="translate(20.878125 129.849451) scale(0.1 -0.1)">
       <defs>
        <path id="DejaVuSans-30" d="M 2034 4250 
Q 1547 4250 1301 3770 
Q 1056 3291 1056 2328 
Q 1056 1369 1301 889 
Q 1547 409 2034 409 
Q 2525 409 2770 889 
Q 3016 1369 3016 2328 
Q 3016 3291 2770 3770 
Q 2525 4250 2034 4250 
z
M 2034 4750 
Q 2819 4750 3233 4129 
Q 3647 3509 3647 2328 
Q 3647 1150 3233 529 
Q 2819 -91 2034 -91 
Q 1250 -91 836 529 
Q 422 1150 422 2328 
Q 422 3509 836 4129 
Q 1250 4750 2034 4750 
z
" transform="scale(0.015625)"/>
        <path id="DejaVuSans-2e" d="M 684 794 
L 1344 794 
L 1344 0 
L 684 0 
L 684 794 
z
" transform="scale(0.015625)"/>
       </defs>
       <use xlink:href="#DejaVuSans-30"/>
       <use xlink:href="#DejaVuSans-2e" transform="translate(63.623047 0)"/>
       <use xlink:href="#DejaVuSans-30" transform="translate(95.410156 0)"/>
       <use xlink:href="#DejaVuSans-30" transform="translate(159.033203 0)"/>
       <use xlink:href="#DejaVuSans-30" transform="translate(222.65625 0)"/>
      </g>
     </g>
    </g>
    <g id="ytick_2">
     <g id="line2d_2">
      <g>
       <use xlink:href="#mb931eb7fe6" x="56.50625" y="97.375814" style="fill: #ffffff; stroke: #ffffff; stroke-width: 2"/>
      </g>
     </g>
     <g id="text_2">
      <!-- 0.025 -->
      <g style="fill: #ffffff" transform="translate(20.878125 101.175033) scale(0.1 -0.1)">
       <defs>
        <path id="DejaVuSans-32" d="M 1228 531 
L 3431 531 
L 3431 0 
L 469 0 
L 469 531 
Q 828 903 1448 1529 
Q 2069 2156 2228 2338 
Q 2531 2678 2651 2914 
Q 2772 3150 2772 3378 
Q 2772 3750 2511 3984 
Q 2250 4219 1831 4219 
Q 1534 4219 1204 4116 
Q 875 4013 500 3803 
L 500 4441 
Q 881 4594 1212 4672 
Q 1544 4750 1819 4750 
Q 2544 4750 2975 4387 
Q 3406 4025 3406 3419 
Q 3406 3131 3298 2873 
Q 3191 2616 2906 2266 
Q 2828 2175 2409 1742 
Q 1991 1309 1228 531 
z
" transform="scale(0.015625)"/>
        <path id="DejaVuSans-35" d="M 691 4666 
L 3169 4666 
L 3169 4134 
L 1269 4134 
L 1269 2991 
Q 1406 3038 1543 3061 
Q 1681 3084 1819 3084 
Q 2600 3084 3056 2656 
Q 3513 2228 3513 1497 
Q 3513 744 3044 326 
Q 2575 -91 1722 -91 
Q 1428 -91 1123 -41 
Q 819 9 494 109 
L 494 744 
Q 775 591 1075 516 
Q 1375 441 1709 441 
Q 2250 441 2565 725 
Q 2881 1009 2881 1497 
Q 2881 1984 2565 2268 
Q 2250 2553 1709 2553 
Q 1456 2553 1204 2497 
Q 953 2441 691 2322 
L 691 4666 
z
" transform="scale(0.015625)"/>
       </defs>
       <use xlink:href="#DejaVuSans-30"/>
       <use xlink:href="#DejaVuSans-2e" transform="translate(63.623047 0)"/>
       <use xlink:href="#DejaVuSans-30" transform="translate(95.410156 0)"/>
       <use xlink:href="#DejaVuSans-32" transform="translate(159.033203 0)"/>
       <use xlink:href="#DejaVuSans-35" transform="translate(222.65625 0)"/>
      </g>
     </g>
    </g>
    <g id="ytick_3">
     <g id="line2d_3">
      <g>
       <use xlink:href="#mb931eb7fe6" x="56.50625" y="68.701395" style="fill: #ffffff; stroke: #ffffff; stroke-width: 2"/>
      </g>
     </g>
     <g id="text_3">
      <!-- 0.050 -->
      <g style="fill: #ffffff" transform="translate(20.878125 72.500614) scale(0.1 -0.1)">
       <use xlink:href="#DejaVuSans-30"/>
       <use xlink:href="#DejaVuSans-2e" transform="translate(63.623047 0)"/>
       <use xlink:href="#DejaVuSans-30" transform="translate(95.410156 0)"/>
       <use xlink:href="#DejaVuSans-35" transform="translate(159.033203 0)"/>
       <use xlink:href="#DejaVuSans-30" transform="translate(222.65625 0)"/>
      </g>
     </g>
    </g>
    <g id="ytick_4">
     <g id="line2d_4">
      <g>
       <use xlink:href="#mb931eb7fe6" x="56.50625" y="40.026977" style="fill: #ffffff; stroke: #ffffff; stroke-width: 2"/>
      </g>
     </g>
     <g id="text_4">
      <!-- 0.075 -->
      <g style="fill: #ffffff" transform="translate(20.878125 43.826195) scale(0.1 -0.1)">
       <defs>
        <path id="DejaVuSans-37" d="M 525 4666 
L 3525 4666 
L 3525 4397 
L 1831 0 
L 1172 0 
L 2766 4134 
L 525 4134 
L 525 4666 
z
" transform="scale(0.015625)"/>
       </defs>
       <use xlink:href="#DejaVuSans-30"/>
       <use xlink:href="#DejaVuSans-2e" transform="translate(63.623047 0)"/>
       <use xlink:href="#DejaVuSans-30" transform="translate(95.410156 0)"/>
       <use xlink:href="#DejaVuSans-37" transform="translate(159.033203 0)"/>
       <use xlink:href="#DejaVuSans-35" transform="translate(222.65625 0)"/>
      </g>
     </g>
    </g>
    <g id="text_5">
     <!-- Weight -->
     <g style="fill: #ffffff" transform="translate(14.798437 105.61875) rotate(-90) scale(0.1 -0.1)">
      <defs>
       <path id="DejaVuSans-57" d="M 213 4666 
L 850 4666 
L 1831 722 
L 2809 4666 
L 3519 4666 
L 4500 722 
L 5478 4666 
L 6119 4666 
L 4947 0 
L 4153 0 
L 3169 4050 
L 2175 0 
L 1381 0 
L 213 4666 
z
" transform="scale(0.015625)"/>
       <path id="DejaVuSans-65" d="M 3597 1894 
L 3597 1613 
L 953 1613 
Q 991 1019 1311 708 
Q 1631 397 2203 397 
Q 2534 397 2845 478 
Q 3156 559 3463 722 
L 3463 178 
Q 3153 47 2828 -22 
Q 2503 -91 2169 -91 
Q 1331 -91 842 396 
Q 353 884 353 1716 
Q 353 2575 817 3079 
Q 1281 3584 2069 3584 
Q 2775 3584 3186 3129 
Q 3597 2675 3597 1894 
z
M 3022 2063 
Q 3016 2534 2758 2815 
Q 2500 3097 2075 3097 
Q 1594 3097 1305 2825 
Q 1016 2553 972 2059 
L 3022 2063 
z
" transform="scale(0.015625)"/>
       <path id="DejaVuSans-69" d="M 603 3500 
L 1178 3500 
L 1178 0 
L 603 0 
L 603 3500 
z
M 603 4863 
L 1178 4863 
L 1178 4134 
L 603 4134 
L 603 4863 
z
" transform="scale(0.015625)"/>
       <path id="DejaVuSans-67" d="M 2906 1791 
Q 2906 2416 2648 2759 
Q 2391 3103 1925 3103 
Q 1463 3103 1205 2759 
Q 947 2416 947 1791 
Q 947 1169 1205 825 
Q 1463 481 1925 481 
Q 2391 481 2648 825 
Q 2906 1169 2906 1791 
z
M 3481 434 
Q 3481 -459 3084 -895 
Q 2688 -1331 1869 -1331 
Q 1566 -1331 1297 -1286 
Q 1028 -1241 775 -1147 
L 775 -588 
Q 1028 -725 1275 -790 
Q 1522 -856 1778 -856 
Q 2344 -856 2625 -561 
Q 2906 -266 2906 331 
L 2906 616 
Q 2728 306 2450 153 
Q 2172 0 1784 0 
Q 1141 0 747 490 
Q 353 981 353 1791 
Q 353 2603 747 3093 
Q 1141 3584 1784 3584 
Q 2172 3584 2450 3431 
Q 2728 3278 2906 2969 
L 2906 3500 
L 3481 3500 
L 3481 434 
z
" transform="scale(0.015625)"/>
       <path id="DejaVuSans-68" d="M 3513 2113 
L 3513 0 
L 2938 0 
L 2938 2094 
Q 2938 2591 2744 2837 
Q 2550 3084 2163 3084 
Q 1697 3084 1428 2787 
Q 1159 2491 1159 1978 
L 1159 0 
L 581 0 
L 581 4863 
L 1159 4863 
L 1159 2956 
Q 1366 3272 1645 3428 
Q 1925 3584 2291 3584 
Q 2894 3584 3203 3211 
Q 3513 2838 3513 2113 
z
" transform="scale(0.015625)"/>
       <path id="DejaVuSans-74" d="M 1172 4494 
L 1172 3500 
L 2356 3500 
L 2356 3053 
L 1172 3053 
L 1172 1153 
Q 1172 725 1289 603 
Q 1406 481 1766 481 
L 2356 481 
L 2356 0 
L 1766 0 
Q 1100 0 847 248 
Q 594 497 594 1153 
L 594 3053 
L 172 3053 
L 172 3500 
L 594 3500 
L 594 4494 
L 1172 4494 
z
" transform="scale(0.015625)"/>
      </defs>
      <use xlink:href="#DejaVuSans-57"/>
      <use xlink:href="#DejaVuSans-65" transform="translate(93.001953 0)"/>
      <use xlink:href="#DejaVuSans-69" transform="translate(154.525391 0)"/>
      <use xlink:href="#DejaVuSans-67" transform="translate(182.308594 0)"/>
      <use xlink:href="#DejaVuSans-68" transform="translate(245.785156 0)"/>
      <use xlink:href="#DejaVuSans-74" transform="translate(309.164062 0)"/>
     </g>
    </g>
   </g>
   <g id="line2d_5">
    <path d="M 65.052917 124.285451 
L 65.052917 120.878708 
" clip-path="url(#pd95ff1553f)" style="fill: none; stroke: #424242; stroke-width: 2.25; stroke-linecap: square"/>
   </g>
   <g id="line2d_6">
    <path d="M 73.599583 130.428926 
L 73.599583 127.408309 
" clip-path="url(#pd95ff1553f)" style="fill: none; stroke: #424242; stroke-width: 2.25; stroke-linecap: square"/>
   </g>
   <g id="line2d_7">
    <path d="M 82.14625 122.822247 
L 82.14625 117.432183 
" clip-path="url(#pd95ff1553f)" style="fill: none; stroke: #424242; stroke-width: 2.25; stroke-linecap: square"/>
   </g>
   <g id="line2d_8">
    <path d="M 90.692917 126.050116 
L 90.692917 124.95814 
" clip-path="url(#pd95ff1553f)" style="fill: none; stroke: #424242; stroke-width: 2.25; stroke-linecap: square"/>
   </g>
   <g id="line2d_9">
    <path d="M 99.239583 122.854882 
L 99.239583 115.862038 
" clip-path="url(#pd95ff1553f)" style="fill: none; stroke: #424242; stroke-width: 2.25; stroke-linecap: square"/>
   </g>
   <g id="LineCollection_1">
    <path d="M 65.052917 126.050233 
L 99.239583 126.050233 
" clip-path="url(#pd95ff1553f)" style="fill: none; stroke: #ffffff; stroke-width: 0.8"/>
   </g>
   <g id="patch_8">
    <path d="M 56.50625 126.050233 
L 56.50625 40.026977 
" style="fill: none; stroke: #ffffff; stroke-width: 2; stroke-linejoin: miter; stroke-linecap: square"/>
   </g>
  </g>
  <g id="axes_2">
   <g id="patch_9">
    <path d="M 161.80625 137.52 
L 213.08625 137.52 
L 213.08625 38.88 
L 161.80625 38.88 
z
"/>
   </g>
   <g id="patch_10">
    <path d="M 166.93425 126.050233 
L 173.771583 126.050233 
L 173.771583 113.297759 
L 166.93425 113.297759 
z
" clip-path="url(#p4380616a31)" style="fill: #c0a54b"/>
   </g>
   <g id="patch_11">
    <path d="M 175.480917 126.050233 
L 182.31825 126.050233 
L 182.31825 128.674589 
L 175.480917 128.674589 
z
" clip-path="url(#p4380616a31)" style="fill: #20dfdf"/>
   </g>
   <g id="patch_12">
    <path d="M 184.027583 126.050233 
L 190.864917 126.050233 
L 190.864917 115.84384 
L 184.027583 115.84384 
z
" clip-path="url(#p4380616a31)" style="fill: #df2020"/>
   </g>
   <g id="patch_13">
    <path d="M 192.57425 126.050233 
L 199.411583 126.050233 
L 199.411583 119.769713 
L 192.57425 119.769713 
z
" clip-path="url(#p4380616a31)" style="fill: #2020df"/>
   </g>
   <g id="patch_14">
    <path d="M 201.120917 126.050233 
L 207.95825 126.050233 
L 207.95825 122.466155 
L 201.120917 122.466155 
z
" clip-path="url(#p4380616a31)" style="fill: #df20df"/>
   </g>
   <g id="matplotlib.axis_3">
    <g id="xtick_6"/>
    <g id="xtick_7"/>
    <g id="xtick_8"/>
    <g id="xtick_9"/>
    <g id="xtick_10"/>
   </g>
   <g id="matplotlib.axis_4">
    <g id="ytick_5">
     <g id="line2d_10">
      <g>
       <use xlink:href="#mb931eb7fe6" x="161.80625" y="126.050233" style="fill: #ffffff; stroke: #ffffff; stroke-width: 2"/>
      </g>
     </g>
     <g id="text_6">
      <!-- 0.000 -->
      <g style="fill: #ffffff" transform="translate(126.178125 129.849451) scale(0.1 -0.1)">
       <use xlink:href="#DejaVuSans-30"/>
       <use xlink:href="#DejaVuSans-2e" transform="translate(63.623047 0)"/>
       <use xlink:href="#DejaVuSans-30" transform="translate(95.410156 0)"/>
       <use xlink:href="#DejaVuSans-30" transform="translate(159.033203 0)"/>
       <use xlink:href="#DejaVuSans-30" transform="translate(222.65625 0)"/>
      </g>
     </g>
    </g>
    <g id="ytick_6">
     <g id="line2d_11">
      <g>
       <use xlink:href="#mb931eb7fe6" x="161.80625" y="97.375814" style="fill: #ffffff; stroke: #ffffff; stroke-width: 2"/>
      </g>
     </g>
     <g id="text_7">
      <!-- 0.025 -->
      <g style="fill: #ffffff" transform="translate(126.178125 101.175033) scale(0.1 -0.1)">
       <use xlink:href="#DejaVuSans-30"/>
       <use xlink:href="#DejaVuSans-2e" transform="translate(63.623047 0)"/>
       <use xlink:href="#DejaVuSans-30" transform="translate(95.410156 0)"/>
       <use xlink:href="#DejaVuSans-32" transform="translate(159.033203 0)"/>
       <use xlink:href="#DejaVuSans-35" transform="translate(222.65625 0)"/>
      </g>
     </g>
    </g>
    <g id="ytick_7">
     <g id="line2d_12">
      <g>
       <use xlink:href="#mb931eb7fe6" x="161.80625" y="68.701395" style="fill: #ffffff; stroke: #ffffff; stroke-width: 2"/>
      </g>
     </g>
     <g id="text_8">
      <!-- 0.050 -->
      <g style="fill: #ffffff" transform="translate(126.178125 72.500614) scale(0.1 -0.1)">
       <use xlink:href="#DejaVuSans-30"/>
       <use xlink:href="#DejaVuSans-2e" transform="translate(63.623047 0)"/>
       <use xlink:href="#DejaVuSans-30" transform="translate(95.410156 0)"/>
       <use xlink:href="#DejaVuSans-35" transform="translate(159.033203 0)"/>
       <use xlink:href="#DejaVuSans-30" transform="translate(222.65625 0)"/>
      </g>
     </g>
    </g>
    <g id="ytick_8">
     <g id="line2d_13">
      <g>
       <use xlink:href="#mb931eb7fe6" x="161.80625" y="40.026977" style="fill: #ffffff; stroke: #ffffff; stroke-width: 2"/>
      </g>
     </g>
     <g id="text_9">
      <!-- 0.075 -->
      <g style="fill: #ffffff" transform="translate(126.178125 43.826195) scale(0.1 -0.1)">
       <use xlink:href="#DejaVuSans-30"/>
       <use xlink:href="#DejaVuSans-2e" transform="translate(63.623047 0)"/>
       <use xlink:href="#DejaVuSans-30" transform="translate(95.410156 0)"/>
       <use xlink:href="#DejaVuSans-37" transform="translate(159.033203 0)"/>
       <use xlink:href="#DejaVuSans-35" transform="translate(222.65625 0)"/>
      </g>
     </g>
    </g>
    <g id="text_10">
     <!-- Weight -->
     <g style="fill: #ffffff" transform="translate(120.098437 105.61875) rotate(-90) scale(0.1 -0.1)">
      <use xlink:href="#DejaVuSans-57"/>
      <use xlink:href="#DejaVuSans-65" transform="translate(93.001953 0)"/>
      <use xlink:href="#DejaVuSans-69" transform="translate(154.525391 0)"/>
      <use xlink:href="#DejaVuSans-67" transform="translate(182.308594 0)"/>
      <use xlink:href="#DejaVuSans-68" transform="translate(245.785156 0)"/>
      <use xlink:href="#DejaVuSans-74" transform="translate(309.164062 0)"/>
     </g>
    </g>
   </g>
   <g id="line2d_14">
    <path d="M 170.352917 121.503876 
L 170.352917 104.347636 
" clip-path="url(#p4380616a31)" style="fill: none; stroke: #424242; stroke-width: 2.25; stroke-linecap: square"/>
   </g>
   <g id="line2d_15">
    <path d="M 178.899583 131.71888 
L 178.899583 125.899591 
" clip-path="url(#p4380616a31)" style="fill: none; stroke: #424242; stroke-width: 2.25; stroke-linecap: square"/>
   </g>
   <g id="line2d_16">
    <path d="M 187.44625 119.763101 
L 187.44625 111.547158 
" clip-path="url(#p4380616a31)" style="fill: none; stroke: #424242; stroke-width: 2.25; stroke-linecap: square"/>
   </g>
   <g id="line2d_17">
    <path d="M 195.992917 125.791404 
L 195.992917 111.507581 
" clip-path="url(#p4380616a31)" style="fill: none; stroke: #424242; stroke-width: 2.25; stroke-linecap: square"/>
   </g>
   <g id="line2d_18">
    <path d="M 204.539583 125.699088 
L 204.539583 116.487606 
" clip-path="url(#p4380616a31)" style="fill: none; stroke: #424242; stroke-width: 2.25; stroke-linecap: square"/>
   </g>
   <g id="LineCollection_2">
    <path d="M 170.352917 126.050233 
L 204.539583 126.050233 
" clip-path="url(#p4380616a31)" style="fill: none; stroke: #ffffff; stroke-width: 0.8"/>
   </g>
   <g id="patch_15">
    <path d="M 161.80625 126.050233 
L 161.80625 40.026977 
" style="fill: none; stroke: #ffffff; stroke-width: 2; stroke-linejoin: miter; stroke-linecap: square"/>
   </g>
  </g>
  <g id="axes_3">
   <g id="patch_16">
    <path d="M 267.10625 137.52 
L 318.38625 137.52 
L 318.38625 38.88 
L 267.10625 38.88 
z
"/>
   </g>
   <g id="patch_17">
    <path d="M 272.23425 126.050233 
L 279.071583 126.050233 
L 279.071583 99.248255 
L 272.23425 99.248255 
z
" clip-path="url(#p93c4ee6075)" style="fill: #c0a54b"/>
   </g>
   <g id="patch_18">
    <path d="M 280.780917 126.050233 
L 287.61825 126.050233 
L 287.61825 121.772759 
L 280.780917 121.772759 
z
" clip-path="url(#p93c4ee6075)" style="fill: #20dfdf"/>
   </g>
   <g id="patch_19">
    <path d="M 289.327583 126.050233 
L 296.164917 126.050233 
L 296.164917 97.370584 
L 289.327583 97.370584 
z
" clip-path="url(#p93c4ee6075)" style="fill: #df2020"/>
   </g>
   <g id="patch_20">
    <path d="M 297.87425 126.050233 
L 304.711583 126.050233 
L 304.711583 112.646027 
L 297.87425 112.646027 
z
" clip-path="url(#p93c4ee6075)" style="fill: #2020df"/>
   </g>
   <g id="patch_21">
    <path d="M 306.420917 126.050233 
L 313.25825 126.050233 
L 313.25825 119.162323 
L 306.420917 119.162323 
z
" clip-path="url(#p93c4ee6075)" style="fill: #df20df"/>
   </g>
   <g id="matplotlib.axis_5">
    <g id="xtick_11"/>
    <g id="xtick_12"/>
    <g id="xtick_13"/>
    <g id="xtick_14"/>
    <g id="xtick_15"/>
   </g>
   <g id="matplotlib.axis_6">
    <g id="ytick_9">
     <g id="line2d_19">
      <g>
       <use xlink:href="#mb931eb7fe6" x="267.10625" y="126.050233" style="fill: #ffffff; stroke: #ffffff; stroke-width: 2"/>
      </g>
     </g>
     <g id="text_11">
      <!-- 0.000 -->
      <g style="fill: #ffffff" transform="translate(231.478125 129.849451) scale(0.1 -0.1)">
       <use xlink:href="#DejaVuSans-30"/>
       <use xlink:href="#DejaVuSans-2e" transform="translate(63.623047 0)"/>
       <use xlink:href="#DejaVuSans-30" transform="translate(95.410156 0)"/>
       <use xlink:href="#DejaVuSans-30" transform="translate(159.033203 0)"/>
       <use xlink:href="#DejaVuSans-30" transform="translate(222.65625 0)"/>
      </g>
     </g>
    </g>
    <g id="ytick_10">
     <g id="line2d_20">
      <g>
       <use xlink:href="#mb931eb7fe6" x="267.10625" y="97.375814" style="fill: #ffffff; stroke: #ffffff; stroke-width: 2"/>
      </g>
     </g>
     <g id="text_12">
      <!-- 0.025 -->
      <g style="fill: #ffffff" transform="translate(231.478125 101.175033) scale(0.1 -0.1)">
       <use xlink:href="#DejaVuSans-30"/>
       <use xlink:href="#DejaVuSans-2e" transform="translate(63.623047 0)"/>
       <use xlink:href="#DejaVuSans-30" transform="translate(95.410156 0)"/>
       <use xlink:href="#DejaVuSans-32" transform="translate(159.033203 0)"/>
       <use xlink:href="#DejaVuSans-35" transform="translate(222.65625 0)"/>
      </g>
     </g>
    </g>
    <g id="ytick_11">
     <g id="line2d_21">
      <g>
       <use xlink:href="#mb931eb7fe6" x="267.10625" y="68.701395" style="fill: #ffffff; stroke: #ffffff; stroke-width: 2"/>
      </g>
     </g>
     <g id="text_13">
      <!-- 0.050 -->
      <g style="fill: #ffffff" transform="translate(231.478125 72.500614) scale(0.1 -0.1)">
       <use xlink:href="#DejaVuSans-30"/>
       <use xlink:href="#DejaVuSans-2e" transform="translate(63.623047 0)"/>
       <use xlink:href="#DejaVuSans-30" transform="translate(95.410156 0)"/>
       <use xlink:href="#DejaVuSans-35" transform="translate(159.033203 0)"/>
       <use xlink:href="#DejaVuSans-30" transform="translate(222.65625 0)"/>
      </g>
     </g>
    </g>
    <g id="ytick_12">
     <g id="line2d_22">
      <g>
       <use xlink:href="#mb931eb7fe6" x="267.10625" y="40.026977" style="fill: #ffffff; stroke: #ffffff; stroke-width: 2"/>
      </g>
     </g>
     <g id="text_14">
      <!-- 0.075 -->
      <g style="fill: #ffffff" transform="translate(231.478125 43.826195) scale(0.1 -0.1)">
       <use xlink:href="#DejaVuSans-30"/>
       <use xlink:href="#DejaVuSans-2e" transform="translate(63.623047 0)"/>
       <use xlink:href="#DejaVuSans-30" transform="translate(95.410156 0)"/>
       <use xlink:href="#DejaVuSans-37" transform="translate(159.033203 0)"/>
       <use xlink:href="#DejaVuSans-35" transform="translate(222.65625 0)"/>
      </g>
     </g>
    </g>
    <g id="text_15">
     <!-- Weight -->
     <g style="fill: #ffffff" transform="translate(225.398437 105.61875) rotate(-90) scale(0.1 -0.1)">
      <use xlink:href="#DejaVuSans-57"/>
      <use xlink:href="#DejaVuSans-65" transform="translate(93.001953 0)"/>
      <use xlink:href="#DejaVuSans-69" transform="translate(154.525391 0)"/>
      <use xlink:href="#DejaVuSans-67" transform="translate(182.308594 0)"/>
      <use xlink:href="#DejaVuSans-68" transform="translate(245.785156 0)"/>
      <use xlink:href="#DejaVuSans-74" transform="translate(309.164062 0)"/>
     </g>
    </g>
   </g>
   <g id="line2d_23">
    <path d="M 275.652917 112.278541 
L 275.652917 79.474831 
" clip-path="url(#p93c4ee6075)" style="fill: none; stroke: #424242; stroke-width: 2.25; stroke-linecap: square"/>
   </g>
   <g id="line2d_24">
    <path d="M 284.199583 126.882604 
L 284.199583 117.508671 
" clip-path="url(#p93c4ee6075)" style="fill: none; stroke: #424242; stroke-width: 2.25; stroke-linecap: square"/>
   </g>
   <g id="line2d_25">
    <path d="M 292.74625 117.282682 
L 292.74625 64.771229 
" clip-path="url(#p93c4ee6075)" style="fill: none; stroke: #424242; stroke-width: 2.25; stroke-linecap: square"/>
   </g>
   <g id="line2d_26">
    <path d="M 301.292917 121.916651 
L 301.292917 101.602748 
" clip-path="url(#p93c4ee6075)" style="fill: none; stroke: #424242; stroke-width: 2.25; stroke-linecap: square"/>
   </g>
   <g id="line2d_27">
    <path d="M 309.839583 122.654913 
L 309.839583 115.645609 
" clip-path="url(#p93c4ee6075)" style="fill: none; stroke: #424242; stroke-width: 2.25; stroke-linecap: square"/>
   </g>
   <g id="LineCollection_3">
    <path d="M 275.652917 126.050233 
L 309.839583 126.050233 
" clip-path="url(#p93c4ee6075)" style="fill: none; stroke: #ffffff; stroke-width: 0.8"/>
   </g>
   <g id="patch_22">
    <path d="M 267.10625 126.050233 
L 267.10625 40.026977 
" style="fill: none; stroke: #ffffff; stroke-width: 2; stroke-linejoin: miter; stroke-linecap: square"/>
   </g>
  </g>
  <g id="axes_4">
   <g id="patch_23">
    <path d="M 372.40625 137.52 
L 423.68625 137.52 
L 423.68625 38.88 
L 372.40625 38.88 
z
"/>
   </g>
   <g id="patch_24">
    <path d="M 377.53425 126.050233 
L 384.371583 126.050233 
L 384.371583 74.141609 
L 377.53425 74.141609 
z
" clip-path="url(#pbe997dd6c7)" style="fill: #c0a54b"/>
   </g>
   <g id="patch_25">
    <path d="M 386.080917 126.050233 
L 392.91825 126.050233 
L 392.91825 105.452236 
L 386.080917 105.452236 
z
" clip-path="url(#pbe997dd6c7)" style="fill: #20dfdf"/>
   </g>
   <g id="patch_26">
    <path d="M 394.627583 126.050233 
L 401.464917 126.050233 
L 401.464917 60.986085 
L 394.627583 60.986085 
z
" clip-path="url(#pbe997dd6c7)" style="fill: #df2020"/>
   </g>
   <g id="patch_27">
    <path d="M 403.17425 126.050233 
L 410.011583 126.050233 
L 410.011583 122.504008 
L 403.17425 122.504008 
z
" clip-path="url(#pbe997dd6c7)" style="fill: #2020df"/>
   </g>
   <g id="patch_28">
    <path d="M 411.720917 126.050233 
L 418.55825 126.050233 
L 418.55825 122.59258 
L 411.720917 122.59258 
z
" clip-path="url(#pbe997dd6c7)" style="fill: #df20df"/>
   </g>
   <g id="matplotlib.axis_7">
    <g id="xtick_16"/>
    <g id="xtick_17"/>
    <g id="xtick_18"/>
    <g id="xtick_19"/>
    <g id="xtick_20"/>
   </g>
   <g id="matplotlib.axis_8">
    <g id="ytick_13">
     <g id="line2d_28">
      <g>
       <use xlink:href="#mb931eb7fe6" x="372.40625" y="126.050233" style="fill: #ffffff; stroke: #ffffff; stroke-width: 2"/>
      </g>
     </g>
     <g id="text_16">
      <!-- 0.000 -->
      <g style="fill: #ffffff" transform="translate(336.778125 129.849451) scale(0.1 -0.1)">
       <use xlink:href="#DejaVuSans-30"/>
       <use xlink:href="#DejaVuSans-2e" transform="translate(63.623047 0)"/>
       <use xlink:href="#DejaVuSans-30" transform="translate(95.410156 0)"/>
       <use xlink:href="#DejaVuSans-30" transform="translate(159.033203 0)"/>
       <use xlink:href="#DejaVuSans-30" transform="translate(222.65625 0)"/>
      </g>
     </g>
    </g>
    <g id="ytick_14">
     <g id="line2d_29">
      <g>
       <use xlink:href="#mb931eb7fe6" x="372.40625" y="97.375814" style="fill: #ffffff; stroke: #ffffff; stroke-width: 2"/>
      </g>
     </g>
     <g id="text_17">
      <!-- 0.025 -->
      <g style="fill: #ffffff" transform="translate(336.778125 101.175033) scale(0.1 -0.1)">
       <use xlink:href="#DejaVuSans-30"/>
       <use xlink:href="#DejaVuSans-2e" transform="translate(63.623047 0)"/>
       <use xlink:href="#DejaVuSans-30" transform="translate(95.410156 0)"/>
       <use xlink:href="#DejaVuSans-32" transform="translate(159.033203 0)"/>
       <use xlink:href="#DejaVuSans-35" transform="translate(222.65625 0)"/>
      </g>
     </g>
    </g>
    <g id="ytick_15">
     <g id="line2d_30">
      <g>
       <use xlink:href="#mb931eb7fe6" x="372.40625" y="68.701395" style="fill: #ffffff; stroke: #ffffff; stroke-width: 2"/>
      </g>
     </g>
     <g id="text_18">
      <!-- 0.050 -->
      <g style="fill: #ffffff" transform="translate(336.778125 72.500614) scale(0.1 -0.1)">
       <use xlink:href="#DejaVuSans-30"/>
       <use xlink:href="#DejaVuSans-2e" transform="translate(63.623047 0)"/>
       <use xlink:href="#DejaVuSans-30" transform="translate(95.410156 0)"/>
       <use xlink:href="#DejaVuSans-35" transform="translate(159.033203 0)"/>
       <use xlink:href="#DejaVuSans-30" transform="translate(222.65625 0)"/>
      </g>
     </g>
    </g>
    <g id="ytick_16">
     <g id="line2d_31">
      <g>
       <use xlink:href="#mb931eb7fe6" x="372.40625" y="40.026977" style="fill: #ffffff; stroke: #ffffff; stroke-width: 2"/>
      </g>
     </g>
     <g id="text_19">
      <!-- 0.075 -->
      <g style="fill: #ffffff" transform="translate(336.778125 43.826195) scale(0.1 -0.1)">
       <use xlink:href="#DejaVuSans-30"/>
       <use xlink:href="#DejaVuSans-2e" transform="translate(63.623047 0)"/>
       <use xlink:href="#DejaVuSans-30" transform="translate(95.410156 0)"/>
       <use xlink:href="#DejaVuSans-37" transform="translate(159.033203 0)"/>
       <use xlink:href="#DejaVuSans-35" transform="translate(222.65625 0)"/>
      </g>
     </g>
    </g>
    <g id="text_20">
     <!-- Weight -->
     <g style="fill: #ffffff" transform="translate(330.698438 105.61875) rotate(-90) scale(0.1 -0.1)">
      <use xlink:href="#DejaVuSans-57"/>
      <use xlink:href="#DejaVuSans-65" transform="translate(93.001953 0)"/>
      <use xlink:href="#DejaVuSans-69" transform="translate(154.525391 0)"/>
      <use xlink:href="#DejaVuSans-67" transform="translate(182.308594 0)"/>
      <use xlink:href="#DejaVuSans-68" transform="translate(245.785156 0)"/>
      <use xlink:href="#DejaVuSans-74" transform="translate(309.164062 0)"/>
     </g>
    </g>
   </g>
   <g id="line2d_32">
    <path d="M 380.952917 103.278388 
L 380.952917 38.203284 
" clip-path="url(#pbe997dd6c7)" style="fill: none; stroke: #424242; stroke-width: 2.25; stroke-linecap: square"/>
   </g>
   <g id="line2d_33">
    <path d="M 389.499583 112.501396 
L 389.499583 96.390768 
" clip-path="url(#pbe997dd6c7)" style="fill: none; stroke: #424242; stroke-width: 2.25; stroke-linecap: square"/>
   </g>
   <g id="line2d_34">
    <path d="M 398.04625 76.798526 
L 398.04625 46.133382 
" clip-path="url(#pbe997dd6c7)" style="fill: none; stroke: #424242; stroke-width: 2.25; stroke-linecap: square"/>
   </g>
   <g id="line2d_35">
    <path d="M 406.592917 125.26963 
L 406.592917 118.57712 
" clip-path="url(#pbe997dd6c7)" style="fill: none; stroke: #424242; stroke-width: 2.25; stroke-linecap: square"/>
   </g>
   <g id="line2d_36">
    <path d="M 415.139583 123.892652 
L 415.139583 121.095265 
" clip-path="url(#pbe997dd6c7)" style="fill: none; stroke: #424242; stroke-width: 2.25; stroke-linecap: square"/>
   </g>
   <g id="LineCollection_4">
    <path d="M 380.952917 126.050233 
L 415.139583 126.050233 
" clip-path="url(#pbe997dd6c7)" style="fill: none; stroke: #ffffff; stroke-width: 0.8"/>
   </g>
   <g id="patch_29">
    <path d="M 372.40625 126.050233 
L 372.40625 40.026977 
" style="fill: none; stroke: #ffffff; stroke-width: 2; stroke-linejoin: miter; stroke-linecap: square"/>
   </g>
   <g id="text_21">
    <!-- *** -->
    <g style="fill: #ffffff" transform="translate(380.499583 89.566841) scale(0.12 -0.12)">
     <defs>
      <path id="DejaVuSans-2a" d="M 3009 3897 
L 1888 3291 
L 3009 2681 
L 2828 2375 
L 1778 3009 
L 1778 1831 
L 1422 1831 
L 1422 3009 
L 372 2375 
L 191 2681 
L 1313 3291 
L 191 3897 
L 372 4206 
L 1422 3572 
L 1422 4750 
L 1778 4750 
L 1778 3572 
L 2828 4206 
L 3009 3897 
z
" transform="scale(0.015625)"/>
     </defs>
     <use xlink:href="#DejaVuSans-2a"/>
     <use xlink:href="#DejaVuSans-2a" transform="translate(50 0)"/>
     <use xlink:href="#DejaVuSans-2a" transform="translate(100 0)"/>
    </g>
   </g>
  </g>
  <g id="text_22">
   <!-- Feature weight -->
   <g style="fill: #ffffff" transform="translate(173.682187 16.318125) scale(0.12 -0.12)">
    <defs>
     <path id="DejaVuSans-46" d="M 628 4666 
L 3309 4666 
L 3309 4134 
L 1259 4134 
L 1259 2759 
L 3109 2759 
L 3109 2228 
L 1259 2228 
L 1259 0 
L 628 0 
L 628 4666 
z
" transform="scale(0.015625)"/>
     <path id="DejaVuSans-61" d="M 2194 1759 
Q 1497 1759 1228 1600 
Q 959 1441 959 1056 
Q 959 750 1161 570 
Q 1363 391 1709 391 
Q 2188 391 2477 730 
Q 2766 1069 2766 1631 
L 2766 1759 
L 2194 1759 
z
M 3341 1997 
L 3341 0 
L 2766 0 
L 2766 531 
Q 2569 213 2275 61 
Q 1981 -91 1556 -91 
Q 1019 -91 701 211 
Q 384 513 384 1019 
Q 384 1609 779 1909 
Q 1175 2209 1959 2209 
L 2766 2209 
L 2766 2266 
Q 2766 2663 2505 2880 
Q 2244 3097 1772 3097 
Q 1472 3097 1187 3025 
Q 903 2953 641 2809 
L 641 3341 
Q 956 3463 1253 3523 
Q 1550 3584 1831 3584 
Q 2591 3584 2966 3190 
Q 3341 2797 3341 1997 
z
" transform="scale(0.015625)"/>
     <path id="DejaVuSans-75" d="M 544 1381 
L 544 3500 
L 1119 3500 
L 1119 1403 
Q 1119 906 1312 657 
Q 1506 409 1894 409 
Q 2359 409 2629 706 
Q 2900 1003 2900 1516 
L 2900 3500 
L 3475 3500 
L 3475 0 
L 2900 0 
L 2900 538 
Q 2691 219 2414 64 
Q 2138 -91 1772 -91 
Q 1169 -91 856 284 
Q 544 659 544 1381 
z
M 1991 3584 
L 1991 3584 
z
" transform="scale(0.015625)"/>
     <path id="DejaVuSans-72" d="M 2631 2963 
Q 2534 3019 2420 3045 
Q 2306 3072 2169 3072 
Q 1681 3072 1420 2755 
Q 1159 2438 1159 1844 
L 1159 0 
L 581 0 
L 581 3500 
L 1159 3500 
L 1159 2956 
Q 1341 3275 1631 3429 
Q 1922 3584 2338 3584 
Q 2397 3584 2469 3576 
Q 2541 3569 2628 3553 
L 2631 2963 
z
" transform="scale(0.015625)"/>
     <path id="DejaVuSans-20" transform="scale(0.015625)"/>
     <path id="DejaVuSans-77" d="M 269 3500 
L 844 3500 
L 1563 769 
L 2278 3500 
L 2956 3500 
L 3675 769 
L 4391 3500 
L 4966 3500 
L 4050 0 
L 3372 0 
L 2619 2869 
L 1863 0 
L 1184 0 
L 269 3500 
z
" transform="scale(0.015625)"/>
    </defs>
    <use xlink:href="#DejaVuSans-46"/>
    <use xlink:href="#DejaVuSans-65" transform="translate(52.019531 0)"/>
    <use xlink:href="#DejaVuSans-61" transform="translate(113.542969 0)"/>
    <use xlink:href="#DejaVuSans-74" transform="translate(174.822266 0)"/>
    <use xlink:href="#DejaVuSans-75" transform="translate(214.03125 0)"/>
    <use xlink:href="#DejaVuSans-72" transform="translate(277.410156 0)"/>
    <use xlink:href="#DejaVuSans-65" transform="translate(316.273438 0)"/>
    <use xlink:href="#DejaVuSans-20" transform="translate(377.796875 0)"/>
    <use xlink:href="#DejaVuSans-77" transform="translate(409.583984 0)"/>
    <use xlink:href="#DejaVuSans-65" transform="translate(491.371094 0)"/>
    <use xlink:href="#DejaVuSans-69" transform="translate(552.894531 0)"/>
    <use xlink:href="#DejaVuSans-67" transform="translate(580.677734 0)"/>
    <use xlink:href="#DejaVuSans-68" transform="translate(644.154297 0)"/>
    <use xlink:href="#DejaVuSans-74" transform="translate(707.533203 0)"/>
   </g>
  </g>
  <g id="legend_1">
   <g id="patch_30">
    <path d="M 441.48625 114.515313 
L 652.451875 114.515313 
Q 654.451875 114.515313 654.451875 112.515313 
L 654.451875 40.124688 
Q 654.451875 38.124688 652.451875 38.124688 
L 441.48625 38.124688 
Q 439.48625 38.124688 439.48625 40.124688 
L 439.48625 112.515313 
Q 439.48625 114.515313 441.48625 114.515313 
z
" style="opacity: 0.8; stroke: #cccccc; stroke-linejoin: miter"/>
   </g>
   <g id="patch_31">
    <path d="M 443.48625 49.723125 
L 463.48625 49.723125 
L 463.48625 42.723125 
L 443.48625 42.723125 
z
" style="fill: #d4af37; stroke: #000000; stroke-linejoin: miter"/>
   </g>
   <g id="text_23">
    <!-- finger -->
    <g style="fill: #ffffff" transform="translate(471.48625 49.723125) scale(0.1 -0.1)">
     <defs>
      <path id="DejaVuSans-66" d="M 2375 4863 
L 2375 4384 
L 1825 4384 
Q 1516 4384 1395 4259 
Q 1275 4134 1275 3809 
L 1275 3500 
L 2222 3500 
L 2222 3053 
L 1275 3053 
L 1275 0 
L 697 0 
L 697 3053 
L 147 3053 
L 147 3500 
L 697 3500 
L 697 3744 
Q 697 4328 969 4595 
Q 1241 4863 1831 4863 
L 2375 4863 
z
" transform="scale(0.015625)"/>
      <path id="DejaVuSans-6e" d="M 3513 2113 
L 3513 0 
L 2938 0 
L 2938 2094 
Q 2938 2591 2744 2837 
Q 2550 3084 2163 3084 
Q 1697 3084 1428 2787 
Q 1159 2491 1159 1978 
L 1159 0 
L 581 0 
L 581 3500 
L 1159 3500 
L 1159 2956 
Q 1366 3272 1645 3428 
Q 1925 3584 2291 3584 
Q 2894 3584 3203 3211 
Q 3513 2838 3513 2113 
z
" transform="scale(0.015625)"/>
     </defs>
     <use xlink:href="#DejaVuSans-66"/>
     <use xlink:href="#DejaVuSans-69" transform="translate(35.205078 0)"/>
     <use xlink:href="#DejaVuSans-6e" transform="translate(62.988281 0)"/>
     <use xlink:href="#DejaVuSans-67" transform="translate(126.367188 0)"/>
     <use xlink:href="#DejaVuSans-65" transform="translate(189.84375 0)"/>
     <use xlink:href="#DejaVuSans-72" transform="translate(251.367188 0)"/>
    </g>
   </g>
   <g id="patch_32">
    <path d="M 443.48625 64.40125 
L 463.48625 64.40125 
L 463.48625 57.40125 
L 443.48625 57.40125 
z
" style="fill: #00ffff; stroke: #000000; stroke-linejoin: miter"/>
   </g>
   <g id="text_24">
    <!-- interaction (signed prediction error) -->
    <g style="fill: #ffffff" transform="translate(471.48625 64.40125) scale(0.1 -0.1)">
     <defs>
      <path id="DejaVuSans-63" d="M 3122 3366 
L 3122 2828 
Q 2878 2963 2633 3030 
Q 2388 3097 2138 3097 
Q 1578 3097 1268 2742 
Q 959 2388 959 1747 
Q 959 1106 1268 751 
Q 1578 397 2138 397 
Q 2388 397 2633 464 
Q 2878 531 3122 666 
L 3122 134 
Q 2881 22 2623 -34 
Q 2366 -91 2075 -91 
Q 1284 -91 818 406 
Q 353 903 353 1747 
Q 353 2603 823 3093 
Q 1294 3584 2113 3584 
Q 2378 3584 2631 3529 
Q 2884 3475 3122 3366 
z
" transform="scale(0.015625)"/>
      <path id="DejaVuSans-6f" d="M 1959 3097 
Q 1497 3097 1228 2736 
Q 959 2375 959 1747 
Q 959 1119 1226 758 
Q 1494 397 1959 397 
Q 2419 397 2687 759 
Q 2956 1122 2956 1747 
Q 2956 2369 2687 2733 
Q 2419 3097 1959 3097 
z
M 1959 3584 
Q 2709 3584 3137 3096 
Q 3566 2609 3566 1747 
Q 3566 888 3137 398 
Q 2709 -91 1959 -91 
Q 1206 -91 779 398 
Q 353 888 353 1747 
Q 353 2609 779 3096 
Q 1206 3584 1959 3584 
z
" transform="scale(0.015625)"/>
      <path id="DejaVuSans-28" d="M 1984 4856 
Q 1566 4138 1362 3434 
Q 1159 2731 1159 2009 
Q 1159 1288 1364 580 
Q 1569 -128 1984 -844 
L 1484 -844 
Q 1016 -109 783 600 
Q 550 1309 550 2009 
Q 550 2706 781 3412 
Q 1013 4119 1484 4856 
L 1984 4856 
z
" transform="scale(0.015625)"/>
      <path id="DejaVuSans-73" d="M 2834 3397 
L 2834 2853 
Q 2591 2978 2328 3040 
Q 2066 3103 1784 3103 
Q 1356 3103 1142 2972 
Q 928 2841 928 2578 
Q 928 2378 1081 2264 
Q 1234 2150 1697 2047 
L 1894 2003 
Q 2506 1872 2764 1633 
Q 3022 1394 3022 966 
Q 3022 478 2636 193 
Q 2250 -91 1575 -91 
Q 1294 -91 989 -36 
Q 684 19 347 128 
L 347 722 
Q 666 556 975 473 
Q 1284 391 1588 391 
Q 1994 391 2212 530 
Q 2431 669 2431 922 
Q 2431 1156 2273 1281 
Q 2116 1406 1581 1522 
L 1381 1569 
Q 847 1681 609 1914 
Q 372 2147 372 2553 
Q 372 3047 722 3315 
Q 1072 3584 1716 3584 
Q 2034 3584 2315 3537 
Q 2597 3491 2834 3397 
z
" transform="scale(0.015625)"/>
      <path id="DejaVuSans-64" d="M 2906 2969 
L 2906 4863 
L 3481 4863 
L 3481 0 
L 2906 0 
L 2906 525 
Q 2725 213 2448 61 
Q 2172 -91 1784 -91 
Q 1150 -91 751 415 
Q 353 922 353 1747 
Q 353 2572 751 3078 
Q 1150 3584 1784 3584 
Q 2172 3584 2448 3432 
Q 2725 3281 2906 2969 
z
M 947 1747 
Q 947 1113 1208 752 
Q 1469 391 1925 391 
Q 2381 391 2643 752 
Q 2906 1113 2906 1747 
Q 2906 2381 2643 2742 
Q 2381 3103 1925 3103 
Q 1469 3103 1208 2742 
Q 947 2381 947 1747 
z
" transform="scale(0.015625)"/>
      <path id="DejaVuSans-70" d="M 1159 525 
L 1159 -1331 
L 581 -1331 
L 581 3500 
L 1159 3500 
L 1159 2969 
Q 1341 3281 1617 3432 
Q 1894 3584 2278 3584 
Q 2916 3584 3314 3078 
Q 3713 2572 3713 1747 
Q 3713 922 3314 415 
Q 2916 -91 2278 -91 
Q 1894 -91 1617 61 
Q 1341 213 1159 525 
z
M 3116 1747 
Q 3116 2381 2855 2742 
Q 2594 3103 2138 3103 
Q 1681 3103 1420 2742 
Q 1159 2381 1159 1747 
Q 1159 1113 1420 752 
Q 1681 391 2138 391 
Q 2594 391 2855 752 
Q 3116 1113 3116 1747 
z
" transform="scale(0.015625)"/>
      <path id="DejaVuSans-29" d="M 513 4856 
L 1013 4856 
Q 1481 4119 1714 3412 
Q 1947 2706 1947 2009 
Q 1947 1309 1714 600 
Q 1481 -109 1013 -844 
L 513 -844 
Q 928 -128 1133 580 
Q 1338 1288 1338 2009 
Q 1338 2731 1133 3434 
Q 928 4138 513 4856 
z
" transform="scale(0.015625)"/>
     </defs>
     <use xlink:href="#DejaVuSans-69"/>
     <use xlink:href="#DejaVuSans-6e" transform="translate(27.783203 0)"/>
     <use xlink:href="#DejaVuSans-74" transform="translate(91.162109 0)"/>
     <use xlink:href="#DejaVuSans-65" transform="translate(130.371094 0)"/>
     <use xlink:href="#DejaVuSans-72" transform="translate(191.894531 0)"/>
     <use xlink:href="#DejaVuSans-61" transform="translate(233.007812 0)"/>
     <use xlink:href="#DejaVuSans-63" transform="translate(294.287109 0)"/>
     <use xlink:href="#DejaVuSans-74" transform="translate(349.267578 0)"/>
     <use xlink:href="#DejaVuSans-69" transform="translate(388.476562 0)"/>
     <use xlink:href="#DejaVuSans-6f" transform="translate(416.259766 0)"/>
     <use xlink:href="#DejaVuSans-6e" transform="translate(477.441406 0)"/>
     <use xlink:href="#DejaVuSans-20" transform="translate(540.820312 0)"/>
     <use xlink:href="#DejaVuSans-28" transform="translate(572.607422 0)"/>
     <use xlink:href="#DejaVuSans-73" transform="translate(611.621094 0)"/>
     <use xlink:href="#DejaVuSans-69" transform="translate(663.720703 0)"/>
     <use xlink:href="#DejaVuSans-67" transform="translate(691.503906 0)"/>
     <use xlink:href="#DejaVuSans-6e" transform="translate(754.980469 0)"/>
     <use xlink:href="#DejaVuSans-65" transform="translate(818.359375 0)"/>
     <use xlink:href="#DejaVuSans-64" transform="translate(879.882812 0)"/>
     <use xlink:href="#DejaVuSans-20" transform="translate(943.359375 0)"/>
     <use xlink:href="#DejaVuSans-70" transform="translate(975.146484 0)"/>
     <use xlink:href="#DejaVuSans-72" transform="translate(1038.623047 0)"/>
     <use xlink:href="#DejaVuSans-65" transform="translate(1077.486328 0)"/>
     <use xlink:href="#DejaVuSans-64" transform="translate(1139.009766 0)"/>
     <use xlink:href="#DejaVuSans-69" transform="translate(1202.486328 0)"/>
     <use xlink:href="#DejaVuSans-63" transform="translate(1230.269531 0)"/>
     <use xlink:href="#DejaVuSans-74" transform="translate(1285.25 0)"/>
     <use xlink:href="#DejaVuSans-69" transform="translate(1324.458984 0)"/>
     <use xlink:href="#DejaVuSans-6f" transform="translate(1352.242188 0)"/>
     <use xlink:href="#DejaVuSans-6e" transform="translate(1413.423828 0)"/>
     <use xlink:href="#DejaVuSans-20" transform="translate(1476.802734 0)"/>
     <use xlink:href="#DejaVuSans-65" transform="translate(1508.589844 0)"/>
     <use xlink:href="#DejaVuSans-72" transform="translate(1570.113281 0)"/>
     <use xlink:href="#DejaVuSans-72" transform="translate(1609.476562 0)"/>
     <use xlink:href="#DejaVuSans-6f" transform="translate(1648.339844 0)"/>
     <use xlink:href="#DejaVuSans-72" transform="translate(1709.521484 0)"/>
     <use xlink:href="#DejaVuSans-29" transform="translate(1750.634766 0)"/>
    </g>
   </g>
   <g id="patch_33">
    <path d="M 443.48625 79.079375 
L 463.48625 79.079375 
L 463.48625 72.079375 
L 443.48625 72.079375 
z
" style="fill: #ff0000; stroke: #000000; stroke-linejoin: miter"/>
   </g>
   <g id="text_25">
    <!-- cue -->
    <g style="fill: #ffffff" transform="translate(471.48625 79.079375) scale(0.1 -0.1)">
     <use xlink:href="#DejaVuSans-63"/>
     <use xlink:href="#DejaVuSans-75" transform="translate(54.980469 0)"/>
     <use xlink:href="#DejaVuSans-65" transform="translate(118.359375 0)"/>
    </g>
   </g>
   <g id="patch_34">
    <path d="M 443.48625 93.7575 
L 463.48625 93.7575 
L 463.48625 86.7575 
L 443.48625 86.7575 
z
" style="fill: #0000ff; stroke: #000000; stroke-linejoin: miter"/>
   </g>
   <g id="text_26">
    <!-- uncertainty -->
    <g style="fill: #ffffff" transform="translate(471.48625 93.7575) scale(0.1 -0.1)">
     <defs>
      <path id="DejaVuSans-79" d="M 2059 -325 
Q 1816 -950 1584 -1140 
Q 1353 -1331 966 -1331 
L 506 -1331 
L 506 -850 
L 844 -850 
Q 1081 -850 1212 -737 
Q 1344 -625 1503 -206 
L 1606 56 
L 191 3500 
L 800 3500 
L 1894 763 
L 2988 3500 
L 3597 3500 
L 2059 -325 
z
" transform="scale(0.015625)"/>
     </defs>
     <use xlink:href="#DejaVuSans-75"/>
     <use xlink:href="#DejaVuSans-6e" transform="translate(63.378906 0)"/>
     <use xlink:href="#DejaVuSans-63" transform="translate(126.757812 0)"/>
     <use xlink:href="#DejaVuSans-65" transform="translate(181.738281 0)"/>
     <use xlink:href="#DejaVuSans-72" transform="translate(243.261719 0)"/>
     <use xlink:href="#DejaVuSans-74" transform="translate(284.375 0)"/>
     <use xlink:href="#DejaVuSans-61" transform="translate(323.583984 0)"/>
     <use xlink:href="#DejaVuSans-69" transform="translate(384.863281 0)"/>
     <use xlink:href="#DejaVuSans-6e" transform="translate(412.646484 0)"/>
     <use xlink:href="#DejaVuSans-74" transform="translate(476.025391 0)"/>
     <use xlink:href="#DejaVuSans-79" transform="translate(515.234375 0)"/>
    </g>
   </g>
   <g id="patch_35">
    <path d="M 443.48625 108.435625 
L 463.48625 108.435625 
L 463.48625 101.435625 
L 443.48625 101.435625 
z
" style="fill: #ff00ff; stroke: #000000; stroke-linejoin: miter"/>
   </g>
   <g id="text_27">
    <!-- surprise (unsigned prediction error) -->
    <g style="fill: #ffffff" transform="translate(471.48625 108.435625) scale(0.1 -0.1)">
     <use xlink:href="#DejaVuSans-73"/>
     <use xlink:href="#DejaVuSans-75" transform="translate(52.099609 0)"/>
     <use xlink:href="#DejaVuSans-72" transform="translate(115.478516 0)"/>
     <use xlink:href="#DejaVuSans-70" transform="translate(156.591797 0)"/>
     <use xlink:href="#DejaVuSans-72" transform="translate(220.068359 0)"/>
     <use xlink:href="#DejaVuSans-69" transform="translate(261.181641 0)"/>
     <use xlink:href="#DejaVuSans-73" transform="translate(288.964844 0)"/>
     <use xlink:href="#DejaVuSans-65" transform="translate(341.064453 0)"/>
     <use xlink:href="#DejaVuSans-20" transform="translate(402.587891 0)"/>
     <use xlink:href="#DejaVuSans-28" transform="translate(434.375 0)"/>
     <use xlink:href="#DejaVuSans-75" transform="translate(473.388672 0)"/>
     <use xlink:href="#DejaVuSans-6e" transform="translate(536.767578 0)"/>
     <use xlink:href="#DejaVuSans-73" transform="translate(600.146484 0)"/>
     <use xlink:href="#DejaVuSans-69" transform="translate(652.246094 0)"/>
     <use xlink:href="#DejaVuSans-67" transform="translate(680.029297 0)"/>
     <use xlink:href="#DejaVuSans-6e" transform="translate(743.505859 0)"/>
     <use xlink:href="#DejaVuSans-65" transform="translate(806.884766 0)"/>
     <use xlink:href="#DejaVuSans-64" transform="translate(868.408203 0)"/>
     <use xlink:href="#DejaVuSans-20" transform="translate(931.884766 0)"/>
     <use xlink:href="#DejaVuSans-70" transform="translate(963.671875 0)"/>
     <use xlink:href="#DejaVuSans-72" transform="translate(1027.148438 0)"/>
     <use xlink:href="#DejaVuSans-65" transform="translate(1066.011719 0)"/>
     <use xlink:href="#DejaVuSans-64" transform="translate(1127.535156 0)"/>
     <use xlink:href="#DejaVuSans-69" transform="translate(1191.011719 0)"/>
     <use xlink:href="#DejaVuSans-63" transform="translate(1218.794922 0)"/>
     <use xlink:href="#DejaVuSans-74" transform="translate(1273.775391 0)"/>
     <use xlink:href="#DejaVuSans-69" transform="translate(1312.984375 0)"/>
     <use xlink:href="#DejaVuSans-6f" transform="translate(1340.767578 0)"/>
     <use xlink:href="#DejaVuSans-6e" transform="translate(1401.949219 0)"/>
     <use xlink:href="#DejaVuSans-20" transform="translate(1465.328125 0)"/>
     <use xlink:href="#DejaVuSans-65" transform="translate(1497.115234 0)"/>
     <use xlink:href="#DejaVuSans-72" transform="translate(1558.638672 0)"/>
     <use xlink:href="#DejaVuSans-72" transform="translate(1598.001953 0)"/>
     <use xlink:href="#DejaVuSans-6f" transform="translate(1636.865234 0)"/>
     <use xlink:href="#DejaVuSans-72" transform="translate(1698.046875 0)"/>
     <use xlink:href="#DejaVuSans-29" transform="translate(1739.160156 0)"/>
    </g>
   </g>
  </g>
 </g>
 <defs>
  <clipPath id="pd95ff1553f">
   <rect x="56.50625" y="38.88" width="51.28" height="98.64"/>
  </clipPath>
  <clipPath id="p4380616a31">
   <rect x="161.80625" y="38.88" width="51.28" height="98.64"/>
  </clipPath>
  <clipPath id="p93c4ee6075">
   <rect x="267.10625" y="38.88" width="51.28" height="98.64"/>
  </clipPath>
  <clipPath id="pbe997dd6c7">
   <rect x="372.40625" y="38.88" width="51.28" height="98.64"/>
  </clipPath>
 </defs>
</svg>
