<?xml version="1.0" encoding="utf-8" standalone="no"?>
<!DOCTYPE svg PUBLIC "-//W3C//DTD SVG 1.1//EN"
  "http://www.w3.org/Graphics/SVG/1.1/DTD/svg11.dtd">
<svg xmlns:xlink="http://www.w3.org/1999/xlink" width="144pt" height="144pt" viewBox="0 0 144 144" xmlns="http://www.w3.org/2000/svg" version="1.1">
 <metadata>
  <rdf:RDF xmlns:dc="http://purl.org/dc/elements/1.1/" xmlns:cc="http://creativecommons.org/ns#" xmlns:rdf="http://www.w3.org/1999/02/22-rdf-syntax-ns#">
   <cc:Work>
    <dc:type rdf:resource="http://purl.org/dc/dcmitype/StillImage"/>
    <dc:date>2026-01-10T04:59:41.275259</dc:date>
    <dc:format>image/svg+xml</dc:format>
    <dc:creator>
     <cc:Agent>
      <dc:title>Matplotlib v3.10.1, https://matplotlib.org/</dc:title>
     </cc:Agent>
    </dc:creator>
   </cc:Work>
  </rdf:RDF>
 </metadata>
 <defs>
  <style type="text/css">*{stroke-linejoin: round; stroke-linecap: butt}</style>
 </defs>
 <g id="figure_1">
  <g id="patch_1">
   <path d="M 0 144 
L 144 144 
L 144 0 
L 0 0 
z
" style="fill: #ffffff"/>
  </g>
  <g id="axes_1">
   <g id="patch_2">
    <path d="M 36 128.16 
L 78.545455 128.16 
L 78.545455 17.28 
L 36 17.28 
z
" style="fill: #ffffff"/>
   </g>
   <g id="patch_3">
    <path d="M 36 128.16 
L 44.509091 128.16 
L 44.509091 62.223359 
L 36 62.223359 
z
" clip-path="url(#pa9c8ed4b37)" style="fill: #ce1e86"/>
   </g>
   <g id="patch_4">
    <path d="M 44.509091 128.16 
L 53.018182 128.16 
L 53.018182 66.280064 
L 44.509091 66.280064 
z
" clip-path="url(#pa9c8ed4b37)" style="fill: #df78a7"/>
   </g>
   <g id="patch_5">
    <path d="M 53.018182 128.16 
L 61.527273 128.16 
L 61.527273 69.010177 
L 53.018182 69.010177 
z
" clip-path="url(#pa9c8ed4b37)" style="fill: #e9a5c2"/>
   </g>
   <g id="patch_6">
    <path d="M 61.527273 128.16 
L 70.036364 128.16 
L 70.036364 71.800215 
L 61.527273 71.800215 
z
" clip-path="url(#pa9c8ed4b37)" style="fill: #f3d1e0"/>
   </g>
   <g id="matplotlib.axis_1"/>
   <g id="matplotlib.axis_2">
    <g id="ytick_1">
     <g id="line2d_1">
      <defs>
       <path id="m070d0b66e2" d="M 0 0 
L -3.5 0 
" style="stroke: #000000; stroke-width: 0.8"/>
      </defs>
      <g>
       <use xlink:href="#m070d0b66e2" x="36" y="128.16" style="stroke: #000000; stroke-width: 0.8"/>
      </g>
     </g>
     <g id="text_1">
      <!-- 0 -->
      <g transform="translate(22.6375 131.959219) scale(0.1 -0.1)">
       <defs>
        <path id="DejaVuSans-30" d="M 2034 4250 
Q 1547 4250 1301 3770 
Q 1056 3291 1056 2328 
Q 1056 1369 1301 889 
Q 1547 409 2034 409 
Q 2525 409 2770 889 
Q 3016 1369 3016 2328 
Q 3016 3291 2770 3770 
Q 2525 4250 2034 4250 
z
M 2034 4750 
Q 2819 4750 3233 4129 
Q 3647 3509 3647 2328 
Q 3647 1150 3233 529 
Q 2819 -91 2034 -91 
Q 1250 -91 836 529 
Q 422 1150 422 2328 
Q 422 3509 836 4129 
Q 1250 4750 2034 4750 
z
" transform="scale(0.015625)"/>
       </defs>
       <use xlink:href="#DejaVuSans-30"/>
      </g>
     </g>
    </g>
    <g id="ytick_2">
     <g id="line2d_2">
      <g>
       <use xlink:href="#m070d0b66e2" x="36" y="101.827888" style="stroke: #000000; stroke-width: 0.8"/>
      </g>
     </g>
     <g id="text_2">
      <!-- 5 -->
      <g transform="translate(22.6375 105.627107) scale(0.1 -0.1)">
       <defs>
        <path id="DejaVuSans-35" d="M 691 4666 
L 3169 4666 
L 3169 4134 
L 1269 4134 
L 1269 2991 
Q 1406 3038 1543 3061 
Q 1681 3084 1819 3084 
Q 2600 3084 3056 2656 
Q 3513 2228 3513 1497 
Q 3513 744 3044 326 
Q 2575 -91 1722 -91 
Q 1428 -91 1123 -41 
Q 819 9 494 109 
L 494 744 
Q 775 591 1075 516 
Q 1375 441 1709 441 
Q 2250 441 2565 725 
Q 2881 1009 2881 1497 
Q 2881 1984 2565 2268 
Q 2250 2553 1709 2553 
Q 1456 2553 1204 2497 
Q 953 2441 691 2322 
L 691 4666 
z
" transform="scale(0.015625)"/>
       </defs>
       <use xlink:href="#DejaVuSans-35"/>
      </g>
     </g>
    </g>
    <g id="ytick_3">
     <g id="line2d_3">
      <g>
       <use xlink:href="#m070d0b66e2" x="36" y="75.495776" style="stroke: #000000; stroke-width: 0.8"/>
      </g>
     </g>
     <g id="text_3">
      <!-- 10 -->
      <g transform="translate(16.275 79.294995) scale(0.1 -0.1)">
       <defs>
        <path id="DejaVuSans-31" d="M 794 531 
L 1825 531 
L 1825 4091 
L 703 3866 
L 703 4441 
L 1819 4666 
L 2450 4666 
L 2450 531 
L 3481 531 
L 3481 0 
L 794 0 
L 794 531 
z
" transform="scale(0.015625)"/>
       </defs>
       <use xlink:href="#DejaVuSans-31"/>
       <use xlink:href="#DejaVuSans-30" transform="translate(63.623047 0)"/>
      </g>
     </g>
    </g>
    <g id="ytick_4">
     <g id="line2d_4">
      <g>
       <use xlink:href="#m070d0b66e2" x="36" y="49.163664" style="stroke: #000000; stroke-width: 0.8"/>
      </g>
     </g>
     <g id="text_4">
      <!-- 15 -->
      <g transform="translate(16.275 52.962883) scale(0.1 -0.1)">
       <use xlink:href="#DejaVuSans-31"/>
       <use xlink:href="#DejaVuSans-35" transform="translate(63.623047 0)"/>
      </g>
     </g>
    </g>
    <g id="ytick_5">
     <g id="line2d_5">
      <g>
       <use xlink:href="#m070d0b66e2" x="36" y="22.831553" style="stroke: #000000; stroke-width: 0.8"/>
      </g>
     </g>
     <g id="text_5">
      <!-- 20 -->
      <g transform="translate(16.275 26.630771) scale(0.1 -0.1)">
       <defs>
        <path id="DejaVuSans-32" d="M 1228 531 
L 3431 531 
L 3431 0 
L 469 0 
L 469 531 
Q 828 903 1448 1529 
Q 2069 2156 2228 2338 
Q 2531 2678 2651 2914 
Q 2772 3150 2772 3378 
Q 2772 3750 2511 3984 
Q 2250 4219 1831 4219 
Q 1534 4219 1204 4116 
Q 875 4013 500 3803 
L 500 4441 
Q 881 4594 1212 4672 
Q 1544 4750 1819 4750 
Q 2544 4750 2975 4387 
Q 3406 4025 3406 3419 
Q 3406 3131 3298 2873 
Q 3191 2616 2906 2266 
Q 2828 2175 2409 1742 
Q 1991 1309 1228 531 
z
" transform="scale(0.015625)"/>
       </defs>
       <use xlink:href="#DejaVuSans-32"/>
       <use xlink:href="#DejaVuSans-30" transform="translate(63.623047 0)"/>
      </g>
     </g>
    </g>
    <g id="text_6">
     <!-- Force (N) -->
     <g transform="translate(10.195312 95.473906) rotate(-90) scale(0.1 -0.1)">
      <defs>
       <path id="DejaVuSans-46" d="M 628 4666 
L 3309 4666 
L 3309 4134 
L 1259 4134 
L 1259 2759 
L 3109 2759 
L 3109 2228 
L 1259 2228 
L 1259 0 
L 628 0 
L 628 4666 
z
" transform="scale(0.015625)"/>
       <path id="DejaVuSans-6f" d="M 1959 3097 
Q 1497 3097 1228 2736 
Q 959 2375 959 1747 
Q 959 1119 1226 758 
Q 1494 397 1959 397 
Q 2419 397 2687 759 
Q 2956 1122 2956 1747 
Q 2956 2369 2687 2733 
Q 2419 3097 1959 3097 
z
M 1959 3584 
Q 2709 3584 3137 3096 
Q 3566 2609 3566 1747 
Q 3566 888 3137 398 
Q 2709 -91 1959 -91 
Q 1206 -91 779 398 
Q 353 888 353 1747 
Q 353 2609 779 3096 
Q 1206 3584 1959 3584 
z
" transform="scale(0.015625)"/>
       <path id="DejaVuSans-72" d="M 2631 2963 
Q 2534 3019 2420 3045 
Q 2306 3072 2169 3072 
Q 1681 3072 1420 2755 
Q 1159 2438 1159 1844 
L 1159 0 
L 581 0 
L 581 3500 
L 1159 3500 
L 1159 2956 
Q 1341 3275 1631 3429 
Q 1922 3584 2338 3584 
Q 2397 3584 2469 3576 
Q 2541 3569 2628 3553 
L 2631 2963 
z
" transform="scale(0.015625)"/>
       <path id="DejaVuSans-63" d="M 3122 3366 
L 3122 2828 
Q 2878 2963 2633 3030 
Q 2388 3097 2138 3097 
Q 1578 3097 1268 2742 
Q 959 2388 959 1747 
Q 959 1106 1268 751 
Q 1578 397 2138 397 
Q 2388 397 2633 464 
Q 2878 531 3122 666 
L 3122 134 
Q 2881 22 2623 -34 
Q 2366 -91 2075 -91 
Q 1284 -91 818 406 
Q 353 903 353 1747 
Q 353 2603 823 3093 
Q 1294 3584 2113 3584 
Q 2378 3584 2631 3529 
Q 2884 3475 3122 3366 
z
" transform="scale(0.015625)"/>
       <path id="DejaVuSans-65" d="M 3597 1894 
L 3597 1613 
L 953 1613 
Q 991 1019 1311 708 
Q 1631 397 2203 397 
Q 2534 397 2845 478 
Q 3156 559 3463 722 
L 3463 178 
Q 3153 47 2828 -22 
Q 2503 -91 2169 -91 
Q 1331 -91 842 396 
Q 353 884 353 1716 
Q 353 2575 817 3079 
Q 1281 3584 2069 3584 
Q 2775 3584 3186 3129 
Q 3597 2675 3597 1894 
z
M 3022 2063 
Q 3016 2534 2758 2815 
Q 2500 3097 2075 3097 
Q 1594 3097 1305 2825 
Q 1016 2553 972 2059 
L 3022 2063 
z
" transform="scale(0.015625)"/>
       <path id="DejaVuSans-20" transform="scale(0.015625)"/>
       <path id="DejaVuSans-28" d="M 1984 4856 
Q 1566 4138 1362 3434 
Q 1159 2731 1159 2009 
Q 1159 1288 1364 580 
Q 1569 -128 1984 -844 
L 1484 -844 
Q 1016 -109 783 600 
Q 550 1309 550 2009 
Q 550 2706 781 3412 
Q 1013 4119 1484 4856 
L 1984 4856 
z
" transform="scale(0.015625)"/>
       <path id="DejaVuSans-4e" d="M 628 4666 
L 1478 4666 
L 3547 763 
L 3547 4666 
L 4159 4666 
L 4159 0 
L 3309 0 
L 1241 3903 
L 1241 0 
L 628 0 
L 628 4666 
z
" transform="scale(0.015625)"/>
       <path id="DejaVuSans-29" d="M 513 4856 
L 1013 4856 
Q 1481 4119 1714 3412 
Q 1947 2706 1947 2009 
Q 1947 1309 1714 600 
Q 1481 -109 1013 -844 
L 513 -844 
Q 928 -128 1133 580 
Q 1338 1288 1338 2009 
Q 1338 2731 1133 3434 
Q 928 4138 513 4856 
z
" transform="scale(0.015625)"/>
      </defs>
      <use xlink:href="#DejaVuSans-46"/>
      <use xlink:href="#DejaVuSans-6f" transform="translate(53.894531 0)"/>
      <use xlink:href="#DejaVuSans-72" transform="translate(115.076172 0)"/>
      <use xlink:href="#DejaVuSans-63" transform="translate(153.939453 0)"/>
      <use xlink:href="#DejaVuSans-65" transform="translate(208.919922 0)"/>
      <use xlink:href="#DejaVuSans-20" transform="translate(270.443359 0)"/>
      <use xlink:href="#DejaVuSans-28" transform="translate(302.230469 0)"/>
      <use xlink:href="#DejaVuSans-4e" transform="translate(341.244141 0)"/>
      <use xlink:href="#DejaVuSans-29" transform="translate(416.048828 0)"/>
     </g>
    </g>
   </g>
   <g id="line2d_6">
    <path d="M 40.254545 68.435832 
L 40.254545 56.010886 
" clip-path="url(#pa9c8ed4b37)" style="fill: none; stroke: #424242; stroke-width: 2.25; stroke-linecap: square"/>
   </g>
   <g id="line2d_7">
    <path d="M 48.763636 72.422101 
L 48.763636 60.138027 
" clip-path="url(#pa9c8ed4b37)" style="fill: none; stroke: #424242; stroke-width: 2.25; stroke-linecap: square"/>
   </g>
   <g id="line2d_8">
    <path d="M 57.272727 75.001141 
L 57.272727 63.019213 
" clip-path="url(#pa9c8ed4b37)" style="fill: none; stroke: #424242; stroke-width: 2.25; stroke-linecap: square"/>
   </g>
   <g id="line2d_9">
    <path d="M 65.781818 77.662808 
L 65.781818 65.937622 
" clip-path="url(#pa9c8ed4b37)" style="fill: none; stroke: #424242; stroke-width: 2.25; stroke-linecap: square"/>
   </g>
   <g id="patch_7">
    <path d="M 36 128.16 
L 36 75.495776 
" style="fill: none; stroke: #000000; stroke-width: 0.8; stroke-linejoin: miter; stroke-linecap: square"/>
   </g>
   <g id="PathCollection_1">
    <defs>
     <path id="ma4ef8cb60d" d="M 0 1 
C 0.265203 1 0.51958 0.894634 0.707107 0.707107 
C 0.894634 0.51958 1 0.265203 1 0 
C 1 -0.265203 0.894634 -0.51958 0.707107 -0.707107 
C 0.51958 -0.894634 0.265203 -1 0 -1 
C -0.265203 -1 -0.51958 -0.894634 -0.707107 -0.707107 
C -0.894634 -0.51958 -1 -0.265203 -1 0 
C -1 0.265203 -0.894634 0.51958 -0.707107 0.707107 
C -0.51958 0.894634 -0.265203 1 0 1 
z
"/>
    </defs>
    <g clip-path="url(#pa9c8ed4b37)">
     <use xlink:href="#ma4ef8cb60d" x="38.899046" y="85.044987"/>
     <use xlink:href="#ma4ef8cb60d" x="39.324527" y="85.565609"/>
     <use xlink:href="#ma4ef8cb60d" x="39.120695" y="88.465455"/>
     <use xlink:href="#ma4ef8cb60d" x="38.636645" y="37.423811"/>
     <use xlink:href="#ma4ef8cb60d" x="39.06457" y="22.56"/>
     <use xlink:href="#ma4ef8cb60d" x="39.653711" y="50.529249"/>
     <use xlink:href="#ma4ef8cb60d" x="41.697382" y="46.663542"/>
     <use xlink:href="#ma4ef8cb60d" x="40.198763" y="80.250537"/>
     <use xlink:href="#ma4ef8cb60d" x="39.5001" y="84.985492"/>
     <use xlink:href="#ma4ef8cb60d" x="41.54399" y="64.602868"/>
     <use xlink:href="#ma4ef8cb60d" x="40.64461" y="34.183076"/>
     <use xlink:href="#ma4ef8cb60d" x="38.965271" y="88.318224"/>
     <use xlink:href="#ma4ef8cb60d" x="38.566879" y="42.698912"/>
     <use xlink:href="#ma4ef8cb60d" x="40.583364" y="59.835264"/>
    </g>
   </g>
   <g id="PathCollection_2">
    <g clip-path="url(#pa9c8ed4b37)">
     <use xlink:href="#ma4ef8cb60d" x="48.604364" y="90.758597"/>
     <use xlink:href="#ma4ef8cb60d" x="48.930003" y="90.42377"/>
     <use xlink:href="#ma4ef8cb60d" x="48.224083" y="90.423642"/>
     <use xlink:href="#ma4ef8cb60d" x="47.651696" y="40.651263"/>
     <use xlink:href="#ma4ef8cb60d" x="47.159711" y="32.509418"/>
     <use xlink:href="#ma4ef8cb60d" x="48.887153" y="53.728203"/>
     <use xlink:href="#ma4ef8cb60d" x="49.792189" y="48.224671"/>
     <use xlink:href="#ma4ef8cb60d" x="49.999401" y="86.492094"/>
     <use xlink:href="#ma4ef8cb60d" x="49.454215" y="88.622067"/>
     <use xlink:href="#ma4ef8cb60d" x="48.477621" y="72.832829"/>
     <use xlink:href="#ma4ef8cb60d" x="48.4582" y="35.529211"/>
     <use xlink:href="#ma4ef8cb60d" x="47.778467" y="90.519302"/>
     <use xlink:href="#ma4ef8cb60d" x="50.051788" y="50.881987"/>
     <use xlink:href="#ma4ef8cb60d" x="48.317421" y="56.323836"/>
    </g>
   </g>
   <g id="PathCollection_3">
    <g clip-path="url(#pa9c8ed4b37)">
     <use xlink:href="#ma4ef8cb60d" x="56.186368" y="94.327723"/>
     <use xlink:href="#ma4ef8cb60d" x="57.826712" y="92.633605"/>
     <use xlink:href="#ma4ef8cb60d" x="56.86374" y="91.983786"/>
     <use xlink:href="#ma4ef8cb60d" x="57.450399" y="49.545061"/>
     <use xlink:href="#ma4ef8cb60d" x="58.856172" y="34.372462"/>
     <use xlink:href="#ma4ef8cb60d" x="57.496645" y="56.162239"/>
     <use xlink:href="#ma4ef8cb60d" x="58.422537" y="48.385597"/>
     <use xlink:href="#ma4ef8cb60d" x="55.827724" y="85.817325"/>
     <use xlink:href="#ma4ef8cb60d" x="57.688015" y="90.378333"/>
     <use xlink:href="#ma4ef8cb60d" x="57.885927" y="74.001289"/>
     <use xlink:href="#ma4ef8cb60d" x="57.283708" y="40.423128"/>
     <use xlink:href="#ma4ef8cb60d" x="57.332318" y="93.453825"/>
     <use xlink:href="#ma4ef8cb60d" x="55.881587" y="47.717963"/>
     <use xlink:href="#ma4ef8cb60d" x="57.225041" y="66.940144"/>
    </g>
   </g>
   <g id="PathCollection_4">
    <g clip-path="url(#pa9c8ed4b37)">
     <use xlink:href="#ma4ef8cb60d" x="64.743056" y="98.428663"/>
     <use xlink:href="#ma4ef8cb60d" x="66.041" y="95.963169"/>
     <use xlink:href="#ma4ef8cb60d" x="65.483383" y="91.369526"/>
     <use xlink:href="#ma4ef8cb60d" x="67.473025" y="49.922224"/>
     <use xlink:href="#ma4ef8cb60d" x="67.480999" y="42.528947"/>
     <use xlink:href="#ma4ef8cb60d" x="66.387793" y="54.881877"/>
     <use xlink:href="#ma4ef8cb60d" x="66.196675" y="51.563889"/>
     <use xlink:href="#ma4ef8cb60d" x="64.227037" y="88.403732"/>
     <use xlink:href="#ma4ef8cb60d" x="65.926769" y="97.167531"/>
     <use xlink:href="#ma4ef8cb60d" x="65.68142" y="68.563721"/>
     <use xlink:href="#ma4ef8cb60d" x="64.698252" y="44.723712"/>
     <use xlink:href="#ma4ef8cb60d" x="66.015528" y="91.246759"/>
     <use xlink:href="#ma4ef8cb60d" x="64.090204" y="50.716169"/>
     <use xlink:href="#ma4ef8cb60d" x="65.94834" y="79.723091"/>
    </g>
   </g>
  </g>
  <g id="axes_2">
   <g id="patch_8">
    <path d="M 87.054545 128.16 
L 129.6 128.16 
L 129.6 17.28 
L 87.054545 17.28 
z
" style="fill: #ffffff"/>
   </g>
   <g id="patch_9">
    <path d="M 95.563636 128.16 
L 104.072727 128.16 
L 104.072727 82.289562 
L 95.563636 82.289562 
z
" clip-path="url(#pd4edeba113)" style="fill: #c1e1f2"/>
   </g>
   <g id="patch_10">
    <path d="M 104.072727 128.16 
L 112.581818 128.16 
L 112.581818 77.154064 
L 104.072727 77.154064 
z
" clip-path="url(#pd4edeba113)" style="fill: #7ec8e5"/>
   </g>
   <g id="patch_11">
    <path d="M 112.581818 128.16 
L 121.090909 128.16 
L 121.090909 73.495506 
L 112.581818 73.495506 
z
" clip-path="url(#pd4edeba113)" style="fill: #1eb0d5"/>
   </g>
   <g id="patch_12">
    <path d="M 121.090909 128.16 
L 129.6 128.16 
L 129.6 71.203856 
L 121.090909 71.203856 
z
" clip-path="url(#pd4edeba113)" style="fill: #1ea0d1"/>
   </g>
   <g id="matplotlib.axis_3"/>
   <g id="matplotlib.axis_4">
    <g id="ytick_6">
     <g id="line2d_10">
      <defs>
       <path id="mb83e0c772e" d="M 0 0 
L -3.5 0 
"/>
      </defs>
      <g>
       <use xlink:href="#mb83e0c772e" x="87.054545" y="128.16"/>
      </g>
     </g>
    </g>
    <g id="ytick_7">
     <g id="line2d_11">
      <g>
       <use xlink:href="#mb83e0c772e" x="87.054545" y="101.827888"/>
      </g>
     </g>
    </g>
    <g id="ytick_8">
     <g id="line2d_12">
      <g>
       <use xlink:href="#mb83e0c772e" x="87.054545" y="75.495776"/>
      </g>
     </g>
    </g>
    <g id="ytick_9">
     <g id="line2d_13">
      <g>
       <use xlink:href="#mb83e0c772e" x="87.054545" y="49.163664"/>
      </g>
     </g>
    </g>
    <g id="ytick_10">
     <g id="line2d_14">
      <g>
       <use xlink:href="#mb83e0c772e" x="87.054545" y="22.831553"/>
      </g>
     </g>
    </g>
   </g>
   <g id="line2d_15">
    <path d="M 99.818182 86.42671 
L 99.818182 78.152414 
" clip-path="url(#pd4edeba113)" style="fill: none; stroke: #424242; stroke-width: 2.25; stroke-linecap: square"/>
   </g>
   <g id="line2d_16">
    <path d="M 108.327273 81.662882 
L 108.327273 72.645246 
" clip-path="url(#pd4edeba113)" style="fill: none; stroke: #424242; stroke-width: 2.25; stroke-linecap: square"/>
   </g>
   <g id="line2d_17">
    <path d="M 116.836364 78.649722 
L 116.836364 68.34129 
" clip-path="url(#pd4edeba113)" style="fill: none; stroke: #424242; stroke-width: 2.25; stroke-linecap: square"/>
   </g>
   <g id="line2d_18">
    <path d="M 125.345455 76.699475 
L 125.345455 65.708237 
" clip-path="url(#pd4edeba113)" style="fill: none; stroke: #424242; stroke-width: 2.25; stroke-linecap: square"/>
   </g>
   <g id="PathCollection_5">
    <g clip-path="url(#pd4edeba113)">
     <use xlink:href="#ma4ef8cb60d" x="99.6315" y="93.518092"/>
     <use xlink:href="#ma4ef8cb60d" x="101.406181" y="95.210428"/>
     <use xlink:href="#ma4ef8cb60d" x="99.536079" y="91.853405"/>
     <use xlink:href="#ma4ef8cb60d" x="100.294878" y="87.061819"/>
     <use xlink:href="#ma4ef8cb60d" x="99.84328" y="51.012553"/>
     <use xlink:href="#ma4ef8cb60d" x="100.556899" y="59.1047"/>
     <use xlink:href="#ma4ef8cb60d" x="100.942247" y="68.957963"/>
     <use xlink:href="#ma4ef8cb60d" x="101.202444" y="96.360537"/>
     <use xlink:href="#ma4ef8cb60d" x="99.393059" y="89.524867"/>
     <use xlink:href="#ma4ef8cb60d" x="98.365327" y="80.847762"/>
     <use xlink:href="#ma4ef8cb60d" x="98.807616" y="93.663011"/>
     <use xlink:href="#ma4ef8cb60d" x="100.48316" y="89.170797"/>
     <use xlink:href="#ma4ef8cb60d" x="98.894005" y="61.355606"/>
     <use xlink:href="#ma4ef8cb60d" x="98.129121" y="94.412328"/>
    </g>
   </g>
   <g id="PathCollection_6">
    <g clip-path="url(#pd4edeba113)">
     <use xlink:href="#ma4ef8cb60d" x="109.029169" y="95.813528"/>
     <use xlink:href="#ma4ef8cb60d" x="109.601897" y="95.183546"/>
     <use xlink:href="#ma4ef8cb60d" x="108.842761" y="94.788145"/>
     <use xlink:href="#ma4ef8cb60d" x="108.095279" y="52.387689"/>
     <use xlink:href="#ma4ef8cb60d" x="107.805387" y="56.650418"/>
     <use xlink:href="#ma4ef8cb60d" x="109.942479" y="62.710085"/>
     <use xlink:href="#ma4ef8cb60d" x="109.881968" y="60.538133"/>
     <use xlink:href="#ma4ef8cb60d" x="108.965137" y="98.222108"/>
     <use xlink:href="#ma4ef8cb60d" x="108.754106" y="90.20076"/>
     <use xlink:href="#ma4ef8cb60d" x="107.049825" y="76.306313"/>
     <use xlink:href="#ma4ef8cb60d" x="109.912241" y="76.069516"/>
     <use xlink:href="#ma4ef8cb60d" x="109.001763" y="91.65718"/>
     <use xlink:href="#ma4ef8cb60d" x="109.776319" y="59.051199"/>
     <use xlink:href="#ma4ef8cb60d" x="109.959422" y="70.57827"/>
    </g>
   </g>
   <g id="PathCollection_7">
    <g clip-path="url(#pd4edeba113)">
     <use xlink:href="#ma4ef8cb60d" x="116.66323" y="94.327291"/>
     <use xlink:href="#ma4ef8cb60d" x="116.578492" y="93.587614"/>
     <use xlink:href="#ma4ef8cb60d" x="118.160406" y="93.428826"/>
     <use xlink:href="#ma4ef8cb60d" x="115.164103" y="38.302114"/>
     <use xlink:href="#ma4ef8cb60d" x="115.479544" y="42.671877"/>
     <use xlink:href="#ma4ef8cb60d" x="117.572259" y="59.704632"/>
     <use xlink:href="#ma4ef8cb60d" x="116.326889" y="60.146593"/>
     <use xlink:href="#ma4ef8cb60d" x="118.210935" y="94.874267"/>
     <use xlink:href="#ma4ef8cb60d" x="116.838667" y="88.395241"/>
     <use xlink:href="#ma4ef8cb60d" x="117.106531" y="74.170241"/>
     <use xlink:href="#ma4ef8cb60d" x="118.163374" y="76.509062"/>
     <use xlink:href="#ma4ef8cb60d" x="117.453136" y="85.788033"/>
     <use xlink:href="#ma4ef8cb60d" x="115.892226" y="62.09023"/>
     <use xlink:href="#ma4ef8cb60d" x="115.706584" y="64.941064"/>
    </g>
   </g>
   <g id="PathCollection_8">
    <g clip-path="url(#pd4edeba113)">
     <use xlink:href="#ma4ef8cb60d" x="126.631435" y="90.140117"/>
     <use xlink:href="#ma4ef8cb60d" x="126.340934" y="91.200735"/>
     <use xlink:href="#ma4ef8cb60d" x="126.745473" y="91.783919"/>
     <use xlink:href="#ma4ef8cb60d" x="125.127107" y="32.535298"/>
     <use xlink:href="#ma4ef8cb60d" x="125.96466" y="39.855953"/>
     <use xlink:href="#ma4ef8cb60d" x="125.002461" y="57.851082"/>
     <use xlink:href="#ma4ef8cb60d" x="123.848892" y="62.04276"/>
     <use xlink:href="#ma4ef8cb60d" x="123.689947" y="97.571853"/>
     <use xlink:href="#ma4ef8cb60d" x="124.942622" y="87.16292"/>
     <use xlink:href="#ma4ef8cb60d" x="125.440918" y="73.471458"/>
     <use xlink:href="#ma4ef8cb60d" x="125.862499" y="72.417109"/>
     <use xlink:href="#ma4ef8cb60d" x="125.972024" y="82.981037"/>
     <use xlink:href="#ma4ef8cb60d" x="125.927302" y="49.499304"/>
     <use xlink:href="#ma4ef8cb60d" x="126.883821" y="68.340444"/>
    </g>
   </g>
  </g>
  <g id="text_7">
   <!-- Force response -->
   <g transform="translate(26.616563 11.998125) scale(0.12 -0.12)">
    <defs>
     <path id="DejaVuSans-73" d="M 2834 3397 
L 2834 2853 
Q 2591 2978 2328 3040 
Q 2066 3103 1784 3103 
Q 1356 3103 1142 2972 
Q 928 2841 928 2578 
Q 928 2378 1081 2264 
Q 1234 2150 1697 2047 
L 1894 2003 
Q 2506 1872 2764 1633 
Q 3022 1394 3022 966 
Q 3022 478 2636 193 
Q 2250 -91 1575 -91 
Q 1294 -91 989 -36 
Q 684 19 347 128 
L 347 722 
Q 666 556 975 473 
Q 1284 391 1588 391 
Q 1994 391 2212 530 
Q 2431 669 2431 922 
Q 2431 1156 2273 1281 
Q 2116 1406 1581 1522 
L 1381 1569 
Q 847 1681 609 1914 
Q 372 2147 372 2553 
Q 372 3047 722 3315 
Q 1072 3584 1716 3584 
Q 2034 3584 2315 3537 
Q 2597 3491 2834 3397 
z
" transform="scale(0.015625)"/>
     <path id="DejaVuSans-70" d="M 1159 525 
L 1159 -1331 
L 581 -1331 
L 581 3500 
L 1159 3500 
L 1159 2969 
Q 1341 3281 1617 3432 
Q 1894 3584 2278 3584 
Q 2916 3584 3314 3078 
Q 3713 2572 3713 1747 
Q 3713 922 3314 415 
Q 2916 -91 2278 -91 
Q 1894 -91 1617 61 
Q 1341 213 1159 525 
z
M 3116 1747 
Q 3116 2381 2855 2742 
Q 2594 3103 2138 3103 
Q 1681 3103 1420 2742 
Q 1159 2381 1159 1747 
Q 1159 1113 1420 752 
Q 1681 391 2138 391 
Q 2594 391 2855 752 
Q 3116 1113 3116 1747 
z
" transform="scale(0.015625)"/>
     <path id="DejaVuSans-6e" d="M 3513 2113 
L 3513 0 
L 2938 0 
L 2938 2094 
Q 2938 2591 2744 2837 
Q 2550 3084 2163 3084 
Q 1697 3084 1428 2787 
Q 1159 2491 1159 1978 
L 1159 0 
L 581 0 
L 581 3500 
L 1159 3500 
L 1159 2956 
Q 1366 3272 1645 3428 
Q 1925 3584 2291 3584 
Q 2894 3584 3203 3211 
Q 3513 2838 3513 2113 
z
" transform="scale(0.015625)"/>
    </defs>
    <use xlink:href="#DejaVuSans-46"/>
    <use xlink:href="#DejaVuSans-6f" transform="translate(53.894531 0)"/>
    <use xlink:href="#DejaVuSans-72" transform="translate(115.076172 0)"/>
    <use xlink:href="#DejaVuSans-63" transform="translate(153.939453 0)"/>
    <use xlink:href="#DejaVuSans-65" transform="translate(208.919922 0)"/>
    <use xlink:href="#DejaVuSans-20" transform="translate(270.443359 0)"/>
    <use xlink:href="#DejaVuSans-72" transform="translate(302.230469 0)"/>
    <use xlink:href="#DejaVuSans-65" transform="translate(341.09375 0)"/>
    <use xlink:href="#DejaVuSans-73" transform="translate(402.617188 0)"/>
    <use xlink:href="#DejaVuSans-70" transform="translate(454.716797 0)"/>
    <use xlink:href="#DejaVuSans-6f" transform="translate(518.193359 0)"/>
    <use xlink:href="#DejaVuSans-6e" transform="translate(579.375 0)"/>
    <use xlink:href="#DejaVuSans-73" transform="translate(642.753906 0)"/>
    <use xlink:href="#DejaVuSans-65" transform="translate(694.853516 0)"/>
   </g>
  </g>
 </g>
 <defs>
  <clipPath id="pa9c8ed4b37">
   <rect x="36" y="17.28" width="42.545455" height="110.88"/>
  </clipPath>
  <clipPath id="pd4edeba113">
   <rect x="87.054545" y="17.28" width="42.545455" height="110.88"/>
  </clipPath>
 </defs>
</svg>
