<?xml version="1.0" encoding="utf-8" standalone="no"?>
<!DOCTYPE svg PUBLIC "-//W3C//DTD SVG 1.1//EN"
  "http://www.w3.org/Graphics/SVG/1.1/DTD/svg11.dtd">
<svg xmlns:xlink="http://www.w3.org/1999/xlink" width="288pt" height="216pt" viewBox="0 0 288 216" xmlns="http://www.w3.org/2000/svg" version="1.1">
 <metadata>
  <rdf:RDF xmlns:dc="http://purl.org/dc/elements/1.1/" xmlns:cc="http://creativecommons.org/ns#" xmlns:rdf="http://www.w3.org/1999/02/22-rdf-syntax-ns#">
   <cc:Work>
    <dc:type rdf:resource="http://purl.org/dc/dcmitype/StillImage"/>
    <dc:date>2025-10-25T11:19:19.437801</dc:date>
    <dc:format>image/svg+xml</dc:format>
    <dc:creator>
     <cc:Agent>
      <dc:title>Matplotlib v3.10.1, https://matplotlib.org/</dc:title>
     </cc:Agent>
    </dc:creator>
   </cc:Work>
  </rdf:RDF>
 </metadata>
 <defs>
  <style type="text/css">*{stroke-linejoin: round; stroke-linecap: butt}</style>
 </defs>
 <g id="figure_1">
  <g id="patch_1">
   <path d="M 0 216 
L 288 216 
L 288 0 
L 0 0 
z
" style="fill: #ffffff"/>
  </g>
  <g id="axes_1">
   <g id="patch_2">
    <path d="M 54.02 167.24 
L 160.21 167.24 
L 160.21 26.88 
L 54.02 26.88 
z
" style="fill: #ffffff"/>
   </g>
   <g id="FillBetweenPolyCollection_1">
    <defs>
     <path id="md774069939" d="M 58.846818 -144.459504 
L 58.846818 -86.547421 
L 59.821933 -86.70914 
L 60.797048 -86.867116 
L 61.772163 -87.02118 
L 62.747277 -87.171153 
L 63.722392 -87.316847 
L 64.697507 -87.458064 
L 65.672622 -87.594598 
L 66.647736 -87.726229 
L 67.622851 -87.852731 
L 68.597966 -87.973862 
L 69.573081 -88.089373 
L 70.548196 -88.198999 
L 71.52331 -88.302465 
L 72.498425 -88.399485 
L 73.47354 -88.489756 
L 74.448655 -88.572967 
L 75.42377 -88.648791 
L 76.398884 -88.71689 
L 77.373999 -88.776913 
L 78.349114 -88.828496 
L 79.324229 -88.871264 
L 80.299343 -88.904832 
L 81.274458 -88.928802 
L 82.249573 -88.942771 
L 83.224688 -88.946324 
L 84.199803 -88.939043 
L 85.174917 -88.920505 
L 86.150032 -88.890283 
L 87.125147 -88.847954 
L 88.100262 -88.793094 
L 89.075376 -88.725287 
L 90.050491 -88.644128 
L 91.025606 -88.549221 
L 92.000721 -88.440188 
L 92.975836 -88.31667 
L 93.95095 -88.178334 
L 94.926065 -88.024871 
L 95.90118 -87.856004 
L 96.876295 -87.671491 
L 97.85141 -87.471125 
L 98.826524 -87.25474 
L 99.801639 -87.022214 
L 100.776754 -86.773465 
L 101.751869 -86.508457 
L 102.726983 -86.227201 
L 103.702098 -85.929751 
L 104.677213 -85.616206 
L 105.652328 -85.286709 
L 106.627443 -84.941442 
L 107.602557 -84.580628 
L 108.577672 -84.204525 
L 109.552787 -83.813423 
L 110.527902 -83.407641 
L 111.503017 -82.987526 
L 112.478131 -82.553444 
L 113.453246 -82.105781 
L 114.428361 -81.644937 
L 115.403476 -81.171323 
L 116.37859 -80.685359 
L 117.353705 -80.187468 
L 118.32882 -79.678075 
L 119.303935 -79.157607 
L 120.27905 -78.626483 
L 121.254164 -78.085122 
L 122.229279 -77.533932 
L 123.204394 -76.973316 
L 124.179509 -76.403665 
L 125.154624 -75.82536 
L 126.129738 -75.238773 
L 127.104853 -74.644261 
L 128.079968 -74.04217 
L 129.055083 -73.432833 
L 130.030197 -72.81657 
L 131.005312 -72.193689 
L 131.980427 -71.564486 
L 132.955542 -70.929242 
L 133.930657 -70.288227 
L 134.905771 -69.6417 
L 135.880886 -68.989907 
L 136.856001 -68.333082 
L 137.831116 -67.67145 
L 138.80623 -67.005224 
L 139.781345 -66.334607 
L 140.75646 -65.659792 
L 141.731575 -64.980964 
L 142.70669 -64.298296 
L 143.681804 -63.611957 
L 144.656919 -62.922103 
L 145.632034 -62.228886 
L 146.607149 -61.532449 
L 147.582264 -60.832927 
L 148.557378 -60.130451 
L 149.532493 -59.425143 
L 150.507608 -58.71712 
L 151.482723 -58.006494 
L 152.457837 -57.29337 
L 153.432952 -56.57785 
L 154.408067 -55.86003 
L 155.383182 -55.14 
L 155.383182 -124.082698 
L 155.383182 -124.082698 
L 154.408067 -123.885741 
L 153.432952 -123.690994 
L 152.457837 -123.498547 
L 151.482723 -123.308496 
L 150.507608 -123.120943 
L 149.532493 -122.935994 
L 148.557378 -122.753758 
L 147.582264 -122.574355 
L 146.607149 -122.397906 
L 145.632034 -122.224542 
L 144.656919 -122.054398 
L 143.681804 -121.887617 
L 142.70669 -121.724351 
L 141.731575 -121.564757 
L 140.75646 -121.409001 
L 139.781345 -121.257259 
L 138.80623 -121.109715 
L 137.831116 -120.966562 
L 136.856001 -120.828003 
L 135.880886 -120.694251 
L 134.905771 -120.565531 
L 133.930657 -120.442077 
L 132.955542 -120.324136 
L 131.980427 -120.211965 
L 131.005312 -120.105834 
L 130.030197 -120.006026 
L 129.055083 -119.912837 
L 128.079968 -119.826572 
L 127.104853 -119.747554 
L 126.129738 -119.676115 
L 125.154624 -119.612601 
L 124.179509 -119.55737 
L 123.204394 -119.510792 
L 122.229279 -119.473248 
L 121.254164 -119.445132 
L 120.27905 -119.426843 
L 119.303935 -119.418793 
L 118.32882 -119.421397 
L 117.353705 -119.435077 
L 116.37859 -119.460259 
L 115.403476 -119.497368 
L 114.428361 -119.546827 
L 113.453246 -119.609056 
L 112.478131 -119.684466 
L 111.503017 -119.773457 
L 110.527902 -119.876415 
L 109.552787 -119.993706 
L 108.577672 -120.125677 
L 107.602557 -120.272647 
L 106.627443 -120.434906 
L 105.652328 -120.612713 
L 104.677213 -120.806288 
L 103.702098 -121.015816 
L 102.726983 -121.241439 
L 101.751869 -121.483256 
L 100.776754 -121.741322 
L 99.801639 -122.015645 
L 98.826524 -122.306192 
L 97.85141 -122.612881 
L 96.876295 -122.935588 
L 95.90118 -123.274147 
L 94.926065 -123.628353 
L 93.95095 -123.997963 
L 92.975836 -124.3827 
L 92.000721 -124.782256 
L 91.025606 -125.196295 
L 90.050491 -125.624461 
L 89.075376 -126.066375 
L 88.100262 -126.521642 
L 87.125147 -126.989855 
L 86.150032 -127.470598 
L 85.174917 -127.963449 
L 84.199803 -128.467984 
L 83.224688 -128.983776 
L 82.249573 -129.510402 
L 81.274458 -130.047444 
L 80.299343 -130.594487 
L 79.324229 -131.151128 
L 78.349114 -131.716969 
L 77.373999 -132.291625 
L 76.398884 -132.874721 
L 75.42377 -133.465893 
L 74.448655 -134.06479 
L 73.47354 -134.671074 
L 72.498425 -135.284419 
L 71.52331 -135.904511 
L 70.548196 -136.53105 
L 69.573081 -137.163749 
L 68.597966 -137.802333 
L 67.622851 -138.446537 
L 66.647736 -139.096112 
L 65.672622 -139.750817 
L 64.697507 -140.410423 
L 63.722392 -141.074713 
L 62.747277 -141.74348 
L 61.772163 -142.416526 
L 60.797048 -143.093663 
L 59.821933 -143.774712 
L 58.846818 -144.459504 
z
"/>
    </defs>
    <g clip-path="url(#pcbae52dfcb)">
     <use xlink:href="#md774069939" x="0" y="216" style="fill-opacity: 0.2"/>
    </g>
   </g>
   <g id="PathCollection_1">
    <defs>
     <path id="mf89ff48de2" d="M 0 3 
C 0.795609 3 1.55874 2.683901 2.12132 2.12132 
C 2.683901 1.55874 3 0.795609 3 0 
C 3 -0.795609 2.683901 -1.55874 2.12132 -2.12132 
C 1.55874 -2.683901 0.795609 -3 0 -3 
C -0.795609 -3 -1.55874 -2.683901 -2.12132 -2.12132 
C -2.683901 -1.55874 -3 -0.795609 -3 0 
C -3 0.795609 -2.683901 1.55874 -2.12132 2.12132 
C -1.55874 2.683901 -0.795609 3 0 3 
z
" style="stroke: #000000"/>
    </defs>
    <g clip-path="url(#pcbae52dfcb)">
     <use xlink:href="#mf89ff48de2" x="58.846818" y="147.480841" style="stroke: #000000"/>
     <use xlink:href="#mf89ff48de2" x="81.578289" y="118.820397" style="stroke: #000000"/>
     <use xlink:href="#mf89ff48de2" x="123.133718" y="94.55192" style="stroke: #000000"/>
     <use xlink:href="#mf89ff48de2" x="154.813664" y="139.829216" style="stroke: #000000"/>
     <use xlink:href="#mf89ff48de2" x="74.070853" y="134.164658" style="stroke: #000000"/>
     <use xlink:href="#mf89ff48de2" x="120.426608" y="92.934886" style="stroke: #000000"/>
     <use xlink:href="#mf89ff48de2" x="114.406662" y="135.581603" style="stroke: #000000"/>
     <use xlink:href="#mf89ff48de2" x="97.218111" y="106.801795" style="stroke: #000000"/>
     <use xlink:href="#mf89ff48de2" x="81.763869" y="78.20604" style="stroke: #000000"/>
     <use xlink:href="#mf89ff48de2" x="155.383182" y="120.967188" style="stroke: #000000"/>
     <use xlink:href="#mf89ff48de2" x="65.21009" y="116.271252" style="stroke: #000000"/>
     <use xlink:href="#mf89ff48de2" x="91.902974" y="110.454747" style="stroke: #000000"/>
     <use xlink:href="#mf89ff48de2" x="60.838101" y="33.26" style="stroke: #000000"/>
     <use xlink:href="#mf89ff48de2" x="135.193456" y="136.121151" style="stroke: #000000"/>
    </g>
   </g>
   <g id="matplotlib.axis_1">
    <g id="xtick_1">
     <g id="line2d_1">
      <defs>
       <path id="m1547908117" d="M 0 0 
L 0 3.5 
" style="stroke: #000000; stroke-width: 0.8"/>
      </defs>
      <g>
       <use xlink:href="#m1547908117" x="72.587365" y="167.24" style="stroke: #000000; stroke-width: 0.8"/>
      </g>
     </g>
     <g id="text_1">
      <!-- 0.0000 -->
      <g transform="translate(55.092052 181.838437) scale(0.1 -0.1)">
       <defs>
        <path id="DejaVuSans-30" d="M 2034 4250 
Q 1547 4250 1301 3770 
Q 1056 3291 1056 2328 
Q 1056 1369 1301 889 
Q 1547 409 2034 409 
Q 2525 409 2770 889 
Q 3016 1369 3016 2328 
Q 3016 3291 2770 3770 
Q 2525 4250 2034 4250 
z
M 2034 4750 
Q 2819 4750 3233 4129 
Q 3647 3509 3647 2328 
Q 3647 1150 3233 529 
Q 2819 -91 2034 -91 
Q 1250 -91 836 529 
Q 422 1150 422 2328 
Q 422 3509 836 4129 
Q 1250 4750 2034 4750 
z
" transform="scale(0.015625)"/>
        <path id="DejaVuSans-2e" d="M 684 794 
L 1344 794 
L 1344 0 
L 684 0 
L 684 794 
z
" transform="scale(0.015625)"/>
       </defs>
       <use xlink:href="#DejaVuSans-30"/>
       <use xlink:href="#DejaVuSans-2e" transform="translate(63.623047 0)"/>
       <use xlink:href="#DejaVuSans-30" transform="translate(95.410156 0)"/>
       <use xlink:href="#DejaVuSans-30" transform="translate(159.033203 0)"/>
       <use xlink:href="#DejaVuSans-30" transform="translate(222.65625 0)"/>
       <use xlink:href="#DejaVuSans-30" transform="translate(286.279297 0)"/>
      </g>
     </g>
    </g>
    <g id="xtick_2">
     <g id="line2d_2">
      <g>
       <use xlink:href="#m1547908117" x="123.587102" y="167.24" style="stroke: #000000; stroke-width: 0.8"/>
      </g>
     </g>
     <g id="text_2">
      <!-- 0.0002 -->
      <g transform="translate(106.09179 181.838437) scale(0.1 -0.1)">
       <defs>
        <path id="DejaVuSans-32" d="M 1228 531 
L 3431 531 
L 3431 0 
L 469 0 
L 469 531 
Q 828 903 1448 1529 
Q 2069 2156 2228 2338 
Q 2531 2678 2651 2914 
Q 2772 3150 2772 3378 
Q 2772 3750 2511 3984 
Q 2250 4219 1831 4219 
Q 1534 4219 1204 4116 
Q 875 4013 500 3803 
L 500 4441 
Q 881 4594 1212 4672 
Q 1544 4750 1819 4750 
Q 2544 4750 2975 4387 
Q 3406 4025 3406 3419 
Q 3406 3131 3298 2873 
Q 3191 2616 2906 2266 
Q 2828 2175 2409 1742 
Q 1991 1309 1228 531 
z
" transform="scale(0.015625)"/>
       </defs>
       <use xlink:href="#DejaVuSans-30"/>
       <use xlink:href="#DejaVuSans-2e" transform="translate(63.623047 0)"/>
       <use xlink:href="#DejaVuSans-30" transform="translate(95.410156 0)"/>
       <use xlink:href="#DejaVuSans-30" transform="translate(159.033203 0)"/>
       <use xlink:href="#DejaVuSans-30" transform="translate(222.65625 0)"/>
       <use xlink:href="#DejaVuSans-32" transform="translate(286.279297 0)"/>
      </g>
     </g>
    </g>
   </g>
   <g id="matplotlib.axis_2">
    <g id="ytick_1">
     <g id="line2d_3">
      <defs>
       <path id="mcc84ec72a0" d="M 0 0 
L -3.5 0 
" style="stroke: #000000; stroke-width: 0.8"/>
      </defs>
      <g>
       <use xlink:href="#mcc84ec72a0" x="54.02" y="151.34883" style="stroke: #000000; stroke-width: 0.8"/>
      </g>
     </g>
     <g id="text_3">
      <!-- 0.00 -->
      <g transform="translate(24.754375 155.148049) scale(0.1 -0.1)">
       <use xlink:href="#DejaVuSans-30"/>
       <use xlink:href="#DejaVuSans-2e" transform="translate(63.623047 0)"/>
       <use xlink:href="#DejaVuSans-30" transform="translate(95.410156 0)"/>
       <use xlink:href="#DejaVuSans-30" transform="translate(159.033203 0)"/>
      </g>
     </g>
    </g>
    <g id="ytick_2">
     <g id="line2d_4">
      <g>
       <use xlink:href="#mcc84ec72a0" x="54.02" y="119.967259" style="stroke: #000000; stroke-width: 0.8"/>
      </g>
     </g>
     <g id="text_4">
      <!-- 0.02 -->
      <g transform="translate(24.754375 123.766477) scale(0.1 -0.1)">
       <use xlink:href="#DejaVuSans-30"/>
       <use xlink:href="#DejaVuSans-2e" transform="translate(63.623047 0)"/>
       <use xlink:href="#DejaVuSans-30" transform="translate(95.410156 0)"/>
       <use xlink:href="#DejaVuSans-32" transform="translate(159.033203 0)"/>
      </g>
     </g>
    </g>
    <g id="ytick_3">
     <g id="line2d_5">
      <g>
       <use xlink:href="#mcc84ec72a0" x="54.02" y="88.585687" style="stroke: #000000; stroke-width: 0.8"/>
      </g>
     </g>
     <g id="text_5">
      <!-- 0.04 -->
      <g transform="translate(24.754375 92.384906) scale(0.1 -0.1)">
       <defs>
        <path id="DejaVuSans-34" d="M 2419 4116 
L 825 1625 
L 2419 1625 
L 2419 4116 
z
M 2253 4666 
L 3047 4666 
L 3047 1625 
L 3713 1625 
L 3713 1100 
L 3047 1100 
L 3047 0 
L 2419 0 
L 2419 1100 
L 313 1100 
L 313 1709 
L 2253 4666 
z
" transform="scale(0.015625)"/>
       </defs>
       <use xlink:href="#DejaVuSans-30"/>
       <use xlink:href="#DejaVuSans-2e" transform="translate(63.623047 0)"/>
       <use xlink:href="#DejaVuSans-30" transform="translate(95.410156 0)"/>
       <use xlink:href="#DejaVuSans-34" transform="translate(159.033203 0)"/>
      </g>
     </g>
    </g>
    <g id="ytick_4">
     <g id="line2d_6">
      <g>
       <use xlink:href="#mcc84ec72a0" x="54.02" y="57.204115" style="stroke: #000000; stroke-width: 0.8"/>
      </g>
     </g>
     <g id="text_6">
      <!-- 0.06 -->
      <g transform="translate(24.754375 61.003334) scale(0.1 -0.1)">
       <defs>
        <path id="DejaVuSans-36" d="M 2113 2584 
Q 1688 2584 1439 2293 
Q 1191 2003 1191 1497 
Q 1191 994 1439 701 
Q 1688 409 2113 409 
Q 2538 409 2786 701 
Q 3034 994 3034 1497 
Q 3034 2003 2786 2293 
Q 2538 2584 2113 2584 
z
M 3366 4563 
L 3366 3988 
Q 3128 4100 2886 4159 
Q 2644 4219 2406 4219 
Q 1781 4219 1451 3797 
Q 1122 3375 1075 2522 
Q 1259 2794 1537 2939 
Q 1816 3084 2150 3084 
Q 2853 3084 3261 2657 
Q 3669 2231 3669 1497 
Q 3669 778 3244 343 
Q 2819 -91 2113 -91 
Q 1303 -91 875 529 
Q 447 1150 447 2328 
Q 447 3434 972 4092 
Q 1497 4750 2381 4750 
Q 2619 4750 2861 4703 
Q 3103 4656 3366 4563 
z
" transform="scale(0.015625)"/>
       </defs>
       <use xlink:href="#DejaVuSans-30"/>
       <use xlink:href="#DejaVuSans-2e" transform="translate(63.623047 0)"/>
       <use xlink:href="#DejaVuSans-30" transform="translate(95.410156 0)"/>
       <use xlink:href="#DejaVuSans-36" transform="translate(159.033203 0)"/>
      </g>
     </g>
    </g>
    <g id="text_7">
     <!-- neural dissimilarity (a.u.) -->
     <g transform="translate(18.674687 159.711563) rotate(-90) scale(0.1 -0.1)">
      <defs>
       <path id="DejaVuSans-6e" d="M 3513 2113 
L 3513 0 
L 2938 0 
L 2938 2094 
Q 2938 2591 2744 2837 
Q 2550 3084 2163 3084 
Q 1697 3084 1428 2787 
Q 1159 2491 1159 1978 
L 1159 0 
L 581 0 
L 581 3500 
L 1159 3500 
L 1159 2956 
Q 1366 3272 1645 3428 
Q 1925 3584 2291 3584 
Q 2894 3584 3203 3211 
Q 3513 2838 3513 2113 
z
" transform="scale(0.015625)"/>
       <path id="DejaVuSans-65" d="M 3597 1894 
L 3597 1613 
L 953 1613 
Q 991 1019 1311 708 
Q 1631 397 2203 397 
Q 2534 397 2845 478 
Q 3156 559 3463 722 
L 3463 178 
Q 3153 47 2828 -22 
Q 2503 -91 2169 -91 
Q 1331 -91 842 396 
Q 353 884 353 1716 
Q 353 2575 817 3079 
Q 1281 3584 2069 3584 
Q 2775 3584 3186 3129 
Q 3597 2675 3597 1894 
z
M 3022 2063 
Q 3016 2534 2758 2815 
Q 2500 3097 2075 3097 
Q 1594 3097 1305 2825 
Q 1016 2553 972 2059 
L 3022 2063 
z
" transform="scale(0.015625)"/>
       <path id="DejaVuSans-75" d="M 544 1381 
L 544 3500 
L 1119 3500 
L 1119 1403 
Q 1119 906 1312 657 
Q 1506 409 1894 409 
Q 2359 409 2629 706 
Q 2900 1003 2900 1516 
L 2900 3500 
L 3475 3500 
L 3475 0 
L 2900 0 
L 2900 538 
Q 2691 219 2414 64 
Q 2138 -91 1772 -91 
Q 1169 -91 856 284 
Q 544 659 544 1381 
z
M 1991 3584 
L 1991 3584 
z
" transform="scale(0.015625)"/>
       <path id="DejaVuSans-72" d="M 2631 2963 
Q 2534 3019 2420 3045 
Q 2306 3072 2169 3072 
Q 1681 3072 1420 2755 
Q 1159 2438 1159 1844 
L 1159 0 
L 581 0 
L 581 3500 
L 1159 3500 
L 1159 2956 
Q 1341 3275 1631 3429 
Q 1922 3584 2338 3584 
Q 2397 3584 2469 3576 
Q 2541 3569 2628 3553 
L 2631 2963 
z
" transform="scale(0.015625)"/>
       <path id="DejaVuSans-61" d="M 2194 1759 
Q 1497 1759 1228 1600 
Q 959 1441 959 1056 
Q 959 750 1161 570 
Q 1363 391 1709 391 
Q 2188 391 2477 730 
Q 2766 1069 2766 1631 
L 2766 1759 
L 2194 1759 
z
M 3341 1997 
L 3341 0 
L 2766 0 
L 2766 531 
Q 2569 213 2275 61 
Q 1981 -91 1556 -91 
Q 1019 -91 701 211 
Q 384 513 384 1019 
Q 384 1609 779 1909 
Q 1175 2209 1959 2209 
L 2766 2209 
L 2766 2266 
Q 2766 2663 2505 2880 
Q 2244 3097 1772 3097 
Q 1472 3097 1187 3025 
Q 903 2953 641 2809 
L 641 3341 
Q 956 3463 1253 3523 
Q 1550 3584 1831 3584 
Q 2591 3584 2966 3190 
Q 3341 2797 3341 1997 
z
" transform="scale(0.015625)"/>
       <path id="DejaVuSans-6c" d="M 603 4863 
L 1178 4863 
L 1178 0 
L 603 0 
L 603 4863 
z
" transform="scale(0.015625)"/>
       <path id="DejaVuSans-20" transform="scale(0.015625)"/>
       <path id="DejaVuSans-64" d="M 2906 2969 
L 2906 4863 
L 3481 4863 
L 3481 0 
L 2906 0 
L 2906 525 
Q 2725 213 2448 61 
Q 2172 -91 1784 -91 
Q 1150 -91 751 415 
Q 353 922 353 1747 
Q 353 2572 751 3078 
Q 1150 3584 1784 3584 
Q 2172 3584 2448 3432 
Q 2725 3281 2906 2969 
z
M 947 1747 
Q 947 1113 1208 752 
Q 1469 391 1925 391 
Q 2381 391 2643 752 
Q 2906 1113 2906 1747 
Q 2906 2381 2643 2742 
Q 2381 3103 1925 3103 
Q 1469 3103 1208 2742 
Q 947 2381 947 1747 
z
" transform="scale(0.015625)"/>
       <path id="DejaVuSans-69" d="M 603 3500 
L 1178 3500 
L 1178 0 
L 603 0 
L 603 3500 
z
M 603 4863 
L 1178 4863 
L 1178 4134 
L 603 4134 
L 603 4863 
z
" transform="scale(0.015625)"/>
       <path id="DejaVuSans-73" d="M 2834 3397 
L 2834 2853 
Q 2591 2978 2328 3040 
Q 2066 3103 1784 3103 
Q 1356 3103 1142 2972 
Q 928 2841 928 2578 
Q 928 2378 1081 2264 
Q 1234 2150 1697 2047 
L 1894 2003 
Q 2506 1872 2764 1633 
Q 3022 1394 3022 966 
Q 3022 478 2636 193 
Q 2250 -91 1575 -91 
Q 1294 -91 989 -36 
Q 684 19 347 128 
L 347 722 
Q 666 556 975 473 
Q 1284 391 1588 391 
Q 1994 391 2212 530 
Q 2431 669 2431 922 
Q 2431 1156 2273 1281 
Q 2116 1406 1581 1522 
L 1381 1569 
Q 847 1681 609 1914 
Q 372 2147 372 2553 
Q 372 3047 722 3315 
Q 1072 3584 1716 3584 
Q 2034 3584 2315 3537 
Q 2597 3491 2834 3397 
z
" transform="scale(0.015625)"/>
       <path id="DejaVuSans-6d" d="M 3328 2828 
Q 3544 3216 3844 3400 
Q 4144 3584 4550 3584 
Q 5097 3584 5394 3201 
Q 5691 2819 5691 2113 
L 5691 0 
L 5113 0 
L 5113 2094 
Q 5113 2597 4934 2840 
Q 4756 3084 4391 3084 
Q 3944 3084 3684 2787 
Q 3425 2491 3425 1978 
L 3425 0 
L 2847 0 
L 2847 2094 
Q 2847 2600 2669 2842 
Q 2491 3084 2119 3084 
Q 1678 3084 1418 2786 
Q 1159 2488 1159 1978 
L 1159 0 
L 581 0 
L 581 3500 
L 1159 3500 
L 1159 2956 
Q 1356 3278 1631 3431 
Q 1906 3584 2284 3584 
Q 2666 3584 2933 3390 
Q 3200 3197 3328 2828 
z
" transform="scale(0.015625)"/>
       <path id="DejaVuSans-74" d="M 1172 4494 
L 1172 3500 
L 2356 3500 
L 2356 3053 
L 1172 3053 
L 1172 1153 
Q 1172 725 1289 603 
Q 1406 481 1766 481 
L 2356 481 
L 2356 0 
L 1766 0 
Q 1100 0 847 248 
Q 594 497 594 1153 
L 594 3053 
L 172 3053 
L 172 3500 
L 594 3500 
L 594 4494 
L 1172 4494 
z
" transform="scale(0.015625)"/>
       <path id="DejaVuSans-79" d="M 2059 -325 
Q 1816 -950 1584 -1140 
Q 1353 -1331 966 -1331 
L 506 -1331 
L 506 -850 
L 844 -850 
Q 1081 -850 1212 -737 
Q 1344 -625 1503 -206 
L 1606 56 
L 191 3500 
L 800 3500 
L 1894 763 
L 2988 3500 
L 3597 3500 
L 2059 -325 
z
" transform="scale(0.015625)"/>
       <path id="DejaVuSans-28" d="M 1984 4856 
Q 1566 4138 1362 3434 
Q 1159 2731 1159 2009 
Q 1159 1288 1364 580 
Q 1569 -128 1984 -844 
L 1484 -844 
Q 1016 -109 783 600 
Q 550 1309 550 2009 
Q 550 2706 781 3412 
Q 1013 4119 1484 4856 
L 1984 4856 
z
" transform="scale(0.015625)"/>
       <path id="DejaVuSans-29" d="M 513 4856 
L 1013 4856 
Q 1481 4119 1714 3412 
Q 1947 2706 1947 2009 
Q 1947 1309 1714 600 
Q 1481 -109 1013 -844 
L 513 -844 
Q 928 -128 1133 580 
Q 1338 1288 1338 2009 
Q 1338 2731 1133 3434 
Q 928 4138 513 4856 
z
" transform="scale(0.015625)"/>
      </defs>
      <use xlink:href="#DejaVuSans-6e"/>
      <use xlink:href="#DejaVuSans-65" transform="translate(63.378906 0)"/>
      <use xlink:href="#DejaVuSans-75" transform="translate(124.902344 0)"/>
      <use xlink:href="#DejaVuSans-72" transform="translate(188.28125 0)"/>
      <use xlink:href="#DejaVuSans-61" transform="translate(229.394531 0)"/>
      <use xlink:href="#DejaVuSans-6c" transform="translate(290.673828 0)"/>
      <use xlink:href="#DejaVuSans-20" transform="translate(318.457031 0)"/>
      <use xlink:href="#DejaVuSans-64" transform="translate(350.244141 0)"/>
      <use xlink:href="#DejaVuSans-69" transform="translate(413.720703 0)"/>
      <use xlink:href="#DejaVuSans-73" transform="translate(441.503906 0)"/>
      <use xlink:href="#DejaVuSans-73" transform="translate(493.603516 0)"/>
      <use xlink:href="#DejaVuSans-69" transform="translate(545.703125 0)"/>
      <use xlink:href="#DejaVuSans-6d" transform="translate(573.486328 0)"/>
      <use xlink:href="#DejaVuSans-69" transform="translate(670.898438 0)"/>
      <use xlink:href="#DejaVuSans-6c" transform="translate(698.681641 0)"/>
      <use xlink:href="#DejaVuSans-61" transform="translate(726.464844 0)"/>
      <use xlink:href="#DejaVuSans-72" transform="translate(787.744141 0)"/>
      <use xlink:href="#DejaVuSans-69" transform="translate(828.857422 0)"/>
      <use xlink:href="#DejaVuSans-74" transform="translate(856.640625 0)"/>
      <use xlink:href="#DejaVuSans-79" transform="translate(895.849609 0)"/>
      <use xlink:href="#DejaVuSans-20" transform="translate(955.029297 0)"/>
      <use xlink:href="#DejaVuSans-28" transform="translate(986.816406 0)"/>
      <use xlink:href="#DejaVuSans-61" transform="translate(1025.830078 0)"/>
      <use xlink:href="#DejaVuSans-2e" transform="translate(1087.109375 0)"/>
      <use xlink:href="#DejaVuSans-75" transform="translate(1118.896484 0)"/>
      <use xlink:href="#DejaVuSans-2e" transform="translate(1182.275391 0)"/>
      <use xlink:href="#DejaVuSans-29" transform="translate(1214.0625 0)"/>
     </g>
    </g>
   </g>
   <g id="line2d_7">
    <path d="M 58.846818 100.496537 
L 59.821933 100.758074 
L 60.797048 101.01961 
L 61.772163 101.281147 
L 62.747277 101.542683 
L 63.722392 101.80422 
L 64.697507 102.065756 
L 65.672622 102.327293 
L 66.647736 102.588829 
L 67.622851 102.850366 
L 68.597966 103.111902 
L 69.573081 103.373439 
L 70.548196 103.634975 
L 71.52331 103.896512 
L 72.498425 104.158048 
L 73.47354 104.419585 
L 74.448655 104.681121 
L 75.42377 104.942658 
L 76.398884 105.204194 
L 77.373999 105.465731 
L 78.349114 105.727267 
L 79.324229 105.988804 
L 80.299343 106.25034 
L 81.274458 106.511877 
L 82.249573 106.773413 
L 83.224688 107.03495 
L 84.199803 107.296486 
L 85.174917 107.558023 
L 86.150032 107.819559 
L 87.125147 108.081096 
L 88.100262 108.342632 
L 89.075376 108.604169 
L 90.050491 108.865705 
L 91.025606 109.127242 
L 92.000721 109.388778 
L 92.975836 109.650315 
L 93.95095 109.911851 
L 94.926065 110.173388 
L 95.90118 110.434924 
L 96.876295 110.696461 
L 97.85141 110.957997 
L 98.826524 111.219534 
L 99.801639 111.48107 
L 100.776754 111.742607 
L 101.751869 112.004143 
L 102.726983 112.26568 
L 103.702098 112.527216 
L 104.677213 112.788753 
L 105.652328 113.050289 
L 106.627443 113.311826 
L 107.602557 113.573362 
L 108.577672 113.834899 
L 109.552787 114.096435 
L 110.527902 114.357972 
L 111.503017 114.619508 
L 112.478131 114.881045 
L 113.453246 115.142581 
L 114.428361 115.404118 
L 115.403476 115.665654 
L 116.37859 115.927191 
L 117.353705 116.188727 
L 118.32882 116.450264 
L 119.303935 116.7118 
L 120.27905 116.973337 
L 121.254164 117.234873 
L 122.229279 117.49641 
L 123.204394 117.757946 
L 124.179509 118.019483 
L 125.154624 118.281019 
L 126.129738 118.542556 
L 127.104853 118.804092 
L 128.079968 119.065629 
L 129.055083 119.327165 
L 130.030197 119.588702 
L 131.005312 119.850238 
L 131.980427 120.111775 
L 132.955542 120.373311 
L 133.930657 120.634848 
L 134.905771 120.896384 
L 135.880886 121.157921 
L 136.856001 121.419457 
L 137.831116 121.680994 
L 138.80623 121.94253 
L 139.781345 122.204067 
L 140.75646 122.465603 
L 141.731575 122.72714 
L 142.70669 122.988676 
L 143.681804 123.250213 
L 144.656919 123.511749 
L 145.632034 123.773286 
L 146.607149 124.034822 
L 147.582264 124.296359 
L 148.557378 124.557895 
L 149.532493 124.819432 
L 150.507608 125.080968 
L 151.482723 125.342505 
L 152.457837 125.604041 
L 153.432952 125.865578 
L 154.408067 126.127114 
L 155.383182 126.388651 
" clip-path="url(#pcbae52dfcb)" style="fill: none; stroke-dasharray: 5.55,2.4; stroke-dashoffset: 0; stroke: #000000; stroke-width: 1.5"/>
   </g>
   <g id="line2d_8">
    <path d="M 72.587365 167.24 
L 72.587365 26.88 
" clip-path="url(#pcbae52dfcb)" style="fill: none; stroke-dasharray: 0.8,1.32; stroke-dashoffset: 0; stroke: #000000; stroke-width: 0.8"/>
   </g>
   <g id="line2d_9">
    <path d="M 54.02 151.34883 
L 160.21 151.34883 
" clip-path="url(#pcbae52dfcb)" style="fill: none; stroke-dasharray: 0.8,1.32; stroke-dashoffset: 0; stroke: #000000; stroke-width: 0.8"/>
   </g>
   <g id="patch_3">
    <path d="M 54.02 151.34883 
L 54.02 57.204115 
" style="fill: none; stroke: #000000; stroke-width: 0.8; stroke-linejoin: miter; stroke-linecap: square"/>
   </g>
   <g id="patch_4">
    <path d="M 72.587365 167.24 
L 123.587102 167.24 
" style="fill: none; stroke: #000000; stroke-width: 0.8; stroke-linejoin: miter; stroke-linecap: square"/>
   </g>
   <g id="text_8">
    <!-- M1 -->
    <g transform="translate(98.120625 20.88) scale(0.12 -0.12)">
     <defs>
      <path id="DejaVuSans-4d" d="M 628 4666 
L 1569 4666 
L 2759 1491 
L 3956 4666 
L 4897 4666 
L 4897 0 
L 4281 0 
L 4281 4097 
L 3078 897 
L 2444 897 
L 1241 4097 
L 1241 0 
L 628 0 
L 628 4666 
z
" transform="scale(0.015625)"/>
      <path id="DejaVuSans-31" d="M 794 531 
L 1825 531 
L 1825 4091 
L 703 3866 
L 703 4441 
L 1819 4666 
L 2450 4666 
L 2450 531 
L 3481 531 
L 3481 0 
L 794 0 
L 794 531 
z
" transform="scale(0.015625)"/>
     </defs>
     <use xlink:href="#DejaVuSans-4d"/>
     <use xlink:href="#DejaVuSans-31" transform="translate(86.279297 0)"/>
    </g>
   </g>
  </g>
  <g id="axes_2">
   <g id="patch_5">
    <path d="M 171.01 167.24 
L 277.2 167.24 
L 277.2 26.88 
L 171.01 26.88 
z
" style="fill: #ffffff"/>
   </g>
   <g id="FillBetweenPolyCollection_2">
    <defs>
     <path id="m056bebe672" d="M 175.836818 -159.724006 
L 175.836818 -100.284208 
L 176.811933 -100.523783 
L 177.787048 -100.759518 
L 178.762163 -100.991237 
L 179.737277 -101.218756 
L 180.712392 -101.441884 
L 181.687507 -101.660418 
L 182.662622 -101.874143 
L 183.637736 -102.082838 
L 184.612851 -102.286268 
L 185.587966 -102.484185 
L 186.563081 -102.676333 
L 187.538196 -102.862442 
L 188.51331 -103.042229 
L 189.488425 -103.215398 
L 190.46354 -103.381642 
L 191.438655 -103.540638 
L 192.41377 -103.692054 
L 193.388884 -103.83554 
L 194.363999 -103.970737 
L 195.339114 -104.097271 
L 196.314229 -104.214758 
L 197.289343 -104.322802 
L 198.264458 -104.420996 
L 199.239573 -104.508923 
L 200.214688 -104.586161 
L 201.189803 -104.652279 
L 202.164917 -104.706842 
L 203.140032 -104.749414 
L 204.115147 -104.779558 
L 205.090262 -104.796842 
L 206.065376 -104.800838 
L 207.040491 -104.791128 
L 208.015606 -104.767308 
L 208.990721 -104.728989 
L 209.965836 -104.675804 
L 210.94095 -104.607409 
L 211.916065 -104.523489 
L 212.89118 -104.423758 
L 213.866295 -104.307968 
L 214.84141 -104.175907 
L 215.816524 -104.027405 
L 216.791639 -103.862335 
L 217.766754 -103.680615 
L 218.741869 -103.482207 
L 219.716983 -103.267122 
L 220.692098 -103.035416 
L 221.667213 -102.78719 
L 222.642328 -102.522592 
L 223.617443 -102.241808 
L 224.592557 -101.945067 
L 225.567672 -101.632632 
L 226.542787 -101.304804 
L 227.517902 -100.961908 
L 228.493017 -100.604301 
L 229.468131 -100.232359 
L 230.443246 -99.846477 
L 231.418361 -99.447067 
L 232.393476 -99.03455 
L 233.36859 -98.609357 
L 234.343705 -98.171922 
L 235.31882 -97.722683 
L 236.293935 -97.262075 
L 237.26905 -96.790531 
L 238.244164 -96.308479 
L 239.219279 -95.81634 
L 240.194394 -95.314525 
L 241.169509 -94.803437 
L 242.144624 -94.283468 
L 243.119738 -93.754998 
L 244.094853 -93.218393 
L 245.069968 -92.674009 
L 246.045083 -92.122189 
L 247.020197 -91.56326 
L 247.995312 -90.997538 
L 248.970427 -90.425327 
L 249.945542 -89.846916 
L 250.920657 -89.262582 
L 251.895771 -88.672591 
L 252.870886 -88.077194 
L 253.846001 -87.476633 
L 254.821116 -86.871138 
L 255.79623 -86.260928 
L 256.771345 -85.64621 
L 257.74646 -85.027185 
L 258.721575 -84.404039 
L 259.69669 -83.776954 
L 260.671804 -83.1461 
L 261.646919 -82.511639 
L 262.622034 -81.873725 
L 263.597149 -81.232507 
L 264.572264 -80.588123 
L 265.547378 -79.940706 
L 266.522493 -79.290382 
L 267.497608 -78.637272 
L 268.472723 -77.981491 
L 269.447837 -77.323146 
L 270.422952 -76.662341 
L 271.398067 -75.999175 
L 272.373182 -75.333742 
L 272.373182 -146.095142 
L 272.373182 -146.095142 
L 271.398067 -145.819399 
L 270.422952 -145.545924 
L 269.447837 -145.274809 
L 268.472723 -145.006154 
L 267.497608 -144.740063 
L 266.522493 -144.476643 
L 265.547378 -144.21601 
L 264.572264 -143.958283 
L 263.597149 -143.703589 
L 262.622034 -143.452061 
L 261.646919 -143.203838 
L 260.671804 -142.959067 
L 259.69669 -142.717903 
L 258.721575 -142.480508 
L 257.74646 -142.247053 
L 256.771345 -142.017717 
L 255.79623 -141.79269 
L 254.821116 -141.57217 
L 253.846001 -141.356365 
L 252.870886 -141.145495 
L 251.895771 -140.939788 
L 250.920657 -140.739486 
L 249.945542 -140.544843 
L 248.970427 -140.356122 
L 247.995312 -140.173601 
L 247.020197 -139.99757 
L 246.045083 -139.828331 
L 245.069968 -139.6662 
L 244.094853 -139.511507 
L 243.119738 -139.364592 
L 242.144624 -139.225812 
L 241.169509 -139.095533 
L 240.194394 -138.974136 
L 239.219279 -138.862011 
L 238.244164 -138.759562 
L 237.26905 -138.667201 
L 236.293935 -138.585347 
L 235.31882 -138.514429 
L 234.343705 -138.45488 
L 233.36859 -138.407135 
L 232.393476 -138.371632 
L 231.418361 -138.348806 
L 230.443246 -138.339086 
L 229.468131 -138.342894 
L 228.493017 -138.360642 
L 227.517902 -138.392725 
L 226.542787 -138.43952 
L 225.567672 -138.501381 
L 224.592557 -138.578637 
L 223.617443 -138.671586 
L 222.642328 -138.780492 
L 221.667213 -138.905584 
L 220.692098 -139.047049 
L 219.716983 -139.205033 
L 218.741869 -139.379638 
L 217.766754 -139.57092 
L 216.791639 -139.77889 
L 215.816524 -140.00351 
L 214.84141 -140.244699 
L 213.866295 -140.502328 
L 212.89118 -140.776228 
L 211.916065 -141.066188 
L 210.94095 -141.371957 
L 209.965836 -141.693252 
L 208.990721 -142.029758 
L 208.015606 -142.381129 
L 207.040491 -142.746999 
L 206.065376 -143.12698 
L 205.090262 -143.520666 
L 204.115147 -143.927639 
L 203.140032 -144.347474 
L 202.164917 -144.779736 
L 201.189803 -145.223989 
L 200.214688 -145.679797 
L 199.239573 -146.146725 
L 198.264458 -146.624343 
L 197.289343 -147.112227 
L 196.314229 -147.609961 
L 195.339114 -148.117138 
L 194.363999 -148.633363 
L 193.388884 -149.15825 
L 192.41377 -149.691426 
L 191.438655 -150.232532 
L 190.46354 -150.781219 
L 189.488425 -151.337152 
L 188.51331 -151.900012 
L 187.538196 -152.469489 
L 186.563081 -153.045288 
L 185.587966 -153.627126 
L 184.612851 -154.214734 
L 183.637736 -154.807854 
L 182.662622 -155.406239 
L 181.687507 -156.009655 
L 180.712392 -156.617878 
L 179.737277 -157.230696 
L 178.762163 -157.847906 
L 177.787048 -158.469315 
L 176.811933 -159.09474 
L 175.836818 -159.724006 
z
"/>
    </defs>
    <g clip-path="url(#p1287132d53)">
     <use xlink:href="#m056bebe672" x="0" y="216" style="fill-opacity: 0.2"/>
    </g>
   </g>
   <g id="PathCollection_2">
    <g clip-path="url(#p1287132d53)">
     <use xlink:href="#mf89ff48de2" x="175.836818" y="134.42737" style="stroke: #000000"/>
     <use xlink:href="#mf89ff48de2" x="198.568289" y="78.199599" style="stroke: #000000"/>
     <use xlink:href="#mf89ff48de2" x="240.123718" y="55.315696" style="stroke: #000000"/>
     <use xlink:href="#mf89ff48de2" x="271.803664" y="134.428968" style="stroke: #000000"/>
     <use xlink:href="#mf89ff48de2" x="191.060853" y="107.478341" style="stroke: #000000"/>
     <use xlink:href="#mf89ff48de2" x="237.416608" y="64.634899" style="stroke: #000000"/>
     <use xlink:href="#mf89ff48de2" x="231.396662" y="117.788493" style="stroke: #000000"/>
     <use xlink:href="#mf89ff48de2" x="214.208111" y="86.166227" style="stroke: #000000"/>
     <use xlink:href="#mf89ff48de2" x="198.753869" y="39.391514" style="stroke: #000000"/>
     <use xlink:href="#mf89ff48de2" x="272.373182" y="103.1919" style="stroke: #000000"/>
     <use xlink:href="#mf89ff48de2" x="182.20009" y="99.019413" style="stroke: #000000"/>
     <use xlink:href="#mf89ff48de2" x="208.892974" y="109.960797" style="stroke: #000000"/>
     <use xlink:href="#mf89ff48de2" x="177.828101" y="64.956145" style="stroke: #000000"/>
     <use xlink:href="#mf89ff48de2" x="252.183456" y="127.061545" style="stroke: #000000"/>
    </g>
   </g>
   <g id="matplotlib.axis_3">
    <g id="xtick_3">
     <g id="line2d_10">
      <g>
       <use xlink:href="#m1547908117" x="189.577365" y="167.24" style="stroke: #000000; stroke-width: 0.8"/>
      </g>
     </g>
     <g id="text_9">
      <!-- 0.0000 -->
      <g transform="translate(172.082052 181.838437) scale(0.1 -0.1)">
       <use xlink:href="#DejaVuSans-30"/>
       <use xlink:href="#DejaVuSans-2e" transform="translate(63.623047 0)"/>
       <use xlink:href="#DejaVuSans-30" transform="translate(95.410156 0)"/>
       <use xlink:href="#DejaVuSans-30" transform="translate(159.033203 0)"/>
       <use xlink:href="#DejaVuSans-30" transform="translate(222.65625 0)"/>
       <use xlink:href="#DejaVuSans-30" transform="translate(286.279297 0)"/>
      </g>
     </g>
    </g>
    <g id="xtick_4">
     <g id="line2d_11">
      <g>
       <use xlink:href="#m1547908117" x="240.577102" y="167.24" style="stroke: #000000; stroke-width: 0.8"/>
      </g>
     </g>
     <g id="text_10">
      <!-- 0.0002 -->
      <g transform="translate(223.08179 181.838437) scale(0.1 -0.1)">
       <use xlink:href="#DejaVuSans-30"/>
       <use xlink:href="#DejaVuSans-2e" transform="translate(63.623047 0)"/>
       <use xlink:href="#DejaVuSans-30" transform="translate(95.410156 0)"/>
       <use xlink:href="#DejaVuSans-30" transform="translate(159.033203 0)"/>
       <use xlink:href="#DejaVuSans-30" transform="translate(222.65625 0)"/>
       <use xlink:href="#DejaVuSans-32" transform="translate(286.279297 0)"/>
      </g>
     </g>
    </g>
   </g>
   <g id="matplotlib.axis_4">
    <g id="ytick_5"/>
    <g id="ytick_6"/>
    <g id="ytick_7"/>
    <g id="ytick_8"/>
   </g>
   <g id="line2d_12">
    <path d="M 175.836818 85.995893 
L 176.811933 86.190738 
L 177.787048 86.385584 
L 178.762163 86.580429 
L 179.737277 86.775274 
L 180.712392 86.970119 
L 181.687507 87.164964 
L 182.662622 87.359809 
L 183.637736 87.554654 
L 184.612851 87.749499 
L 185.587966 87.944344 
L 186.563081 88.139189 
L 187.538196 88.334034 
L 188.51331 88.52888 
L 189.488425 88.723725 
L 190.46354 88.91857 
L 191.438655 89.113415 
L 192.41377 89.30826 
L 193.388884 89.503105 
L 194.363999 89.69795 
L 195.339114 89.892795 
L 196.314229 90.08764 
L 197.289343 90.282485 
L 198.264458 90.477331 
L 199.239573 90.672176 
L 200.214688 90.867021 
L 201.189803 91.061866 
L 202.164917 91.256711 
L 203.140032 91.451556 
L 204.115147 91.646401 
L 205.090262 91.841246 
L 206.065376 92.036091 
L 207.040491 92.230936 
L 208.015606 92.425781 
L 208.990721 92.620627 
L 209.965836 92.815472 
L 210.94095 93.010317 
L 211.916065 93.205162 
L 212.89118 93.400007 
L 213.866295 93.594852 
L 214.84141 93.789697 
L 215.816524 93.984542 
L 216.791639 94.179387 
L 217.766754 94.374232 
L 218.741869 94.569078 
L 219.716983 94.763923 
L 220.692098 94.958768 
L 221.667213 95.153613 
L 222.642328 95.348458 
L 223.617443 95.543303 
L 224.592557 95.738148 
L 225.567672 95.932993 
L 226.542787 96.127838 
L 227.517902 96.322683 
L 228.493017 96.517528 
L 229.468131 96.712374 
L 230.443246 96.907219 
L 231.418361 97.102064 
L 232.393476 97.296909 
L 233.36859 97.491754 
L 234.343705 97.686599 
L 235.31882 97.881444 
L 236.293935 98.076289 
L 237.26905 98.271134 
L 238.244164 98.465979 
L 239.219279 98.660825 
L 240.194394 98.85567 
L 241.169509 99.050515 
L 242.144624 99.24536 
L 243.119738 99.440205 
L 244.094853 99.63505 
L 245.069968 99.829895 
L 246.045083 100.02474 
L 247.020197 100.219585 
L 247.995312 100.41443 
L 248.970427 100.609275 
L 249.945542 100.804121 
L 250.920657 100.998966 
L 251.895771 101.193811 
L 252.870886 101.388656 
L 253.846001 101.583501 
L 254.821116 101.778346 
L 255.79623 101.973191 
L 256.771345 102.168036 
L 257.74646 102.362881 
L 258.721575 102.557726 
L 259.69669 102.752571 
L 260.671804 102.947417 
L 261.646919 103.142262 
L 262.622034 103.337107 
L 263.597149 103.531952 
L 264.572264 103.726797 
L 265.547378 103.921642 
L 266.522493 104.116487 
L 267.497608 104.311332 
L 268.472723 104.506177 
L 269.447837 104.701022 
L 270.422952 104.895868 
L 271.398067 105.090713 
L 272.373182 105.285558 
" clip-path="url(#p1287132d53)" style="fill: none; stroke-dasharray: 5.55,2.4; stroke-dashoffset: 0; stroke: #000000; stroke-width: 1.5"/>
   </g>
   <g id="line2d_13">
    <path d="M 189.577365 167.24 
L 189.577365 26.88 
" clip-path="url(#p1287132d53)" style="fill: none; stroke-dasharray: 0.8,1.32; stroke-dashoffset: 0; stroke: #000000; stroke-width: 0.8"/>
   </g>
   <g id="line2d_14">
    <path d="M 171.01 151.34883 
L 277.2 151.34883 
" clip-path="url(#p1287132d53)" style="fill: none; stroke-dasharray: 0.8,1.32; stroke-dashoffset: 0; stroke: #000000; stroke-width: 0.8"/>
   </g>
   <g id="patch_6">
    <path d="M 189.577365 167.24 
L 240.577102 167.24 
" style="fill: none; stroke: #000000; stroke-width: 0.8; stroke-linejoin: miter; stroke-linecap: square"/>
   </g>
   <g id="text_11">
    <!-- S1 -->
    <g transform="translate(216.478437 20.88) scale(0.12 -0.12)">
     <defs>
      <path id="DejaVuSans-53" d="M 3425 4513 
L 3425 3897 
Q 3066 4069 2747 4153 
Q 2428 4238 2131 4238 
Q 1616 4238 1336 4038 
Q 1056 3838 1056 3469 
Q 1056 3159 1242 3001 
Q 1428 2844 1947 2747 
L 2328 2669 
Q 3034 2534 3370 2195 
Q 3706 1856 3706 1288 
Q 3706 609 3251 259 
Q 2797 -91 1919 -91 
Q 1588 -91 1214 -16 
Q 841 59 441 206 
L 441 856 
Q 825 641 1194 531 
Q 1563 422 1919 422 
Q 2459 422 2753 634 
Q 3047 847 3047 1241 
Q 3047 1584 2836 1778 
Q 2625 1972 2144 2069 
L 1759 2144 
Q 1053 2284 737 2584 
Q 422 2884 422 3419 
Q 422 4038 858 4394 
Q 1294 4750 2059 4750 
Q 2388 4750 2728 4690 
Q 3069 4631 3425 4513 
z
" transform="scale(0.015625)"/>
     </defs>
     <use xlink:href="#DejaVuSans-53"/>
     <use xlink:href="#DejaVuSans-31" transform="translate(63.476562 0)"/>
    </g>
   </g>
  </g>
  <g id="text_12">
   <!-- force dissimilarity (a.u.) -->
   <g transform="translate(84.682812 211.760312) scale(0.1 -0.1)">
    <defs>
     <path id="DejaVuSans-66" d="M 2375 4863 
L 2375 4384 
L 1825 4384 
Q 1516 4384 1395 4259 
Q 1275 4134 1275 3809 
L 1275 3500 
L 2222 3500 
L 2222 3053 
L 1275 3053 
L 1275 0 
L 697 0 
L 697 3053 
L 147 3053 
L 147 3500 
L 697 3500 
L 697 3744 
Q 697 4328 969 4595 
Q 1241 4863 1831 4863 
L 2375 4863 
z
" transform="scale(0.015625)"/>
     <path id="DejaVuSans-6f" d="M 1959 3097 
Q 1497 3097 1228 2736 
Q 959 2375 959 1747 
Q 959 1119 1226 758 
Q 1494 397 1959 397 
Q 2419 397 2687 759 
Q 2956 1122 2956 1747 
Q 2956 2369 2687 2733 
Q 2419 3097 1959 3097 
z
M 1959 3584 
Q 2709 3584 3137 3096 
Q 3566 2609 3566 1747 
Q 3566 888 3137 398 
Q 2709 -91 1959 -91 
Q 1206 -91 779 398 
Q 353 888 353 1747 
Q 353 2609 779 3096 
Q 1206 3584 1959 3584 
z
" transform="scale(0.015625)"/>
     <path id="DejaVuSans-63" d="M 3122 3366 
L 3122 2828 
Q 2878 2963 2633 3030 
Q 2388 3097 2138 3097 
Q 1578 3097 1268 2742 
Q 959 2388 959 1747 
Q 959 1106 1268 751 
Q 1578 397 2138 397 
Q 2388 397 2633 464 
Q 2878 531 3122 666 
L 3122 134 
Q 2881 22 2623 -34 
Q 2366 -91 2075 -91 
Q 1284 -91 818 406 
Q 353 903 353 1747 
Q 353 2603 823 3093 
Q 1294 3584 2113 3584 
Q 2378 3584 2631 3529 
Q 2884 3475 3122 3366 
z
" transform="scale(0.015625)"/>
    </defs>
    <use xlink:href="#DejaVuSans-66"/>
    <use xlink:href="#DejaVuSans-6f" transform="translate(35.205078 0)"/>
    <use xlink:href="#DejaVuSans-72" transform="translate(96.386719 0)"/>
    <use xlink:href="#DejaVuSans-63" transform="translate(135.25 0)"/>
    <use xlink:href="#DejaVuSans-65" transform="translate(190.230469 0)"/>
    <use xlink:href="#DejaVuSans-20" transform="translate(251.753906 0)"/>
    <use xlink:href="#DejaVuSans-64" transform="translate(283.541016 0)"/>
    <use xlink:href="#DejaVuSans-69" transform="translate(347.017578 0)"/>
    <use xlink:href="#DejaVuSans-73" transform="translate(374.800781 0)"/>
    <use xlink:href="#DejaVuSans-73" transform="translate(426.900391 0)"/>
    <use xlink:href="#DejaVuSans-69" transform="translate(479 0)"/>
    <use xlink:href="#DejaVuSans-6d" transform="translate(506.783203 0)"/>
    <use xlink:href="#DejaVuSans-69" transform="translate(604.195312 0)"/>
    <use xlink:href="#DejaVuSans-6c" transform="translate(631.978516 0)"/>
    <use xlink:href="#DejaVuSans-61" transform="translate(659.761719 0)"/>
    <use xlink:href="#DejaVuSans-72" transform="translate(721.041016 0)"/>
    <use xlink:href="#DejaVuSans-69" transform="translate(762.154297 0)"/>
    <use xlink:href="#DejaVuSans-74" transform="translate(789.9375 0)"/>
    <use xlink:href="#DejaVuSans-79" transform="translate(829.146484 0)"/>
    <use xlink:href="#DejaVuSans-20" transform="translate(888.326172 0)"/>
    <use xlink:href="#DejaVuSans-28" transform="translate(920.113281 0)"/>
    <use xlink:href="#DejaVuSans-61" transform="translate(959.126953 0)"/>
    <use xlink:href="#DejaVuSans-2e" transform="translate(1020.40625 0)"/>
    <use xlink:href="#DejaVuSans-75" transform="translate(1052.193359 0)"/>
    <use xlink:href="#DejaVuSans-2e" transform="translate(1115.572266 0)"/>
    <use xlink:href="#DejaVuSans-29" transform="translate(1147.359375 0)"/>
   </g>
  </g>
 </g>
 <defs>
  <clipPath id="pcbae52dfcb">
   <rect x="54.02" y="26.88" width="106.19" height="140.36"/>
  </clipPath>
  <clipPath id="p1287132d53">
   <rect x="171.01" y="26.88" width="106.19" height="140.36"/>
  </clipPath>
 </defs>
</svg>
