<?xml version="1.0" encoding="utf-8" standalone="no"?>
<!DOCTYPE svg PUBLIC "-//W3C//DTD SVG 1.1//EN"
  "http://www.w3.org/Graphics/SVG/1.1/DTD/svg11.dtd">
<svg xmlns:xlink="http://www.w3.org/1999/xlink" width="288pt" height="216pt" viewBox="0 0 288 216" xmlns="http://www.w3.org/2000/svg" version="1.1">
 <metadata>
  <rdf:RDF xmlns:dc="http://purl.org/dc/elements/1.1/" xmlns:cc="http://creativecommons.org/ns#" xmlns:rdf="http://www.w3.org/1999/02/22-rdf-syntax-ns#">
   <cc:Work>
    <dc:type rdf:resource="http://purl.org/dc/dcmitype/StillImage"/>
    <dc:date>2025-08-13T08:26:47.329967</dc:date>
    <dc:format>image/svg+xml</dc:format>
    <dc:creator>
     <cc:Agent>
      <dc:title>Matplotlib v3.10.1, https://matplotlib.org/</dc:title>
     </cc:Agent>
    </dc:creator>
   </cc:Work>
  </rdf:RDF>
 </metadata>
 <defs>
  <style type="text/css">*{stroke-linejoin: round; stroke-linecap: butt}</style>
 </defs>
 <g id="figure_1">
  <g id="patch_1">
   <path d="M 0 216 
L 288 216 
L 288 0 
L 0 0 
z
" style="fill: #ffffff"/>
  </g>
  <g id="axes_1">
   <g id="patch_2">
    <path d="M 80.264 167.24 
L 173.332 167.24 
L 173.332 26.88 
L 80.264 26.88 
z
" style="fill: #ffffff"/>
   </g>
   <g id="FillBetweenPolyCollection_1">
    <defs>
     <path id="md0d3a82127" d="M 84.494364 -143.833218 
L 84.494364 -85.708018 
L 85.348983 -85.946706 
L 86.203601 -86.180821 
L 87.05822 -86.410142 
L 87.912839 -86.634437 
L 88.767458 -86.853459 
L 89.622077 -87.066953 
L 90.476696 -87.274644 
L 91.331315 -87.47625 
L 92.185934 -87.671468 
L 93.040553 -87.859985 
L 93.895172 -88.041471 
L 94.749791 -88.215578 
L 95.60441 -88.381947 
L 96.459028 -88.540198 
L 97.313647 -88.689938 
L 98.168266 -88.830757 
L 99.022885 -88.96223 
L 99.877504 -89.083916 
L 100.732123 -89.195359 
L 101.586742 -89.296092 
L 102.441361 -89.385635 
L 103.29598 -89.463496 
L 104.150599 -89.529176 
L 105.005218 -89.58217 
L 105.859837 -89.62197 
L 106.714455 -89.648066 
L 107.569074 -89.659955 
L 108.423693 -89.657136 
L 109.278312 -89.639125 
L 110.132931 -89.605449 
L 110.98755 -89.55566 
L 111.842169 -89.489332 
L 112.696788 -89.406072 
L 113.551407 -89.305521 
L 114.406026 -89.187359 
L 115.260645 -89.051313 
L 116.115264 -88.897156 
L 116.969882 -88.724712 
L 117.824501 -88.533861 
L 118.67912 -88.324536 
L 119.533739 -88.096729 
L 120.388358 -87.850488 
L 121.242977 -87.585918 
L 122.097596 -87.303177 
L 122.952215 -87.002476 
L 123.806834 -86.684077 
L 124.661453 -86.348284 
L 125.516072 -85.995444 
L 126.370691 -85.625942 
L 127.225309 -85.240193 
L 128.079928 -84.838639 
L 128.934547 -84.421746 
L 129.789166 -83.989996 
L 130.643785 -83.543884 
L 131.498404 -83.083912 
L 132.353023 -82.610591 
L 133.207642 -82.124428 
L 134.062261 -81.625929 
L 134.91688 -81.115597 
L 135.771499 -80.593924 
L 136.626118 -80.061395 
L 137.480736 -79.518482 
L 138.335355 -78.965643 
L 139.189974 -78.403325 
L 140.044593 -77.831956 
L 140.899212 -77.251952 
L 141.753831 -76.663713 
L 142.60845 -76.067619 
L 143.463069 -75.464039 
L 144.317688 -74.853322 
L 145.172307 -74.235805 
L 146.026926 -73.611806 
L 146.881545 -72.98163 
L 147.736163 -72.345566 
L 148.590782 -71.703891 
L 149.445401 -71.056867 
L 150.30002 -70.404742 
L 151.154639 -69.747753 
L 152.009258 -69.086124 
L 152.863877 -68.420069 
L 153.718496 -67.749789 
L 154.573115 -67.075476 
L 155.427734 -66.397312 
L 156.282353 -65.715469 
L 157.136972 -65.03011 
L 157.99159 -64.341391 
L 158.846209 -63.649459 
L 159.700828 -62.954453 
L 160.555447 -62.256506 
L 161.410066 -61.555743 
L 162.264685 -60.852284 
L 163.119304 -60.146241 
L 163.973923 -59.437723 
L 164.828542 -58.726831 
L 165.683161 -58.013662 
L 166.53778 -57.298309 
L 167.392399 -56.58086 
L 168.247017 -55.861397 
L 169.101636 -55.14 
L 169.101636 -132.393538 
L 169.101636 -132.393538 
L 168.247017 -132.096461 
L 167.392399 -131.801318 
L 166.53778 -131.508189 
L 165.683161 -131.217156 
L 164.828542 -130.928308 
L 163.973923 -130.641736 
L 163.119304 -130.357538 
L 162.264685 -130.075815 
L 161.410066 -129.796676 
L 160.555447 -129.520233 
L 159.700828 -129.246606 
L 158.846209 -128.975921 
L 157.99159 -128.708309 
L 157.136972 -128.44391 
L 156.282353 -128.182872 
L 155.427734 -127.925349 
L 154.573115 -127.671505 
L 153.718496 -127.421512 
L 152.863877 -127.175552 
L 152.009258 -126.933817 
L 151.154639 -126.696509 
L 150.30002 -126.46384 
L 149.445401 -126.236035 
L 148.590782 -126.013331 
L 147.736163 -125.795976 
L 146.881545 -125.584233 
L 146.026926 -125.378377 
L 145.172307 -125.178698 
L 144.317688 -124.985501 
L 143.463069 -124.799104 
L 142.60845 -124.619844 
L 141.753831 -124.448071 
L 140.899212 -124.284151 
L 140.044593 -124.128468 
L 139.189974 -123.981419 
L 138.335355 -123.843421 
L 137.480736 -123.714903 
L 136.626118 -123.596309 
L 135.771499 -123.4881 
L 134.91688 -123.390748 
L 134.062261 -123.304736 
L 133.207642 -123.230558 
L 132.353023 -123.168715 
L 131.498404 -123.119713 
L 130.643785 -123.084062 
L 129.789166 -123.06227 
L 128.934547 -123.05484 
L 128.079928 -123.062267 
L 127.225309 -123.085034 
L 126.370691 -123.123605 
L 125.516072 -123.178423 
L 124.661453 -123.249904 
L 123.806834 -123.338431 
L 122.952215 -123.444351 
L 122.097596 -123.567971 
L 121.242977 -123.70955 
L 120.388358 -123.8693 
L 119.533739 -124.04738 
L 118.67912 -124.243893 
L 117.824501 -124.458888 
L 116.969882 -124.692357 
L 116.115264 -124.944233 
L 115.260645 -125.214396 
L 114.406026 -125.50267 
L 113.551407 -125.808829 
L 112.696788 -126.132598 
L 111.842169 -126.473658 
L 110.98755 -126.83165 
L 110.132931 -127.206181 
L 109.278312 -127.596826 
L 108.423693 -128.003134 
L 107.569074 -128.424636 
L 106.714455 -128.860845 
L 105.859837 -129.311262 
L 105.005218 -129.775382 
L 104.150599 -130.252696 
L 103.29598 -130.742696 
L 102.441361 -131.244877 
L 101.586742 -131.75874 
L 100.732123 -132.283793 
L 99.877504 -132.819557 
L 99.022885 -133.365563 
L 98.168266 -133.921355 
L 97.313647 -134.486495 
L 96.459028 -135.060555 
L 95.60441 -135.643127 
L 94.749791 -136.233815 
L 93.895172 -136.832243 
L 93.040553 -137.438049 
L 92.185934 -138.050886 
L 91.331315 -138.670425 
L 90.476696 -139.29635 
L 89.622077 -139.928362 
L 88.767458 -140.566176 
L 87.912839 -141.209519 
L 87.05822 -141.858133 
L 86.203601 -142.511775 
L 85.348983 -143.17021 
L 84.494364 -143.833218 
z
"/>
    </defs>
    <g clip-path="url(#p042e94f4ec)">
     <use xlink:href="#md0d3a82127" x="0" y="216" style="fill-opacity: 0.2"/>
    </g>
   </g>
   <g id="PathCollection_1">
    <defs>
     <path id="m6cc1cf2409" d="M 0 3 
C 0.795609 3 1.55874 2.683901 2.12132 2.12132 
C 2.683901 1.55874 3 0.795609 3 0 
C 3 -0.795609 2.683901 -1.55874 2.12132 -2.12132 
C 1.55874 -2.683901 0.795609 -3 0 -3 
C -0.795609 -3 -1.55874 -2.683901 -2.12132 -2.12132 
C -2.683901 -1.55874 -3 -0.795609 -3 0 
C -3 0.795609 -2.683901 1.55874 -2.12132 2.12132 
C -1.55874 2.683901 -0.795609 3 0 3 
z
" style="stroke: #000000"/>
    </defs>
    <g clip-path="url(#p042e94f4ec)">
     <use xlink:href="#m6cc1cf2409" x="89.138808" y="140.062136" style="stroke: #000000"/>
     <use xlink:href="#m6cc1cf2409" x="121.025996" y="116.319164" style="stroke: #000000"/>
     <use xlink:href="#m6cc1cf2409" x="169.101636" y="97.206164" style="stroke: #000000"/>
     <use xlink:href="#m6cc1cf2409" x="154.305096" y="136.118028" style="stroke: #000000"/>
     <use xlink:href="#m6cc1cf2409" x="105.887085" y="140.062136" style="stroke: #000000"/>
     <use xlink:href="#m6cc1cf2409" x="163.438695" y="135.951259" style="stroke: #000000"/>
     <use xlink:href="#m6cc1cf2409" x="110.054757" y="140.062136" style="stroke: #000000"/>
     <use xlink:href="#m6cc1cf2409" x="99.452272" y="100.148085" style="stroke: #000000"/>
     <use xlink:href="#m6cc1cf2409" x="95.23214" y="61.257859" style="stroke: #000000"/>
     <use xlink:href="#m6cc1cf2409" x="103.178481" y="114.26998" style="stroke: #000000"/>
     <use xlink:href="#m6cc1cf2409" x="103.82457" y="124.664962" style="stroke: #000000"/>
     <use xlink:href="#m6cc1cf2409" x="118.28426" y="103.938549" style="stroke: #000000"/>
     <use xlink:href="#m6cc1cf2409" x="84.494364" y="46.736587" style="stroke: #000000"/>
     <use xlink:href="#m6cc1cf2409" x="139.942043" y="78.194338" style="stroke: #000000"/>
    </g>
   </g>
   <g id="matplotlib.axis_1">
    <g id="xtick_1">
     <g id="line2d_1">
      <defs>
       <path id="m9b663cedc5" d="M 0 0 
L 0 3.5 
" style="stroke: #000000; stroke-width: 0.8"/>
      </defs>
      <g>
       <use xlink:href="#m9b663cedc5" x="96.34761" y="167.24" style="stroke: #000000; stroke-width: 0.8"/>
      </g>
     </g>
     <g id="text_1">
      <!-- 0.00 -->
      <g transform="translate(85.214797 181.838437) scale(0.1 -0.1)">
       <defs>
        <path id="DejaVuSans-30" d="M 2034 4250 
Q 1547 4250 1301 3770 
Q 1056 3291 1056 2328 
Q 1056 1369 1301 889 
Q 1547 409 2034 409 
Q 2525 409 2770 889 
Q 3016 1369 3016 2328 
Q 3016 3291 2770 3770 
Q 2525 4250 2034 4250 
z
M 2034 4750 
Q 2819 4750 3233 4129 
Q 3647 3509 3647 2328 
Q 3647 1150 3233 529 
Q 2819 -91 2034 -91 
Q 1250 -91 836 529 
Q 422 1150 422 2328 
Q 422 3509 836 4129 
Q 1250 4750 2034 4750 
z
" transform="scale(0.015625)"/>
        <path id="DejaVuSans-2e" d="M 684 794 
L 1344 794 
L 1344 0 
L 684 0 
L 684 794 
z
" transform="scale(0.015625)"/>
       </defs>
       <use xlink:href="#DejaVuSans-30"/>
       <use xlink:href="#DejaVuSans-2e" transform="translate(63.623047 0)"/>
       <use xlink:href="#DejaVuSans-30" transform="translate(95.410156 0)"/>
       <use xlink:href="#DejaVuSans-30" transform="translate(159.033203 0)"/>
      </g>
     </g>
    </g>
    <g id="xtick_2">
     <g id="line2d_2">
      <g>
       <use xlink:href="#m9b663cedc5" x="137.763564" y="167.24" style="stroke: #000000; stroke-width: 0.8"/>
      </g>
     </g>
     <g id="text_2">
      <!-- 0.05 -->
      <g transform="translate(126.630752 181.838437) scale(0.1 -0.1)">
       <defs>
        <path id="DejaVuSans-35" d="M 691 4666 
L 3169 4666 
L 3169 4134 
L 1269 4134 
L 1269 2991 
Q 1406 3038 1543 3061 
Q 1681 3084 1819 3084 
Q 2600 3084 3056 2656 
Q 3513 2228 3513 1497 
Q 3513 744 3044 326 
Q 2575 -91 1722 -91 
Q 1428 -91 1123 -41 
Q 819 9 494 109 
L 494 744 
Q 775 591 1075 516 
Q 1375 441 1709 441 
Q 2250 441 2565 725 
Q 2881 1009 2881 1497 
Q 2881 1984 2565 2268 
Q 2250 2553 1709 2553 
Q 1456 2553 1204 2497 
Q 953 2441 691 2322 
L 691 4666 
z
" transform="scale(0.015625)"/>
       </defs>
       <use xlink:href="#DejaVuSans-30"/>
       <use xlink:href="#DejaVuSans-2e" transform="translate(63.623047 0)"/>
       <use xlink:href="#DejaVuSans-30" transform="translate(95.410156 0)"/>
       <use xlink:href="#DejaVuSans-35" transform="translate(159.033203 0)"/>
      </g>
     </g>
    </g>
   </g>
   <g id="matplotlib.axis_2">
    <g id="ytick_1">
     <g id="line2d_3">
      <defs>
       <path id="md8a0b1a4ba" d="M 0 0 
L -3.5 0 
" style="stroke: #000000; stroke-width: 0.8"/>
      </defs>
      <g>
       <use xlink:href="#md8a0b1a4ba" x="80.264" y="140.062136" style="stroke: #000000; stroke-width: 0.8"/>
      </g>
     </g>
     <g id="text_3">
      <!-- 0.00 -->
      <g transform="translate(50.998375 143.861354) scale(0.1 -0.1)">
       <use xlink:href="#DejaVuSans-30"/>
       <use xlink:href="#DejaVuSans-2e" transform="translate(63.623047 0)"/>
       <use xlink:href="#DejaVuSans-30" transform="translate(95.410156 0)"/>
       <use xlink:href="#DejaVuSans-30" transform="translate(159.033203 0)"/>
      </g>
     </g>
    </g>
    <g id="ytick_2">
     <g id="line2d_4">
      <g>
       <use xlink:href="#md8a0b1a4ba" x="80.264" y="102.952828" style="stroke: #000000; stroke-width: 0.8"/>
      </g>
     </g>
     <g id="text_4">
      <!-- 0.05 -->
      <g transform="translate(50.998375 106.752047) scale(0.1 -0.1)">
       <use xlink:href="#DejaVuSans-30"/>
       <use xlink:href="#DejaVuSans-2e" transform="translate(63.623047 0)"/>
       <use xlink:href="#DejaVuSans-30" transform="translate(95.410156 0)"/>
       <use xlink:href="#DejaVuSans-35" transform="translate(159.033203 0)"/>
      </g>
     </g>
    </g>
    <g id="ytick_3">
     <g id="line2d_5">
      <g>
       <use xlink:href="#md8a0b1a4ba" x="80.264" y="65.84352" style="stroke: #000000; stroke-width: 0.8"/>
      </g>
     </g>
     <g id="text_5">
      <!-- 0.10 -->
      <g transform="translate(50.998375 69.642739) scale(0.1 -0.1)">
       <defs>
        <path id="DejaVuSans-31" d="M 794 531 
L 1825 531 
L 1825 4091 
L 703 3866 
L 703 4441 
L 1819 4666 
L 2450 4666 
L 2450 531 
L 3481 531 
L 3481 0 
L 794 0 
L 794 531 
z
" transform="scale(0.015625)"/>
       </defs>
       <use xlink:href="#DejaVuSans-30"/>
       <use xlink:href="#DejaVuSans-2e" transform="translate(63.623047 0)"/>
       <use xlink:href="#DejaVuSans-31" transform="translate(95.410156 0)"/>
       <use xlink:href="#DejaVuSans-30" transform="translate(159.033203 0)"/>
      </g>
     </g>
    </g>
    <g id="ytick_4">
     <g id="line2d_6">
      <g>
       <use xlink:href="#md8a0b1a4ba" x="80.264" y="28.734212" style="stroke: #000000; stroke-width: 0.8"/>
      </g>
     </g>
     <g id="text_6">
      <!-- 0.15 -->
      <g transform="translate(50.998375 32.533431) scale(0.1 -0.1)">
       <use xlink:href="#DejaVuSans-30"/>
       <use xlink:href="#DejaVuSans-2e" transform="translate(63.623047 0)"/>
       <use xlink:href="#DejaVuSans-31" transform="translate(95.410156 0)"/>
       <use xlink:href="#DejaVuSans-35" transform="translate(159.033203 0)"/>
      </g>
     </g>
    </g>
    <g id="text_7">
     <!-- variance explained -->
     <g transform="translate(33.720875 144.56) rotate(-90) scale(0.1 -0.1)">
      <defs>
       <path id="DejaVuSans-76" d="M 191 3500 
L 800 3500 
L 1894 563 
L 2988 3500 
L 3597 3500 
L 2284 0 
L 1503 0 
L 191 3500 
z
" transform="scale(0.015625)"/>
       <path id="DejaVuSans-61" d="M 2194 1759 
Q 1497 1759 1228 1600 
Q 959 1441 959 1056 
Q 959 750 1161 570 
Q 1363 391 1709 391 
Q 2188 391 2477 730 
Q 2766 1069 2766 1631 
L 2766 1759 
L 2194 1759 
z
M 3341 1997 
L 3341 0 
L 2766 0 
L 2766 531 
Q 2569 213 2275 61 
Q 1981 -91 1556 -91 
Q 1019 -91 701 211 
Q 384 513 384 1019 
Q 384 1609 779 1909 
Q 1175 2209 1959 2209 
L 2766 2209 
L 2766 2266 
Q 2766 2663 2505 2880 
Q 2244 3097 1772 3097 
Q 1472 3097 1187 3025 
Q 903 2953 641 2809 
L 641 3341 
Q 956 3463 1253 3523 
Q 1550 3584 1831 3584 
Q 2591 3584 2966 3190 
Q 3341 2797 3341 1997 
z
" transform="scale(0.015625)"/>
       <path id="DejaVuSans-72" d="M 2631 2963 
Q 2534 3019 2420 3045 
Q 2306 3072 2169 3072 
Q 1681 3072 1420 2755 
Q 1159 2438 1159 1844 
L 1159 0 
L 581 0 
L 581 3500 
L 1159 3500 
L 1159 2956 
Q 1341 3275 1631 3429 
Q 1922 3584 2338 3584 
Q 2397 3584 2469 3576 
Q 2541 3569 2628 3553 
L 2631 2963 
z
" transform="scale(0.015625)"/>
       <path id="DejaVuSans-69" d="M 603 3500 
L 1178 3500 
L 1178 0 
L 603 0 
L 603 3500 
z
M 603 4863 
L 1178 4863 
L 1178 4134 
L 603 4134 
L 603 4863 
z
" transform="scale(0.015625)"/>
       <path id="DejaVuSans-6e" d="M 3513 2113 
L 3513 0 
L 2938 0 
L 2938 2094 
Q 2938 2591 2744 2837 
Q 2550 3084 2163 3084 
Q 1697 3084 1428 2787 
Q 1159 2491 1159 1978 
L 1159 0 
L 581 0 
L 581 3500 
L 1159 3500 
L 1159 2956 
Q 1366 3272 1645 3428 
Q 1925 3584 2291 3584 
Q 2894 3584 3203 3211 
Q 3513 2838 3513 2113 
z
" transform="scale(0.015625)"/>
       <path id="DejaVuSans-63" d="M 3122 3366 
L 3122 2828 
Q 2878 2963 2633 3030 
Q 2388 3097 2138 3097 
Q 1578 3097 1268 2742 
Q 959 2388 959 1747 
Q 959 1106 1268 751 
Q 1578 397 2138 397 
Q 2388 397 2633 464 
Q 2878 531 3122 666 
L 3122 134 
Q 2881 22 2623 -34 
Q 2366 -91 2075 -91 
Q 1284 -91 818 406 
Q 353 903 353 1747 
Q 353 2603 823 3093 
Q 1294 3584 2113 3584 
Q 2378 3584 2631 3529 
Q 2884 3475 3122 3366 
z
" transform="scale(0.015625)"/>
       <path id="DejaVuSans-65" d="M 3597 1894 
L 3597 1613 
L 953 1613 
Q 991 1019 1311 708 
Q 1631 397 2203 397 
Q 2534 397 2845 478 
Q 3156 559 3463 722 
L 3463 178 
Q 3153 47 2828 -22 
Q 2503 -91 2169 -91 
Q 1331 -91 842 396 
Q 353 884 353 1716 
Q 353 2575 817 3079 
Q 1281 3584 2069 3584 
Q 2775 3584 3186 3129 
Q 3597 2675 3597 1894 
z
M 3022 2063 
Q 3016 2534 2758 2815 
Q 2500 3097 2075 3097 
Q 1594 3097 1305 2825 
Q 1016 2553 972 2059 
L 3022 2063 
z
" transform="scale(0.015625)"/>
       <path id="DejaVuSans-20" transform="scale(0.015625)"/>
       <path id="DejaVuSans-78" d="M 3513 3500 
L 2247 1797 
L 3578 0 
L 2900 0 
L 1881 1375 
L 863 0 
L 184 0 
L 1544 1831 
L 300 3500 
L 978 3500 
L 1906 2253 
L 2834 3500 
L 3513 3500 
z
" transform="scale(0.015625)"/>
       <path id="DejaVuSans-70" d="M 1159 525 
L 1159 -1331 
L 581 -1331 
L 581 3500 
L 1159 3500 
L 1159 2969 
Q 1341 3281 1617 3432 
Q 1894 3584 2278 3584 
Q 2916 3584 3314 3078 
Q 3713 2572 3713 1747 
Q 3713 922 3314 415 
Q 2916 -91 2278 -91 
Q 1894 -91 1617 61 
Q 1341 213 1159 525 
z
M 3116 1747 
Q 3116 2381 2855 2742 
Q 2594 3103 2138 3103 
Q 1681 3103 1420 2742 
Q 1159 2381 1159 1747 
Q 1159 1113 1420 752 
Q 1681 391 2138 391 
Q 2594 391 2855 752 
Q 3116 1113 3116 1747 
z
" transform="scale(0.015625)"/>
       <path id="DejaVuSans-6c" d="M 603 4863 
L 1178 4863 
L 1178 0 
L 603 0 
L 603 4863 
z
" transform="scale(0.015625)"/>
       <path id="DejaVuSans-64" d="M 2906 2969 
L 2906 4863 
L 3481 4863 
L 3481 0 
L 2906 0 
L 2906 525 
Q 2725 213 2448 61 
Q 2172 -91 1784 -91 
Q 1150 -91 751 415 
Q 353 922 353 1747 
Q 353 2572 751 3078 
Q 1150 3584 1784 3584 
Q 2172 3584 2448 3432 
Q 2725 3281 2906 2969 
z
M 947 1747 
Q 947 1113 1208 752 
Q 1469 391 1925 391 
Q 2381 391 2643 752 
Q 2906 1113 2906 1747 
Q 2906 2381 2643 2742 
Q 2381 3103 1925 3103 
Q 1469 3103 1208 2742 
Q 947 2381 947 1747 
z
" transform="scale(0.015625)"/>
      </defs>
      <use xlink:href="#DejaVuSans-76"/>
      <use xlink:href="#DejaVuSans-61" transform="translate(59.179688 0)"/>
      <use xlink:href="#DejaVuSans-72" transform="translate(120.458984 0)"/>
      <use xlink:href="#DejaVuSans-69" transform="translate(161.572266 0)"/>
      <use xlink:href="#DejaVuSans-61" transform="translate(189.355469 0)"/>
      <use xlink:href="#DejaVuSans-6e" transform="translate(250.634766 0)"/>
      <use xlink:href="#DejaVuSans-63" transform="translate(314.013672 0)"/>
      <use xlink:href="#DejaVuSans-65" transform="translate(368.994141 0)"/>
      <use xlink:href="#DejaVuSans-20" transform="translate(430.517578 0)"/>
      <use xlink:href="#DejaVuSans-65" transform="translate(462.304688 0)"/>
      <use xlink:href="#DejaVuSans-78" transform="translate(522.078125 0)"/>
      <use xlink:href="#DejaVuSans-70" transform="translate(581.257812 0)"/>
      <use xlink:href="#DejaVuSans-6c" transform="translate(644.734375 0)"/>
      <use xlink:href="#DejaVuSans-61" transform="translate(672.517578 0)"/>
      <use xlink:href="#DejaVuSans-69" transform="translate(733.796875 0)"/>
      <use xlink:href="#DejaVuSans-6e" transform="translate(761.580078 0)"/>
      <use xlink:href="#DejaVuSans-65" transform="translate(824.958984 0)"/>
      <use xlink:href="#DejaVuSans-64" transform="translate(886.482422 0)"/>
     </g>
     <!-- by probability cue (a.u.) -->
     <g transform="translate(44.918688 156.943594) rotate(-90) scale(0.1 -0.1)">
      <defs>
       <path id="DejaVuSans-62" d="M 3116 1747 
Q 3116 2381 2855 2742 
Q 2594 3103 2138 3103 
Q 1681 3103 1420 2742 
Q 1159 2381 1159 1747 
Q 1159 1113 1420 752 
Q 1681 391 2138 391 
Q 2594 391 2855 752 
Q 3116 1113 3116 1747 
z
M 1159 2969 
Q 1341 3281 1617 3432 
Q 1894 3584 2278 3584 
Q 2916 3584 3314 3078 
Q 3713 2572 3713 1747 
Q 3713 922 3314 415 
Q 2916 -91 2278 -91 
Q 1894 -91 1617 61 
Q 1341 213 1159 525 
L 1159 0 
L 581 0 
L 581 4863 
L 1159 4863 
L 1159 2969 
z
" transform="scale(0.015625)"/>
       <path id="DejaVuSans-79" d="M 2059 -325 
Q 1816 -950 1584 -1140 
Q 1353 -1331 966 -1331 
L 506 -1331 
L 506 -850 
L 844 -850 
Q 1081 -850 1212 -737 
Q 1344 -625 1503 -206 
L 1606 56 
L 191 3500 
L 800 3500 
L 1894 763 
L 2988 3500 
L 3597 3500 
L 2059 -325 
z
" transform="scale(0.015625)"/>
       <path id="DejaVuSans-6f" d="M 1959 3097 
Q 1497 3097 1228 2736 
Q 959 2375 959 1747 
Q 959 1119 1226 758 
Q 1494 397 1959 397 
Q 2419 397 2687 759 
Q 2956 1122 2956 1747 
Q 2956 2369 2687 2733 
Q 2419 3097 1959 3097 
z
M 1959 3584 
Q 2709 3584 3137 3096 
Q 3566 2609 3566 1747 
Q 3566 888 3137 398 
Q 2709 -91 1959 -91 
Q 1206 -91 779 398 
Q 353 888 353 1747 
Q 353 2609 779 3096 
Q 1206 3584 1959 3584 
z
" transform="scale(0.015625)"/>
       <path id="DejaVuSans-74" d="M 1172 4494 
L 1172 3500 
L 2356 3500 
L 2356 3053 
L 1172 3053 
L 1172 1153 
Q 1172 725 1289 603 
Q 1406 481 1766 481 
L 2356 481 
L 2356 0 
L 1766 0 
Q 1100 0 847 248 
Q 594 497 594 1153 
L 594 3053 
L 172 3053 
L 172 3500 
L 594 3500 
L 594 4494 
L 1172 4494 
z
" transform="scale(0.015625)"/>
       <path id="DejaVuSans-75" d="M 544 1381 
L 544 3500 
L 1119 3500 
L 1119 1403 
Q 1119 906 1312 657 
Q 1506 409 1894 409 
Q 2359 409 2629 706 
Q 2900 1003 2900 1516 
L 2900 3500 
L 3475 3500 
L 3475 0 
L 2900 0 
L 2900 538 
Q 2691 219 2414 64 
Q 2138 -91 1772 -91 
Q 1169 -91 856 284 
Q 544 659 544 1381 
z
M 1991 3584 
L 1991 3584 
z
" transform="scale(0.015625)"/>
       <path id="DejaVuSans-28" d="M 1984 4856 
Q 1566 4138 1362 3434 
Q 1159 2731 1159 2009 
Q 1159 1288 1364 580 
Q 1569 -128 1984 -844 
L 1484 -844 
Q 1016 -109 783 600 
Q 550 1309 550 2009 
Q 550 2706 781 3412 
Q 1013 4119 1484 4856 
L 1984 4856 
z
" transform="scale(0.015625)"/>
       <path id="DejaVuSans-29" d="M 513 4856 
L 1013 4856 
Q 1481 4119 1714 3412 
Q 1947 2706 1947 2009 
Q 1947 1309 1714 600 
Q 1481 -109 1013 -844 
L 513 -844 
Q 928 -128 1133 580 
Q 1338 1288 1338 2009 
Q 1338 2731 1133 3434 
Q 928 4138 513 4856 
z
" transform="scale(0.015625)"/>
      </defs>
      <use xlink:href="#DejaVuSans-62"/>
      <use xlink:href="#DejaVuSans-79" transform="translate(63.476562 0)"/>
      <use xlink:href="#DejaVuSans-20" transform="translate(122.65625 0)"/>
      <use xlink:href="#DejaVuSans-70" transform="translate(154.443359 0)"/>
      <use xlink:href="#DejaVuSans-72" transform="translate(217.919922 0)"/>
      <use xlink:href="#DejaVuSans-6f" transform="translate(256.783203 0)"/>
      <use xlink:href="#DejaVuSans-62" transform="translate(317.964844 0)"/>
      <use xlink:href="#DejaVuSans-61" transform="translate(381.441406 0)"/>
      <use xlink:href="#DejaVuSans-62" transform="translate(442.720703 0)"/>
      <use xlink:href="#DejaVuSans-69" transform="translate(506.197266 0)"/>
      <use xlink:href="#DejaVuSans-6c" transform="translate(533.980469 0)"/>
      <use xlink:href="#DejaVuSans-69" transform="translate(561.763672 0)"/>
      <use xlink:href="#DejaVuSans-74" transform="translate(589.546875 0)"/>
      <use xlink:href="#DejaVuSans-79" transform="translate(628.755859 0)"/>
      <use xlink:href="#DejaVuSans-20" transform="translate(687.935547 0)"/>
      <use xlink:href="#DejaVuSans-63" transform="translate(719.722656 0)"/>
      <use xlink:href="#DejaVuSans-75" transform="translate(774.703125 0)"/>
      <use xlink:href="#DejaVuSans-65" transform="translate(838.082031 0)"/>
      <use xlink:href="#DejaVuSans-20" transform="translate(899.605469 0)"/>
      <use xlink:href="#DejaVuSans-28" transform="translate(931.392578 0)"/>
      <use xlink:href="#DejaVuSans-61" transform="translate(970.40625 0)"/>
      <use xlink:href="#DejaVuSans-2e" transform="translate(1031.685547 0)"/>
      <use xlink:href="#DejaVuSans-75" transform="translate(1063.472656 0)"/>
      <use xlink:href="#DejaVuSans-2e" transform="translate(1126.851562 0)"/>
      <use xlink:href="#DejaVuSans-29" transform="translate(1158.638672 0)"/>
     </g>
    </g>
   </g>
   <g id="line2d_7">
    <path d="M 84.494364 101.229382 
L 85.348983 101.441542 
L 86.203601 101.653702 
L 87.05822 101.865862 
L 87.912839 102.078022 
L 88.767458 102.290182 
L 89.622077 102.502343 
L 90.476696 102.714503 
L 91.331315 102.926663 
L 92.185934 103.138823 
L 93.040553 103.350983 
L 93.895172 103.563143 
L 94.749791 103.775303 
L 95.60441 103.987463 
L 96.459028 104.199623 
L 97.313647 104.411783 
L 98.168266 104.623944 
L 99.022885 104.836104 
L 99.877504 105.048264 
L 100.732123 105.260424 
L 101.586742 105.472584 
L 102.441361 105.684744 
L 103.29598 105.896904 
L 104.150599 106.109064 
L 105.005218 106.321224 
L 105.859837 106.533384 
L 106.714455 106.745544 
L 107.569074 106.957705 
L 108.423693 107.169865 
L 109.278312 107.382025 
L 110.132931 107.594185 
L 110.98755 107.806345 
L 111.842169 108.018505 
L 112.696788 108.230665 
L 113.551407 108.442825 
L 114.406026 108.654985 
L 115.260645 108.867145 
L 116.115264 109.079305 
L 116.969882 109.291466 
L 117.824501 109.503626 
L 118.67912 109.715786 
L 119.533739 109.927946 
L 120.388358 110.140106 
L 121.242977 110.352266 
L 122.097596 110.564426 
L 122.952215 110.776586 
L 123.806834 110.988746 
L 124.661453 111.200906 
L 125.516072 111.413066 
L 126.370691 111.625227 
L 127.225309 111.837387 
L 128.079928 112.049547 
L 128.934547 112.261707 
L 129.789166 112.473867 
L 130.643785 112.686027 
L 131.498404 112.898187 
L 132.353023 113.110347 
L 133.207642 113.322507 
L 134.062261 113.534667 
L 134.91688 113.746827 
L 135.771499 113.958988 
L 136.626118 114.171148 
L 137.480736 114.383308 
L 138.335355 114.595468 
L 139.189974 114.807628 
L 140.044593 115.019788 
L 140.899212 115.231948 
L 141.753831 115.444108 
L 142.60845 115.656268 
L 143.463069 115.868428 
L 144.317688 116.080589 
L 145.172307 116.292749 
L 146.026926 116.504909 
L 146.881545 116.717069 
L 147.736163 116.929229 
L 148.590782 117.141389 
L 149.445401 117.353549 
L 150.30002 117.565709 
L 151.154639 117.777869 
L 152.009258 117.990029 
L 152.863877 118.202189 
L 153.718496 118.41435 
L 154.573115 118.62651 
L 155.427734 118.83867 
L 156.282353 119.05083 
L 157.136972 119.26299 
L 157.99159 119.47515 
L 158.846209 119.68731 
L 159.700828 119.89947 
L 160.555447 120.11163 
L 161.410066 120.32379 
L 162.264685 120.53595 
L 163.119304 120.748111 
L 163.973923 120.960271 
L 164.828542 121.172431 
L 165.683161 121.384591 
L 166.53778 121.596751 
L 167.392399 121.808911 
L 168.247017 122.021071 
L 169.101636 122.233231 
" clip-path="url(#p042e94f4ec)" style="fill: none; stroke-dasharray: 5.55,2.4; stroke-dashoffset: 0; stroke: #000000; stroke-width: 1.5"/>
   </g>
   <g id="line2d_8">
    <path d="M 96.34761 167.24 
L 96.34761 26.88 
" clip-path="url(#p042e94f4ec)" style="fill: none; stroke-dasharray: 0.8,1.32; stroke-dashoffset: 0; stroke: #000000; stroke-width: 0.8"/>
   </g>
   <g id="line2d_9">
    <path d="M 80.264 140.062136 
L 173.332 140.062136 
" clip-path="url(#p042e94f4ec)" style="fill: none; stroke-dasharray: 0.8,1.32; stroke-dashoffset: 0; stroke: #000000; stroke-width: 0.8"/>
   </g>
   <g id="patch_3">
    <path d="M 80.264 140.062136 
L 80.264 28.734212 
" style="fill: none; stroke: #000000; stroke-width: 0.8; stroke-linejoin: miter; stroke-linecap: square"/>
   </g>
   <g id="patch_4">
    <path d="M 96.34761 167.24 
L 137.763564 167.24 
" style="fill: none; stroke: #000000; stroke-width: 0.8; stroke-linejoin: miter; stroke-linecap: square"/>
   </g>
   <g id="text_8">
    <!-- M1 -->
    <g transform="translate(117.803625 20.88) scale(0.12 -0.12)">
     <defs>
      <path id="DejaVuSans-4d" d="M 628 4666 
L 1569 4666 
L 2759 1491 
L 3956 4666 
L 4897 4666 
L 4897 0 
L 4281 0 
L 4281 4097 
L 3078 897 
L 2444 897 
L 1241 4097 
L 1241 0 
L 628 0 
L 628 4666 
z
" transform="scale(0.015625)"/>
     </defs>
     <use xlink:href="#DejaVuSans-4d"/>
     <use xlink:href="#DejaVuSans-31" transform="translate(86.279297 0)"/>
    </g>
   </g>
  </g>
  <g id="axes_2">
   <g id="patch_5">
    <path d="M 184.132 167.24 
L 277.2 167.24 
L 277.2 26.88 
L 184.132 26.88 
z
" style="fill: #ffffff"/>
   </g>
   <g id="FillBetweenPolyCollection_2">
    <defs>
     <path id="mebc6de073f" d="M 188.362364 -152.378834 
L 188.362364 -79.663705 
L 189.216983 -80.368782 
L 190.071601 -81.068138 
L 190.92622 -81.761497 
L 191.780839 -82.448568 
L 192.635458 -83.129043 
L 193.490077 -83.802601 
L 194.344696 -84.468901 
L 195.199315 -85.127587 
L 196.053934 -85.778283 
L 196.908553 -86.420595 
L 197.763172 -87.054111 
L 198.617791 -87.678397 
L 199.47241 -88.293002 
L 200.327028 -88.897451 
L 201.181647 -89.491253 
L 202.036266 -90.073895 
L 202.890885 -90.644845 
L 203.745504 -91.203551 
L 204.600123 -91.749443 
L 205.454742 -92.281937 
L 206.309361 -92.800431 
L 207.16398 -93.304312 
L 208.018599 -93.792954 
L 208.873218 -94.265726 
L 209.727837 -94.721992 
L 210.582455 -95.161115 
L 211.437074 -95.582464 
L 212.291693 -95.985414 
L 213.146312 -96.369357 
L 214.000931 -96.733705 
L 214.85555 -97.077894 
L 215.710169 -97.401394 
L 216.564788 -97.70371 
L 217.419407 -97.984396 
L 218.274026 -98.243051 
L 219.128645 -98.479332 
L 219.983264 -98.692956 
L 220.837882 -98.883703 
L 221.692501 -99.051422 
L 222.54712 -99.196031 
L 223.401739 -99.317518 
L 224.256358 -99.415945 
L 225.110977 -99.491441 
L 225.965596 -99.544205 
L 226.820215 -99.574503 
L 227.674834 -99.582658 
L 228.529453 -99.569054 
L 229.384072 -99.534125 
L 230.238691 -99.47835 
L 231.093309 -99.402251 
L 231.947928 -99.30638 
L 232.802547 -99.191319 
L 233.657166 -99.057672 
L 234.511785 -98.906057 
L 235.366404 -98.737105 
L 236.221023 -98.551452 
L 237.075642 -98.349733 
L 237.930261 -98.132583 
L 238.78488 -97.900629 
L 239.639499 -97.654488 
L 240.494118 -97.394766 
L 241.348736 -97.122053 
L 242.203355 -96.836923 
L 243.057974 -96.539933 
L 243.912593 -96.231622 
L 244.767212 -95.912509 
L 245.621831 -95.583091 
L 246.47645 -95.243849 
L 247.331069 -94.895241 
L 248.185688 -94.537705 
L 249.040307 -94.171662 
L 249.894926 -93.797509 
L 250.749545 -93.41563 
L 251.604163 -93.026385 
L 252.458782 -92.63012 
L 253.313401 -92.227162 
L 254.16802 -91.817825 
L 255.022639 -91.402402 
L 255.877258 -90.981174 
L 256.731877 -90.554409 
L 257.586496 -90.122359 
L 258.441115 -89.685264 
L 259.295734 -89.243351 
L 260.150353 -88.796835 
L 261.004972 -88.345921 
L 261.85959 -87.890804 
L 262.714209 -87.431667 
L 263.568828 -86.968685 
L 264.423447 -86.502023 
L 265.278066 -86.031838 
L 266.132685 -85.558281 
L 266.987304 -85.081491 
L 267.841923 -84.601605 
L 268.696542 -84.118749 
L 269.551161 -83.633045 
L 270.40578 -83.144608 
L 271.260399 -82.653548 
L 272.115017 -82.15997 
L 272.969636 -81.663972 
L 272.969636 -178.308815 
L 272.969636 -178.308815 
L 272.115017 -177.530693 
L 271.260399 -176.754991 
L 270.40578 -175.981808 
L 269.551161 -175.211247 
L 268.696542 -174.443419 
L 267.841923 -173.67844 
L 266.987304 -172.916429 
L 266.132685 -172.157516 
L 265.278066 -171.401835 
L 264.423447 -170.649527 
L 263.568828 -169.900741 
L 262.714209 -169.155635 
L 261.85959 -168.414374 
L 261.004972 -167.677133 
L 260.150353 -166.944096 
L 259.295734 -166.215457 
L 258.441115 -165.491419 
L 257.586496 -164.7722 
L 256.731877 -164.058027 
L 255.877258 -163.349138 
L 255.022639 -162.645787 
L 254.16802 -161.94824 
L 253.313401 -161.256779 
L 252.458782 -160.571698 
L 251.604163 -159.893309 
L 250.749545 -159.22194 
L 249.894926 -158.557937 
L 249.040307 -157.901661 
L 248.185688 -157.253493 
L 247.331069 -156.613834 
L 246.47645 -155.983102 
L 245.621831 -155.361736 
L 244.767212 -154.750195 
L 243.912593 -154.148958 
L 243.057974 -153.558523 
L 242.203355 -152.97941 
L 241.348736 -152.412157 
L 240.494118 -151.857319 
L 239.639499 -151.315473 
L 238.78488 -150.787209 
L 237.930261 -150.273131 
L 237.075642 -149.773857 
L 236.221023 -149.290015 
L 235.366404 -148.822238 
L 234.511785 -148.371162 
L 233.657166 -147.937424 
L 232.802547 -147.521653 
L 231.947928 -147.124468 
L 231.093309 -146.746474 
L 230.238691 -146.38825 
L 229.384072 -146.050352 
L 228.529453 -145.733299 
L 227.674834 -145.437572 
L 226.820215 -145.163603 
L 225.965596 -144.911777 
L 225.110977 -144.682418 
L 224.256358 -144.47579 
L 223.401739 -144.292093 
L 222.54712 -144.131457 
L 221.692501 -143.993942 
L 220.837882 -143.879537 
L 219.983264 -143.788161 
L 219.128645 -143.719661 
L 218.274026 -143.673818 
L 217.419407 -143.650349 
L 216.564788 -143.648911 
L 215.710169 -143.669104 
L 214.85555 -143.71048 
L 214.000931 -143.772545 
L 213.146312 -143.854769 
L 212.291693 -143.956589 
L 211.437074 -144.077415 
L 210.582455 -144.21664 
L 209.727837 -144.373639 
L 208.873218 -144.547782 
L 208.018599 -144.73843 
L 207.16398 -144.944949 
L 206.309361 -145.166705 
L 205.454742 -145.403076 
L 204.600123 -145.653446 
L 203.745504 -145.917215 
L 202.890885 -146.193797 
L 202.036266 -146.482623 
L 201.181647 -146.783141 
L 200.327028 -147.09482 
L 199.47241 -147.417146 
L 198.617791 -147.749626 
L 197.763172 -148.091789 
L 196.908553 -148.443181 
L 196.053934 -148.80337 
L 195.199315 -149.171942 
L 194.344696 -149.548504 
L 193.490077 -149.932681 
L 192.635458 -150.324115 
L 191.780839 -150.722466 
L 190.92622 -151.127413 
L 190.071601 -151.538648 
L 189.216983 -151.95588 
L 188.362364 -152.378834 
z
"/>
    </defs>
    <g clip-path="url(#pa768c405eb)">
     <use xlink:href="#mebc6de073f" x="0" y="216" style="fill-opacity: 0.2"/>
    </g>
   </g>
   <g id="PathCollection_2">
    <g clip-path="url(#pa768c405eb)">
     <use xlink:href="#m6cc1cf2409" x="193.006808" y="138.456277" style="stroke: #000000"/>
     <use xlink:href="#m6cc1cf2409" x="224.893996" y="84.992448" style="stroke: #000000"/>
     <use xlink:href="#m6cc1cf2409" x="272.969636" y="33.26" style="stroke: #000000"/>
     <use xlink:href="#m6cc1cf2409" x="258.173096" y="125.40822" style="stroke: #000000"/>
     <use xlink:href="#m6cc1cf2409" x="209.755085" y="133.267295" style="stroke: #000000"/>
     <use xlink:href="#m6cc1cf2409" x="267.306695" y="135.096168" style="stroke: #000000"/>
     <use xlink:href="#m6cc1cf2409" x="213.922757" y="126.443735" style="stroke: #000000"/>
     <use xlink:href="#m6cc1cf2409" x="203.320272" y="86.447892" style="stroke: #000000"/>
     <use xlink:href="#m6cc1cf2409" x="199.10014" y="47.475553" style="stroke: #000000"/>
     <use xlink:href="#m6cc1cf2409" x="207.046481" y="100.742258" style="stroke: #000000"/>
     <use xlink:href="#m6cc1cf2409" x="207.69257" y="121.323747" style="stroke: #000000"/>
     <use xlink:href="#m6cc1cf2409" x="222.15226" y="86.831114" style="stroke: #000000"/>
     <use xlink:href="#m6cc1cf2409" x="188.362364" y="63.564871" style="stroke: #000000"/>
     <use xlink:href="#m6cc1cf2409" x="243.810043" y="38.082585" style="stroke: #000000"/>
    </g>
   </g>
   <g id="matplotlib.axis_3">
    <g id="xtick_3">
     <g id="line2d_10">
      <g>
       <use xlink:href="#m9b663cedc5" x="200.21561" y="167.24" style="stroke: #000000; stroke-width: 0.8"/>
      </g>
     </g>
     <g id="text_9">
      <!-- 0.00 -->
      <g transform="translate(189.082797 181.838437) scale(0.1 -0.1)">
       <use xlink:href="#DejaVuSans-30"/>
       <use xlink:href="#DejaVuSans-2e" transform="translate(63.623047 0)"/>
       <use xlink:href="#DejaVuSans-30" transform="translate(95.410156 0)"/>
       <use xlink:href="#DejaVuSans-30" transform="translate(159.033203 0)"/>
      </g>
     </g>
    </g>
    <g id="xtick_4">
     <g id="line2d_11">
      <g>
       <use xlink:href="#m9b663cedc5" x="241.631564" y="167.24" style="stroke: #000000; stroke-width: 0.8"/>
      </g>
     </g>
     <g id="text_10">
      <!-- 0.05 -->
      <g transform="translate(230.498752 181.838437) scale(0.1 -0.1)">
       <use xlink:href="#DejaVuSans-30"/>
       <use xlink:href="#DejaVuSans-2e" transform="translate(63.623047 0)"/>
       <use xlink:href="#DejaVuSans-30" transform="translate(95.410156 0)"/>
       <use xlink:href="#DejaVuSans-35" transform="translate(159.033203 0)"/>
      </g>
     </g>
    </g>
   </g>
   <g id="matplotlib.axis_4">
    <g id="ytick_5"/>
    <g id="ytick_6"/>
    <g id="ytick_7"/>
    <g id="ytick_8"/>
   </g>
   <g id="line2d_12">
    <path d="M 188.362364 99.978731 
L 189.216983 99.837669 
L 190.071601 99.696607 
L 190.92622 99.555545 
L 191.780839 99.414483 
L 192.635458 99.273421 
L 193.490077 99.132359 
L 194.344696 98.991298 
L 195.199315 98.850236 
L 196.053934 98.709174 
L 196.908553 98.568112 
L 197.763172 98.42705 
L 198.617791 98.285988 
L 199.47241 98.144926 
L 200.327028 98.003865 
L 201.181647 97.862803 
L 202.036266 97.721741 
L 202.890885 97.580679 
L 203.745504 97.439617 
L 204.600123 97.298555 
L 205.454742 97.157493 
L 206.309361 97.016432 
L 207.16398 96.87537 
L 208.018599 96.734308 
L 208.873218 96.593246 
L 209.727837 96.452184 
L 210.582455 96.311122 
L 211.437074 96.17006 
L 212.291693 96.028999 
L 213.146312 95.887937 
L 214.000931 95.746875 
L 214.85555 95.605813 
L 215.710169 95.464751 
L 216.564788 95.323689 
L 217.419407 95.182627 
L 218.274026 95.041566 
L 219.128645 94.900504 
L 219.983264 94.759442 
L 220.837882 94.61838 
L 221.692501 94.477318 
L 222.54712 94.336256 
L 223.401739 94.195194 
L 224.256358 94.054133 
L 225.110977 93.913071 
L 225.965596 93.772009 
L 226.820215 93.630947 
L 227.674834 93.489885 
L 228.529453 93.348823 
L 229.384072 93.207761 
L 230.238691 93.0667 
L 231.093309 92.925638 
L 231.947928 92.784576 
L 232.802547 92.643514 
L 233.657166 92.502452 
L 234.511785 92.36139 
L 235.366404 92.220328 
L 236.221023 92.079267 
L 237.075642 91.938205 
L 237.930261 91.797143 
L 238.78488 91.656081 
L 239.639499 91.515019 
L 240.494118 91.373957 
L 241.348736 91.232895 
L 242.203355 91.091834 
L 243.057974 90.950772 
L 243.912593 90.80971 
L 244.767212 90.668648 
L 245.621831 90.527586 
L 246.47645 90.386524 
L 247.331069 90.245462 
L 248.185688 90.104401 
L 249.040307 89.963339 
L 249.894926 89.822277 
L 250.749545 89.681215 
L 251.604163 89.540153 
L 252.458782 89.399091 
L 253.313401 89.258029 
L 254.16802 89.116968 
L 255.022639 88.975906 
L 255.877258 88.834844 
L 256.731877 88.693782 
L 257.586496 88.55272 
L 258.441115 88.411658 
L 259.295734 88.270596 
L 260.150353 88.129535 
L 261.004972 87.988473 
L 261.85959 87.847411 
L 262.714209 87.706349 
L 263.568828 87.565287 
L 264.423447 87.424225 
L 265.278066 87.283163 
L 266.132685 87.142102 
L 266.987304 87.00104 
L 267.841923 86.859978 
L 268.696542 86.718916 
L 269.551161 86.577854 
L 270.40578 86.436792 
L 271.260399 86.29573 
L 272.115017 86.154669 
L 272.969636 86.013607 
" clip-path="url(#pa768c405eb)" style="fill: none; stroke-dasharray: 5.55,2.4; stroke-dashoffset: 0; stroke: #000000; stroke-width: 1.5"/>
   </g>
   <g id="line2d_13">
    <path d="M 200.21561 167.24 
L 200.21561 26.88 
" clip-path="url(#pa768c405eb)" style="fill: none; stroke-dasharray: 0.8,1.32; stroke-dashoffset: 0; stroke: #000000; stroke-width: 0.8"/>
   </g>
   <g id="line2d_14">
    <path d="M 184.132 140.062136 
L 277.2 140.062136 
" clip-path="url(#pa768c405eb)" style="fill: none; stroke-dasharray: 0.8,1.32; stroke-dashoffset: 0; stroke: #000000; stroke-width: 0.8"/>
   </g>
   <g id="patch_6">
    <path d="M 200.21561 167.24 
L 241.631564 167.24 
" style="fill: none; stroke: #000000; stroke-width: 0.8; stroke-linejoin: miter; stroke-linecap: square"/>
   </g>
   <g id="text_11">
    <!-- S1 -->
    <g transform="translate(223.039437 20.88) scale(0.12 -0.12)">
     <defs>
      <path id="DejaVuSans-53" d="M 3425 4513 
L 3425 3897 
Q 3066 4069 2747 4153 
Q 2428 4238 2131 4238 
Q 1616 4238 1336 4038 
Q 1056 3838 1056 3469 
Q 1056 3159 1242 3001 
Q 1428 2844 1947 2747 
L 2328 2669 
Q 3034 2534 3370 2195 
Q 3706 1856 3706 1288 
Q 3706 609 3251 259 
Q 2797 -91 1919 -91 
Q 1588 -91 1214 -16 
Q 841 59 441 206 
L 441 856 
Q 825 641 1194 531 
Q 1563 422 1919 422 
Q 2459 422 2753 634 
Q 3047 847 3047 1241 
Q 3047 1584 2836 1778 
Q 2625 1972 2144 2069 
L 1759 2144 
Q 1053 2284 737 2584 
Q 422 2884 422 3419 
Q 422 4038 858 4394 
Q 1294 4750 2059 4750 
Q 2388 4750 2728 4690 
Q 3069 4631 3425 4513 
z
" transform="scale(0.015625)"/>
     </defs>
     <use xlink:href="#DejaVuSans-53"/>
     <use xlink:href="#DejaVuSans-31" transform="translate(63.476562 0)"/>
    </g>
   </g>
  </g>
  <g id="text_12">
   <!-- finger pre-activation (N) -->
   <g transform="translate(83.794531 211.760312) scale(0.1 -0.1)">
    <defs>
     <path id="DejaVuSans-66" d="M 2375 4863 
L 2375 4384 
L 1825 4384 
Q 1516 4384 1395 4259 
Q 1275 4134 1275 3809 
L 1275 3500 
L 2222 3500 
L 2222 3053 
L 1275 3053 
L 1275 0 
L 697 0 
L 697 3053 
L 147 3053 
L 147 3500 
L 697 3500 
L 697 3744 
Q 697 4328 969 4595 
Q 1241 4863 1831 4863 
L 2375 4863 
z
" transform="scale(0.015625)"/>
     <path id="DejaVuSans-67" d="M 2906 1791 
Q 2906 2416 2648 2759 
Q 2391 3103 1925 3103 
Q 1463 3103 1205 2759 
Q 947 2416 947 1791 
Q 947 1169 1205 825 
Q 1463 481 1925 481 
Q 2391 481 2648 825 
Q 2906 1169 2906 1791 
z
M 3481 434 
Q 3481 -459 3084 -895 
Q 2688 -1331 1869 -1331 
Q 1566 -1331 1297 -1286 
Q 1028 -1241 775 -1147 
L 775 -588 
Q 1028 -725 1275 -790 
Q 1522 -856 1778 -856 
Q 2344 -856 2625 -561 
Q 2906 -266 2906 331 
L 2906 616 
Q 2728 306 2450 153 
Q 2172 0 1784 0 
Q 1141 0 747 490 
Q 353 981 353 1791 
Q 353 2603 747 3093 
Q 1141 3584 1784 3584 
Q 2172 3584 2450 3431 
Q 2728 3278 2906 2969 
L 2906 3500 
L 3481 3500 
L 3481 434 
z
" transform="scale(0.015625)"/>
     <path id="DejaVuSans-2d" d="M 313 2009 
L 1997 2009 
L 1997 1497 
L 313 1497 
L 313 2009 
z
" transform="scale(0.015625)"/>
     <path id="DejaVuSans-4e" d="M 628 4666 
L 1478 4666 
L 3547 763 
L 3547 4666 
L 4159 4666 
L 4159 0 
L 3309 0 
L 1241 3903 
L 1241 0 
L 628 0 
L 628 4666 
z
" transform="scale(0.015625)"/>
    </defs>
    <use xlink:href="#DejaVuSans-66"/>
    <use xlink:href="#DejaVuSans-69" transform="translate(35.205078 0)"/>
    <use xlink:href="#DejaVuSans-6e" transform="translate(62.988281 0)"/>
    <use xlink:href="#DejaVuSans-67" transform="translate(126.367188 0)"/>
    <use xlink:href="#DejaVuSans-65" transform="translate(189.84375 0)"/>
    <use xlink:href="#DejaVuSans-72" transform="translate(251.367188 0)"/>
    <use xlink:href="#DejaVuSans-20" transform="translate(292.480469 0)"/>
    <use xlink:href="#DejaVuSans-70" transform="translate(324.267578 0)"/>
    <use xlink:href="#DejaVuSans-72" transform="translate(387.744141 0)"/>
    <use xlink:href="#DejaVuSans-65" transform="translate(426.607422 0)"/>
    <use xlink:href="#DejaVuSans-2d" transform="translate(488.130859 0)"/>
    <use xlink:href="#DejaVuSans-61" transform="translate(524.214844 0)"/>
    <use xlink:href="#DejaVuSans-63" transform="translate(585.494141 0)"/>
    <use xlink:href="#DejaVuSans-74" transform="translate(640.474609 0)"/>
    <use xlink:href="#DejaVuSans-69" transform="translate(679.683594 0)"/>
    <use xlink:href="#DejaVuSans-76" transform="translate(707.466797 0)"/>
    <use xlink:href="#DejaVuSans-61" transform="translate(766.646484 0)"/>
    <use xlink:href="#DejaVuSans-74" transform="translate(827.925781 0)"/>
    <use xlink:href="#DejaVuSans-69" transform="translate(867.134766 0)"/>
    <use xlink:href="#DejaVuSans-6f" transform="translate(894.917969 0)"/>
    <use xlink:href="#DejaVuSans-6e" transform="translate(956.099609 0)"/>
    <use xlink:href="#DejaVuSans-20" transform="translate(1019.478516 0)"/>
    <use xlink:href="#DejaVuSans-28" transform="translate(1051.265625 0)"/>
    <use xlink:href="#DejaVuSans-4e" transform="translate(1090.279297 0)"/>
    <use xlink:href="#DejaVuSans-29" transform="translate(1165.083984 0)"/>
   </g>
  </g>
 </g>
 <defs>
  <clipPath id="p042e94f4ec">
   <rect x="80.264" y="26.88" width="93.068" height="140.36"/>
  </clipPath>
  <clipPath id="pa768c405eb">
   <rect x="184.132" y="26.88" width="93.068" height="140.36"/>
  </clipPath>
 </defs>
</svg>
