<?xml version="1.0" encoding="utf-8" standalone="no"?>
<!DOCTYPE svg PUBLIC "-//W3C//DTD SVG 1.1//EN"
  "http://www.w3.org/Graphics/SVG/1.1/DTD/svg11.dtd">
<svg xmlns:xlink="http://www.w3.org/1999/xlink" width="288pt" height="216pt" viewBox="0 0 288 216" xmlns="http://www.w3.org/2000/svg" version="1.1">
 <metadata>
  <rdf:RDF xmlns:dc="http://purl.org/dc/elements/1.1/" xmlns:cc="http://creativecommons.org/ns#" xmlns:rdf="http://www.w3.org/1999/02/22-rdf-syntax-ns#">
   <cc:Work>
    <dc:type rdf:resource="http://purl.org/dc/dcmitype/StillImage"/>
    <dc:date>2025-09-12T16:14:01.077827</dc:date>
    <dc:format>image/svg+xml</dc:format>
    <dc:creator>
     <cc:Agent>
      <dc:title>Matplotlib v3.10.1, https://matplotlib.org/</dc:title>
     </cc:Agent>
    </dc:creator>
   </cc:Work>
  </rdf:RDF>
 </metadata>
 <defs>
  <style type="text/css">*{stroke-linejoin: round; stroke-linecap: butt}</style>
 </defs>
 <g id="figure_1">
  <g id="patch_1">
   <path d="M 0 216 
L 288 216 
L 288 0 
L 0 0 
z
" style="fill: #ffffff"/>
  </g>
  <g id="axes_1">
   <g id="patch_2">
    <path d="M 54.02 167.24 
L 160.21 167.24 
L 160.21 50.64 
L 54.02 50.64 
z
" style="fill: #ffffff"/>
   </g>
   <g id="FillBetweenPolyCollection_1">
    <defs>
     <path id="m617f528200" d="M 58.846818 -131.187214 
L 58.846818 -72.596042 
L 59.821933 -72.897 
L 60.797048 -73.194961 
L 61.772163 -73.489781 
L 62.747277 -73.781305 
L 63.722392 -74.069373 
L 64.697507 -74.353811 
L 65.672622 -74.634438 
L 66.647736 -74.911061 
L 67.622851 -75.183478 
L 68.597966 -75.451472 
L 69.573081 -75.714816 
L 70.548196 -75.973269 
L 71.52331 -76.226576 
L 72.498425 -76.474467 
L 73.47354 -76.716658 
L 74.448655 -76.952849 
L 75.42377 -77.182723 
L 76.398884 -77.405946 
L 77.373999 -77.622168 
L 78.349114 -77.831018 
L 79.324229 -78.032111 
L 80.299343 -78.22504 
L 81.274458 -78.409382 
L 82.249573 -78.584693 
L 83.224688 -78.750514 
L 84.199803 -78.906368 
L 85.174917 -79.051762 
L 86.150032 -79.186188 
L 87.125147 -79.309124 
L 88.100262 -79.420041 
L 89.075376 -79.518398 
L 90.050491 -79.603652 
L 91.025606 -79.675258 
L 92.000721 -79.732673 
L 92.975836 -79.775366 
L 93.95095 -79.802814 
L 94.926065 -79.814515 
L 95.90118 -79.809994 
L 96.876295 -79.788802 
L 97.85141 -79.750528 
L 98.826524 -79.694805 
L 99.801639 -79.621312 
L 100.776754 -79.529781 
L 101.751869 -79.420002 
L 102.726983 -79.291824 
L 103.702098 -79.145162 
L 104.677213 -78.979993 
L 105.652328 -78.796361 
L 106.627443 -78.594375 
L 107.602557 -78.374205 
L 108.577672 -78.13608 
L 109.552787 -77.880288 
L 110.527902 -77.607165 
L 111.503017 -77.317095 
L 112.478131 -77.010501 
L 113.453246 -76.687841 
L 114.428361 -76.349601 
L 115.403476 -75.996291 
L 116.37859 -75.628435 
L 117.353705 -75.246572 
L 118.32882 -74.851243 
L 119.303935 -74.442995 
L 120.27905 -74.02237 
L 121.254164 -73.589904 
L 122.229279 -73.146126 
L 123.204394 -72.691552 
L 124.179509 -72.226686 
L 125.154624 -71.752015 
L 126.129738 -71.26801 
L 127.104853 -70.775127 
L 128.079968 -70.273801 
L 129.055083 -69.764449 
L 130.030197 -69.247472 
L 131.005312 -68.723251 
L 131.980427 -68.192148 
L 132.955542 -67.654509 
L 133.930657 -67.110661 
L 134.905771 -66.560916 
L 135.880886 -66.005568 
L 136.856001 -65.444897 
L 137.831116 -64.879168 
L 138.80623 -64.308629 
L 139.781345 -63.733519 
L 140.75646 -63.15406 
L 141.731575 -62.570464 
L 142.70669 -61.982931 
L 143.681804 -61.391649 
L 144.656919 -60.796797 
L 145.632034 -60.198543 
L 146.607149 -59.597047 
L 147.582264 -58.992459 
L 148.557378 -58.384921 
L 149.532493 -57.774568 
L 150.507608 -57.161527 
L 151.482723 -56.545919 
L 152.457837 -55.927857 
L 153.432952 -55.307449 
L 154.408067 -54.684798 
L 155.383182 -54.06 
L 155.383182 -119.468624 
L 155.383182 -119.468624 
L 154.408067 -119.149429 
L 153.432952 -118.83238 
L 152.457837 -118.517575 
L 151.482723 -118.205115 
L 150.507608 -117.895109 
L 149.532493 -117.587671 
L 148.557378 -117.28292 
L 147.582264 -116.980985 
L 146.607149 -116.681999 
L 145.632034 -116.386105 
L 144.656919 -116.093453 
L 143.681804 -115.804203 
L 142.70669 -115.518524 
L 141.731575 -115.236593 
L 140.75646 -114.958599 
L 139.781345 -114.684743 
L 138.80623 -114.415235 
L 137.831116 -114.150299 
L 136.856001 -113.890171 
L 135.880886 -113.635103 
L 134.905771 -113.385358 
L 133.930657 -113.141215 
L 132.955542 -112.902969 
L 131.980427 -112.670932 
L 131.005312 -112.445432 
L 130.030197 -112.226813 
L 129.055083 -112.015438 
L 128.079968 -111.811689 
L 127.104853 -111.615965 
L 126.129738 -111.428684 
L 125.154624 -111.250282 
L 124.179509 -111.081214 
L 123.204394 -110.92195 
L 122.229279 -110.772978 
L 121.254164 -110.634802 
L 120.27905 -110.507939 
L 119.303935 -110.392916 
L 118.32882 -110.29027 
L 117.353705 -110.200544 
L 116.37859 -110.124282 
L 115.403476 -110.062029 
L 114.428361 -110.014321 
L 113.453246 -109.981684 
L 112.478131 -109.964626 
L 111.503017 -109.963635 
L 110.527902 -109.979167 
L 109.552787 -110.011646 
L 108.577672 -110.061456 
L 107.602557 -110.128934 
L 106.627443 -110.214366 
L 105.652328 -110.317982 
L 104.677213 -110.439953 
L 103.702098 -110.580386 
L 102.726983 -110.739326 
L 101.751869 -110.916751 
L 100.776754 -111.112574 
L 99.801639 -111.326645 
L 98.826524 -111.558754 
L 97.85141 -111.808634 
L 96.876295 -112.075963 
L 95.90118 -112.360373 
L 94.926065 -112.661454 
L 93.95095 -112.978758 
L 92.975836 -113.311808 
L 92.000721 -113.660103 
L 91.025606 -114.023121 
L 90.050491 -114.400329 
L 89.075376 -114.791185 
L 88.100262 -115.195144 
L 87.125147 -115.611663 
L 86.150032 -116.040202 
L 85.174917 -116.48023 
L 84.199803 -116.931226 
L 83.224688 -117.392683 
L 82.249573 -117.864107 
L 81.274458 -118.34502 
L 80.299343 -118.834964 
L 79.324229 -119.333495 
L 78.349114 -119.84019 
L 77.373999 -120.354644 
L 76.398884 -120.876467 
L 75.42377 -121.405293 
L 74.448655 -121.940769 
L 73.47354 -122.482563 
L 72.498425 -123.030356 
L 71.52331 -123.583849 
L 70.548196 -124.142758 
L 69.573081 -124.706814 
L 68.597966 -125.27576 
L 67.622851 -125.849357 
L 66.647736 -126.427376 
L 65.672622 -127.009602 
L 64.697507 -127.595831 
L 63.722392 -128.185871 
L 62.747277 -128.779541 
L 61.772163 -129.376668 
L 60.797048 -129.97709 
L 59.821933 -130.580653 
L 58.846818 -131.187214 
z
"/>
    </defs>
    <g clip-path="url(#p9f4a9e9bcc)">
     <use xlink:href="#m617f528200" x="0" y="216" style="fill-opacity: 0.2"/>
    </g>
   </g>
   <g id="PathCollection_1">
    <defs>
     <path id="m8b5d124311" d="M 0 3 
C 0.795609 3 1.55874 2.683901 2.12132 2.12132 
C 2.683901 1.55874 3 0.795609 3 0 
C 3 -0.795609 2.683901 -1.55874 2.12132 -2.12132 
C 1.55874 -2.683901 0.795609 -3 0 -3 
C -0.795609 -3 -1.55874 -2.683901 -2.12132 -2.12132 
C -2.683901 -1.55874 -3 -0.795609 -3 0 
C -3 0.795609 -2.683901 1.55874 -2.12132 2.12132 
C -1.55874 2.683901 -0.795609 3 0 3 
z
" style="stroke: #000000"/>
    </defs>
    <g clip-path="url(#p9f4a9e9bcc)">
     <use xlink:href="#m8b5d124311" x="90.446187" y="152.694208" style="stroke: #000000"/>
     <use xlink:href="#m8b5d124311" x="104.771671" y="128.441735" style="stroke: #000000"/>
     <use xlink:href="#m8b5d124311" x="155.383182" y="107.446828" style="stroke: #000000"/>
     <use xlink:href="#m8b5d124311" x="137.914225" y="94.81187" style="stroke: #000000"/>
     <use xlink:href="#m8b5d124311" x="76.838963" y="149.073781" style="stroke: #000000"/>
     <use xlink:href="#m8b5d124311" x="138.090457" y="131.754101" style="stroke: #000000"/>
     <use xlink:href="#m8b5d124311" x="143.945874" y="143.037737" style="stroke: #000000"/>
     <use xlink:href="#m8b5d124311" x="84.565617" y="118.381761" style="stroke: #000000"/>
     <use xlink:href="#m8b5d124311" x="88.123292" y="91.882961" style="stroke: #000000"/>
     <use xlink:href="#m8b5d124311" x="86.239817" y="130.877042" style="stroke: #000000"/>
     <use xlink:href="#m8b5d124311" x="77.714613" y="127.041905" style="stroke: #000000"/>
     <use xlink:href="#m8b5d124311" x="94.416687" y="121.277761" style="stroke: #000000"/>
     <use xlink:href="#m8b5d124311" x="58.846818" y="55.94" style="stroke: #000000"/>
     <use xlink:href="#m8b5d124311" x="112.233977" y="142.899376" style="stroke: #000000"/>
    </g>
   </g>
   <g id="matplotlib.axis_1">
    <g id="xtick_1">
     <g id="line2d_1">
      <defs>
       <path id="m1c7506c6ff" d="M 0 0 
L 0 3.5 
" style="stroke: #000000; stroke-width: 0.8"/>
      </defs>
      <g>
       <use xlink:href="#m1c7506c6ff" x="72.449694" y="167.24" style="stroke: #000000; stroke-width: 0.8"/>
      </g>
     </g>
     <g id="text_1">
      <!-- 0.0 -->
      <g transform="translate(64.498132 181.838437) scale(0.1 -0.1)">
       <defs>
        <path id="DejaVuSans-30" d="M 2034 4250 
Q 1547 4250 1301 3770 
Q 1056 3291 1056 2328 
Q 1056 1369 1301 889 
Q 1547 409 2034 409 
Q 2525 409 2770 889 
Q 3016 1369 3016 2328 
Q 3016 3291 2770 3770 
Q 2525 4250 2034 4250 
z
M 2034 4750 
Q 2819 4750 3233 4129 
Q 3647 3509 3647 2328 
Q 3647 1150 3233 529 
Q 2819 -91 2034 -91 
Q 1250 -91 836 529 
Q 422 1150 422 2328 
Q 422 3509 836 4129 
Q 1250 4750 2034 4750 
z
" transform="scale(0.015625)"/>
        <path id="DejaVuSans-2e" d="M 684 794 
L 1344 794 
L 1344 0 
L 684 0 
L 684 794 
z
" transform="scale(0.015625)"/>
       </defs>
       <use xlink:href="#DejaVuSans-30"/>
       <use xlink:href="#DejaVuSans-2e" transform="translate(63.623047 0)"/>
       <use xlink:href="#DejaVuSans-30" transform="translate(95.410156 0)"/>
      </g>
     </g>
    </g>
    <g id="xtick_2">
     <g id="line2d_2">
      <g>
       <use xlink:href="#m1c7506c6ff" x="138.536543" y="167.24" style="stroke: #000000; stroke-width: 0.8"/>
      </g>
     </g>
     <g id="text_2">
      <!-- 0.1 -->
      <g transform="translate(130.58498 181.838437) scale(0.1 -0.1)">
       <defs>
        <path id="DejaVuSans-31" d="M 794 531 
L 1825 531 
L 1825 4091 
L 703 3866 
L 703 4441 
L 1819 4666 
L 2450 4666 
L 2450 531 
L 3481 531 
L 3481 0 
L 794 0 
L 794 531 
z
" transform="scale(0.015625)"/>
       </defs>
       <use xlink:href="#DejaVuSans-30"/>
       <use xlink:href="#DejaVuSans-2e" transform="translate(63.623047 0)"/>
       <use xlink:href="#DejaVuSans-31" transform="translate(95.410156 0)"/>
      </g>
     </g>
    </g>
   </g>
   <g id="matplotlib.axis_2">
    <g id="ytick_1">
     <g id="line2d_3">
      <defs>
       <path id="mfb62320cbe" d="M 0 0 
L -3.5 0 
" style="stroke: #000000; stroke-width: 0.8"/>
      </defs>
      <g>
       <use xlink:href="#mfb62320cbe" x="54.02" y="156.709384" style="stroke: #000000; stroke-width: 0.8"/>
      </g>
     </g>
     <g id="text_3">
      <!-- 0.00 -->
      <g transform="translate(24.754375 160.508602) scale(0.1 -0.1)">
       <use xlink:href="#DejaVuSans-30"/>
       <use xlink:href="#DejaVuSans-2e" transform="translate(63.623047 0)"/>
       <use xlink:href="#DejaVuSans-30" transform="translate(95.410156 0)"/>
       <use xlink:href="#DejaVuSans-30" transform="translate(159.033203 0)"/>
      </g>
     </g>
    </g>
    <g id="ytick_2">
     <g id="line2d_4">
      <g>
       <use xlink:href="#mfb62320cbe" x="54.02" y="129.244504" style="stroke: #000000; stroke-width: 0.8"/>
      </g>
     </g>
     <g id="text_4">
      <!-- 0.02 -->
      <g transform="translate(24.754375 133.043723) scale(0.1 -0.1)">
       <defs>
        <path id="DejaVuSans-32" d="M 1228 531 
L 3431 531 
L 3431 0 
L 469 0 
L 469 531 
Q 828 903 1448 1529 
Q 2069 2156 2228 2338 
Q 2531 2678 2651 2914 
Q 2772 3150 2772 3378 
Q 2772 3750 2511 3984 
Q 2250 4219 1831 4219 
Q 1534 4219 1204 4116 
Q 875 4013 500 3803 
L 500 4441 
Q 881 4594 1212 4672 
Q 1544 4750 1819 4750 
Q 2544 4750 2975 4387 
Q 3406 4025 3406 3419 
Q 3406 3131 3298 2873 
Q 3191 2616 2906 2266 
Q 2828 2175 2409 1742 
Q 1991 1309 1228 531 
z
" transform="scale(0.015625)"/>
       </defs>
       <use xlink:href="#DejaVuSans-30"/>
       <use xlink:href="#DejaVuSans-2e" transform="translate(63.623047 0)"/>
       <use xlink:href="#DejaVuSans-30" transform="translate(95.410156 0)"/>
       <use xlink:href="#DejaVuSans-32" transform="translate(159.033203 0)"/>
      </g>
     </g>
    </g>
    <g id="ytick_3">
     <g id="line2d_5">
      <g>
       <use xlink:href="#mfb62320cbe" x="54.02" y="101.779624" style="stroke: #000000; stroke-width: 0.8"/>
      </g>
     </g>
     <g id="text_5">
      <!-- 0.04 -->
      <g transform="translate(24.754375 105.578843) scale(0.1 -0.1)">
       <defs>
        <path id="DejaVuSans-34" d="M 2419 4116 
L 825 1625 
L 2419 1625 
L 2419 4116 
z
M 2253 4666 
L 3047 4666 
L 3047 1625 
L 3713 1625 
L 3713 1100 
L 3047 1100 
L 3047 0 
L 2419 0 
L 2419 1100 
L 313 1100 
L 313 1709 
L 2253 4666 
z
" transform="scale(0.015625)"/>
       </defs>
       <use xlink:href="#DejaVuSans-30"/>
       <use xlink:href="#DejaVuSans-2e" transform="translate(63.623047 0)"/>
       <use xlink:href="#DejaVuSans-30" transform="translate(95.410156 0)"/>
       <use xlink:href="#DejaVuSans-34" transform="translate(159.033203 0)"/>
      </g>
     </g>
    </g>
    <g id="ytick_4">
     <g id="line2d_6">
      <g>
       <use xlink:href="#mfb62320cbe" x="54.02" y="74.314744" style="stroke: #000000; stroke-width: 0.8"/>
      </g>
     </g>
     <g id="text_6">
      <!-- 0.06 -->
      <g transform="translate(24.754375 78.113963) scale(0.1 -0.1)">
       <defs>
        <path id="DejaVuSans-36" d="M 2113 2584 
Q 1688 2584 1439 2293 
Q 1191 2003 1191 1497 
Q 1191 994 1439 701 
Q 1688 409 2113 409 
Q 2538 409 2786 701 
Q 3034 994 3034 1497 
Q 3034 2003 2786 2293 
Q 2538 2584 2113 2584 
z
M 3366 4563 
L 3366 3988 
Q 3128 4100 2886 4159 
Q 2644 4219 2406 4219 
Q 1781 4219 1451 3797 
Q 1122 3375 1075 2522 
Q 1259 2794 1537 2939 
Q 1816 3084 2150 3084 
Q 2853 3084 3261 2657 
Q 3669 2231 3669 1497 
Q 3669 778 3244 343 
Q 2819 -91 2113 -91 
Q 1303 -91 875 529 
Q 447 1150 447 2328 
Q 447 3434 972 4092 
Q 1497 4750 2381 4750 
Q 2619 4750 2861 4703 
Q 3103 4656 3366 4563 
z
" transform="scale(0.015625)"/>
       </defs>
       <use xlink:href="#DejaVuSans-30"/>
       <use xlink:href="#DejaVuSans-2e" transform="translate(63.623047 0)"/>
       <use xlink:href="#DejaVuSans-30" transform="translate(95.410156 0)"/>
       <use xlink:href="#DejaVuSans-36" transform="translate(159.033203 0)"/>
      </g>
     </g>
    </g>
    <g id="text_7">
     <!-- dissimilarity (a.u.) -->
     <g transform="translate(18.674687 154.079844) rotate(-90) scale(0.1 -0.1)">
      <defs>
       <path id="DejaVuSans-64" d="M 2906 2969 
L 2906 4863 
L 3481 4863 
L 3481 0 
L 2906 0 
L 2906 525 
Q 2725 213 2448 61 
Q 2172 -91 1784 -91 
Q 1150 -91 751 415 
Q 353 922 353 1747 
Q 353 2572 751 3078 
Q 1150 3584 1784 3584 
Q 2172 3584 2448 3432 
Q 2725 3281 2906 2969 
z
M 947 1747 
Q 947 1113 1208 752 
Q 1469 391 1925 391 
Q 2381 391 2643 752 
Q 2906 1113 2906 1747 
Q 2906 2381 2643 2742 
Q 2381 3103 1925 3103 
Q 1469 3103 1208 2742 
Q 947 2381 947 1747 
z
" transform="scale(0.015625)"/>
       <path id="DejaVuSans-69" d="M 603 3500 
L 1178 3500 
L 1178 0 
L 603 0 
L 603 3500 
z
M 603 4863 
L 1178 4863 
L 1178 4134 
L 603 4134 
L 603 4863 
z
" transform="scale(0.015625)"/>
       <path id="DejaVuSans-73" d="M 2834 3397 
L 2834 2853 
Q 2591 2978 2328 3040 
Q 2066 3103 1784 3103 
Q 1356 3103 1142 2972 
Q 928 2841 928 2578 
Q 928 2378 1081 2264 
Q 1234 2150 1697 2047 
L 1894 2003 
Q 2506 1872 2764 1633 
Q 3022 1394 3022 966 
Q 3022 478 2636 193 
Q 2250 -91 1575 -91 
Q 1294 -91 989 -36 
Q 684 19 347 128 
L 347 722 
Q 666 556 975 473 
Q 1284 391 1588 391 
Q 1994 391 2212 530 
Q 2431 669 2431 922 
Q 2431 1156 2273 1281 
Q 2116 1406 1581 1522 
L 1381 1569 
Q 847 1681 609 1914 
Q 372 2147 372 2553 
Q 372 3047 722 3315 
Q 1072 3584 1716 3584 
Q 2034 3584 2315 3537 
Q 2597 3491 2834 3397 
z
" transform="scale(0.015625)"/>
       <path id="DejaVuSans-6d" d="M 3328 2828 
Q 3544 3216 3844 3400 
Q 4144 3584 4550 3584 
Q 5097 3584 5394 3201 
Q 5691 2819 5691 2113 
L 5691 0 
L 5113 0 
L 5113 2094 
Q 5113 2597 4934 2840 
Q 4756 3084 4391 3084 
Q 3944 3084 3684 2787 
Q 3425 2491 3425 1978 
L 3425 0 
L 2847 0 
L 2847 2094 
Q 2847 2600 2669 2842 
Q 2491 3084 2119 3084 
Q 1678 3084 1418 2786 
Q 1159 2488 1159 1978 
L 1159 0 
L 581 0 
L 581 3500 
L 1159 3500 
L 1159 2956 
Q 1356 3278 1631 3431 
Q 1906 3584 2284 3584 
Q 2666 3584 2933 3390 
Q 3200 3197 3328 2828 
z
" transform="scale(0.015625)"/>
       <path id="DejaVuSans-6c" d="M 603 4863 
L 1178 4863 
L 1178 0 
L 603 0 
L 603 4863 
z
" transform="scale(0.015625)"/>
       <path id="DejaVuSans-61" d="M 2194 1759 
Q 1497 1759 1228 1600 
Q 959 1441 959 1056 
Q 959 750 1161 570 
Q 1363 391 1709 391 
Q 2188 391 2477 730 
Q 2766 1069 2766 1631 
L 2766 1759 
L 2194 1759 
z
M 3341 1997 
L 3341 0 
L 2766 0 
L 2766 531 
Q 2569 213 2275 61 
Q 1981 -91 1556 -91 
Q 1019 -91 701 211 
Q 384 513 384 1019 
Q 384 1609 779 1909 
Q 1175 2209 1959 2209 
L 2766 2209 
L 2766 2266 
Q 2766 2663 2505 2880 
Q 2244 3097 1772 3097 
Q 1472 3097 1187 3025 
Q 903 2953 641 2809 
L 641 3341 
Q 956 3463 1253 3523 
Q 1550 3584 1831 3584 
Q 2591 3584 2966 3190 
Q 3341 2797 3341 1997 
z
" transform="scale(0.015625)"/>
       <path id="DejaVuSans-72" d="M 2631 2963 
Q 2534 3019 2420 3045 
Q 2306 3072 2169 3072 
Q 1681 3072 1420 2755 
Q 1159 2438 1159 1844 
L 1159 0 
L 581 0 
L 581 3500 
L 1159 3500 
L 1159 2956 
Q 1341 3275 1631 3429 
Q 1922 3584 2338 3584 
Q 2397 3584 2469 3576 
Q 2541 3569 2628 3553 
L 2631 2963 
z
" transform="scale(0.015625)"/>
       <path id="DejaVuSans-74" d="M 1172 4494 
L 1172 3500 
L 2356 3500 
L 2356 3053 
L 1172 3053 
L 1172 1153 
Q 1172 725 1289 603 
Q 1406 481 1766 481 
L 2356 481 
L 2356 0 
L 1766 0 
Q 1100 0 847 248 
Q 594 497 594 1153 
L 594 3053 
L 172 3053 
L 172 3500 
L 594 3500 
L 594 4494 
L 1172 4494 
z
" transform="scale(0.015625)"/>
       <path id="DejaVuSans-79" d="M 2059 -325 
Q 1816 -950 1584 -1140 
Q 1353 -1331 966 -1331 
L 506 -1331 
L 506 -850 
L 844 -850 
Q 1081 -850 1212 -737 
Q 1344 -625 1503 -206 
L 1606 56 
L 191 3500 
L 800 3500 
L 1894 763 
L 2988 3500 
L 3597 3500 
L 2059 -325 
z
" transform="scale(0.015625)"/>
       <path id="DejaVuSans-20" transform="scale(0.015625)"/>
       <path id="DejaVuSans-28" d="M 1984 4856 
Q 1566 4138 1362 3434 
Q 1159 2731 1159 2009 
Q 1159 1288 1364 580 
Q 1569 -128 1984 -844 
L 1484 -844 
Q 1016 -109 783 600 
Q 550 1309 550 2009 
Q 550 2706 781 3412 
Q 1013 4119 1484 4856 
L 1984 4856 
z
" transform="scale(0.015625)"/>
       <path id="DejaVuSans-75" d="M 544 1381 
L 544 3500 
L 1119 3500 
L 1119 1403 
Q 1119 906 1312 657 
Q 1506 409 1894 409 
Q 2359 409 2629 706 
Q 2900 1003 2900 1516 
L 2900 3500 
L 3475 3500 
L 3475 0 
L 2900 0 
L 2900 538 
Q 2691 219 2414 64 
Q 2138 -91 1772 -91 
Q 1169 -91 856 284 
Q 544 659 544 1381 
z
M 1991 3584 
L 1991 3584 
z
" transform="scale(0.015625)"/>
       <path id="DejaVuSans-29" d="M 513 4856 
L 1013 4856 
Q 1481 4119 1714 3412 
Q 1947 2706 1947 2009 
Q 1947 1309 1714 600 
Q 1481 -109 1013 -844 
L 513 -844 
Q 928 -128 1133 580 
Q 1338 1288 1338 2009 
Q 1338 2731 1133 3434 
Q 928 4138 513 4856 
z
" transform="scale(0.015625)"/>
      </defs>
      <use xlink:href="#DejaVuSans-64"/>
      <use xlink:href="#DejaVuSans-69" transform="translate(63.476562 0)"/>
      <use xlink:href="#DejaVuSans-73" transform="translate(91.259766 0)"/>
      <use xlink:href="#DejaVuSans-73" transform="translate(143.359375 0)"/>
      <use xlink:href="#DejaVuSans-69" transform="translate(195.458984 0)"/>
      <use xlink:href="#DejaVuSans-6d" transform="translate(223.242188 0)"/>
      <use xlink:href="#DejaVuSans-69" transform="translate(320.654297 0)"/>
      <use xlink:href="#DejaVuSans-6c" transform="translate(348.4375 0)"/>
      <use xlink:href="#DejaVuSans-61" transform="translate(376.220703 0)"/>
      <use xlink:href="#DejaVuSans-72" transform="translate(437.5 0)"/>
      <use xlink:href="#DejaVuSans-69" transform="translate(478.613281 0)"/>
      <use xlink:href="#DejaVuSans-74" transform="translate(506.396484 0)"/>
      <use xlink:href="#DejaVuSans-79" transform="translate(545.605469 0)"/>
      <use xlink:href="#DejaVuSans-20" transform="translate(604.785156 0)"/>
      <use xlink:href="#DejaVuSans-28" transform="translate(636.572266 0)"/>
      <use xlink:href="#DejaVuSans-61" transform="translate(675.585938 0)"/>
      <use xlink:href="#DejaVuSans-2e" transform="translate(736.865234 0)"/>
      <use xlink:href="#DejaVuSans-75" transform="translate(768.652344 0)"/>
      <use xlink:href="#DejaVuSans-2e" transform="translate(832.03125 0)"/>
      <use xlink:href="#DejaVuSans-29" transform="translate(863.818359 0)"/>
     </g>
    </g>
   </g>
   <g id="line2d_7">
    <path d="M 58.846818 114.108372 
L 59.821933 114.261173 
L 60.797048 114.413975 
L 61.772163 114.566776 
L 62.747277 114.719577 
L 63.722392 114.872378 
L 64.697507 115.025179 
L 65.672622 115.17798 
L 66.647736 115.330782 
L 67.622851 115.483583 
L 68.597966 115.636384 
L 69.573081 115.789185 
L 70.548196 115.941986 
L 71.52331 116.094787 
L 72.498425 116.247589 
L 73.47354 116.40039 
L 74.448655 116.553191 
L 75.42377 116.705992 
L 76.398884 116.858793 
L 77.373999 117.011594 
L 78.349114 117.164396 
L 79.324229 117.317197 
L 80.299343 117.469998 
L 81.274458 117.622799 
L 82.249573 117.7756 
L 83.224688 117.928401 
L 84.199803 118.081203 
L 85.174917 118.234004 
L 86.150032 118.386805 
L 87.125147 118.539606 
L 88.100262 118.692407 
L 89.075376 118.845208 
L 90.050491 118.99801 
L 91.025606 119.150811 
L 92.000721 119.303612 
L 92.975836 119.456413 
L 93.95095 119.609214 
L 94.926065 119.762015 
L 95.90118 119.914817 
L 96.876295 120.067618 
L 97.85141 120.220419 
L 98.826524 120.37322 
L 99.801639 120.526021 
L 100.776754 120.678822 
L 101.751869 120.831624 
L 102.726983 120.984425 
L 103.702098 121.137226 
L 104.677213 121.290027 
L 105.652328 121.442828 
L 106.627443 121.595629 
L 107.602557 121.748431 
L 108.577672 121.901232 
L 109.552787 122.054033 
L 110.527902 122.206834 
L 111.503017 122.359635 
L 112.478131 122.512436 
L 113.453246 122.665238 
L 114.428361 122.818039 
L 115.403476 122.97084 
L 116.37859 123.123641 
L 117.353705 123.276442 
L 118.32882 123.429243 
L 119.303935 123.582045 
L 120.27905 123.734846 
L 121.254164 123.887647 
L 122.229279 124.040448 
L 123.204394 124.193249 
L 124.179509 124.34605 
L 125.154624 124.498852 
L 126.129738 124.651653 
L 127.104853 124.804454 
L 128.079968 124.957255 
L 129.055083 125.110056 
L 130.030197 125.262857 
L 131.005312 125.415659 
L 131.980427 125.56846 
L 132.955542 125.721261 
L 133.930657 125.874062 
L 134.905771 126.026863 
L 135.880886 126.179664 
L 136.856001 126.332466 
L 137.831116 126.485267 
L 138.80623 126.638068 
L 139.781345 126.790869 
L 140.75646 126.94367 
L 141.731575 127.096471 
L 142.70669 127.249273 
L 143.681804 127.402074 
L 144.656919 127.554875 
L 145.632034 127.707676 
L 146.607149 127.860477 
L 147.582264 128.013278 
L 148.557378 128.16608 
L 149.532493 128.318881 
L 150.507608 128.471682 
L 151.482723 128.624483 
L 152.457837 128.777284 
L 153.432952 128.930085 
L 154.408067 129.082887 
L 155.383182 129.235688 
" clip-path="url(#p9f4a9e9bcc)" style="fill: none; stroke-dasharray: 5.55,2.4; stroke-dashoffset: 0; stroke: #000000; stroke-width: 1.5"/>
   </g>
   <g id="line2d_8">
    <path d="M 72.449694 167.24 
L 72.449694 50.64 
" clip-path="url(#p9f4a9e9bcc)" style="fill: none; stroke-dasharray: 0.8,1.32; stroke-dashoffset: 0; stroke: #000000; stroke-width: 0.8"/>
   </g>
   <g id="line2d_9">
    <path d="M 54.02 156.709384 
L 160.21 156.709384 
" clip-path="url(#p9f4a9e9bcc)" style="fill: none; stroke-dasharray: 0.8,1.32; stroke-dashoffset: 0; stroke: #000000; stroke-width: 0.8"/>
   </g>
   <g id="patch_3">
    <path d="M 54.02 156.709384 
L 54.02 74.314744 
" style="fill: none; stroke: #000000; stroke-width: 0.8; stroke-linejoin: miter; stroke-linecap: square"/>
   </g>
   <g id="patch_4">
    <path d="M 72.449694 167.24 
L 138.536543 167.24 
" style="fill: none; stroke: #000000; stroke-width: 0.8; stroke-linejoin: miter; stroke-linecap: square"/>
   </g>
   <g id="text_8">
    <!-- M1 -->
    <g transform="translate(98.120625 44.64) scale(0.12 -0.12)">
     <defs>
      <path id="DejaVuSans-4d" d="M 628 4666 
L 1569 4666 
L 2759 1491 
L 3956 4666 
L 4897 4666 
L 4897 0 
L 4281 0 
L 4281 4097 
L 3078 897 
L 2444 897 
L 1241 4097 
L 1241 0 
L 628 0 
L 628 4666 
z
" transform="scale(0.015625)"/>
     </defs>
     <use xlink:href="#DejaVuSans-4d"/>
     <use xlink:href="#DejaVuSans-31" transform="translate(86.279297 0)"/>
    </g>
   </g>
  </g>
  <g id="axes_2">
   <g id="patch_5">
    <path d="M 171.01 167.24 
L 277.2 167.24 
L 277.2 50.64 
L 171.01 50.64 
z
" style="fill: #ffffff"/>
   </g>
   <g id="FillBetweenPolyCollection_2">
    <defs>
     <path id="m77c81f4622" d="M 175.836818 -132.069527 
L 175.836818 -74.309091 
L 176.811933 -74.772263 
L 177.787048 -75.232481 
L 178.762163 -75.689602 
L 179.737277 -76.143475 
L 180.712392 -76.593939 
L 181.687507 -77.040825 
L 182.662622 -77.483954 
L 183.637736 -77.923137 
L 184.612851 -78.358173 
L 185.587966 -78.788849 
L 186.563081 -79.21494 
L 187.538196 -79.63621 
L 188.51331 -80.052406 
L 189.488425 -80.463264 
L 190.46354 -80.868503 
L 191.438655 -81.267826 
L 192.41377 -81.660922 
L 193.388884 -82.047461 
L 194.363999 -82.427099 
L 195.339114 -82.799469 
L 196.314229 -83.164192 
L 197.289343 -83.520867 
L 198.264458 -83.869076 
L 199.239573 -84.208383 
L 200.214688 -84.538335 
L 201.189803 -84.85846 
L 202.164917 -85.168274 
L 203.140032 -85.467275 
L 204.115147 -85.75495 
L 205.090262 -86.030775 
L 206.065376 -86.294219 
L 207.040491 -86.544745 
L 208.015606 -86.781817 
L 208.990721 -87.0049 
L 209.965836 -87.213468 
L 210.94095 -87.407008 
L 211.916065 -87.585026 
L 212.89118 -87.747049 
L 213.866295 -87.892639 
L 214.84141 -88.02139 
L 215.816524 -88.132938 
L 216.791639 -88.226968 
L 217.766754 -88.303216 
L 218.741869 -88.361475 
L 219.716983 -88.401596 
L 220.692098 -88.423494 
L 221.667213 -88.427148 
L 222.642328 -88.412602 
L 223.617443 -88.379961 
L 224.592557 -88.329393 
L 225.567672 -88.261126 
L 226.542787 -88.175442 
L 227.517902 -88.072673 
L 228.493017 -87.953197 
L 229.468131 -87.817431 
L 230.443246 -87.665827 
L 231.418361 -87.498864 
L 232.393476 -87.317045 
L 233.36859 -87.120886 
L 234.343705 -86.910918 
L 235.31882 -86.687676 
L 236.293935 -86.451698 
L 237.26905 -86.203517 
L 238.244164 -85.943665 
L 239.219279 -85.67266 
L 240.194394 -85.391013 
L 241.169509 -85.099219 
L 242.144624 -84.797759 
L 243.119738 -84.487099 
L 244.094853 -84.167685 
L 245.069968 -83.839948 
L 246.045083 -83.5043 
L 247.020197 -83.161134 
L 247.995312 -82.810827 
L 248.970427 -82.453735 
L 249.945542 -82.0902 
L 250.920657 -81.720545 
L 251.895771 -81.345075 
L 252.870886 -80.964083 
L 253.846001 -80.577843 
L 254.821116 -80.186616 
L 255.79623 -79.790648 
L 256.771345 -79.390173 
L 257.74646 -78.985412 
L 258.721575 -78.576572 
L 259.69669 -78.16385 
L 260.671804 -77.747433 
L 261.646919 -77.327496 
L 262.622034 -76.904206 
L 263.597149 -76.477719 
L 264.572264 -76.048185 
L 265.547378 -75.615742 
L 266.522493 -75.180524 
L 267.497608 -74.742657 
L 268.472723 -74.302258 
L 269.447837 -73.859441 
L 270.422952 -73.414311 
L 271.398067 -72.966969 
L 272.373182 -72.517511 
L 272.373182 -136.998739 
L 272.373182 -136.998739 
L 271.398067 -136.517588 
L 270.422952 -136.038553 
L 269.447837 -135.56173 
L 268.472723 -135.087219 
L 267.497608 -134.615127 
L 266.522493 -134.145567 
L 265.547378 -133.678656 
L 264.572264 -133.21452 
L 263.597149 -132.753292 
L 262.622034 -132.295112 
L 261.646919 -131.840128 
L 260.671804 -131.388498 
L 259.69669 -130.940388 
L 258.721575 -130.495973 
L 257.74646 -130.05544 
L 256.771345 -129.618985 
L 255.79623 -129.186817 
L 254.821116 -128.759156 
L 253.846001 -128.336235 
L 252.870886 -127.918302 
L 251.895771 -127.505617 
L 250.920657 -127.098454 
L 249.945542 -126.697105 
L 248.970427 -126.301877 
L 247.995312 -125.913092 
L 247.020197 -125.531091 
L 246.045083 -125.156233 
L 245.069968 -124.788891 
L 244.094853 -124.429461 
L 243.119738 -124.078354 
L 242.144624 -123.736 
L 241.169509 -123.402847 
L 240.194394 -123.07936 
L 239.219279 -122.76602 
L 238.244164 -122.463322 
L 237.26905 -122.171776 
L 236.293935 -121.891902 
L 235.31882 -121.62423 
L 234.343705 -121.369295 
L 233.36859 -121.127634 
L 232.393476 -120.899782 
L 231.418361 -120.686269 
L 230.443246 -120.487614 
L 229.468131 -120.304316 
L 228.493017 -120.136857 
L 227.517902 -119.985688 
L 226.542787 -119.851225 
L 225.567672 -119.733848 
L 224.592557 -119.633888 
L 223.617443 -119.551627 
L 222.642328 -119.487293 
L 221.667213 -119.441053 
L 220.692098 -119.413014 
L 219.716983 -119.403219 
L 218.741869 -119.411647 
L 217.766754 -119.438212 
L 216.791639 -119.482767 
L 215.816524 -119.545104 
L 214.84141 -119.624959 
L 213.866295 -119.722016 
L 212.89118 -119.835913 
L 211.916065 -119.966243 
L 210.94095 -120.112567 
L 209.965836 -120.274414 
L 208.990721 -120.451289 
L 208.015606 -120.642679 
L 207.040491 -120.848057 
L 206.065376 -121.06689 
L 205.090262 -121.298641 
L 204.115147 -121.542773 
L 203.140032 -121.798755 
L 202.164917 -122.066062 
L 201.189803 -122.344183 
L 200.214688 -122.632615 
L 199.239573 -122.930873 
L 198.264458 -123.238487 
L 197.289343 -123.555003 
L 196.314229 -123.879984 
L 195.339114 -124.213014 
L 194.363999 -124.553692 
L 193.388884 -124.901636 
L 192.41377 -125.256482 
L 191.438655 -125.617885 
L 190.46354 -125.985515 
L 189.488425 -126.35906 
L 188.51331 -126.738224 
L 187.538196 -127.122728 
L 186.563081 -127.512304 
L 185.587966 -127.906702 
L 184.612851 -128.305685 
L 183.637736 -128.709027 
L 182.662622 -129.116517 
L 181.687507 -129.527953 
L 180.712392 -129.943146 
L 179.737277 -130.361917 
L 178.762163 -130.784096 
L 177.787048 -131.209524 
L 176.811933 -131.638048 
L 175.836818 -132.069527 
z
"/>
    </defs>
    <g clip-path="url(#p4eafa003a7)">
     <use xlink:href="#m77c81f4622" x="0" y="216" style="fill-opacity: 0.2"/>
    </g>
   </g>
   <g id="PathCollection_2">
    <g clip-path="url(#p4eafa003a7)">
     <use xlink:href="#m8b5d124311" x="207.436187" y="141.36017" style="stroke: #000000"/>
     <use xlink:href="#m8b5d124311" x="221.761671" y="96.547276" style="stroke: #000000"/>
     <use xlink:href="#m8b5d124311" x="272.373182" y="72.438668" style="stroke: #000000"/>
     <use xlink:href="#m8b5d124311" x="254.904225" y="96.602552" style="stroke: #000000"/>
     <use xlink:href="#m8b5d124311" x="193.828963" y="140.756378" style="stroke: #000000"/>
     <use xlink:href="#m8b5d124311" x="255.080457" y="137.562682" style="stroke: #000000"/>
     <use xlink:href="#m8b5d124311" x="260.935874" y="130.883967" style="stroke: #000000"/>
     <use xlink:href="#m8b5d124311" x="201.555617" y="104.037357" style="stroke: #000000"/>
     <use xlink:href="#m8b5d124311" x="205.113292" y="66.273741" style="stroke: #000000"/>
     <use xlink:href="#m8b5d124311" x="203.229817" y="116.635513" style="stroke: #000000"/>
     <use xlink:href="#m8b5d124311" x="194.704613" y="117.753346" style="stroke: #000000"/>
     <use xlink:href="#m8b5d124311" x="211.406687" y="125.405237" style="stroke: #000000"/>
     <use xlink:href="#m8b5d124311" x="175.836818" y="85.288509" style="stroke: #000000"/>
     <use xlink:href="#m8b5d124311" x="229.223977" y="137.636393" style="stroke: #000000"/>
    </g>
   </g>
   <g id="matplotlib.axis_3">
    <g id="xtick_3">
     <g id="line2d_10">
      <g>
       <use xlink:href="#m1c7506c6ff" x="189.439694" y="167.24" style="stroke: #000000; stroke-width: 0.8"/>
      </g>
     </g>
     <g id="text_9">
      <!-- 0.0 -->
      <g transform="translate(181.488132 181.838437) scale(0.1 -0.1)">
       <use xlink:href="#DejaVuSans-30"/>
       <use xlink:href="#DejaVuSans-2e" transform="translate(63.623047 0)"/>
       <use xlink:href="#DejaVuSans-30" transform="translate(95.410156 0)"/>
      </g>
     </g>
    </g>
    <g id="xtick_4">
     <g id="line2d_11">
      <g>
       <use xlink:href="#m1c7506c6ff" x="255.526543" y="167.24" style="stroke: #000000; stroke-width: 0.8"/>
      </g>
     </g>
     <g id="text_10">
      <!-- 0.1 -->
      <g transform="translate(247.57498 181.838437) scale(0.1 -0.1)">
       <use xlink:href="#DejaVuSans-30"/>
       <use xlink:href="#DejaVuSans-2e" transform="translate(63.623047 0)"/>
       <use xlink:href="#DejaVuSans-31" transform="translate(95.410156 0)"/>
      </g>
     </g>
    </g>
   </g>
   <g id="matplotlib.axis_4">
    <g id="ytick_5"/>
    <g id="ytick_6"/>
    <g id="ytick_7"/>
    <g id="ytick_8"/>
   </g>
   <g id="line2d_12">
    <path d="M 175.836818 112.810691 
L 176.811933 112.794844 
L 177.787048 112.778997 
L 178.762163 112.763151 
L 179.737277 112.747304 
L 180.712392 112.731458 
L 181.687507 112.715611 
L 182.662622 112.699764 
L 183.637736 112.683918 
L 184.612851 112.668071 
L 185.587966 112.652224 
L 186.563081 112.636378 
L 187.538196 112.620531 
L 188.51331 112.604685 
L 189.488425 112.588838 
L 190.46354 112.572991 
L 191.438655 112.557145 
L 192.41377 112.541298 
L 193.388884 112.525451 
L 194.363999 112.509605 
L 195.339114 112.493758 
L 196.314229 112.477912 
L 197.289343 112.462065 
L 198.264458 112.446218 
L 199.239573 112.430372 
L 200.214688 112.414525 
L 201.189803 112.398678 
L 202.164917 112.382832 
L 203.140032 112.366985 
L 204.115147 112.351139 
L 205.090262 112.335292 
L 206.065376 112.319445 
L 207.040491 112.303599 
L 208.015606 112.287752 
L 208.990721 112.271906 
L 209.965836 112.256059 
L 210.94095 112.240212 
L 211.916065 112.224366 
L 212.89118 112.208519 
L 213.866295 112.192672 
L 214.84141 112.176826 
L 215.816524 112.160979 
L 216.791639 112.145133 
L 217.766754 112.129286 
L 218.741869 112.113439 
L 219.716983 112.097593 
L 220.692098 112.081746 
L 221.667213 112.065899 
L 222.642328 112.050053 
L 223.617443 112.034206 
L 224.592557 112.01836 
L 225.567672 112.002513 
L 226.542787 111.986666 
L 227.517902 111.97082 
L 228.493017 111.954973 
L 229.468131 111.939126 
L 230.443246 111.92328 
L 231.418361 111.907433 
L 232.393476 111.891587 
L 233.36859 111.87574 
L 234.343705 111.859893 
L 235.31882 111.844047 
L 236.293935 111.8282 
L 237.26905 111.812353 
L 238.244164 111.796507 
L 239.219279 111.78066 
L 240.194394 111.764814 
L 241.169509 111.748967 
L 242.144624 111.73312 
L 243.119738 111.717274 
L 244.094853 111.701427 
L 245.069968 111.68558 
L 246.045083 111.669734 
L 247.020197 111.653887 
L 247.995312 111.638041 
L 248.970427 111.622194 
L 249.945542 111.606347 
L 250.920657 111.590501 
L 251.895771 111.574654 
L 252.870886 111.558807 
L 253.846001 111.542961 
L 254.821116 111.527114 
L 255.79623 111.511268 
L 256.771345 111.495421 
L 257.74646 111.479574 
L 258.721575 111.463728 
L 259.69669 111.447881 
L 260.671804 111.432034 
L 261.646919 111.416188 
L 262.622034 111.400341 
L 263.597149 111.384495 
L 264.572264 111.368648 
L 265.547378 111.352801 
L 266.522493 111.336955 
L 267.497608 111.321108 
L 268.472723 111.305261 
L 269.447837 111.289415 
L 270.422952 111.273568 
L 271.398067 111.257722 
L 272.373182 111.241875 
" clip-path="url(#p4eafa003a7)" style="fill: none; stroke-dasharray: 5.55,2.4; stroke-dashoffset: 0; stroke: #000000; stroke-width: 1.5"/>
   </g>
   <g id="line2d_13">
    <path d="M 189.439694 167.24 
L 189.439694 50.64 
" clip-path="url(#p4eafa003a7)" style="fill: none; stroke-dasharray: 0.8,1.32; stroke-dashoffset: 0; stroke: #000000; stroke-width: 0.8"/>
   </g>
   <g id="line2d_14">
    <path d="M 171.01 156.709384 
L 277.2 156.709384 
" clip-path="url(#p4eafa003a7)" style="fill: none; stroke-dasharray: 0.8,1.32; stroke-dashoffset: 0; stroke: #000000; stroke-width: 0.8"/>
   </g>
   <g id="patch_6">
    <path d="M 189.439694 167.24 
L 255.526543 167.24 
" style="fill: none; stroke: #000000; stroke-width: 0.8; stroke-linejoin: miter; stroke-linecap: square"/>
   </g>
   <g id="text_11">
    <!-- S1 -->
    <g transform="translate(216.478437 44.64) scale(0.12 -0.12)">
     <defs>
      <path id="DejaVuSans-53" d="M 3425 4513 
L 3425 3897 
Q 3066 4069 2747 4153 
Q 2428 4238 2131 4238 
Q 1616 4238 1336 4038 
Q 1056 3838 1056 3469 
Q 1056 3159 1242 3001 
Q 1428 2844 1947 2747 
L 2328 2669 
Q 3034 2534 3370 2195 
Q 3706 1856 3706 1288 
Q 3706 609 3251 259 
Q 2797 -91 1919 -91 
Q 1588 -91 1214 -16 
Q 841 59 441 206 
L 441 856 
Q 825 641 1194 531 
Q 1563 422 1919 422 
Q 2459 422 2753 634 
Q 3047 847 3047 1241 
Q 3047 1584 2836 1778 
Q 2625 1972 2144 2069 
L 1759 2144 
Q 1053 2284 737 2584 
Q 422 2884 422 3419 
Q 422 4038 858 4394 
Q 1294 4750 2059 4750 
Q 2388 4750 2728 4690 
Q 3069 4631 3425 4513 
z
" transform="scale(0.015625)"/>
     </defs>
     <use xlink:href="#DejaVuSans-53"/>
     <use xlink:href="#DejaVuSans-31" transform="translate(63.476562 0)"/>
    </g>
   </g>
  </g>
  <g id="text_12">
   <!-- Finger pre-activation vs. average dissimilarity -->
   <g transform="translate(6.7725 13.438125) scale(0.12 -0.12)">
    <defs>
     <path id="DejaVuSans-46" d="M 628 4666 
L 3309 4666 
L 3309 4134 
L 1259 4134 
L 1259 2759 
L 3109 2759 
L 3109 2228 
L 1259 2228 
L 1259 0 
L 628 0 
L 628 4666 
z
" transform="scale(0.015625)"/>
     <path id="DejaVuSans-6e" d="M 3513 2113 
L 3513 0 
L 2938 0 
L 2938 2094 
Q 2938 2591 2744 2837 
Q 2550 3084 2163 3084 
Q 1697 3084 1428 2787 
Q 1159 2491 1159 1978 
L 1159 0 
L 581 0 
L 581 3500 
L 1159 3500 
L 1159 2956 
Q 1366 3272 1645 3428 
Q 1925 3584 2291 3584 
Q 2894 3584 3203 3211 
Q 3513 2838 3513 2113 
z
" transform="scale(0.015625)"/>
     <path id="DejaVuSans-67" d="M 2906 1791 
Q 2906 2416 2648 2759 
Q 2391 3103 1925 3103 
Q 1463 3103 1205 2759 
Q 947 2416 947 1791 
Q 947 1169 1205 825 
Q 1463 481 1925 481 
Q 2391 481 2648 825 
Q 2906 1169 2906 1791 
z
M 3481 434 
Q 3481 -459 3084 -895 
Q 2688 -1331 1869 -1331 
Q 1566 -1331 1297 -1286 
Q 1028 -1241 775 -1147 
L 775 -588 
Q 1028 -725 1275 -790 
Q 1522 -856 1778 -856 
Q 2344 -856 2625 -561 
Q 2906 -266 2906 331 
L 2906 616 
Q 2728 306 2450 153 
Q 2172 0 1784 0 
Q 1141 0 747 490 
Q 353 981 353 1791 
Q 353 2603 747 3093 
Q 1141 3584 1784 3584 
Q 2172 3584 2450 3431 
Q 2728 3278 2906 2969 
L 2906 3500 
L 3481 3500 
L 3481 434 
z
" transform="scale(0.015625)"/>
     <path id="DejaVuSans-65" d="M 3597 1894 
L 3597 1613 
L 953 1613 
Q 991 1019 1311 708 
Q 1631 397 2203 397 
Q 2534 397 2845 478 
Q 3156 559 3463 722 
L 3463 178 
Q 3153 47 2828 -22 
Q 2503 -91 2169 -91 
Q 1331 -91 842 396 
Q 353 884 353 1716 
Q 353 2575 817 3079 
Q 1281 3584 2069 3584 
Q 2775 3584 3186 3129 
Q 3597 2675 3597 1894 
z
M 3022 2063 
Q 3016 2534 2758 2815 
Q 2500 3097 2075 3097 
Q 1594 3097 1305 2825 
Q 1016 2553 972 2059 
L 3022 2063 
z
" transform="scale(0.015625)"/>
     <path id="DejaVuSans-70" d="M 1159 525 
L 1159 -1331 
L 581 -1331 
L 581 3500 
L 1159 3500 
L 1159 2969 
Q 1341 3281 1617 3432 
Q 1894 3584 2278 3584 
Q 2916 3584 3314 3078 
Q 3713 2572 3713 1747 
Q 3713 922 3314 415 
Q 2916 -91 2278 -91 
Q 1894 -91 1617 61 
Q 1341 213 1159 525 
z
M 3116 1747 
Q 3116 2381 2855 2742 
Q 2594 3103 2138 3103 
Q 1681 3103 1420 2742 
Q 1159 2381 1159 1747 
Q 1159 1113 1420 752 
Q 1681 391 2138 391 
Q 2594 391 2855 752 
Q 3116 1113 3116 1747 
z
" transform="scale(0.015625)"/>
     <path id="DejaVuSans-2d" d="M 313 2009 
L 1997 2009 
L 1997 1497 
L 313 1497 
L 313 2009 
z
" transform="scale(0.015625)"/>
     <path id="DejaVuSans-63" d="M 3122 3366 
L 3122 2828 
Q 2878 2963 2633 3030 
Q 2388 3097 2138 3097 
Q 1578 3097 1268 2742 
Q 959 2388 959 1747 
Q 959 1106 1268 751 
Q 1578 397 2138 397 
Q 2388 397 2633 464 
Q 2878 531 3122 666 
L 3122 134 
Q 2881 22 2623 -34 
Q 2366 -91 2075 -91 
Q 1284 -91 818 406 
Q 353 903 353 1747 
Q 353 2603 823 3093 
Q 1294 3584 2113 3584 
Q 2378 3584 2631 3529 
Q 2884 3475 3122 3366 
z
" transform="scale(0.015625)"/>
     <path id="DejaVuSans-76" d="M 191 3500 
L 800 3500 
L 1894 563 
L 2988 3500 
L 3597 3500 
L 2284 0 
L 1503 0 
L 191 3500 
z
" transform="scale(0.015625)"/>
     <path id="DejaVuSans-6f" d="M 1959 3097 
Q 1497 3097 1228 2736 
Q 959 2375 959 1747 
Q 959 1119 1226 758 
Q 1494 397 1959 397 
Q 2419 397 2687 759 
Q 2956 1122 2956 1747 
Q 2956 2369 2687 2733 
Q 2419 3097 1959 3097 
z
M 1959 3584 
Q 2709 3584 3137 3096 
Q 3566 2609 3566 1747 
Q 3566 888 3137 398 
Q 2709 -91 1959 -91 
Q 1206 -91 779 398 
Q 353 888 353 1747 
Q 353 2609 779 3096 
Q 1206 3584 1959 3584 
z
" transform="scale(0.015625)"/>
    </defs>
    <use xlink:href="#DejaVuSans-46"/>
    <use xlink:href="#DejaVuSans-69" transform="translate(50.269531 0)"/>
    <use xlink:href="#DejaVuSans-6e" transform="translate(78.052734 0)"/>
    <use xlink:href="#DejaVuSans-67" transform="translate(141.431641 0)"/>
    <use xlink:href="#DejaVuSans-65" transform="translate(204.908203 0)"/>
    <use xlink:href="#DejaVuSans-72" transform="translate(266.431641 0)"/>
    <use xlink:href="#DejaVuSans-20" transform="translate(307.544922 0)"/>
    <use xlink:href="#DejaVuSans-70" transform="translate(339.332031 0)"/>
    <use xlink:href="#DejaVuSans-72" transform="translate(402.808594 0)"/>
    <use xlink:href="#DejaVuSans-65" transform="translate(441.671875 0)"/>
    <use xlink:href="#DejaVuSans-2d" transform="translate(503.195312 0)"/>
    <use xlink:href="#DejaVuSans-61" transform="translate(539.279297 0)"/>
    <use xlink:href="#DejaVuSans-63" transform="translate(600.558594 0)"/>
    <use xlink:href="#DejaVuSans-74" transform="translate(655.539062 0)"/>
    <use xlink:href="#DejaVuSans-69" transform="translate(694.748047 0)"/>
    <use xlink:href="#DejaVuSans-76" transform="translate(722.53125 0)"/>
    <use xlink:href="#DejaVuSans-61" transform="translate(781.710938 0)"/>
    <use xlink:href="#DejaVuSans-74" transform="translate(842.990234 0)"/>
    <use xlink:href="#DejaVuSans-69" transform="translate(882.199219 0)"/>
    <use xlink:href="#DejaVuSans-6f" transform="translate(909.982422 0)"/>
    <use xlink:href="#DejaVuSans-6e" transform="translate(971.164062 0)"/>
    <use xlink:href="#DejaVuSans-20" transform="translate(1034.542969 0)"/>
    <use xlink:href="#DejaVuSans-76" transform="translate(1066.330078 0)"/>
    <use xlink:href="#DejaVuSans-73" transform="translate(1125.509766 0)"/>
    <use xlink:href="#DejaVuSans-2e" transform="translate(1177.609375 0)"/>
    <use xlink:href="#DejaVuSans-20" transform="translate(1209.396484 0)"/>
    <use xlink:href="#DejaVuSans-61" transform="translate(1241.183594 0)"/>
    <use xlink:href="#DejaVuSans-76" transform="translate(1302.462891 0)"/>
    <use xlink:href="#DejaVuSans-65" transform="translate(1361.642578 0)"/>
    <use xlink:href="#DejaVuSans-72" transform="translate(1423.166016 0)"/>
    <use xlink:href="#DejaVuSans-61" transform="translate(1464.279297 0)"/>
    <use xlink:href="#DejaVuSans-67" transform="translate(1525.558594 0)"/>
    <use xlink:href="#DejaVuSans-65" transform="translate(1589.035156 0)"/>
    <use xlink:href="#DejaVuSans-20" transform="translate(1650.558594 0)"/>
    <use xlink:href="#DejaVuSans-64" transform="translate(1682.345703 0)"/>
    <use xlink:href="#DejaVuSans-69" transform="translate(1745.822266 0)"/>
    <use xlink:href="#DejaVuSans-73" transform="translate(1773.605469 0)"/>
    <use xlink:href="#DejaVuSans-73" transform="translate(1825.705078 0)"/>
    <use xlink:href="#DejaVuSans-69" transform="translate(1877.804688 0)"/>
    <use xlink:href="#DejaVuSans-6d" transform="translate(1905.587891 0)"/>
    <use xlink:href="#DejaVuSans-69" transform="translate(2003 0)"/>
    <use xlink:href="#DejaVuSans-6c" transform="translate(2030.783203 0)"/>
    <use xlink:href="#DejaVuSans-61" transform="translate(2058.566406 0)"/>
    <use xlink:href="#DejaVuSans-72" transform="translate(2119.845703 0)"/>
    <use xlink:href="#DejaVuSans-69" transform="translate(2160.958984 0)"/>
    <use xlink:href="#DejaVuSans-74" transform="translate(2188.742188 0)"/>
    <use xlink:href="#DejaVuSans-79" transform="translate(2227.951172 0)"/>
   </g>
  </g>
  <g id="text_13">
   <!-- finger pre-activation (N) -->
   <g transform="translate(83.794531 211.760312) scale(0.1 -0.1)">
    <defs>
     <path id="DejaVuSans-66" d="M 2375 4863 
L 2375 4384 
L 1825 4384 
Q 1516 4384 1395 4259 
Q 1275 4134 1275 3809 
L 1275 3500 
L 2222 3500 
L 2222 3053 
L 1275 3053 
L 1275 0 
L 697 0 
L 697 3053 
L 147 3053 
L 147 3500 
L 697 3500 
L 697 3744 
Q 697 4328 969 4595 
Q 1241 4863 1831 4863 
L 2375 4863 
z
" transform="scale(0.015625)"/>
     <path id="DejaVuSans-4e" d="M 628 4666 
L 1478 4666 
L 3547 763 
L 3547 4666 
L 4159 4666 
L 4159 0 
L 3309 0 
L 1241 3903 
L 1241 0 
L 628 0 
L 628 4666 
z
" transform="scale(0.015625)"/>
    </defs>
    <use xlink:href="#DejaVuSans-66"/>
    <use xlink:href="#DejaVuSans-69" transform="translate(35.205078 0)"/>
    <use xlink:href="#DejaVuSans-6e" transform="translate(62.988281 0)"/>
    <use xlink:href="#DejaVuSans-67" transform="translate(126.367188 0)"/>
    <use xlink:href="#DejaVuSans-65" transform="translate(189.84375 0)"/>
    <use xlink:href="#DejaVuSans-72" transform="translate(251.367188 0)"/>
    <use xlink:href="#DejaVuSans-20" transform="translate(292.480469 0)"/>
    <use xlink:href="#DejaVuSans-70" transform="translate(324.267578 0)"/>
    <use xlink:href="#DejaVuSans-72" transform="translate(387.744141 0)"/>
    <use xlink:href="#DejaVuSans-65" transform="translate(426.607422 0)"/>
    <use xlink:href="#DejaVuSans-2d" transform="translate(488.130859 0)"/>
    <use xlink:href="#DejaVuSans-61" transform="translate(524.214844 0)"/>
    <use xlink:href="#DejaVuSans-63" transform="translate(585.494141 0)"/>
    <use xlink:href="#DejaVuSans-74" transform="translate(640.474609 0)"/>
    <use xlink:href="#DejaVuSans-69" transform="translate(679.683594 0)"/>
    <use xlink:href="#DejaVuSans-76" transform="translate(707.466797 0)"/>
    <use xlink:href="#DejaVuSans-61" transform="translate(766.646484 0)"/>
    <use xlink:href="#DejaVuSans-74" transform="translate(827.925781 0)"/>
    <use xlink:href="#DejaVuSans-69" transform="translate(867.134766 0)"/>
    <use xlink:href="#DejaVuSans-6f" transform="translate(894.917969 0)"/>
    <use xlink:href="#DejaVuSans-6e" transform="translate(956.099609 0)"/>
    <use xlink:href="#DejaVuSans-20" transform="translate(1019.478516 0)"/>
    <use xlink:href="#DejaVuSans-28" transform="translate(1051.265625 0)"/>
    <use xlink:href="#DejaVuSans-4e" transform="translate(1090.279297 0)"/>
    <use xlink:href="#DejaVuSans-29" transform="translate(1165.083984 0)"/>
   </g>
  </g>
 </g>
 <defs>
  <clipPath id="p9f4a9e9bcc">
   <rect x="54.02" y="50.64" width="106.19" height="116.6"/>
  </clipPath>
  <clipPath id="p4eafa003a7">
   <rect x="171.01" y="50.64" width="106.19" height="116.6"/>
  </clipPath>
 </defs>
</svg>
