<?xml version="1.0" encoding="utf-8" standalone="no"?>
<!DOCTYPE svg PUBLIC "-//W3C//DTD SVG 1.1//EN"
  "http://www.w3.org/Graphics/SVG/1.1/DTD/svg11.dtd">
<svg xmlns:xlink="http://www.w3.org/1999/xlink" width="864pt" height="216pt" viewBox="0 0 864 216" xmlns="http://www.w3.org/2000/svg" version="1.1">
 <metadata>
  <rdf:RDF xmlns:dc="http://purl.org/dc/elements/1.1/" xmlns:cc="http://creativecommons.org/ns#" xmlns:rdf="http://www.w3.org/1999/02/22-rdf-syntax-ns#">
   <cc:Work>
    <dc:type rdf:resource="http://purl.org/dc/dcmitype/StillImage"/>
    <dc:date>2025-09-13T15:04:34.531657</dc:date>
    <dc:format>image/svg+xml</dc:format>
    <dc:creator>
     <cc:Agent>
      <dc:title>Matplotlib v3.10.1, https://matplotlib.org/</dc:title>
     </cc:Agent>
    </dc:creator>
   </cc:Work>
  </rdf:RDF>
 </metadata>
 <defs>
  <style type="text/css">*{stroke-linejoin: round; stroke-linecap: butt}</style>
 </defs>
 <g id="figure_1">
  <g id="patch_1">
   <path d="M 0 216 
L 864 216 
L 864 0 
L 0 0 
z
" style="fill: #ffffff"/>
  </g>
  <g id="axes_1">
   <g id="patch_2">
    <path d="M 47.961178 164.996816 
L 144.34058 164.996816 
L 144.34058 68.617414 
L 47.961178 68.617414 
z
" style="fill: #ffffff"/>
   </g>
   <g id="PathCollection_1">
    <defs>
     <path id="C0_0_7003b7f251" d="M 0 3 
C 0.795609 3 1.55874 2.683901 2.12132 2.12132 
C 2.683901 1.55874 3 0.795609 3 -0 
C 3 -0.795609 2.683901 -1.55874 2.12132 -2.12132 
C 1.55874 -2.683901 0.795609 -3 0 -3 
C -0.795609 -3 -1.55874 -2.683901 -2.12132 -2.12132 
C -2.683901 -1.55874 -3 -0.795609 -3 0 
C -3 0.795609 -2.683901 1.55874 -2.12132 2.12132 
C -1.55874 2.683901 -0.795609 3 0 3 
z
"/>
    </defs>
    <g clip-path="url(#p7daff7174c)">
     <use xlink:href="#C0_0_7003b7f251" x="91.434291" y="119.361547" style="fill: #b8e3b2; stroke: #b8e3b2"/>
    </g>
    <g clip-path="url(#p7daff7174c)">
     <use xlink:href="#C0_0_7003b7f251" x="86.572346" y="125.877515" style="fill: #86cc85; stroke: #86cc85"/>
    </g>
    <g clip-path="url(#p7daff7174c)">
     <use xlink:href="#C0_0_7003b7f251" x="85.494424" y="119.516107" style="fill: #4bb062; stroke: #4bb062"/>
    </g>
    <g clip-path="url(#p7daff7174c)">
     <use xlink:href="#C0_0_7003b7f251" x="84.696964" y="107.155359" style="fill: #228a44; stroke: #228a44"/>
    </g>
    <g clip-path="url(#p7daff7174c)">
     <use xlink:href="#C0_0_7003b7f251" x="101.926029" y="103.450574" style="fill: #fd9a4e; stroke: #fd9a4e"/>
    </g>
    <g clip-path="url(#p7daff7174c)">
     <use xlink:href="#C0_0_7003b7f251" x="110.26454" y="122.944741" style="fill: #f3701b; stroke: #f3701b"/>
    </g>
    <g clip-path="url(#p7daff7174c)">
     <use xlink:href="#C0_0_7003b7f251" x="104.504241" y="113.060988" style="fill: #d84801; stroke: #d84801"/>
    </g>
    <g clip-path="url(#p7daff7174c)">
     <use xlink:href="#C0_0_7003b7f251" x="107.130879" y="120.273406" style="fill: #9e3303; stroke: #9e3303"/>
    </g>
   </g>
   <g id="matplotlib.axis_1">
    <g id="xtick_1">
     <g id="line2d_1">
      <defs>
       <path id="m31fb23c85c" d="M 0 0 
L 0 3.5 
" style="stroke: #000000; stroke-width: 0.8"/>
      </defs>
      <g>
       <use xlink:href="#m31fb23c85c" x="70.407506" y="164.996816" style="stroke: #000000; stroke-width: 0.8"/>
      </g>
     </g>
     <g id="text_1">
      <!-- −0.2 -->
      <g transform="translate(58.2661 179.595254) scale(0.1 -0.1)">
       <defs>
        <path id="DejaVuSans-2212" d="M 678 2272 
L 4684 2272 
L 4684 1741 
L 678 1741 
L 678 2272 
z
" transform="scale(0.015625)"/>
        <path id="DejaVuSans-30" d="M 2034 4250 
Q 1547 4250 1301 3770 
Q 1056 3291 1056 2328 
Q 1056 1369 1301 889 
Q 1547 409 2034 409 
Q 2525 409 2770 889 
Q 3016 1369 3016 2328 
Q 3016 3291 2770 3770 
Q 2525 4250 2034 4250 
z
M 2034 4750 
Q 2819 4750 3233 4129 
Q 3647 3509 3647 2328 
Q 3647 1150 3233 529 
Q 2819 -91 2034 -91 
Q 1250 -91 836 529 
Q 422 1150 422 2328 
Q 422 3509 836 4129 
Q 1250 4750 2034 4750 
z
" transform="scale(0.015625)"/>
        <path id="DejaVuSans-2e" d="M 684 794 
L 1344 794 
L 1344 0 
L 684 0 
L 684 794 
z
" transform="scale(0.015625)"/>
        <path id="DejaVuSans-32" d="M 1228 531 
L 3431 531 
L 3431 0 
L 469 0 
L 469 531 
Q 828 903 1448 1529 
Q 2069 2156 2228 2338 
Q 2531 2678 2651 2914 
Q 2772 3150 2772 3378 
Q 2772 3750 2511 3984 
Q 2250 4219 1831 4219 
Q 1534 4219 1204 4116 
Q 875 4013 500 3803 
L 500 4441 
Q 881 4594 1212 4672 
Q 1544 4750 1819 4750 
Q 2544 4750 2975 4387 
Q 3406 4025 3406 3419 
Q 3406 3131 3298 2873 
Q 3191 2616 2906 2266 
Q 2828 2175 2409 1742 
Q 1991 1309 1228 531 
z
" transform="scale(0.015625)"/>
       </defs>
       <use xlink:href="#DejaVuSans-2212"/>
       <use xlink:href="#DejaVuSans-30" transform="translate(83.789062 0)"/>
       <use xlink:href="#DejaVuSans-2e" transform="translate(147.412109 0)"/>
       <use xlink:href="#DejaVuSans-32" transform="translate(179.199219 0)"/>
      </g>
     </g>
    </g>
    <g id="xtick_2">
     <g id="line2d_2">
      <g>
       <use xlink:href="#m31fb23c85c" x="122.598422" y="164.996816" style="stroke: #000000; stroke-width: 0.8"/>
      </g>
     </g>
     <g id="text_2">
      <!-- 0.2 -->
      <g transform="translate(114.64686 179.595254) scale(0.1 -0.1)">
       <use xlink:href="#DejaVuSans-30"/>
       <use xlink:href="#DejaVuSans-2e" transform="translate(63.623047 0)"/>
       <use xlink:href="#DejaVuSans-32" transform="translate(95.410156 0)"/>
      </g>
     </g>
    </g>
    <g id="text_3">
     <!-- PC1 -->
     <g transform="translate(86.463379 193.273379) scale(0.1 -0.1)">
      <defs>
       <path id="DejaVuSans-50" d="M 1259 4147 
L 1259 2394 
L 2053 2394 
Q 2494 2394 2734 2622 
Q 2975 2850 2975 3272 
Q 2975 3691 2734 3919 
Q 2494 4147 2053 4147 
L 1259 4147 
z
M 628 4666 
L 2053 4666 
Q 2838 4666 3239 4311 
Q 3641 3956 3641 3272 
Q 3641 2581 3239 2228 
Q 2838 1875 2053 1875 
L 1259 1875 
L 1259 0 
L 628 0 
L 628 4666 
z
" transform="scale(0.015625)"/>
       <path id="DejaVuSans-43" d="M 4122 4306 
L 4122 3641 
Q 3803 3938 3442 4084 
Q 3081 4231 2675 4231 
Q 1875 4231 1450 3742 
Q 1025 3253 1025 2328 
Q 1025 1406 1450 917 
Q 1875 428 2675 428 
Q 3081 428 3442 575 
Q 3803 722 4122 1019 
L 4122 359 
Q 3791 134 3420 21 
Q 3050 -91 2638 -91 
Q 1578 -91 968 557 
Q 359 1206 359 2328 
Q 359 3453 968 4101 
Q 1578 4750 2638 4750 
Q 3056 4750 3426 4639 
Q 3797 4528 4122 4306 
z
" transform="scale(0.015625)"/>
       <path id="DejaVuSans-31" d="M 794 531 
L 1825 531 
L 1825 4091 
L 703 3866 
L 703 4441 
L 1819 4666 
L 2450 4666 
L 2450 531 
L 3481 531 
L 3481 0 
L 794 0 
L 794 531 
z
" transform="scale(0.015625)"/>
      </defs>
      <use xlink:href="#DejaVuSans-50"/>
      <use xlink:href="#DejaVuSans-43" transform="translate(60.302734 0)"/>
      <use xlink:href="#DejaVuSans-31" transform="translate(130.126953 0)"/>
     </g>
    </g>
   </g>
   <g id="matplotlib.axis_2">
    <g id="ytick_1">
     <g id="line2d_3">
      <defs>
       <path id="m5faa595433" d="M 0 0 
L -3.5 0 
" style="stroke: #000000; stroke-width: 0.8"/>
      </defs>
      <g>
       <use xlink:href="#m5faa595433" x="47.961178" y="142.550488" style="stroke: #000000; stroke-width: 0.8"/>
      </g>
     </g>
     <g id="text_4">
      <!-- −0.2 -->
      <g transform="translate(16.678365 146.349707) scale(0.1 -0.1)">
       <use xlink:href="#DejaVuSans-2212"/>
       <use xlink:href="#DejaVuSans-30" transform="translate(83.789062 0)"/>
       <use xlink:href="#DejaVuSans-2e" transform="translate(147.412109 0)"/>
       <use xlink:href="#DejaVuSans-32" transform="translate(179.199219 0)"/>
      </g>
     </g>
    </g>
    <g id="ytick_2">
     <g id="line2d_4">
      <g>
       <use xlink:href="#m5faa595433" x="47.961178" y="90.359572" style="stroke: #000000; stroke-width: 0.8"/>
      </g>
     </g>
     <g id="text_5">
      <!-- 0.2 -->
      <g transform="translate(25.058053 94.15879) scale(0.1 -0.1)">
       <use xlink:href="#DejaVuSans-30"/>
       <use xlink:href="#DejaVuSans-2e" transform="translate(63.623047 0)"/>
       <use xlink:href="#DejaVuSans-32" transform="translate(95.410156 0)"/>
      </g>
     </g>
    </g>
    <g id="text_6">
     <!-- PC2 -->
     <g transform="translate(10.598678 126.494615) rotate(-90) scale(0.1 -0.1)">
      <use xlink:href="#DejaVuSans-50"/>
      <use xlink:href="#DejaVuSans-43" transform="translate(60.302734 0)"/>
      <use xlink:href="#DejaVuSans-32" transform="translate(130.126953 0)"/>
     </g>
    </g>
   </g>
   <g id="patch_3">
    <path d="M 47.961178 142.550488 
L 47.961178 90.359572 
" style="fill: none; stroke: #000000; stroke-width: 0.8; stroke-linejoin: miter; stroke-linecap: square"/>
   </g>
   <g id="patch_4">
    <path d="M 70.407506 164.996816 
L 122.598422 164.996816 
" style="fill: none; stroke: #000000; stroke-width: 0.8; stroke-linejoin: miter; stroke-linecap: square"/>
   </g>
   <g id="text_7">
    <!-- SMA -->
    <g transform="translate(83.060566 62.617414) scale(0.12 -0.12)">
     <defs>
      <path id="DejaVuSans-53" d="M 3425 4513 
L 3425 3897 
Q 3066 4069 2747 4153 
Q 2428 4238 2131 4238 
Q 1616 4238 1336 4038 
Q 1056 3838 1056 3469 
Q 1056 3159 1242 3001 
Q 1428 2844 1947 2747 
L 2328 2669 
Q 3034 2534 3370 2195 
Q 3706 1856 3706 1288 
Q 3706 609 3251 259 
Q 2797 -91 1919 -91 
Q 1588 -91 1214 -16 
Q 841 59 441 206 
L 441 856 
Q 825 641 1194 531 
Q 1563 422 1919 422 
Q 2459 422 2753 634 
Q 3047 847 3047 1241 
Q 3047 1584 2836 1778 
Q 2625 1972 2144 2069 
L 1759 2144 
Q 1053 2284 737 2584 
Q 422 2884 422 3419 
Q 422 4038 858 4394 
Q 1294 4750 2059 4750 
Q 2388 4750 2728 4690 
Q 3069 4631 3425 4513 
z
" transform="scale(0.015625)"/>
      <path id="DejaVuSans-4d" d="M 628 4666 
L 1569 4666 
L 2759 1491 
L 3956 4666 
L 4897 4666 
L 4897 0 
L 4281 0 
L 4281 4097 
L 3078 897 
L 2444 897 
L 1241 4097 
L 1241 0 
L 628 0 
L 628 4666 
z
" transform="scale(0.015625)"/>
      <path id="DejaVuSans-41" d="M 2188 4044 
L 1331 1722 
L 3047 1722 
L 2188 4044 
z
M 1831 4666 
L 2547 4666 
L 4325 0 
L 3669 0 
L 3244 1197 
L 1141 1197 
L 716 0 
L 50 0 
L 1831 4666 
z
" transform="scale(0.015625)"/>
     </defs>
     <use xlink:href="#DejaVuSans-53"/>
     <use xlink:href="#DejaVuSans-4d" transform="translate(63.476562 0)"/>
     <use xlink:href="#DejaVuSans-41" transform="translate(149.755859 0)"/>
    </g>
   </g>
  </g>
  <g id="axes_2">
   <g id="patch_5">
    <path d="M 150.34106 164.996816 
L 246.720463 164.996816 
L 246.720463 68.617414 
L 150.34106 68.617414 
z
" style="fill: #ffffff"/>
   </g>
   <g id="PathCollection_2">
    <defs>
     <path id="C1_0_29fd71dff3" d="M 0 3 
C 0.795609 3 1.55874 2.683901 2.12132 2.12132 
C 2.683901 1.55874 3 0.795609 3 -0 
C 3 -0.795609 2.683901 -1.55874 2.12132 -2.12132 
C 1.55874 -2.683901 0.795609 -3 0 -3 
C -0.795609 -3 -1.55874 -2.683901 -2.12132 -2.12132 
C -2.683901 -1.55874 -3 -0.795609 -3 0 
C -3 0.795609 -2.683901 1.55874 -2.12132 2.12132 
C -1.55874 2.683901 -0.795609 3 0 3 
z
"/>
    </defs>
    <g clip-path="url(#pca86383412)">
     <use xlink:href="#C1_0_29fd71dff3" x="184.106093" y="126.206439" style="fill: #b8e3b2; stroke: #b8e3b2"/>
    </g>
    <g clip-path="url(#pca86383412)">
     <use xlink:href="#C1_0_29fd71dff3" x="180.605887" y="118.150693" style="fill: #86cc85; stroke: #86cc85"/>
    </g>
    <g clip-path="url(#pca86383412)">
     <use xlink:href="#C1_0_29fd71dff3" x="181.105226" y="118.014561" style="fill: #4bb062; stroke: #4bb062"/>
    </g>
    <g clip-path="url(#pca86383412)">
     <use xlink:href="#C1_0_29fd71dff3" x="186.151009" y="99.395297" style="fill: #228a44; stroke: #228a44"/>
    </g>
    <g clip-path="url(#pca86383412)">
     <use xlink:href="#C1_0_29fd71dff3" x="218.333661" y="102.214905" style="fill: #fd9a4e; stroke: #fd9a4e"/>
    </g>
    <g clip-path="url(#pca86383412)">
     <use xlink:href="#C1_0_29fd71dff3" x="215.272906" y="119.32185" style="fill: #f3701b; stroke: #f3701b"/>
    </g>
    <g clip-path="url(#pca86383412)">
     <use xlink:href="#C1_0_29fd71dff3" x="212.038608" y="122.90987" style="fill: #d84801; stroke: #d84801"/>
    </g>
    <g clip-path="url(#pca86383412)">
     <use xlink:href="#C1_0_29fd71dff3" x="213.449386" y="125.426624" style="fill: #9e3303; stroke: #9e3303"/>
    </g>
   </g>
   <g id="matplotlib.axis_3">
    <g id="xtick_3">
     <g id="line2d_5">
      <g>
       <use xlink:href="#m31fb23c85c" x="172.787389" y="164.996816" style="stroke: #000000; stroke-width: 0.8"/>
      </g>
     </g>
     <g id="text_8">
      <!-- −0.2 -->
      <g transform="translate(160.645983 179.595254) scale(0.1 -0.1)">
       <use xlink:href="#DejaVuSans-2212"/>
       <use xlink:href="#DejaVuSans-30" transform="translate(83.789062 0)"/>
       <use xlink:href="#DejaVuSans-2e" transform="translate(147.412109 0)"/>
       <use xlink:href="#DejaVuSans-32" transform="translate(179.199219 0)"/>
      </g>
     </g>
    </g>
    <g id="xtick_4">
     <g id="line2d_6">
      <g>
       <use xlink:href="#m31fb23c85c" x="224.978305" y="164.996816" style="stroke: #000000; stroke-width: 0.8"/>
      </g>
     </g>
     <g id="text_9">
      <!-- 0.2 -->
      <g transform="translate(217.026743 179.595254) scale(0.1 -0.1)">
       <use xlink:href="#DejaVuSans-30"/>
       <use xlink:href="#DejaVuSans-2e" transform="translate(63.623047 0)"/>
       <use xlink:href="#DejaVuSans-32" transform="translate(95.410156 0)"/>
      </g>
     </g>
    </g>
    <g id="text_10">
     <!-- PC1 -->
     <g transform="translate(188.843262 193.273379) scale(0.1 -0.1)">
      <use xlink:href="#DejaVuSans-50"/>
      <use xlink:href="#DejaVuSans-43" transform="translate(60.302734 0)"/>
      <use xlink:href="#DejaVuSans-31" transform="translate(130.126953 0)"/>
     </g>
    </g>
   </g>
   <g id="matplotlib.axis_4">
    <g id="ytick_3"/>
    <g id="ytick_4"/>
   </g>
   <g id="patch_6">
    <path d="M 172.787389 164.996816 
L 224.978305 164.996816 
" style="fill: none; stroke: #000000; stroke-width: 0.8; stroke-linejoin: miter; stroke-linecap: square"/>
   </g>
   <g id="text_11">
    <!-- PMd -->
    <g transform="translate(185.927012 62.617414) scale(0.12 -0.12)">
     <defs>
      <path id="DejaVuSans-64" d="M 2906 2969 
L 2906 4863 
L 3481 4863 
L 3481 0 
L 2906 0 
L 2906 525 
Q 2725 213 2448 61 
Q 2172 -91 1784 -91 
Q 1150 -91 751 415 
Q 353 922 353 1747 
Q 353 2572 751 3078 
Q 1150 3584 1784 3584 
Q 2172 3584 2448 3432 
Q 2725 3281 2906 2969 
z
M 947 1747 
Q 947 1113 1208 752 
Q 1469 391 1925 391 
Q 2381 391 2643 752 
Q 2906 1113 2906 1747 
Q 2906 2381 2643 2742 
Q 2381 3103 1925 3103 
Q 1469 3103 1208 2742 
Q 947 2381 947 1747 
z
" transform="scale(0.015625)"/>
     </defs>
     <use xlink:href="#DejaVuSans-50"/>
     <use xlink:href="#DejaVuSans-4d" transform="translate(60.302734 0)"/>
     <use xlink:href="#DejaVuSans-64" transform="translate(146.582031 0)"/>
    </g>
   </g>
  </g>
  <g id="axes_3">
   <g id="patch_7">
    <path d="M 252.720943 164.996816 
L 349.100346 164.996816 
L 349.100346 68.617414 
L 252.720943 68.617414 
z
" style="fill: #ffffff"/>
   </g>
   <g id="PathCollection_3">
    <defs>
     <path id="C2_0_7f6fde6ea5" d="M 0 3 
C 0.795609 3 1.55874 2.683901 2.12132 2.12132 
C 2.683901 1.55874 3 0.795609 3 -0 
C 3 -0.795609 2.683901 -1.55874 2.12132 -2.12132 
C 1.55874 -2.683901 0.795609 -3 0 -3 
C -0.795609 -3 -1.55874 -2.683901 -2.12132 -2.12132 
C -2.683901 -1.55874 -3 -0.795609 -3 0 
C -3 0.795609 -2.683901 1.55874 -2.12132 2.12132 
C -1.55874 2.683901 -0.795609 3 0 3 
z
"/>
    </defs>
    <g clip-path="url(#pa7b24fd2ad)">
     <use xlink:href="#C2_0_7f6fde6ea5" x="285.370411" y="121.700497" style="fill: #b8e3b2; stroke: #b8e3b2"/>
    </g>
    <g clip-path="url(#pa7b24fd2ad)">
     <use xlink:href="#C2_0_7f6fde6ea5" x="289.425455" y="122.368157" style="fill: #86cc85; stroke: #86cc85"/>
    </g>
    <g clip-path="url(#pa7b24fd2ad)">
     <use xlink:href="#C2_0_7f6fde6ea5" x="287.845081" y="122.194811" style="fill: #4bb062; stroke: #4bb062"/>
    </g>
    <g clip-path="url(#pa7b24fd2ad)">
     <use xlink:href="#C2_0_7f6fde6ea5" x="289.394599" y="99.336817" style="fill: #228a44; stroke: #228a44"/>
    </g>
    <g clip-path="url(#pa7b24fd2ad)">
     <use xlink:href="#C2_0_7f6fde6ea5" x="313.492514" y="98.438719" style="fill: #fd9a4e; stroke: #fd9a4e"/>
    </g>
    <g clip-path="url(#pa7b24fd2ad)">
     <use xlink:href="#C2_0_7f6fde6ea5" x="315.123058" y="122.012839" style="fill: #f3701b; stroke: #f3701b"/>
    </g>
    <g clip-path="url(#pa7b24fd2ad)">
     <use xlink:href="#C2_0_7f6fde6ea5" x="314.597181" y="123.457839" style="fill: #d84801; stroke: #d84801"/>
    </g>
    <g clip-path="url(#pa7b24fd2ad)">
     <use xlink:href="#C2_0_7f6fde6ea5" x="314.853539" y="122.13056" style="fill: #9e3303; stroke: #9e3303"/>
    </g>
   </g>
   <g id="matplotlib.axis_5">
    <g id="xtick_5">
     <g id="line2d_7">
      <g>
       <use xlink:href="#m31fb23c85c" x="275.167272" y="164.996816" style="stroke: #000000; stroke-width: 0.8"/>
      </g>
     </g>
     <g id="text_12">
      <!-- −0.2 -->
      <g transform="translate(263.025866 179.595254) scale(0.1 -0.1)">
       <use xlink:href="#DejaVuSans-2212"/>
       <use xlink:href="#DejaVuSans-30" transform="translate(83.789062 0)"/>
       <use xlink:href="#DejaVuSans-2e" transform="translate(147.412109 0)"/>
       <use xlink:href="#DejaVuSans-32" transform="translate(179.199219 0)"/>
      </g>
     </g>
    </g>
    <g id="xtick_6">
     <g id="line2d_8">
      <g>
       <use xlink:href="#m31fb23c85c" x="327.358188" y="164.996816" style="stroke: #000000; stroke-width: 0.8"/>
      </g>
     </g>
     <g id="text_13">
      <!-- 0.2 -->
      <g transform="translate(319.406625 179.595254) scale(0.1 -0.1)">
       <use xlink:href="#DejaVuSans-30"/>
       <use xlink:href="#DejaVuSans-2e" transform="translate(63.623047 0)"/>
       <use xlink:href="#DejaVuSans-32" transform="translate(95.410156 0)"/>
      </g>
     </g>
    </g>
    <g id="text_14">
     <!-- PC1 -->
     <g transform="translate(291.223145 193.273379) scale(0.1 -0.1)">
      <use xlink:href="#DejaVuSans-50"/>
      <use xlink:href="#DejaVuSans-43" transform="translate(60.302734 0)"/>
      <use xlink:href="#DejaVuSans-31" transform="translate(130.126953 0)"/>
     </g>
    </g>
   </g>
   <g id="matplotlib.axis_6">
    <g id="ytick_5"/>
    <g id="ytick_6"/>
   </g>
   <g id="patch_8">
    <path d="M 275.167272 164.996816 
L 327.358188 164.996816 
" style="fill: none; stroke: #000000; stroke-width: 0.8; stroke-linejoin: miter; stroke-linecap: square"/>
   </g>
   <g id="text_15">
    <!-- PMv -->
    <g transform="translate(288.564707 62.617414) scale(0.12 -0.12)">
     <defs>
      <path id="DejaVuSans-76" d="M 191 3500 
L 800 3500 
L 1894 563 
L 2988 3500 
L 3597 3500 
L 2284 0 
L 1503 0 
L 191 3500 
z
" transform="scale(0.015625)"/>
     </defs>
     <use xlink:href="#DejaVuSans-50"/>
     <use xlink:href="#DejaVuSans-4d" transform="translate(60.302734 0)"/>
     <use xlink:href="#DejaVuSans-76" transform="translate(146.582031 0)"/>
    </g>
   </g>
  </g>
  <g id="axes_4">
   <g id="patch_9">
    <path d="M 355.100826 164.996816 
L 451.480229 164.996816 
L 451.480229 68.617414 
L 355.100826 68.617414 
z
" style="fill: #ffffff"/>
   </g>
   <g id="PathCollection_4">
    <defs>
     <path id="C3_0_f4fc1b84c4" d="M 0 3 
C 0.795609 3 1.55874 2.683901 2.12132 2.12132 
C 2.683901 1.55874 3 0.795609 3 -0 
C 3 -0.795609 2.683901 -1.55874 2.12132 -2.12132 
C 1.55874 -2.683901 0.795609 -3 0 -3 
C -0.795609 -3 -1.55874 -2.683901 -2.12132 -2.12132 
C -2.683901 -1.55874 -3 -0.795609 -3 0 
C -3 0.795609 -2.683901 1.55874 -2.12132 2.12132 
C -1.55874 2.683901 -0.795609 3 0 3 
z
"/>
    </defs>
    <g clip-path="url(#pf00885e54c)">
     <use xlink:href="#C3_0_f4fc1b84c4" x="429.083903" y="109.10421" style="fill: #b8e3b2; stroke: #b8e3b2"/>
    </g>
    <g clip-path="url(#pf00885e54c)">
     <use xlink:href="#C3_0_f4fc1b84c4" x="435.512586" y="113.975564" style="fill: #86cc85; stroke: #86cc85"/>
    </g>
    <g clip-path="url(#pf00885e54c)">
     <use xlink:href="#C3_0_f4fc1b84c4" x="438.157137" y="116.284243" style="fill: #4bb062; stroke: #4bb062"/>
    </g>
    <g clip-path="url(#pf00885e54c)">
     <use xlink:href="#C3_0_f4fc1b84c4" x="437.231434" y="126.930885" style="fill: #228a44; stroke: #228a44"/>
    </g>
    <g clip-path="url(#pf00885e54c)">
     <use xlink:href="#C3_0_f4fc1b84c4" x="365.355388" y="127.668959" style="fill: #fd9a4e; stroke: #fd9a4e"/>
    </g>
    <g clip-path="url(#pf00885e54c)">
     <use xlink:href="#C3_0_f4fc1b84c4" x="367.792798" y="112.052028" style="fill: #f3701b; stroke: #f3701b"/>
    </g>
    <g clip-path="url(#pf00885e54c)">
     <use xlink:href="#C3_0_f4fc1b84c4" x="378.310038" y="120.591915" style="fill: #d84801; stroke: #d84801"/>
    </g>
    <g clip-path="url(#pf00885e54c)">
     <use xlink:href="#C3_0_f4fc1b84c4" x="377.697616" y="105.032433" style="fill: #9e3303; stroke: #9e3303"/>
    </g>
   </g>
   <g id="matplotlib.axis_7">
    <g id="xtick_7">
     <g id="line2d_9">
      <g>
       <use xlink:href="#m31fb23c85c" x="377.547155" y="164.996816" style="stroke: #000000; stroke-width: 0.8"/>
      </g>
     </g>
     <g id="text_16">
      <!-- −0.2 -->
      <g transform="translate(365.405748 179.595254) scale(0.1 -0.1)">
       <use xlink:href="#DejaVuSans-2212"/>
       <use xlink:href="#DejaVuSans-30" transform="translate(83.789062 0)"/>
       <use xlink:href="#DejaVuSans-2e" transform="translate(147.412109 0)"/>
       <use xlink:href="#DejaVuSans-32" transform="translate(179.199219 0)"/>
      </g>
     </g>
    </g>
    <g id="xtick_8">
     <g id="line2d_10">
      <g>
       <use xlink:href="#m31fb23c85c" x="429.738071" y="164.996816" style="stroke: #000000; stroke-width: 0.8"/>
      </g>
     </g>
     <g id="text_17">
      <!-- 0.2 -->
      <g transform="translate(421.786508 179.595254) scale(0.1 -0.1)">
       <use xlink:href="#DejaVuSans-30"/>
       <use xlink:href="#DejaVuSans-2e" transform="translate(63.623047 0)"/>
       <use xlink:href="#DejaVuSans-32" transform="translate(95.410156 0)"/>
      </g>
     </g>
    </g>
    <g id="text_18">
     <!-- PC1 -->
     <g transform="translate(393.603027 193.273379) scale(0.1 -0.1)">
      <use xlink:href="#DejaVuSans-50"/>
      <use xlink:href="#DejaVuSans-43" transform="translate(60.302734 0)"/>
      <use xlink:href="#DejaVuSans-31" transform="translate(130.126953 0)"/>
     </g>
    </g>
   </g>
   <g id="matplotlib.axis_8">
    <g id="ytick_7"/>
    <g id="ytick_8"/>
   </g>
   <g id="patch_10">
    <path d="M 377.547155 164.996816 
L 429.738071 164.996816 
" style="fill: none; stroke: #000000; stroke-width: 0.8; stroke-linejoin: miter; stroke-linecap: square"/>
   </g>
   <g id="text_19">
    <!-- M1 -->
    <g transform="translate(394.296152 62.617414) scale(0.12 -0.12)">
     <use xlink:href="#DejaVuSans-4d"/>
     <use xlink:href="#DejaVuSans-31" transform="translate(86.279297 0)"/>
    </g>
   </g>
  </g>
  <g id="axes_5">
   <g id="patch_11">
    <path d="M 457.480709 164.996816 
L 553.860112 164.996816 
L 553.860112 68.617414 
L 457.480709 68.617414 
z
" style="fill: #ffffff"/>
   </g>
   <g id="PathCollection_5">
    <defs>
     <path id="C4_0_fc447979be" d="M 0 3 
C 0.795609 3 1.55874 2.683901 2.12132 2.12132 
C 2.683901 1.55874 3 0.795609 3 -0 
C 3 -0.795609 2.683901 -1.55874 2.12132 -2.12132 
C 1.55874 -2.683901 0.795609 -3 0 -3 
C -0.795609 -3 -1.55874 -2.683901 -2.12132 -2.12132 
C -2.683901 -1.55874 -3 -0.795609 -3 0 
C -3 0.795609 -2.683901 1.55874 -2.12132 2.12132 
C -1.55874 2.683901 -0.795609 3 0 3 
z
"/>
    </defs>
    <g clip-path="url(#pcc4277e374)">
     <use xlink:href="#C4_0_fc447979be" x="540.482342" y="123.349507" style="fill: #b8e3b2; stroke: #b8e3b2"/>
    </g>
    <g clip-path="url(#pcc4277e374)">
     <use xlink:href="#C4_0_fc447979be" x="543.946653" y="124.843809" style="fill: #86cc85; stroke: #86cc85"/>
    </g>
    <g clip-path="url(#pcc4277e374)">
     <use xlink:href="#C4_0_fc447979be" x="547.317766" y="114.53278" style="fill: #4bb062; stroke: #4bb062"/>
    </g>
    <g clip-path="url(#pcc4277e374)">
     <use xlink:href="#C4_0_fc447979be" x="549.47923" y="106.331616" style="fill: #228a44; stroke: #228a44"/>
    </g>
    <g clip-path="url(#pcc4277e374)">
     <use xlink:href="#C4_0_fc447979be" x="461.861591" y="130.371855" style="fill: #fd9a4e; stroke: #fd9a4e"/>
    </g>
    <g clip-path="url(#pcc4277e374)">
     <use xlink:href="#C4_0_fc447979be" x="463.020224" y="119.108158" style="fill: #f3701b; stroke: #f3701b"/>
    </g>
    <g clip-path="url(#pcc4277e374)">
     <use xlink:href="#C4_0_fc447979be" x="470.059851" y="106.927476" style="fill: #d84801; stroke: #d84801"/>
    </g>
    <g clip-path="url(#pcc4277e374)">
     <use xlink:href="#C4_0_fc447979be" x="472.012307" y="106.175038" style="fill: #9e3303; stroke: #9e3303"/>
    </g>
   </g>
   <g id="matplotlib.axis_9">
    <g id="xtick_9">
     <g id="line2d_11">
      <g>
       <use xlink:href="#m31fb23c85c" x="479.927037" y="164.996816" style="stroke: #000000; stroke-width: 0.8"/>
      </g>
     </g>
     <g id="text_20">
      <!-- −0.2 -->
      <g transform="translate(467.785631 179.595254) scale(0.1 -0.1)">
       <use xlink:href="#DejaVuSans-2212"/>
       <use xlink:href="#DejaVuSans-30" transform="translate(83.789062 0)"/>
       <use xlink:href="#DejaVuSans-2e" transform="translate(147.412109 0)"/>
       <use xlink:href="#DejaVuSans-32" transform="translate(179.199219 0)"/>
      </g>
     </g>
    </g>
    <g id="xtick_10">
     <g id="line2d_12">
      <g>
       <use xlink:href="#m31fb23c85c" x="532.117953" y="164.996816" style="stroke: #000000; stroke-width: 0.8"/>
      </g>
     </g>
     <g id="text_21">
      <!-- 0.2 -->
      <g transform="translate(524.166391 179.595254) scale(0.1 -0.1)">
       <use xlink:href="#DejaVuSans-30"/>
       <use xlink:href="#DejaVuSans-2e" transform="translate(63.623047 0)"/>
       <use xlink:href="#DejaVuSans-32" transform="translate(95.410156 0)"/>
      </g>
     </g>
    </g>
    <g id="text_22">
     <!-- PC1 -->
     <g transform="translate(495.98291 193.273379) scale(0.1 -0.1)">
      <use xlink:href="#DejaVuSans-50"/>
      <use xlink:href="#DejaVuSans-43" transform="translate(60.302734 0)"/>
      <use xlink:href="#DejaVuSans-31" transform="translate(130.126953 0)"/>
     </g>
    </g>
   </g>
   <g id="matplotlib.axis_10">
    <g id="ytick_9"/>
    <g id="ytick_10"/>
   </g>
   <g id="patch_12">
    <path d="M 479.927037 164.996816 
L 532.117953 164.996816 
" style="fill: none; stroke: #000000; stroke-width: 0.8; stroke-linejoin: miter; stroke-linecap: square"/>
   </g>
   <g id="text_23">
    <!-- S1 -->
    <g transform="translate(498.043848 62.617414) scale(0.12 -0.12)">
     <use xlink:href="#DejaVuSans-53"/>
     <use xlink:href="#DejaVuSans-31" transform="translate(63.476562 0)"/>
    </g>
   </g>
  </g>
  <g id="axes_6">
   <g id="patch_13">
    <path d="M 559.860592 164.996816 
L 656.239994 164.996816 
L 656.239994 68.617414 
L 559.860592 68.617414 
z
" style="fill: #ffffff"/>
   </g>
   <g id="PathCollection_6">
    <defs>
     <path id="C5_0_a416fe8d5c" d="M 0 3 
C 0.795609 3 1.55874 2.683901 2.12132 2.12132 
C 2.683901 1.55874 3 0.795609 3 -0 
C 3 -0.795609 2.683901 -1.55874 2.12132 -2.12132 
C 1.55874 -2.683901 0.795609 -3 0 -3 
C -0.795609 -3 -1.55874 -2.683901 -2.12132 -2.12132 
C -2.683901 -1.55874 -3 -0.795609 -3 0 
C -3 0.795609 -2.683901 1.55874 -2.12132 2.12132 
C -1.55874 2.683901 -0.795609 3 0 3 
z
"/>
    </defs>
    <g clip-path="url(#p75baed33f3)">
     <use xlink:href="#C5_0_a416fe8d5c" x="596.768096" y="101.623135" style="fill: #b8e3b2; stroke: #b8e3b2"/>
    </g>
    <g clip-path="url(#p75baed33f3)">
     <use xlink:href="#C5_0_a416fe8d5c" x="594.447155" y="109.11781" style="fill: #86cc85; stroke: #86cc85"/>
    </g>
    <g clip-path="url(#p75baed33f3)">
     <use xlink:href="#C5_0_a416fe8d5c" x="594.393059" y="115.448755" style="fill: #4bb062; stroke: #4bb062"/>
    </g>
    <g clip-path="url(#p75baed33f3)">
     <use xlink:href="#C5_0_a416fe8d5c" x="593.913174" y="138.164458" style="fill: #228a44; stroke: #228a44"/>
    </g>
    <g clip-path="url(#p75baed33f3)">
     <use xlink:href="#C5_0_a416fe8d5c" x="622.658601" y="123.771251" style="fill: #fd9a4e; stroke: #fd9a4e"/>
    </g>
    <g clip-path="url(#p75baed33f3)">
     <use xlink:href="#C5_0_a416fe8d5c" x="621.249793" y="119.235047" style="fill: #f3701b; stroke: #f3701b"/>
    </g>
    <g clip-path="url(#p75baed33f3)">
     <use xlink:href="#C5_0_a416fe8d5c" x="623.425253" y="112.76961" style="fill: #d84801; stroke: #d84801"/>
    </g>
    <g clip-path="url(#p75baed33f3)">
     <use xlink:href="#C5_0_a416fe8d5c" x="620.363895" y="111.510172" style="fill: #9e3303; stroke: #9e3303"/>
    </g>
   </g>
   <g id="matplotlib.axis_11">
    <g id="xtick_11">
     <g id="line2d_13">
      <g>
       <use xlink:href="#m31fb23c85c" x="582.30692" y="164.996816" style="stroke: #000000; stroke-width: 0.8"/>
      </g>
     </g>
     <g id="text_24">
      <!-- −0.2 -->
      <g transform="translate(570.165514 179.595254) scale(0.1 -0.1)">
       <use xlink:href="#DejaVuSans-2212"/>
       <use xlink:href="#DejaVuSans-30" transform="translate(83.789062 0)"/>
       <use xlink:href="#DejaVuSans-2e" transform="translate(147.412109 0)"/>
       <use xlink:href="#DejaVuSans-32" transform="translate(179.199219 0)"/>
      </g>
     </g>
    </g>
    <g id="xtick_12">
     <g id="line2d_14">
      <g>
       <use xlink:href="#m31fb23c85c" x="634.497836" y="164.996816" style="stroke: #000000; stroke-width: 0.8"/>
      </g>
     </g>
     <g id="text_25">
      <!-- 0.2 -->
      <g transform="translate(626.546274 179.595254) scale(0.1 -0.1)">
       <use xlink:href="#DejaVuSans-30"/>
       <use xlink:href="#DejaVuSans-2e" transform="translate(63.623047 0)"/>
       <use xlink:href="#DejaVuSans-32" transform="translate(95.410156 0)"/>
      </g>
     </g>
    </g>
    <g id="text_26">
     <!-- PC1 -->
     <g transform="translate(598.362793 193.273379) scale(0.1 -0.1)">
      <use xlink:href="#DejaVuSans-50"/>
      <use xlink:href="#DejaVuSans-43" transform="translate(60.302734 0)"/>
      <use xlink:href="#DejaVuSans-31" transform="translate(130.126953 0)"/>
     </g>
    </g>
   </g>
   <g id="matplotlib.axis_12">
    <g id="ytick_11"/>
    <g id="ytick_12"/>
   </g>
   <g id="patch_14">
    <path d="M 582.30692 164.996816 
L 634.497836 164.996816 
" style="fill: none; stroke: #000000; stroke-width: 0.8; stroke-linejoin: miter; stroke-linecap: square"/>
   </g>
   <g id="text_27">
    <!-- SPLa -->
    <g transform="translate(593.603418 62.617414) scale(0.12 -0.12)">
     <defs>
      <path id="DejaVuSans-4c" d="M 628 4666 
L 1259 4666 
L 1259 531 
L 3531 531 
L 3531 0 
L 628 0 
L 628 4666 
z
" transform="scale(0.015625)"/>
      <path id="DejaVuSans-61" d="M 2194 1759 
Q 1497 1759 1228 1600 
Q 959 1441 959 1056 
Q 959 750 1161 570 
Q 1363 391 1709 391 
Q 2188 391 2477 730 
Q 2766 1069 2766 1631 
L 2766 1759 
L 2194 1759 
z
M 3341 1997 
L 3341 0 
L 2766 0 
L 2766 531 
Q 2569 213 2275 61 
Q 1981 -91 1556 -91 
Q 1019 -91 701 211 
Q 384 513 384 1019 
Q 384 1609 779 1909 
Q 1175 2209 1959 2209 
L 2766 2209 
L 2766 2266 
Q 2766 2663 2505 2880 
Q 2244 3097 1772 3097 
Q 1472 3097 1187 3025 
Q 903 2953 641 2809 
L 641 3341 
Q 956 3463 1253 3523 
Q 1550 3584 1831 3584 
Q 2591 3584 2966 3190 
Q 3341 2797 3341 1997 
z
" transform="scale(0.015625)"/>
     </defs>
     <use xlink:href="#DejaVuSans-53"/>
     <use xlink:href="#DejaVuSans-50" transform="translate(63.476562 0)"/>
     <use xlink:href="#DejaVuSans-4c" transform="translate(123.779297 0)"/>
     <use xlink:href="#DejaVuSans-61" transform="translate(179.492188 0)"/>
    </g>
   </g>
  </g>
  <g id="axes_7">
   <g id="patch_15">
    <path d="M 662.240474 164.996816 
L 758.619877 164.996816 
L 758.619877 68.617414 
L 662.240474 68.617414 
z
" style="fill: #ffffff"/>
   </g>
   <g id="PathCollection_7">
    <defs>
     <path id="C6_0_6e4b02e063" d="M 0 3 
C 0.795609 3 1.55874 2.683901 2.12132 2.12132 
C 2.683901 1.55874 3 0.795609 3 -0 
C 3 -0.795609 2.683901 -1.55874 2.12132 -2.12132 
C 1.55874 -2.683901 0.795609 -3 0 -3 
C -0.795609 -3 -1.55874 -2.683901 -2.12132 -2.12132 
C -2.683901 -1.55874 -3 -0.795609 -3 0 
C -3 0.795609 -2.683901 1.55874 -2.12132 2.12132 
C -1.55874 2.683901 -0.795609 3 0 3 
z
"/>
    </defs>
    <g clip-path="url(#pe1874289cf)">
     <use xlink:href="#C6_0_6e4b02e063" x="706.984969" y="101.518428" style="fill: #b8e3b2; stroke: #b8e3b2"/>
    </g>
    <g clip-path="url(#pe1874289cf)">
     <use xlink:href="#C6_0_6e4b02e063" x="714.428803" y="105.934973" style="fill: #86cc85; stroke: #86cc85"/>
    </g>
    <g clip-path="url(#pe1874289cf)">
     <use xlink:href="#C6_0_6e4b02e063" x="717.371287" y="110.986595" style="fill: #4bb062; stroke: #4bb062"/>
    </g>
    <g clip-path="url(#pe1874289cf)">
     <use xlink:href="#C6_0_6e4b02e063" x="732.483885" y="123.353385" style="fill: #228a44; stroke: #228a44"/>
    </g>
    <g clip-path="url(#pe1874289cf)">
     <use xlink:href="#C6_0_6e4b02e063" x="708.657679" y="127.466513" style="fill: #fd9a4e; stroke: #fd9a4e"/>
    </g>
    <g clip-path="url(#pe1874289cf)">
     <use xlink:href="#C6_0_6e4b02e063" x="707.249288" y="121.815541" style="fill: #f3701b; stroke: #f3701b"/>
    </g>
    <g clip-path="url(#pe1874289cf)">
     <use xlink:href="#C6_0_6e4b02e063" x="701.489264" y="119.345872" style="fill: #d84801; stroke: #d84801"/>
    </g>
    <g clip-path="url(#pe1874289cf)">
     <use xlink:href="#C6_0_6e4b02e063" x="697.592913" y="121.218931" style="fill: #9e3303; stroke: #9e3303"/>
    </g>
   </g>
   <g id="matplotlib.axis_13">
    <g id="xtick_13">
     <g id="line2d_15">
      <g>
       <use xlink:href="#m31fb23c85c" x="684.686803" y="164.996816" style="stroke: #000000; stroke-width: 0.8"/>
      </g>
     </g>
     <g id="text_28">
      <!-- −0.2 -->
      <g transform="translate(672.545397 179.595254) scale(0.1 -0.1)">
       <use xlink:href="#DejaVuSans-2212"/>
       <use xlink:href="#DejaVuSans-30" transform="translate(83.789062 0)"/>
       <use xlink:href="#DejaVuSans-2e" transform="translate(147.412109 0)"/>
       <use xlink:href="#DejaVuSans-32" transform="translate(179.199219 0)"/>
      </g>
     </g>
    </g>
    <g id="xtick_14">
     <g id="line2d_16">
      <g>
       <use xlink:href="#m31fb23c85c" x="736.877719" y="164.996816" style="stroke: #000000; stroke-width: 0.8"/>
      </g>
     </g>
     <g id="text_29">
      <!-- 0.2 -->
      <g transform="translate(728.926157 179.595254) scale(0.1 -0.1)">
       <use xlink:href="#DejaVuSans-30"/>
       <use xlink:href="#DejaVuSans-2e" transform="translate(63.623047 0)"/>
       <use xlink:href="#DejaVuSans-32" transform="translate(95.410156 0)"/>
      </g>
     </g>
    </g>
    <g id="text_30">
     <!-- PC1 -->
     <g transform="translate(700.742676 193.273379) scale(0.1 -0.1)">
      <use xlink:href="#DejaVuSans-50"/>
      <use xlink:href="#DejaVuSans-43" transform="translate(60.302734 0)"/>
      <use xlink:href="#DejaVuSans-31" transform="translate(130.126953 0)"/>
     </g>
    </g>
   </g>
   <g id="matplotlib.axis_14">
    <g id="ytick_13"/>
    <g id="ytick_14"/>
   </g>
   <g id="patch_16">
    <path d="M 684.686803 164.996816 
L 736.877719 164.996816 
" style="fill: none; stroke: #000000; stroke-width: 0.8; stroke-linejoin: miter; stroke-linecap: square"/>
   </g>
   <g id="text_31">
    <!-- SPLp -->
    <g transform="translate(695.851113 62.617414) scale(0.12 -0.12)">
     <defs>
      <path id="DejaVuSans-70" d="M 1159 525 
L 1159 -1331 
L 581 -1331 
L 581 3500 
L 1159 3500 
L 1159 2969 
Q 1341 3281 1617 3432 
Q 1894 3584 2278 3584 
Q 2916 3584 3314 3078 
Q 3713 2572 3713 1747 
Q 3713 922 3314 415 
Q 2916 -91 2278 -91 
Q 1894 -91 1617 61 
Q 1341 213 1159 525 
z
M 3116 1747 
Q 3116 2381 2855 2742 
Q 2594 3103 2138 3103 
Q 1681 3103 1420 2742 
Q 1159 2381 1159 1747 
Q 1159 1113 1420 752 
Q 1681 391 2138 391 
Q 2594 391 2855 752 
Q 3116 1113 3116 1747 
z
" transform="scale(0.015625)"/>
     </defs>
     <use xlink:href="#DejaVuSans-53"/>
     <use xlink:href="#DejaVuSans-50" transform="translate(63.476562 0)"/>
     <use xlink:href="#DejaVuSans-4c" transform="translate(123.779297 0)"/>
     <use xlink:href="#DejaVuSans-70" transform="translate(179.492188 0)"/>
    </g>
   </g>
  </g>
  <g id="axes_8">
   <g id="patch_17">
    <path d="M 764.620357 164.996816 
L 860.99976 164.996816 
L 860.99976 68.617414 
L 764.620357 68.617414 
z
" style="fill: #ffffff"/>
   </g>
   <g id="PathCollection_8">
    <defs>
     <path id="C7_0_9b68f15e37" d="M 0 3 
C 0.795609 3 1.55874 2.683901 2.12132 2.12132 
C 2.683901 1.55874 3 0.795609 3 -0 
C 3 -0.795609 2.683901 -1.55874 2.12132 -2.12132 
C 1.55874 -2.683901 0.795609 -3 0 -3 
C -0.795609 -3 -1.55874 -2.683901 -2.12132 -2.12132 
C -2.683901 -1.55874 -3 -0.795609 -3 0 
C -3 0.795609 -2.683901 1.55874 -2.12132 2.12132 
C -1.55874 2.683901 -0.795609 3 0 3 
z
"/>
    </defs>
    <g clip-path="url(#p31d952e967)">
     <use xlink:href="#C7_0_9b68f15e37" x="796.679822" y="127.007142" style="fill: #b8e3b2; stroke: #b8e3b2"/>
    </g>
    <g clip-path="url(#p31d952e967)">
     <use xlink:href="#C7_0_9b68f15e37" x="795.060577" y="119.637895" style="fill: #86cc85; stroke: #86cc85"/>
    </g>
    <g clip-path="url(#p31d952e967)">
     <use xlink:href="#C7_0_9b68f15e37" x="797.99392" y="114.18046" style="fill: #4bb062; stroke: #4bb062"/>
    </g>
    <g clip-path="url(#p31d952e967)">
     <use xlink:href="#C7_0_9b68f15e37" x="803.603288" y="99.946983" style="fill: #228a44; stroke: #228a44"/>
    </g>
    <g clip-path="url(#p31d952e967)">
     <use xlink:href="#C7_0_9b68f15e37" x="826.005429" y="128.821073" style="fill: #fd9a4e; stroke: #fd9a4e"/>
    </g>
    <g clip-path="url(#p31d952e967)">
     <use xlink:href="#C7_0_9b68f15e37" x="828.343844" y="123.239291" style="fill: #f3701b; stroke: #f3701b"/>
    </g>
    <g clip-path="url(#p31d952e967)">
     <use xlink:href="#C7_0_9b68f15e37" x="828.598833" y="114.179296" style="fill: #d84801; stroke: #d84801"/>
    </g>
    <g clip-path="url(#p31d952e967)">
     <use xlink:href="#C7_0_9b68f15e37" x="829.011438" y="104.628099" style="fill: #9e3303; stroke: #9e3303"/>
    </g>
   </g>
   <g id="matplotlib.axis_15">
    <g id="xtick_15">
     <g id="line2d_17">
      <g>
       <use xlink:href="#m31fb23c85c" x="787.066686" y="164.996816" style="stroke: #000000; stroke-width: 0.8"/>
      </g>
     </g>
     <g id="text_32">
      <!-- −0.2 -->
      <g transform="translate(774.92528 179.595254) scale(0.1 -0.1)">
       <use xlink:href="#DejaVuSans-2212"/>
       <use xlink:href="#DejaVuSans-30" transform="translate(83.789062 0)"/>
       <use xlink:href="#DejaVuSans-2e" transform="translate(147.412109 0)"/>
       <use xlink:href="#DejaVuSans-32" transform="translate(179.199219 0)"/>
      </g>
     </g>
    </g>
    <g id="xtick_16">
     <g id="line2d_18">
      <g>
       <use xlink:href="#m31fb23c85c" x="839.257602" y="164.996816" style="stroke: #000000; stroke-width: 0.8"/>
      </g>
     </g>
     <g id="text_33">
      <!-- 0.2 -->
      <g transform="translate(831.306039 179.595254) scale(0.1 -0.1)">
       <use xlink:href="#DejaVuSans-30"/>
       <use xlink:href="#DejaVuSans-2e" transform="translate(63.623047 0)"/>
       <use xlink:href="#DejaVuSans-32" transform="translate(95.410156 0)"/>
      </g>
     </g>
    </g>
    <g id="text_34">
     <!-- PC1 -->
     <g transform="translate(803.122559 193.273379) scale(0.1 -0.1)">
      <use xlink:href="#DejaVuSans-50"/>
      <use xlink:href="#DejaVuSans-43" transform="translate(60.302734 0)"/>
      <use xlink:href="#DejaVuSans-31" transform="translate(130.126953 0)"/>
     </g>
    </g>
   </g>
   <g id="matplotlib.axis_16">
    <g id="ytick_15"/>
    <g id="ytick_16"/>
   </g>
   <g id="patch_18">
    <path d="M 787.066686 164.996816 
L 839.257602 164.996816 
" style="fill: none; stroke: #000000; stroke-width: 0.8; stroke-linejoin: miter; stroke-linecap: square"/>
   </g>
   <g id="text_35">
    <!-- V1 -->
    <g transform="translate(804.888184 62.617414) scale(0.12 -0.12)">
     <defs>
      <path id="DejaVuSans-56" d="M 1831 0 
L 50 4666 
L 709 4666 
L 2188 738 
L 3669 4666 
L 4325 4666 
L 2547 0 
L 1831 0 
z
" transform="scale(0.015625)"/>
     </defs>
     <use xlink:href="#DejaVuSans-56"/>
     <use xlink:href="#DejaVuSans-31" transform="translate(68.408203 0)"/>
    </g>
   </g>
  </g>
  <g id="text_36">
   <!-- Multidimensional scaling -->
   <g transform="translate(357.95625 12.118365) scale(0.12 -0.12)">
    <defs>
     <path id="DejaVuSans-75" d="M 544 1381 
L 544 3500 
L 1119 3500 
L 1119 1403 
Q 1119 906 1312 657 
Q 1506 409 1894 409 
Q 2359 409 2629 706 
Q 2900 1003 2900 1516 
L 2900 3500 
L 3475 3500 
L 3475 0 
L 2900 0 
L 2900 538 
Q 2691 219 2414 64 
Q 2138 -91 1772 -91 
Q 1169 -91 856 284 
Q 544 659 544 1381 
z
M 1991 3584 
L 1991 3584 
z
" transform="scale(0.015625)"/>
     <path id="DejaVuSans-6c" d="M 603 4863 
L 1178 4863 
L 1178 0 
L 603 0 
L 603 4863 
z
" transform="scale(0.015625)"/>
     <path id="DejaVuSans-74" d="M 1172 4494 
L 1172 3500 
L 2356 3500 
L 2356 3053 
L 1172 3053 
L 1172 1153 
Q 1172 725 1289 603 
Q 1406 481 1766 481 
L 2356 481 
L 2356 0 
L 1766 0 
Q 1100 0 847 248 
Q 594 497 594 1153 
L 594 3053 
L 172 3053 
L 172 3500 
L 594 3500 
L 594 4494 
L 1172 4494 
z
" transform="scale(0.015625)"/>
     <path id="DejaVuSans-69" d="M 603 3500 
L 1178 3500 
L 1178 0 
L 603 0 
L 603 3500 
z
M 603 4863 
L 1178 4863 
L 1178 4134 
L 603 4134 
L 603 4863 
z
" transform="scale(0.015625)"/>
     <path id="DejaVuSans-6d" d="M 3328 2828 
Q 3544 3216 3844 3400 
Q 4144 3584 4550 3584 
Q 5097 3584 5394 3201 
Q 5691 2819 5691 2113 
L 5691 0 
L 5113 0 
L 5113 2094 
Q 5113 2597 4934 2840 
Q 4756 3084 4391 3084 
Q 3944 3084 3684 2787 
Q 3425 2491 3425 1978 
L 3425 0 
L 2847 0 
L 2847 2094 
Q 2847 2600 2669 2842 
Q 2491 3084 2119 3084 
Q 1678 3084 1418 2786 
Q 1159 2488 1159 1978 
L 1159 0 
L 581 0 
L 581 3500 
L 1159 3500 
L 1159 2956 
Q 1356 3278 1631 3431 
Q 1906 3584 2284 3584 
Q 2666 3584 2933 3390 
Q 3200 3197 3328 2828 
z
" transform="scale(0.015625)"/>
     <path id="DejaVuSans-65" d="M 3597 1894 
L 3597 1613 
L 953 1613 
Q 991 1019 1311 708 
Q 1631 397 2203 397 
Q 2534 397 2845 478 
Q 3156 559 3463 722 
L 3463 178 
Q 3153 47 2828 -22 
Q 2503 -91 2169 -91 
Q 1331 -91 842 396 
Q 353 884 353 1716 
Q 353 2575 817 3079 
Q 1281 3584 2069 3584 
Q 2775 3584 3186 3129 
Q 3597 2675 3597 1894 
z
M 3022 2063 
Q 3016 2534 2758 2815 
Q 2500 3097 2075 3097 
Q 1594 3097 1305 2825 
Q 1016 2553 972 2059 
L 3022 2063 
z
" transform="scale(0.015625)"/>
     <path id="DejaVuSans-6e" d="M 3513 2113 
L 3513 0 
L 2938 0 
L 2938 2094 
Q 2938 2591 2744 2837 
Q 2550 3084 2163 3084 
Q 1697 3084 1428 2787 
Q 1159 2491 1159 1978 
L 1159 0 
L 581 0 
L 581 3500 
L 1159 3500 
L 1159 2956 
Q 1366 3272 1645 3428 
Q 1925 3584 2291 3584 
Q 2894 3584 3203 3211 
Q 3513 2838 3513 2113 
z
" transform="scale(0.015625)"/>
     <path id="DejaVuSans-73" d="M 2834 3397 
L 2834 2853 
Q 2591 2978 2328 3040 
Q 2066 3103 1784 3103 
Q 1356 3103 1142 2972 
Q 928 2841 928 2578 
Q 928 2378 1081 2264 
Q 1234 2150 1697 2047 
L 1894 2003 
Q 2506 1872 2764 1633 
Q 3022 1394 3022 966 
Q 3022 478 2636 193 
Q 2250 -91 1575 -91 
Q 1294 -91 989 -36 
Q 684 19 347 128 
L 347 722 
Q 666 556 975 473 
Q 1284 391 1588 391 
Q 1994 391 2212 530 
Q 2431 669 2431 922 
Q 2431 1156 2273 1281 
Q 2116 1406 1581 1522 
L 1381 1569 
Q 847 1681 609 1914 
Q 372 2147 372 2553 
Q 372 3047 722 3315 
Q 1072 3584 1716 3584 
Q 2034 3584 2315 3537 
Q 2597 3491 2834 3397 
z
" transform="scale(0.015625)"/>
     <path id="DejaVuSans-6f" d="M 1959 3097 
Q 1497 3097 1228 2736 
Q 959 2375 959 1747 
Q 959 1119 1226 758 
Q 1494 397 1959 397 
Q 2419 397 2687 759 
Q 2956 1122 2956 1747 
Q 2956 2369 2687 2733 
Q 2419 3097 1959 3097 
z
M 1959 3584 
Q 2709 3584 3137 3096 
Q 3566 2609 3566 1747 
Q 3566 888 3137 398 
Q 2709 -91 1959 -91 
Q 1206 -91 779 398 
Q 353 888 353 1747 
Q 353 2609 779 3096 
Q 1206 3584 1959 3584 
z
" transform="scale(0.015625)"/>
     <path id="DejaVuSans-20" transform="scale(0.015625)"/>
     <path id="DejaVuSans-63" d="M 3122 3366 
L 3122 2828 
Q 2878 2963 2633 3030 
Q 2388 3097 2138 3097 
Q 1578 3097 1268 2742 
Q 959 2388 959 1747 
Q 959 1106 1268 751 
Q 1578 397 2138 397 
Q 2388 397 2633 464 
Q 2878 531 3122 666 
L 3122 134 
Q 2881 22 2623 -34 
Q 2366 -91 2075 -91 
Q 1284 -91 818 406 
Q 353 903 353 1747 
Q 353 2603 823 3093 
Q 1294 3584 2113 3584 
Q 2378 3584 2631 3529 
Q 2884 3475 3122 3366 
z
" transform="scale(0.015625)"/>
     <path id="DejaVuSans-67" d="M 2906 1791 
Q 2906 2416 2648 2759 
Q 2391 3103 1925 3103 
Q 1463 3103 1205 2759 
Q 947 2416 947 1791 
Q 947 1169 1205 825 
Q 1463 481 1925 481 
Q 2391 481 2648 825 
Q 2906 1169 2906 1791 
z
M 3481 434 
Q 3481 -459 3084 -895 
Q 2688 -1331 1869 -1331 
Q 1566 -1331 1297 -1286 
Q 1028 -1241 775 -1147 
L 775 -588 
Q 1028 -725 1275 -790 
Q 1522 -856 1778 -856 
Q 2344 -856 2625 -561 
Q 2906 -266 2906 331 
L 2906 616 
Q 2728 306 2450 153 
Q 2172 0 1784 0 
Q 1141 0 747 490 
Q 353 981 353 1791 
Q 353 2603 747 3093 
Q 1141 3584 1784 3584 
Q 2172 3584 2450 3431 
Q 2728 3278 2906 2969 
L 2906 3500 
L 3481 3500 
L 3481 434 
z
" transform="scale(0.015625)"/>
    </defs>
    <use xlink:href="#DejaVuSans-4d"/>
    <use xlink:href="#DejaVuSans-75" transform="translate(86.279297 0)"/>
    <use xlink:href="#DejaVuSans-6c" transform="translate(149.658203 0)"/>
    <use xlink:href="#DejaVuSans-74" transform="translate(177.441406 0)"/>
    <use xlink:href="#DejaVuSans-69" transform="translate(216.650391 0)"/>
    <use xlink:href="#DejaVuSans-64" transform="translate(244.433594 0)"/>
    <use xlink:href="#DejaVuSans-69" transform="translate(307.910156 0)"/>
    <use xlink:href="#DejaVuSans-6d" transform="translate(335.693359 0)"/>
    <use xlink:href="#DejaVuSans-65" transform="translate(433.105469 0)"/>
    <use xlink:href="#DejaVuSans-6e" transform="translate(494.628906 0)"/>
    <use xlink:href="#DejaVuSans-73" transform="translate(558.007812 0)"/>
    <use xlink:href="#DejaVuSans-69" transform="translate(610.107422 0)"/>
    <use xlink:href="#DejaVuSans-6f" transform="translate(637.890625 0)"/>
    <use xlink:href="#DejaVuSans-6e" transform="translate(699.072266 0)"/>
    <use xlink:href="#DejaVuSans-61" transform="translate(762.451172 0)"/>
    <use xlink:href="#DejaVuSans-6c" transform="translate(823.730469 0)"/>
    <use xlink:href="#DejaVuSans-20" transform="translate(851.513672 0)"/>
    <use xlink:href="#DejaVuSans-73" transform="translate(883.300781 0)"/>
    <use xlink:href="#DejaVuSans-63" transform="translate(935.400391 0)"/>
    <use xlink:href="#DejaVuSans-61" transform="translate(990.380859 0)"/>
    <use xlink:href="#DejaVuSans-6c" transform="translate(1051.660156 0)"/>
    <use xlink:href="#DejaVuSans-69" transform="translate(1079.443359 0)"/>
    <use xlink:href="#DejaVuSans-6e" transform="translate(1107.226562 0)"/>
    <use xlink:href="#DejaVuSans-67" transform="translate(1170.605469 0)"/>
   </g>
  </g>
 </g>
 <defs>
  <clipPath id="p7daff7174c">
   <rect x="47.961178" y="68.617414" width="96.379403" height="96.379403"/>
  </clipPath>
  <clipPath id="pca86383412">
   <rect x="150.34106" y="68.617414" width="96.379403" height="96.379403"/>
  </clipPath>
  <clipPath id="pa7b24fd2ad">
   <rect x="252.720943" y="68.617414" width="96.379403" height="96.379403"/>
  </clipPath>
  <clipPath id="pf00885e54c">
   <rect x="355.100826" y="68.617414" width="96.379403" height="96.379403"/>
  </clipPath>
  <clipPath id="pcc4277e374">
   <rect x="457.480709" y="68.617414" width="96.379403" height="96.379403"/>
  </clipPath>
  <clipPath id="p75baed33f3">
   <rect x="559.860592" y="68.617414" width="96.379403" height="96.379403"/>
  </clipPath>
  <clipPath id="pe1874289cf">
   <rect x="662.240474" y="68.617414" width="96.379403" height="96.379403"/>
  </clipPath>
  <clipPath id="p31d952e967">
   <rect x="764.620357" y="68.617414" width="96.379403" height="96.379403"/>
  </clipPath>
 </defs>
</svg>
