<?xml version="1.0" encoding="utf-8" standalone="no"?>
<!DOCTYPE svg PUBLIC "-//W3C//DTD SVG 1.1//EN"
  "http://www.w3.org/Graphics/SVG/1.1/DTD/svg11.dtd">
<svg xmlns:xlink="http://www.w3.org/1999/xlink" width="360pt" height="576pt" viewBox="0 0 360 576" xmlns="http://www.w3.org/2000/svg" version="1.1">
 <metadata>
  <rdf:RDF xmlns:dc="http://purl.org/dc/elements/1.1/" xmlns:cc="http://creativecommons.org/ns#" xmlns:rdf="http://www.w3.org/1999/02/22-rdf-syntax-ns#">
   <cc:Work>
    <dc:type rdf:resource="http://purl.org/dc/dcmitype/StillImage"/>
    <dc:date>2025-07-17T11:53:54.324177</dc:date>
    <dc:format>image/svg+xml</dc:format>
    <dc:creator>
     <cc:Agent>
      <dc:title>Matplotlib v3.10.1, https://matplotlib.org/</dc:title>
     </cc:Agent>
    </dc:creator>
   </cc:Work>
  </rdf:RDF>
 </metadata>
 <defs>
  <style type="text/css">*{stroke-linejoin: round; stroke-linecap: butt}</style>
 </defs>
 <g id="figure_1">
  <g id="patch_1">
   <path d="M 0 576 
L 360 576 
L 360 0 
L 0 0 
z
" style="fill: #ffffff"/>
  </g>
  <g id="axes_1">
   <g id="patch_2">
    <path d="M 54.43 103.524702 
L 290.930718 103.524702 
L 290.930718 50.64 
L 54.43 50.64 
z
" style="fill: #ffffff"/>
   </g>
   <g id="matplotlib.axis_1">
    <g id="xtick_1"/>
   </g>
   <g id="matplotlib.axis_2">
    <g id="ytick_1">
     <g id="line2d_1">
      <defs>
       <path id="mf320c60565" d="M 0 0 
L -3.5 0 
" style="stroke: #000000; stroke-width: 0.8"/>
      </defs>
      <g>
       <use xlink:href="#mf320c60565" x="54.43" y="102.691872" style="stroke: #000000; stroke-width: 0.8"/>
      </g>
     </g>
     <g id="text_1">
      <!-- 0.0 -->
      <g transform="translate(31.526875 106.49109) scale(0.1 -0.1)">
       <defs>
        <path id="DejaVuSans-30" d="M 2034 4250 
Q 1547 4250 1301 3770 
Q 1056 3291 1056 2328 
Q 1056 1369 1301 889 
Q 1547 409 2034 409 
Q 2525 409 2770 889 
Q 3016 1369 3016 2328 
Q 3016 3291 2770 3770 
Q 2525 4250 2034 4250 
z
M 2034 4750 
Q 2819 4750 3233 4129 
Q 3647 3509 3647 2328 
Q 3647 1150 3233 529 
Q 2819 -91 2034 -91 
Q 1250 -91 836 529 
Q 422 1150 422 2328 
Q 422 3509 836 4129 
Q 1250 4750 2034 4750 
z
" transform="scale(0.015625)"/>
        <path id="DejaVuSans-2e" d="M 684 794 
L 1344 794 
L 1344 0 
L 684 0 
L 684 794 
z
" transform="scale(0.015625)"/>
       </defs>
       <use xlink:href="#DejaVuSans-30"/>
       <use xlink:href="#DejaVuSans-2e" transform="translate(63.623047 0)"/>
       <use xlink:href="#DejaVuSans-30" transform="translate(95.410156 0)"/>
      </g>
     </g>
    </g>
    <g id="ytick_2">
     <g id="line2d_2">
      <g>
       <use xlink:href="#mf320c60565" x="54.43" y="50.64" style="stroke: #000000; stroke-width: 0.8"/>
      </g>
     </g>
     <g id="text_2">
      <!-- 0.5 -->
      <g transform="translate(31.526875 54.439219) scale(0.1 -0.1)">
       <defs>
        <path id="DejaVuSans-35" d="M 691 4666 
L 3169 4666 
L 3169 4134 
L 1269 4134 
L 1269 2991 
Q 1406 3038 1543 3061 
Q 1681 3084 1819 3084 
Q 2600 3084 3056 2656 
Q 3513 2228 3513 1497 
Q 3513 744 3044 326 
Q 2575 -91 1722 -91 
Q 1428 -91 1123 -41 
Q 819 9 494 109 
L 494 744 
Q 775 591 1075 516 
Q 1375 441 1709 441 
Q 2250 441 2565 725 
Q 2881 1009 2881 1497 
Q 2881 1984 2565 2268 
Q 2250 2553 1709 2553 
Q 1456 2553 1204 2497 
Q 953 2441 691 2322 
L 691 4666 
z
" transform="scale(0.015625)"/>
       </defs>
       <use xlink:href="#DejaVuSans-30"/>
       <use xlink:href="#DejaVuSans-2e" transform="translate(63.623047 0)"/>
       <use xlink:href="#DejaVuSans-35" transform="translate(95.410156 0)"/>
      </g>
     </g>
    </g>
   </g>
   <g id="line2d_3">
    <path d="M 54.43 100.161227 
L 60.060969 100.163269 
L 65.691939 99.869545 
L 82.584847 99.541121 
L 105.108725 99.270132 
L 107.92421 99.060881 
L 110.739695 98.600978 
L 116.370664 98.116497 
L 127.632603 97.407571 
L 136.079057 96.86212 
L 141.710027 96.228303 
L 152.971966 95.412093 
L 164.233905 94.807948 
L 178.311329 94.299706 
L 195.204237 93.769692 
L 200.835207 93.483912 
L 203.650691 93.395563 
L 212.097146 92.772272 
L 223.359084 92.109064 
L 237.436508 91.531261 
L 257.144901 90.962668 
L 279.668779 90.520494 
L 288.115234 90.465964 
L 290.930718 89.567862 
L 321.90105 87.947484 
L 338.793959 86.359878 
L 344.424928 85.77521 
L 350.055898 84.881869 
L 361 83.436367 
L 361 83.436367 
" clip-path="url(#p13f8fda4c7)" style="fill: none; stroke: #ff0000; stroke-width: 1.5; stroke-linecap: square"/>
   </g>
   <g id="line2d_4">
    <path d="M 54.43 101.401224 
L 71.322908 101.825536 
L 96.662271 102.691859 
L 183.942298 102.691872 
L 186.757783 102.446254 
L 195.204237 102.144379 
L 214.91263 101.715195 
L 240.251993 101.400491 
L 257.144901 101.209462 
L 276.853295 100.37292 
L 282.484264 100.009871 
L 288.115234 99.767739 
L 290.930718 101.293622 
L 299.377172 100.831673 
L 319.085566 100.030126 
L 333.162989 99.002213 
L 338.793959 98.640354 
L 344.424928 98.383055 
L 361 97.302909 
L 361 97.302909 
" clip-path="url(#p13f8fda4c7)" style="fill: none; stroke: #0000ff; stroke-width: 1.5; stroke-linecap: square"/>
   </g>
   <g id="line2d_5">
    <path d="M 54.43 102.691872 
L 290.930718 102.691872 
" clip-path="url(#p13f8fda4c7)" style="fill: none; stroke: #000000; stroke-width: 0.8; stroke-linecap: square"/>
   </g>
   <g id="line2d_6">
    <path d="M 54.43 86.81612 
L 79.769363 85.74531 
L 107.92421 84.31757 
L 136.079057 82.920738 
L 150.156481 82.459378 
L 161.41842 82.290515 
L 172.680359 82.311365 
L 186.757783 82.564741 
L 203.650691 83.105011 
L 228.990054 84.178596 
L 251.513932 85.070148 
L 265.591356 85.391141 
L 276.853295 85.423247 
L 288.115234 85.189766 
L 290.930718 85.852378 
L 299.377172 85.479153 
L 307.823627 84.910855 
L 316.270081 84.162044 
L 327.53202 82.928631 
L 341.609444 81.114041 
L 361 78.411508 
L 361 78.411508 
" clip-path="url(#p13f8fda4c7)" style="fill: none; stroke-dasharray: 5.55,2.4; stroke-dashoffset: 0; stroke: #000000; stroke-width: 1.5"/>
   </g>
   <g id="line2d_7">
    <path d="M 110.739695 103.524702 
L 110.739695 50.64 
" clip-path="url(#p13f8fda4c7)" style="fill: none; stroke: #000000; stroke-width: 0.8; stroke-linecap: square"/>
   </g>
   <g id="patch_3">
    <path d="M 54.43 102.691872 
L 54.43 50.64 
" style="fill: none; stroke: #000000; stroke-width: 0.8; stroke-linejoin: miter; stroke-linecap: square"/>
   </g>
   <g id="text_3">
    <!-- delta -->
    <g transform="translate(157.483484 44.64) scale(0.12 -0.12)">
     <defs>
      <path id="DejaVuSans-64" d="M 2906 2969 
L 2906 4863 
L 3481 4863 
L 3481 0 
L 2906 0 
L 2906 525 
Q 2725 213 2448 61 
Q 2172 -91 1784 -91 
Q 1150 -91 751 415 
Q 353 922 353 1747 
Q 353 2572 751 3078 
Q 1150 3584 1784 3584 
Q 2172 3584 2448 3432 
Q 2725 3281 2906 2969 
z
M 947 1747 
Q 947 1113 1208 752 
Q 1469 391 1925 391 
Q 2381 391 2643 752 
Q 2906 1113 2906 1747 
Q 2906 2381 2643 2742 
Q 2381 3103 1925 3103 
Q 1469 3103 1208 2742 
Q 947 2381 947 1747 
z
" transform="scale(0.015625)"/>
      <path id="DejaVuSans-65" d="M 3597 1894 
L 3597 1613 
L 953 1613 
Q 991 1019 1311 708 
Q 1631 397 2203 397 
Q 2534 397 2845 478 
Q 3156 559 3463 722 
L 3463 178 
Q 3153 47 2828 -22 
Q 2503 -91 2169 -91 
Q 1331 -91 842 396 
Q 353 884 353 1716 
Q 353 2575 817 3079 
Q 1281 3584 2069 3584 
Q 2775 3584 3186 3129 
Q 3597 2675 3597 1894 
z
M 3022 2063 
Q 3016 2534 2758 2815 
Q 2500 3097 2075 3097 
Q 1594 3097 1305 2825 
Q 1016 2553 972 2059 
L 3022 2063 
z
" transform="scale(0.015625)"/>
      <path id="DejaVuSans-6c" d="M 603 4863 
L 1178 4863 
L 1178 0 
L 603 0 
L 603 4863 
z
" transform="scale(0.015625)"/>
      <path id="DejaVuSans-74" d="M 1172 4494 
L 1172 3500 
L 2356 3500 
L 2356 3053 
L 1172 3053 
L 1172 1153 
Q 1172 725 1289 603 
Q 1406 481 1766 481 
L 2356 481 
L 2356 0 
L 1766 0 
Q 1100 0 847 248 
Q 594 497 594 1153 
L 594 3053 
L 172 3053 
L 172 3500 
L 594 3500 
L 594 4494 
L 1172 4494 
z
" transform="scale(0.015625)"/>
      <path id="DejaVuSans-61" d="M 2194 1759 
Q 1497 1759 1228 1600 
Q 959 1441 959 1056 
Q 959 750 1161 570 
Q 1363 391 1709 391 
Q 2188 391 2477 730 
Q 2766 1069 2766 1631 
L 2766 1759 
L 2194 1759 
z
M 3341 1997 
L 3341 0 
L 2766 0 
L 2766 531 
Q 2569 213 2275 61 
Q 1981 -91 1556 -91 
Q 1019 -91 701 211 
Q 384 513 384 1019 
Q 384 1609 779 1909 
Q 1175 2209 1959 2209 
L 2766 2209 
L 2766 2266 
Q 2766 2663 2505 2880 
Q 2244 3097 1772 3097 
Q 1472 3097 1187 3025 
Q 903 2953 641 2809 
L 641 3341 
Q 956 3463 1253 3523 
Q 1550 3584 1831 3584 
Q 2591 3584 2966 3190 
Q 3341 2797 3341 1997 
z
" transform="scale(0.015625)"/>
     </defs>
     <use xlink:href="#DejaVuSans-64"/>
     <use xlink:href="#DejaVuSans-65" transform="translate(63.476562 0)"/>
     <use xlink:href="#DejaVuSans-6c" transform="translate(125 0)"/>
     <use xlink:href="#DejaVuSans-74" transform="translate(152.783203 0)"/>
     <use xlink:href="#DejaVuSans-61" transform="translate(191.992188 0)"/>
    </g>
   </g>
  </g>
  <g id="axes_2">
   <g id="patch_4">
    <path d="M 304.519466 103.524702 
L 343.936252 103.524702 
L 343.936252 50.64 
L 304.519466 50.64 
z
" style="fill: #ffffff"/>
   </g>
   <g id="matplotlib.axis_3">
    <g id="xtick_2"/>
    <g id="xtick_3"/>
   </g>
   <g id="matplotlib.axis_4">
    <g id="ytick_3"/>
    <g id="ytick_4"/>
   </g>
   <g id="line2d_8">
    <path d="M 310.150435 99.619421 
L 338.305283 93.628332 
" clip-path="url(#p38c01bcb31)" style="fill: none; stroke: #ff0000; stroke-width: 1.5; stroke-linecap: square"/>
    <defs>
     <path id="m5205514766" d="M -2.5 2.5 
L 2.5 2.5 
L 2.5 -2.5 
L -2.5 -2.5 
z
" style="stroke: #ff0000; stroke-linejoin: miter"/>
    </defs>
    <g clip-path="url(#p38c01bcb31)">
     <use xlink:href="#m5205514766" x="310.150435" y="99.619421" style="fill: #ff0000; stroke: #ff0000; stroke-linejoin: miter"/>
     <use xlink:href="#m5205514766" x="338.305283" y="93.628332" style="fill: #ff0000; stroke: #ff0000; stroke-linejoin: miter"/>
    </g>
   </g>
   <g id="line2d_9">
    <path d="M 310.150435 102.144525 
L 338.305283 101.901178 
" clip-path="url(#p38c01bcb31)" style="fill: none; stroke: #0000ff; stroke-width: 1.5; stroke-linecap: square"/>
    <defs>
     <path id="md729f36874" d="M -2.5 2.5 
L 2.5 2.5 
L 2.5 -2.5 
L -2.5 -2.5 
z
" style="stroke: #0000ff; stroke-linejoin: miter"/>
    </defs>
    <g clip-path="url(#p38c01bcb31)">
     <use xlink:href="#md729f36874" x="310.150435" y="102.144525" style="fill: #0000ff; stroke: #0000ff; stroke-linejoin: miter"/>
     <use xlink:href="#md729f36874" x="338.305283" y="101.901178" style="fill: #0000ff; stroke: #0000ff; stroke-linejoin: miter"/>
    </g>
   </g>
  </g>
  <g id="axes_3">
   <g id="patch_5">
    <path d="M 54.43 186.499761 
L 290.930718 186.499761 
L 290.930718 133.61506 
L 54.43 133.61506 
z
" style="fill: #ffffff"/>
   </g>
   <g id="matplotlib.axis_5">
    <g id="xtick_4"/>
   </g>
   <g id="matplotlib.axis_6">
    <g id="ytick_5">
     <g id="line2d_10">
      <g>
       <use xlink:href="#mf320c60565" x="54.43" y="185.666931" style="stroke: #000000; stroke-width: 0.8"/>
      </g>
     </g>
     <g id="text_4">
      <!-- 0.0 -->
      <g transform="translate(31.526875 189.46615) scale(0.1 -0.1)">
       <use xlink:href="#DejaVuSans-30"/>
       <use xlink:href="#DejaVuSans-2e" transform="translate(63.623047 0)"/>
       <use xlink:href="#DejaVuSans-30" transform="translate(95.410156 0)"/>
      </g>
     </g>
    </g>
    <g id="ytick_6">
     <g id="line2d_11">
      <g>
       <use xlink:href="#mf320c60565" x="54.43" y="133.61506" style="stroke: #000000; stroke-width: 0.8"/>
      </g>
     </g>
     <g id="text_5">
      <!-- 0.5 -->
      <g transform="translate(31.526875 137.414278) scale(0.1 -0.1)">
       <use xlink:href="#DejaVuSans-30"/>
       <use xlink:href="#DejaVuSans-2e" transform="translate(63.623047 0)"/>
       <use xlink:href="#DejaVuSans-35" transform="translate(95.410156 0)"/>
      </g>
     </g>
    </g>
   </g>
   <g id="line2d_12">
    <path d="M 54.43 185.463932 
L 57.245485 185.18469 
L 65.691939 184.786365 
L 68.507424 184.081382 
L 74.138393 183.236848 
L 82.584847 182.298951 
L 91.031302 181.529706 
L 99.477756 180.959236 
L 105.108725 180.727184 
L 110.739695 180.669355 
L 116.370664 180.85763 
L 119.186149 181.081368 
L 124.817119 181.832331 
L 130.448088 182.401427 
L 136.079057 183.217143 
L 138.894542 183.746772 
L 141.710027 184.46066 
L 144.525512 185.334709 
L 147.340996 185.418487 
L 155.787451 185.097003 
L 164.233905 184.860909 
L 167.04939 184.254265 
L 169.864874 183.877029 
L 172.680359 183.113601 
L 175.495844 182.621515 
L 178.311329 181.984209 
L 183.942298 181.111824 
L 189.573268 180.366175 
L 192.388752 179.482508 
L 195.204237 178.919014 
L 198.019722 178.169311 
L 203.650691 177.010649 
L 212.097146 175.501024 
L 217.728115 174.597891 
L 223.359084 173.089378 
L 226.174569 172.296982 
L 228.990054 171.691683 
L 231.805539 171.231828 
L 234.621023 170.930859 
L 237.436508 170.807336 
L 240.251993 170.883595 
L 243.067478 171.190466 
L 248.698447 172.586688 
L 251.513932 173.566788 
L 257.144901 174.662817 
L 262.775871 176.040181 
L 268.40684 177.559743 
L 271.222325 178.163842 
L 282.484264 179.24288 
L 288.115234 179.595178 
L 290.930718 172.933288 
L 299.377172 174.156205 
L 302.192657 174.628926 
L 305.008142 174.777455 
L 307.823627 174.636257 
L 310.639111 174.673932 
L 316.270081 175.043357 
L 321.90105 175.612565 
L 324.716535 176.016381 
L 327.53202 176.784212 
L 335.978474 177.582098 
L 338.793959 177.493156 
L 341.609444 176.722204 
L 344.424928 175.543242 
L 355.686867 170.139178 
L 358.502352 168.99628 
L 361 168.106302 
L 361 168.106302 
" clip-path="url(#p428a1431ff)" style="fill: none; stroke: #ff0000; stroke-width: 1.5; stroke-linecap: square"/>
   </g>
   <g id="line2d_13">
    <path d="M 54.43 184.536329 
L 57.245485 184.235599 
L 60.060969 183.669399 
L 65.691939 183.012153 
L 71.322908 182.581867 
L 76.953878 182.312912 
L 85.400332 182.18477 
L 96.662271 182.348999 
L 99.477756 182.438622 
L 102.293241 182.255169 
L 107.92421 182.210342 
L 113.55518 182.335614 
L 116.370664 182.486221 
L 119.186149 182.758127 
L 122.001634 182.786766 
L 124.817119 182.684354 
L 130.448088 182.788106 
L 136.079057 183.156338 
L 144.525512 184.127009 
L 147.340996 184.404098 
L 152.971966 184.729863 
L 155.787451 185.104077 
L 164.233905 185.038317 
L 169.864874 184.940257 
L 175.495844 184.992304 
L 181.126813 185.221747 
L 206.466176 185.040282 
L 220.5436 185.093083 
L 228.990054 185.279028 
L 231.805539 185.410671 
L 234.621023 185.666931 
L 254.329417 185.666927 
L 259.960386 184.862862 
L 268.40684 184.232011 
L 288.115234 183.122967 
L 290.930718 178.044307 
L 299.377172 177.631483 
L 307.823627 177.430703 
L 310.639111 177.128268 
L 313.454596 177.071323 
L 319.085566 177.286271 
L 330.347505 178.313556 
L 333.162989 178.772869 
L 338.793959 179.210361 
L 341.609444 179.28321 
L 347.240413 179.846924 
L 350.055898 179.830931 
L 352.871383 179.417818 
L 358.502352 179.181338 
L 361 179.202954 
L 361 179.202954 
" clip-path="url(#p428a1431ff)" style="fill: none; stroke: #0000ff; stroke-width: 1.5; stroke-linecap: square"/>
   </g>
   <g id="line2d_14">
    <path d="M 54.43 185.666931 
L 290.930718 185.666931 
" clip-path="url(#p428a1431ff)" style="fill: none; stroke: #000000; stroke-width: 0.8; stroke-linecap: square"/>
   </g>
   <g id="line2d_15">
    <path d="M 68.507424 184.276728 
L 71.322908 182.078382 
L 74.138393 180.934852 
L 76.953878 180.152281 
L 79.769363 179.59138 
L 82.584847 179.188605 
L 88.215817 178.72276 
L 93.846786 178.582478 
L 99.477756 178.690577 
L 107.92421 179.148949 
L 113.55518 179.604485 
L 119.186149 180.341809 
L 122.001634 180.918318 
L 124.817119 181.720328 
L 127.632603 182.927076 
M 200.835207 182.032556 
L 203.650691 180.035169 
L 206.466176 178.445348 
L 212.097146 175.685407 
L 217.728115 173.195814 
L 223.359084 170.941455 
L 228.990054 169.012595 
L 231.805539 168.216066 
L 234.621023 167.565007 
L 237.436508 167.08073 
L 240.251993 166.778893 
L 243.067478 166.673661 
L 245.882962 166.770723 
L 248.698447 167.059926 
L 251.513932 167.522683 
L 254.329417 168.139881 
L 257.144901 168.900123 
L 259.960386 169.807126 
L 262.775871 170.872452 
L 265.591356 172.104711 
L 268.40684 173.519366 
L 271.222325 175.145922 
L 274.03781 177.037256 
L 276.853295 179.329191 
L 279.668779 182.667774 
M 290.930718 170.55053 
L 296.561688 171.012642 
L 302.192657 171.172474 
L 307.823627 171.03531 
L 333.162989 169.922769 
L 335.978474 169.653844 
L 338.793959 169.251768 
L 341.609444 168.668756 
L 344.424928 167.858453 
L 347.240413 166.797436 
L 350.055898 165.512539 
L 358.502352 161.245077 
L 361 160.132174 
L 361 160.132174 
" clip-path="url(#p428a1431ff)" style="fill: none; stroke-dasharray: 5.55,2.4; stroke-dashoffset: 0; stroke: #000000; stroke-width: 1.5"/>
   </g>
   <g id="line2d_16">
    <path d="M 110.739695 186.499761 
L 110.739695 133.61506 
" clip-path="url(#p428a1431ff)" style="fill: none; stroke: #000000; stroke-width: 0.8; stroke-linecap: square"/>
   </g>
   <g id="patch_6">
    <path d="M 54.43 185.666931 
L 54.43 133.61506 
" style="fill: none; stroke: #000000; stroke-width: 0.8; stroke-linejoin: miter; stroke-linecap: square"/>
   </g>
   <g id="text_6">
    <!-- theta -->
    <g transform="translate(156.804734 127.61506) scale(0.12 -0.12)">
     <defs>
      <path id="DejaVuSans-68" d="M 3513 2113 
L 3513 0 
L 2938 0 
L 2938 2094 
Q 2938 2591 2744 2837 
Q 2550 3084 2163 3084 
Q 1697 3084 1428 2787 
Q 1159 2491 1159 1978 
L 1159 0 
L 581 0 
L 581 4863 
L 1159 4863 
L 1159 2956 
Q 1366 3272 1645 3428 
Q 1925 3584 2291 3584 
Q 2894 3584 3203 3211 
Q 3513 2838 3513 2113 
z
" transform="scale(0.015625)"/>
     </defs>
     <use xlink:href="#DejaVuSans-74"/>
     <use xlink:href="#DejaVuSans-68" transform="translate(39.208984 0)"/>
     <use xlink:href="#DejaVuSans-65" transform="translate(102.587891 0)"/>
     <use xlink:href="#DejaVuSans-74" transform="translate(164.111328 0)"/>
     <use xlink:href="#DejaVuSans-61" transform="translate(203.320312 0)"/>
    </g>
   </g>
  </g>
  <g id="axes_4">
   <g id="patch_7">
    <path d="M 304.519466 186.499761 
L 343.936252 186.499761 
L 343.936252 133.61506 
L 304.519466 133.61506 
z
" style="fill: #ffffff"/>
   </g>
   <g id="matplotlib.axis_7">
    <g id="xtick_5"/>
    <g id="xtick_6"/>
   </g>
   <g id="matplotlib.axis_8">
    <g id="ytick_7"/>
    <g id="ytick_8"/>
   </g>
   <g id="line2d_17">
    <path d="M 310.150435 182.750722 
L 338.305283 178.844652 
" clip-path="url(#p62711e84f5)" style="fill: none; stroke: #ff0000; stroke-width: 1.5; stroke-linecap: square"/>
    <g clip-path="url(#p62711e84f5)">
     <use xlink:href="#m5205514766" x="310.150435" y="182.750722" style="fill: #ff0000; stroke: #ff0000; stroke-linejoin: miter"/>
     <use xlink:href="#m5205514766" x="338.305283" y="178.844652" style="fill: #ff0000; stroke: #ff0000; stroke-linejoin: miter"/>
    </g>
   </g>
   <g id="line2d_18">
    <path d="M 310.150435 182.68168 
L 338.305283 184.50808 
" clip-path="url(#p62711e84f5)" style="fill: none; stroke: #0000ff; stroke-width: 1.5; stroke-linecap: square"/>
    <g clip-path="url(#p62711e84f5)">
     <use xlink:href="#md729f36874" x="310.150435" y="182.68168" style="fill: #0000ff; stroke: #0000ff; stroke-linejoin: miter"/>
     <use xlink:href="#md729f36874" x="338.305283" y="184.50808" style="fill: #0000ff; stroke: #0000ff; stroke-linejoin: miter"/>
    </g>
   </g>
  </g>
  <g id="axes_5">
   <g id="patch_8">
    <path d="M 54.43 269.474821 
L 290.930718 269.474821 
L 290.930718 216.590119 
L 54.43 216.590119 
z
" style="fill: #ffffff"/>
   </g>
   <g id="matplotlib.axis_9">
    <g id="xtick_7"/>
   </g>
   <g id="matplotlib.axis_10">
    <g id="ytick_9">
     <g id="line2d_19">
      <g>
       <use xlink:href="#mf320c60565" x="54.43" y="268.641991" style="stroke: #000000; stroke-width: 0.8"/>
      </g>
     </g>
     <g id="text_7">
      <!-- 0.0 -->
      <g transform="translate(31.526875 272.44121) scale(0.1 -0.1)">
       <use xlink:href="#DejaVuSans-30"/>
       <use xlink:href="#DejaVuSans-2e" transform="translate(63.623047 0)"/>
       <use xlink:href="#DejaVuSans-30" transform="translate(95.410156 0)"/>
      </g>
     </g>
    </g>
    <g id="ytick_10">
     <g id="line2d_20">
      <g>
       <use xlink:href="#mf320c60565" x="54.43" y="216.590119" style="stroke: #000000; stroke-width: 0.8"/>
      </g>
     </g>
     <g id="text_8">
      <!-- 0.5 -->
      <g transform="translate(31.526875 220.389338) scale(0.1 -0.1)">
       <use xlink:href="#DejaVuSans-30"/>
       <use xlink:href="#DejaVuSans-2e" transform="translate(63.623047 0)"/>
       <use xlink:href="#DejaVuSans-35" transform="translate(95.410156 0)"/>
      </g>
     </g>
    </g>
   </g>
   <g id="line2d_21">
    <path d="M 54.43 265.445751 
L 57.245485 266.293473 
L 60.060969 266.735435 
L 62.876454 266.493012 
L 65.691939 266.542842 
L 71.322908 266.975202 
L 76.953878 266.67528 
L 85.400332 264.930898 
L 88.215817 263.552987 
L 91.031302 261.899288 
L 93.846786 259.774223 
L 96.662271 257.18284 
L 99.477756 254.79456 
L 105.108725 250.442929 
L 107.92421 249.141573 
L 110.739695 248.546863 
L 113.55518 248.54604 
L 116.370664 249.151811 
L 124.817119 251.722019 
L 136.079057 256.525789 
L 138.894542 257.477151 
L 141.710027 258.572381 
L 147.340996 261.538542 
L 150.156481 262.905667 
L 152.971966 263.675845 
L 155.787451 264.580948 
L 158.602935 265.153005 
L 161.41842 266.401587 
L 164.233905 267.166811 
L 167.04939 268.102872 
L 169.864874 268.641991 
L 186.757783 268.641965 
L 189.573268 267.329706 
L 192.388752 265.520609 
L 195.204237 263.240928 
L 198.019722 261.398009 
L 200.835207 260.230066 
L 203.650691 259.66449 
L 206.466176 259.631573 
L 209.281661 259.878679 
L 212.097146 259.932029 
L 220.5436 260.61101 
L 223.359084 260.502315 
L 226.174569 260.546215 
L 228.990054 260.77298 
L 231.805539 260.806662 
L 234.621023 260.307891 
L 237.436508 259.010115 
L 240.251993 258.179657 
L 243.067478 257.94759 
L 245.882962 257.959462 
L 248.698447 257.189536 
L 251.513932 256.748045 
L 254.329417 255.950333 
L 257.144901 254.544409 
L 259.960386 251.820402 
L 262.775871 249.551168 
L 265.591356 247.623524 
L 268.40684 245.907075 
L 274.03781 242.871645 
L 279.668779 239.916003 
L 282.484264 238.694408 
L 285.299749 237.855632 
L 288.115234 237.317736 
L 290.930718 241.423987 
L 293.746203 243.121335 
L 296.561688 244.319661 
L 299.377172 245.137469 
L 302.192657 245.712522 
L 305.008142 246.084237 
L 307.823627 246.201032 
L 316.270081 245.953845 
L 319.085566 246.466083 
L 321.90105 247.492629 
L 324.716535 248.805729 
L 327.53202 250.275796 
L 330.347505 251.881392 
L 333.162989 252.987047 
L 335.978474 253.401764 
L 338.793959 252.921128 
L 341.609444 252.124172 
L 344.424928 251.183559 
L 347.240413 250.447829 
L 350.055898 249.993926 
L 352.871383 249.733315 
L 361 246.584512 
L 361 246.584512 
" clip-path="url(#p8e98a65f26)" style="fill: none; stroke: #ff0000; stroke-width: 1.5; stroke-linecap: square"/>
   </g>
   <g id="line2d_22">
    <path d="M 54.43 264.12349 
L 60.060969 263.992855 
L 65.691939 262.910006 
L 68.507424 262.500783 
L 71.322908 262.254007 
L 74.138393 262.448865 
L 76.953878 263.056547 
L 79.769363 263.999534 
L 82.584847 264.628917 
L 88.215817 264.588644 
L 93.846786 264.847217 
L 96.662271 265.134463 
L 99.477756 265.585161 
L 102.293241 266.251746 
L 105.108725 267.262436 
L 107.92421 268.055199 
L 110.739695 266.966264 
L 113.55518 266.125101 
L 116.370664 265.527467 
L 119.186149 264.79471 
L 122.001634 264.298419 
L 124.817119 264.143816 
L 127.632603 264.301011 
L 130.448088 264.238506 
L 133.263573 264.488093 
L 136.079057 265.098414 
L 138.894542 266.024571 
L 141.710027 266.093476 
L 144.525512 266.429548 
L 147.340996 267.141119 
L 150.156481 267.559463 
L 152.971966 267.796749 
L 158.602935 267.306876 
L 161.41842 267.122346 
L 164.233905 265.671336 
L 169.864874 264.359097 
L 172.680359 263.856569 
L 175.495844 263.120982 
L 181.126813 262.45705 
L 183.942298 262.377687 
L 186.757783 261.785987 
L 189.573268 261.410813 
L 192.388752 261.22473 
L 195.204237 261.231023 
L 198.019722 261.417759 
L 200.835207 261.246252 
L 203.650691 261.53495 
L 206.466176 262.304187 
L 209.281661 261.372094 
L 212.097146 260.771408 
L 214.91263 260.023099 
L 217.728115 259.816051 
L 220.5436 259.997369 
L 223.359084 259.535961 
L 226.174569 260.063548 
L 228.990054 260.466369 
L 231.805539 261.029294 
L 234.621023 261.379274 
L 237.436508 261.384108 
L 240.251993 261.102551 
L 248.698447 259.699862 
L 254.329417 259.528048 
L 257.144901 259.209822 
L 259.960386 259.061216 
L 262.775871 259.028566 
L 268.40684 259.308467 
L 274.03781 259.94852 
L 279.668779 260.527865 
L 282.484264 261.139643 
L 288.115234 263.006523 
L 290.930718 258.189613 
L 293.746203 259.111582 
L 299.377172 260.116248 
L 302.192657 260.713765 
L 305.008142 261.718819 
L 307.823627 262.122641 
L 313.454596 262.017203 
L 316.270081 262.219915 
L 321.90105 261.354972 
L 333.162989 257.418902 
L 341.609444 254.723312 
L 347.240413 253.531602 
L 350.055898 253.155538 
L 352.871383 253.202734 
L 355.686867 254.15068 
L 358.502352 255.899021 
L 361 257.592091 
L 361 257.592091 
" clip-path="url(#p8e98a65f26)" style="fill: none; stroke: #0000ff; stroke-width: 1.5; stroke-linecap: square"/>
   </g>
   <g id="line2d_23">
    <path d="M 54.43 268.641991 
L 290.930718 268.641991 
" clip-path="url(#p8e98a65f26)" style="fill: none; stroke: #000000; stroke-width: 0.8; stroke-linecap: square"/>
   </g>
   <g id="line2d_24">
    <path d="M 54.43 255.960582 
L 60.060969 257.351365 
L 62.876454 258.005715 
L 65.691939 258.995056 
L 68.507424 260.754369 
L 71.322908 264.195454 
M 93.846786 262.198185 
L 96.662271 257.808902 
L 99.477756 254.190549 
L 102.293241 251.280167 
L 105.108725 249.53023 
L 107.92421 248.8024 
L 110.739695 248.278168 
L 119.186149 246.141608 
L 122.001634 246.003661 
L 124.817119 246.525541 
L 127.632603 247.755398 
L 130.448088 249.586373 
L 133.263573 251.844327 
L 144.525512 261.915569 
L 147.340996 265.447577 
M 192.388752 265.642436 
L 195.204237 261.857997 
L 198.019722 259.21042 
L 200.835207 257.47518 
L 203.650691 256.713763 
L 206.466176 256.696202 
L 209.281661 256.898305 
L 214.91263 256.829513 
L 217.728115 257.154261 
L 220.5436 258.058686 
L 223.359084 259.381243 
L 226.174569 260.872477 
L 228.990054 262.084302 
L 231.805539 262.430316 
L 234.621023 261.659514 
L 237.436508 260.139618 
L 243.067478 256.492163 
L 245.882962 255.034077 
L 254.329417 251.768488 
L 257.144901 250.229404 
L 262.775871 246.43229 
L 268.40684 242.707517 
L 276.853295 237.672089 
L 279.668779 236.050585 
L 282.484264 234.86867 
L 285.299749 234.320487 
L 288.115234 234.053978 
L 290.930718 234.311682 
L 293.746203 236.283877 
L 296.561688 237.818867 
L 299.377172 238.999847 
L 302.192657 239.887443 
L 305.008142 240.45261 
L 307.823627 240.524737 
L 310.639111 240.059603 
L 313.454596 239.199362 
L 316.270081 238.184195 
L 319.085566 237.538919 
L 321.90105 237.740789 
L 324.716535 238.617867 
L 327.53202 239.639314 
L 330.347505 240.4194 
L 333.162989 240.874487 
L 335.978474 240.875973 
L 338.793959 240.125729 
L 341.609444 238.524849 
L 344.424928 236.654119 
L 347.240413 235.362542 
L 350.055898 234.838529 
L 352.871383 234.891449 
L 355.686867 235.529397 
L 361 237.962052 
L 361 237.962052 
" clip-path="url(#p8e98a65f26)" style="fill: none; stroke-dasharray: 5.55,2.4; stroke-dashoffset: 0; stroke: #000000; stroke-width: 1.5"/>
   </g>
   <g id="line2d_25">
    <path d="M 110.739695 269.474821 
L 110.739695 216.590119 
" clip-path="url(#p8e98a65f26)" style="fill: none; stroke: #000000; stroke-width: 0.8; stroke-linecap: square"/>
   </g>
   <g id="patch_9">
    <path d="M 54.43 268.641991 
L 54.43 216.590119 
" style="fill: none; stroke: #000000; stroke-width: 0.8; stroke-linejoin: miter; stroke-linecap: square"/>
   </g>
   <g id="text_9">
    <!-- alpha-beta -->
    <g transform="translate(140.353484 210.590119) scale(0.12 -0.12)">
     <defs>
      <path id="DejaVuSans-70" d="M 1159 525 
L 1159 -1331 
L 581 -1331 
L 581 3500 
L 1159 3500 
L 1159 2969 
Q 1341 3281 1617 3432 
Q 1894 3584 2278 3584 
Q 2916 3584 3314 3078 
Q 3713 2572 3713 1747 
Q 3713 922 3314 415 
Q 2916 -91 2278 -91 
Q 1894 -91 1617 61 
Q 1341 213 1159 525 
z
M 3116 1747 
Q 3116 2381 2855 2742 
Q 2594 3103 2138 3103 
Q 1681 3103 1420 2742 
Q 1159 2381 1159 1747 
Q 1159 1113 1420 752 
Q 1681 391 2138 391 
Q 2594 391 2855 752 
Q 3116 1113 3116 1747 
z
" transform="scale(0.015625)"/>
      <path id="DejaVuSans-2d" d="M 313 2009 
L 1997 2009 
L 1997 1497 
L 313 1497 
L 313 2009 
z
" transform="scale(0.015625)"/>
      <path id="DejaVuSans-62" d="M 3116 1747 
Q 3116 2381 2855 2742 
Q 2594 3103 2138 3103 
Q 1681 3103 1420 2742 
Q 1159 2381 1159 1747 
Q 1159 1113 1420 752 
Q 1681 391 2138 391 
Q 2594 391 2855 752 
Q 3116 1113 3116 1747 
z
M 1159 2969 
Q 1341 3281 1617 3432 
Q 1894 3584 2278 3584 
Q 2916 3584 3314 3078 
Q 3713 2572 3713 1747 
Q 3713 922 3314 415 
Q 2916 -91 2278 -91 
Q 1894 -91 1617 61 
Q 1341 213 1159 525 
L 1159 0 
L 581 0 
L 581 4863 
L 1159 4863 
L 1159 2969 
z
" transform="scale(0.015625)"/>
     </defs>
     <use xlink:href="#DejaVuSans-61"/>
     <use xlink:href="#DejaVuSans-6c" transform="translate(61.279297 0)"/>
     <use xlink:href="#DejaVuSans-70" transform="translate(89.0625 0)"/>
     <use xlink:href="#DejaVuSans-68" transform="translate(152.539062 0)"/>
     <use xlink:href="#DejaVuSans-61" transform="translate(215.917969 0)"/>
     <use xlink:href="#DejaVuSans-2d" transform="translate(277.197266 0)"/>
     <use xlink:href="#DejaVuSans-62" transform="translate(313.28125 0)"/>
     <use xlink:href="#DejaVuSans-65" transform="translate(376.757812 0)"/>
     <use xlink:href="#DejaVuSans-74" transform="translate(438.28125 0)"/>
     <use xlink:href="#DejaVuSans-61" transform="translate(477.490234 0)"/>
    </g>
   </g>
  </g>
  <g id="axes_6">
   <g id="patch_10">
    <path d="M 304.519466 269.474821 
L 343.936252 269.474821 
L 343.936252 216.590119 
L 304.519466 216.590119 
z
" style="fill: #ffffff"/>
   </g>
   <g id="matplotlib.axis_11">
    <g id="xtick_8"/>
    <g id="xtick_9"/>
   </g>
   <g id="matplotlib.axis_12">
    <g id="ytick_11"/>
    <g id="ytick_12"/>
   </g>
   <g id="line2d_26">
    <path d="M 310.150435 262.233224 
L 338.305283 257.336645 
" clip-path="url(#pc472969bbd)" style="fill: none; stroke: #ff0000; stroke-width: 1.5; stroke-linecap: square"/>
    <g clip-path="url(#pc472969bbd)">
     <use xlink:href="#m5205514766" x="310.150435" y="262.233224" style="fill: #ff0000; stroke: #ff0000; stroke-linejoin: miter"/>
     <use xlink:href="#m5205514766" x="338.305283" y="257.336645" style="fill: #ff0000; stroke: #ff0000; stroke-linejoin: miter"/>
    </g>
   </g>
   <g id="line2d_27">
    <path d="M 310.150435 264.416577 
L 338.305283 262.556554 
" clip-path="url(#pc472969bbd)" style="fill: none; stroke: #0000ff; stroke-width: 1.5; stroke-linecap: square"/>
    <g clip-path="url(#pc472969bbd)">
     <use xlink:href="#md729f36874" x="310.150435" y="264.416577" style="fill: #0000ff; stroke: #0000ff; stroke-linejoin: miter"/>
     <use xlink:href="#md729f36874" x="338.305283" y="262.556554" style="fill: #0000ff; stroke: #0000ff; stroke-linejoin: miter"/>
    </g>
   </g>
  </g>
  <g id="axes_7">
   <g id="patch_11">
    <path d="M 54.43 352.449881 
L 290.930718 352.449881 
L 290.930718 299.565179 
L 54.43 299.565179 
z
" style="fill: #ffffff"/>
   </g>
   <g id="matplotlib.axis_13">
    <g id="xtick_10"/>
   </g>
   <g id="matplotlib.axis_14">
    <g id="ytick_13">
     <g id="line2d_28">
      <g>
       <use xlink:href="#mf320c60565" x="54.43" y="351.617051" style="stroke: #000000; stroke-width: 0.8"/>
      </g>
     </g>
     <g id="text_10">
      <!-- 0.0 -->
      <g transform="translate(31.526875 355.416269) scale(0.1 -0.1)">
       <use xlink:href="#DejaVuSans-30"/>
       <use xlink:href="#DejaVuSans-2e" transform="translate(63.623047 0)"/>
       <use xlink:href="#DejaVuSans-30" transform="translate(95.410156 0)"/>
      </g>
     </g>
    </g>
    <g id="ytick_14">
     <g id="line2d_29">
      <g>
       <use xlink:href="#mf320c60565" x="54.43" y="299.565179" style="stroke: #000000; stroke-width: 0.8"/>
      </g>
     </g>
     <g id="text_11">
      <!-- 0.5 -->
      <g transform="translate(31.526875 303.364398) scale(0.1 -0.1)">
       <use xlink:href="#DejaVuSans-30"/>
       <use xlink:href="#DejaVuSans-2e" transform="translate(63.623047 0)"/>
       <use xlink:href="#DejaVuSans-35" transform="translate(95.410156 0)"/>
      </g>
     </g>
    </g>
   </g>
   <g id="line2d_30">
    <path d="M 54.43 351.616758 
L 71.322908 351.616948 
L 76.953878 349.462109 
L 79.769363 347.487734 
L 82.584847 345.720797 
L 88.215817 342.813678 
L 93.846786 340.325459 
L 96.662271 337.715454 
L 99.477756 335.707979 
L 102.293241 333.948167 
L 105.108725 332.390962 
L 107.92421 331.076828 
L 110.739695 330.073235 
L 113.55518 329.45848 
L 116.370664 329.24124 
L 119.186149 329.36547 
L 122.001634 329.767054 
L 124.817119 330.401932 
L 127.632603 331.248562 
L 130.448088 332.267341 
L 136.079057 334.676268 
L 141.710027 337.473852 
L 144.525512 339.040292 
L 147.340996 340.829268 
L 150.156481 343.316602 
L 152.971966 344.246943 
L 155.787451 345.301754 
L 158.602935 346.586663 
L 161.41842 348.823475 
L 164.233905 350.082052 
L 167.04939 351.617051 
L 206.466176 351.616074 
L 209.281661 351.321613 
L 212.097146 349.863981 
L 217.728115 348.154915 
L 220.5436 347.397425 
L 223.359084 345.456602 
L 226.174569 343.805505 
L 228.990054 342.462055 
L 231.805539 341.296099 
L 234.621023 340.272589 
L 237.436508 337.425131 
L 240.251993 335.489003 
L 243.067478 333.95939 
L 245.882962 332.705857 
L 248.698447 331.675401 
L 251.513932 330.818454 
L 257.144901 329.403576 
L 262.775871 328.051921 
L 268.40684 326.446605 
L 271.222325 325.475629 
L 279.668779 322.268581 
L 282.484264 321.968362 
L 285.299749 322.631303 
L 288.115234 324.148306 
L 290.930718 329.530223 
L 293.746203 331.0067 
L 299.377172 333.562107 
L 305.008142 336.067427 
L 307.823627 337.439444 
L 310.639111 338.944853 
L 313.454596 340.60618 
L 316.270081 342.431917 
L 319.085566 344.59536 
L 321.90105 346.19889 
L 324.716535 346.998712 
L 330.347505 348.263451 
L 333.162989 348.394521 
L 335.978474 347.577574 
L 338.793959 346.046792 
L 344.424928 343.458842 
L 347.240413 341.960068 
L 350.055898 340.197654 
L 352.871383 338.127409 
L 355.686867 332.643684 
L 358.502352 328.263269 
L 361 324.693095 
L 361 324.693095 
" clip-path="url(#p8d00862e54)" style="fill: none; stroke: #ff0000; stroke-width: 1.5; stroke-linecap: square"/>
   </g>
   <g id="line2d_31">
    <path d="M 54.43 350.263274 
L 60.060969 349.566586 
L 65.691939 348.725891 
L 68.507424 347.845804 
L 71.322908 346.721154 
L 74.138393 346.176996 
L 76.953878 346.008123 
L 79.769363 346.304056 
L 82.584847 347.000473 
L 88.215817 347.125972 
L 93.846786 347.616117 
L 99.477756 348.487219 
L 102.293241 349.079634 
L 105.108725 349.829841 
L 107.92421 351.102898 
L 110.739695 351.617051 
L 147.340996 351.617047 
L 150.156481 350.208972 
L 152.971966 349.082865 
L 155.787451 348.27156 
L 161.41842 347.058117 
L 172.680359 345.282174 
L 175.495844 345.731121 
L 178.311329 346.941068 
L 183.942298 351.616949 
L 198.019722 351.616984 
L 200.835207 349.980292 
L 203.650691 348.993992 
L 206.466176 348.290368 
L 209.281661 346.183046 
L 212.097146 345.016672 
L 214.91263 342.880459 
L 217.728115 341.442201 
L 223.359084 339.096753 
L 228.990054 337.071637 
L 231.805539 336.20866 
L 234.621023 335.490492 
L 237.436508 334.926029 
L 240.251993 334.522524 
L 243.067478 334.269032 
L 248.698447 334.09995 
L 254.329417 334.272009 
L 259.960386 334.640439 
L 265.591356 335.211653 
L 268.40684 335.673196 
L 271.222325 336.317349 
L 274.03781 337.133153 
L 276.853295 338.082735 
L 279.668779 339.18589 
L 282.484264 340.608247 
L 285.299749 342.523691 
L 288.115234 345.064259 
L 290.930718 343.843107 
L 296.561688 345.646933 
L 299.377172 346.636108 
L 302.192657 347.799627 
L 305.008142 349.908754 
L 310.639111 351.609005 
L 347.240413 351.617051 
L 350.055898 350.922484 
L 352.871383 349.537695 
L 355.686867 348.615906 
L 358.502352 347.364345 
L 361 346.495675 
L 361 346.495675 
" clip-path="url(#p8d00862e54)" style="fill: none; stroke: #0000ff; stroke-width: 1.5; stroke-linecap: square"/>
   </g>
   <g id="line2d_32">
    <path d="M 54.43 351.617051 
L 290.930718 351.617051 
" clip-path="url(#p8d00862e54)" style="fill: none; stroke: #000000; stroke-width: 0.8; stroke-linecap: square"/>
   </g>
   <g id="line2d_33">
    <path d="M 91.031302 346.793727 
L 93.846786 343.367539 
L 99.477756 337.447242 
L 105.108725 331.875169 
L 107.92421 329.38178 
L 110.739695 327.307229 
L 113.55518 325.840573 
L 116.370664 325.076115 
L 119.186149 324.965795 
L 122.001634 325.389295 
L 124.817119 326.246395 
L 127.632603 327.48339 
L 130.448088 329.04861 
L 133.263573 330.890098 
L 136.079057 332.971336 
L 138.894542 335.267989 
L 144.525512 340.387187 
L 147.340996 343.143664 
L 150.156481 346.1772 
M 217.728115 345.313219 
L 220.5436 342.300189 
L 223.359084 339.770045 
L 226.174569 337.451949 
L 228.990054 335.282029 
L 231.805539 333.265381 
L 234.621023 331.421088 
L 237.436508 329.757098 
L 240.251993 328.262236 
L 245.882962 325.688724 
L 248.698447 324.578358 
L 254.329417 322.716234 
L 259.960386 321.229301 
L 271.222325 318.370806 
L 276.853295 316.637458 
L 279.668779 316.059409 
L 282.484264 316.444659 
L 285.299749 318.301291 
L 288.115234 321.380699 
L 290.930718 326.373465 
L 296.561688 330.094763 
L 302.192657 333.604664 
L 305.008142 335.486896 
L 310.639111 339.663051 
L 321.90105 348.53185 
M 344.424928 345.750731 
L 347.240413 341.916083 
L 350.055898 337.850571 
L 352.871383 333.403956 
L 361 319.880976 
L 361 319.880976 
" clip-path="url(#p8d00862e54)" style="fill: none; stroke-dasharray: 5.55,2.4; stroke-dashoffset: 0; stroke: #000000; stroke-width: 1.5"/>
   </g>
   <g id="line2d_34">
    <path d="M 110.739695 352.449881 
L 110.739695 299.565179 
" clip-path="url(#p8d00862e54)" style="fill: none; stroke: #000000; stroke-width: 0.8; stroke-linecap: square"/>
   </g>
   <g id="patch_12">
    <path d="M 54.43 351.617051 
L 54.43 299.565179 
" style="fill: none; stroke: #000000; stroke-width: 0.8; stroke-linejoin: miter; stroke-linecap: square"/>
   </g>
   <g id="text_12">
    <!-- alpha -->
    <g transform="translate(156.048172 293.565179) scale(0.12 -0.12)">
     <use xlink:href="#DejaVuSans-61"/>
     <use xlink:href="#DejaVuSans-6c" transform="translate(61.279297 0)"/>
     <use xlink:href="#DejaVuSans-70" transform="translate(89.0625 0)"/>
     <use xlink:href="#DejaVuSans-68" transform="translate(152.539062 0)"/>
     <use xlink:href="#DejaVuSans-61" transform="translate(215.917969 0)"/>
    </g>
   </g>
  </g>
  <g id="axes_8">
   <g id="patch_13">
    <path d="M 304.519466 352.449881 
L 343.936252 352.449881 
L 343.936252 299.565179 
L 304.519466 299.565179 
z
" style="fill: #ffffff"/>
   </g>
   <g id="matplotlib.axis_15">
    <g id="xtick_11"/>
    <g id="xtick_12"/>
   </g>
   <g id="matplotlib.axis_16">
    <g id="ytick_15"/>
    <g id="ytick_16"/>
   </g>
   <g id="line2d_35">
    <path d="M 310.150435 344.709129 
L 338.305283 339.235124 
" clip-path="url(#p9efcec3822)" style="fill: none; stroke: #ff0000; stroke-width: 1.5; stroke-linecap: square"/>
    <g clip-path="url(#p9efcec3822)">
     <use xlink:href="#m5205514766" x="310.150435" y="344.709129" style="fill: #ff0000; stroke: #ff0000; stroke-linejoin: miter"/>
     <use xlink:href="#m5205514766" x="338.305283" y="339.235124" style="fill: #ff0000; stroke: #ff0000; stroke-linejoin: miter"/>
    </g>
   </g>
   <g id="line2d_36">
    <path d="M 310.150435 348.16466 
L 338.305283 344.427303 
" clip-path="url(#p9efcec3822)" style="fill: none; stroke: #0000ff; stroke-width: 1.5; stroke-linecap: square"/>
    <g clip-path="url(#p9efcec3822)">
     <use xlink:href="#md729f36874" x="310.150435" y="348.16466" style="fill: #0000ff; stroke: #0000ff; stroke-linejoin: miter"/>
     <use xlink:href="#md729f36874" x="338.305283" y="344.427303" style="fill: #0000ff; stroke: #0000ff; stroke-linejoin: miter"/>
    </g>
   </g>
  </g>
  <g id="axes_9">
   <g id="patch_14">
    <path d="M 54.43 435.42494 
L 290.930718 435.42494 
L 290.930718 382.540239 
L 54.43 382.540239 
z
" style="fill: #ffffff"/>
   </g>
   <g id="matplotlib.axis_17">
    <g id="xtick_13"/>
   </g>
   <g id="matplotlib.axis_18">
    <g id="ytick_17">
     <g id="line2d_37">
      <g>
       <use xlink:href="#mf320c60565" x="54.43" y="434.59211" style="stroke: #000000; stroke-width: 0.8"/>
      </g>
     </g>
     <g id="text_13">
      <!-- 0.0 -->
      <g transform="translate(31.526875 438.391329) scale(0.1 -0.1)">
       <use xlink:href="#DejaVuSans-30"/>
       <use xlink:href="#DejaVuSans-2e" transform="translate(63.623047 0)"/>
       <use xlink:href="#DejaVuSans-30" transform="translate(95.410156 0)"/>
      </g>
     </g>
    </g>
    <g id="ytick_18">
     <g id="line2d_38">
      <g>
       <use xlink:href="#mf320c60565" x="54.43" y="382.540239" style="stroke: #000000; stroke-width: 0.8"/>
      </g>
     </g>
     <g id="text_14">
      <!-- 0.5 -->
      <g transform="translate(31.526875 386.339457) scale(0.1 -0.1)">
       <use xlink:href="#DejaVuSans-30"/>
       <use xlink:href="#DejaVuSans-2e" transform="translate(63.623047 0)"/>
       <use xlink:href="#DejaVuSans-35" transform="translate(95.410156 0)"/>
      </g>
     </g>
    </g>
   </g>
   <g id="line2d_39">
    <path d="M 54.43 430.482785 
L 57.245485 431.572624 
L 60.060969 432.140824 
L 62.876454 431.829137 
L 65.691939 431.893205 
L 71.322908 432.44914 
L 76.953878 432.987028 
L 82.584847 433.056841 
L 85.400332 431.877288 
L 88.215817 429.973857 
L 91.031302 427.691708 
L 96.662271 421.729916 
L 99.477756 418.916677 
L 102.293241 416.625864 
L 105.108725 414.560237 
L 107.92421 413.833782 
L 110.739695 414.131334 
L 113.55518 415.258451 
L 116.370664 417.146331 
L 119.186149 419.206066 
L 122.001634 420.935107 
L 124.817119 421.930054 
L 130.448088 424.249201 
L 136.079057 426.274472 
L 138.894542 426.918512 
L 144.525512 428.457992 
L 147.340996 429.47267 
L 150.156481 430.774157 
L 152.971966 431.365684 
L 155.787451 432.077325 
L 158.602935 432.262152 
L 161.41842 432.908837 
L 164.233905 433.353307 
L 167.04939 433.092062 
L 172.680359 433.593434 
L 175.495844 434.592105 
L 186.757783 434.592077 
L 189.573268 432.904886 
L 192.388752 430.578905 
L 195.204237 427.190276 
L 198.019722 423.533989 
L 200.835207 421.124781 
L 203.650691 419.765986 
L 206.466176 419.578888 
L 209.281661 420.53562 
L 212.097146 422.276095 
L 214.91263 423.847188 
L 217.728115 424.180904 
L 220.5436 424.166063 
L 223.359084 424.478444 
L 226.174569 425.136791 
L 228.990054 426.086692 
L 231.805539 426.771681 
L 234.621023 426.523026 
L 240.251993 424.650763 
L 243.067478 424.461567 
L 245.882962 424.847444 
L 248.698447 424.319662 
L 251.513932 424.135225 
L 254.329417 423.374615 
L 257.144901 421.699194 
L 259.960386 418.320479 
L 262.775871 415.816768 
L 265.591356 414.115445 
L 268.40684 412.738323 
L 271.222325 411.54312 
L 276.853295 409.346302 
L 279.668779 408.050155 
L 282.484264 406.602185 
L 285.299749 404.939302 
L 288.115234 403.039179 
L 290.930718 407.593872 
L 293.746203 409.011834 
L 296.561688 409.739977 
L 299.377172 410.017755 
L 302.192657 410.031157 
L 305.008142 409.695456 
L 307.823627 408.921928 
L 313.454596 406.710598 
L 316.270081 405.82821 
L 319.085566 405.736051 
L 321.90105 406.786195 
L 327.53202 410.393917 
L 330.347505 412.012379 
L 333.162989 412.840428 
L 335.978474 412.885994 
L 338.793959 411.749565 
L 341.609444 409.957717 
L 344.424928 408.384256 
L 347.240413 407.707316 
L 350.055898 407.739998 
L 352.871383 408.014346 
L 355.686867 408.917259 
L 358.502352 410.221119 
L 361 411.798258 
L 361 411.798258 
" clip-path="url(#p21e68816aa)" style="fill: none; stroke: #ff0000; stroke-width: 1.5; stroke-linecap: square"/>
   </g>
   <g id="line2d_40">
    <path d="M 54.43 429.362799 
L 57.245485 429.363133 
L 60.060969 429.493421 
L 65.691939 426.978685 
L 68.507424 426.541252 
L 71.322908 426.742647 
L 74.138393 427.605756 
L 76.953878 429.520332 
L 79.769363 430.900234 
L 82.584847 431.410978 
L 88.215817 431.305412 
L 93.846786 431.4278 
L 96.662271 431.63167 
L 99.477756 432.003257 
L 102.293241 432.606402 
L 105.108725 433.584344 
L 107.92421 434.058015 
L 110.739695 432.437604 
L 113.55518 431.356109 
L 116.370664 430.587723 
L 119.186149 429.645606 
L 122.001634 429.007518 
L 124.817119 428.808742 
L 127.632603 429.010851 
L 130.448088 428.930487 
L 133.263573 429.251385 
L 136.079057 428.96696 
L 138.894542 429.61925 
L 141.710027 429.655621 
L 144.525512 430.446286 
L 147.340996 431.965187 
L 150.156481 433.803716 
L 152.971966 434.59145 
L 161.41842 434.59211 
L 164.233905 432.928625 
L 167.04939 432.172045 
L 169.864874 431.625141 
L 172.680359 430.445826 
L 175.495844 429.133364 
L 178.311329 428.350931 
L 181.126813 427.256516 
L 186.757783 425.777248 
L 192.388752 424.702007 
L 198.019722 424.310073 
L 200.835207 424.21084 
L 203.650691 424.444246 
L 206.466176 425.585608 
L 209.281661 425.770157 
L 212.097146 426.369462 
L 214.91263 427.254929 
L 217.728115 427.605123 
L 220.5436 428.362842 
L 223.359084 428.250199 
L 226.174569 429.379712 
L 228.990054 430.314345 
L 231.805539 431.407953 
L 234.621023 432.165711 
L 237.436508 432.413791 
L 240.251993 432.22477 
L 248.698447 430.602417 
L 254.329417 430.307773 
L 257.144901 429.826867 
L 259.960386 429.549662 
L 262.775871 429.402038 
L 268.40684 429.424946 
L 276.853295 429.62633 
L 279.668779 429.487303 
L 282.484264 429.664293 
L 285.299749 430.114711 
L 288.115234 430.154848 
L 290.930718 424.485028 
L 293.746203 425.292165 
L 299.377172 425.765123 
L 302.192657 425.420796 
L 307.823627 425.525224 
L 310.639111 425.266584 
L 313.454596 425.493575 
L 316.270081 426.335156 
L 321.90105 425.223086 
L 324.716535 423.804072 
L 327.53202 421.926935 
L 335.978474 416.776831 
L 338.793959 414.65234 
L 341.609444 412.295582 
L 344.424928 410.275758 
L 347.240413 408.665198 
L 350.055898 407.99937 
L 352.871383 408.397205 
L 355.686867 410.43805 
L 358.502352 414.826735 
L 361 419.064925 
L 361 419.064925 
" clip-path="url(#p21e68816aa)" style="fill: none; stroke: #0000ff; stroke-width: 1.5; stroke-linecap: square"/>
   </g>
   <g id="line2d_41">
    <path d="M 54.43 434.59211 
L 290.930718 434.59211 
" clip-path="url(#p21e68816aa)" style="fill: none; stroke: #000000; stroke-width: 0.8; stroke-linecap: square"/>
   </g>
   <g id="line2d_42">
    <path d="M 54.43 417.748031 
L 57.245485 417.882955 
L 60.060969 418.32045 
L 62.876454 419.277624 
L 65.691939 420.80756 
L 68.507424 423.095405 
L 71.322908 426.78061 
M 93.846786 426.179167 
L 96.662271 421.20454 
L 99.477756 417.195736 
L 102.293241 414.453926 
L 105.108725 413.583927 
L 107.92421 414.303029 
L 110.739695 415.571134 
L 113.55518 416.564167 
L 116.370664 416.894362 
L 122.001634 416.320692 
L 124.817119 416.554799 
L 127.632603 417.548141 
L 130.448088 419.24669 
L 133.263573 421.572796 
L 141.710027 429.753628 
L 144.525512 432.28957 
M 186.757783 433.480631 
L 189.573268 430.275048 
L 192.388752 427.284353 
L 198.019722 420.869161 
L 200.835207 418.178773 
L 203.650691 416.390162 
L 206.466176 416.130039 
L 209.281661 417.651264 
L 212.097146 419.963495 
L 214.91263 421.527786 
L 217.728115 422.333181 
L 220.5436 423.456059 
L 223.359084 425.829441 
L 226.174569 430.790961 
M 243.067478 430.337168 
L 245.882962 427.794733 
L 248.698447 426.845798 
L 251.513932 425.764831 
L 254.329417 423.845787 
L 259.960386 418.205524 
L 262.775871 415.999313 
L 276.853295 407.531619 
L 288.115234 399.900403 
L 290.930718 398.984976 
L 293.746203 400.750768 
L 296.561688 401.987481 
L 299.377172 402.835923 
L 302.192657 403.398795 
L 305.008142 403.559505 
L 307.823627 403.083193 
L 310.639111 402.029894 
L 316.270081 399.334478 
L 319.085566 398.605312 
L 321.90105 398.979023 
L 327.53202 401.158634 
L 330.347505 401.738598 
L 333.162989 401.676154 
L 335.978474 400.6889 
L 338.793959 398.119785 
L 341.609444 393.996122 
L 344.424928 390.093143 
L 347.240413 388.027938 
L 350.055898 387.610372 
L 352.871383 388.029474 
L 355.686867 390.212187 
L 358.502352 395.652504 
L 361 401.327496 
L 361 401.327496 
" clip-path="url(#p21e68816aa)" style="fill: none; stroke-dasharray: 5.55,2.4; stroke-dashoffset: 0; stroke: #000000; stroke-width: 1.5"/>
   </g>
   <g id="line2d_43">
    <path d="M 110.739695 435.42494 
L 110.739695 382.540239 
" clip-path="url(#p21e68816aa)" style="fill: none; stroke: #000000; stroke-width: 0.8; stroke-linecap: square"/>
   </g>
   <g id="patch_15">
    <path d="M 54.43 434.59211 
L 54.43 382.540239 
" style="fill: none; stroke: #000000; stroke-width: 0.8; stroke-linejoin: miter; stroke-linecap: square"/>
   </g>
   <g id="text_15">
    <!-- beta -->
    <g transform="translate(159.150359 376.540239) scale(0.12 -0.12)">
     <use xlink:href="#DejaVuSans-62"/>
     <use xlink:href="#DejaVuSans-65" transform="translate(63.476562 0)"/>
     <use xlink:href="#DejaVuSans-74" transform="translate(125 0)"/>
     <use xlink:href="#DejaVuSans-61" transform="translate(164.208984 0)"/>
    </g>
   </g>
  </g>
  <g id="axes_10">
   <g id="patch_16">
    <path d="M 304.519466 435.42494 
L 343.936252 435.42494 
L 343.936252 382.540239 
L 304.519466 382.540239 
z
" style="fill: #ffffff"/>
   </g>
   <g id="matplotlib.axis_19">
    <g id="xtick_14"/>
    <g id="xtick_15"/>
   </g>
   <g id="matplotlib.axis_20">
    <g id="ytick_19"/>
    <g id="ytick_20"/>
   </g>
   <g id="line2d_44">
    <path d="M 310.150435 427.714599 
L 338.305283 423.635187 
" clip-path="url(#p50192cce8f)" style="fill: none; stroke: #ff0000; stroke-width: 1.5; stroke-linecap: square"/>
    <g clip-path="url(#p50192cce8f)">
     <use xlink:href="#m5205514766" x="310.150435" y="427.714599" style="fill: #ff0000; stroke: #ff0000; stroke-linejoin: miter"/>
     <use xlink:href="#m5205514766" x="338.305283" y="423.635187" style="fill: #ff0000; stroke: #ff0000; stroke-linejoin: miter"/>
    </g>
   </g>
   <g id="line2d_45">
    <path d="M 310.150435 430.269394 
L 338.305283 429.541322 
" clip-path="url(#p50192cce8f)" style="fill: none; stroke: #0000ff; stroke-width: 1.5; stroke-linecap: square"/>
    <g clip-path="url(#p50192cce8f)">
     <use xlink:href="#md729f36874" x="310.150435" y="430.269394" style="fill: #0000ff; stroke: #0000ff; stroke-linejoin: miter"/>
     <use xlink:href="#md729f36874" x="338.305283" y="429.541322" style="fill: #0000ff; stroke: #0000ff; stroke-linejoin: miter"/>
    </g>
   </g>
  </g>
  <g id="axes_11">
   <g id="patch_17">
    <path d="M 54.43 518.4 
L 290.930718 518.4 
L 290.930718 465.515298 
L 54.43 465.515298 
z
" style="fill: #ffffff"/>
   </g>
   <g id="matplotlib.axis_21">
    <g id="xtick_16">
     <g id="text_16">
      <!-- Cue -->
      <g transform="translate(101.002976 532.998437) scale(0.1 -0.1)">
       <defs>
        <path id="DejaVuSans-43" d="M 4122 4306 
L 4122 3641 
Q 3803 3938 3442 4084 
Q 3081 4231 2675 4231 
Q 1875 4231 1450 3742 
Q 1025 3253 1025 2328 
Q 1025 1406 1450 917 
Q 1875 428 2675 428 
Q 3081 428 3442 575 
Q 3803 722 4122 1019 
L 4122 359 
Q 3791 134 3420 21 
Q 3050 -91 2638 -91 
Q 1578 -91 968 557 
Q 359 1206 359 2328 
Q 359 3453 968 4101 
Q 1578 4750 2638 4750 
Q 3056 4750 3426 4639 
Q 3797 4528 4122 4306 
z
" transform="scale(0.015625)"/>
        <path id="DejaVuSans-75" d="M 544 1381 
L 544 3500 
L 1119 3500 
L 1119 1403 
Q 1119 906 1312 657 
Q 1506 409 1894 409 
Q 2359 409 2629 706 
Q 2900 1003 2900 1516 
L 2900 3500 
L 3475 3500 
L 3475 0 
L 2900 0 
L 2900 538 
Q 2691 219 2414 64 
Q 2138 -91 1772 -91 
Q 1169 -91 856 284 
Q 544 659 544 1381 
z
M 1991 3584 
L 1991 3584 
z
" transform="scale(0.015625)"/>
       </defs>
       <use xlink:href="#DejaVuSans-43"/>
       <use xlink:href="#DejaVuSans-75" transform="translate(69.824219 0)"/>
       <use xlink:href="#DejaVuSans-65" transform="translate(133.203125 0)"/>
      </g>
     </g>
    </g>
   </g>
   <g id="matplotlib.axis_22">
    <g id="ytick_21">
     <g id="line2d_46">
      <g>
       <use xlink:href="#mf320c60565" x="54.43" y="517.56717" style="stroke: #000000; stroke-width: 0.8"/>
      </g>
     </g>
     <g id="text_17">
      <!-- 0.0 -->
      <g transform="translate(31.526875 521.366389) scale(0.1 -0.1)">
       <use xlink:href="#DejaVuSans-30"/>
       <use xlink:href="#DejaVuSans-2e" transform="translate(63.623047 0)"/>
       <use xlink:href="#DejaVuSans-30" transform="translate(95.410156 0)"/>
      </g>
     </g>
    </g>
    <g id="ytick_22">
     <g id="line2d_47">
      <g>
       <use xlink:href="#mf320c60565" x="54.43" y="465.515298" style="stroke: #000000; stroke-width: 0.8"/>
      </g>
     </g>
     <g id="text_18">
      <!-- 0.5 -->
      <g transform="translate(31.526875 469.314517) scale(0.1 -0.1)">
       <use xlink:href="#DejaVuSans-30"/>
       <use xlink:href="#DejaVuSans-2e" transform="translate(63.623047 0)"/>
       <use xlink:href="#DejaVuSans-35" transform="translate(95.410156 0)"/>
      </g>
     </g>
    </g>
   </g>
   <g id="line2d_48">
    <path d="M 54.43 513.9862 
L 57.245485 516.663092 
L 60.060969 517.07557 
L 62.876454 516.656673 
L 68.507424 516.063782 
L 71.322908 514.326453 
L 74.138393 512.198587 
L 76.953878 513.248608 
L 79.769363 517.019062 
L 82.584847 517.567145 
L 85.400332 515.481826 
L 88.215817 512.962778 
L 91.031302 513.240963 
L 93.846786 514.623707 
L 96.662271 512.381235 
L 99.477756 513.009359 
L 102.293241 514.724494 
L 105.108725 515.269505 
L 107.92421 514.890567 
L 110.739695 513.299036 
L 113.55518 514.098413 
L 116.370664 512.644926 
L 119.186149 511.701 
L 122.001634 511.387419 
L 124.817119 514.277163 
L 127.632603 516.835688 
L 130.448088 515.666121 
L 133.263573 515.650945 
L 136.079057 516.131719 
L 138.894542 516.053238 
L 141.710027 514.984132 
L 144.525512 512.48656 
L 147.340996 512.166283 
L 150.156481 511.454159 
L 152.971966 513.39103 
L 155.787451 514.552615 
L 158.602935 516.79861 
L 161.41842 517.567154 
L 164.233905 516.239652 
L 167.04939 512.963888 
L 172.680359 514.3297 
L 175.495844 512.695724 
L 178.311329 507.57818 
L 181.126813 510.388304 
L 183.942298 515.644853 
L 186.757783 515.003352 
L 189.573268 512.761825 
L 192.388752 515.47164 
L 195.204237 515.746647 
L 198.019722 507.065652 
L 200.835207 503.24862 
L 203.650691 500.464626 
L 206.466176 503.687698 
L 209.281661 508.943745 
L 212.097146 511.891701 
L 214.91263 512.38327 
L 217.728115 508.682445 
L 220.5436 508.11716 
L 223.359084 511.198085 
L 226.174569 510.312015 
L 228.990054 514.816448 
L 231.805539 515.298106 
L 234.621023 513.448099 
L 237.436508 512.064803 
L 240.251993 509.963487 
L 243.067478 509.736023 
L 245.882962 507.684113 
L 248.698447 507.264064 
L 254.329417 508.933556 
L 257.144901 510.87654 
L 259.960386 511.249185 
L 265.591356 511.410393 
L 271.222325 507.3614 
L 274.03781 510.82349 
L 276.853295 511.591184 
L 279.668779 510.629606 
L 282.484264 509.120972 
L 285.299749 509.747559 
L 288.115234 510.067298 
L 290.930718 514.517115 
L 293.746203 515.70624 
L 299.377172 513.288218 
L 302.192657 511.429747 
L 305.008142 511.725332 
L 307.823627 511.404632 
L 310.639111 512.665713 
L 313.454596 514.543133 
L 316.270081 515.288771 
L 319.085566 513.968002 
L 324.716535 511.529285 
L 327.53202 508.688519 
L 330.347505 508.716791 
L 333.162989 508.901239 
L 335.978474 509.988466 
L 338.793959 508.809711 
L 341.609444 508.472488 
L 344.424928 509.183432 
L 347.240413 507.895023 
L 350.055898 506.906579 
L 352.871383 507.629366 
L 355.686867 510.17014 
L 358.502352 513.277106 
L 361 510.718773 
L 361 510.718773 
" clip-path="url(#p14e6883714)" style="fill: none; stroke: #ff0000; stroke-width: 1.5; stroke-linecap: square"/>
   </g>
   <g id="line2d_49">
    <path d="M 54.43 512.342429 
L 57.245485 514.618542 
L 60.060969 516.202029 
L 62.876454 514.865532 
L 65.691939 515.324745 
L 68.507424 515.141552 
L 71.322908 513.545016 
L 74.138393 514.553699 
L 76.953878 516.067053 
L 79.769363 514.703294 
L 82.584847 510.795722 
L 85.400332 510.592758 
L 88.215817 512.448405 
L 91.031302 512.795067 
L 93.846786 511.724037 
L 96.662271 510.059336 
L 99.477756 508.660764 
L 102.293241 510.977451 
L 105.108725 513.989993 
L 107.92421 515.793807 
L 110.739695 516.897668 
L 113.55518 515.250011 
L 116.370664 512.965435 
L 119.186149 515.67639 
L 122.001634 517.567168 
L 124.817119 517.201021 
L 127.632603 515.032108 
L 130.448088 514.091213 
L 133.263573 514.709696 
L 136.079057 513.031032 
L 138.894542 511.070966 
L 141.710027 507.854089 
L 144.525512 506.138641 
L 147.340996 509.336641 
L 150.156481 512.288189 
L 152.971966 512.737554 
L 155.787451 512.970007 
L 158.602935 514.437093 
L 161.41842 513.40944 
L 164.233905 514.334916 
L 167.04939 516.11339 
L 169.864874 511.765985 
L 172.680359 508.742568 
L 175.495844 510.538825 
L 178.311329 513.672424 
L 181.126813 514.7954 
L 183.942298 516.535807 
L 186.757783 517.281683 
L 189.573268 514.463662 
L 192.388752 514.523794 
L 195.204237 517.175417 
L 198.019722 517.567141 
L 200.835207 516.032159 
L 203.650691 513.104065 
L 206.466176 513.16448 
L 209.281661 514.355797 
L 212.097146 514.339288 
L 214.91263 512.621105 
L 217.728115 510.296687 
L 220.5436 510.077959 
L 223.359084 514.852378 
L 226.174569 517.321724 
L 228.990054 516.998806 
L 231.805539 515.253157 
L 234.621023 514.49589 
L 237.436508 512.819928 
L 240.251993 510.489349 
L 243.067478 507.765039 
L 245.882962 506.342998 
L 248.698447 506.603794 
L 251.513932 508.102868 
L 254.329417 507.785318 
L 257.144901 509.325138 
L 262.775871 515.498157 
L 265.591356 517.56717 
L 268.40684 517.394877 
L 271.222325 514.278889 
L 274.03781 512.449647 
L 276.853295 513.393173 
L 279.668779 511.801128 
L 282.484264 511.511261 
L 285.299749 513.762853 
L 288.115234 516.913767 
L 290.930718 517.56717 
L 293.746203 516.117802 
L 296.561688 514.824542 
L 299.377172 513.869014 
L 302.192657 513.806372 
L 307.823627 516.450408 
L 310.639111 516.586918 
L 313.454596 514.226614 
L 316.270081 512.403656 
L 319.085566 511.922863 
L 321.90105 512.444753 
L 324.716535 511.968837 
L 327.53202 511.931066 
L 330.347505 514.676325 
L 333.162989 516.524157 
L 335.978474 516.373635 
L 338.793959 516.545487 
L 341.609444 514.446294 
L 344.424928 511.314422 
L 347.240413 511.773491 
L 350.055898 510.891847 
L 352.871383 508.892971 
L 355.686867 506.32789 
L 358.502352 508.184073 
L 361 511.254274 
L 361 511.254274 
" clip-path="url(#p14e6883714)" style="fill: none; stroke: #0000ff; stroke-width: 1.5; stroke-linecap: square"/>
   </g>
   <g id="line2d_50">
    <path d="M 54.43 517.56717 
L 290.930718 517.56717 
" clip-path="url(#p14e6883714)" style="fill: none; stroke: #000000; stroke-width: 0.8; stroke-linecap: square"/>
   </g>
   <g id="line2d_51">
    <path d="M 74.138393 509.61837 
L 76.953878 513.684404 
M 82.584847 511.196587 
L 85.400332 512.566755 
L 88.215817 510.189806 
L 91.031302 509.139547 
L 93.846786 513.596007 
L 96.662271 513.147375 
M 110.739695 512.997748 
L 113.55518 507.310974 
L 116.370664 504.367507 
L 119.186149 505.597404 
L 122.001634 509.080041 
M 138.894542 506.092596 
L 141.710027 502.286957 
L 144.525512 498.718663 
L 147.340996 500.044055 
L 150.156481 501.890643 
L 152.971966 509.091467 
L 155.787451 509.182134 
L 158.602935 505.608492 
L 161.41842 507.809805 
L 164.233905 511.230851 
L 167.04939 510.232691 
L 169.864874 504.824912 
L 172.680359 506.199574 
L 175.495844 510.16186 
L 178.311329 508.326083 
L 181.126813 511.252327 
M 186.757783 513.155514 
L 189.573268 507.72918 
L 192.388752 513.757517 
M 198.019722 507.479589 
L 200.835207 501.140456 
L 203.650691 496.803026 
L 206.466176 498.326237 
L 209.281661 500.746722 
L 212.097146 505.482179 
L 214.91263 506.501602 
L 217.728115 499.278764 
L 220.5436 499.106284 
L 223.359084 505.771229 
L 226.174569 510.344999 
M 231.805539 512.863822 
L 234.621023 512.260499 
L 237.436508 509.193451 
L 240.251993 504.523073 
L 243.067478 501.994369 
L 245.882962 496.950863 
L 248.698447 495.833648 
L 251.513932 497.579034 
L 254.329417 498.725462 
L 257.144901 502.379013 
L 259.960386 503.109395 
L 262.775871 508.580354 
L 265.591356 511.728644 
L 268.40684 510.129654 
L 271.222325 504.593812 
L 274.03781 501.684444 
L 276.853295 501.445373 
L 279.668779 503.398302 
L 282.484264 504.243348 
L 288.115234 511.382961 
M 299.377172 510.875323 
L 302.192657 509.58642 
L 305.008142 512.540599 
L 307.823627 516.753367 
L 310.639111 516.938661 
L 316.270081 509.002384 
L 319.085566 504.014974 
L 321.90105 500.648323 
L 324.716535 498.404767 
L 327.53202 498.481672 
L 330.347505 503.39656 
L 333.162989 509.456912 
L 335.978474 510.381466 
L 338.793959 506.958346 
L 341.609444 504.35917 
L 344.424928 504.88452 
L 347.240413 504.766898 
L 350.055898 501.22256 
L 352.871383 501.155964 
L 355.686867 499.733881 
L 358.502352 498.915863 
L 361 500.340453 
L 361 500.340453 
" clip-path="url(#p14e6883714)" style="fill: none; stroke-dasharray: 5.55,2.4; stroke-dashoffset: 0; stroke: #000000; stroke-width: 1.5"/>
   </g>
   <g id="line2d_52">
    <path d="M 110.739695 518.4 
L 110.739695 465.515298 
" clip-path="url(#p14e6883714)" style="fill: none; stroke: #000000; stroke-width: 0.8; stroke-linecap: square"/>
   </g>
   <g id="patch_18">
    <path d="M 54.43 517.56717 
L 54.43 465.515298 
" style="fill: none; stroke: #000000; stroke-width: 0.8; stroke-linejoin: miter; stroke-linecap: square"/>
   </g>
   <g id="text_19">
    <!-- gamma -->
    <g transform="translate(149.828797 459.515298) scale(0.12 -0.12)">
     <defs>
      <path id="DejaVuSans-67" d="M 2906 1791 
Q 2906 2416 2648 2759 
Q 2391 3103 1925 3103 
Q 1463 3103 1205 2759 
Q 947 2416 947 1791 
Q 947 1169 1205 825 
Q 1463 481 1925 481 
Q 2391 481 2648 825 
Q 2906 1169 2906 1791 
z
M 3481 434 
Q 3481 -459 3084 -895 
Q 2688 -1331 1869 -1331 
Q 1566 -1331 1297 -1286 
Q 1028 -1241 775 -1147 
L 775 -588 
Q 1028 -725 1275 -790 
Q 1522 -856 1778 -856 
Q 2344 -856 2625 -561 
Q 2906 -266 2906 331 
L 2906 616 
Q 2728 306 2450 153 
Q 2172 0 1784 0 
Q 1141 0 747 490 
Q 353 981 353 1791 
Q 353 2603 747 3093 
Q 1141 3584 1784 3584 
Q 2172 3584 2450 3431 
Q 2728 3278 2906 2969 
L 2906 3500 
L 3481 3500 
L 3481 434 
z
" transform="scale(0.015625)"/>
      <path id="DejaVuSans-6d" d="M 3328 2828 
Q 3544 3216 3844 3400 
Q 4144 3584 4550 3584 
Q 5097 3584 5394 3201 
Q 5691 2819 5691 2113 
L 5691 0 
L 5113 0 
L 5113 2094 
Q 5113 2597 4934 2840 
Q 4756 3084 4391 3084 
Q 3944 3084 3684 2787 
Q 3425 2491 3425 1978 
L 3425 0 
L 2847 0 
L 2847 2094 
Q 2847 2600 2669 2842 
Q 2491 3084 2119 3084 
Q 1678 3084 1418 2786 
Q 1159 2488 1159 1978 
L 1159 0 
L 581 0 
L 581 3500 
L 1159 3500 
L 1159 2956 
Q 1356 3278 1631 3431 
Q 1906 3584 2284 3584 
Q 2666 3584 2933 3390 
Q 3200 3197 3328 2828 
z
" transform="scale(0.015625)"/>
     </defs>
     <use xlink:href="#DejaVuSans-67"/>
     <use xlink:href="#DejaVuSans-61" transform="translate(63.476562 0)"/>
     <use xlink:href="#DejaVuSans-6d" transform="translate(124.755859 0)"/>
     <use xlink:href="#DejaVuSans-6d" transform="translate(222.167969 0)"/>
     <use xlink:href="#DejaVuSans-61" transform="translate(319.580078 0)"/>
    </g>
   </g>
  </g>
  <g id="axes_12">
   <g id="patch_19">
    <path d="M 304.519466 518.4 
L 343.936252 518.4 
L 343.936252 465.515298 
L 304.519466 465.515298 
z
" style="fill: #ffffff"/>
   </g>
   <g id="matplotlib.axis_23">
    <g id="xtick_17">
     <g id="text_20">
      <!-- Pre -->
      <g transform="translate(302.20356 532.998437) scale(0.1 -0.1)">
       <defs>
        <path id="DejaVuSans-50" d="M 1259 4147 
L 1259 2394 
L 2053 2394 
Q 2494 2394 2734 2622 
Q 2975 2850 2975 3272 
Q 2975 3691 2734 3919 
Q 2494 4147 2053 4147 
L 1259 4147 
z
M 628 4666 
L 2053 4666 
Q 2838 4666 3239 4311 
Q 3641 3956 3641 3272 
Q 3641 2581 3239 2228 
Q 2838 1875 2053 1875 
L 1259 1875 
L 1259 0 
L 628 0 
L 628 4666 
z
" transform="scale(0.015625)"/>
        <path id="DejaVuSans-72" d="M 2631 2963 
Q 2534 3019 2420 3045 
Q 2306 3072 2169 3072 
Q 1681 3072 1420 2755 
Q 1159 2438 1159 1844 
L 1159 0 
L 581 0 
L 581 3500 
L 1159 3500 
L 1159 2956 
Q 1341 3275 1631 3429 
Q 1922 3584 2338 3584 
Q 2397 3584 2469 3576 
Q 2541 3569 2628 3553 
L 2631 2963 
z
" transform="scale(0.015625)"/>
       </defs>
       <use xlink:href="#DejaVuSans-50"/>
       <use xlink:href="#DejaVuSans-72" transform="translate(58.552734 0)"/>
       <use xlink:href="#DejaVuSans-65" transform="translate(97.416016 0)"/>
      </g>
     </g>
    </g>
    <g id="xtick_18">
     <g id="text_21">
      <!-- Post -->
      <g transform="translate(327.84747 532.998437) scale(0.1 -0.1)">
       <defs>
        <path id="DejaVuSans-6f" d="M 1959 3097 
Q 1497 3097 1228 2736 
Q 959 2375 959 1747 
Q 959 1119 1226 758 
Q 1494 397 1959 397 
Q 2419 397 2687 759 
Q 2956 1122 2956 1747 
Q 2956 2369 2687 2733 
Q 2419 3097 1959 3097 
z
M 1959 3584 
Q 2709 3584 3137 3096 
Q 3566 2609 3566 1747 
Q 3566 888 3137 398 
Q 2709 -91 1959 -91 
Q 1206 -91 779 398 
Q 353 888 353 1747 
Q 353 2609 779 3096 
Q 1206 3584 1959 3584 
z
" transform="scale(0.015625)"/>
        <path id="DejaVuSans-73" d="M 2834 3397 
L 2834 2853 
Q 2591 2978 2328 3040 
Q 2066 3103 1784 3103 
Q 1356 3103 1142 2972 
Q 928 2841 928 2578 
Q 928 2378 1081 2264 
Q 1234 2150 1697 2047 
L 1894 2003 
Q 2506 1872 2764 1633 
Q 3022 1394 3022 966 
Q 3022 478 2636 193 
Q 2250 -91 1575 -91 
Q 1294 -91 989 -36 
Q 684 19 347 128 
L 347 722 
Q 666 556 975 473 
Q 1284 391 1588 391 
Q 1994 391 2212 530 
Q 2431 669 2431 922 
Q 2431 1156 2273 1281 
Q 2116 1406 1581 1522 
L 1381 1569 
Q 847 1681 609 1914 
Q 372 2147 372 2553 
Q 372 3047 722 3315 
Q 1072 3584 1716 3584 
Q 2034 3584 2315 3537 
Q 2597 3491 2834 3397 
z
" transform="scale(0.015625)"/>
       </defs>
       <use xlink:href="#DejaVuSans-50"/>
       <use xlink:href="#DejaVuSans-6f" transform="translate(56.677734 0)"/>
       <use xlink:href="#DejaVuSans-73" transform="translate(117.859375 0)"/>
       <use xlink:href="#DejaVuSans-74" transform="translate(169.958984 0)"/>
      </g>
     </g>
    </g>
   </g>
   <g id="matplotlib.axis_24">
    <g id="ytick_23"/>
    <g id="ytick_24"/>
   </g>
   <g id="line2d_53">
    <path d="M 310.150435 514.890065 
L 338.305283 511.726802 
" clip-path="url(#p6382e84586)" style="fill: none; stroke: #ff0000; stroke-width: 1.5; stroke-linecap: square"/>
    <g clip-path="url(#p6382e84586)">
     <use xlink:href="#m5205514766" x="310.150435" y="514.890065" style="fill: #ff0000; stroke: #ff0000; stroke-linejoin: miter"/>
     <use xlink:href="#m5205514766" x="338.305283" y="511.726802" style="fill: #ff0000; stroke: #ff0000; stroke-linejoin: miter"/>
    </g>
   </g>
   <g id="line2d_54">
    <path d="M 310.150435 513.260062 
L 338.305283 513.271313 
" clip-path="url(#p6382e84586)" style="fill: none; stroke: #0000ff; stroke-width: 1.5; stroke-linecap: square"/>
    <g clip-path="url(#p6382e84586)">
     <use xlink:href="#md729f36874" x="310.150435" y="513.260062" style="fill: #0000ff; stroke: #0000ff; stroke-linejoin: miter"/>
     <use xlink:href="#md729f36874" x="338.305283" y="513.271313" style="fill: #0000ff; stroke: #0000ff; stroke-linejoin: miter"/>
    </g>
   </g>
  </g>
  <g id="text_22">
   <!-- variance (a.u.) -->
   <g transform="translate(14.798438 324.428125) rotate(-90) scale(0.1 -0.1)">
    <defs>
     <path id="DejaVuSans-76" d="M 191 3500 
L 800 3500 
L 1894 563 
L 2988 3500 
L 3597 3500 
L 2284 0 
L 1503 0 
L 191 3500 
z
" transform="scale(0.015625)"/>
     <path id="DejaVuSans-69" d="M 603 3500 
L 1178 3500 
L 1178 0 
L 603 0 
L 603 3500 
z
M 603 4863 
L 1178 4863 
L 1178 4134 
L 603 4134 
L 603 4863 
z
" transform="scale(0.015625)"/>
     <path id="DejaVuSans-6e" d="M 3513 2113 
L 3513 0 
L 2938 0 
L 2938 2094 
Q 2938 2591 2744 2837 
Q 2550 3084 2163 3084 
Q 1697 3084 1428 2787 
Q 1159 2491 1159 1978 
L 1159 0 
L 581 0 
L 581 3500 
L 1159 3500 
L 1159 2956 
Q 1366 3272 1645 3428 
Q 1925 3584 2291 3584 
Q 2894 3584 3203 3211 
Q 3513 2838 3513 2113 
z
" transform="scale(0.015625)"/>
     <path id="DejaVuSans-63" d="M 3122 3366 
L 3122 2828 
Q 2878 2963 2633 3030 
Q 2388 3097 2138 3097 
Q 1578 3097 1268 2742 
Q 959 2388 959 1747 
Q 959 1106 1268 751 
Q 1578 397 2138 397 
Q 2388 397 2633 464 
Q 2878 531 3122 666 
L 3122 134 
Q 2881 22 2623 -34 
Q 2366 -91 2075 -91 
Q 1284 -91 818 406 
Q 353 903 353 1747 
Q 353 2603 823 3093 
Q 1294 3584 2113 3584 
Q 2378 3584 2631 3529 
Q 2884 3475 3122 3366 
z
" transform="scale(0.015625)"/>
     <path id="DejaVuSans-20" transform="scale(0.015625)"/>
     <path id="DejaVuSans-28" d="M 1984 4856 
Q 1566 4138 1362 3434 
Q 1159 2731 1159 2009 
Q 1159 1288 1364 580 
Q 1569 -128 1984 -844 
L 1484 -844 
Q 1016 -109 783 600 
Q 550 1309 550 2009 
Q 550 2706 781 3412 
Q 1013 4119 1484 4856 
L 1984 4856 
z
" transform="scale(0.015625)"/>
     <path id="DejaVuSans-29" d="M 513 4856 
L 1013 4856 
Q 1481 4119 1714 3412 
Q 1947 2706 1947 2009 
Q 1947 1309 1714 600 
Q 1481 -109 1013 -844 
L 513 -844 
Q 928 -128 1133 580 
Q 1338 1288 1338 2009 
Q 1338 2731 1133 3434 
Q 928 4138 513 4856 
z
" transform="scale(0.015625)"/>
    </defs>
    <use xlink:href="#DejaVuSans-76"/>
    <use xlink:href="#DejaVuSans-61" transform="translate(59.179688 0)"/>
    <use xlink:href="#DejaVuSans-72" transform="translate(120.458984 0)"/>
    <use xlink:href="#DejaVuSans-69" transform="translate(161.572266 0)"/>
    <use xlink:href="#DejaVuSans-61" transform="translate(189.355469 0)"/>
    <use xlink:href="#DejaVuSans-6e" transform="translate(250.634766 0)"/>
    <use xlink:href="#DejaVuSans-63" transform="translate(314.013672 0)"/>
    <use xlink:href="#DejaVuSans-65" transform="translate(368.994141 0)"/>
    <use xlink:href="#DejaVuSans-20" transform="translate(430.517578 0)"/>
    <use xlink:href="#DejaVuSans-28" transform="translate(462.304688 0)"/>
    <use xlink:href="#DejaVuSans-61" transform="translate(501.318359 0)"/>
    <use xlink:href="#DejaVuSans-2e" transform="translate(562.597656 0)"/>
    <use xlink:href="#DejaVuSans-75" transform="translate(594.384766 0)"/>
    <use xlink:href="#DejaVuSans-2e" transform="translate(657.763672 0)"/>
    <use xlink:href="#DejaVuSans-29" transform="translate(689.550781 0)"/>
   </g>
  </g>
  <g id="text_23">
   <!-- Variance explained by component model (monkey P, PMd) -->
   <g transform="translate(4.854375 20.638125) scale(0.12 -0.12)">
    <defs>
     <path id="DejaVuSans-56" d="M 1831 0 
L 50 4666 
L 709 4666 
L 2188 738 
L 3669 4666 
L 4325 4666 
L 2547 0 
L 1831 0 
z
" transform="scale(0.015625)"/>
     <path id="DejaVuSans-78" d="M 3513 3500 
L 2247 1797 
L 3578 0 
L 2900 0 
L 1881 1375 
L 863 0 
L 184 0 
L 1544 1831 
L 300 3500 
L 978 3500 
L 1906 2253 
L 2834 3500 
L 3513 3500 
z
" transform="scale(0.015625)"/>
     <path id="DejaVuSans-79" d="M 2059 -325 
Q 1816 -950 1584 -1140 
Q 1353 -1331 966 -1331 
L 506 -1331 
L 506 -850 
L 844 -850 
Q 1081 -850 1212 -737 
Q 1344 -625 1503 -206 
L 1606 56 
L 191 3500 
L 800 3500 
L 1894 763 
L 2988 3500 
L 3597 3500 
L 2059 -325 
z
" transform="scale(0.015625)"/>
     <path id="DejaVuSans-6b" d="M 581 4863 
L 1159 4863 
L 1159 1991 
L 2875 3500 
L 3609 3500 
L 1753 1863 
L 3688 0 
L 2938 0 
L 1159 1709 
L 1159 0 
L 581 0 
L 581 4863 
z
" transform="scale(0.015625)"/>
     <path id="DejaVuSans-2c" d="M 750 794 
L 1409 794 
L 1409 256 
L 897 -744 
L 494 -744 
L 750 256 
L 750 794 
z
" transform="scale(0.015625)"/>
     <path id="DejaVuSans-4d" d="M 628 4666 
L 1569 4666 
L 2759 1491 
L 3956 4666 
L 4897 4666 
L 4897 0 
L 4281 0 
L 4281 4097 
L 3078 897 
L 2444 897 
L 1241 4097 
L 1241 0 
L 628 0 
L 628 4666 
z
" transform="scale(0.015625)"/>
    </defs>
    <use xlink:href="#DejaVuSans-56"/>
    <use xlink:href="#DejaVuSans-61" transform="translate(60.658203 0)"/>
    <use xlink:href="#DejaVuSans-72" transform="translate(121.9375 0)"/>
    <use xlink:href="#DejaVuSans-69" transform="translate(163.050781 0)"/>
    <use xlink:href="#DejaVuSans-61" transform="translate(190.833984 0)"/>
    <use xlink:href="#DejaVuSans-6e" transform="translate(252.113281 0)"/>
    <use xlink:href="#DejaVuSans-63" transform="translate(315.492188 0)"/>
    <use xlink:href="#DejaVuSans-65" transform="translate(370.472656 0)"/>
    <use xlink:href="#DejaVuSans-20" transform="translate(431.996094 0)"/>
    <use xlink:href="#DejaVuSans-65" transform="translate(463.783203 0)"/>
    <use xlink:href="#DejaVuSans-78" transform="translate(523.556641 0)"/>
    <use xlink:href="#DejaVuSans-70" transform="translate(582.736328 0)"/>
    <use xlink:href="#DejaVuSans-6c" transform="translate(646.212891 0)"/>
    <use xlink:href="#DejaVuSans-61" transform="translate(673.996094 0)"/>
    <use xlink:href="#DejaVuSans-69" transform="translate(735.275391 0)"/>
    <use xlink:href="#DejaVuSans-6e" transform="translate(763.058594 0)"/>
    <use xlink:href="#DejaVuSans-65" transform="translate(826.4375 0)"/>
    <use xlink:href="#DejaVuSans-64" transform="translate(887.960938 0)"/>
    <use xlink:href="#DejaVuSans-20" transform="translate(951.4375 0)"/>
    <use xlink:href="#DejaVuSans-62" transform="translate(983.224609 0)"/>
    <use xlink:href="#DejaVuSans-79" transform="translate(1046.701172 0)"/>
    <use xlink:href="#DejaVuSans-20" transform="translate(1105.880859 0)"/>
    <use xlink:href="#DejaVuSans-63" transform="translate(1137.667969 0)"/>
    <use xlink:href="#DejaVuSans-6f" transform="translate(1192.648438 0)"/>
    <use xlink:href="#DejaVuSans-6d" transform="translate(1253.830078 0)"/>
    <use xlink:href="#DejaVuSans-70" transform="translate(1351.242188 0)"/>
    <use xlink:href="#DejaVuSans-6f" transform="translate(1414.71875 0)"/>
    <use xlink:href="#DejaVuSans-6e" transform="translate(1475.900391 0)"/>
    <use xlink:href="#DejaVuSans-65" transform="translate(1539.279297 0)"/>
    <use xlink:href="#DejaVuSans-6e" transform="translate(1600.802734 0)"/>
    <use xlink:href="#DejaVuSans-74" transform="translate(1664.181641 0)"/>
    <use xlink:href="#DejaVuSans-20" transform="translate(1703.390625 0)"/>
    <use xlink:href="#DejaVuSans-6d" transform="translate(1735.177734 0)"/>
    <use xlink:href="#DejaVuSans-6f" transform="translate(1832.589844 0)"/>
    <use xlink:href="#DejaVuSans-64" transform="translate(1893.771484 0)"/>
    <use xlink:href="#DejaVuSans-65" transform="translate(1957.248047 0)"/>
    <use xlink:href="#DejaVuSans-6c" transform="translate(2018.771484 0)"/>
    <use xlink:href="#DejaVuSans-20" transform="translate(2046.554688 0)"/>
    <use xlink:href="#DejaVuSans-28" transform="translate(2078.341797 0)"/>
    <use xlink:href="#DejaVuSans-6d" transform="translate(2117.355469 0)"/>
    <use xlink:href="#DejaVuSans-6f" transform="translate(2214.767578 0)"/>
    <use xlink:href="#DejaVuSans-6e" transform="translate(2275.949219 0)"/>
    <use xlink:href="#DejaVuSans-6b" transform="translate(2339.328125 0)"/>
    <use xlink:href="#DejaVuSans-65" transform="translate(2393.613281 0)"/>
    <use xlink:href="#DejaVuSans-79" transform="translate(2455.136719 0)"/>
    <use xlink:href="#DejaVuSans-20" transform="translate(2514.316406 0)"/>
    <use xlink:href="#DejaVuSans-50" transform="translate(2546.103516 0)"/>
    <use xlink:href="#DejaVuSans-2c" transform="translate(2606.40625 0)"/>
    <use xlink:href="#DejaVuSans-20" transform="translate(2638.193359 0)"/>
    <use xlink:href="#DejaVuSans-50" transform="translate(2669.980469 0)"/>
    <use xlink:href="#DejaVuSans-4d" transform="translate(2730.283203 0)"/>
    <use xlink:href="#DejaVuSans-64" transform="translate(2816.5625 0)"/>
    <use xlink:href="#DejaVuSans-29" transform="translate(2880.039062 0)"/>
   </g>
  </g>
  <g id="legend_1">
   <g id="line2d_55">
    <path d="M 215.613281 562.878281 
L 224.613281 562.878281 
L 233.613281 562.878281 
" style="fill: none; stroke: #ff0000; stroke-width: 1.5; stroke-linecap: square"/>
   </g>
   <g id="text_24">
    <!-- cue -->
    <g transform="translate(240.813281 566.028281) scale(0.09 -0.09)">
     <use xlink:href="#DejaVuSans-63"/>
     <use xlink:href="#DejaVuSans-75" transform="translate(54.980469 0)"/>
     <use xlink:href="#DejaVuSans-65" transform="translate(118.359375 0)"/>
    </g>
   </g>
   <g id="line2d_56">
    <path d="M 275.003438 562.878281 
L 284.003438 562.878281 
L 293.003438 562.878281 
" style="fill: none; stroke: #0000ff; stroke-width: 1.5; stroke-linecap: square"/>
   </g>
   <g id="text_25">
    <!-- uncertainty -->
    <g transform="translate(300.203438 566.028281) scale(0.09 -0.09)">
     <use xlink:href="#DejaVuSans-75"/>
     <use xlink:href="#DejaVuSans-6e" transform="translate(63.378906 0)"/>
     <use xlink:href="#DejaVuSans-63" transform="translate(126.757812 0)"/>
     <use xlink:href="#DejaVuSans-65" transform="translate(181.738281 0)"/>
     <use xlink:href="#DejaVuSans-72" transform="translate(243.261719 0)"/>
     <use xlink:href="#DejaVuSans-74" transform="translate(284.375 0)"/>
     <use xlink:href="#DejaVuSans-61" transform="translate(323.583984 0)"/>
     <use xlink:href="#DejaVuSans-69" transform="translate(384.863281 0)"/>
     <use xlink:href="#DejaVuSans-6e" transform="translate(412.646484 0)"/>
     <use xlink:href="#DejaVuSans-74" transform="translate(476.025391 0)"/>
     <use xlink:href="#DejaVuSans-79" transform="translate(515.234375 0)"/>
    </g>
   </g>
  </g>
 </g>
 <defs>
  <clipPath id="p13f8fda4c7">
   <rect x="54.43" y="50.64" width="236.500718" height="52.884702"/>
  </clipPath>
  <clipPath id="p38c01bcb31">
   <rect x="304.519466" y="50.64" width="39.416786" height="52.884702"/>
  </clipPath>
  <clipPath id="p428a1431ff">
   <rect x="54.43" y="133.61506" width="236.500718" height="52.884702"/>
  </clipPath>
  <clipPath id="p62711e84f5">
   <rect x="304.519466" y="133.61506" width="39.416786" height="52.884702"/>
  </clipPath>
  <clipPath id="p8e98a65f26">
   <rect x="54.43" y="216.590119" width="236.500718" height="52.884702"/>
  </clipPath>
  <clipPath id="pc472969bbd">
   <rect x="304.519466" y="216.590119" width="39.416786" height="52.884702"/>
  </clipPath>
  <clipPath id="p8d00862e54">
   <rect x="54.43" y="299.565179" width="236.500718" height="52.884702"/>
  </clipPath>
  <clipPath id="p9efcec3822">
   <rect x="304.519466" y="299.565179" width="39.416786" height="52.884702"/>
  </clipPath>
  <clipPath id="p21e68816aa">
   <rect x="54.43" y="382.540239" width="236.500718" height="52.884702"/>
  </clipPath>
  <clipPath id="p50192cce8f">
   <rect x="304.519466" y="382.540239" width="39.416786" height="52.884702"/>
  </clipPath>
  <clipPath id="p14e6883714">
   <rect x="54.43" y="465.515298" width="236.500718" height="52.884702"/>
  </clipPath>
  <clipPath id="p6382e84586">
   <rect x="304.519466" y="465.515298" width="39.416786" height="52.884702"/>
  </clipPath>
 </defs>
</svg>
