<?xml version="1.0" encoding="utf-8" standalone="no"?>
<!DOCTYPE svg PUBLIC "-//W3C//DTD SVG 1.1//EN"
  "http://www.w3.org/Graphics/SVG/1.1/DTD/svg11.dtd">
<svg xmlns:xlink="http://www.w3.org/1999/xlink" width="360pt" height="576pt" viewBox="0 0 360 576" xmlns="http://www.w3.org/2000/svg" version="1.1">
 <metadata>
  <rdf:RDF xmlns:dc="http://purl.org/dc/elements/1.1/" xmlns:cc="http://creativecommons.org/ns#" xmlns:rdf="http://www.w3.org/1999/02/22-rdf-syntax-ns#">
   <cc:Work>
    <dc:type rdf:resource="http://purl.org/dc/dcmitype/StillImage"/>
    <dc:date>2025-07-17T11:54:21.031409</dc:date>
    <dc:format>image/svg+xml</dc:format>
    <dc:creator>
     <cc:Agent>
      <dc:title>Matplotlib v3.10.1, https://matplotlib.org/</dc:title>
     </cc:Agent>
    </dc:creator>
   </cc:Work>
  </rdf:RDF>
 </metadata>
 <defs>
  <style type="text/css">*{stroke-linejoin: round; stroke-linecap: butt}</style>
 </defs>
 <g id="figure_1">
  <g id="patch_1">
   <path d="M 0 576 
L 360 576 
L 360 0 
L 0 0 
z
" style="fill: #ffffff"/>
  </g>
  <g id="axes_1">
   <g id="patch_2">
    <path d="M 54.43 103.524702 
L 290.930718 103.524702 
L 290.930718 50.64 
L 54.43 50.64 
z
" style="fill: #ffffff"/>
   </g>
   <g id="matplotlib.axis_1">
    <g id="xtick_1"/>
   </g>
   <g id="matplotlib.axis_2">
    <g id="ytick_1">
     <g id="line2d_1">
      <defs>
       <path id="m7f5a460325" d="M 0 0 
L -3.5 0 
" style="stroke: #000000; stroke-width: 0.8"/>
      </defs>
      <g>
       <use xlink:href="#m7f5a460325" x="54.43" y="102.691872" style="stroke: #000000; stroke-width: 0.8"/>
      </g>
     </g>
     <g id="text_1">
      <!-- 0.0 -->
      <g transform="translate(31.526875 106.49109) scale(0.1 -0.1)">
       <defs>
        <path id="DejaVuSans-30" d="M 2034 4250 
Q 1547 4250 1301 3770 
Q 1056 3291 1056 2328 
Q 1056 1369 1301 889 
Q 1547 409 2034 409 
Q 2525 409 2770 889 
Q 3016 1369 3016 2328 
Q 3016 3291 2770 3770 
Q 2525 4250 2034 4250 
z
M 2034 4750 
Q 2819 4750 3233 4129 
Q 3647 3509 3647 2328 
Q 3647 1150 3233 529 
Q 2819 -91 2034 -91 
Q 1250 -91 836 529 
Q 422 1150 422 2328 
Q 422 3509 836 4129 
Q 1250 4750 2034 4750 
z
" transform="scale(0.015625)"/>
        <path id="DejaVuSans-2e" d="M 684 794 
L 1344 794 
L 1344 0 
L 684 0 
L 684 794 
z
" transform="scale(0.015625)"/>
       </defs>
       <use xlink:href="#DejaVuSans-30"/>
       <use xlink:href="#DejaVuSans-2e" transform="translate(63.623047 0)"/>
       <use xlink:href="#DejaVuSans-30" transform="translate(95.410156 0)"/>
      </g>
     </g>
    </g>
    <g id="ytick_2">
     <g id="line2d_2">
      <g>
       <use xlink:href="#m7f5a460325" x="54.43" y="50.64" style="stroke: #000000; stroke-width: 0.8"/>
      </g>
     </g>
     <g id="text_2">
      <!-- 0.5 -->
      <g transform="translate(31.526875 54.439219) scale(0.1 -0.1)">
       <defs>
        <path id="DejaVuSans-35" d="M 691 4666 
L 3169 4666 
L 3169 4134 
L 1269 4134 
L 1269 2991 
Q 1406 3038 1543 3061 
Q 1681 3084 1819 3084 
Q 2600 3084 3056 2656 
Q 3513 2228 3513 1497 
Q 3513 744 3044 326 
Q 2575 -91 1722 -91 
Q 1428 -91 1123 -41 
Q 819 9 494 109 
L 494 744 
Q 775 591 1075 516 
Q 1375 441 1709 441 
Q 2250 441 2565 725 
Q 2881 1009 2881 1497 
Q 2881 1984 2565 2268 
Q 2250 2553 1709 2553 
Q 1456 2553 1204 2497 
Q 953 2441 691 2322 
L 691 4666 
z
" transform="scale(0.015625)"/>
       </defs>
       <use xlink:href="#DejaVuSans-30"/>
       <use xlink:href="#DejaVuSans-2e" transform="translate(63.623047 0)"/>
       <use xlink:href="#DejaVuSans-35" transform="translate(95.410156 0)"/>
      </g>
     </g>
    </g>
   </g>
   <g id="line2d_3">
    <path d="M -1 98.606325 
L 20.644183 98.263543 
L 51.051418 97.88322 
L 54.43 96.91078 
L 61.187163 96.644736 
L 71.322908 96.204303 
L 98.351562 95.377989 
L 155.787451 93.863538 
L 182.816104 93.353685 
L 213.223339 92.967059 
L 240.251993 92.836287 
L 263.902065 92.927478 
L 287.552137 93.225924 
L 287.552137 93.225924 
" clip-path="url(#pdaa70716d9)" style="fill: none; stroke: #ffcc33; stroke-width: 1.5; stroke-linecap: square"/>
   </g>
   <g id="line2d_4">
    <path d="M -1 100.806439 
L 24.022765 100.566104 
L 101.730144 100.174549 
L 132.137379 100.334509 
L 155.787451 100.63116 
L 165.923196 100.84011 
L 176.058941 100.751314 
L 196.330431 100.650413 
L 230.116248 100.563855 
L 267.280646 100.420727 
L 287.552137 100.441151 
L 287.552137 100.441151 
" clip-path="url(#pdaa70716d9)" style="fill: none; stroke: #ff0000; stroke-width: 1.5; stroke-linecap: square"/>
   </g>
   <g id="line2d_5">
    <path d="M -1 102.518573 
L 51.051418 102.691863 
L 54.43 102.485807 
L 138.894542 102.691865 
L 287.552137 102.691862 
L 287.552137 102.691862 
" clip-path="url(#pdaa70716d9)" style="fill: none; stroke: #0000ff; stroke-width: 1.5; stroke-linecap: square"/>
   </g>
   <g id="line2d_6">
    <path d="M -1 102.528032 
L 20.644183 102.69187 
L 61.187163 102.592566 
L 98.351562 102.481854 
L 267.280646 102.491261 
L 287.552137 102.50462 
L 287.552137 102.50462 
" clip-path="url(#pdaa70716d9)" style="fill: none; stroke: #ff00ff; stroke-width: 1.5; stroke-linecap: square"/>
   </g>
   <g id="line2d_7">
    <path d="M 54.43 102.691872 
L 290.930718 102.691872 
" clip-path="url(#pdaa70716d9)" style="fill: none; stroke: #000000; stroke-width: 0.8; stroke-linecap: square"/>
   </g>
   <g id="line2d_8">
    <path d="M -1 97.879842 
L 27.401346 97.429263 
L 51.051418 97.142212 
L 54.43 95.881859 
L 98.351562 95.361848 
L 149.030287 94.97838 
L 192.951849 94.855929 
L 233.49483 94.971891 
L 263.902065 95.279711 
L 287.552137 95.678599 
L 287.552137 95.678599 
" clip-path="url(#pdaa70716d9)" style="fill: none; stroke-dasharray: 5.55,2.4; stroke-dashoffset: 0; stroke: #000000; stroke-width: 1.5"/>
   </g>
   <g id="line2d_9">
    <path d="M 155.787451 103.524702 
L 155.787451 50.64 
" clip-path="url(#pdaa70716d9)" style="fill: none; stroke: #000000; stroke-width: 0.8; stroke-linecap: square"/>
   </g>
   <g id="patch_3">
    <path d="M 54.43 102.691872 
L 54.43 50.64 
" style="fill: none; stroke: #000000; stroke-width: 0.8; stroke-linejoin: miter; stroke-linecap: square"/>
   </g>
   <g id="text_3">
    <!-- delta -->
    <g transform="translate(157.483484 44.64) scale(0.12 -0.12)">
     <defs>
      <path id="DejaVuSans-64" d="M 2906 2969 
L 2906 4863 
L 3481 4863 
L 3481 0 
L 2906 0 
L 2906 525 
Q 2725 213 2448 61 
Q 2172 -91 1784 -91 
Q 1150 -91 751 415 
Q 353 922 353 1747 
Q 353 2572 751 3078 
Q 1150 3584 1784 3584 
Q 2172 3584 2448 3432 
Q 2725 3281 2906 2969 
z
M 947 1747 
Q 947 1113 1208 752 
Q 1469 391 1925 391 
Q 2381 391 2643 752 
Q 2906 1113 2906 1747 
Q 2906 2381 2643 2742 
Q 2381 3103 1925 3103 
Q 1469 3103 1208 2742 
Q 947 2381 947 1747 
z
" transform="scale(0.015625)"/>
      <path id="DejaVuSans-65" d="M 3597 1894 
L 3597 1613 
L 953 1613 
Q 991 1019 1311 708 
Q 1631 397 2203 397 
Q 2534 397 2845 478 
Q 3156 559 3463 722 
L 3463 178 
Q 3153 47 2828 -22 
Q 2503 -91 2169 -91 
Q 1331 -91 842 396 
Q 353 884 353 1716 
Q 353 2575 817 3079 
Q 1281 3584 2069 3584 
Q 2775 3584 3186 3129 
Q 3597 2675 3597 1894 
z
M 3022 2063 
Q 3016 2534 2758 2815 
Q 2500 3097 2075 3097 
Q 1594 3097 1305 2825 
Q 1016 2553 972 2059 
L 3022 2063 
z
" transform="scale(0.015625)"/>
      <path id="DejaVuSans-6c" d="M 603 4863 
L 1178 4863 
L 1178 0 
L 603 0 
L 603 4863 
z
" transform="scale(0.015625)"/>
      <path id="DejaVuSans-74" d="M 1172 4494 
L 1172 3500 
L 2356 3500 
L 2356 3053 
L 1172 3053 
L 1172 1153 
Q 1172 725 1289 603 
Q 1406 481 1766 481 
L 2356 481 
L 2356 0 
L 1766 0 
Q 1100 0 847 248 
Q 594 497 594 1153 
L 594 3053 
L 172 3053 
L 172 3500 
L 594 3500 
L 594 4494 
L 1172 4494 
z
" transform="scale(0.015625)"/>
      <path id="DejaVuSans-61" d="M 2194 1759 
Q 1497 1759 1228 1600 
Q 959 1441 959 1056 
Q 959 750 1161 570 
Q 1363 391 1709 391 
Q 2188 391 2477 730 
Q 2766 1069 2766 1631 
L 2766 1759 
L 2194 1759 
z
M 3341 1997 
L 3341 0 
L 2766 0 
L 2766 531 
Q 2569 213 2275 61 
Q 1981 -91 1556 -91 
Q 1019 -91 701 211 
Q 384 513 384 1019 
Q 384 1609 779 1909 
Q 1175 2209 1959 2209 
L 2766 2209 
L 2766 2266 
Q 2766 2663 2505 2880 
Q 2244 3097 1772 3097 
Q 1472 3097 1187 3025 
Q 903 2953 641 2809 
L 641 3341 
Q 956 3463 1253 3523 
Q 1550 3584 1831 3584 
Q 2591 3584 2966 3190 
Q 3341 2797 3341 1997 
z
" transform="scale(0.015625)"/>
     </defs>
     <use xlink:href="#DejaVuSans-64"/>
     <use xlink:href="#DejaVuSans-65" transform="translate(63.476562 0)"/>
     <use xlink:href="#DejaVuSans-6c" transform="translate(125 0)"/>
     <use xlink:href="#DejaVuSans-74" transform="translate(152.783203 0)"/>
     <use xlink:href="#DejaVuSans-61" transform="translate(191.992188 0)"/>
    </g>
   </g>
  </g>
  <g id="axes_2">
   <g id="patch_4">
    <path d="M 304.519466 103.524702 
L 343.936252 103.524702 
L 343.936252 50.64 
L 304.519466 50.64 
z
" style="fill: #ffffff"/>
   </g>
   <g id="matplotlib.axis_3">
    <g id="xtick_2"/>
    <g id="xtick_3"/>
   </g>
   <g id="matplotlib.axis_4">
    <g id="ytick_3"/>
    <g id="ytick_4"/>
   </g>
   <g id="line2d_10">
    <path d="M 310.150435 95.29055 
L 338.305283 93.152029 
" clip-path="url(#p7bf4f62eae)" style="fill: none; stroke: #ffcc33; stroke-width: 1.5; stroke-linecap: square"/>
    <defs>
     <path id="m0cd15ace2f" d="M -2.5 2.5 
L 2.5 2.5 
L 2.5 -2.5 
L -2.5 -2.5 
z
" style="stroke: #ffcc33; stroke-linejoin: miter"/>
    </defs>
    <g clip-path="url(#p7bf4f62eae)">
     <use xlink:href="#m0cd15ace2f" x="310.150435" y="95.29055" style="fill: #ffcc33; stroke: #ffcc33; stroke-linejoin: miter"/>
     <use xlink:href="#m0cd15ace2f" x="338.305283" y="93.152029" style="fill: #ffcc33; stroke: #ffcc33; stroke-linejoin: miter"/>
    </g>
   </g>
   <g id="line2d_11">
    <path d="M 310.150435 100.295241 
L 338.305283 100.640131 
" clip-path="url(#p7bf4f62eae)" style="fill: none; stroke: #ff0000; stroke-width: 1.5; stroke-linecap: square"/>
    <defs>
     <path id="m253294f8c3" d="M -2.5 2.5 
L 2.5 2.5 
L 2.5 -2.5 
L -2.5 -2.5 
z
" style="stroke: #ff0000; stroke-linejoin: miter"/>
    </defs>
    <g clip-path="url(#p7bf4f62eae)">
     <use xlink:href="#m253294f8c3" x="310.150435" y="100.295241" style="fill: #ff0000; stroke: #ff0000; stroke-linejoin: miter"/>
     <use xlink:href="#m253294f8c3" x="338.305283" y="100.640131" style="fill: #ff0000; stroke: #ff0000; stroke-linejoin: miter"/>
    </g>
   </g>
   <g id="line2d_12">
    <path d="M 310.150435 102.646555 
L 338.305283 102.691863 
" clip-path="url(#p7bf4f62eae)" style="fill: none; stroke: #0000ff; stroke-width: 1.5; stroke-linecap: square"/>
    <defs>
     <path id="me5a273b1a1" d="M -2.5 2.5 
L 2.5 2.5 
L 2.5 -2.5 
L -2.5 -2.5 
z
" style="stroke: #0000ff; stroke-linejoin: miter"/>
    </defs>
    <g clip-path="url(#p7bf4f62eae)">
     <use xlink:href="#me5a273b1a1" x="310.150435" y="102.646555" style="fill: #0000ff; stroke: #0000ff; stroke-linejoin: miter"/>
     <use xlink:href="#me5a273b1a1" x="338.305283" y="102.691863" style="fill: #0000ff; stroke: #0000ff; stroke-linejoin: miter"/>
    </g>
   </g>
   <g id="line2d_13">
    <path d="M 310.150435 102.500974 
L 338.305283 102.468621 
" clip-path="url(#p7bf4f62eae)" style="fill: none; stroke: #ff00ff; stroke-width: 1.5; stroke-linecap: square"/>
    <defs>
     <path id="m6dc55fdca2" d="M -2.5 2.5 
L 2.5 2.5 
L 2.5 -2.5 
L -2.5 -2.5 
z
" style="stroke: #ff00ff; stroke-linejoin: miter"/>
    </defs>
    <g clip-path="url(#p7bf4f62eae)">
     <use xlink:href="#m6dc55fdca2" x="310.150435" y="102.500974" style="fill: #ff00ff; stroke: #ff00ff; stroke-linejoin: miter"/>
     <use xlink:href="#m6dc55fdca2" x="338.305283" y="102.468621" style="fill: #ff00ff; stroke: #ff00ff; stroke-linejoin: miter"/>
    </g>
   </g>
  </g>
  <g id="axes_3">
   <g id="patch_5">
    <path d="M 54.43 186.499761 
L 290.930718 186.499761 
L 290.930718 133.61506 
L 54.43 133.61506 
z
" style="fill: #ffffff"/>
   </g>
   <g id="matplotlib.axis_5">
    <g id="xtick_4"/>
   </g>
   <g id="matplotlib.axis_6">
    <g id="ytick_5">
     <g id="line2d_14">
      <g>
       <use xlink:href="#m7f5a460325" x="54.43" y="185.666931" style="stroke: #000000; stroke-width: 0.8"/>
      </g>
     </g>
     <g id="text_4">
      <!-- 0.0 -->
      <g transform="translate(31.526875 189.46615) scale(0.1 -0.1)">
       <use xlink:href="#DejaVuSans-30"/>
       <use xlink:href="#DejaVuSans-2e" transform="translate(63.623047 0)"/>
       <use xlink:href="#DejaVuSans-30" transform="translate(95.410156 0)"/>
      </g>
     </g>
    </g>
    <g id="ytick_6">
     <g id="line2d_15">
      <g>
       <use xlink:href="#m7f5a460325" x="54.43" y="133.61506" style="stroke: #000000; stroke-width: 0.8"/>
      </g>
     </g>
     <g id="text_5">
      <!-- 0.5 -->
      <g transform="translate(31.526875 137.414278) scale(0.1 -0.1)">
       <use xlink:href="#DejaVuSans-30"/>
       <use xlink:href="#DejaVuSans-2e" transform="translate(63.623047 0)"/>
       <use xlink:href="#DejaVuSans-35" transform="translate(95.410156 0)"/>
      </g>
     </g>
    </g>
   </g>
   <g id="line2d_16">
    <path d="M -1 185.666923 
L 7.129856 185.666923 
L 27.401346 185.031347 
L 51.051418 184.539718 
L 54.43 184.748854 
L 61.187163 184.507512 
L 67.944327 183.930314 
L 84.837235 182.933234 
L 88.215817 182.740615 
L 98.351562 181.666877 
L 118.623052 179.945727 
L 132.137379 178.031426 
L 138.894542 176.808503 
L 145.651706 175.910655 
L 155.787451 174.860706 
L 165.923196 174.087589 
L 176.058941 173.564734 
L 186.194686 173.303556 
L 196.330431 173.297859 
L 206.466176 173.522306 
L 216.601921 173.968389 
L 226.737666 174.678996 
L 233.49483 175.326908 
L 240.251993 176.191713 
L 253.76632 178.492737 
L 257.144901 179.185535 
L 260.523483 179.731821 
L 263.902065 180.517531 
L 270.659228 181.504183 
L 277.416392 181.786347 
L 280.794973 181.705929 
L 287.552137 181.829017 
L 287.552137 181.829017 
" clip-path="url(#p0b869edb5a)" style="fill: none; stroke: #ffcc33; stroke-width: 1.5; stroke-linecap: square"/>
   </g>
   <g id="line2d_17">
    <path d="M -1 184.790757 
L 3.751275 184.557294 
L 13.88702 184.254274 
L 20.644183 184.144354 
L 24.022765 183.822126 
L 30.779928 183.509457 
L 51.051418 183.116504 
L 54.43 183.789916 
L 61.187163 183.560423 
L 81.458654 183.111295 
L 84.837235 183.136297 
L 91.594399 182.851094 
L 94.97298 182.626896 
L 101.730144 182.574305 
L 111.865889 182.521019 
L 122.001634 182.538449 
L 135.515961 182.183521 
L 142.273124 182.103149 
L 169.301777 181.262442 
L 196.330431 180.139493 
L 219.980503 179.307506 
L 226.737666 179.30308 
L 233.49483 179.481877 
L 240.251993 179.951923 
L 243.630575 180.612864 
L 253.76632 181.053105 
L 260.523483 181.531693 
L 263.902065 181.922688 
L 277.416392 182.234548 
L 284.173555 182.684622 
L 287.552137 182.793522 
L 287.552137 182.793522 
" clip-path="url(#p0b869edb5a)" style="fill: none; stroke: #ff0000; stroke-width: 1.5; stroke-linecap: square"/>
   </g>
   <g id="line2d_18">
    <path d="M -1 185.666926 
L 101.730144 185.625842 
L 111.865889 185.446346 
L 138.894542 185.331632 
L 145.651706 185.247293 
L 159.166032 184.97732 
L 186.194686 184.608759 
L 189.573268 184.590522 
L 196.330431 184.3576 
L 209.844758 184.20804 
L 219.980503 184.281112 
L 226.737666 184.462278 
L 230.116248 184.673363 
L 260.523483 185.433867 
L 270.659228 185.666926 
L 287.552137 185.666927 
L 287.552137 185.666927 
" clip-path="url(#p0b869edb5a)" style="fill: none; stroke: #0000ff; stroke-width: 1.5; stroke-linecap: square"/>
   </g>
   <g id="line2d_19">
    <path d="M -1 183.305487 
L 7.129856 183.06291 
L 20.644183 182.820922 
L 37.537092 182.773626 
L 51.051418 182.976581 
L 54.43 183.809939 
L 71.322908 183.498567 
L 105.108725 182.800234 
L 111.865889 182.433801 
L 125.380215 182.019958 
L 138.894542 181.805336 
L 149.030287 181.827076 
L 159.166032 182.038092 
L 189.573268 183.147206 
L 240.251993 183.760234 
L 247.009156 183.903475 
L 250.387738 183.881376 
L 253.76632 184.064832 
L 270.659228 184.290894 
L 280.794973 184.04411 
L 287.552137 183.942399 
L 287.552137 183.942399 
" clip-path="url(#p0b869edb5a)" style="fill: none; stroke: #ff00ff; stroke-width: 1.5; stroke-linecap: square"/>
   </g>
   <g id="line2d_20">
    <path d="M 54.43 185.666931 
L 290.930718 185.666931 
" clip-path="url(#p0b869edb5a)" style="fill: none; stroke: #000000; stroke-width: 0.8; stroke-linecap: square"/>
   </g>
   <g id="line2d_21">
    <path d="M 40.915673 184.279434 
L 44.294255 183.6736 
L 51.051418 182.980175 
M 81.458654 184.779082 
L 84.837235 183.370424 
L 88.215817 182.501358 
L 94.97298 181.14993 
L 105.108725 179.452325 
L 115.24447 177.961644 
L 125.380215 176.681924 
L 135.515961 175.629368 
L 145.651706 174.785082 
L 159.166032 173.918825 
L 172.680359 173.275244 
L 186.194686 172.877723 
L 196.330431 172.775082 
L 206.466176 172.85964 
L 216.601921 173.20367 
L 223.359084 173.619325 
L 230.116248 174.192282 
L 240.251993 175.311523 
L 270.659228 179.010324 
L 277.416392 179.658026 
L 284.173555 179.994132 
L 287.552137 180.012547 
L 287.552137 180.012547 
" clip-path="url(#p0b869edb5a)" style="fill: none; stroke-dasharray: 5.55,2.4; stroke-dashoffset: 0; stroke: #000000; stroke-width: 1.5"/>
   </g>
   <g id="line2d_22">
    <path d="M 155.787451 186.499761 
L 155.787451 133.61506 
" clip-path="url(#p0b869edb5a)" style="fill: none; stroke: #000000; stroke-width: 0.8; stroke-linecap: square"/>
   </g>
   <g id="patch_6">
    <path d="M 54.43 185.666931 
L 54.43 133.61506 
" style="fill: none; stroke: #000000; stroke-width: 0.8; stroke-linejoin: miter; stroke-linecap: square"/>
   </g>
   <g id="text_6">
    <!-- theta -->
    <g transform="translate(156.804734 127.61506) scale(0.12 -0.12)">
     <defs>
      <path id="DejaVuSans-68" d="M 3513 2113 
L 3513 0 
L 2938 0 
L 2938 2094 
Q 2938 2591 2744 2837 
Q 2550 3084 2163 3084 
Q 1697 3084 1428 2787 
Q 1159 2491 1159 1978 
L 1159 0 
L 581 0 
L 581 4863 
L 1159 4863 
L 1159 2956 
Q 1366 3272 1645 3428 
Q 1925 3584 2291 3584 
Q 2894 3584 3203 3211 
Q 3513 2838 3513 2113 
z
" transform="scale(0.015625)"/>
     </defs>
     <use xlink:href="#DejaVuSans-74"/>
     <use xlink:href="#DejaVuSans-68" transform="translate(39.208984 0)"/>
     <use xlink:href="#DejaVuSans-65" transform="translate(102.587891 0)"/>
     <use xlink:href="#DejaVuSans-74" transform="translate(164.111328 0)"/>
     <use xlink:href="#DejaVuSans-61" transform="translate(203.320312 0)"/>
    </g>
   </g>
  </g>
  <g id="axes_4">
   <g id="patch_7">
    <path d="M 304.519466 186.499761 
L 343.936252 186.499761 
L 343.936252 133.61506 
L 304.519466 133.61506 
z
" style="fill: #ffffff"/>
   </g>
   <g id="matplotlib.axis_7">
    <g id="xtick_5"/>
    <g id="xtick_6"/>
   </g>
   <g id="matplotlib.axis_8">
    <g id="ytick_7"/>
    <g id="ytick_8"/>
   </g>
   <g id="line2d_23">
    <path d="M 310.150435 180.792748 
L 338.305283 174.696405 
" clip-path="url(#pae7a353967)" style="fill: none; stroke: #ffcc33; stroke-width: 1.5; stroke-linecap: square"/>
    <g clip-path="url(#pae7a353967)">
     <use xlink:href="#m0cd15ace2f" x="310.150435" y="180.792748" style="fill: #ffcc33; stroke: #ffcc33; stroke-linejoin: miter"/>
     <use xlink:href="#m0cd15ace2f" x="338.305283" y="174.696405" style="fill: #ffcc33; stroke: #ffcc33; stroke-linejoin: miter"/>
    </g>
   </g>
   <g id="line2d_24">
    <path d="M 310.150435 182.724086 
L 338.305283 180.373254 
" clip-path="url(#pae7a353967)" style="fill: none; stroke: #ff0000; stroke-width: 1.5; stroke-linecap: square"/>
    <g clip-path="url(#pae7a353967)">
     <use xlink:href="#m253294f8c3" x="310.150435" y="182.724086" style="fill: #ff0000; stroke: #ff0000; stroke-linejoin: miter"/>
     <use xlink:href="#m253294f8c3" x="338.305283" y="180.373254" style="fill: #ff0000; stroke: #ff0000; stroke-linejoin: miter"/>
    </g>
   </g>
   <g id="line2d_25">
    <path d="M 310.150435 185.506758 
L 338.305283 184.675147 
" clip-path="url(#pae7a353967)" style="fill: none; stroke: #0000ff; stroke-width: 1.5; stroke-linecap: square"/>
    <g clip-path="url(#pae7a353967)">
     <use xlink:href="#me5a273b1a1" x="310.150435" y="185.506758" style="fill: #0000ff; stroke: #0000ff; stroke-linejoin: miter"/>
     <use xlink:href="#me5a273b1a1" x="338.305283" y="184.675147" style="fill: #0000ff; stroke: #0000ff; stroke-linejoin: miter"/>
    </g>
   </g>
   <g id="line2d_26">
    <path d="M 310.150435 182.713897 
L 338.305283 183.220582 
" clip-path="url(#pae7a353967)" style="fill: none; stroke: #ff00ff; stroke-width: 1.5; stroke-linecap: square"/>
    <g clip-path="url(#pae7a353967)">
     <use xlink:href="#m6dc55fdca2" x="310.150435" y="182.713897" style="fill: #ff00ff; stroke: #ff00ff; stroke-linejoin: miter"/>
     <use xlink:href="#m6dc55fdca2" x="338.305283" y="183.220582" style="fill: #ff00ff; stroke: #ff00ff; stroke-linejoin: miter"/>
    </g>
   </g>
  </g>
  <g id="axes_5">
   <g id="patch_8">
    <path d="M 54.43 269.474821 
L 290.930718 269.474821 
L 290.930718 216.590119 
L 54.43 216.590119 
z
" style="fill: #ffffff"/>
   </g>
   <g id="matplotlib.axis_9">
    <g id="xtick_7"/>
   </g>
   <g id="matplotlib.axis_10">
    <g id="ytick_9">
     <g id="line2d_27">
      <g>
       <use xlink:href="#m7f5a460325" x="54.43" y="268.641991" style="stroke: #000000; stroke-width: 0.8"/>
      </g>
     </g>
     <g id="text_7">
      <!-- 0.0 -->
      <g transform="translate(31.526875 272.44121) scale(0.1 -0.1)">
       <use xlink:href="#DejaVuSans-30"/>
       <use xlink:href="#DejaVuSans-2e" transform="translate(63.623047 0)"/>
       <use xlink:href="#DejaVuSans-30" transform="translate(95.410156 0)"/>
      </g>
     </g>
    </g>
    <g id="ytick_10">
     <g id="line2d_28">
      <g>
       <use xlink:href="#m7f5a460325" x="54.43" y="216.590119" style="stroke: #000000; stroke-width: 0.8"/>
      </g>
     </g>
     <g id="text_8">
      <!-- 0.5 -->
      <g transform="translate(31.526875 220.389338) scale(0.1 -0.1)">
       <use xlink:href="#DejaVuSans-30"/>
       <use xlink:href="#DejaVuSans-2e" transform="translate(63.623047 0)"/>
       <use xlink:href="#DejaVuSans-35" transform="translate(95.410156 0)"/>
      </g>
     </g>
    </g>
   </g>
   <g id="line2d_29">
    <path d="M -1 267.689138 
L 0.372693 267.740719 
L 3.751275 267.723883 
L 10.508438 267.349133 
L 17.265601 267.182462 
L 20.644183 267.22837 
L 27.401346 267.607928 
L 30.779928 267.716176 
L 37.537092 268.194731 
L 40.915673 267.972326 
L 47.672837 267.846997 
L 51.051418 267.904182 
L 54.43 268.640607 
L 64.565745 267.967717 
L 67.944327 267.552679 
L 71.322908 267.401138 
L 81.458654 267.605205 
L 84.837235 267.926243 
L 88.215817 268.079304 
L 91.594399 268.000977 
L 101.730144 268.104506 
L 111.865889 267.997191 
L 115.24447 268.100581 
L 118.623052 268.340404 
L 122.001634 268.169923 
L 125.380215 267.705254 
L 132.137379 266.349229 
L 138.894542 263.638945 
L 142.273124 261.403859 
L 145.651706 258.935178 
L 149.030287 256.86882 
L 152.408869 255.22915 
L 155.787451 254.100464 
L 159.166032 253.451469 
L 162.544614 253.130671 
L 165.923196 253.019397 
L 169.301777 253.0602 
L 179.437523 253.506522 
L 182.816104 253.518179 
L 186.194686 253.310728 
L 192.951849 252.780475 
L 196.330431 252.73268 
L 203.087594 252.849868 
L 206.466176 252.838358 
L 209.844758 253.108117 
L 213.223339 253.635767 
L 219.980503 255.336824 
L 223.359084 256.240808 
L 226.737666 257.299082 
L 230.116248 258.594988 
L 233.49483 260.217028 
L 240.251993 262.379624 
L 247.009156 263.70923 
L 250.387738 264.263679 
L 253.76632 264.510589 
L 257.144901 264.613195 
L 260.523483 264.290632 
L 270.659228 264.046135 
L 277.416392 262.920418 
L 284.173555 262.21087 
L 287.552137 262.115671 
L 287.552137 262.115671 
" clip-path="url(#pb516e7d3ac)" style="fill: none; stroke: #ffcc33; stroke-width: 1.5; stroke-linecap: square"/>
   </g>
   <g id="line2d_30">
    <path d="M -1 267.434153 
L 10.508438 266.642728 
L 17.265601 265.795312 
L 20.644183 265.251964 
L 27.401346 264.528583 
L 34.15851 264.171568 
L 40.915673 264.182021 
L 51.051418 264.31297 
L 54.43 265.536254 
L 57.808582 265.042087 
L 61.187163 264.379853 
L 64.565745 263.351156 
L 67.944327 262.505182 
L 71.322908 261.795755 
L 78.080072 260.141286 
L 81.458654 259.726701 
L 88.215817 259.374227 
L 94.97298 259.212753 
L 105.108725 259.301465 
L 108.487307 259.588085 
L 111.865889 260.149009 
L 118.623052 261.775633 
L 128.758797 264.313394 
L 135.515961 265.65424 
L 145.651706 266.246871 
L 155.787451 266.599731 
L 162.544614 266.802022 
L 165.923196 267.056572 
L 172.680359 267.13551 
L 179.437523 266.851602 
L 182.816104 266.755269 
L 186.194686 266.085698 
L 189.573268 265.579825 
L 192.951849 265.434591 
L 196.330431 265.720248 
L 203.087594 267.357949 
L 206.466176 267.570063 
L 209.844758 267.925523 
L 213.223339 267.897704 
L 216.601921 267.661797 
L 223.359084 268.037162 
L 226.737666 268.079247 
L 230.116248 267.857727 
L 233.49483 267.968539 
L 236.873411 268.507549 
L 240.251993 268.641983 
L 257.144901 268.555926 
L 260.523483 267.690077 
L 263.902065 267.224585 
L 270.659228 266.743907 
L 274.03781 266.996754 
L 277.416392 266.778004 
L 284.173555 266.745411 
L 287.552137 266.334847 
L 287.552137 266.334847 
" clip-path="url(#pb516e7d3ac)" style="fill: none; stroke: #ff0000; stroke-width: 1.5; stroke-linecap: square"/>
   </g>
   <g id="line2d_31">
    <path d="M -1 266.818074 
L 0.372693 266.422858 
L 3.751275 265.870671 
L 7.129856 265.553799 
L 13.88702 265.259768 
L 20.644183 265.293972 
L 24.022765 265.414386 
L 27.401346 265.741403 
L 34.15851 265.200768 
L 37.537092 265.123494 
L 40.915673 265.199736 
L 44.294255 265.494127 
L 51.051418 265.644821 
L 54.43 264.026896 
L 61.187163 264.705668 
L 64.565745 265.351377 
L 67.944327 265.720665 
L 71.322908 266.202014 
L 74.70149 267.022878 
L 78.080072 267.371507 
L 81.458654 267.581136 
L 88.215817 267.824932 
L 91.594399 267.413903 
L 94.97298 267.343843 
L 105.108725 268.118935 
L 108.487307 267.390258 
L 111.865889 266.868375 
L 115.24447 266.038176 
L 125.380215 264.549145 
L 128.758797 264.170803 
L 132.137379 264.162648 
L 135.515961 264.471231 
L 138.894542 264.633648 
L 145.651706 265.35073 
L 149.030287 266.396328 
L 155.787451 267.65185 
L 165.923196 267.827608 
L 182.816104 267.881298 
L 192.951849 268.382981 
L 206.466176 268.517826 
L 209.844758 268.641984 
L 219.980503 268.641987 
L 223.359084 268.320814 
L 226.737666 267.387913 
L 233.49483 266.239056 
L 236.873411 265.988097 
L 243.630575 265.978728 
L 247.009156 266.094094 
L 250.387738 266.430636 
L 253.76632 266.888481 
L 257.144901 267.109869 
L 270.659228 266.574281 
L 274.03781 266.052682 
L 277.416392 265.878738 
L 287.552137 266.025989 
L 287.552137 266.025989 
" clip-path="url(#pb516e7d3ac)" style="fill: none; stroke: #0000ff; stroke-width: 1.5; stroke-linecap: square"/>
   </g>
   <g id="line2d_32">
    <path d="M -1 265.268667 
L 0.372693 264.712848 
L 3.751275 263.944455 
L 7.129856 263.425076 
L 10.508438 263.042288 
L 17.265601 261.929991 
L 20.644183 261.161445 
L 24.022765 260.715244 
L 27.401346 260.638633 
L 30.779928 260.305436 
L 37.537092 259.938652 
L 44.294255 259.5742 
L 51.051418 259.643779 
L 54.43 262.053749 
L 57.808582 261.747083 
L 64.565745 260.757755 
L 67.944327 260.387155 
L 71.322908 260.224562 
L 74.70149 260.276722 
L 78.080072 260.183097 
L 81.458654 260.271212 
L 84.837235 260.592168 
L 98.351562 262.878438 
L 105.108725 262.865621 
L 111.865889 262.474735 
L 115.24447 262.190009 
L 118.623052 261.717726 
L 128.758797 259.800826 
L 132.137379 259.662973 
L 135.515961 260.001973 
L 138.894542 260.73255 
L 145.651706 262.921536 
L 149.030287 264.0721 
L 152.408869 264.978205 
L 155.787451 265.576356 
L 162.544614 265.768933 
L 176.058941 265.875238 
L 179.437523 265.780718 
L 182.816104 265.507716 
L 189.573268 264.416783 
L 199.709013 262.992428 
L 203.087594 262.761531 
L 206.466176 262.831187 
L 209.844758 263.265606 
L 219.980503 265.581556 
L 223.359084 265.922094 
L 226.737666 265.393406 
L 233.49483 265.087962 
L 240.251993 265.323562 
L 250.387738 265.773891 
L 253.76632 265.833253 
L 257.144901 265.530881 
L 260.523483 264.560449 
L 263.902065 263.792832 
L 267.280646 262.745965 
L 277.416392 260.094947 
L 280.794973 259.527938 
L 284.173555 259.138157 
L 287.552137 258.902301 
L 287.552137 258.902301 
" clip-path="url(#pb516e7d3ac)" style="fill: none; stroke: #ff00ff; stroke-width: 1.5; stroke-linecap: square"/>
   </g>
   <g id="line2d_33">
    <path d="M 54.43 268.641991 
L 290.930718 268.641991 
" clip-path="url(#pb516e7d3ac)" style="fill: none; stroke: #000000; stroke-width: 0.8; stroke-linecap: square"/>
   </g>
   <g id="line2d_34">
    <path d="M -1 262.809156 
L 13.88702 258.637091 
L 17.265601 257.795805 
L 20.644183 257.095084 
L 24.022765 256.586405 
L 27.401346 256.277798 
L 34.15851 256.027637 
L 47.672837 255.780933 
L 51.051418 255.779095 
L 54.43 260.095521 
L 61.187163 259.050276 
L 67.944327 257.874892 
L 74.70149 257.01445 
L 78.080072 256.778743 
L 81.458654 256.747263 
L 88.215817 257.069982 
L 94.97298 257.443602 
L 98.351562 257.45628 
L 111.865889 256.95064 
L 115.24447 256.916688 
L 118.623052 256.741365 
L 122.001634 256.360187 
L 128.758797 255.337216 
L 132.137379 255.075889 
L 135.515961 255.162746 
L 138.894542 255.46201 
L 142.273124 255.610603 
L 145.651706 255.352082 
L 159.166032 253.040171 
L 162.544614 252.780697 
L 165.923196 252.66084 
L 182.816104 252.669602 
L 196.330431 251.659015 
L 203.087594 251.701453 
L 206.466176 251.920616 
L 209.844758 252.373876 
L 213.223339 253.098174 
L 219.980503 255.078699 
L 226.737666 257.025989 
L 236.873411 259.548855 
L 240.251993 260.259398 
L 253.76632 262.692926 
L 257.144901 262.937392 
L 260.523483 262.677769 
L 263.902065 261.945297 
L 270.659228 259.783985 
L 274.03781 258.709006 
L 277.416392 257.824411 
L 280.794973 257.148705 
L 287.552137 256.162688 
L 287.552137 256.162688 
" clip-path="url(#pb516e7d3ac)" style="fill: none; stroke-dasharray: 5.55,2.4; stroke-dashoffset: 0; stroke: #000000; stroke-width: 1.5"/>
   </g>
   <g id="line2d_35">
    <path d="M 155.787451 269.474821 
L 155.787451 216.590119 
" clip-path="url(#pb516e7d3ac)" style="fill: none; stroke: #000000; stroke-width: 0.8; stroke-linecap: square"/>
   </g>
   <g id="patch_9">
    <path d="M 54.43 268.641991 
L 54.43 216.590119 
" style="fill: none; stroke: #000000; stroke-width: 0.8; stroke-linejoin: miter; stroke-linecap: square"/>
   </g>
   <g id="text_9">
    <!-- alpha-beta -->
    <g transform="translate(140.353484 210.590119) scale(0.12 -0.12)">
     <defs>
      <path id="DejaVuSans-70" d="M 1159 525 
L 1159 -1331 
L 581 -1331 
L 581 3500 
L 1159 3500 
L 1159 2969 
Q 1341 3281 1617 3432 
Q 1894 3584 2278 3584 
Q 2916 3584 3314 3078 
Q 3713 2572 3713 1747 
Q 3713 922 3314 415 
Q 2916 -91 2278 -91 
Q 1894 -91 1617 61 
Q 1341 213 1159 525 
z
M 3116 1747 
Q 3116 2381 2855 2742 
Q 2594 3103 2138 3103 
Q 1681 3103 1420 2742 
Q 1159 2381 1159 1747 
Q 1159 1113 1420 752 
Q 1681 391 2138 391 
Q 2594 391 2855 752 
Q 3116 1113 3116 1747 
z
" transform="scale(0.015625)"/>
      <path id="DejaVuSans-2d" d="M 313 2009 
L 1997 2009 
L 1997 1497 
L 313 1497 
L 313 2009 
z
" transform="scale(0.015625)"/>
      <path id="DejaVuSans-62" d="M 3116 1747 
Q 3116 2381 2855 2742 
Q 2594 3103 2138 3103 
Q 1681 3103 1420 2742 
Q 1159 2381 1159 1747 
Q 1159 1113 1420 752 
Q 1681 391 2138 391 
Q 2594 391 2855 752 
Q 3116 1113 3116 1747 
z
M 1159 2969 
Q 1341 3281 1617 3432 
Q 1894 3584 2278 3584 
Q 2916 3584 3314 3078 
Q 3713 2572 3713 1747 
Q 3713 922 3314 415 
Q 2916 -91 2278 -91 
Q 1894 -91 1617 61 
Q 1341 213 1159 525 
L 1159 0 
L 581 0 
L 581 4863 
L 1159 4863 
L 1159 2969 
z
" transform="scale(0.015625)"/>
     </defs>
     <use xlink:href="#DejaVuSans-61"/>
     <use xlink:href="#DejaVuSans-6c" transform="translate(61.279297 0)"/>
     <use xlink:href="#DejaVuSans-70" transform="translate(89.0625 0)"/>
     <use xlink:href="#DejaVuSans-68" transform="translate(152.539062 0)"/>
     <use xlink:href="#DejaVuSans-61" transform="translate(215.917969 0)"/>
     <use xlink:href="#DejaVuSans-2d" transform="translate(277.197266 0)"/>
     <use xlink:href="#DejaVuSans-62" transform="translate(313.28125 0)"/>
     <use xlink:href="#DejaVuSans-65" transform="translate(376.757812 0)"/>
     <use xlink:href="#DejaVuSans-74" transform="translate(438.28125 0)"/>
     <use xlink:href="#DejaVuSans-61" transform="translate(477.490234 0)"/>
    </g>
   </g>
  </g>
  <g id="axes_6">
   <g id="patch_10">
    <path d="M 304.519466 269.474821 
L 343.936252 269.474821 
L 343.936252 216.590119 
L 304.519466 216.590119 
z
" style="fill: #ffffff"/>
   </g>
   <g id="matplotlib.axis_11">
    <g id="xtick_8"/>
    <g id="xtick_9"/>
   </g>
   <g id="matplotlib.axis_12">
    <g id="ytick_11"/>
    <g id="ytick_12"/>
   </g>
   <g id="line2d_36">
    <path d="M 310.150435 266.327028 
L 338.305283 256.243174 
" clip-path="url(#pda84d10fdc)" style="fill: none; stroke: #ffcc33; stroke-width: 1.5; stroke-linecap: square"/>
    <g clip-path="url(#pda84d10fdc)">
     <use xlink:href="#m0cd15ace2f" x="310.150435" y="266.327028" style="fill: #ffcc33; stroke: #ffcc33; stroke-linejoin: miter"/>
     <use xlink:href="#m0cd15ace2f" x="338.305283" y="256.243174" style="fill: #ffcc33; stroke: #ffcc33; stroke-linejoin: miter"/>
    </g>
   </g>
   <g id="line2d_37">
    <path d="M 310.150435 262.444123 
L 338.305283 267.413107 
" clip-path="url(#pda84d10fdc)" style="fill: none; stroke: #ff0000; stroke-width: 1.5; stroke-linecap: square"/>
    <g clip-path="url(#pda84d10fdc)">
     <use xlink:href="#m253294f8c3" x="310.150435" y="262.444123" style="fill: #ff0000; stroke: #ff0000; stroke-linejoin: miter"/>
     <use xlink:href="#m253294f8c3" x="338.305283" y="267.413107" style="fill: #ff0000; stroke: #ff0000; stroke-linejoin: miter"/>
    </g>
   </g>
   <g id="line2d_38">
    <path d="M 310.150435 266.086075 
L 338.305283 267.632884 
" clip-path="url(#pda84d10fdc)" style="fill: none; stroke: #0000ff; stroke-width: 1.5; stroke-linecap: square"/>
    <g clip-path="url(#pda84d10fdc)">
     <use xlink:href="#me5a273b1a1" x="310.150435" y="266.086075" style="fill: #0000ff; stroke: #0000ff; stroke-linejoin: miter"/>
     <use xlink:href="#me5a273b1a1" x="338.305283" y="267.632884" style="fill: #0000ff; stroke: #0000ff; stroke-linejoin: miter"/>
    </g>
   </g>
   <g id="line2d_39">
    <path d="M 310.150435 261.538545 
L 338.305283 265.008449 
" clip-path="url(#pda84d10fdc)" style="fill: none; stroke: #ff00ff; stroke-width: 1.5; stroke-linecap: square"/>
    <g clip-path="url(#pda84d10fdc)">
     <use xlink:href="#m6dc55fdca2" x="310.150435" y="261.538545" style="fill: #ff00ff; stroke: #ff00ff; stroke-linejoin: miter"/>
     <use xlink:href="#m6dc55fdca2" x="338.305283" y="265.008449" style="fill: #ff00ff; stroke: #ff00ff; stroke-linejoin: miter"/>
    </g>
   </g>
  </g>
  <g id="axes_7">
   <g id="patch_11">
    <path d="M 54.43 352.449881 
L 290.930718 352.449881 
L 290.930718 299.565179 
L 54.43 299.565179 
z
" style="fill: #ffffff"/>
   </g>
   <g id="matplotlib.axis_13">
    <g id="xtick_10"/>
   </g>
   <g id="matplotlib.axis_14">
    <g id="ytick_13">
     <g id="line2d_40">
      <g>
       <use xlink:href="#m7f5a460325" x="54.43" y="351.617051" style="stroke: #000000; stroke-width: 0.8"/>
      </g>
     </g>
     <g id="text_10">
      <!-- 0.0 -->
      <g transform="translate(31.526875 355.416269) scale(0.1 -0.1)">
       <use xlink:href="#DejaVuSans-30"/>
       <use xlink:href="#DejaVuSans-2e" transform="translate(63.623047 0)"/>
       <use xlink:href="#DejaVuSans-30" transform="translate(95.410156 0)"/>
      </g>
     </g>
    </g>
    <g id="ytick_14">
     <g id="line2d_41">
      <g>
       <use xlink:href="#m7f5a460325" x="54.43" y="299.565179" style="stroke: #000000; stroke-width: 0.8"/>
      </g>
     </g>
     <g id="text_11">
      <!-- 0.5 -->
      <g transform="translate(31.526875 303.364398) scale(0.1 -0.1)">
       <use xlink:href="#DejaVuSans-30"/>
       <use xlink:href="#DejaVuSans-2e" transform="translate(63.623047 0)"/>
       <use xlink:href="#DejaVuSans-35" transform="translate(95.410156 0)"/>
      </g>
     </g>
    </g>
   </g>
   <g id="line2d_42">
    <path d="M -1 351.617046 
L 111.865889 351.617051 
L 115.24447 351.003589 
L 118.623052 350.714179 
L 122.001634 350.203714 
L 128.758797 347.490815 
L 135.515961 345.372939 
L 142.273124 343.59533 
L 149.030287 342.101905 
L 159.166032 340.102829 
L 169.301777 338.534121 
L 176.058941 337.742415 
L 182.816104 337.368568 
L 189.573268 337.403542 
L 196.330431 337.762505 
L 203.087594 338.343543 
L 219.980503 340.03881 
L 226.737666 340.446613 
L 243.630575 341.179853 
L 247.009156 341.541401 
L 250.387738 342.050635 
L 257.144901 343.477888 
L 263.902065 345.126902 
L 270.659228 346.825515 
L 274.03781 347.461521 
L 280.794973 347.824765 
L 287.552137 348.028752 
L 287.552137 348.028752 
" clip-path="url(#p8e72f7534d)" style="fill: none; stroke: #ffcc33; stroke-width: 1.5; stroke-linecap: square"/>
   </g>
   <g id="line2d_43">
    <path d="M -1 351.617035 
L 0.372693 351.617032 
L 3.751275 351.292531 
L 13.88702 349.115118 
L 20.644183 348.181224 
L 27.401346 347.541995 
L 34.15851 347.139239 
L 44.294255 346.742496 
L 51.051418 346.354095 
L 54.43 348.760495 
L 71.322908 345.760398 
L 78.080072 344.814751 
L 84.837235 344.082262 
L 91.594399 343.61832 
L 98.351562 343.441601 
L 105.108725 343.564118 
L 111.865889 344.029299 
L 118.623052 344.930419 
L 125.380215 345.957565 
L 132.137379 346.908386 
L 135.515961 347.497292 
L 138.894542 348.208427 
L 145.651706 349.013117 
L 152.408869 350.134957 
L 159.166032 350.611736 
L 162.544614 350.935314 
L 165.923196 351.617051 
L 253.76632 351.617046 
L 263.902065 350.894901 
L 267.280646 350.937492 
L 270.659228 350.453542 
L 274.03781 350.615887 
L 280.794973 350.245756 
L 287.552137 350.070922 
L 287.552137 350.070922 
" clip-path="url(#p8e72f7534d)" style="fill: none; stroke: #ff0000; stroke-width: 1.5; stroke-linecap: square"/>
   </g>
   <g id="line2d_44">
    <path d="M -1 351.617038 
L 24.022765 351.617049 
L 27.401346 351.039848 
L 34.15851 350.499633 
L 40.915673 350.157641 
L 51.051418 349.905918 
L 54.43 347.005357 
L 57.808582 347.629299 
L 61.187163 348.386707 
L 64.565745 349.732314 
L 71.322908 350.478412 
L 74.70149 351.135527 
L 78.080072 351.617042 
L 105.108725 351.55201 
L 108.487307 350.467017 
L 111.865889 348.84897 
L 115.24447 347.780972 
L 118.623052 347.386692 
L 125.380215 346.966248 
L 132.137379 347.114212 
L 142.273124 347.741978 
L 152.408869 348.436887 
L 165.923196 349.173909 
L 182.816104 349.33498 
L 186.194686 349.904553 
L 189.573268 350.78966 
L 203.087594 351.074858 
L 206.466176 351.244578 
L 209.844758 351.617042 
L 287.552137 351.617044 
L 287.552137 351.617044 
" clip-path="url(#p8e72f7534d)" style="fill: none; stroke: #0000ff; stroke-width: 1.5; stroke-linecap: square"/>
   </g>
   <g id="line2d_45">
    <path d="M -1 345.759475 
L 17.265601 344.154628 
L 24.022765 343.623627 
L 44.294255 341.351542 
L 51.051418 340.81996 
L 54.43 343.404893 
L 57.808582 343.717912 
L 61.187163 343.745486 
L 64.565745 343.971225 
L 71.322908 343.962257 
L 74.70149 344.127023 
L 91.594399 343.978886 
L 98.351562 344.216446 
L 105.108725 344.737763 
L 108.487307 345.527219 
L 111.865889 346.743587 
L 115.24447 348.527149 
L 118.623052 349.615378 
L 122.001634 350.240048 
L 138.894542 351.33272 
L 142.273124 351.616751 
L 152.408869 351.617022 
L 159.166032 351.075887 
L 176.058941 349.940666 
L 179.437523 349.238126 
L 182.816104 348.231737 
L 186.194686 347.010369 
L 189.573268 346.160031 
L 192.951849 345.683203 
L 199.709013 345.076891 
L 206.466176 344.883209 
L 209.844758 344.93742 
L 216.601921 345.395645 
L 223.359084 346.143871 
L 226.737666 346.634656 
L 230.116248 347.461011 
L 236.873411 347.811056 
L 243.630575 347.918785 
L 250.387738 347.712934 
L 257.144901 347.295047 
L 260.523483 346.313698 
L 270.659228 344.256811 
L 280.794973 342.446628 
L 287.552137 341.466017 
L 287.552137 341.466017 
" clip-path="url(#p8e72f7534d)" style="fill: none; stroke: #ff00ff; stroke-width: 1.5; stroke-linecap: square"/>
   </g>
   <g id="line2d_46">
    <path d="M 54.43 351.617051 
L 290.930718 351.617051 
" clip-path="url(#p8e72f7534d)" style="fill: none; stroke: #000000; stroke-width: 0.8; stroke-linecap: square"/>
   </g>
   <g id="line2d_47">
    <path d="M -1 342.370411 
L 3.751275 341.538688 
L 10.508438 340.590804 
L 17.265601 339.864507 
L 24.022765 339.322447 
L 37.537092 338.552646 
L 51.051418 337.803857 
L 54.43 342.046779 
L 61.187163 342.542014 
L 67.944327 342.846484 
L 74.70149 342.929015 
L 81.458654 342.768685 
L 88.215817 342.37934 
L 108.487307 340.841334 
L 115.24447 340.778353 
L 132.137379 341.0689 
L 138.894542 340.929597 
L 149.030287 340.433939 
L 159.166032 339.66928 
L 176.058941 338.203944 
L 182.816104 337.856667 
L 189.573268 337.766745 
L 196.330431 337.956679 
L 203.087594 338.426979 
L 213.223339 339.511029 
L 219.980503 340.230346 
L 226.737666 340.677901 
L 233.49483 340.789408 
L 243.630575 340.814431 
L 250.387738 341.163571 
L 257.144901 341.646899 
L 263.902065 341.83195 
L 270.659228 341.616528 
L 284.173555 340.71883 
L 287.552137 340.476631 
L 287.552137 340.476631 
" clip-path="url(#p8e72f7534d)" style="fill: none; stroke-dasharray: 5.55,2.4; stroke-dashoffset: 0; stroke: #000000; stroke-width: 1.5"/>
   </g>
   <g id="line2d_48">
    <path d="M 155.787451 352.449881 
L 155.787451 299.565179 
" clip-path="url(#p8e72f7534d)" style="fill: none; stroke: #000000; stroke-width: 0.8; stroke-linecap: square"/>
   </g>
   <g id="patch_12">
    <path d="M 54.43 351.617051 
L 54.43 299.565179 
" style="fill: none; stroke: #000000; stroke-width: 0.8; stroke-linejoin: miter; stroke-linecap: square"/>
   </g>
   <g id="text_12">
    <!-- alpha -->
    <g transform="translate(156.048172 293.565179) scale(0.12 -0.12)">
     <use xlink:href="#DejaVuSans-61"/>
     <use xlink:href="#DejaVuSans-6c" transform="translate(61.279297 0)"/>
     <use xlink:href="#DejaVuSans-70" transform="translate(89.0625 0)"/>
     <use xlink:href="#DejaVuSans-68" transform="translate(152.539062 0)"/>
     <use xlink:href="#DejaVuSans-61" transform="translate(215.917969 0)"/>
    </g>
   </g>
  </g>
  <g id="axes_8">
   <g id="patch_13">
    <path d="M 304.519466 352.449881 
L 343.936252 352.449881 
L 343.936252 299.565179 
L 304.519466 299.565179 
z
" style="fill: #ffffff"/>
   </g>
   <g id="matplotlib.axis_15">
    <g id="xtick_11"/>
    <g id="xtick_12"/>
   </g>
   <g id="matplotlib.axis_16">
    <g id="ytick_15"/>
    <g id="ytick_16"/>
   </g>
   <g id="line2d_49">
    <path d="M 310.150435 349.448075 
L 338.305283 339.570643 
" clip-path="url(#pd869e4956e)" style="fill: none; stroke: #ffcc33; stroke-width: 1.5; stroke-linecap: square"/>
    <g clip-path="url(#pd869e4956e)">
     <use xlink:href="#m0cd15ace2f" x="310.150435" y="349.448075" style="fill: #ffcc33; stroke: #ffcc33; stroke-linejoin: miter"/>
     <use xlink:href="#m0cd15ace2f" x="338.305283" y="339.570643" style="fill: #ffcc33; stroke: #ffcc33; stroke-linejoin: miter"/>
    </g>
   </g>
   <g id="line2d_50">
    <path d="M 310.150435 345.939697 
L 338.305283 351.513601 
" clip-path="url(#pd869e4956e)" style="fill: none; stroke: #ff0000; stroke-width: 1.5; stroke-linecap: square"/>
    <g clip-path="url(#pd869e4956e)">
     <use xlink:href="#m253294f8c3" x="310.150435" y="345.939697" style="fill: #ff0000; stroke: #ff0000; stroke-linejoin: miter"/>
     <use xlink:href="#m253294f8c3" x="338.305283" y="351.513601" style="fill: #ff0000; stroke: #ff0000; stroke-linejoin: miter"/>
    </g>
   </g>
   <g id="line2d_51">
    <path d="M 310.150435 349.295937 
L 338.305283 350.709219 
" clip-path="url(#pd869e4956e)" style="fill: none; stroke: #0000ff; stroke-width: 1.5; stroke-linecap: square"/>
    <g clip-path="url(#pd869e4956e)">
     <use xlink:href="#me5a273b1a1" x="310.150435" y="349.295937" style="fill: #0000ff; stroke: #0000ff; stroke-linejoin: miter"/>
     <use xlink:href="#me5a273b1a1" x="338.305283" y="350.709219" style="fill: #0000ff; stroke: #0000ff; stroke-linejoin: miter"/>
    </g>
   </g>
   <g id="line2d_52">
    <path d="M 310.150435 346.857885 
L 338.305283 347.559884 
" clip-path="url(#pd869e4956e)" style="fill: none; stroke: #ff00ff; stroke-width: 1.5; stroke-linecap: square"/>
    <g clip-path="url(#pd869e4956e)">
     <use xlink:href="#m6dc55fdca2" x="310.150435" y="346.857885" style="fill: #ff00ff; stroke: #ff00ff; stroke-linejoin: miter"/>
     <use xlink:href="#m6dc55fdca2" x="338.305283" y="347.559884" style="fill: #ff00ff; stroke: #ff00ff; stroke-linejoin: miter"/>
    </g>
   </g>
  </g>
  <g id="axes_9">
   <g id="patch_14">
    <path d="M 54.43 435.42494 
L 290.930718 435.42494 
L 290.930718 382.540239 
L 54.43 382.540239 
z
" style="fill: #ffffff"/>
   </g>
   <g id="matplotlib.axis_17">
    <g id="xtick_13"/>
   </g>
   <g id="matplotlib.axis_18">
    <g id="ytick_17">
     <g id="line2d_53">
      <g>
       <use xlink:href="#m7f5a460325" x="54.43" y="434.59211" style="stroke: #000000; stroke-width: 0.8"/>
      </g>
     </g>
     <g id="text_13">
      <!-- 0.0 -->
      <g transform="translate(31.526875 438.391329) scale(0.1 -0.1)">
       <use xlink:href="#DejaVuSans-30"/>
       <use xlink:href="#DejaVuSans-2e" transform="translate(63.623047 0)"/>
       <use xlink:href="#DejaVuSans-30" transform="translate(95.410156 0)"/>
      </g>
     </g>
    </g>
    <g id="ytick_18">
     <g id="line2d_54">
      <g>
       <use xlink:href="#m7f5a460325" x="54.43" y="382.540239" style="stroke: #000000; stroke-width: 0.8"/>
      </g>
     </g>
     <g id="text_14">
      <!-- 0.5 -->
      <g transform="translate(31.526875 386.339457) scale(0.1 -0.1)">
       <use xlink:href="#DejaVuSans-30"/>
       <use xlink:href="#DejaVuSans-2e" transform="translate(63.623047 0)"/>
       <use xlink:href="#DejaVuSans-35" transform="translate(95.410156 0)"/>
      </g>
     </g>
    </g>
   </g>
   <g id="line2d_55">
    <path d="M -1 432.588098 
L 0.372693 432.76642 
L 3.751275 433.411687 
L 10.508438 432.929862 
L 17.265601 432.715571 
L 20.644183 432.774595 
L 24.022765 433.088576 
L 37.537092 433.720669 
L 40.915673 433.413764 
L 51.051418 433.643503 
L 54.43 434.590598 
L 61.187163 433.979857 
L 64.565745 433.656381 
L 67.944327 432.359384 
L 71.322908 431.862355 
L 74.70149 431.924388 
L 78.080072 432.22189 
L 84.837235 433.671864 
L 88.215817 433.868664 
L 91.594399 433.130211 
L 94.97298 432.959373 
L 105.108725 433.308547 
L 108.487307 433.60407 
L 111.865889 433.763081 
L 118.623052 434.591299 
L 125.380215 434.590976 
L 132.137379 433.887422 
L 135.515961 432.482075 
L 138.894542 430.355239 
L 142.273124 427.137484 
L 145.651706 423.589658 
L 149.030287 420.716126 
L 152.408869 418.608146 
L 155.787451 417.329177 
L 159.166032 416.819765 
L 162.544614 416.796368 
L 165.923196 416.977098 
L 169.301777 417.335276 
L 172.680359 417.805405 
L 176.058941 418.151531 
L 179.437523 418.327628 
L 182.816104 418.353565 
L 186.194686 418.015768 
L 189.573268 417.447779 
L 192.951849 417.243987 
L 196.330431 417.54053 
L 199.709013 418.108253 
L 203.087594 418.400706 
L 206.466176 418.333879 
L 209.844758 418.436303 
L 213.223339 418.901997 
L 216.601921 419.8279 
L 223.359084 422.248944 
L 226.737666 423.643298 
L 230.116248 425.353889 
L 233.49483 427.570295 
L 240.251993 430.737106 
L 243.630575 431.837487 
L 247.009156 432.509013 
L 250.387738 432.647442 
L 253.76632 432.376295 
L 257.144901 431.91052 
L 260.523483 430.996376 
L 263.902065 430.461545 
L 270.659228 429.835929 
L 274.03781 429.050623 
L 277.416392 428.900211 
L 284.173555 427.902442 
L 287.552137 427.738967 
L 287.552137 427.738967 
" clip-path="url(#pd6e116e118)" style="fill: none; stroke: #ffcc33; stroke-width: 1.5; stroke-linecap: square"/>
   </g>
   <g id="line2d_56">
    <path d="M -1 433.039183 
L 0.372693 432.928184 
L 3.751275 432.798956 
L 10.508438 432.812836 
L 13.88702 432.612613 
L 20.644183 430.955712 
L 24.022765 430.400978 
L 27.401346 430.071681 
L 30.779928 429.906711 
L 34.15851 429.873851 
L 40.915673 430.275872 
L 47.672837 430.843884 
L 54.43 431.823258 
L 57.808582 431.448059 
L 61.187163 430.893666 
L 64.565745 429.615728 
L 67.944327 428.766432 
L 71.322908 427.784619 
L 78.080072 425.240932 
L 81.458654 424.476559 
L 84.837235 424.281939 
L 94.97298 424.458784 
L 101.730144 424.828125 
L 105.108725 424.96791 
L 108.487307 425.318512 
L 111.865889 425.934016 
L 118.623052 427.735333 
L 128.758797 430.819339 
L 132.137379 431.746693 
L 135.515961 432.516327 
L 138.894542 432.508385 
L 142.273124 432.679703 
L 159.166032 432.502213 
L 172.680359 432.655208 
L 176.058941 432.415503 
L 182.816104 432.166328 
L 189.573268 430.165428 
L 192.951849 429.759982 
L 196.330431 430.01033 
L 199.709013 431.15501 
L 203.087594 432.522537 
L 206.466176 433.213918 
L 209.844758 433.670936 
L 213.223339 433.63517 
L 216.601921 433.331861 
L 219.980503 433.329631 
L 223.359084 433.814473 
L 226.737666 433.868583 
L 230.116248 433.583778 
L 233.49483 433.726253 
L 236.873411 434.419261 
L 240.251993 434.592104 
L 257.144901 434.592093 
L 260.523483 433.63313 
L 263.902065 433.079223 
L 267.280646 432.746342 
L 270.659228 432.650364 
L 274.03781 432.905875 
L 277.416392 432.71703 
L 284.173555 432.787517 
L 287.552137 432.073993 
L 287.552137 432.073993 
" clip-path="url(#pd6e116e118)" style="fill: none; stroke: #ff0000; stroke-width: 1.5; stroke-linecap: square"/>
   </g>
   <g id="line2d_57">
    <path d="M -1 432.24708 
L 0.372693 431.738945 
L 3.751275 431.028989 
L 7.129856 430.62158 
L 10.508438 430.369711 
L 17.265601 430.222679 
L 24.022765 430.442333 
L 27.401346 431.110155 
L 30.779928 430.583861 
L 34.15851 430.30941 
L 37.537092 430.386996 
L 44.294255 431.219942 
L 51.051418 431.471946 
L 54.43 430.634857 
L 61.187163 430.915554 
L 67.944327 431.500077 
L 71.322908 431.942984 
L 74.70149 432.716761 
L 81.458654 432.69294 
L 84.837235 432.695368 
L 88.215817 432.84063 
L 91.594399 432.281168 
L 94.97298 432.173515 
L 101.730144 433.016856 
L 105.108725 433.721123 
L 108.487307 433.475611 
L 111.865889 433.498067 
L 122.001634 431.583776 
L 125.380215 431.323081 
L 128.758797 430.826634 
L 132.137379 430.762743 
L 135.515961 431.083722 
L 138.894542 430.700092 
L 142.273124 430.466361 
L 145.651706 431.181291 
L 149.030287 432.806994 
L 152.408869 433.912935 
L 155.787451 434.59145 
L 172.680359 434.591953 
L 176.058941 434.326432 
L 179.437523 434.365524 
L 182.816104 434.592107 
L 219.980503 434.592107 
L 223.359084 434.179173 
L 226.737666 432.979727 
L 233.49483 431.502625 
L 236.873411 431.179965 
L 240.251993 431.114665 
L 247.009156 431.316248 
L 250.387738 431.748943 
L 253.76632 432.3376 
L 257.144901 432.622242 
L 260.523483 432.383937 
L 263.902065 431.604322 
L 270.659228 430.855318 
L 274.03781 430.240569 
L 277.416392 430.183884 
L 280.794973 430.585519 
L 284.173555 431.235034 
L 287.552137 431.228679 
L 287.552137 431.228679 
" clip-path="url(#pd6e116e118)" style="fill: none; stroke: #0000ff; stroke-width: 1.5; stroke-linecap: square"/>
   </g>
   <g id="line2d_58">
    <path d="M -1 432.765369 
L 0.372693 432.105369 
L 3.751275 431.25255 
L 7.129856 430.716807 
L 10.508438 430.350898 
L 13.88702 429.807761 
L 17.265601 428.88356 
L 20.644183 427.695247 
L 24.022765 426.93755 
L 27.401346 426.753404 
L 30.779928 426.241935 
L 44.294255 425.537176 
L 51.051418 425.663033 
L 54.43 429.532735 
L 61.187163 427.620901 
L 64.565745 426.647661 
L 67.944327 425.971121 
L 71.322908 425.629338 
L 78.080072 425.539425 
L 81.458654 425.843202 
L 84.837235 426.45907 
L 91.594399 428.523028 
L 94.97298 429.793338 
L 98.351562 430.353515 
L 101.730144 430.290869 
L 105.108725 430.113613 
L 108.487307 429.590159 
L 111.865889 428.751409 
L 122.001634 425.455039 
L 125.380215 423.795948 
L 128.758797 422.547757 
L 132.137379 421.895451 
L 135.515961 422.1164 
L 138.894542 423.415687 
L 142.273124 425.787612 
L 149.030287 428.716538 
L 152.408869 429.65375 
L 155.787451 430.389497 
L 162.544614 430.809946 
L 165.923196 431.211593 
L 169.301777 431.472841 
L 182.816104 432.013177 
L 189.573268 431.498423 
L 196.330431 430.683176 
L 199.709013 430.131312 
L 203.087594 429.896682 
L 206.466176 430.007009 
L 209.844758 430.542314 
L 216.601921 432.432988 
L 219.980503 432.919652 
L 223.359084 433.109152 
L 226.737666 432.382008 
L 230.116248 431.959944 
L 233.49483 431.721383 
L 236.873411 431.740323 
L 243.630575 432.121548 
L 253.76632 432.121506 
L 257.144901 431.785986 
L 260.523483 430.979208 
L 263.902065 430.935886 
L 267.280646 429.881656 
L 277.416392 427.290467 
L 280.794973 426.804224 
L 284.173555 426.525874 
L 287.552137 426.420095 
L 287.552137 426.420095 
" clip-path="url(#pd6e116e118)" style="fill: none; stroke: #ff00ff; stroke-width: 1.5; stroke-linecap: square"/>
   </g>
   <g id="line2d_59">
    <path d="M 54.43 434.59211 
L 290.930718 434.59211 
" clip-path="url(#pd6e116e118)" style="fill: none; stroke: #000000; stroke-width: 0.8; stroke-linecap: square"/>
   </g>
   <g id="line2d_60">
    <path d="M 0.372693 432.791001 
L 3.751275 430.679211 
L 7.129856 428.862829 
L 10.508438 427.21246 
L 13.88702 425.759308 
L 17.265601 424.492917 
L 20.644183 423.386268 
L 24.022765 422.495038 
L 27.401346 421.987893 
L 30.779928 421.840626 
L 37.537092 421.950991 
L 51.051418 422.183751 
L 54.43 427.701102 
L 67.944327 423.288239 
L 71.322908 422.274778 
L 74.70149 421.466146 
L 78.080072 420.975036 
L 81.458654 420.929322 
L 84.837235 421.243883 
L 88.215817 421.752582 
L 94.97298 422.993231 
L 98.351562 423.418534 
L 101.730144 423.544242 
L 111.865889 423.324818 
L 115.24447 423.319444 
L 118.623052 423.159784 
L 122.001634 422.739947 
L 125.380215 422.025182 
L 128.758797 421.177877 
L 132.137379 420.550136 
L 135.515961 420.479596 
L 138.894542 420.814317 
L 142.273124 420.718884 
L 145.651706 419.854905 
L 152.408869 417.684356 
L 155.787451 416.962972 
L 159.166032 416.661543 
L 162.544614 416.66 
L 169.301777 417.048463 
L 172.680359 417.299448 
L 176.058941 417.421863 
L 179.437523 417.410317 
L 182.816104 417.247934 
L 192.951849 416.222674 
L 209.844758 417.607988 
L 213.223339 418.28089 
L 216.601921 419.279839 
L 233.49483 425.802663 
L 236.873411 427.075707 
L 247.009156 430.522951 
L 250.387738 432.234974 
M 260.523483 431.678357 
L 263.902065 429.702797 
L 267.280646 427.998278 
L 270.659228 426.524898 
L 274.03781 425.323072 
L 277.416392 424.485642 
L 287.552137 422.936783 
L 287.552137 422.936783 
" clip-path="url(#pd6e116e118)" style="fill: none; stroke-dasharray: 5.55,2.4; stroke-dashoffset: 0; stroke: #000000; stroke-width: 1.5"/>
   </g>
   <g id="line2d_61">
    <path d="M 155.787451 435.42494 
L 155.787451 382.540239 
" clip-path="url(#pd6e116e118)" style="fill: none; stroke: #000000; stroke-width: 0.8; stroke-linecap: square"/>
   </g>
   <g id="patch_15">
    <path d="M 54.43 434.59211 
L 54.43 382.540239 
" style="fill: none; stroke: #000000; stroke-width: 0.8; stroke-linejoin: miter; stroke-linecap: square"/>
   </g>
   <g id="text_15">
    <!-- beta -->
    <g transform="translate(159.150359 376.540239) scale(0.12 -0.12)">
     <use xlink:href="#DejaVuSans-62"/>
     <use xlink:href="#DejaVuSans-65" transform="translate(63.476562 0)"/>
     <use xlink:href="#DejaVuSans-74" transform="translate(125 0)"/>
     <use xlink:href="#DejaVuSans-61" transform="translate(164.208984 0)"/>
    </g>
   </g>
  </g>
  <g id="axes_10">
   <g id="patch_16">
    <path d="M 304.519466 435.42494 
L 343.936252 435.42494 
L 343.936252 382.540239 
L 304.519466 382.540239 
z
" style="fill: #ffffff"/>
   </g>
   <g id="matplotlib.axis_19">
    <g id="xtick_14"/>
    <g id="xtick_15"/>
   </g>
   <g id="matplotlib.axis_20">
    <g id="ytick_19"/>
    <g id="ytick_20"/>
   </g>
   <g id="line2d_62">
    <path d="M 310.150435 431.914009 
L 338.305283 421.975486 
" clip-path="url(#pc4f3c26a64)" style="fill: none; stroke: #ffcc33; stroke-width: 1.5; stroke-linecap: square"/>
    <g clip-path="url(#pc4f3c26a64)">
     <use xlink:href="#m0cd15ace2f" x="310.150435" y="431.914009" style="fill: #ffcc33; stroke: #ffcc33; stroke-linejoin: miter"/>
     <use xlink:href="#m0cd15ace2f" x="338.305283" y="421.975486" style="fill: #ffcc33; stroke: #ffcc33; stroke-linejoin: miter"/>
    </g>
   </g>
   <g id="line2d_63">
    <path d="M 310.150435 428.361791 
L 338.305283 432.938874 
" clip-path="url(#pc4f3c26a64)" style="fill: none; stroke: #ff0000; stroke-width: 1.5; stroke-linecap: square"/>
    <g clip-path="url(#pc4f3c26a64)">
     <use xlink:href="#m253294f8c3" x="310.150435" y="428.361791" style="fill: #ff0000; stroke: #ff0000; stroke-linejoin: miter"/>
     <use xlink:href="#m253294f8c3" x="338.305283" y="432.938874" style="fill: #ff0000; stroke: #ff0000; stroke-linejoin: miter"/>
    </g>
   </g>
   <g id="line2d_64">
    <path d="M 310.150435 432.040356 
L 338.305283 433.667874 
" clip-path="url(#pc4f3c26a64)" style="fill: none; stroke: #0000ff; stroke-width: 1.5; stroke-linecap: square"/>
    <g clip-path="url(#pc4f3c26a64)">
     <use xlink:href="#me5a273b1a1" x="310.150435" y="432.040356" style="fill: #0000ff; stroke: #0000ff; stroke-linejoin: miter"/>
     <use xlink:href="#me5a273b1a1" x="338.305283" y="433.667874" style="fill: #0000ff; stroke: #0000ff; stroke-linejoin: miter"/>
    </g>
   </g>
   <g id="line2d_65">
    <path d="M 310.150435 426.903396 
L 338.305283 431.527507 
" clip-path="url(#pc4f3c26a64)" style="fill: none; stroke: #ff00ff; stroke-width: 1.5; stroke-linecap: square"/>
    <g clip-path="url(#pc4f3c26a64)">
     <use xlink:href="#m6dc55fdca2" x="310.150435" y="426.903396" style="fill: #ff00ff; stroke: #ff00ff; stroke-linejoin: miter"/>
     <use xlink:href="#m6dc55fdca2" x="338.305283" y="431.527507" style="fill: #ff00ff; stroke: #ff00ff; stroke-linejoin: miter"/>
    </g>
   </g>
  </g>
  <g id="axes_11">
   <g id="patch_17">
    <path d="M 54.43 518.4 
L 290.930718 518.4 
L 290.930718 465.515298 
L 54.43 465.515298 
z
" style="fill: #ffffff"/>
   </g>
   <g id="matplotlib.axis_21">
    <g id="xtick_16">
     <g id="text_16">
      <!-- Pert -->
      <g transform="translate(145.861669 532.998437) scale(0.1 -0.1)">
       <defs>
        <path id="DejaVuSans-50" d="M 1259 4147 
L 1259 2394 
L 2053 2394 
Q 2494 2394 2734 2622 
Q 2975 2850 2975 3272 
Q 2975 3691 2734 3919 
Q 2494 4147 2053 4147 
L 1259 4147 
z
M 628 4666 
L 2053 4666 
Q 2838 4666 3239 4311 
Q 3641 3956 3641 3272 
Q 3641 2581 3239 2228 
Q 2838 1875 2053 1875 
L 1259 1875 
L 1259 0 
L 628 0 
L 628 4666 
z
" transform="scale(0.015625)"/>
        <path id="DejaVuSans-72" d="M 2631 2963 
Q 2534 3019 2420 3045 
Q 2306 3072 2169 3072 
Q 1681 3072 1420 2755 
Q 1159 2438 1159 1844 
L 1159 0 
L 581 0 
L 581 3500 
L 1159 3500 
L 1159 2956 
Q 1341 3275 1631 3429 
Q 1922 3584 2338 3584 
Q 2397 3584 2469 3576 
Q 2541 3569 2628 3553 
L 2631 2963 
z
" transform="scale(0.015625)"/>
       </defs>
       <use xlink:href="#DejaVuSans-50"/>
       <use xlink:href="#DejaVuSans-65" transform="translate(56.677734 0)"/>
       <use xlink:href="#DejaVuSans-72" transform="translate(118.201172 0)"/>
       <use xlink:href="#DejaVuSans-74" transform="translate(159.314453 0)"/>
      </g>
     </g>
    </g>
   </g>
   <g id="matplotlib.axis_22">
    <g id="ytick_21">
     <g id="line2d_66">
      <g>
       <use xlink:href="#m7f5a460325" x="54.43" y="517.56717" style="stroke: #000000; stroke-width: 0.8"/>
      </g>
     </g>
     <g id="text_17">
      <!-- 0.0 -->
      <g transform="translate(31.526875 521.366389) scale(0.1 -0.1)">
       <use xlink:href="#DejaVuSans-30"/>
       <use xlink:href="#DejaVuSans-2e" transform="translate(63.623047 0)"/>
       <use xlink:href="#DejaVuSans-30" transform="translate(95.410156 0)"/>
      </g>
     </g>
    </g>
    <g id="ytick_22">
     <g id="line2d_67">
      <g>
       <use xlink:href="#m7f5a460325" x="54.43" y="465.515298" style="stroke: #000000; stroke-width: 0.8"/>
      </g>
     </g>
     <g id="text_18">
      <!-- 0.5 -->
      <g transform="translate(31.526875 469.314517) scale(0.1 -0.1)">
       <use xlink:href="#DejaVuSans-30"/>
       <use xlink:href="#DejaVuSans-2e" transform="translate(63.623047 0)"/>
       <use xlink:href="#DejaVuSans-35" transform="translate(95.410156 0)"/>
      </g>
     </g>
    </g>
   </g>
   <g id="line2d_68">
    <path d="M -1 517.121678 
L 3.751275 517.040072 
L 7.129856 516.889562 
L 10.508438 516.244884 
L 13.88702 517.340384 
L 17.265601 517.476313 
L 20.644183 516.824632 
L 24.022765 516.730267 
L 27.401346 515.530637 
L 30.779928 516.541746 
L 34.15851 517.398304 
L 40.915673 517.194193 
L 44.294255 516.945669 
L 47.672837 514.205332 
L 51.051418 513.207266 
L 54.43 517.567163 
L 57.808582 517.471583 
L 64.565745 516.120449 
L 67.944327 515.608601 
L 71.322908 516.694482 
L 74.70149 516.891481 
L 78.080072 515.899713 
L 81.458654 514.255684 
L 84.837235 512.044525 
L 88.215817 511.930352 
L 91.594399 513.730305 
L 94.97298 516.482178 
L 98.351562 515.744908 
L 101.730144 516.629126 
L 105.108725 516.870799 
L 108.487307 517.439453 
L 111.865889 517.567165 
L 118.623052 517.567157 
L 122.001634 517.137061 
L 125.380215 516.568003 
L 128.758797 515.633994 
L 132.137379 515.691122 
L 135.515961 513.801882 
L 138.894542 514.573671 
L 142.273124 516.108194 
L 145.651706 515.318499 
L 149.030287 511.122879 
L 152.408869 505.551401 
L 155.787451 495.53221 
L 159.166032 487.954364 
L 162.544614 487.142472 
L 165.923196 487.495785 
L 169.301777 489.030483 
L 172.680359 493.935532 
L 176.058941 502.101599 
L 179.437523 509.502585 
L 182.816104 514.009408 
L 186.194686 515.643244 
L 189.573268 515.715173 
L 192.951849 515.590479 
L 196.330431 515.674916 
L 199.709013 515.141028 
L 203.087594 516.550358 
L 206.466176 516.572688 
L 209.844758 516.324334 
L 213.223339 514.769947 
L 216.601921 516.048549 
L 219.980503 516.717323 
L 223.359084 515.719024 
L 226.737666 515.098495 
L 230.116248 515.12638 
L 233.49483 515.265833 
L 236.873411 516.98831 
L 240.251993 514.448514 
L 243.630575 513.324882 
L 247.009156 513.930331 
L 250.387738 516.406968 
L 253.76632 516.149988 
L 257.144901 517.096902 
L 260.523483 515.32618 
L 263.902065 514.218963 
L 267.280646 514.716248 
L 270.659228 514.188776 
L 277.416392 515.627106 
L 280.794973 515.62778 
L 284.173555 515.335356 
L 287.552137 516.310264 
L 287.552137 516.310264 
" clip-path="url(#pf735a280a4)" style="fill: none; stroke: #ffcc33; stroke-width: 1.5; stroke-linecap: square"/>
   </g>
   <g id="line2d_69">
    <path d="M -1 515.839854 
L 0.372693 514.892092 
L 3.751275 514.287411 
L 7.129856 513.955316 
L 10.508438 514.071321 
L 13.88702 515.242549 
L 17.265601 514.762752 
L 20.644183 514.786137 
L 24.022765 516.768395 
L 27.401346 517.294717 
L 30.779928 517.200557 
L 34.15851 516.1697 
L 37.537092 515.722834 
L 40.915673 517.192096 
L 44.294255 516.66673 
L 47.672837 517.258646 
L 51.051418 516.573252 
L 54.43 516.221041 
L 57.808582 517.567163 
L 61.187163 516.880473 
L 64.565745 516.713128 
L 67.944327 517.541107 
L 71.322908 514.252278 
L 74.70149 510.277108 
L 78.080072 510.664428 
L 81.458654 511.616694 
L 84.837235 511.731411 
L 91.594399 514.67891 
L 98.351562 516.077173 
L 101.730144 516.582032 
L 105.108725 516.953502 
L 108.487307 517.541907 
L 111.865889 517.567163 
L 115.24447 515.585112 
L 118.623052 516.310082 
L 122.001634 517.567169 
L 125.380215 516.916374 
L 128.758797 516.459417 
L 132.137379 515.843332 
L 135.515961 516.418048 
L 138.894542 516.373516 
L 142.273124 517.480551 
L 149.030287 515.678727 
L 152.408869 516.347184 
L 155.787451 515.505336 
L 159.166032 513.791356 
L 162.544614 514.47394 
L 165.923196 514.81441 
L 169.301777 515.487552 
L 172.680359 516.961661 
L 176.058941 517.458684 
L 179.437523 517.56716 
L 186.194686 517.1063 
L 189.573268 517.431155 
L 192.951849 517.414924 
L 196.330431 516.498226 
L 203.087594 517.567164 
L 206.466176 516.857968 
L 209.844758 516.678888 
L 213.223339 517.093757 
L 216.601921 516.258951 
L 219.980503 516.031492 
L 223.359084 516.290973 
L 226.737666 516.998418 
L 230.116248 516.966553 
L 233.49483 515.876672 
L 236.873411 516.848712 
L 243.630575 513.741136 
L 250.387738 515.345198 
L 253.76632 515.93531 
L 257.144901 515.992285 
L 260.523483 515.356902 
L 263.902065 515.625392 
L 267.280646 516.460415 
L 274.03781 517.28056 
L 277.416392 517.567163 
L 284.173555 516.689217 
L 287.552137 516.684493 
L 287.552137 516.684493 
" clip-path="url(#pf735a280a4)" style="fill: none; stroke: #ff0000; stroke-width: 1.5; stroke-linecap: square"/>
   </g>
   <g id="line2d_70">
    <path d="M -1 515.843109 
L 0.372693 514.663279 
L 3.751275 515.414354 
L 7.129856 517.366569 
L 10.508438 517.086161 
L 13.88702 517.567162 
L 30.779928 517.567167 
L 34.15851 517.349117 
L 37.537092 517.567169 
L 44.294255 517.567162 
L 51.051418 516.976688 
L 54.43 517.567164 
L 57.808582 517.567168 
L 61.187163 516.676163 
L 64.565745 514.359486 
L 67.944327 511.522824 
L 71.322908 511.977048 
L 74.70149 513.732428 
L 78.080072 516.162643 
L 81.458654 516.276573 
L 84.837235 516.269376 
L 88.215817 516.896988 
L 91.594399 517.376415 
L 94.97298 517.277395 
L 98.351562 517.567164 
L 101.730144 516.833712 
L 108.487307 517.567164 
L 111.865889 516.987675 
L 115.24447 516.756185 
L 118.623052 517.567164 
L 122.001634 517.266507 
L 125.380215 517.162443 
L 128.758797 517.252781 
L 132.137379 516.347816 
L 135.515961 516.411584 
L 138.894542 516.78948 
L 145.651706 516.930662 
L 152.408869 514.005135 
L 155.787451 515.430148 
L 159.166032 515.751305 
L 162.544614 516.22742 
L 165.923196 516.205309 
L 172.680359 515.127936 
L 176.058941 515.73458 
L 179.437523 517.045662 
L 182.816104 516.992643 
L 186.194686 516.53963 
L 189.573268 517.500678 
L 196.330431 517.567167 
L 199.709013 517.567162 
L 203.087594 515.243458 
L 206.466176 514.715285 
L 209.844758 515.097474 
L 213.223339 515.744595 
L 216.601921 515.749326 
L 219.980503 516.75522 
L 223.359084 516.184029 
L 226.737666 516.751306 
L 230.116248 516.918073 
L 233.49483 516.678798 
L 236.873411 516.666827 
L 240.251993 517.043463 
L 243.630575 517.566349 
L 247.009156 517.566917 
L 250.387738 517.139158 
L 253.76632 516.828212 
L 260.523483 516.927471 
L 263.902065 517.567165 
L 267.280646 517.567153 
L 270.659228 516.729107 
L 274.03781 516.595782 
L 280.794973 517.567165 
L 287.552137 517.56717 
L 287.552137 517.56717 
" clip-path="url(#pf735a280a4)" style="fill: none; stroke: #0000ff; stroke-width: 1.5; stroke-linecap: square"/>
   </g>
   <g id="line2d_71">
    <path d="M -1 517.419271 
L 0.372693 517.567168 
L 3.751275 517.567162 
L 7.129856 516.884176 
L 10.508438 514.641843 
L 13.88702 517.164008 
L 17.265601 517.56717 
L 20.644183 517.021914 
L 27.401346 516.837721 
L 30.779928 515.375393 
L 34.15851 515.204167 
L 37.537092 514.757605 
L 44.294255 514.899848 
L 47.672837 516.012112 
L 51.051418 516.560182 
L 54.43 516.994184 
L 61.187163 517.18621 
L 67.944327 515.8984 
L 71.322908 515.900513 
L 74.70149 516.319323 
L 78.080072 516.041442 
L 81.458654 515.963542 
L 84.837235 515.199144 
L 88.215817 514.678624 
L 91.594399 513.14835 
L 94.97298 513.598335 
L 98.351562 514.624468 
L 101.730144 515.443908 
L 105.108725 516.493084 
L 108.487307 516.743268 
L 111.865889 515.625286 
L 115.24447 514.627189 
L 118.623052 514.249861 
L 122.001634 514.180834 
L 125.380215 514.895799 
L 128.758797 515.010537 
L 132.137379 515.368925 
L 135.515961 517.368999 
L 138.894542 517.56717 
L 142.273124 517.567167 
L 145.651706 516.240346 
L 149.030287 511.909439 
L 152.408869 511.54913 
L 155.787451 514.938689 
L 159.166032 515.410683 
L 162.544614 517.247493 
L 165.923196 517.567169 
L 172.680359 517.56717 
L 176.058941 516.12708 
L 179.437523 513.815101 
L 182.816104 513.832233 
L 186.194686 514.771503 
L 189.573268 516.077681 
L 192.951849 516.520645 
L 196.330431 515.257875 
L 203.087594 515.824498 
L 206.466176 515.646527 
L 209.844758 514.969973 
L 213.223339 514.526362 
L 216.601921 513.709544 
L 219.980503 514.45266 
L 223.359084 514.372967 
L 226.737666 516.253491 
L 230.116248 516.759809 
L 233.49483 516.100603 
L 240.251993 516.249313 
L 243.630575 516.081199 
L 247.009156 517.566682 
L 250.387738 517.200828 
L 253.76632 516.141339 
L 260.523483 516.511086 
L 263.902065 515.47593 
L 267.280646 515.133053 
L 270.659228 515.207067 
L 274.03781 515.799937 
L 277.416392 515.336943 
L 280.794973 515.376624 
L 284.173555 514.800971 
L 287.552137 514.908942 
L 287.552137 514.908942 
" clip-path="url(#pf735a280a4)" style="fill: none; stroke: #ff00ff; stroke-width: 1.5; stroke-linecap: square"/>
   </g>
   <g id="line2d_72">
    <path d="M 54.43 517.56717 
L 290.930718 517.56717 
" clip-path="url(#pf735a280a4)" style="fill: none; stroke: #000000; stroke-width: 0.8; stroke-linecap: square"/>
   </g>
   <g id="line2d_73">
    <path d="M 17.265601 513.309562 
L 20.644183 512.598977 
M 67.944327 513.219923 
L 71.322908 512.401509 
L 74.70149 510.217141 
L 78.080072 509.158773 
L 81.458654 508.601688 
L 84.837235 507.227367 
L 88.215817 508.037955 
L 91.594399 510.491351 
L 94.97298 514.031088 
L 101.730144 515.683664 
M 118.623052 512.918806 
L 122.001634 511.327939 
L 125.380215 513.733167 
M 145.651706 515.55643 
L 149.030287 505.85704 
L 152.408869 500.03014 
L 155.787451 493.728917 
L 159.166032 488.75903 
L 162.544614 487.997494 
L 165.923196 488.321445 
L 169.301777 489.650972 
L 172.680359 493.518346 
L 176.058941 499.97279 
L 179.437523 506.976024 
L 182.816104 510.186399 
L 186.194686 512.31776 
L 189.573268 516.574001 
M 206.466176 513.921419 
L 209.844758 514.638244 
L 213.223339 513.740315 
L 216.601921 514.194554 
M 226.737666 516.755155 
L 230.116248 515.761994 
L 233.49483 514.485325 
L 236.873411 516.627288 
L 240.251993 511.557975 
L 243.630575 510.922806 
L 247.009156 513.996259 
M 257.144901 515.972667 
L 260.523483 517.054783 
L 263.902065 515.229976 
L 267.280646 515.822151 
L 270.659228 513.575901 
L 274.03781 515.721634 
M 280.794973 515.407865 
" clip-path="url(#pf735a280a4)" style="fill: none; stroke-dasharray: 5.55,2.4; stroke-dashoffset: 0; stroke: #000000; stroke-width: 1.5"/>
   </g>
   <g id="line2d_74">
    <path d="M 155.787451 518.4 
L 155.787451 465.515298 
" clip-path="url(#pf735a280a4)" style="fill: none; stroke: #000000; stroke-width: 0.8; stroke-linecap: square"/>
   </g>
   <g id="patch_18">
    <path d="M 54.43 517.56717 
L 54.43 465.515298 
" style="fill: none; stroke: #000000; stroke-width: 0.8; stroke-linejoin: miter; stroke-linecap: square"/>
   </g>
   <g id="text_19">
    <!-- gamma -->
    <g transform="translate(149.828797 459.515298) scale(0.12 -0.12)">
     <defs>
      <path id="DejaVuSans-67" d="M 2906 1791 
Q 2906 2416 2648 2759 
Q 2391 3103 1925 3103 
Q 1463 3103 1205 2759 
Q 947 2416 947 1791 
Q 947 1169 1205 825 
Q 1463 481 1925 481 
Q 2391 481 2648 825 
Q 2906 1169 2906 1791 
z
M 3481 434 
Q 3481 -459 3084 -895 
Q 2688 -1331 1869 -1331 
Q 1566 -1331 1297 -1286 
Q 1028 -1241 775 -1147 
L 775 -588 
Q 1028 -725 1275 -790 
Q 1522 -856 1778 -856 
Q 2344 -856 2625 -561 
Q 2906 -266 2906 331 
L 2906 616 
Q 2728 306 2450 153 
Q 2172 0 1784 0 
Q 1141 0 747 490 
Q 353 981 353 1791 
Q 353 2603 747 3093 
Q 1141 3584 1784 3584 
Q 2172 3584 2450 3431 
Q 2728 3278 2906 2969 
L 2906 3500 
L 3481 3500 
L 3481 434 
z
" transform="scale(0.015625)"/>
      <path id="DejaVuSans-6d" d="M 3328 2828 
Q 3544 3216 3844 3400 
Q 4144 3584 4550 3584 
Q 5097 3584 5394 3201 
Q 5691 2819 5691 2113 
L 5691 0 
L 5113 0 
L 5113 2094 
Q 5113 2597 4934 2840 
Q 4756 3084 4391 3084 
Q 3944 3084 3684 2787 
Q 3425 2491 3425 1978 
L 3425 0 
L 2847 0 
L 2847 2094 
Q 2847 2600 2669 2842 
Q 2491 3084 2119 3084 
Q 1678 3084 1418 2786 
Q 1159 2488 1159 1978 
L 1159 0 
L 581 0 
L 581 3500 
L 1159 3500 
L 1159 2956 
Q 1356 3278 1631 3431 
Q 1906 3584 2284 3584 
Q 2666 3584 2933 3390 
Q 3200 3197 3328 2828 
z
" transform="scale(0.015625)"/>
     </defs>
     <use xlink:href="#DejaVuSans-67"/>
     <use xlink:href="#DejaVuSans-61" transform="translate(63.476562 0)"/>
     <use xlink:href="#DejaVuSans-6d" transform="translate(124.755859 0)"/>
     <use xlink:href="#DejaVuSans-6d" transform="translate(222.167969 0)"/>
     <use xlink:href="#DejaVuSans-61" transform="translate(319.580078 0)"/>
    </g>
   </g>
  </g>
  <g id="axes_12">
   <g id="patch_19">
    <path d="M 304.519466 518.4 
L 343.936252 518.4 
L 343.936252 465.515298 
L 304.519466 465.515298 
z
" style="fill: #ffffff"/>
   </g>
   <g id="matplotlib.axis_23">
    <g id="xtick_17">
     <g id="text_20">
      <!-- Pre -->
      <g transform="translate(302.20356 532.998437) scale(0.1 -0.1)">
       <use xlink:href="#DejaVuSans-50"/>
       <use xlink:href="#DejaVuSans-72" transform="translate(58.552734 0)"/>
       <use xlink:href="#DejaVuSans-65" transform="translate(97.416016 0)"/>
      </g>
     </g>
    </g>
    <g id="xtick_18">
     <g id="text_21">
      <!-- Post -->
      <g transform="translate(327.84747 532.998437) scale(0.1 -0.1)">
       <defs>
        <path id="DejaVuSans-6f" d="M 1959 3097 
Q 1497 3097 1228 2736 
Q 959 2375 959 1747 
Q 959 1119 1226 758 
Q 1494 397 1959 397 
Q 2419 397 2687 759 
Q 2956 1122 2956 1747 
Q 2956 2369 2687 2733 
Q 2419 3097 1959 3097 
z
M 1959 3584 
Q 2709 3584 3137 3096 
Q 3566 2609 3566 1747 
Q 3566 888 3137 398 
Q 2709 -91 1959 -91 
Q 1206 -91 779 398 
Q 353 888 353 1747 
Q 353 2609 779 3096 
Q 1206 3584 1959 3584 
z
" transform="scale(0.015625)"/>
        <path id="DejaVuSans-73" d="M 2834 3397 
L 2834 2853 
Q 2591 2978 2328 3040 
Q 2066 3103 1784 3103 
Q 1356 3103 1142 2972 
Q 928 2841 928 2578 
Q 928 2378 1081 2264 
Q 1234 2150 1697 2047 
L 1894 2003 
Q 2506 1872 2764 1633 
Q 3022 1394 3022 966 
Q 3022 478 2636 193 
Q 2250 -91 1575 -91 
Q 1294 -91 989 -36 
Q 684 19 347 128 
L 347 722 
Q 666 556 975 473 
Q 1284 391 1588 391 
Q 1994 391 2212 530 
Q 2431 669 2431 922 
Q 2431 1156 2273 1281 
Q 2116 1406 1581 1522 
L 1381 1569 
Q 847 1681 609 1914 
Q 372 2147 372 2553 
Q 372 3047 722 3315 
Q 1072 3584 1716 3584 
Q 2034 3584 2315 3537 
Q 2597 3491 2834 3397 
z
" transform="scale(0.015625)"/>
       </defs>
       <use xlink:href="#DejaVuSans-50"/>
       <use xlink:href="#DejaVuSans-6f" transform="translate(56.677734 0)"/>
       <use xlink:href="#DejaVuSans-73" transform="translate(117.859375 0)"/>
       <use xlink:href="#DejaVuSans-74" transform="translate(169.958984 0)"/>
      </g>
     </g>
    </g>
   </g>
   <g id="matplotlib.axis_24">
    <g id="ytick_23"/>
    <g id="ytick_24"/>
   </g>
   <g id="line2d_75">
    <path d="M 310.150435 515.411629 
L 338.305283 510.032519 
" clip-path="url(#pfebdaeacdb)" style="fill: none; stroke: #ffcc33; stroke-width: 1.5; stroke-linecap: square"/>
    <g clip-path="url(#pfebdaeacdb)">
     <use xlink:href="#m0cd15ace2f" x="310.150435" y="515.411629" style="fill: #ffcc33; stroke: #ffcc33; stroke-linejoin: miter"/>
     <use xlink:href="#m0cd15ace2f" x="338.305283" y="510.032519" style="fill: #ffcc33; stroke: #ffcc33; stroke-linejoin: miter"/>
    </g>
   </g>
   <g id="line2d_76">
    <path d="M 310.150435 515.633913 
L 338.305283 516.230213 
" clip-path="url(#pfebdaeacdb)" style="fill: none; stroke: #ff0000; stroke-width: 1.5; stroke-linecap: square"/>
    <g clip-path="url(#pfebdaeacdb)">
     <use xlink:href="#m253294f8c3" x="310.150435" y="515.633913" style="fill: #ff0000; stroke: #ff0000; stroke-linejoin: miter"/>
     <use xlink:href="#m253294f8c3" x="338.305283" y="516.230213" style="fill: #ff0000; stroke: #ff0000; stroke-linejoin: miter"/>
    </g>
   </g>
   <g id="line2d_77">
    <path d="M 310.150435 516.286859 
L 338.305283 516.465565 
" clip-path="url(#pfebdaeacdb)" style="fill: none; stroke: #0000ff; stroke-width: 1.5; stroke-linecap: square"/>
    <g clip-path="url(#pfebdaeacdb)">
     <use xlink:href="#me5a273b1a1" x="310.150435" y="516.286859" style="fill: #0000ff; stroke: #0000ff; stroke-linejoin: miter"/>
     <use xlink:href="#me5a273b1a1" x="338.305283" y="516.465565" style="fill: #0000ff; stroke: #0000ff; stroke-linejoin: miter"/>
    </g>
   </g>
   <g id="line2d_78">
    <path d="M 310.150435 515.466876 
L 338.305283 515.825647 
" clip-path="url(#pfebdaeacdb)" style="fill: none; stroke: #ff00ff; stroke-width: 1.5; stroke-linecap: square"/>
    <g clip-path="url(#pfebdaeacdb)">
     <use xlink:href="#m6dc55fdca2" x="310.150435" y="515.466876" style="fill: #ff00ff; stroke: #ff00ff; stroke-linejoin: miter"/>
     <use xlink:href="#m6dc55fdca2" x="338.305283" y="515.825647" style="fill: #ff00ff; stroke: #ff00ff; stroke-linejoin: miter"/>
    </g>
   </g>
  </g>
  <g id="text_22">
   <!-- variance (a.u.) -->
   <g transform="translate(14.798438 324.428125) rotate(-90) scale(0.1 -0.1)">
    <defs>
     <path id="DejaVuSans-76" d="M 191 3500 
L 800 3500 
L 1894 563 
L 2988 3500 
L 3597 3500 
L 2284 0 
L 1503 0 
L 191 3500 
z
" transform="scale(0.015625)"/>
     <path id="DejaVuSans-69" d="M 603 3500 
L 1178 3500 
L 1178 0 
L 603 0 
L 603 3500 
z
M 603 4863 
L 1178 4863 
L 1178 4134 
L 603 4134 
L 603 4863 
z
" transform="scale(0.015625)"/>
     <path id="DejaVuSans-6e" d="M 3513 2113 
L 3513 0 
L 2938 0 
L 2938 2094 
Q 2938 2591 2744 2837 
Q 2550 3084 2163 3084 
Q 1697 3084 1428 2787 
Q 1159 2491 1159 1978 
L 1159 0 
L 581 0 
L 581 3500 
L 1159 3500 
L 1159 2956 
Q 1366 3272 1645 3428 
Q 1925 3584 2291 3584 
Q 2894 3584 3203 3211 
Q 3513 2838 3513 2113 
z
" transform="scale(0.015625)"/>
     <path id="DejaVuSans-63" d="M 3122 3366 
L 3122 2828 
Q 2878 2963 2633 3030 
Q 2388 3097 2138 3097 
Q 1578 3097 1268 2742 
Q 959 2388 959 1747 
Q 959 1106 1268 751 
Q 1578 397 2138 397 
Q 2388 397 2633 464 
Q 2878 531 3122 666 
L 3122 134 
Q 2881 22 2623 -34 
Q 2366 -91 2075 -91 
Q 1284 -91 818 406 
Q 353 903 353 1747 
Q 353 2603 823 3093 
Q 1294 3584 2113 3584 
Q 2378 3584 2631 3529 
Q 2884 3475 3122 3366 
z
" transform="scale(0.015625)"/>
     <path id="DejaVuSans-20" transform="scale(0.015625)"/>
     <path id="DejaVuSans-28" d="M 1984 4856 
Q 1566 4138 1362 3434 
Q 1159 2731 1159 2009 
Q 1159 1288 1364 580 
Q 1569 -128 1984 -844 
L 1484 -844 
Q 1016 -109 783 600 
Q 550 1309 550 2009 
Q 550 2706 781 3412 
Q 1013 4119 1484 4856 
L 1984 4856 
z
" transform="scale(0.015625)"/>
     <path id="DejaVuSans-75" d="M 544 1381 
L 544 3500 
L 1119 3500 
L 1119 1403 
Q 1119 906 1312 657 
Q 1506 409 1894 409 
Q 2359 409 2629 706 
Q 2900 1003 2900 1516 
L 2900 3500 
L 3475 3500 
L 3475 0 
L 2900 0 
L 2900 538 
Q 2691 219 2414 64 
Q 2138 -91 1772 -91 
Q 1169 -91 856 284 
Q 544 659 544 1381 
z
M 1991 3584 
L 1991 3584 
z
" transform="scale(0.015625)"/>
     <path id="DejaVuSans-29" d="M 513 4856 
L 1013 4856 
Q 1481 4119 1714 3412 
Q 1947 2706 1947 2009 
Q 1947 1309 1714 600 
Q 1481 -109 1013 -844 
L 513 -844 
Q 928 -128 1133 580 
Q 1338 1288 1338 2009 
Q 1338 2731 1133 3434 
Q 928 4138 513 4856 
z
" transform="scale(0.015625)"/>
    </defs>
    <use xlink:href="#DejaVuSans-76"/>
    <use xlink:href="#DejaVuSans-61" transform="translate(59.179688 0)"/>
    <use xlink:href="#DejaVuSans-72" transform="translate(120.458984 0)"/>
    <use xlink:href="#DejaVuSans-69" transform="translate(161.572266 0)"/>
    <use xlink:href="#DejaVuSans-61" transform="translate(189.355469 0)"/>
    <use xlink:href="#DejaVuSans-6e" transform="translate(250.634766 0)"/>
    <use xlink:href="#DejaVuSans-63" transform="translate(314.013672 0)"/>
    <use xlink:href="#DejaVuSans-65" transform="translate(368.994141 0)"/>
    <use xlink:href="#DejaVuSans-20" transform="translate(430.517578 0)"/>
    <use xlink:href="#DejaVuSans-28" transform="translate(462.304688 0)"/>
    <use xlink:href="#DejaVuSans-61" transform="translate(501.318359 0)"/>
    <use xlink:href="#DejaVuSans-2e" transform="translate(562.597656 0)"/>
    <use xlink:href="#DejaVuSans-75" transform="translate(594.384766 0)"/>
    <use xlink:href="#DejaVuSans-2e" transform="translate(657.763672 0)"/>
    <use xlink:href="#DejaVuSans-29" transform="translate(689.550781 0)"/>
   </g>
  </g>
  <g id="text_23">
   <!-- Variance explained by component model (monkey M, PMd) -->
   <g transform="translate(3.295312 20.638125) scale(0.12 -0.12)">
    <defs>
     <path id="DejaVuSans-56" d="M 1831 0 
L 50 4666 
L 709 4666 
L 2188 738 
L 3669 4666 
L 4325 4666 
L 2547 0 
L 1831 0 
z
" transform="scale(0.015625)"/>
     <path id="DejaVuSans-78" d="M 3513 3500 
L 2247 1797 
L 3578 0 
L 2900 0 
L 1881 1375 
L 863 0 
L 184 0 
L 1544 1831 
L 300 3500 
L 978 3500 
L 1906 2253 
L 2834 3500 
L 3513 3500 
z
" transform="scale(0.015625)"/>
     <path id="DejaVuSans-79" d="M 2059 -325 
Q 1816 -950 1584 -1140 
Q 1353 -1331 966 -1331 
L 506 -1331 
L 506 -850 
L 844 -850 
Q 1081 -850 1212 -737 
Q 1344 -625 1503 -206 
L 1606 56 
L 191 3500 
L 800 3500 
L 1894 763 
L 2988 3500 
L 3597 3500 
L 2059 -325 
z
" transform="scale(0.015625)"/>
     <path id="DejaVuSans-6b" d="M 581 4863 
L 1159 4863 
L 1159 1991 
L 2875 3500 
L 3609 3500 
L 1753 1863 
L 3688 0 
L 2938 0 
L 1159 1709 
L 1159 0 
L 581 0 
L 581 4863 
z
" transform="scale(0.015625)"/>
     <path id="DejaVuSans-4d" d="M 628 4666 
L 1569 4666 
L 2759 1491 
L 3956 4666 
L 4897 4666 
L 4897 0 
L 4281 0 
L 4281 4097 
L 3078 897 
L 2444 897 
L 1241 4097 
L 1241 0 
L 628 0 
L 628 4666 
z
" transform="scale(0.015625)"/>
     <path id="DejaVuSans-2c" d="M 750 794 
L 1409 794 
L 1409 256 
L 897 -744 
L 494 -744 
L 750 256 
L 750 794 
z
" transform="scale(0.015625)"/>
    </defs>
    <use xlink:href="#DejaVuSans-56"/>
    <use xlink:href="#DejaVuSans-61" transform="translate(60.658203 0)"/>
    <use xlink:href="#DejaVuSans-72" transform="translate(121.9375 0)"/>
    <use xlink:href="#DejaVuSans-69" transform="translate(163.050781 0)"/>
    <use xlink:href="#DejaVuSans-61" transform="translate(190.833984 0)"/>
    <use xlink:href="#DejaVuSans-6e" transform="translate(252.113281 0)"/>
    <use xlink:href="#DejaVuSans-63" transform="translate(315.492188 0)"/>
    <use xlink:href="#DejaVuSans-65" transform="translate(370.472656 0)"/>
    <use xlink:href="#DejaVuSans-20" transform="translate(431.996094 0)"/>
    <use xlink:href="#DejaVuSans-65" transform="translate(463.783203 0)"/>
    <use xlink:href="#DejaVuSans-78" transform="translate(523.556641 0)"/>
    <use xlink:href="#DejaVuSans-70" transform="translate(582.736328 0)"/>
    <use xlink:href="#DejaVuSans-6c" transform="translate(646.212891 0)"/>
    <use xlink:href="#DejaVuSans-61" transform="translate(673.996094 0)"/>
    <use xlink:href="#DejaVuSans-69" transform="translate(735.275391 0)"/>
    <use xlink:href="#DejaVuSans-6e" transform="translate(763.058594 0)"/>
    <use xlink:href="#DejaVuSans-65" transform="translate(826.4375 0)"/>
    <use xlink:href="#DejaVuSans-64" transform="translate(887.960938 0)"/>
    <use xlink:href="#DejaVuSans-20" transform="translate(951.4375 0)"/>
    <use xlink:href="#DejaVuSans-62" transform="translate(983.224609 0)"/>
    <use xlink:href="#DejaVuSans-79" transform="translate(1046.701172 0)"/>
    <use xlink:href="#DejaVuSans-20" transform="translate(1105.880859 0)"/>
    <use xlink:href="#DejaVuSans-63" transform="translate(1137.667969 0)"/>
    <use xlink:href="#DejaVuSans-6f" transform="translate(1192.648438 0)"/>
    <use xlink:href="#DejaVuSans-6d" transform="translate(1253.830078 0)"/>
    <use xlink:href="#DejaVuSans-70" transform="translate(1351.242188 0)"/>
    <use xlink:href="#DejaVuSans-6f" transform="translate(1414.71875 0)"/>
    <use xlink:href="#DejaVuSans-6e" transform="translate(1475.900391 0)"/>
    <use xlink:href="#DejaVuSans-65" transform="translate(1539.279297 0)"/>
    <use xlink:href="#DejaVuSans-6e" transform="translate(1600.802734 0)"/>
    <use xlink:href="#DejaVuSans-74" transform="translate(1664.181641 0)"/>
    <use xlink:href="#DejaVuSans-20" transform="translate(1703.390625 0)"/>
    <use xlink:href="#DejaVuSans-6d" transform="translate(1735.177734 0)"/>
    <use xlink:href="#DejaVuSans-6f" transform="translate(1832.589844 0)"/>
    <use xlink:href="#DejaVuSans-64" transform="translate(1893.771484 0)"/>
    <use xlink:href="#DejaVuSans-65" transform="translate(1957.248047 0)"/>
    <use xlink:href="#DejaVuSans-6c" transform="translate(2018.771484 0)"/>
    <use xlink:href="#DejaVuSans-20" transform="translate(2046.554688 0)"/>
    <use xlink:href="#DejaVuSans-28" transform="translate(2078.341797 0)"/>
    <use xlink:href="#DejaVuSans-6d" transform="translate(2117.355469 0)"/>
    <use xlink:href="#DejaVuSans-6f" transform="translate(2214.767578 0)"/>
    <use xlink:href="#DejaVuSans-6e" transform="translate(2275.949219 0)"/>
    <use xlink:href="#DejaVuSans-6b" transform="translate(2339.328125 0)"/>
    <use xlink:href="#DejaVuSans-65" transform="translate(2393.613281 0)"/>
    <use xlink:href="#DejaVuSans-79" transform="translate(2455.136719 0)"/>
    <use xlink:href="#DejaVuSans-20" transform="translate(2514.316406 0)"/>
    <use xlink:href="#DejaVuSans-4d" transform="translate(2546.103516 0)"/>
    <use xlink:href="#DejaVuSans-2c" transform="translate(2632.382812 0)"/>
    <use xlink:href="#DejaVuSans-20" transform="translate(2664.169922 0)"/>
    <use xlink:href="#DejaVuSans-50" transform="translate(2695.957031 0)"/>
    <use xlink:href="#DejaVuSans-4d" transform="translate(2756.259766 0)"/>
    <use xlink:href="#DejaVuSans-64" transform="translate(2842.539062 0)"/>
    <use xlink:href="#DejaVuSans-29" transform="translate(2906.015625 0)"/>
   </g>
  </g>
  <g id="legend_1">
   <g id="line2d_79">
    <path d="M 205.479844 549.667969 
L 214.479844 549.667969 
L 223.479844 549.667969 
" style="fill: none; stroke: #ffcc33; stroke-width: 1.5; stroke-linecap: square"/>
   </g>
   <g id="text_24">
    <!-- finger -->
    <g transform="translate(230.679844 552.817969) scale(0.09 -0.09)">
     <defs>
      <path id="DejaVuSans-66" d="M 2375 4863 
L 2375 4384 
L 1825 4384 
Q 1516 4384 1395 4259 
Q 1275 4134 1275 3809 
L 1275 3500 
L 2222 3500 
L 2222 3053 
L 1275 3053 
L 1275 0 
L 697 0 
L 697 3053 
L 147 3053 
L 147 3500 
L 697 3500 
L 697 3744 
Q 697 4328 969 4595 
Q 1241 4863 1831 4863 
L 2375 4863 
z
" transform="scale(0.015625)"/>
     </defs>
     <use xlink:href="#DejaVuSans-66"/>
     <use xlink:href="#DejaVuSans-69" transform="translate(35.205078 0)"/>
     <use xlink:href="#DejaVuSans-6e" transform="translate(62.988281 0)"/>
     <use xlink:href="#DejaVuSans-67" transform="translate(126.367188 0)"/>
     <use xlink:href="#DejaVuSans-65" transform="translate(189.84375 0)"/>
     <use xlink:href="#DejaVuSans-72" transform="translate(251.367188 0)"/>
    </g>
   </g>
   <g id="line2d_80">
    <path d="M 205.479844 562.878281 
L 214.479844 562.878281 
L 223.479844 562.878281 
" style="fill: none; stroke: #ff0000; stroke-width: 1.5; stroke-linecap: square"/>
   </g>
   <g id="text_25">
    <!-- cue -->
    <g transform="translate(230.679844 566.028281) scale(0.09 -0.09)">
     <use xlink:href="#DejaVuSans-63"/>
     <use xlink:href="#DejaVuSans-75" transform="translate(54.980469 0)"/>
     <use xlink:href="#DejaVuSans-65" transform="translate(118.359375 0)"/>
    </g>
   </g>
   <g id="line2d_81">
    <path d="M 275.003438 549.667969 
L 284.003438 549.667969 
L 293.003438 549.667969 
" style="fill: none; stroke: #0000ff; stroke-width: 1.5; stroke-linecap: square"/>
   </g>
   <g id="text_26">
    <!-- uncertainty -->
    <g transform="translate(300.203438 552.817969) scale(0.09 -0.09)">
     <use xlink:href="#DejaVuSans-75"/>
     <use xlink:href="#DejaVuSans-6e" transform="translate(63.378906 0)"/>
     <use xlink:href="#DejaVuSans-63" transform="translate(126.757812 0)"/>
     <use xlink:href="#DejaVuSans-65" transform="translate(181.738281 0)"/>
     <use xlink:href="#DejaVuSans-72" transform="translate(243.261719 0)"/>
     <use xlink:href="#DejaVuSans-74" transform="translate(284.375 0)"/>
     <use xlink:href="#DejaVuSans-61" transform="translate(323.583984 0)"/>
     <use xlink:href="#DejaVuSans-69" transform="translate(384.863281 0)"/>
     <use xlink:href="#DejaVuSans-6e" transform="translate(412.646484 0)"/>
     <use xlink:href="#DejaVuSans-74" transform="translate(476.025391 0)"/>
     <use xlink:href="#DejaVuSans-79" transform="translate(515.234375 0)"/>
    </g>
   </g>
   <g id="line2d_82">
    <path d="M 275.003438 562.878281 
L 284.003438 562.878281 
L 293.003438 562.878281 
" style="fill: none; stroke: #ff00ff; stroke-width: 1.5; stroke-linecap: square"/>
   </g>
   <g id="text_27">
    <!-- surprise -->
    <g transform="translate(300.203438 566.028281) scale(0.09 -0.09)">
     <use xlink:href="#DejaVuSans-73"/>
     <use xlink:href="#DejaVuSans-75" transform="translate(52.099609 0)"/>
     <use xlink:href="#DejaVuSans-72" transform="translate(115.478516 0)"/>
     <use xlink:href="#DejaVuSans-70" transform="translate(156.591797 0)"/>
     <use xlink:href="#DejaVuSans-72" transform="translate(220.068359 0)"/>
     <use xlink:href="#DejaVuSans-69" transform="translate(261.181641 0)"/>
     <use xlink:href="#DejaVuSans-73" transform="translate(288.964844 0)"/>
     <use xlink:href="#DejaVuSans-65" transform="translate(341.064453 0)"/>
    </g>
   </g>
  </g>
 </g>
 <defs>
  <clipPath id="pdaa70716d9">
   <rect x="54.43" y="50.64" width="236.500718" height="52.884702"/>
  </clipPath>
  <clipPath id="p7bf4f62eae">
   <rect x="304.519466" y="50.64" width="39.416786" height="52.884702"/>
  </clipPath>
  <clipPath id="p0b869edb5a">
   <rect x="54.43" y="133.61506" width="236.500718" height="52.884702"/>
  </clipPath>
  <clipPath id="pae7a353967">
   <rect x="304.519466" y="133.61506" width="39.416786" height="52.884702"/>
  </clipPath>
  <clipPath id="pb516e7d3ac">
   <rect x="54.43" y="216.590119" width="236.500718" height="52.884702"/>
  </clipPath>
  <clipPath id="pda84d10fdc">
   <rect x="304.519466" y="216.590119" width="39.416786" height="52.884702"/>
  </clipPath>
  <clipPath id="p8e72f7534d">
   <rect x="54.43" y="299.565179" width="236.500718" height="52.884702"/>
  </clipPath>
  <clipPath id="pd869e4956e">
   <rect x="304.519466" y="299.565179" width="39.416786" height="52.884702"/>
  </clipPath>
  <clipPath id="pd6e116e118">
   <rect x="54.43" y="382.540239" width="236.500718" height="52.884702"/>
  </clipPath>
  <clipPath id="pc4f3c26a64">
   <rect x="304.519466" y="382.540239" width="39.416786" height="52.884702"/>
  </clipPath>
  <clipPath id="pf735a280a4">
   <rect x="54.43" y="465.515298" width="236.500718" height="52.884702"/>
  </clipPath>
  <clipPath id="pfebdaeacdb">
   <rect x="304.519466" y="465.515298" width="39.416786" height="52.884702"/>
  </clipPath>
 </defs>
</svg>
