<?xml version="1.0" encoding="utf-8" standalone="no"?>
<!DOCTYPE svg PUBLIC "-//W3C//DTD SVG 1.1//EN"
  "http://www.w3.org/Graphics/SVG/1.1/DTD/svg11.dtd">
<svg xmlns:xlink="http://www.w3.org/1999/xlink" width="360pt" height="576pt" viewBox="0 0 360 576" xmlns="http://www.w3.org/2000/svg" version="1.1">
 <metadata>
  <rdf:RDF xmlns:dc="http://purl.org/dc/elements/1.1/" xmlns:cc="http://creativecommons.org/ns#" xmlns:rdf="http://www.w3.org/1999/02/22-rdf-syntax-ns#">
   <cc:Work>
    <dc:type rdf:resource="http://purl.org/dc/dcmitype/StillImage"/>
    <dc:date>2025-07-16T20:45:49.335169</dc:date>
    <dc:format>image/svg+xml</dc:format>
    <dc:creator>
     <cc:Agent>
      <dc:title>Matplotlib v3.10.1, https://matplotlib.org/</dc:title>
     </cc:Agent>
    </dc:creator>
   </cc:Work>
  </rdf:RDF>
 </metadata>
 <defs>
  <style type="text/css">*{stroke-linejoin: round; stroke-linecap: butt}</style>
 </defs>
 <g id="figure_1">
  <g id="patch_1">
   <path d="M 0 576 
L 360 576 
L 360 0 
L 0 0 
z
" style="fill: #ffffff"/>
  </g>
  <g id="axes_1">
   <g id="patch_2">
    <path d="M 54.43 107.088627 
L 282.071667 107.088627 
L 282.071667 50.64 
L 54.43 50.64 
z
" style="fill: #ffffff"/>
   </g>
   <g id="matplotlib.axis_1">
    <g id="xtick_1"/>
   </g>
   <g id="matplotlib.axis_2">
    <g id="ytick_1">
     <g id="line2d_1">
      <defs>
       <path id="m2286ae7079" d="M 0 0 
L -3.5 0 
" style="stroke: #000000; stroke-width: 0.8"/>
      </defs>
      <g>
       <use xlink:href="#m2286ae7079" x="54.43" y="105.981792" style="stroke: #000000; stroke-width: 0.8"/>
      </g>
     </g>
     <g id="text_1">
      <!-- 0.0 -->
      <g transform="translate(31.526875 109.78101) scale(0.1 -0.1)">
       <defs>
        <path id="DejaVuSans-30" d="M 2034 4250 
Q 1547 4250 1301 3770 
Q 1056 3291 1056 2328 
Q 1056 1369 1301 889 
Q 1547 409 2034 409 
Q 2525 409 2770 889 
Q 3016 1369 3016 2328 
Q 3016 3291 2770 3770 
Q 2525 4250 2034 4250 
z
M 2034 4750 
Q 2819 4750 3233 4129 
Q 3647 3509 3647 2328 
Q 3647 1150 3233 529 
Q 2819 -91 2034 -91 
Q 1250 -91 836 529 
Q 422 1150 422 2328 
Q 422 3509 836 4129 
Q 1250 4750 2034 4750 
z
" transform="scale(0.015625)"/>
        <path id="DejaVuSans-2e" d="M 684 794 
L 1344 794 
L 1344 0 
L 684 0 
L 684 794 
z
" transform="scale(0.015625)"/>
       </defs>
       <use xlink:href="#DejaVuSans-30"/>
       <use xlink:href="#DejaVuSans-2e" transform="translate(63.623047 0)"/>
       <use xlink:href="#DejaVuSans-30" transform="translate(95.410156 0)"/>
      </g>
     </g>
    </g>
    <g id="ytick_2">
     <g id="line2d_2">
      <g>
       <use xlink:href="#m2286ae7079" x="54.43" y="50.64" style="stroke: #000000; stroke-width: 0.8"/>
      </g>
     </g>
     <g id="text_2">
      <!-- 0.5 -->
      <g transform="translate(31.526875 54.439219) scale(0.1 -0.1)">
       <defs>
        <path id="DejaVuSans-35" d="M 691 4666 
L 3169 4666 
L 3169 4134 
L 1269 4134 
L 1269 2991 
Q 1406 3038 1543 3061 
Q 1681 3084 1819 3084 
Q 2600 3084 3056 2656 
Q 3513 2228 3513 1497 
Q 3513 744 3044 326 
Q 2575 -91 1722 -91 
Q 1428 -91 1123 -41 
Q 819 9 494 109 
L 494 744 
Q 775 591 1075 516 
Q 1375 441 1709 441 
Q 2250 441 2565 725 
Q 2881 1009 2881 1497 
Q 2881 1984 2565 2268 
Q 2250 2553 1709 2553 
Q 1456 2553 1204 2497 
Q 953 2441 691 2322 
L 691 4666 
z
" transform="scale(0.015625)"/>
       </defs>
       <use xlink:href="#DejaVuSans-30"/>
       <use xlink:href="#DejaVuSans-2e" transform="translate(63.623047 0)"/>
       <use xlink:href="#DejaVuSans-35" transform="translate(95.410156 0)"/>
      </g>
     </g>
    </g>
   </g>
   <g id="line2d_3">
    <path d="M 54.43 105.981792 
L 78.820179 105.981792 
L 81.530198 104.368982 
L 84.240218 103.283466 
L 89.660258 101.790274 
L 97.790317 100.024106 
L 111.340417 97.450558 
L 138.440615 92.632187 
L 162.830794 88.470371 
L 179.090913 85.896238 
L 195.351032 83.542424 
L 217.03119 80.659384 
L 233.29131 78.702341 
L 249.551429 76.970378 
L 265.811548 75.481073 
L 279.361647 74.342881 
L 282.071667 72.877651 
L 311.881885 71.09054 
L 322.721964 70.156811 
L 333.562044 68.993918 
L 344.402123 67.619957 
L 357.952222 65.67548 
L 361 65.214123 
L 361 65.214123 
" clip-path="url(#p7f98755ec8)" style="fill: none; stroke: #ff0000; stroke-width: 1.5; stroke-linecap: square"/>
   </g>
   <g id="line2d_4">
    <path d="M 54.43 105.981792 
L 195.351032 105.981792 
L 198.061052 104.837717 
L 200.771071 103.508855 
L 203.481091 102.665851 
L 208.901131 101.413624 
L 214.321171 100.440706 
L 222.45123 99.272037 
L 230.58129 98.335781 
L 241.421369 97.331526 
L 257.681488 96.121824 
L 279.361647 94.669051 
L 282.071667 96.242409 
L 301.041806 95.18611 
L 317.301925 94.513411 
L 333.562044 94.07958 
L 349.822163 93.901063 
L 361 93.933172 
L 361 93.933172 
" clip-path="url(#p7f98755ec8)" style="fill: none; stroke: #0000ff; stroke-width: 1.5; stroke-linecap: square"/>
   </g>
   <g id="line2d_5">
    <path d="M 54.43 105.981792 
L 282.071667 105.981792 
" clip-path="url(#p7f98755ec8)" style="fill: none; stroke: #000000; stroke-width: 0.8; stroke-linecap: square"/>
   </g>
   <g id="line2d_6">
    <path d="M 54.43 83.417276 
L 100.500337 79.252708 
L 151.990714 74.525193 
L 165.540813 73.520201 
L 179.090913 72.752405 
L 189.930992 72.35402 
L 200.771071 72.166061 
L 211.611151 72.178496 
L 225.16125 72.411499 
L 257.681488 73.094599 
L 268.521567 73.077046 
L 279.361647 72.811658 
L 282.071667 71.073663 
L 292.911746 70.818868 
L 303.751825 70.315796 
L 311.881885 69.744633 
L 322.721964 68.718162 
L 333.562044 67.424735 
L 347.112143 65.530624 
L 361 63.409982 
L 361 63.409982 
" clip-path="url(#p7f98755ec8)" style="fill: none; stroke-dasharray: 5.55,2.4; stroke-dashoffset: 0; stroke: #000000; stroke-width: 1.5"/>
   </g>
   <g id="line2d_7">
    <path d="M 108.630397 107.088627 
L 108.630397 50.64 
" clip-path="url(#p7f98755ec8)" style="fill: none; stroke: #000000; stroke-width: 0.8; stroke-linecap: square"/>
   </g>
   <g id="patch_3">
    <path d="M 54.43 105.981792 
L 54.43 50.64 
" style="fill: none; stroke: #000000; stroke-width: 0.8; stroke-linejoin: miter; stroke-linecap: square"/>
   </g>
   <g id="text_3">
    <!-- delta -->
    <g transform="translate(153.053958 44.64) scale(0.12 -0.12)">
     <defs>
      <path id="DejaVuSans-64" d="M 2906 2969 
L 2906 4863 
L 3481 4863 
L 3481 0 
L 2906 0 
L 2906 525 
Q 2725 213 2448 61 
Q 2172 -91 1784 -91 
Q 1150 -91 751 415 
Q 353 922 353 1747 
Q 353 2572 751 3078 
Q 1150 3584 1784 3584 
Q 2172 3584 2448 3432 
Q 2725 3281 2906 2969 
z
M 947 1747 
Q 947 1113 1208 752 
Q 1469 391 1925 391 
Q 2381 391 2643 752 
Q 2906 1113 2906 1747 
Q 2906 2381 2643 2742 
Q 2381 3103 1925 3103 
Q 1469 3103 1208 2742 
Q 947 2381 947 1747 
z
" transform="scale(0.015625)"/>
      <path id="DejaVuSans-65" d="M 3597 1894 
L 3597 1613 
L 953 1613 
Q 991 1019 1311 708 
Q 1631 397 2203 397 
Q 2534 397 2845 478 
Q 3156 559 3463 722 
L 3463 178 
Q 3153 47 2828 -22 
Q 2503 -91 2169 -91 
Q 1331 -91 842 396 
Q 353 884 353 1716 
Q 353 2575 817 3079 
Q 1281 3584 2069 3584 
Q 2775 3584 3186 3129 
Q 3597 2675 3597 1894 
z
M 3022 2063 
Q 3016 2534 2758 2815 
Q 2500 3097 2075 3097 
Q 1594 3097 1305 2825 
Q 1016 2553 972 2059 
L 3022 2063 
z
" transform="scale(0.015625)"/>
      <path id="DejaVuSans-6c" d="M 603 4863 
L 1178 4863 
L 1178 0 
L 603 0 
L 603 4863 
z
" transform="scale(0.015625)"/>
      <path id="DejaVuSans-74" d="M 1172 4494 
L 1172 3500 
L 2356 3500 
L 2356 3053 
L 1172 3053 
L 1172 1153 
Q 1172 725 1289 603 
Q 1406 481 1766 481 
L 2356 481 
L 2356 0 
L 1766 0 
Q 1100 0 847 248 
Q 594 497 594 1153 
L 594 3053 
L 172 3053 
L 172 3500 
L 594 3500 
L 594 4494 
L 1172 4494 
z
" transform="scale(0.015625)"/>
      <path id="DejaVuSans-61" d="M 2194 1759 
Q 1497 1759 1228 1600 
Q 959 1441 959 1056 
Q 959 750 1161 570 
Q 1363 391 1709 391 
Q 2188 391 2477 730 
Q 2766 1069 2766 1631 
L 2766 1759 
L 2194 1759 
z
M 3341 1997 
L 3341 0 
L 2766 0 
L 2766 531 
Q 2569 213 2275 61 
Q 1981 -91 1556 -91 
Q 1019 -91 701 211 
Q 384 513 384 1019 
Q 384 1609 779 1909 
Q 1175 2209 1959 2209 
L 2766 2209 
L 2766 2266 
Q 2766 2663 2505 2880 
Q 2244 3097 1772 3097 
Q 1472 3097 1187 3025 
Q 903 2953 641 2809 
L 641 3341 
Q 956 3463 1253 3523 
Q 1550 3584 1831 3584 
Q 2591 3584 2966 3190 
Q 3341 2797 3341 1997 
z
" transform="scale(0.015625)"/>
     </defs>
     <use xlink:href="#DejaVuSans-64"/>
     <use xlink:href="#DejaVuSans-65" transform="translate(63.476562 0)"/>
     <use xlink:href="#DejaVuSans-6c" transform="translate(125 0)"/>
     <use xlink:href="#DejaVuSans-74" transform="translate(152.783203 0)"/>
     <use xlink:href="#DejaVuSans-61" transform="translate(191.992188 0)"/>
    </g>
   </g>
  </g>
  <g id="axes_2">
   <g id="patch_4">
    <path d="M 292.871667 107.088627 
L 315.635833 107.088627 
L 315.635833 50.64 
L 292.871667 50.64 
z
" style="fill: #ffffff"/>
   </g>
   <g id="patch_5">
    <path d="M 293.906402 105.981792 
L 304.25375 105.981792 
L 304.25375 103.520708 
L 293.906402 103.520708 
z
" clip-path="url(#p284acf4e4f)" style="fill: #ff0000"/>
   </g>
   <g id="patch_6">
    <path d="M 304.25375 105.981792 
L 314.601098 105.981792 
L 314.601098 105.981792 
L 304.25375 105.981792 
z
" clip-path="url(#p284acf4e4f)" style="fill: #0000ff"/>
   </g>
   <g id="matplotlib.axis_3"/>
   <g id="matplotlib.axis_4">
    <g id="ytick_3"/>
    <g id="ytick_4"/>
   </g>
   <g id="text_4">
    <!-- Pre -->
    <g transform="translate(294.7175 44.64) scale(0.12 -0.12)">
     <defs>
      <path id="DejaVuSans-50" d="M 1259 4147 
L 1259 2394 
L 2053 2394 
Q 2494 2394 2734 2622 
Q 2975 2850 2975 3272 
Q 2975 3691 2734 3919 
Q 2494 4147 2053 4147 
L 1259 4147 
z
M 628 4666 
L 2053 4666 
Q 2838 4666 3239 4311 
Q 3641 3956 3641 3272 
Q 3641 2581 3239 2228 
Q 2838 1875 2053 1875 
L 1259 1875 
L 1259 0 
L 628 0 
L 628 4666 
z
" transform="scale(0.015625)"/>
      <path id="DejaVuSans-72" d="M 2631 2963 
Q 2534 3019 2420 3045 
Q 2306 3072 2169 3072 
Q 1681 3072 1420 2755 
Q 1159 2438 1159 1844 
L 1159 0 
L 581 0 
L 581 3500 
L 1159 3500 
L 1159 2956 
Q 1341 3275 1631 3429 
Q 1922 3584 2338 3584 
Q 2397 3584 2469 3576 
Q 2541 3569 2628 3553 
L 2631 2963 
z
" transform="scale(0.015625)"/>
     </defs>
     <use xlink:href="#DejaVuSans-50"/>
     <use xlink:href="#DejaVuSans-72" transform="translate(58.552734 0)"/>
     <use xlink:href="#DejaVuSans-65" transform="translate(97.416016 0)"/>
    </g>
   </g>
  </g>
  <g id="axes_3">
   <g id="patch_7">
    <path d="M 326.435833 107.088627 
L 349.2 107.088627 
L 349.2 50.64 
L 326.435833 50.64 
z
" style="fill: #ffffff"/>
   </g>
   <g id="patch_8">
    <path d="M 327.470568 105.981792 
L 337.817917 105.981792 
L 337.817917 84.584125 
L 327.470568 84.584125 
z
" clip-path="url(#p2d65978775)" style="fill: #ff0000"/>
   </g>
   <g id="patch_9">
    <path d="M 337.817917 105.981792 
L 348.165265 105.981792 
L 348.165265 102.199927 
L 337.817917 102.199927 
z
" clip-path="url(#p2d65978775)" style="fill: #0000ff"/>
   </g>
   <g id="matplotlib.axis_5"/>
   <g id="matplotlib.axis_6">
    <g id="ytick_5"/>
    <g id="ytick_6"/>
   </g>
   <g id="text_5">
    <!-- Post -->
    <g transform="translate(325.268542 44.64) scale(0.12 -0.12)">
     <defs>
      <path id="DejaVuSans-6f" d="M 1959 3097 
Q 1497 3097 1228 2736 
Q 959 2375 959 1747 
Q 959 1119 1226 758 
Q 1494 397 1959 397 
Q 2419 397 2687 759 
Q 2956 1122 2956 1747 
Q 2956 2369 2687 2733 
Q 2419 3097 1959 3097 
z
M 1959 3584 
Q 2709 3584 3137 3096 
Q 3566 2609 3566 1747 
Q 3566 888 3137 398 
Q 2709 -91 1959 -91 
Q 1206 -91 779 398 
Q 353 888 353 1747 
Q 353 2609 779 3096 
Q 1206 3584 1959 3584 
z
" transform="scale(0.015625)"/>
      <path id="DejaVuSans-73" d="M 2834 3397 
L 2834 2853 
Q 2591 2978 2328 3040 
Q 2066 3103 1784 3103 
Q 1356 3103 1142 2972 
Q 928 2841 928 2578 
Q 928 2378 1081 2264 
Q 1234 2150 1697 2047 
L 1894 2003 
Q 2506 1872 2764 1633 
Q 3022 1394 3022 966 
Q 3022 478 2636 193 
Q 2250 -91 1575 -91 
Q 1294 -91 989 -36 
Q 684 19 347 128 
L 347 722 
Q 666 556 975 473 
Q 1284 391 1588 391 
Q 1994 391 2212 530 
Q 2431 669 2431 922 
Q 2431 1156 2273 1281 
Q 2116 1406 1581 1522 
L 1381 1569 
Q 847 1681 609 1914 
Q 372 2147 372 2553 
Q 372 3047 722 3315 
Q 1072 3584 1716 3584 
Q 2034 3584 2315 3537 
Q 2597 3491 2834 3397 
z
" transform="scale(0.015625)"/>
     </defs>
     <use xlink:href="#DejaVuSans-50"/>
     <use xlink:href="#DejaVuSans-6f" transform="translate(56.677734 0)"/>
     <use xlink:href="#DejaVuSans-73" transform="translate(117.859375 0)"/>
     <use xlink:href="#DejaVuSans-74" transform="translate(169.958984 0)"/>
    </g>
   </g>
  </g>
  <g id="axes_4">
   <g id="patch_10">
    <path d="M 54.43 195.294902 
L 282.071667 195.294902 
L 282.071667 138.846275 
L 54.43 138.846275 
z
" style="fill: #ffffff"/>
   </g>
   <g id="matplotlib.axis_7">
    <g id="xtick_2"/>
   </g>
   <g id="matplotlib.axis_8">
    <g id="ytick_7">
     <g id="line2d_8">
      <g>
       <use xlink:href="#m2286ae7079" x="54.43" y="194.188066" style="stroke: #000000; stroke-width: 0.8"/>
      </g>
     </g>
     <g id="text_6">
      <!-- 0.0 -->
      <g transform="translate(31.526875 197.987285) scale(0.1 -0.1)">
       <use xlink:href="#DejaVuSans-30"/>
       <use xlink:href="#DejaVuSans-2e" transform="translate(63.623047 0)"/>
       <use xlink:href="#DejaVuSans-30" transform="translate(95.410156 0)"/>
      </g>
     </g>
    </g>
    <g id="ytick_8">
     <g id="line2d_9">
      <g>
       <use xlink:href="#m2286ae7079" x="54.43" y="138.846275" style="stroke: #000000; stroke-width: 0.8"/>
      </g>
     </g>
     <g id="text_7">
      <!-- 0.5 -->
      <g transform="translate(31.526875 142.645493) scale(0.1 -0.1)">
       <use xlink:href="#DejaVuSans-30"/>
       <use xlink:href="#DejaVuSans-2e" transform="translate(63.623047 0)"/>
       <use xlink:href="#DejaVuSans-35" transform="translate(95.410156 0)"/>
      </g>
     </g>
    </g>
   </g>
   <g id="line2d_10">
    <path d="M 54.43 194.188066 
L 173.670873 194.188066 
L 176.380893 192.433853 
L 179.090913 190.970502 
L 181.800933 190.052199 
L 184.510952 189.355763 
L 189.930992 188.291264 
L 208.901131 185.206058 
L 214.321171 184.412271 
L 219.74121 183.808461 
L 225.16125 183.443899 
L 230.58129 183.32254 
L 236.001329 183.449286 
L 252.261448 184.32186 
L 257.681488 184.167376 
L 263.101528 183.609583 
L 268.521567 182.648886 
L 273.941607 181.406871 
L 279.361647 179.986846 
L 282.071667 176.17435 
L 292.911746 175.667249 
L 311.881885 174.438677 
L 314.591905 174.425822 
L 317.301925 174.529045 
L 320.011944 174.774595 
L 322.721964 175.188039 
L 325.431984 175.795002 
L 328.142004 176.61496 
L 330.852024 177.658018 
L 333.562044 178.918393 
L 338.982083 181.902414 
L 341.692103 183.423566 
L 344.402123 184.7343 
L 347.112143 185.578076 
L 349.822163 185.707889 
L 352.532183 185.055087 
L 355.242202 183.781668 
L 357.952222 182.134107 
L 361 180.081326 
L 361 180.081326 
" clip-path="url(#p3cc0619172)" style="fill: none; stroke: #ff0000; stroke-width: 1.5; stroke-linecap: square"/>
   </g>
   <g id="line2d_11">
    <path d="M 54.43 194.188066 
L 67.980099 194.187769 
L 70.690119 192.348221 
L 73.400139 191.575291 
L 76.110159 191.063116 
L 81.530198 190.444188 
L 86.950238 190.174316 
L 92.370278 190.131937 
L 97.790317 190.325553 
L 103.210357 190.860516 
L 105.920377 191.301043 
L 108.630397 191.902063 
L 111.340417 192.858558 
L 114.050437 194.188066 
L 271.231587 194.188066 
L 273.941607 192.986023 
L 276.651627 189.987026 
L 279.361647 188.304781 
L 282.071667 181.699482 
L 290.201726 181.175636 
L 298.331786 180.436775 
L 333.562044 176.738059 
L 341.692103 176.212068 
L 349.822163 175.951782 
L 357.952222 175.936939 
L 361 175.999153 
L 361 175.999153 
" clip-path="url(#p3cc0619172)" style="fill: none; stroke: #0000ff; stroke-width: 1.5; stroke-linecap: square"/>
   </g>
   <g id="line2d_12">
    <path d="M 54.43 194.188066 
L 282.071667 194.188066 
" clip-path="url(#p3cc0619172)" style="fill: none; stroke: #000000; stroke-width: 0.8; stroke-linecap: square"/>
   </g>
   <g id="line2d_13">
    <path d="M 133.020575 192.141006 
L 135.730595 191.149702 
L 141.150635 189.621283 
L 146.570675 188.336088 
L 149.280694 187.820797 
L 151.990714 187.428072 
L 154.700734 187.159265 
L 157.410754 187.017994 
L 160.120774 187.019002 
L 162.830794 187.171211 
L 165.540813 187.468657 
L 170.960853 188.402904 
L 179.090913 190.101728 
L 181.800933 190.535592 
L 184.510952 190.729233 
L 187.220972 190.573788 
L 189.930992 190.05877 
L 192.641012 189.278111 
L 198.061052 187.333383 
L 217.03119 179.956446 
L 222.45123 178.29753 
L 227.87127 177.048525 
L 230.58129 176.603169 
L 233.29131 176.297409 
L 236.001329 176.149728 
L 238.711349 176.172517 
L 241.421369 176.367864 
L 244.131389 176.733801 
L 246.841409 177.268319 
L 249.551429 177.967439 
L 252.261448 178.83186 
L 254.971468 179.859807 
L 257.681488 181.036119 
L 263.101528 183.739693 
L 268.521567 186.584441 
L 271.231587 187.83146 
L 273.941607 188.73341 
L 276.651627 189.062937 
L 279.361647 188.704533 
L 282.071667 178.848542 
L 284.781687 178.454137 
L 287.491706 177.935517 
L 292.911746 176.562768 
L 298.331786 174.865219 
L 309.171865 171.268467 
L 314.591905 169.795272 
L 317.301925 169.235902 
L 320.011944 168.818959 
L 322.721964 168.555881 
L 325.431984 168.450119 
L 328.142004 168.494026 
L 333.562044 168.9388 
L 338.982083 169.527476 
L 341.692103 169.706307 
L 344.402123 169.721975 
L 347.112143 169.529611 
L 349.822163 169.103431 
L 352.532183 168.442232 
L 355.242202 167.571493 
L 360.662242 165.399575 
L 361 165.251665 
L 361 165.251665 
" clip-path="url(#p3cc0619172)" style="fill: none; stroke-dasharray: 5.55,2.4; stroke-dashoffset: 0; stroke: #000000; stroke-width: 1.5"/>
   </g>
   <g id="line2d_14">
    <path d="M 108.630397 195.294902 
L 108.630397 138.846275 
" clip-path="url(#p3cc0619172)" style="fill: none; stroke: #000000; stroke-width: 0.8; stroke-linecap: square"/>
   </g>
   <g id="patch_11">
    <path d="M 54.43 194.188066 
L 54.43 138.846275 
" style="fill: none; stroke: #000000; stroke-width: 0.8; stroke-linejoin: miter; stroke-linecap: square"/>
   </g>
   <g id="text_8">
    <!-- theta -->
    <g transform="translate(152.375208 132.846275) scale(0.12 -0.12)">
     <defs>
      <path id="DejaVuSans-68" d="M 3513 2113 
L 3513 0 
L 2938 0 
L 2938 2094 
Q 2938 2591 2744 2837 
Q 2550 3084 2163 3084 
Q 1697 3084 1428 2787 
Q 1159 2491 1159 1978 
L 1159 0 
L 581 0 
L 581 4863 
L 1159 4863 
L 1159 2956 
Q 1366 3272 1645 3428 
Q 1925 3584 2291 3584 
Q 2894 3584 3203 3211 
Q 3513 2838 3513 2113 
z
" transform="scale(0.015625)"/>
     </defs>
     <use xlink:href="#DejaVuSans-74"/>
     <use xlink:href="#DejaVuSans-68" transform="translate(39.208984 0)"/>
     <use xlink:href="#DejaVuSans-65" transform="translate(102.587891 0)"/>
     <use xlink:href="#DejaVuSans-74" transform="translate(164.111328 0)"/>
     <use xlink:href="#DejaVuSans-61" transform="translate(203.320312 0)"/>
    </g>
   </g>
  </g>
  <g id="axes_5">
   <g id="patch_12">
    <path d="M 292.871667 195.294902 
L 315.635833 195.294902 
L 315.635833 138.846275 
L 292.871667 138.846275 
z
" style="fill: #ffffff"/>
   </g>
   <g id="patch_13">
    <path d="M 293.906402 194.188066 
L 304.25375 194.188066 
L 304.25375 194.188066 
L 293.906402 194.188066 
z
" clip-path="url(#p39d66f1949)" style="fill: #ff0000"/>
   </g>
   <g id="patch_14">
    <path d="M 304.25375 194.188066 
L 314.601098 194.188066 
L 314.601098 191.759502 
L 304.25375 191.759502 
z
" clip-path="url(#p39d66f1949)" style="fill: #0000ff"/>
   </g>
   <g id="matplotlib.axis_9"/>
   <g id="matplotlib.axis_10">
    <g id="ytick_9"/>
    <g id="ytick_10"/>
   </g>
  </g>
  <g id="axes_6">
   <g id="patch_15">
    <path d="M 326.435833 195.294902 
L 349.2 195.294902 
L 349.2 138.846275 
L 326.435833 138.846275 
z
" style="fill: #ffffff"/>
   </g>
   <g id="patch_16">
    <path d="M 327.470568 194.188066 
L 337.817917 194.188066 
L 337.817917 188.562504 
L 327.470568 188.562504 
z
" clip-path="url(#pff56a2b8cf)" style="fill: #ff0000"/>
   </g>
   <g id="patch_17">
    <path d="M 337.817917 194.188066 
L 348.165265 194.188066 
L 348.165265 193.955224 
L 337.817917 193.955224 
z
" clip-path="url(#pff56a2b8cf)" style="fill: #0000ff"/>
   </g>
   <g id="matplotlib.axis_11"/>
   <g id="matplotlib.axis_12">
    <g id="ytick_11"/>
    <g id="ytick_12"/>
   </g>
  </g>
  <g id="axes_7">
   <g id="patch_18">
    <path d="M 54.43 283.501176 
L 282.071667 283.501176 
L 282.071667 227.052549 
L 54.43 227.052549 
z
" style="fill: #ffffff"/>
   </g>
   <g id="matplotlib.axis_13">
    <g id="xtick_3"/>
   </g>
   <g id="matplotlib.axis_14">
    <g id="ytick_13">
     <g id="line2d_15">
      <g>
       <use xlink:href="#m2286ae7079" x="54.43" y="282.394341" style="stroke: #000000; stroke-width: 0.8"/>
      </g>
     </g>
     <g id="text_9">
      <!-- 0.0 -->
      <g transform="translate(31.526875 286.193559) scale(0.1 -0.1)">
       <use xlink:href="#DejaVuSans-30"/>
       <use xlink:href="#DejaVuSans-2e" transform="translate(63.623047 0)"/>
       <use xlink:href="#DejaVuSans-30" transform="translate(95.410156 0)"/>
      </g>
     </g>
    </g>
    <g id="ytick_14">
     <g id="line2d_16">
      <g>
       <use xlink:href="#m2286ae7079" x="54.43" y="227.052549" style="stroke: #000000; stroke-width: 0.8"/>
      </g>
     </g>
     <g id="text_10">
      <!-- 0.5 -->
      <g transform="translate(31.526875 230.851768) scale(0.1 -0.1)">
       <use xlink:href="#DejaVuSans-30"/>
       <use xlink:href="#DejaVuSans-2e" transform="translate(63.623047 0)"/>
       <use xlink:href="#DejaVuSans-35" transform="translate(95.410156 0)"/>
      </g>
     </g>
    </g>
   </g>
   <g id="line2d_17">
    <path d="M 54.43 282.39433 
L 84.240218 282.394318 
L 86.950238 279.402158 
L 89.660258 275.712256 
L 97.790317 266.027321 
L 100.500337 263.094352 
L 103.210357 260.716525 
L 105.920377 259.243927 
L 108.630397 258.911671 
L 111.340417 259.711925 
L 114.050437 261.304067 
L 116.760456 263.392271 
L 119.470476 265.801323 
L 122.180496 268.508484 
L 124.890516 271.642991 
L 127.600536 275.677055 
L 130.310556 282.394035 
L 143.860655 282.394265 
L 146.570675 280.426403 
L 149.280694 278.923069 
L 151.990714 279.366605 
L 154.700734 281.864916 
L 157.410754 282.393962 
L 181.800933 282.394341 
L 184.510952 278.126125 
L 187.220972 272.203474 
L 189.930992 267.809017 
L 192.641012 264.51347 
L 195.351032 262.500857 
L 198.061052 261.767619 
L 200.771071 262.168451 
L 203.481091 263.596021 
L 206.191111 265.861516 
L 208.901131 268.544353 
L 211.611151 271.433701 
L 214.321171 274.555602 
L 217.03119 278.286702 
L 219.74121 282.393931 
L 236.001329 282.383621 
L 238.711349 277.854187 
L 241.421369 273.105927 
L 244.131389 268.853964 
L 246.841409 264.912561 
L 249.551429 261.509803 
L 252.261448 258.645038 
L 254.971468 256.165397 
L 260.391508 251.799613 
L 263.101528 249.673636 
L 265.811548 247.40628 
L 268.521567 244.810737 
L 273.941607 238.783683 
L 276.651627 235.750403 
L 279.361647 233.025543 
L 282.071667 233.745564 
L 284.781687 237.309317 
L 287.491706 239.562914 
L 290.201726 240.504272 
L 292.911746 240.30755 
L 295.621766 239.07249 
L 298.331786 236.990934 
L 301.041806 234.644419 
L 303.751825 232.775664 
L 306.461845 232.057474 
L 309.171865 233.116543 
L 311.881885 235.79058 
L 317.301925 242.461396 
L 320.011944 245.53509 
L 322.721964 248.302591 
L 325.431984 250.630811 
L 328.142004 252.388472 
L 330.852024 253.652297 
L 333.562044 254.786801 
L 336.272063 256.239482 
L 338.982083 258.178641 
L 341.692103 260.484551 
L 347.112143 265.623247 
L 349.822163 266.895133 
L 352.532183 266.14508 
L 355.242202 263.967001 
L 357.952222 261.181055 
L 361 257.859521 
L 361 257.859521 
" clip-path="url(#pb2660c5b30)" style="fill: none; stroke: #ff0000; stroke-width: 1.5; stroke-linecap: square"/>
   </g>
   <g id="line2d_18">
    <path d="M 54.43 275.047902 
L 57.14002 277.608869 
L 59.85004 282.394341 
L 105.920377 282.394341 
L 108.630397 275.148869 
L 111.340417 271.914379 
L 114.050437 269.850126 
L 116.760456 268.459989 
L 119.470476 267.541305 
L 122.180496 267.168259 
L 124.890516 267.304689 
L 127.600536 267.799086 
L 130.310556 268.562154 
L 133.020575 269.677767 
L 135.730595 271.357116 
L 138.440615 273.859768 
L 141.150635 278.23867 
L 143.860655 282.394341 
L 157.410754 282.394341 
L 162.830794 276.338724 
L 176.380893 267.496386 
L 179.090913 266.162816 
L 181.800933 265.471377 
L 184.510952 265.525207 
L 187.220972 266.243201 
L 189.930992 267.514134 
L 192.641012 269.100707 
L 195.351032 270.869921 
L 198.061052 272.926025 
L 200.771071 275.31645 
L 203.481091 277.943473 
L 206.191111 282.394341 
L 230.58129 282.394341 
L 233.29131 279.506367 
L 236.001329 275.012345 
L 238.711349 272.650253 
L 241.421369 271.34715 
L 244.131389 270.916109 
L 246.841409 271.424725 
L 249.551429 272.916937 
L 252.261448 275.231256 
L 257.681488 282.394335 
L 279.361647 282.394341 
L 282.071667 262.865786 
L 284.781687 263.805815 
L 287.491706 264.376589 
L 290.201726 264.658432 
L 292.911746 264.679853 
L 306.461845 263.850896 
L 311.881885 264.015923 
L 314.591905 263.758736 
L 317.301925 262.973737 
L 322.721964 260.656017 
L 330.852024 256.598452 
L 333.562044 255.500737 
L 336.272063 254.827601 
L 338.982083 254.677404 
L 341.692103 255.025186 
L 344.402123 256.111565 
L 347.112143 258.486787 
L 349.822163 262.075027 
L 352.532183 266.344357 
L 357.952222 275.501751 
L 360.662242 282.394341 
L 361 282.394341 
L 361 282.394341 
" clip-path="url(#pb2660c5b30)" style="fill: none; stroke: #0000ff; stroke-width: 1.5; stroke-linecap: square"/>
   </g>
   <g id="line2d_19">
    <path d="M 54.43 282.394341 
L 282.071667 282.394341 
" clip-path="url(#pb2660c5b30)" style="fill: none; stroke: #000000; stroke-width: 0.8; stroke-linecap: square"/>
   </g>
   <g id="line2d_20">
    <path d="M 54.43 261.136132 
L 57.14002 263.29481 
L 59.85004 265.793493 
L 62.56006 268.766895 
L 65.270079 272.535599 
L 67.980099 278.73069 
M 95.080298 271.950666 
L 97.790317 266.608022 
L 100.500337 262.908313 
L 103.210357 260.981406 
L 105.920377 260.733166 
L 108.630397 261.217614 
L 111.340417 261.255805 
L 114.050437 260.526791 
L 116.760456 259.470479 
L 119.470476 258.69238 
L 122.180496 258.887277 
L 124.890516 260.522832 
L 127.600536 263.763322 
L 130.310556 268.549374 
L 133.020575 274.843432 
M 143.860655 280.460536 
L 146.570675 278.772148 
L 149.280694 281.59434 
M 176.380893 275.55081 
L 179.090913 272.961831 
L 181.800933 271.527814 
L 184.510952 270.328165 
L 187.220972 268.676928 
L 192.641012 264.558378 
L 195.351032 263.404597 
L 198.061052 263.418627 
L 200.771071 264.460075 
L 203.481091 266.33133 
L 206.191111 269.09446 
L 208.901131 273.072616 
M 244.131389 272.201891 
L 246.841409 267.479983 
L 249.551429 264.052935 
L 252.261448 261.222397 
L 257.681488 256.18504 
L 263.101528 251.095025 
L 265.811548 248.351173 
L 268.521567 245.343229 
L 276.651627 235.627289 
L 279.361647 232.775786 
L 282.071667 226.420707 
L 284.781687 230.150783 
L 287.491706 232.581546 
L 290.201726 233.741463 
L 292.911746 233.833049 
L 295.621766 232.992167 
L 298.331786 231.39796 
L 301.041806 229.608435 
L 303.751825 228.306168 
L 306.461845 228.060724 
L 309.171865 229.493156 
L 311.881885 232.374428 
L 314.591905 235.58281 
L 317.301925 238.412838 
L 320.011944 240.755861 
L 322.721964 242.655137 
L 325.431984 243.981759 
L 328.142004 244.682554 
L 333.562044 245.314521 
L 336.272063 246.01668 
L 341.692103 248.279879 
L 344.402123 249.542342 
L 347.112143 251.463782 
L 349.822163 253.821085 
L 352.532183 255.835239 
L 355.242202 257.063716 
L 357.952222 257.257755 
L 360.662242 256.356824 
L 361 256.124604 
L 361 256.124604 
" clip-path="url(#pb2660c5b30)" style="fill: none; stroke-dasharray: 5.55,2.4; stroke-dashoffset: 0; stroke: #000000; stroke-width: 1.5"/>
   </g>
   <g id="line2d_21">
    <path d="M 108.630397 283.501176 
L 108.630397 227.052549 
" clip-path="url(#pb2660c5b30)" style="fill: none; stroke: #000000; stroke-width: 0.8; stroke-linecap: square"/>
   </g>
   <g id="patch_19">
    <path d="M 54.43 282.394341 
L 54.43 227.052549 
" style="fill: none; stroke: #000000; stroke-width: 0.8; stroke-linejoin: miter; stroke-linecap: square"/>
   </g>
   <g id="text_11">
    <!-- alpha-beta -->
    <g transform="translate(135.923958 221.052549) scale(0.12 -0.12)">
     <defs>
      <path id="DejaVuSans-70" d="M 1159 525 
L 1159 -1331 
L 581 -1331 
L 581 3500 
L 1159 3500 
L 1159 2969 
Q 1341 3281 1617 3432 
Q 1894 3584 2278 3584 
Q 2916 3584 3314 3078 
Q 3713 2572 3713 1747 
Q 3713 922 3314 415 
Q 2916 -91 2278 -91 
Q 1894 -91 1617 61 
Q 1341 213 1159 525 
z
M 3116 1747 
Q 3116 2381 2855 2742 
Q 2594 3103 2138 3103 
Q 1681 3103 1420 2742 
Q 1159 2381 1159 1747 
Q 1159 1113 1420 752 
Q 1681 391 2138 391 
Q 2594 391 2855 752 
Q 3116 1113 3116 1747 
z
" transform="scale(0.015625)"/>
      <path id="DejaVuSans-2d" d="M 313 2009 
L 1997 2009 
L 1997 1497 
L 313 1497 
L 313 2009 
z
" transform="scale(0.015625)"/>
      <path id="DejaVuSans-62" d="M 3116 1747 
Q 3116 2381 2855 2742 
Q 2594 3103 2138 3103 
Q 1681 3103 1420 2742 
Q 1159 2381 1159 1747 
Q 1159 1113 1420 752 
Q 1681 391 2138 391 
Q 2594 391 2855 752 
Q 3116 1113 3116 1747 
z
M 1159 2969 
Q 1341 3281 1617 3432 
Q 1894 3584 2278 3584 
Q 2916 3584 3314 3078 
Q 3713 2572 3713 1747 
Q 3713 922 3314 415 
Q 2916 -91 2278 -91 
Q 1894 -91 1617 61 
Q 1341 213 1159 525 
L 1159 0 
L 581 0 
L 581 4863 
L 1159 4863 
L 1159 2969 
z
" transform="scale(0.015625)"/>
     </defs>
     <use xlink:href="#DejaVuSans-61"/>
     <use xlink:href="#DejaVuSans-6c" transform="translate(61.279297 0)"/>
     <use xlink:href="#DejaVuSans-70" transform="translate(89.0625 0)"/>
     <use xlink:href="#DejaVuSans-68" transform="translate(152.539062 0)"/>
     <use xlink:href="#DejaVuSans-61" transform="translate(215.917969 0)"/>
     <use xlink:href="#DejaVuSans-2d" transform="translate(277.197266 0)"/>
     <use xlink:href="#DejaVuSans-62" transform="translate(313.28125 0)"/>
     <use xlink:href="#DejaVuSans-65" transform="translate(376.757812 0)"/>
     <use xlink:href="#DejaVuSans-74" transform="translate(438.28125 0)"/>
     <use xlink:href="#DejaVuSans-61" transform="translate(477.490234 0)"/>
    </g>
   </g>
  </g>
  <g id="axes_8">
   <g id="patch_20">
    <path d="M 292.871667 283.501176 
L 315.635833 283.501176 
L 315.635833 227.052549 
L 292.871667 227.052549 
z
" style="fill: #ffffff"/>
   </g>
   <g id="patch_21">
    <path d="M 293.906402 282.394341 
L 304.25375 282.394341 
L 304.25375 276.733185 
L 293.906402 276.733185 
z
" clip-path="url(#p7d153a9086)" style="fill: #ff0000"/>
   </g>
   <g id="patch_22">
    <path d="M 304.25375 282.394341 
L 314.601098 282.394341 
L 314.601098 281.787745 
L 304.25375 281.787745 
z
" clip-path="url(#p7d153a9086)" style="fill: #0000ff"/>
   </g>
   <g id="matplotlib.axis_15"/>
   <g id="matplotlib.axis_16">
    <g id="ytick_15"/>
    <g id="ytick_16"/>
   </g>
  </g>
  <g id="axes_9">
   <g id="patch_23">
    <path d="M 326.435833 283.501176 
L 349.2 283.501176 
L 349.2 227.052549 
L 326.435833 227.052549 
z
" style="fill: #ffffff"/>
   </g>
   <g id="patch_24">
    <path d="M 327.470568 282.394341 
L 337.817917 282.394341 
L 337.817917 270.156794 
L 327.470568 270.156794 
z
" clip-path="url(#p666428418d)" style="fill: #ff0000"/>
   </g>
   <g id="patch_25">
    <path d="M 337.817917 282.394341 
L 348.165265 282.394341 
L 348.165265 275.818866 
L 337.817917 275.818866 
z
" clip-path="url(#p666428418d)" style="fill: #0000ff"/>
   </g>
   <g id="matplotlib.axis_17"/>
   <g id="matplotlib.axis_18">
    <g id="ytick_17"/>
    <g id="ytick_18"/>
   </g>
  </g>
  <g id="axes_10">
   <g id="patch_26">
    <path d="M 54.43 371.707451 
L 282.071667 371.707451 
L 282.071667 315.258824 
L 54.43 315.258824 
z
" style="fill: #ffffff"/>
   </g>
   <g id="matplotlib.axis_19">
    <g id="xtick_4"/>
   </g>
   <g id="matplotlib.axis_20">
    <g id="ytick_19">
     <g id="line2d_22">
      <g>
       <use xlink:href="#m2286ae7079" x="54.43" y="370.600615" style="stroke: #000000; stroke-width: 0.8"/>
      </g>
     </g>
     <g id="text_12">
      <!-- 0.0 -->
      <g transform="translate(31.526875 374.399834) scale(0.1 -0.1)">
       <use xlink:href="#DejaVuSans-30"/>
       <use xlink:href="#DejaVuSans-2e" transform="translate(63.623047 0)"/>
       <use xlink:href="#DejaVuSans-30" transform="translate(95.410156 0)"/>
      </g>
     </g>
    </g>
    <g id="ytick_20">
     <g id="line2d_23">
      <g>
       <use xlink:href="#m2286ae7079" x="54.43" y="315.258824" style="stroke: #000000; stroke-width: 0.8"/>
      </g>
     </g>
     <g id="text_13">
      <!-- 0.5 -->
      <g transform="translate(31.526875 319.058042) scale(0.1 -0.1)">
       <use xlink:href="#DejaVuSans-30"/>
       <use xlink:href="#DejaVuSans-2e" transform="translate(63.623047 0)"/>
       <use xlink:href="#DejaVuSans-35" transform="translate(95.410156 0)"/>
      </g>
     </g>
    </g>
   </g>
   <g id="line2d_24">
    <path d="M 54.43 370.600615 
L 73.400139 370.600615 
L 76.110159 369.653321 
L 78.820179 365.751164 
L 81.530198 363.325547 
L 89.660258 356.596016 
L 97.790317 350.159287 
L 100.500337 348.230783 
L 103.210357 346.567815 
L 105.920377 345.258062 
L 108.630397 344.368165 
L 111.340417 343.931132 
L 114.050437 343.91481 
L 116.760456 344.236942 
L 119.470476 344.830997 
L 122.180496 345.654833 
L 124.890516 346.676411 
L 130.310556 349.095053 
L 135.730595 351.777264 
L 141.150635 354.653131 
L 146.570675 357.749318 
L 151.990714 361.162067 
L 154.700734 363.14802 
L 157.410754 365.804737 
L 160.120774 370.600615 
L 219.74121 370.600615 
L 222.45123 364.371662 
L 225.16125 360.883896 
L 227.87127 358.009694 
L 230.58129 355.469602 
L 233.29131 353.221291 
L 236.001329 351.266472 
L 238.711349 349.606855 
L 241.421369 348.221601 
L 244.131389 347.053081 
L 254.971468 342.983517 
L 257.681488 341.760999 
L 260.391508 340.362139 
L 263.101528 338.771297 
L 268.521567 335.36251 
L 271.231587 334.072096 
L 273.941607 333.547111 
L 276.651627 334.027005 
L 279.361647 335.452737 
L 282.071667 344.169986 
L 284.781687 345.842834 
L 287.491706 347.275967 
L 298.331786 352.471574 
L 301.041806 354.030565 
L 303.751825 355.798858 
L 309.171865 359.856168 
L 311.881885 361.963578 
L 314.591905 363.907017 
L 317.301925 365.427633 
L 320.011944 366.234721 
L 322.721964 366.204411 
L 325.431984 365.472802 
L 328.142004 364.24899 
L 330.852024 362.574873 
L 333.562044 360.33771 
L 336.272063 357.386057 
L 338.982083 353.689325 
L 341.692103 349.378982 
L 347.112143 340.275299 
L 349.822163 336.336204 
L 352.532183 333.208472 
L 355.242202 330.939407 
L 357.952222 329.412102 
L 361 328.348152 
L 361 328.348152 
" clip-path="url(#p4b5e714d42)" style="fill: none; stroke: #ff0000; stroke-width: 1.5; stroke-linecap: square"/>
   </g>
   <g id="line2d_25">
    <path d="M 54.43 370.600615 
L 67.980099 370.600318 
L 70.690119 369.230922 
L 73.400139 366.987042 
L 76.110159 366.476905 
L 78.820179 366.751997 
L 81.530198 367.989209 
L 84.240218 370.600615 
L 149.280694 370.600615 
L 151.990714 366.391624 
L 154.700734 363.693151 
L 157.410754 361.692687 
L 160.120774 359.991653 
L 162.830794 358.55765 
L 165.540813 357.618152 
L 168.250833 357.459155 
L 170.960853 358.418424 
L 173.670873 360.777839 
L 176.380893 365.090082 
L 179.090913 370.600615 
L 198.061052 370.600214 
L 200.771071 366.401655 
L 203.481091 363.597174 
L 206.191111 361.587395 
L 208.901131 359.918122 
L 214.321171 357.094766 
L 219.74121 354.597273 
L 222.45123 353.41754 
L 225.16125 352.368011 
L 227.87127 351.511907 
L 230.58129 350.877687 
L 233.29131 350.462526 
L 236.001329 350.24358 
L 238.711349 350.182728 
L 244.131389 350.422994 
L 254.971468 351.273147 
L 260.391508 351.688826 
L 263.101528 352.089601 
L 265.811548 352.679183 
L 268.521567 353.482035 
L 271.231587 354.567142 
L 273.941607 356.077314 
L 276.651627 358.091234 
L 279.361647 360.58633 
L 282.071667 358.19263 
L 287.491706 360.739544 
L 290.201726 362.165691 
L 292.911746 363.819784 
L 295.621766 365.996027 
L 298.331786 370.600615 
L 360.662242 370.600615 
L 361 370.336155 
L 361 370.336155 
" clip-path="url(#p4b5e714d42)" style="fill: none; stroke: #0000ff; stroke-width: 1.5; stroke-linecap: square"/>
   </g>
   <g id="line2d_26">
    <path d="M 54.43 370.600615 
L 282.071667 370.600615 
" clip-path="url(#p4b5e714d42)" style="fill: none; stroke: #000000; stroke-width: 0.8; stroke-linecap: square"/>
   </g>
   <g id="line2d_27">
    <path d="M 92.370278 362.395328 
L 95.080298 357.948873 
L 97.790317 353.924094 
L 100.500337 350.16762 
L 103.210357 346.764709 
L 105.920377 343.853673 
L 108.630397 341.577147 
L 111.340417 340.022419 
L 114.050437 339.195694 
L 116.760456 339.025333 
L 119.470476 339.426996 
L 122.180496 340.337858 
L 124.890516 341.700382 
L 127.600536 343.4364 
L 130.310556 345.469119 
L 133.020575 347.744038 
L 135.730595 350.227706 
L 141.150635 355.646244 
L 149.280694 363.985466 
L 151.990714 367.20971 
M 165.540813 367.608156 
L 168.250833 364.84522 
L 170.960853 363.575494 
L 173.670873 363.670262 
L 176.380893 365.327057 
M 217.03119 363.33129 
L 219.74121 359.480514 
L 222.45123 356.154346 
L 225.16125 353.138039 
L 227.87127 350.395404 
L 230.58129 347.912568 
L 233.29131 345.69311 
L 236.001329 343.739476 
L 238.711349 342.043509 
L 241.421369 340.592042 
L 244.131389 339.35435 
L 254.971468 334.951245 
L 257.681488 333.568225 
L 263.101528 330.382665 
L 265.811548 328.767989 
L 268.521567 327.464173 
L 271.231587 326.893587 
L 273.941607 327.487951 
L 276.651627 329.407544 
L 279.361647 332.402804 
L 282.071667 338.923515 
L 284.781687 341.050907 
L 290.201726 344.798325 
L 292.911746 346.647746 
L 295.621766 348.64866 
L 298.331786 350.894665 
L 301.041806 353.431763 
L 303.751825 356.270298 
L 306.461845 359.384897 
L 309.171865 362.809718 
L 311.881885 366.926511 
M 328.142004 369.378076 
L 330.852024 365.026651 
L 333.562044 361.40058 
L 336.272063 357.251023 
L 338.982083 352.503475 
L 347.112143 336.811269 
L 349.822163 332.276925 
L 352.532183 328.562952 
L 355.242202 325.709541 
L 357.952222 323.605756 
L 361 321.940178 
L 361 321.940178 
" clip-path="url(#p4b5e714d42)" style="fill: none; stroke-dasharray: 5.55,2.4; stroke-dashoffset: 0; stroke: #000000; stroke-width: 1.5"/>
   </g>
   <g id="line2d_28">
    <path d="M 108.630397 371.707451 
L 108.630397 315.258824 
" clip-path="url(#p4b5e714d42)" style="fill: none; stroke: #000000; stroke-width: 0.8; stroke-linecap: square"/>
   </g>
   <g id="patch_27">
    <path d="M 54.43 370.600615 
L 54.43 315.258824 
" style="fill: none; stroke: #000000; stroke-width: 0.8; stroke-linejoin: miter; stroke-linecap: square"/>
   </g>
   <g id="text_14">
    <!-- alpha -->
    <g transform="translate(151.618646 309.258824) scale(0.12 -0.12)">
     <use xlink:href="#DejaVuSans-61"/>
     <use xlink:href="#DejaVuSans-6c" transform="translate(61.279297 0)"/>
     <use xlink:href="#DejaVuSans-70" transform="translate(89.0625 0)"/>
     <use xlink:href="#DejaVuSans-68" transform="translate(152.539062 0)"/>
     <use xlink:href="#DejaVuSans-61" transform="translate(215.917969 0)"/>
    </g>
   </g>
  </g>
  <g id="axes_11">
   <g id="patch_28">
    <path d="M 292.871667 371.707451 
L 315.635833 371.707451 
L 315.635833 315.258824 
L 292.871667 315.258824 
z
" style="fill: #ffffff"/>
   </g>
   <g id="patch_29">
    <path d="M 293.906402 370.600615 
L 304.25375 370.600615 
L 304.25375 361.843226 
L 293.906402 361.843226 
z
" clip-path="url(#p204c12555d)" style="fill: #ff0000"/>
   </g>
   <g id="patch_30">
    <path d="M 304.25375 370.600615 
L 314.601098 370.600615 
L 314.601098 369.82225 
L 304.25375 369.82225 
z
" clip-path="url(#p204c12555d)" style="fill: #0000ff"/>
   </g>
   <g id="matplotlib.axis_21"/>
   <g id="matplotlib.axis_22">
    <g id="ytick_21"/>
    <g id="ytick_22"/>
   </g>
  </g>
  <g id="axes_12">
   <g id="patch_31">
    <path d="M 326.435833 371.707451 
L 349.2 371.707451 
L 349.2 315.258824 
L 326.435833 315.258824 
z
" style="fill: #ffffff"/>
   </g>
   <g id="patch_32">
    <path d="M 327.470568 370.600615 
L 337.817917 370.600615 
L 337.817917 356.318979 
L 327.470568 356.318979 
z
" clip-path="url(#p956d1e6a90)" style="fill: #ff0000"/>
   </g>
   <g id="patch_33">
    <path d="M 337.817917 370.600615 
L 348.165265 370.600615 
L 348.165265 361.498725 
L 337.817917 361.498725 
z
" clip-path="url(#p956d1e6a90)" style="fill: #0000ff"/>
   </g>
   <g id="matplotlib.axis_23"/>
   <g id="matplotlib.axis_24">
    <g id="ytick_23"/>
    <g id="ytick_24"/>
   </g>
  </g>
  <g id="axes_13">
   <g id="patch_34">
    <path d="M 54.43 459.913725 
L 282.071667 459.913725 
L 282.071667 403.465098 
L 54.43 403.465098 
z
" style="fill: #ffffff"/>
   </g>
   <g id="matplotlib.axis_25">
    <g id="xtick_5"/>
   </g>
   <g id="matplotlib.axis_26">
    <g id="ytick_25">
     <g id="line2d_29">
      <g>
       <use xlink:href="#m2286ae7079" x="54.43" y="458.80689" style="stroke: #000000; stroke-width: 0.8"/>
      </g>
     </g>
     <g id="text_15">
      <!-- 0.0 -->
      <g transform="translate(31.526875 462.606108) scale(0.1 -0.1)">
       <use xlink:href="#DejaVuSans-30"/>
       <use xlink:href="#DejaVuSans-2e" transform="translate(63.623047 0)"/>
       <use xlink:href="#DejaVuSans-30" transform="translate(95.410156 0)"/>
      </g>
     </g>
    </g>
    <g id="ytick_26">
     <g id="line2d_30">
      <g>
       <use xlink:href="#m2286ae7079" x="54.43" y="403.465098" style="stroke: #000000; stroke-width: 0.8"/>
      </g>
     </g>
     <g id="text_16">
      <!-- 0.5 -->
      <g transform="translate(31.526875 407.264317) scale(0.1 -0.1)">
       <use xlink:href="#DejaVuSans-30"/>
       <use xlink:href="#DejaVuSans-2e" transform="translate(63.623047 0)"/>
       <use xlink:href="#DejaVuSans-35" transform="translate(95.410156 0)"/>
      </g>
     </g>
    </g>
   </g>
   <g id="line2d_31">
    <path d="M 54.43 458.80689 
L 81.530198 458.80689 
L 84.240218 453.054788 
L 89.660258 446.790831 
L 92.370278 443.229323 
L 95.080298 439.313875 
L 100.500337 431.06859 
L 103.210357 427.548049 
L 105.920377 425.370698 
L 108.630397 425.175152 
L 111.340417 426.913777 
L 114.050437 429.897298 
L 119.470476 436.82639 
L 127.600536 446.575681 
L 130.310556 450.542598 
L 133.020575 458.80689 
L 181.800933 458.80689 
L 184.510952 456.444282 
L 187.220972 448.710536 
L 189.930992 443.417637 
L 192.641012 439.110764 
L 195.351032 435.956038 
L 198.061052 434.099908 
L 200.771071 433.699635 
L 203.481091 434.957061 
L 206.191111 437.688766 
L 211.611151 444.656946 
L 214.321171 447.737023 
L 217.03119 450.208962 
L 219.74121 452.018804 
L 222.45123 453.574518 
L 225.16125 455.951427 
L 227.87127 458.806539 
L 236.001329 458.806887 
L 238.711349 454.592018 
L 241.421369 449.81163 
L 244.131389 445.660029 
L 246.841409 441.974056 
L 249.551429 438.884246 
L 252.261448 436.273642 
L 254.971468 433.966671 
L 257.681488 431.943217 
L 260.391508 430.129226 
L 268.521567 425.104685 
L 271.231587 422.822001 
L 273.941607 419.928893 
L 279.361647 412.90986 
L 282.071667 416.535135 
L 284.781687 419.58501 
L 287.491706 421.199565 
L 290.201726 421.514945 
L 292.911746 420.820383 
L 295.621766 419.057154 
L 298.331786 416.220317 
L 301.041806 412.783231 
L 303.751825 409.571382 
L 306.461845 407.352443 
L 309.171865 407.214686 
L 311.881885 409.415103 
L 317.301925 415.827645 
L 320.011944 418.35577 
L 322.721964 420.249803 
L 325.431984 421.477552 
L 328.142004 421.947783 
L 330.852024 421.809727 
L 333.562044 421.478596 
L 336.272063 421.415542 
L 338.982083 421.756937 
L 341.692103 422.380829 
L 344.402123 423.720374 
L 347.112143 426.466288 
L 349.822163 429.916804 
L 352.532183 432.689558 
L 355.242202 434.394555 
L 357.952222 435.034669 
L 361 434.498558 
L 361 434.498558 
" clip-path="url(#p08b28df764)" style="fill: none; stroke: #ff0000; stroke-width: 1.5; stroke-linecap: square"/>
   </g>
   <g id="line2d_32">
    <path d="M 54.43 451.325787 
L 57.14002 453.820026 
L 59.85004 458.80689 
L 105.920377 458.80689 
L 108.630397 452.32848 
L 111.340417 449.596442 
L 114.050437 448.258277 
L 116.760456 447.619684 
L 119.470476 447.26711 
L 127.600536 446.828102 
L 130.310556 446.570716 
L 133.020575 446.622413 
L 135.730595 447.128562 
L 138.440615 448.585732 
L 141.150635 451.429536 
L 143.860655 458.80689 
L 162.830794 458.806534 
L 165.540813 454.205963 
L 168.250833 451.089453 
L 170.960853 448.724481 
L 173.670873 446.809377 
L 176.380893 445.155369 
L 179.090913 443.776125 
L 181.800933 442.887843 
L 184.510952 442.681593 
L 187.220972 443.117129 
L 189.930992 444.216569 
L 198.061052 448.554529 
L 200.771071 449.621861 
L 203.481091 449.992632 
L 206.191111 449.93881 
L 208.901131 450.363278 
L 211.611151 451.800346 
L 214.321171 454.09174 
L 217.03119 458.806753 
L 238.711349 458.80689 
L 241.421369 454.279077 
L 244.131389 452.88295 
L 246.841409 453.109042 
L 249.551429 455.233194 
L 252.261448 458.806631 
L 279.361647 458.80689 
L 282.071667 445.040066 
L 284.781687 445.026382 
L 287.491706 444.600723 
L 298.331786 442.410315 
L 303.751825 441.46427 
L 309.171865 440.244254 
L 311.881885 439.825366 
L 314.591905 439.061319 
L 317.301925 437.693943 
L 320.011944 435.969538 
L 322.721964 434.085007 
L 325.431984 431.985383 
L 328.142004 429.637387 
L 333.562044 424.580631 
L 336.272063 422.315518 
L 338.982083 420.748687 
L 341.692103 420.305221 
L 344.402123 421.936466 
L 347.112143 426.45265 
L 357.952222 451.662858 
L 360.662242 458.80689 
L 361 458.80689 
L 361 458.80689 
" clip-path="url(#p08b28df764)" style="fill: none; stroke: #0000ff; stroke-width: 1.5; stroke-linecap: square"/>
   </g>
   <g id="line2d_33">
    <path d="M 54.43 458.80689 
L 282.071667 458.80689 
" clip-path="url(#p08b28df764)" style="fill: none; stroke: #000000; stroke-width: 0.8; stroke-linecap: square"/>
   </g>
   <g id="line2d_34">
    <path d="M 54.43 437.302142 
L 57.14002 438.596095 
L 59.85004 440.385883 
L 62.56006 442.881527 
L 65.270079 446.352176 
L 67.980099 451.588117 
M 89.660258 452.427093 
L 92.370278 445.803882 
L 95.080298 440.117497 
L 97.790317 434.767016 
L 100.500337 430.170158 
L 103.210357 427.033924 
L 105.920377 425.804151 
L 108.630397 426.34237 
L 111.340417 427.892065 
L 114.050437 429.687127 
L 116.760456 431.279501 
L 119.470476 432.637165 
L 122.180496 434.211246 
L 124.890516 436.40257 
L 127.600536 439.504059 
L 130.310556 443.816376 
L 133.020575 449.635096 
M 179.090913 454.199838 
L 181.800933 451.532946 
L 184.510952 449.322065 
L 187.220972 446.500619 
L 192.641012 440.085055 
L 195.351032 437.540779 
L 198.061052 436.0097 
L 200.771071 435.664393 
L 203.481091 436.516574 
L 206.191111 438.48186 
L 208.901131 441.290556 
L 211.611151 444.935383 
L 214.321171 449.850313 
M 246.841409 449.598538 
L 249.551429 445.147983 
L 252.261448 441.836951 
L 254.971468 438.861045 
L 260.391508 433.470642 
L 263.101528 430.989509 
L 268.521567 426.55905 
L 271.231587 423.930878 
L 273.941607 420.723669 
L 276.651627 416.884925 
L 279.361647 412.841959 
L 282.071667 409.715596 
L 284.781687 412.645906 
L 287.491706 414.224429 
L 290.201726 414.673156 
L 292.911746 414.365793 
L 295.621766 413.255698 
L 298.331786 411.203826 
L 303.751825 405.912275 
L 306.461845 404.041794 
L 309.171865 404.049627 
L 311.881885 406.22879 
L 314.591905 409.136568 
L 317.301925 411.467263 
L 320.011944 412.906257 
L 322.721964 413.572169 
L 325.431984 413.440849 
L 328.142004 412.467271 
L 330.852024 410.922264 
L 333.562044 409.246079 
L 336.272063 407.936637 
L 338.982083 407.249098 
L 341.692103 407.216047 
L 344.402123 408.71692 
L 347.112143 413.113076 
L 352.532183 426.337368 
L 355.242202 432.31203 
L 357.952222 436.990835 
L 360.662242 439.431511 
L 361 439.435707 
L 361 439.435707 
" clip-path="url(#p08b28df764)" style="fill: none; stroke-dasharray: 5.55,2.4; stroke-dashoffset: 0; stroke: #000000; stroke-width: 1.5"/>
   </g>
   <g id="line2d_35">
    <path d="M 108.630397 459.913725 
L 108.630397 403.465098 
" clip-path="url(#p08b28df764)" style="fill: none; stroke: #000000; stroke-width: 0.8; stroke-linecap: square"/>
   </g>
   <g id="patch_35">
    <path d="M 54.43 458.80689 
L 54.43 403.465098 
" style="fill: none; stroke: #000000; stroke-width: 0.8; stroke-linejoin: miter; stroke-linecap: square"/>
   </g>
   <g id="text_17">
    <!-- beta -->
    <g transform="translate(154.720833 397.465098) scale(0.12 -0.12)">
     <use xlink:href="#DejaVuSans-62"/>
     <use xlink:href="#DejaVuSans-65" transform="translate(63.476562 0)"/>
     <use xlink:href="#DejaVuSans-74" transform="translate(125 0)"/>
     <use xlink:href="#DejaVuSans-61" transform="translate(164.208984 0)"/>
    </g>
   </g>
  </g>
  <g id="axes_14">
   <g id="patch_36">
    <path d="M 292.871667 459.913725 
L 315.635833 459.913725 
L 315.635833 403.465098 
L 292.871667 403.465098 
z
" style="fill: #ffffff"/>
   </g>
   <g id="patch_37">
    <path d="M 293.906402 458.80689 
L 304.25375 458.80689 
L 304.25375 449.919725 
L 293.906402 449.919725 
z
" clip-path="url(#p3cf4710b74)" style="fill: #ff0000"/>
   </g>
   <g id="patch_38">
    <path d="M 304.25375 458.80689 
L 314.601098 458.80689 
L 314.601098 458.183491 
L 304.25375 458.183491 
z
" clip-path="url(#p3cf4710b74)" style="fill: #0000ff"/>
   </g>
   <g id="matplotlib.axis_27"/>
   <g id="matplotlib.axis_28">
    <g id="ytick_27"/>
    <g id="ytick_28"/>
   </g>
  </g>
  <g id="axes_15">
   <g id="patch_39">
    <path d="M 326.435833 459.913725 
L 349.2 459.913725 
L 349.2 403.465098 
L 326.435833 403.465098 
z
" style="fill: #ffffff"/>
   </g>
   <g id="patch_40">
    <path d="M 327.470568 458.80689 
L 337.817917 458.80689 
L 337.817917 445.475401 
L 327.470568 445.475401 
z
" clip-path="url(#p879e3f053e)" style="fill: #ff0000"/>
   </g>
   <g id="patch_41">
    <path d="M 337.817917 458.80689 
L 348.165265 458.80689 
L 348.165265 453.100963 
L 337.817917 453.100963 
z
" clip-path="url(#p879e3f053e)" style="fill: #0000ff"/>
   </g>
   <g id="matplotlib.axis_29"/>
   <g id="matplotlib.axis_30">
    <g id="ytick_29"/>
    <g id="ytick_30"/>
   </g>
  </g>
  <g id="axes_16">
   <g id="patch_42">
    <path d="M 54.43 548.12 
L 282.071667 548.12 
L 282.071667 491.671373 
L 54.43 491.671373 
z
" style="fill: #ffffff"/>
   </g>
   <g id="matplotlib.axis_31">
    <g id="xtick_6">
     <g id="text_18">
      <!-- Cue -->
      <g transform="translate(98.893678 562.718437) scale(0.1 -0.1)">
       <defs>
        <path id="DejaVuSans-43" d="M 4122 4306 
L 4122 3641 
Q 3803 3938 3442 4084 
Q 3081 4231 2675 4231 
Q 1875 4231 1450 3742 
Q 1025 3253 1025 2328 
Q 1025 1406 1450 917 
Q 1875 428 2675 428 
Q 3081 428 3442 575 
Q 3803 722 4122 1019 
L 4122 359 
Q 3791 134 3420 21 
Q 3050 -91 2638 -91 
Q 1578 -91 968 557 
Q 359 1206 359 2328 
Q 359 3453 968 4101 
Q 1578 4750 2638 4750 
Q 3056 4750 3426 4639 
Q 3797 4528 4122 4306 
z
" transform="scale(0.015625)"/>
        <path id="DejaVuSans-75" d="M 544 1381 
L 544 3500 
L 1119 3500 
L 1119 1403 
Q 1119 906 1312 657 
Q 1506 409 1894 409 
Q 2359 409 2629 706 
Q 2900 1003 2900 1516 
L 2900 3500 
L 3475 3500 
L 3475 0 
L 2900 0 
L 2900 538 
Q 2691 219 2414 64 
Q 2138 -91 1772 -91 
Q 1169 -91 856 284 
Q 544 659 544 1381 
z
M 1991 3584 
L 1991 3584 
z
" transform="scale(0.015625)"/>
       </defs>
       <use xlink:href="#DejaVuSans-43"/>
       <use xlink:href="#DejaVuSans-75" transform="translate(69.824219 0)"/>
       <use xlink:href="#DejaVuSans-65" transform="translate(133.203125 0)"/>
      </g>
     </g>
    </g>
   </g>
   <g id="matplotlib.axis_32">
    <g id="ytick_31">
     <g id="line2d_36">
      <g>
       <use xlink:href="#m2286ae7079" x="54.43" y="547.013164" style="stroke: #000000; stroke-width: 0.8"/>
      </g>
     </g>
     <g id="text_19">
      <!-- 0.0 -->
      <g transform="translate(31.526875 550.812383) scale(0.1 -0.1)">
       <use xlink:href="#DejaVuSans-30"/>
       <use xlink:href="#DejaVuSans-2e" transform="translate(63.623047 0)"/>
       <use xlink:href="#DejaVuSans-30" transform="translate(95.410156 0)"/>
      </g>
     </g>
    </g>
    <g id="ytick_32">
     <g id="line2d_37">
      <g>
       <use xlink:href="#m2286ae7079" x="54.43" y="491.671373" style="stroke: #000000; stroke-width: 0.8"/>
      </g>
     </g>
     <g id="text_20">
      <!-- 0.5 -->
      <g transform="translate(31.526875 495.470591) scale(0.1 -0.1)">
       <use xlink:href="#DejaVuSans-30"/>
       <use xlink:href="#DejaVuSans-2e" transform="translate(63.623047 0)"/>
       <use xlink:href="#DejaVuSans-35" transform="translate(95.410156 0)"/>
      </g>
     </g>
    </g>
   </g>
   <g id="line2d_38">
    <path d="M 54.43 547.013164 
L 62.56006 547.013164 
L 65.270079 539.978864 
L 67.980099 538.736975 
L 70.690119 538.230298 
L 73.400139 538.016086 
L 76.110159 547.013164 
L 86.950238 547.013164 
L 89.660258 540.270899 
L 92.370278 537.395146 
L 95.080298 535.951351 
L 97.790317 535.452255 
L 100.500337 536.588986 
L 103.210357 538.825651 
L 105.920377 547.013164 
L 135.730595 547.013164 
L 138.440615 538.109964 
L 141.150635 531.670299 
L 143.860655 529.749 
L 146.570675 531.837229 
L 149.280694 537.455705 
L 151.990714 547.013164 
L 168.250833 547.013164 
L 170.960853 537.561298 
L 173.670873 531.804492 
L 176.380893 533.433545 
L 179.090913 547.013155 
L 189.930992 547.012816 
L 192.641012 531.23255 
L 195.351032 519.274948 
L 198.061052 511.843255 
L 200.771071 515.505535 
L 203.481091 528.977857 
L 206.191111 547.013164 
L 208.901131 547.013127 
L 211.611151 543.74107 
L 214.321171 547.013164 
L 222.45123 547.013164 
L 225.16125 541.626139 
L 230.58129 534.371186 
L 233.29131 531.063621 
L 236.001329 528.031488 
L 238.711349 523.650712 
L 241.421369 520.353285 
L 244.131389 519.768102 
L 246.841409 521.561477 
L 249.551429 523.216777 
L 252.261448 522.24492 
L 254.971468 523.563212 
L 257.681488 526.277466 
L 260.391508 529.949309 
L 263.101528 529.265192 
L 265.811548 526.165039 
L 268.521567 525.74613 
L 271.231587 529.415106 
L 273.941607 536.094395 
L 276.651627 543.309801 
L 279.361647 547.013164 
L 292.911746 547.012965 
L 295.621766 543.027282 
L 298.331786 538.048982 
L 301.041806 535.155265 
L 303.751825 537.675807 
L 306.461845 538.476415 
L 309.171865 537.934322 
L 311.881885 547.013164 
L 314.591905 547.013164 
L 317.301925 538.53794 
L 320.011944 535.027425 
L 322.721964 534.471557 
L 325.431984 535.160088 
L 328.142004 536.360909 
L 330.852024 539.429298 
L 333.562044 543.440177 
L 336.272063 547.013164 
L 341.692103 547.013164 
L 344.402123 544.95764 
L 347.112143 545.022595 
L 349.822163 547.013164 
L 352.532183 547.013164 
L 355.242202 542.322874 
L 357.952222 540.473541 
L 361 543.796352 
L 361 543.796352 
" clip-path="url(#p97f80f74b9)" style="fill: none; stroke: #ff0000; stroke-width: 1.5; stroke-linecap: square"/>
   </g>
   <g id="line2d_39">
    <path d="M 54.43 547.013164 
L 81.530198 547.013164 
L 84.240218 539.323749 
L 86.950238 532.676324 
L 89.660258 529.70988 
L 92.370278 530.584632 
L 97.790317 531.546788 
L 100.500337 533.62139 
L 103.210357 538.618241 
L 105.920377 547.013164 
L 124.890516 547.013164 
L 127.600536 541.792788 
L 130.310556 536.880685 
L 133.020575 534.30939 
L 135.730595 535.598255 
L 138.440615 547.013164 
L 146.570675 547.013164 
L 149.280694 541.189369 
L 151.990714 537.144471 
L 154.700734 540.512075 
L 157.410754 547.013164 
L 162.830794 547.013164 
L 165.540813 542.708224 
L 168.250833 536.40169 
L 170.960853 534.539259 
L 173.670873 536.359783 
L 176.380893 541.992567 
L 179.090913 547.013164 
L 181.800933 544.053193 
L 184.510952 540.691984 
L 187.220972 541.512184 
L 189.930992 547.012944 
L 225.16125 547.013164 
L 227.87127 542.840333 
L 233.29131 533.97585 
L 236.001329 528.597049 
L 238.711349 526.648565 
L 241.421369 527.892238 
L 244.131389 529.695541 
L 246.841409 528.735041 
L 249.551429 528.50402 
L 252.261448 531.97457 
L 254.971468 540.362437 
L 257.681488 547.013164 
L 301.041806 547.013164 
L 303.751825 543.242258 
L 306.461845 538.037067 
L 309.171865 535.835842 
L 311.881885 537.648942 
L 314.591905 540.399151 
L 317.301925 543.545497 
L 320.011944 547.013164 
L 322.721964 543.912206 
L 325.431984 542.949672 
L 328.142004 541.424061 
L 330.852024 547.013164 
L 333.562044 542.722233 
L 338.982083 533.510706 
L 341.692103 530.198201 
L 344.402123 526.547204 
L 347.112143 527.672849 
L 349.822163 533.853048 
L 352.532183 538.750888 
L 355.242202 541.977022 
L 357.952222 547.013164 
L 361 547.013164 
L 361 547.013164 
" clip-path="url(#p97f80f74b9)" style="fill: none; stroke: #0000ff; stroke-width: 1.5; stroke-linecap: square"/>
   </g>
   <g id="line2d_40">
    <path d="M 54.43 547.013164 
L 282.071667 547.013164 
" clip-path="url(#p97f80f74b9)" style="fill: none; stroke: #000000; stroke-width: 0.8; stroke-linecap: square"/>
   </g>
   <g id="line2d_41">
    <path d="M 65.270079 538.450379 
L 67.980099 537.70763 
L 70.690119 539.858746 
L 73.400139 543.409448 
M 86.950238 543.763932 
L 89.660258 536.400477 
L 92.370278 536.165518 
L 97.790317 536.868688 
L 100.500337 540.037937 
M 135.730595 535.975578 
L 138.440615 528.144709 
L 141.150635 522.516103 
L 143.860655 524.631415 
L 146.570675 529.837262 
L 151.990714 530.332126 
L 154.700734 531.686106 
L 157.410754 535.320946 
L 160.120774 538.516934 
L 162.830794 541.251127 
L 165.540813 542.90233 
L 168.250833 539.686565 
L 170.960853 533.502851 
L 173.670873 530.208333 
L 176.380893 534.710173 
M 192.641012 536.503889 
L 195.351032 521.258122 
L 198.061052 511.972345 
L 200.771071 514.054616 
L 203.481091 526.349086 
L 206.191111 541.844172 
L 208.901131 544.216942 
L 211.611151 536.865401 
L 214.321171 537.236517 
M 227.87127 539.318652 
L 233.29131 525.505803 
L 236.001329 519.520234 
L 238.711349 514.548714 
L 241.421369 513.151301 
L 244.131389 514.55544 
L 246.841409 516.866997 
L 249.551429 518.799812 
L 252.261448 519.004213 
L 254.971468 521.346922 
L 257.681488 524.583431 
L 260.391508 529.548704 
L 263.101528 529.663189 
L 265.811548 524.324817 
L 268.521567 522.020696 
L 271.231587 528.235712 
L 273.941607 539.980301 
M 301.041806 538.820918 
L 303.751825 532.896975 
L 306.461845 525.422751 
L 309.171865 521.472137 
L 311.881885 522.397949 
L 314.591905 524.129374 
L 322.721964 535.113684 
L 325.431984 536.670234 
L 328.142004 532.766169 
L 330.852024 530.09794 
L 333.562044 535.111632 
M 338.982083 540.103225 
L 341.692103 532.977663 
L 344.402123 526.62772 
L 347.112143 525.213961 
L 349.822163 529.957264 
L 352.532183 528.993281 
L 355.242202 531.126969 
L 355.242202 531.126969 
" clip-path="url(#p97f80f74b9)" style="fill: none; stroke-dasharray: 5.55,2.4; stroke-dashoffset: 0; stroke: #000000; stroke-width: 1.5"/>
   </g>
   <g id="line2d_42">
    <path d="M 108.630397 548.12 
L 108.630397 491.671373 
" clip-path="url(#p97f80f74b9)" style="fill: none; stroke: #000000; stroke-width: 0.8; stroke-linecap: square"/>
   </g>
   <g id="patch_43">
    <path d="M 54.43 547.013164 
L 54.43 491.671373 
" style="fill: none; stroke: #000000; stroke-width: 0.8; stroke-linejoin: miter; stroke-linecap: square"/>
   </g>
   <g id="text_21">
    <!-- gamma -->
    <g transform="translate(145.399271 485.671373) scale(0.12 -0.12)">
     <defs>
      <path id="DejaVuSans-67" d="M 2906 1791 
Q 2906 2416 2648 2759 
Q 2391 3103 1925 3103 
Q 1463 3103 1205 2759 
Q 947 2416 947 1791 
Q 947 1169 1205 825 
Q 1463 481 1925 481 
Q 2391 481 2648 825 
Q 2906 1169 2906 1791 
z
M 3481 434 
Q 3481 -459 3084 -895 
Q 2688 -1331 1869 -1331 
Q 1566 -1331 1297 -1286 
Q 1028 -1241 775 -1147 
L 775 -588 
Q 1028 -725 1275 -790 
Q 1522 -856 1778 -856 
Q 2344 -856 2625 -561 
Q 2906 -266 2906 331 
L 2906 616 
Q 2728 306 2450 153 
Q 2172 0 1784 0 
Q 1141 0 747 490 
Q 353 981 353 1791 
Q 353 2603 747 3093 
Q 1141 3584 1784 3584 
Q 2172 3584 2450 3431 
Q 2728 3278 2906 2969 
L 2906 3500 
L 3481 3500 
L 3481 434 
z
" transform="scale(0.015625)"/>
      <path id="DejaVuSans-6d" d="M 3328 2828 
Q 3544 3216 3844 3400 
Q 4144 3584 4550 3584 
Q 5097 3584 5394 3201 
Q 5691 2819 5691 2113 
L 5691 0 
L 5113 0 
L 5113 2094 
Q 5113 2597 4934 2840 
Q 4756 3084 4391 3084 
Q 3944 3084 3684 2787 
Q 3425 2491 3425 1978 
L 3425 0 
L 2847 0 
L 2847 2094 
Q 2847 2600 2669 2842 
Q 2491 3084 2119 3084 
Q 1678 3084 1418 2786 
Q 1159 2488 1159 1978 
L 1159 0 
L 581 0 
L 581 3500 
L 1159 3500 
L 1159 2956 
Q 1356 3278 1631 3431 
Q 1906 3584 2284 3584 
Q 2666 3584 2933 3390 
Q 3200 3197 3328 2828 
z
" transform="scale(0.015625)"/>
     </defs>
     <use xlink:href="#DejaVuSans-67"/>
     <use xlink:href="#DejaVuSans-61" transform="translate(63.476562 0)"/>
     <use xlink:href="#DejaVuSans-6d" transform="translate(124.755859 0)"/>
     <use xlink:href="#DejaVuSans-6d" transform="translate(222.167969 0)"/>
     <use xlink:href="#DejaVuSans-61" transform="translate(319.580078 0)"/>
    </g>
   </g>
  </g>
  <g id="axes_17">
   <g id="patch_44">
    <path d="M 292.871667 548.12 
L 315.635833 548.12 
L 315.635833 491.671373 
L 292.871667 491.671373 
z
" style="fill: #ffffff"/>
   </g>
   <g id="patch_45">
    <path d="M 293.906402 547.013164 
L 304.25375 547.013164 
L 304.25375 542.478908 
L 293.906402 542.478908 
z
" clip-path="url(#p63bff98635)" style="fill: #ff0000"/>
   </g>
   <g id="patch_46">
    <path d="M 304.25375 547.013164 
L 314.601098 547.013164 
L 314.601098 541.566627 
L 304.25375 541.566627 
z
" clip-path="url(#p63bff98635)" style="fill: #0000ff"/>
   </g>
   <g id="matplotlib.axis_33"/>
   <g id="matplotlib.axis_34">
    <g id="ytick_33"/>
    <g id="ytick_34"/>
   </g>
  </g>
  <g id="axes_18">
   <g id="patch_47">
    <path d="M 326.435833 548.12 
L 349.2 548.12 
L 349.2 491.671373 
L 326.435833 491.671373 
z
" style="fill: #ffffff"/>
   </g>
   <g id="patch_48">
    <path d="M 327.470568 547.013164 
L 337.817917 547.013164 
L 337.817917 537.597125 
L 327.470568 537.597125 
z
" clip-path="url(#p2df9d059a9)" style="fill: #ff0000"/>
   </g>
   <g id="patch_49">
    <path d="M 337.817917 547.013164 
L 348.165265 547.013164 
L 348.165265 542.651755 
L 337.817917 542.651755 
z
" clip-path="url(#p2df9d059a9)" style="fill: #0000ff"/>
   </g>
   <g id="matplotlib.axis_35"/>
   <g id="matplotlib.axis_36">
    <g id="ytick_35"/>
    <g id="ytick_36"/>
   </g>
  </g>
  <g id="text_22">
   <!-- variance (a.u.) -->
   <g transform="translate(14.798438 324.428125) rotate(-90) scale(0.1 -0.1)">
    <defs>
     <path id="DejaVuSans-76" d="M 191 3500 
L 800 3500 
L 1894 563 
L 2988 3500 
L 3597 3500 
L 2284 0 
L 1503 0 
L 191 3500 
z
" transform="scale(0.015625)"/>
     <path id="DejaVuSans-69" d="M 603 3500 
L 1178 3500 
L 1178 0 
L 603 0 
L 603 3500 
z
M 603 4863 
L 1178 4863 
L 1178 4134 
L 603 4134 
L 603 4863 
z
" transform="scale(0.015625)"/>
     <path id="DejaVuSans-6e" d="M 3513 2113 
L 3513 0 
L 2938 0 
L 2938 2094 
Q 2938 2591 2744 2837 
Q 2550 3084 2163 3084 
Q 1697 3084 1428 2787 
Q 1159 2491 1159 1978 
L 1159 0 
L 581 0 
L 581 3500 
L 1159 3500 
L 1159 2956 
Q 1366 3272 1645 3428 
Q 1925 3584 2291 3584 
Q 2894 3584 3203 3211 
Q 3513 2838 3513 2113 
z
" transform="scale(0.015625)"/>
     <path id="DejaVuSans-63" d="M 3122 3366 
L 3122 2828 
Q 2878 2963 2633 3030 
Q 2388 3097 2138 3097 
Q 1578 3097 1268 2742 
Q 959 2388 959 1747 
Q 959 1106 1268 751 
Q 1578 397 2138 397 
Q 2388 397 2633 464 
Q 2878 531 3122 666 
L 3122 134 
Q 2881 22 2623 -34 
Q 2366 -91 2075 -91 
Q 1284 -91 818 406 
Q 353 903 353 1747 
Q 353 2603 823 3093 
Q 1294 3584 2113 3584 
Q 2378 3584 2631 3529 
Q 2884 3475 3122 3366 
z
" transform="scale(0.015625)"/>
     <path id="DejaVuSans-20" transform="scale(0.015625)"/>
     <path id="DejaVuSans-28" d="M 1984 4856 
Q 1566 4138 1362 3434 
Q 1159 2731 1159 2009 
Q 1159 1288 1364 580 
Q 1569 -128 1984 -844 
L 1484 -844 
Q 1016 -109 783 600 
Q 550 1309 550 2009 
Q 550 2706 781 3412 
Q 1013 4119 1484 4856 
L 1984 4856 
z
" transform="scale(0.015625)"/>
     <path id="DejaVuSans-29" d="M 513 4856 
L 1013 4856 
Q 1481 4119 1714 3412 
Q 1947 2706 1947 2009 
Q 1947 1309 1714 600 
Q 1481 -109 1013 -844 
L 513 -844 
Q 928 -128 1133 580 
Q 1338 1288 1338 2009 
Q 1338 2731 1133 3434 
Q 928 4138 513 4856 
z
" transform="scale(0.015625)"/>
    </defs>
    <use xlink:href="#DejaVuSans-76"/>
    <use xlink:href="#DejaVuSans-61" transform="translate(59.179688 0)"/>
    <use xlink:href="#DejaVuSans-72" transform="translate(120.458984 0)"/>
    <use xlink:href="#DejaVuSans-69" transform="translate(161.572266 0)"/>
    <use xlink:href="#DejaVuSans-61" transform="translate(189.355469 0)"/>
    <use xlink:href="#DejaVuSans-6e" transform="translate(250.634766 0)"/>
    <use xlink:href="#DejaVuSans-63" transform="translate(314.013672 0)"/>
    <use xlink:href="#DejaVuSans-65" transform="translate(368.994141 0)"/>
    <use xlink:href="#DejaVuSans-20" transform="translate(430.517578 0)"/>
    <use xlink:href="#DejaVuSans-28" transform="translate(462.304688 0)"/>
    <use xlink:href="#DejaVuSans-61" transform="translate(501.318359 0)"/>
    <use xlink:href="#DejaVuSans-2e" transform="translate(562.597656 0)"/>
    <use xlink:href="#DejaVuSans-75" transform="translate(594.384766 0)"/>
    <use xlink:href="#DejaVuSans-2e" transform="translate(657.763672 0)"/>
    <use xlink:href="#DejaVuSans-29" transform="translate(689.550781 0)"/>
   </g>
  </g>
  <g id="text_23">
   <!-- Variance explained by component model (Monkey P, PMd) -->
   <g transform="translate(5.521875 20.638125) scale(0.12 -0.12)">
    <defs>
     <path id="DejaVuSans-56" d="M 1831 0 
L 50 4666 
L 709 4666 
L 2188 738 
L 3669 4666 
L 4325 4666 
L 2547 0 
L 1831 0 
z
" transform="scale(0.015625)"/>
     <path id="DejaVuSans-78" d="M 3513 3500 
L 2247 1797 
L 3578 0 
L 2900 0 
L 1881 1375 
L 863 0 
L 184 0 
L 1544 1831 
L 300 3500 
L 978 3500 
L 1906 2253 
L 2834 3500 
L 3513 3500 
z
" transform="scale(0.015625)"/>
     <path id="DejaVuSans-79" d="M 2059 -325 
Q 1816 -950 1584 -1140 
Q 1353 -1331 966 -1331 
L 506 -1331 
L 506 -850 
L 844 -850 
Q 1081 -850 1212 -737 
Q 1344 -625 1503 -206 
L 1606 56 
L 191 3500 
L 800 3500 
L 1894 763 
L 2988 3500 
L 3597 3500 
L 2059 -325 
z
" transform="scale(0.015625)"/>
     <path id="DejaVuSans-4d" d="M 628 4666 
L 1569 4666 
L 2759 1491 
L 3956 4666 
L 4897 4666 
L 4897 0 
L 4281 0 
L 4281 4097 
L 3078 897 
L 2444 897 
L 1241 4097 
L 1241 0 
L 628 0 
L 628 4666 
z
" transform="scale(0.015625)"/>
     <path id="DejaVuSans-6b" d="M 581 4863 
L 1159 4863 
L 1159 1991 
L 2875 3500 
L 3609 3500 
L 1753 1863 
L 3688 0 
L 2938 0 
L 1159 1709 
L 1159 0 
L 581 0 
L 581 4863 
z
" transform="scale(0.015625)"/>
     <path id="DejaVuSans-2c" d="M 750 794 
L 1409 794 
L 1409 256 
L 897 -744 
L 494 -744 
L 750 256 
L 750 794 
z
" transform="scale(0.015625)"/>
    </defs>
    <use xlink:href="#DejaVuSans-56"/>
    <use xlink:href="#DejaVuSans-61" transform="translate(60.658203 0)"/>
    <use xlink:href="#DejaVuSans-72" transform="translate(121.9375 0)"/>
    <use xlink:href="#DejaVuSans-69" transform="translate(163.050781 0)"/>
    <use xlink:href="#DejaVuSans-61" transform="translate(190.833984 0)"/>
    <use xlink:href="#DejaVuSans-6e" transform="translate(252.113281 0)"/>
    <use xlink:href="#DejaVuSans-63" transform="translate(315.492188 0)"/>
    <use xlink:href="#DejaVuSans-65" transform="translate(370.472656 0)"/>
    <use xlink:href="#DejaVuSans-20" transform="translate(431.996094 0)"/>
    <use xlink:href="#DejaVuSans-65" transform="translate(463.783203 0)"/>
    <use xlink:href="#DejaVuSans-78" transform="translate(523.556641 0)"/>
    <use xlink:href="#DejaVuSans-70" transform="translate(582.736328 0)"/>
    <use xlink:href="#DejaVuSans-6c" transform="translate(646.212891 0)"/>
    <use xlink:href="#DejaVuSans-61" transform="translate(673.996094 0)"/>
    <use xlink:href="#DejaVuSans-69" transform="translate(735.275391 0)"/>
    <use xlink:href="#DejaVuSans-6e" transform="translate(763.058594 0)"/>
    <use xlink:href="#DejaVuSans-65" transform="translate(826.4375 0)"/>
    <use xlink:href="#DejaVuSans-64" transform="translate(887.960938 0)"/>
    <use xlink:href="#DejaVuSans-20" transform="translate(951.4375 0)"/>
    <use xlink:href="#DejaVuSans-62" transform="translate(983.224609 0)"/>
    <use xlink:href="#DejaVuSans-79" transform="translate(1046.701172 0)"/>
    <use xlink:href="#DejaVuSans-20" transform="translate(1105.880859 0)"/>
    <use xlink:href="#DejaVuSans-63" transform="translate(1137.667969 0)"/>
    <use xlink:href="#DejaVuSans-6f" transform="translate(1192.648438 0)"/>
    <use xlink:href="#DejaVuSans-6d" transform="translate(1253.830078 0)"/>
    <use xlink:href="#DejaVuSans-70" transform="translate(1351.242188 0)"/>
    <use xlink:href="#DejaVuSans-6f" transform="translate(1414.71875 0)"/>
    <use xlink:href="#DejaVuSans-6e" transform="translate(1475.900391 0)"/>
    <use xlink:href="#DejaVuSans-65" transform="translate(1539.279297 0)"/>
    <use xlink:href="#DejaVuSans-6e" transform="translate(1600.802734 0)"/>
    <use xlink:href="#DejaVuSans-74" transform="translate(1664.181641 0)"/>
    <use xlink:href="#DejaVuSans-20" transform="translate(1703.390625 0)"/>
    <use xlink:href="#DejaVuSans-6d" transform="translate(1735.177734 0)"/>
    <use xlink:href="#DejaVuSans-6f" transform="translate(1832.589844 0)"/>
    <use xlink:href="#DejaVuSans-64" transform="translate(1893.771484 0)"/>
    <use xlink:href="#DejaVuSans-65" transform="translate(1957.248047 0)"/>
    <use xlink:href="#DejaVuSans-6c" transform="translate(2018.771484 0)"/>
    <use xlink:href="#DejaVuSans-20" transform="translate(2046.554688 0)"/>
    <use xlink:href="#DejaVuSans-28" transform="translate(2078.341797 0)"/>
    <use xlink:href="#DejaVuSans-4d" transform="translate(2117.355469 0)"/>
    <use xlink:href="#DejaVuSans-6f" transform="translate(2203.634766 0)"/>
    <use xlink:href="#DejaVuSans-6e" transform="translate(2264.816406 0)"/>
    <use xlink:href="#DejaVuSans-6b" transform="translate(2328.195312 0)"/>
    <use xlink:href="#DejaVuSans-65" transform="translate(2382.480469 0)"/>
    <use xlink:href="#DejaVuSans-79" transform="translate(2444.003906 0)"/>
    <use xlink:href="#DejaVuSans-20" transform="translate(2503.183594 0)"/>
    <use xlink:href="#DejaVuSans-50" transform="translate(2534.970703 0)"/>
    <use xlink:href="#DejaVuSans-2c" transform="translate(2595.273438 0)"/>
    <use xlink:href="#DejaVuSans-20" transform="translate(2627.060547 0)"/>
    <use xlink:href="#DejaVuSans-50" transform="translate(2658.847656 0)"/>
    <use xlink:href="#DejaVuSans-4d" transform="translate(2719.150391 0)"/>
    <use xlink:href="#DejaVuSans-64" transform="translate(2805.429688 0)"/>
    <use xlink:href="#DejaVuSans-29" transform="translate(2868.90625 0)"/>
   </g>
  </g>
  <g id="legend_1">
   <g id="line2d_43">
    <path d="M 215.613281 562.878281 
L 224.613281 562.878281 
L 233.613281 562.878281 
" style="fill: none; stroke: #ff0000; stroke-width: 1.5; stroke-linecap: square"/>
   </g>
   <g id="text_24">
    <!-- cue -->
    <g transform="translate(240.813281 566.028281) scale(0.09 -0.09)">
     <use xlink:href="#DejaVuSans-63"/>
     <use xlink:href="#DejaVuSans-75" transform="translate(54.980469 0)"/>
     <use xlink:href="#DejaVuSans-65" transform="translate(118.359375 0)"/>
    </g>
   </g>
   <g id="line2d_44">
    <path d="M 275.003438 562.878281 
L 284.003438 562.878281 
L 293.003438 562.878281 
" style="fill: none; stroke: #0000ff; stroke-width: 1.5; stroke-linecap: square"/>
   </g>
   <g id="text_25">
    <!-- uncertainty -->
    <g transform="translate(300.203438 566.028281) scale(0.09 -0.09)">
     <use xlink:href="#DejaVuSans-75"/>
     <use xlink:href="#DejaVuSans-6e" transform="translate(63.378906 0)"/>
     <use xlink:href="#DejaVuSans-63" transform="translate(126.757812 0)"/>
     <use xlink:href="#DejaVuSans-65" transform="translate(181.738281 0)"/>
     <use xlink:href="#DejaVuSans-72" transform="translate(243.261719 0)"/>
     <use xlink:href="#DejaVuSans-74" transform="translate(284.375 0)"/>
     <use xlink:href="#DejaVuSans-61" transform="translate(323.583984 0)"/>
     <use xlink:href="#DejaVuSans-69" transform="translate(384.863281 0)"/>
     <use xlink:href="#DejaVuSans-6e" transform="translate(412.646484 0)"/>
     <use xlink:href="#DejaVuSans-74" transform="translate(476.025391 0)"/>
     <use xlink:href="#DejaVuSans-79" transform="translate(515.234375 0)"/>
    </g>
   </g>
  </g>
 </g>
 <defs>
  <clipPath id="p7f98755ec8">
   <rect x="54.43" y="50.64" width="227.641667" height="56.448627"/>
  </clipPath>
  <clipPath id="p284acf4e4f">
   <rect x="292.871667" y="50.64" width="22.764167" height="56.448627"/>
  </clipPath>
  <clipPath id="p2d65978775">
   <rect x="326.435833" y="50.64" width="22.764167" height="56.448627"/>
  </clipPath>
  <clipPath id="p3cc0619172">
   <rect x="54.43" y="138.846275" width="227.641667" height="56.448627"/>
  </clipPath>
  <clipPath id="p39d66f1949">
   <rect x="292.871667" y="138.846275" width="22.764167" height="56.448627"/>
  </clipPath>
  <clipPath id="pff56a2b8cf">
   <rect x="326.435833" y="138.846275" width="22.764167" height="56.448627"/>
  </clipPath>
  <clipPath id="pb2660c5b30">
   <rect x="54.43" y="227.052549" width="227.641667" height="56.448627"/>
  </clipPath>
  <clipPath id="p7d153a9086">
   <rect x="292.871667" y="227.052549" width="22.764167" height="56.448627"/>
  </clipPath>
  <clipPath id="p666428418d">
   <rect x="326.435833" y="227.052549" width="22.764167" height="56.448627"/>
  </clipPath>
  <clipPath id="p4b5e714d42">
   <rect x="54.43" y="315.258824" width="227.641667" height="56.448627"/>
  </clipPath>
  <clipPath id="p204c12555d">
   <rect x="292.871667" y="315.258824" width="22.764167" height="56.448627"/>
  </clipPath>
  <clipPath id="p956d1e6a90">
   <rect x="326.435833" y="315.258824" width="22.764167" height="56.448627"/>
  </clipPath>
  <clipPath id="p08b28df764">
   <rect x="54.43" y="403.465098" width="227.641667" height="56.448627"/>
  </clipPath>
  <clipPath id="p3cf4710b74">
   <rect x="292.871667" y="403.465098" width="22.764167" height="56.448627"/>
  </clipPath>
  <clipPath id="p879e3f053e">
   <rect x="326.435833" y="403.465098" width="22.764167" height="56.448627"/>
  </clipPath>
  <clipPath id="p97f80f74b9">
   <rect x="54.43" y="491.671373" width="227.641667" height="56.448627"/>
  </clipPath>
  <clipPath id="p63bff98635">
   <rect x="292.871667" y="491.671373" width="22.764167" height="56.448627"/>
  </clipPath>
  <clipPath id="p2df9d059a9">
   <rect x="326.435833" y="491.671373" width="22.764167" height="56.448627"/>
  </clipPath>
 </defs>
</svg>
