<?xml version="1.0" encoding="utf-8" standalone="no"?>
<!DOCTYPE svg PUBLIC "-//W3C//DTD SVG 1.1//EN"
  "http://www.w3.org/Graphics/SVG/1.1/DTD/svg11.dtd">
<svg xmlns:xlink="http://www.w3.org/1999/xlink" width="360pt" height="576pt" viewBox="0 0 360 576" xmlns="http://www.w3.org/2000/svg" version="1.1">
 <metadata>
  <rdf:RDF xmlns:dc="http://purl.org/dc/elements/1.1/" xmlns:cc="http://creativecommons.org/ns#" xmlns:rdf="http://www.w3.org/1999/02/22-rdf-syntax-ns#">
   <cc:Work>
    <dc:type rdf:resource="http://purl.org/dc/dcmitype/StillImage"/>
    <dc:date>2025-07-17T11:54:10.833517</dc:date>
    <dc:format>image/svg+xml</dc:format>
    <dc:creator>
     <cc:Agent>
      <dc:title>Matplotlib v3.10.1, https://matplotlib.org/</dc:title>
     </cc:Agent>
    </dc:creator>
   </cc:Work>
  </rdf:RDF>
 </metadata>
 <defs>
  <style type="text/css">*{stroke-linejoin: round; stroke-linecap: butt}</style>
 </defs>
 <g id="figure_1">
  <g id="patch_1">
   <path d="M 0 576 
L 360 576 
L 360 0 
L 0 0 
z
" style="fill: #ffffff"/>
  </g>
  <g id="axes_1">
   <g id="patch_2">
    <path d="M 54.43 103.524702 
L 290.930718 103.524702 
L 290.930718 50.64 
L 54.43 50.64 
z
" style="fill: #ffffff"/>
   </g>
   <g id="matplotlib.axis_1">
    <g id="xtick_1"/>
   </g>
   <g id="matplotlib.axis_2">
    <g id="ytick_1">
     <g id="line2d_1">
      <defs>
       <path id="m41414ea6c3" d="M 0 0 
L -3.5 0 
" style="stroke: #000000; stroke-width: 0.8"/>
      </defs>
      <g>
       <use xlink:href="#m41414ea6c3" x="54.43" y="102.691872" style="stroke: #000000; stroke-width: 0.8"/>
      </g>
     </g>
     <g id="text_1">
      <!-- 0.0 -->
      <g transform="translate(31.526875 106.49109) scale(0.1 -0.1)">
       <defs>
        <path id="DejaVuSans-30" d="M 2034 4250 
Q 1547 4250 1301 3770 
Q 1056 3291 1056 2328 
Q 1056 1369 1301 889 
Q 1547 409 2034 409 
Q 2525 409 2770 889 
Q 3016 1369 3016 2328 
Q 3016 3291 2770 3770 
Q 2525 4250 2034 4250 
z
M 2034 4750 
Q 2819 4750 3233 4129 
Q 3647 3509 3647 2328 
Q 3647 1150 3233 529 
Q 2819 -91 2034 -91 
Q 1250 -91 836 529 
Q 422 1150 422 2328 
Q 422 3509 836 4129 
Q 1250 4750 2034 4750 
z
" transform="scale(0.015625)"/>
        <path id="DejaVuSans-2e" d="M 684 794 
L 1344 794 
L 1344 0 
L 684 0 
L 684 794 
z
" transform="scale(0.015625)"/>
       </defs>
       <use xlink:href="#DejaVuSans-30"/>
       <use xlink:href="#DejaVuSans-2e" transform="translate(63.623047 0)"/>
       <use xlink:href="#DejaVuSans-30" transform="translate(95.410156 0)"/>
      </g>
     </g>
    </g>
    <g id="ytick_2">
     <g id="line2d_2">
      <g>
       <use xlink:href="#m41414ea6c3" x="54.43" y="50.64" style="stroke: #000000; stroke-width: 0.8"/>
      </g>
     </g>
     <g id="text_2">
      <!-- 0.5 -->
      <g transform="translate(31.526875 54.439219) scale(0.1 -0.1)">
       <defs>
        <path id="DejaVuSans-35" d="M 691 4666 
L 3169 4666 
L 3169 4134 
L 1269 4134 
L 1269 2991 
Q 1406 3038 1543 3061 
Q 1681 3084 1819 3084 
Q 2600 3084 3056 2656 
Q 3513 2228 3513 1497 
Q 3513 744 3044 326 
Q 2575 -91 1722 -91 
Q 1428 -91 1123 -41 
Q 819 9 494 109 
L 494 744 
Q 775 591 1075 516 
Q 1375 441 1709 441 
Q 2250 441 2565 725 
Q 2881 1009 2881 1497 
Q 2881 1984 2565 2268 
Q 2250 2553 1709 2553 
Q 1456 2553 1204 2497 
Q 953 2441 691 2322 
L 691 4666 
z
" transform="scale(0.015625)"/>
       </defs>
       <use xlink:href="#DejaVuSans-30"/>
       <use xlink:href="#DejaVuSans-2e" transform="translate(63.623047 0)"/>
       <use xlink:href="#DejaVuSans-35" transform="translate(95.410156 0)"/>
      </g>
     </g>
    </g>
   </g>
   <g id="line2d_3">
    <path d="M 54.43 101.744646 
L 93.846786 102.131621 
L 110.739695 102.350576 
L 152.971966 102.608716 
L 161.41842 102.691863 
L 203.650691 102.691867 
L 228.990054 101.441673 
L 237.436508 101.038414 
L 251.513932 100.63457 
L 265.591356 100.22292 
L 279.668779 99.824026 
L 288.115234 99.418201 
L 290.930718 97.660238 
L 307.823627 97.116296 
L 327.53202 96.728074 
L 350.055898 96.525916 
L 361 96.504212 
L 361 96.504212 
" clip-path="url(#pbee3b47055)" style="fill: none; stroke: #ff0000; stroke-width: 1.5; stroke-linecap: square"/>
   </g>
   <g id="line2d_4">
    <path d="M 54.43 102.155104 
L 133.263573 102.098862 
L 150.156481 102.012945 
L 178.311329 101.921075 
L 217.728115 102.016393 
L 240.251993 102.242674 
L 248.698447 102.311069 
L 288.115234 102.478347 
L 290.930718 102.264071 
L 361 102.502818 
L 361 102.502818 
" clip-path="url(#pbee3b47055)" style="fill: none; stroke: #0000ff; stroke-width: 1.5; stroke-linecap: square"/>
   </g>
   <g id="line2d_5">
    <path d="M 54.43 102.691872 
L 290.930718 102.691872 
" clip-path="url(#pbee3b47055)" style="fill: none; stroke: #000000; stroke-width: 0.8; stroke-linecap: square"/>
   </g>
   <g id="line2d_6">
    <path d="M 217.728115 102.042066 
L 220.5436 101.282675 
L 226.174569 100.444216 
L 231.805539 99.869823 
L 240.251993 99.242901 
L 251.513932 98.677788 
L 265.591356 98.251955 
L 279.668779 98.041428 
L 288.115234 97.994559 
L 290.930718 96.612817 
L 310.639111 96.765069 
L 330.347505 97.161258 
L 347.240413 97.707384 
L 361 98.310455 
L 361 98.310455 
" clip-path="url(#pbee3b47055)" style="fill: none; stroke-dasharray: 5.55,2.4; stroke-dashoffset: 0; stroke: #000000; stroke-width: 1.5"/>
   </g>
   <g id="line2d_7">
    <path d="M 110.739695 103.524702 
L 110.739695 50.64 
" clip-path="url(#pbee3b47055)" style="fill: none; stroke: #000000; stroke-width: 0.8; stroke-linecap: square"/>
   </g>
   <g id="patch_3">
    <path d="M 54.43 102.691872 
L 54.43 50.64 
" style="fill: none; stroke: #000000; stroke-width: 0.8; stroke-linejoin: miter; stroke-linecap: square"/>
   </g>
   <g id="text_3">
    <!-- delta -->
    <g transform="translate(157.483484 44.64) scale(0.12 -0.12)">
     <defs>
      <path id="DejaVuSans-64" d="M 2906 2969 
L 2906 4863 
L 3481 4863 
L 3481 0 
L 2906 0 
L 2906 525 
Q 2725 213 2448 61 
Q 2172 -91 1784 -91 
Q 1150 -91 751 415 
Q 353 922 353 1747 
Q 353 2572 751 3078 
Q 1150 3584 1784 3584 
Q 2172 3584 2448 3432 
Q 2725 3281 2906 2969 
z
M 947 1747 
Q 947 1113 1208 752 
Q 1469 391 1925 391 
Q 2381 391 2643 752 
Q 2906 1113 2906 1747 
Q 2906 2381 2643 2742 
Q 2381 3103 1925 3103 
Q 1469 3103 1208 2742 
Q 947 2381 947 1747 
z
" transform="scale(0.015625)"/>
      <path id="DejaVuSans-65" d="M 3597 1894 
L 3597 1613 
L 953 1613 
Q 991 1019 1311 708 
Q 1631 397 2203 397 
Q 2534 397 2845 478 
Q 3156 559 3463 722 
L 3463 178 
Q 3153 47 2828 -22 
Q 2503 -91 2169 -91 
Q 1331 -91 842 396 
Q 353 884 353 1716 
Q 353 2575 817 3079 
Q 1281 3584 2069 3584 
Q 2775 3584 3186 3129 
Q 3597 2675 3597 1894 
z
M 3022 2063 
Q 3016 2534 2758 2815 
Q 2500 3097 2075 3097 
Q 1594 3097 1305 2825 
Q 1016 2553 972 2059 
L 3022 2063 
z
" transform="scale(0.015625)"/>
      <path id="DejaVuSans-6c" d="M 603 4863 
L 1178 4863 
L 1178 0 
L 603 0 
L 603 4863 
z
" transform="scale(0.015625)"/>
      <path id="DejaVuSans-74" d="M 1172 4494 
L 1172 3500 
L 2356 3500 
L 2356 3053 
L 1172 3053 
L 1172 1153 
Q 1172 725 1289 603 
Q 1406 481 1766 481 
L 2356 481 
L 2356 0 
L 1766 0 
Q 1100 0 847 248 
Q 594 497 594 1153 
L 594 3053 
L 172 3053 
L 172 3500 
L 594 3500 
L 594 4494 
L 1172 4494 
z
" transform="scale(0.015625)"/>
      <path id="DejaVuSans-61" d="M 2194 1759 
Q 1497 1759 1228 1600 
Q 959 1441 959 1056 
Q 959 750 1161 570 
Q 1363 391 1709 391 
Q 2188 391 2477 730 
Q 2766 1069 2766 1631 
L 2766 1759 
L 2194 1759 
z
M 3341 1997 
L 3341 0 
L 2766 0 
L 2766 531 
Q 2569 213 2275 61 
Q 1981 -91 1556 -91 
Q 1019 -91 701 211 
Q 384 513 384 1019 
Q 384 1609 779 1909 
Q 1175 2209 1959 2209 
L 2766 2209 
L 2766 2266 
Q 2766 2663 2505 2880 
Q 2244 3097 1772 3097 
Q 1472 3097 1187 3025 
Q 903 2953 641 2809 
L 641 3341 
Q 956 3463 1253 3523 
Q 1550 3584 1831 3584 
Q 2591 3584 2966 3190 
Q 3341 2797 3341 1997 
z
" transform="scale(0.015625)"/>
     </defs>
     <use xlink:href="#DejaVuSans-64"/>
     <use xlink:href="#DejaVuSans-65" transform="translate(63.476562 0)"/>
     <use xlink:href="#DejaVuSans-6c" transform="translate(125 0)"/>
     <use xlink:href="#DejaVuSans-74" transform="translate(152.783203 0)"/>
     <use xlink:href="#DejaVuSans-61" transform="translate(191.992188 0)"/>
    </g>
   </g>
  </g>
  <g id="axes_2">
   <g id="patch_4">
    <path d="M 304.519466 103.524702 
L 343.936252 103.524702 
L 343.936252 50.64 
L 304.519466 50.64 
z
" style="fill: #ffffff"/>
   </g>
   <g id="matplotlib.axis_3">
    <g id="xtick_2"/>
    <g id="xtick_3"/>
   </g>
   <g id="matplotlib.axis_4">
    <g id="ytick_3"/>
    <g id="ytick_4"/>
   </g>
   <g id="line2d_8">
    <path d="M 310.150435 102.008541 
L 338.305283 101.779608 
" clip-path="url(#pef3699f7fd)" style="fill: none; stroke: #ff0000; stroke-width: 1.5; stroke-linecap: square"/>
    <defs>
     <path id="ma98730b9b7" d="M -2.5 2.5 
L 2.5 2.5 
L 2.5 -2.5 
L -2.5 -2.5 
z
" style="stroke: #ff0000; stroke-linejoin: miter"/>
    </defs>
    <g clip-path="url(#pef3699f7fd)">
     <use xlink:href="#ma98730b9b7" x="310.150435" y="102.008541" style="fill: #ff0000; stroke: #ff0000; stroke-linejoin: miter"/>
     <use xlink:href="#ma98730b9b7" x="338.305283" y="101.779608" style="fill: #ff0000; stroke: #ff0000; stroke-linejoin: miter"/>
    </g>
   </g>
   <g id="line2d_9">
    <path d="M 310.150435 102.117041 
L 338.305283 102.116856 
" clip-path="url(#pef3699f7fd)" style="fill: none; stroke: #0000ff; stroke-width: 1.5; stroke-linecap: square"/>
    <defs>
     <path id="meafe6e4b83" d="M -2.5 2.5 
L 2.5 2.5 
L 2.5 -2.5 
L -2.5 -2.5 
z
" style="stroke: #0000ff; stroke-linejoin: miter"/>
    </defs>
    <g clip-path="url(#pef3699f7fd)">
     <use xlink:href="#meafe6e4b83" x="310.150435" y="102.117041" style="fill: #0000ff; stroke: #0000ff; stroke-linejoin: miter"/>
     <use xlink:href="#meafe6e4b83" x="338.305283" y="102.116856" style="fill: #0000ff; stroke: #0000ff; stroke-linejoin: miter"/>
    </g>
   </g>
  </g>
  <g id="axes_3">
   <g id="patch_5">
    <path d="M 54.43 186.499761 
L 290.930718 186.499761 
L 290.930718 133.61506 
L 54.43 133.61506 
z
" style="fill: #ffffff"/>
   </g>
   <g id="matplotlib.axis_5">
    <g id="xtick_4"/>
   </g>
   <g id="matplotlib.axis_6">
    <g id="ytick_5">
     <g id="line2d_10">
      <g>
       <use xlink:href="#m41414ea6c3" x="54.43" y="185.666931" style="stroke: #000000; stroke-width: 0.8"/>
      </g>
     </g>
     <g id="text_4">
      <!-- 0.0 -->
      <g transform="translate(31.526875 189.46615) scale(0.1 -0.1)">
       <use xlink:href="#DejaVuSans-30"/>
       <use xlink:href="#DejaVuSans-2e" transform="translate(63.623047 0)"/>
       <use xlink:href="#DejaVuSans-30" transform="translate(95.410156 0)"/>
      </g>
     </g>
    </g>
    <g id="ytick_6">
     <g id="line2d_11">
      <g>
       <use xlink:href="#m41414ea6c3" x="54.43" y="133.61506" style="stroke: #000000; stroke-width: 0.8"/>
      </g>
     </g>
     <g id="text_5">
      <!-- 0.5 -->
      <g transform="translate(31.526875 137.414278) scale(0.1 -0.1)">
       <use xlink:href="#DejaVuSans-30"/>
       <use xlink:href="#DejaVuSans-2e" transform="translate(63.623047 0)"/>
       <use xlink:href="#DejaVuSans-35" transform="translate(95.410156 0)"/>
      </g>
     </g>
    </g>
   </g>
   <g id="line2d_12">
    <path d="M 54.43 182.110355 
L 60.060969 182.013102 
L 68.507424 182.161286 
L 74.138393 182.425678 
L 79.769363 182.88729 
L 82.584847 183.193595 
L 88.215817 183.624484 
L 91.031302 184.055788 
L 93.846786 184.35388 
L 105.108725 184.641243 
L 113.55518 185.062802 
L 119.186149 185.63469 
L 130.448088 185.666929 
L 147.340996 185.666927 
L 152.971966 185.381954 
L 183.942298 184.791205 
L 189.573268 184.794931 
L 203.650691 184.199687 
L 217.728115 184.150623 
L 234.621023 184.291481 
L 237.436508 184.375117 
L 243.067478 184.198228 
L 245.882962 184.012153 
L 259.960386 182.483964 
L 276.853295 181.295172 
L 285.299749 181.029601 
L 288.115234 180.983305 
L 290.930718 181.321568 
L 313.454596 180.332207 
L 321.90105 180.250622 
L 333.162989 180.349211 
L 358.502352 180.129273 
L 361 180.130157 
L 361 180.130157 
" clip-path="url(#pf4899cdf44)" style="fill: none; stroke: #ff0000; stroke-width: 1.5; stroke-linecap: square"/>
   </g>
   <g id="line2d_13">
    <path d="M 54.43 185.666912 
L 169.864874 185.580935 
L 175.495844 185.453402 
L 186.757783 185.451117 
L 206.466176 185.61585 
L 220.5436 185.520864 
L 231.805539 185.271656 
L 248.698447 185.12737 
L 254.329417 185.123282 
L 257.144901 184.861438 
L 262.775871 184.705593 
L 271.222325 184.690955 
L 282.484264 185.119428 
L 288.115234 185.666895 
L 290.930718 185.277858 
L 296.561688 185.155336 
L 307.823627 184.648734 
L 321.90105 184.256281 
L 327.53202 183.575274 
L 335.978474 182.970382 
L 347.240413 182.446639 
L 358.502352 182.166298 
L 361 182.13428 
L 361 182.13428 
" clip-path="url(#pf4899cdf44)" style="fill: none; stroke: #0000ff; stroke-width: 1.5; stroke-linecap: square"/>
   </g>
   <g id="line2d_14">
    <path d="M 54.43 185.666931 
L 290.930718 185.666931 
" clip-path="url(#pf4899cdf44)" style="fill: none; stroke: #000000; stroke-width: 0.8; stroke-linecap: square"/>
   </g>
   <g id="line2d_15">
    <path d="M 54.43 182.11246 
L 60.060969 182.630663 
L 62.876454 183.067216 
L 65.691939 183.707853 
L 68.507424 184.952332 
M 307.823627 184.479622 
L 310.639111 183.476012 
L 313.454596 182.795036 
L 319.085566 181.824489 
L 324.716535 181.190184 
L 333.162989 180.594374 
L 350.055898 179.747793 
L 361 179.441519 
L 361 179.441519 
" clip-path="url(#pf4899cdf44)" style="fill: none; stroke-dasharray: 5.55,2.4; stroke-dashoffset: 0; stroke: #000000; stroke-width: 1.5"/>
   </g>
   <g id="line2d_16">
    <path d="M 110.739695 186.499761 
L 110.739695 133.61506 
" clip-path="url(#pf4899cdf44)" style="fill: none; stroke: #000000; stroke-width: 0.8; stroke-linecap: square"/>
   </g>
   <g id="patch_6">
    <path d="M 54.43 185.666931 
L 54.43 133.61506 
" style="fill: none; stroke: #000000; stroke-width: 0.8; stroke-linejoin: miter; stroke-linecap: square"/>
   </g>
   <g id="text_6">
    <!-- theta -->
    <g transform="translate(156.804734 127.61506) scale(0.12 -0.12)">
     <defs>
      <path id="DejaVuSans-68" d="M 3513 2113 
L 3513 0 
L 2938 0 
L 2938 2094 
Q 2938 2591 2744 2837 
Q 2550 3084 2163 3084 
Q 1697 3084 1428 2787 
Q 1159 2491 1159 1978 
L 1159 0 
L 581 0 
L 581 4863 
L 1159 4863 
L 1159 2956 
Q 1366 3272 1645 3428 
Q 1925 3584 2291 3584 
Q 2894 3584 3203 3211 
Q 3513 2838 3513 2113 
z
" transform="scale(0.015625)"/>
     </defs>
     <use xlink:href="#DejaVuSans-74"/>
     <use xlink:href="#DejaVuSans-68" transform="translate(39.208984 0)"/>
     <use xlink:href="#DejaVuSans-65" transform="translate(102.587891 0)"/>
     <use xlink:href="#DejaVuSans-74" transform="translate(164.111328 0)"/>
     <use xlink:href="#DejaVuSans-61" transform="translate(203.320312 0)"/>
    </g>
   </g>
  </g>
  <g id="axes_4">
   <g id="patch_7">
    <path d="M 304.519466 186.499761 
L 343.936252 186.499761 
L 343.936252 133.61506 
L 304.519466 133.61506 
z
" style="fill: #ffffff"/>
   </g>
   <g id="matplotlib.axis_7">
    <g id="xtick_5"/>
    <g id="xtick_6"/>
   </g>
   <g id="matplotlib.axis_8">
    <g id="ytick_7"/>
    <g id="ytick_8"/>
   </g>
   <g id="line2d_17">
    <path d="M 310.150435 183.203167 
L 338.305283 184.181406 
" clip-path="url(#pbfa25c9522)" style="fill: none; stroke: #ff0000; stroke-width: 1.5; stroke-linecap: square"/>
    <g clip-path="url(#pbfa25c9522)">
     <use xlink:href="#ma98730b9b7" x="310.150435" y="183.203167" style="fill: #ff0000; stroke: #ff0000; stroke-linejoin: miter"/>
     <use xlink:href="#ma98730b9b7" x="338.305283" y="184.181406" style="fill: #ff0000; stroke: #ff0000; stroke-linejoin: miter"/>
    </g>
   </g>
   <g id="line2d_18">
    <path d="M 310.150435 185.666927 
L 338.305283 185.416072 
" clip-path="url(#pbfa25c9522)" style="fill: none; stroke: #0000ff; stroke-width: 1.5; stroke-linecap: square"/>
    <g clip-path="url(#pbfa25c9522)">
     <use xlink:href="#meafe6e4b83" x="310.150435" y="185.666927" style="fill: #0000ff; stroke: #0000ff; stroke-linejoin: miter"/>
     <use xlink:href="#meafe6e4b83" x="338.305283" y="185.416072" style="fill: #0000ff; stroke: #0000ff; stroke-linejoin: miter"/>
    </g>
   </g>
  </g>
  <g id="axes_5">
   <g id="patch_8">
    <path d="M 54.43 269.474821 
L 290.930718 269.474821 
L 290.930718 216.590119 
L 54.43 216.590119 
z
" style="fill: #ffffff"/>
   </g>
   <g id="matplotlib.axis_9">
    <g id="xtick_7"/>
   </g>
   <g id="matplotlib.axis_10">
    <g id="ytick_9">
     <g id="line2d_19">
      <g>
       <use xlink:href="#m41414ea6c3" x="54.43" y="268.641991" style="stroke: #000000; stroke-width: 0.8"/>
      </g>
     </g>
     <g id="text_7">
      <!-- 0.0 -->
      <g transform="translate(31.526875 272.44121) scale(0.1 -0.1)">
       <use xlink:href="#DejaVuSans-30"/>
       <use xlink:href="#DejaVuSans-2e" transform="translate(63.623047 0)"/>
       <use xlink:href="#DejaVuSans-30" transform="translate(95.410156 0)"/>
      </g>
     </g>
    </g>
    <g id="ytick_10">
     <g id="line2d_20">
      <g>
       <use xlink:href="#m41414ea6c3" x="54.43" y="216.590119" style="stroke: #000000; stroke-width: 0.8"/>
      </g>
     </g>
     <g id="text_8">
      <!-- 0.5 -->
      <g transform="translate(31.526875 220.389338) scale(0.1 -0.1)">
       <use xlink:href="#DejaVuSans-30"/>
       <use xlink:href="#DejaVuSans-2e" transform="translate(63.623047 0)"/>
       <use xlink:href="#DejaVuSans-35" transform="translate(95.410156 0)"/>
      </g>
     </g>
    </g>
   </g>
   <g id="line2d_21">
    <path d="M 54.43 266.153558 
L 57.245485 266.44113 
L 60.060969 266.905789 
L 62.876454 267.666564 
L 65.691939 267.941042 
L 74.138393 268.057725 
L 76.953878 267.888676 
L 79.769363 267.324465 
L 82.584847 266.602824 
L 85.400332 266.21088 
L 88.215817 266.36764 
L 91.031302 266.965883 
L 96.662271 267.612464 
L 99.477756 268.095979 
L 110.739695 268.218253 
L 113.55518 267.958448 
L 116.370664 267.959973 
L 119.186149 268.159031 
L 122.001634 268.641979 
L 124.817119 268.533434 
L 138.894542 268.641989 
L 144.525512 268.606694 
L 147.340996 268.368533 
L 150.156481 267.881465 
L 152.971966 267.710262 
L 158.602935 267.706883 
L 164.233905 267.735335 
L 169.864874 267.553445 
L 172.680359 267.204696 
L 178.311329 266.904054 
L 181.126813 266.883228 
L 183.942298 266.727885 
L 186.757783 266.831796 
L 189.573268 267.396936 
L 192.388752 267.813194 
L 195.204237 268.366483 
L 203.650691 268.52072 
L 206.466176 267.853511 
L 209.281661 266.969348 
L 212.097146 266.494661 
L 217.728115 265.94521 
L 220.5436 265.913619 
L 223.359084 266.093187 
L 226.174569 266.520234 
L 228.990054 267.318805 
L 231.805539 267.282941 
L 234.621023 267.478866 
L 240.251993 266.92778 
L 243.067478 266.25678 
L 248.698447 265.250506 
L 254.329417 264.259006 
L 257.144901 263.868397 
L 259.960386 263.315491 
L 262.775871 262.57832 
L 265.591356 262.017585 
L 268.40684 261.580727 
L 271.222325 261.278078 
L 279.668779 260.753582 
L 288.115234 260.880274 
L 290.930718 263.184832 
L 296.561688 260.350706 
L 299.377172 259.139036 
L 302.192657 257.547873 
L 305.008142 256.433652 
L 307.823627 255.629188 
L 310.639111 255.096925 
L 313.454596 254.775975 
L 319.085566 254.485706 
L 321.90105 254.463194 
L 324.716535 254.56379 
L 327.53202 254.830812 
L 330.347505 255.248691 
L 333.162989 255.81557 
L 335.978474 256.548466 
L 341.609444 258.375572 
L 344.424928 259.447576 
L 347.240413 260.648191 
L 350.055898 262.052682 
L 352.871383 263.322192 
L 358.502352 264.582643 
L 361 265.013819 
L 361 265.013819 
" clip-path="url(#p8706d2370e)" style="fill: none; stroke: #ff0000; stroke-width: 1.5; stroke-linecap: square"/>
   </g>
   <g id="line2d_22">
    <path d="M 54.43 263.940943 
L 60.060969 264.304394 
L 62.876454 264.783673 
L 65.691939 264.956448 
L 74.138393 265.018474 
L 82.584847 265.258839 
L 85.400332 265.542087 
L 91.031302 266.420455 
L 93.846786 266.412618 
L 96.662271 266.089881 
L 102.293241 265.955089 
L 110.739695 265.439518 
L 122.001634 265.234976 
L 130.448088 264.684227 
L 136.079057 264.379472 
L 141.710027 263.823126 
L 144.525512 263.86297 
L 150.156481 264.28992 
L 164.233905 265.762264 
L 167.04939 266.220531 
L 172.680359 266.701926 
L 175.495844 267.05988 
L 178.311329 267.561815 
L 183.942298 267.934991 
L 186.757783 268.02912 
L 189.573268 267.815924 
L 198.019722 266.435382 
L 200.835207 266.20725 
L 203.650691 266.097161 
L 206.466176 266.173644 
L 217.728115 267.130595 
L 220.5436 266.975111 
L 223.359084 266.494909 
L 231.805539 266.14491 
L 234.621023 266.15814 
L 240.251993 266.409462 
L 245.882962 266.454258 
L 251.513932 266.287203 
L 259.960386 266.391 
L 262.775871 266.170934 
L 268.40684 265.509589 
L 271.222325 265.444645 
L 274.03781 265.585758 
L 276.853295 265.874743 
L 279.668779 265.958586 
L 285.299749 266.536842 
L 290.930718 267.383646 
L 296.561688 267.798944 
L 299.377172 268.420371 
L 302.192657 268.641976 
L 305.008142 268.109097 
L 307.823627 267.803478 
L 310.639111 266.968649 
L 313.454596 266.531826 
L 319.085566 265.243941 
L 324.716535 264.376401 
L 327.53202 263.95997 
L 330.347505 263.864302 
L 333.162989 263.955793 
L 335.978474 264.2272 
L 341.609444 264.526929 
L 344.424928 264.832808 
L 347.240413 264.837739 
L 355.686867 263.954006 
L 358.502352 263.796252 
L 361 263.777195 
L 361 263.777195 
" clip-path="url(#p8706d2370e)" style="fill: none; stroke: #0000ff; stroke-width: 1.5; stroke-linecap: square"/>
   </g>
   <g id="line2d_23">
    <path d="M 54.43 268.641991 
L 290.930718 268.641991 
" clip-path="url(#p8706d2370e)" style="fill: none; stroke: #000000; stroke-width: 0.8; stroke-linecap: square"/>
   </g>
   <g id="line2d_24">
    <path d="M 82.584847 265.66636 
L 85.400332 264.8487 
L 88.215817 264.979243 
L 91.031302 266.217486 
M 113.55518 265.633246 
L 116.370664 264.231206 
L 119.186149 263.429494 
L 127.632603 261.589902 
L 130.448088 261.172361 
L 133.263573 260.928937 
L 136.079057 260.892687 
L 138.894542 261.164955 
L 141.710027 261.727001 
L 147.340996 263.294639 
L 150.156481 264.151474 
L 152.971966 265.157766 
L 158.602935 267.639712 
L 161.41842 267.391796 
L 164.233905 266.071585 
L 167.04939 264.90861 
L 169.864874 263.953965 
L 172.680359 263.180271 
L 175.495844 262.650739 
L 178.311329 262.418931 
L 181.126813 262.514666 
L 183.942298 262.920555 
L 186.757783 263.638957 
L 189.573268 264.712517 
L 192.388752 266.299511 
M 240.251993 267.466113 
L 243.067478 265.558233 
L 245.882962 264.180915 
L 248.698447 262.997932 
L 265.591356 256.792381 
L 268.40684 256.133109 
L 271.222325 255.814965 
L 274.03781 255.750485 
L 276.853295 255.849806 
L 282.484264 256.466591 
L 285.299749 256.790484 
L 288.115234 256.977127 
L 290.930718 262.572337 
L 296.561688 260.215436 
L 305.008142 256.549394 
L 307.823627 255.497575 
L 310.639111 254.592543 
L 313.454596 253.889189 
L 316.270081 253.411707 
L 319.085566 253.172092 
L 321.90105 253.184975 
L 324.716535 253.476217 
L 330.347505 254.620743 
L 347.240413 258.62671 
L 350.055898 258.994234 
L 358.502352 259.51558 
L 361 259.914667 
L 361 259.914667 
" clip-path="url(#p8706d2370e)" style="fill: none; stroke-dasharray: 5.55,2.4; stroke-dashoffset: 0; stroke: #000000; stroke-width: 1.5"/>
   </g>
   <g id="line2d_25">
    <path d="M 110.739695 269.474821 
L 110.739695 216.590119 
" clip-path="url(#p8706d2370e)" style="fill: none; stroke: #000000; stroke-width: 0.8; stroke-linecap: square"/>
   </g>
   <g id="patch_9">
    <path d="M 54.43 268.641991 
L 54.43 216.590119 
" style="fill: none; stroke: #000000; stroke-width: 0.8; stroke-linejoin: miter; stroke-linecap: square"/>
   </g>
   <g id="text_9">
    <!-- alpha-beta -->
    <g transform="translate(140.353484 210.590119) scale(0.12 -0.12)">
     <defs>
      <path id="DejaVuSans-70" d="M 1159 525 
L 1159 -1331 
L 581 -1331 
L 581 3500 
L 1159 3500 
L 1159 2969 
Q 1341 3281 1617 3432 
Q 1894 3584 2278 3584 
Q 2916 3584 3314 3078 
Q 3713 2572 3713 1747 
Q 3713 922 3314 415 
Q 2916 -91 2278 -91 
Q 1894 -91 1617 61 
Q 1341 213 1159 525 
z
M 3116 1747 
Q 3116 2381 2855 2742 
Q 2594 3103 2138 3103 
Q 1681 3103 1420 2742 
Q 1159 2381 1159 1747 
Q 1159 1113 1420 752 
Q 1681 391 2138 391 
Q 2594 391 2855 752 
Q 3116 1113 3116 1747 
z
" transform="scale(0.015625)"/>
      <path id="DejaVuSans-2d" d="M 313 2009 
L 1997 2009 
L 1997 1497 
L 313 1497 
L 313 2009 
z
" transform="scale(0.015625)"/>
      <path id="DejaVuSans-62" d="M 3116 1747 
Q 3116 2381 2855 2742 
Q 2594 3103 2138 3103 
Q 1681 3103 1420 2742 
Q 1159 2381 1159 1747 
Q 1159 1113 1420 752 
Q 1681 391 2138 391 
Q 2594 391 2855 752 
Q 3116 1113 3116 1747 
z
M 1159 2969 
Q 1341 3281 1617 3432 
Q 1894 3584 2278 3584 
Q 2916 3584 3314 3078 
Q 3713 2572 3713 1747 
Q 3713 922 3314 415 
Q 2916 -91 2278 -91 
Q 1894 -91 1617 61 
Q 1341 213 1159 525 
L 1159 0 
L 581 0 
L 581 4863 
L 1159 4863 
L 1159 2969 
z
" transform="scale(0.015625)"/>
     </defs>
     <use xlink:href="#DejaVuSans-61"/>
     <use xlink:href="#DejaVuSans-6c" transform="translate(61.279297 0)"/>
     <use xlink:href="#DejaVuSans-70" transform="translate(89.0625 0)"/>
     <use xlink:href="#DejaVuSans-68" transform="translate(152.539062 0)"/>
     <use xlink:href="#DejaVuSans-61" transform="translate(215.917969 0)"/>
     <use xlink:href="#DejaVuSans-2d" transform="translate(277.197266 0)"/>
     <use xlink:href="#DejaVuSans-62" transform="translate(313.28125 0)"/>
     <use xlink:href="#DejaVuSans-65" transform="translate(376.757812 0)"/>
     <use xlink:href="#DejaVuSans-74" transform="translate(438.28125 0)"/>
     <use xlink:href="#DejaVuSans-61" transform="translate(477.490234 0)"/>
    </g>
   </g>
  </g>
  <g id="axes_6">
   <g id="patch_10">
    <path d="M 304.519466 269.474821 
L 343.936252 269.474821 
L 343.936252 216.590119 
L 304.519466 216.590119 
z
" style="fill: #ffffff"/>
   </g>
   <g id="matplotlib.axis_11">
    <g id="xtick_8"/>
    <g id="xtick_9"/>
   </g>
   <g id="matplotlib.axis_12">
    <g id="ytick_11"/>
    <g id="ytick_12"/>
   </g>
   <g id="line2d_26">
    <path d="M 310.150435 267.405303 
L 338.305283 266.323761 
" clip-path="url(#p48144bb85a)" style="fill: none; stroke: #ff0000; stroke-width: 1.5; stroke-linecap: square"/>
    <g clip-path="url(#p48144bb85a)">
     <use xlink:href="#ma98730b9b7" x="310.150435" y="267.405303" style="fill: #ff0000; stroke: #ff0000; stroke-linejoin: miter"/>
     <use xlink:href="#ma98730b9b7" x="338.305283" y="266.323761" style="fill: #ff0000; stroke: #ff0000; stroke-linejoin: miter"/>
    </g>
   </g>
   <g id="line2d_27">
    <path d="M 310.150435 265.314822 
L 338.305283 265.994047 
" clip-path="url(#p48144bb85a)" style="fill: none; stroke: #0000ff; stroke-width: 1.5; stroke-linecap: square"/>
    <g clip-path="url(#p48144bb85a)">
     <use xlink:href="#meafe6e4b83" x="310.150435" y="265.314822" style="fill: #0000ff; stroke: #0000ff; stroke-linejoin: miter"/>
     <use xlink:href="#meafe6e4b83" x="338.305283" y="265.994047" style="fill: #0000ff; stroke: #0000ff; stroke-linejoin: miter"/>
    </g>
   </g>
  </g>
  <g id="axes_7">
   <g id="patch_11">
    <path d="M 54.43 352.449881 
L 290.930718 352.449881 
L 290.930718 299.565179 
L 54.43 299.565179 
z
" style="fill: #ffffff"/>
   </g>
   <g id="matplotlib.axis_13">
    <g id="xtick_10"/>
   </g>
   <g id="matplotlib.axis_14">
    <g id="ytick_13">
     <g id="line2d_28">
      <g>
       <use xlink:href="#m41414ea6c3" x="54.43" y="351.617051" style="stroke: #000000; stroke-width: 0.8"/>
      </g>
     </g>
     <g id="text_10">
      <!-- 0.0 -->
      <g transform="translate(31.526875 355.416269) scale(0.1 -0.1)">
       <use xlink:href="#DejaVuSans-30"/>
       <use xlink:href="#DejaVuSans-2e" transform="translate(63.623047 0)"/>
       <use xlink:href="#DejaVuSans-30" transform="translate(95.410156 0)"/>
      </g>
     </g>
    </g>
    <g id="ytick_14">
     <g id="line2d_29">
      <g>
       <use xlink:href="#m41414ea6c3" x="54.43" y="299.565179" style="stroke: #000000; stroke-width: 0.8"/>
      </g>
     </g>
     <g id="text_11">
      <!-- 0.5 -->
      <g transform="translate(31.526875 303.364398) scale(0.1 -0.1)">
       <use xlink:href="#DejaVuSans-30"/>
       <use xlink:href="#DejaVuSans-2e" transform="translate(63.623047 0)"/>
       <use xlink:href="#DejaVuSans-35" transform="translate(95.410156 0)"/>
      </g>
     </g>
    </g>
   </g>
   <g id="line2d_30">
    <path d="M 54.43 349.907431 
L 57.245485 349.976428 
L 60.060969 349.611496 
L 65.691939 349.514209 
L 71.322908 349.68176 
L 76.953878 350.149881 
L 79.769363 350.71662 
L 91.031302 350.796448 
L 99.477756 351.053683 
L 102.293241 351.263526 
L 105.108725 351.617049 
L 144.525512 351.511193 
L 147.340996 350.796679 
L 152.971966 350.241699 
L 158.602935 349.945802 
L 167.04939 349.791566 
L 175.495844 349.923643 
L 186.757783 350.373442 
L 203.650691 351.253287 
L 206.466176 351.507258 
L 212.097146 351.617031 
L 226.174569 351.613244 
L 228.990054 351.386633 
L 237.436508 351.145312 
L 240.251993 351.104169 
L 243.067478 349.863367 
L 245.882962 349.159483 
L 248.698447 348.258057 
L 251.513932 347.224788 
L 254.329417 346.458694 
L 259.960386 345.250029 
L 265.591356 344.314527 
L 274.03781 343.229997 
L 282.484264 342.433882 
L 288.115234 342.028004 
L 290.930718 344.223481 
L 296.561688 342.8265 
L 302.192657 341.616395 
L 307.823627 340.687221 
L 313.454596 340.099553 
L 319.085566 339.888131 
L 324.716535 340.057286 
L 330.347505 340.570077 
L 335.978474 341.404311 
L 341.609444 342.494574 
L 355.686867 345.404883 
L 361 346.234837 
L 361 346.234837 
" clip-path="url(#pa598dc3565)" style="fill: none; stroke: #ff0000; stroke-width: 1.5; stroke-linecap: square"/>
   </g>
   <g id="line2d_31">
    <path d="M 54.43 347.830247 
L 65.691939 347.536246 
L 71.322908 347.621943 
L 76.953878 347.983358 
L 82.584847 348.657182 
L 85.400332 349.142055 
L 88.215817 349.894915 
L 91.031302 350.35581 
L 96.662271 350.993501 
L 99.477756 351.617045 
L 133.263573 351.617051 
L 136.079057 351.482466 
L 138.894542 350.801379 
L 144.525512 350.165488 
L 150.156481 349.824735 
L 155.787451 349.787782 
L 161.41842 350.031352 
L 169.864874 350.740168 
L 178.311329 351.617051 
L 195.204237 351.616995 
L 198.019722 351.465415 
L 200.835207 351.617051 
L 254.329417 351.61705 
L 259.960386 351.024268 
L 265.591356 350.761727 
L 276.853295 350.456052 
L 279.668779 350.082664 
L 285.299749 349.775844 
L 288.115234 349.69002 
L 290.930718 351.273724 
L 293.746203 351.617044 
L 313.454596 351.617051 
L 316.270081 350.331908 
L 319.085566 349.327868 
L 324.716535 347.961917 
L 327.53202 346.49255 
L 330.347505 345.592354 
L 333.162989 344.845225 
L 338.793959 343.688682 
L 344.424928 342.901323 
L 350.055898 342.403507 
L 355.686867 342.139661 
L 361 342.08797 
L 361 342.08797 
" clip-path="url(#pa598dc3565)" style="fill: none; stroke: #0000ff; stroke-width: 1.5; stroke-linecap: square"/>
   </g>
   <g id="line2d_32">
    <path d="M 54.43 351.617051 
L 290.930718 351.617051 
" clip-path="url(#pa598dc3565)" style="fill: none; stroke: #000000; stroke-width: 0.8; stroke-linecap: square"/>
   </g>
   <g id="line2d_33">
    <path d="M 245.882962 350.874872 
L 248.698447 348.2802 
L 251.513932 346.94886 
L 254.329417 345.931681 
L 257.144901 345.093461 
L 262.775871 343.776931 
L 268.40684 342.776892 
L 276.853295 341.610167 
L 288.115234 340.144632 
L 290.930718 345.558802 
L 293.746203 345.395627 
L 296.561688 345.037488 
L 302.192657 343.957379 
L 310.639111 342.181786 
L 316.270081 341.16614 
L 321.90105 340.353726 
L 327.53202 339.755431 
L 333.162989 339.380079 
L 338.793959 339.255543 
L 347.240413 339.422862 
L 358.502352 339.893709 
L 361 340.03492 
L 361 340.03492 
" clip-path="url(#pa598dc3565)" style="fill: none; stroke-dasharray: 5.55,2.4; stroke-dashoffset: 0; stroke: #000000; stroke-width: 1.5"/>
   </g>
   <g id="line2d_34">
    <path d="M 110.739695 352.449881 
L 110.739695 299.565179 
" clip-path="url(#pa598dc3565)" style="fill: none; stroke: #000000; stroke-width: 0.8; stroke-linecap: square"/>
   </g>
   <g id="patch_12">
    <path d="M 54.43 351.617051 
L 54.43 299.565179 
" style="fill: none; stroke: #000000; stroke-width: 0.8; stroke-linejoin: miter; stroke-linecap: square"/>
   </g>
   <g id="text_12">
    <!-- alpha -->
    <g transform="translate(156.048172 293.565179) scale(0.12 -0.12)">
     <use xlink:href="#DejaVuSans-61"/>
     <use xlink:href="#DejaVuSans-6c" transform="translate(61.279297 0)"/>
     <use xlink:href="#DejaVuSans-70" transform="translate(89.0625 0)"/>
     <use xlink:href="#DejaVuSans-68" transform="translate(152.539062 0)"/>
     <use xlink:href="#DejaVuSans-61" transform="translate(215.917969 0)"/>
    </g>
   </g>
  </g>
  <g id="axes_8">
   <g id="patch_13">
    <path d="M 304.519466 352.449881 
L 343.936252 352.449881 
L 343.936252 299.565179 
L 304.519466 299.565179 
z
" style="fill: #ffffff"/>
   </g>
   <g id="matplotlib.axis_15">
    <g id="xtick_11"/>
    <g id="xtick_12"/>
   </g>
   <g id="matplotlib.axis_16">
    <g id="ytick_15"/>
    <g id="ytick_16"/>
   </g>
   <g id="line2d_35">
    <path d="M 310.150435 350.442884 
L 338.305283 349.382493 
" clip-path="url(#pbf112be1af)" style="fill: none; stroke: #ff0000; stroke-width: 1.5; stroke-linecap: square"/>
    <g clip-path="url(#pbf112be1af)">
     <use xlink:href="#ma98730b9b7" x="310.150435" y="350.442884" style="fill: #ff0000; stroke: #ff0000; stroke-linejoin: miter"/>
     <use xlink:href="#ma98730b9b7" x="338.305283" y="349.382493" style="fill: #ff0000; stroke: #ff0000; stroke-linejoin: miter"/>
    </g>
   </g>
   <g id="line2d_36">
    <path d="M 310.150435 349.183045 
L 338.305283 351.115509 
" clip-path="url(#pbf112be1af)" style="fill: none; stroke: #0000ff; stroke-width: 1.5; stroke-linecap: square"/>
    <g clip-path="url(#pbf112be1af)">
     <use xlink:href="#meafe6e4b83" x="310.150435" y="349.183045" style="fill: #0000ff; stroke: #0000ff; stroke-linejoin: miter"/>
     <use xlink:href="#meafe6e4b83" x="338.305283" y="351.115509" style="fill: #0000ff; stroke: #0000ff; stroke-linejoin: miter"/>
    </g>
   </g>
  </g>
  <g id="axes_9">
   <g id="patch_14">
    <path d="M 54.43 435.42494 
L 290.930718 435.42494 
L 290.930718 382.540239 
L 54.43 382.540239 
z
" style="fill: #ffffff"/>
   </g>
   <g id="matplotlib.axis_17">
    <g id="xtick_13"/>
   </g>
   <g id="matplotlib.axis_18">
    <g id="ytick_17">
     <g id="line2d_37">
      <g>
       <use xlink:href="#m41414ea6c3" x="54.43" y="434.59211" style="stroke: #000000; stroke-width: 0.8"/>
      </g>
     </g>
     <g id="text_13">
      <!-- 0.0 -->
      <g transform="translate(31.526875 438.391329) scale(0.1 -0.1)">
       <use xlink:href="#DejaVuSans-30"/>
       <use xlink:href="#DejaVuSans-2e" transform="translate(63.623047 0)"/>
       <use xlink:href="#DejaVuSans-30" transform="translate(95.410156 0)"/>
      </g>
     </g>
    </g>
    <g id="ytick_18">
     <g id="line2d_38">
      <g>
       <use xlink:href="#m41414ea6c3" x="54.43" y="382.540239" style="stroke: #000000; stroke-width: 0.8"/>
      </g>
     </g>
     <g id="text_14">
      <!-- 0.5 -->
      <g transform="translate(31.526875 386.339457) scale(0.1 -0.1)">
       <use xlink:href="#DejaVuSans-30"/>
       <use xlink:href="#DejaVuSans-2e" transform="translate(63.623047 0)"/>
       <use xlink:href="#DejaVuSans-35" transform="translate(95.410156 0)"/>
      </g>
     </g>
    </g>
   </g>
   <g id="line2d_39">
    <path d="M 54.43 432.12539 
L 57.245485 432.465548 
L 60.060969 433.219365 
L 62.876454 434.236042 
L 65.691939 434.592108 
L 74.138393 434.592099 
L 76.953878 434.25235 
L 79.769363 432.77288 
L 82.584847 431.431044 
L 85.400332 430.668698 
L 88.215817 430.772259 
L 91.031302 431.64691 
L 96.662271 433.001862 
L 99.477756 434.131539 
L 110.739695 434.047304 
L 113.55518 433.713269 
L 116.370664 433.71523 
L 119.186149 433.971168 
L 122.001634 434.592098 
L 124.817119 434.066222 
L 127.632603 433.809092 
L 130.448088 433.758714 
L 133.263573 433.849341 
L 136.079057 434.383917 
L 138.894542 434.59211 
L 144.525512 434.592085 
L 147.340996 434.057865 
L 150.156481 433.300592 
L 152.971966 433.218825 
L 158.602935 434.106079 
L 164.233905 434.20229 
L 169.864874 433.967287 
L 172.680359 433.499281 
L 175.495844 433.210041 
L 178.311329 432.507928 
L 183.942298 432.012571 
L 186.757783 432.40828 
L 189.573268 433.465765 
L 192.388752 433.941269 
L 195.204237 434.592102 
L 203.650691 434.592089 
L 206.466176 433.625404 
L 209.281661 432.44157 
L 212.097146 431.831265 
L 217.728115 431.12482 
L 220.5436 431.084214 
L 223.359084 431.315073 
L 226.174569 431.865769 
L 228.990054 432.989622 
L 231.805539 432.255359 
L 234.621023 432.183792 
L 237.436508 431.76845 
L 243.067478 431.307425 
L 245.882962 431.263058 
L 248.698447 431.43872 
L 251.513932 431.408474 
L 254.329417 431.167569 
L 257.144901 430.565074 
L 259.960386 429.605054 
L 262.775871 428.455782 
L 265.591356 427.623677 
L 268.40684 427.136786 
L 271.222325 426.914987 
L 276.853295 426.811959 
L 279.668779 426.930001 
L 288.115234 428.142392 
L 290.930718 430.744436 
L 293.746203 429.224488 
L 296.561688 427.110982 
L 299.377172 425.348414 
L 302.192657 423.175738 
L 305.008142 421.556495 
L 307.823627 420.298386 
L 310.639111 419.467605 
L 313.454596 419.092648 
L 316.270081 419.06741 
L 321.90105 419.546961 
L 324.716535 419.948385 
L 333.162989 421.553277 
L 335.978474 422.22387 
L 338.793959 423.046371 
L 341.609444 423.999311 
L 344.424928 425.172734 
L 347.240413 426.685125 
L 350.055898 428.57483 
L 352.871383 430.641038 
L 358.502352 431.826583 
L 361 432.233979 
L 361 432.233979 
" clip-path="url(#p178e9d87bd)" style="fill: none; stroke: #ff0000; stroke-width: 1.5; stroke-linecap: square"/>
   </g>
   <g id="line2d_40">
    <path d="M 54.43 428.895724 
L 60.060969 429.820771 
L 62.876454 430.511816 
L 65.691939 430.804519 
L 68.507424 430.981411 
L 71.322908 431.582781 
L 85.400332 431.66723 
L 91.031302 432.27638 
L 93.846786 432.148515 
L 99.477756 431.101607 
L 105.108725 430.270989 
L 113.55518 429.326133 
L 119.186149 429.031506 
L 127.632603 428.131932 
L 133.263573 427.93149 
L 138.894542 427.918263 
L 141.710027 427.937845 
L 144.525512 428.335672 
L 147.340996 428.932211 
L 150.156481 429.764726 
L 155.787451 430.592537 
L 161.41842 431.098072 
L 167.04939 430.794161 
L 169.864874 430.475944 
L 172.680359 430.560181 
L 175.495844 431.143411 
L 178.311329 432.066757 
L 183.942298 433.261643 
L 186.757783 433.521898 
L 189.573268 433.094062 
L 192.388752 432.372446 
L 195.204237 431.846769 
L 198.019722 431.499298 
L 206.466176 431.418527 
L 212.097146 432.081243 
L 217.728115 432.648893 
L 220.5436 432.448982 
L 223.359084 431.831577 
L 228.990054 431.484062 
L 231.805539 431.381578 
L 234.621023 431.39859 
L 240.251993 431.721724 
L 243.067478 431.812067 
L 245.882962 431.77931 
L 251.513932 431.564515 
L 257.144901 431.71909 
L 259.960386 431.952028 
L 262.775871 431.735197 
L 265.591356 431.284593 
L 268.40684 430.962623 
L 271.222325 430.897981 
L 276.853295 431.292697 
L 279.668779 431.290927 
L 282.484264 431.507265 
L 285.299749 431.835232 
L 288.115234 432.281546 
L 290.930718 433.121378 
L 293.746203 433.219401 
L 296.561688 433.508192 
L 299.377172 434.107975 
L 302.192657 433.724272 
L 305.008142 432.7364 
L 307.823627 432.155207 
L 310.639111 430.941191 
L 313.454596 430.304174 
L 321.90105 429.638041 
L 324.716535 429.573588 
L 327.53202 429.818128 
L 330.347505 430.335139 
L 333.162989 431.115828 
L 335.978474 432.087938 
L 344.424928 433.206112 
L 347.240413 433.196447 
L 352.871383 432.562297 
L 358.502352 431.329968 
L 361 430.937189 
L 361 430.937189 
" clip-path="url(#p178e9d87bd)" style="fill: none; stroke: #0000ff; stroke-width: 1.5; stroke-linecap: square"/>
   </g>
   <g id="line2d_41">
    <path d="M 54.43 434.59211 
L 290.930718 434.59211 
" clip-path="url(#p178e9d87bd)" style="fill: none; stroke: #000000; stroke-width: 0.8; stroke-linecap: square"/>
   </g>
   <g id="line2d_42">
    <path d="M 54.43 430.457713 
L 57.245485 433.754131 
M 82.584847 430.203553 
L 85.400332 428.664645 
L 88.215817 428.254332 
L 91.031302 428.954968 
L 93.846786 430.610887 
M 110.739695 431.011949 
L 113.55518 428.642196 
L 116.370664 427.062771 
L 119.186149 425.834954 
L 122.001634 424.985069 
L 124.817119 424.601388 
L 130.448088 424.116613 
L 133.263573 424.084088 
L 136.079057 424.406525 
L 138.894542 425.094965 
L 144.525512 427.059184 
L 147.340996 428.136779 
L 150.156481 429.341402 
L 152.971966 431.02598 
M 164.233905 432.780362 
L 167.04939 429.226065 
L 169.864874 427.067006 
L 172.680359 425.832425 
L 175.495844 425.358437 
L 178.311329 425.386647 
L 181.126813 425.720631 
L 186.757783 426.925537 
L 192.388752 427.651413 
L 195.204237 428.562792 
L 198.019722 430.199978 
L 200.835207 433.141666 
M 220.5436 432.887861 
L 223.359084 431.882362 
L 231.805539 431.269299 
L 234.621023 431.276862 
L 237.436508 431.46152 
L 240.251993 431.392719 
L 243.067478 430.933515 
L 245.882962 430.100321 
L 248.698447 429.030759 
L 251.513932 427.775283 
L 262.775871 422.029336 
L 265.591356 420.838354 
L 268.40684 420.18774 
L 271.222325 420.107574 
L 274.03781 420.342323 
L 276.853295 420.746131 
L 279.668779 421.386696 
L 285.299749 422.891358 
L 288.115234 423.365804 
L 290.930718 431.248961 
L 293.746203 428.822925 
L 299.377172 424.595393 
L 302.192657 422.634989 
L 305.008142 420.830538 
L 307.823627 419.229135 
L 310.639111 417.945866 
L 313.454596 417.173333 
L 316.270081 416.946348 
L 319.085566 417.145323 
L 321.90105 417.666271 
L 324.716535 418.476342 
L 335.978474 422.501303 
L 341.609444 424.252008 
L 344.424928 425.255153 
L 347.240413 426.425492 
L 350.055898 427.412829 
L 352.871383 427.805482 
L 358.502352 427.772376 
L 361 427.550914 
L 361 427.550914 
" clip-path="url(#p178e9d87bd)" style="fill: none; stroke-dasharray: 5.55,2.4; stroke-dashoffset: 0; stroke: #000000; stroke-width: 1.5"/>
   </g>
   <g id="line2d_43">
    <path d="M 110.739695 435.42494 
L 110.739695 382.540239 
" clip-path="url(#p178e9d87bd)" style="fill: none; stroke: #000000; stroke-width: 0.8; stroke-linecap: square"/>
   </g>
   <g id="patch_15">
    <path d="M 54.43 434.59211 
L 54.43 382.540239 
" style="fill: none; stroke: #000000; stroke-width: 0.8; stroke-linejoin: miter; stroke-linecap: square"/>
   </g>
   <g id="text_15">
    <!-- beta -->
    <g transform="translate(159.150359 376.540239) scale(0.12 -0.12)">
     <use xlink:href="#DejaVuSans-62"/>
     <use xlink:href="#DejaVuSans-65" transform="translate(63.476562 0)"/>
     <use xlink:href="#DejaVuSans-74" transform="translate(125 0)"/>
     <use xlink:href="#DejaVuSans-61" transform="translate(164.208984 0)"/>
    </g>
   </g>
  </g>
  <g id="axes_10">
   <g id="patch_16">
    <path d="M 304.519466 435.42494 
L 343.936252 435.42494 
L 343.936252 382.540239 
L 304.519466 382.540239 
z
" style="fill: #ffffff"/>
   </g>
   <g id="matplotlib.axis_19">
    <g id="xtick_14"/>
    <g id="xtick_15"/>
   </g>
   <g id="matplotlib.axis_20">
    <g id="ytick_19"/>
    <g id="ytick_20"/>
   </g>
   <g id="line2d_44">
    <path d="M 310.150435 433.181606 
L 338.305283 432.130681 
" clip-path="url(#p9b33f38fda)" style="fill: none; stroke: #ff0000; stroke-width: 1.5; stroke-linecap: square"/>
    <g clip-path="url(#p9b33f38fda)">
     <use xlink:href="#ma98730b9b7" x="310.150435" y="433.181606" style="fill: #ff0000; stroke: #ff0000; stroke-linejoin: miter"/>
     <use xlink:href="#ma98730b9b7" x="338.305283" y="432.130681" style="fill: #ff0000; stroke: #ff0000; stroke-linejoin: miter"/>
    </g>
   </g>
   <g id="line2d_45">
    <path d="M 310.150435 430.986033 
L 338.305283 430.919599 
" clip-path="url(#p9b33f38fda)" style="fill: none; stroke: #0000ff; stroke-width: 1.5; stroke-linecap: square"/>
    <g clip-path="url(#p9b33f38fda)">
     <use xlink:href="#meafe6e4b83" x="310.150435" y="430.986033" style="fill: #0000ff; stroke: #0000ff; stroke-linejoin: miter"/>
     <use xlink:href="#meafe6e4b83" x="338.305283" y="430.919599" style="fill: #0000ff; stroke: #0000ff; stroke-linejoin: miter"/>
    </g>
   </g>
  </g>
  <g id="axes_11">
   <g id="patch_17">
    <path d="M 54.43 518.4 
L 290.930718 518.4 
L 290.930718 465.515298 
L 54.43 465.515298 
z
" style="fill: #ffffff"/>
   </g>
   <g id="matplotlib.axis_21">
    <g id="xtick_16">
     <g id="text_16">
      <!-- Cue -->
      <g transform="translate(101.002976 532.998437) scale(0.1 -0.1)">
       <defs>
        <path id="DejaVuSans-43" d="M 4122 4306 
L 4122 3641 
Q 3803 3938 3442 4084 
Q 3081 4231 2675 4231 
Q 1875 4231 1450 3742 
Q 1025 3253 1025 2328 
Q 1025 1406 1450 917 
Q 1875 428 2675 428 
Q 3081 428 3442 575 
Q 3803 722 4122 1019 
L 4122 359 
Q 3791 134 3420 21 
Q 3050 -91 2638 -91 
Q 1578 -91 968 557 
Q 359 1206 359 2328 
Q 359 3453 968 4101 
Q 1578 4750 2638 4750 
Q 3056 4750 3426 4639 
Q 3797 4528 4122 4306 
z
" transform="scale(0.015625)"/>
        <path id="DejaVuSans-75" d="M 544 1381 
L 544 3500 
L 1119 3500 
L 1119 1403 
Q 1119 906 1312 657 
Q 1506 409 1894 409 
Q 2359 409 2629 706 
Q 2900 1003 2900 1516 
L 2900 3500 
L 3475 3500 
L 3475 0 
L 2900 0 
L 2900 538 
Q 2691 219 2414 64 
Q 2138 -91 1772 -91 
Q 1169 -91 856 284 
Q 544 659 544 1381 
z
M 1991 3584 
L 1991 3584 
z
" transform="scale(0.015625)"/>
       </defs>
       <use xlink:href="#DejaVuSans-43"/>
       <use xlink:href="#DejaVuSans-75" transform="translate(69.824219 0)"/>
       <use xlink:href="#DejaVuSans-65" transform="translate(133.203125 0)"/>
      </g>
     </g>
    </g>
   </g>
   <g id="matplotlib.axis_22">
    <g id="ytick_21">
     <g id="line2d_46">
      <g>
       <use xlink:href="#m41414ea6c3" x="54.43" y="517.56717" style="stroke: #000000; stroke-width: 0.8"/>
      </g>
     </g>
     <g id="text_17">
      <!-- 0.0 -->
      <g transform="translate(31.526875 521.366389) scale(0.1 -0.1)">
       <use xlink:href="#DejaVuSans-30"/>
       <use xlink:href="#DejaVuSans-2e" transform="translate(63.623047 0)"/>
       <use xlink:href="#DejaVuSans-30" transform="translate(95.410156 0)"/>
      </g>
     </g>
    </g>
    <g id="ytick_22">
     <g id="line2d_47">
      <g>
       <use xlink:href="#m41414ea6c3" x="54.43" y="465.515298" style="stroke: #000000; stroke-width: 0.8"/>
      </g>
     </g>
     <g id="text_18">
      <!-- 0.5 -->
      <g transform="translate(31.526875 469.314517) scale(0.1 -0.1)">
       <use xlink:href="#DejaVuSans-30"/>
       <use xlink:href="#DejaVuSans-2e" transform="translate(63.623047 0)"/>
       <use xlink:href="#DejaVuSans-35" transform="translate(95.410156 0)"/>
      </g>
     </g>
    </g>
   </g>
   <g id="line2d_48">
    <path d="M 54.43 515.960417 
L 57.245485 515.381461 
L 60.060969 516.051709 
L 62.876454 517.043866 
L 65.691939 517.417121 
L 68.507424 516.800875 
L 71.322908 516.991357 
L 74.138393 516.342135 
L 76.953878 516.857079 
L 79.769363 517.567158 
L 82.584847 517.174984 
L 85.400332 516.928216 
L 88.215817 515.114368 
L 91.031302 514.713479 
L 93.846786 515.233849 
L 96.662271 515.050549 
L 99.477756 516.626866 
L 102.293241 517.567169 
L 107.92421 517.567164 
L 110.739695 516.752438 
L 113.55518 514.635952 
L 116.370664 514.345789 
L 119.186149 515.886244 
L 122.001634 516.194253 
L 124.817119 514.284979 
L 127.632603 514.17035 
L 130.448088 513.592583 
L 133.263573 515.527369 
L 136.079057 516.462705 
L 138.894542 516.625603 
L 141.710027 517.56716 
L 144.525512 517.567156 
L 147.340996 517.4535 
L 150.156481 516.487896 
L 152.971966 515.940937 
L 155.787451 516.411377 
L 158.602935 517.16263 
L 161.41842 516.656554 
L 164.233905 515.060754 
L 167.04939 516.682159 
L 169.864874 517.567158 
L 172.680359 515.467055 
L 175.495844 513.608851 
L 178.311329 512.014461 
L 181.126813 511.034696 
L 183.942298 511.529109 
L 186.757783 513.428703 
L 189.573268 516.617492 
L 192.388752 517.567162 
L 198.019722 517.499285 
L 200.835207 517.284357 
L 206.466176 516.288321 
L 209.281661 516.820512 
L 212.097146 517.567158 
L 214.91263 516.154062 
L 217.728115 512.975381 
L 220.5436 513.385362 
L 223.359084 516.622327 
L 226.174569 517.567158 
L 228.990054 517.567166 
L 231.805539 517.000806 
L 234.621023 516.777325 
L 237.436508 516.103994 
L 240.251993 516.529971 
L 245.882962 513.350128 
L 248.698447 513.976891 
L 251.513932 513.802988 
L 254.329417 514.391594 
L 257.144901 515.344576 
L 259.960386 515.124247 
L 262.775871 516.479495 
L 265.591356 516.885899 
L 268.40684 517.069912 
L 271.222325 515.753687 
L 274.03781 514.720739 
L 276.853295 514.540351 
L 279.668779 515.50374 
L 282.484264 515.163547 
L 285.299749 514.358839 
L 288.115234 513.868487 
L 290.930718 515.213332 
L 293.746203 517.56717 
L 296.561688 516.833197 
L 299.377172 516.688661 
L 302.192657 516.04251 
L 305.008142 512.014613 
L 307.823627 507.15846 
L 310.639111 508.290945 
L 313.454596 511.337589 
L 316.270081 512.552871 
L 319.085566 512.916211 
L 321.90105 512.920168 
L 324.716535 514.987404 
L 327.53202 514.811335 
L 330.347505 516.573141 
L 333.162989 517.567169 
L 335.978474 517.56717 
L 338.793959 516.840084 
L 341.609444 514.059146 
L 344.424928 514.803894 
L 347.240413 517.189422 
L 350.055898 516.778771 
L 352.871383 515.030277 
L 355.686867 517.142207 
L 361 517.544084 
L 361 517.544084 
" clip-path="url(#p3de0b8374f)" style="fill: none; stroke: #ff0000; stroke-width: 1.5; stroke-linecap: square"/>
   </g>
   <g id="line2d_49">
    <path d="M 54.43 515.596744 
L 57.245485 515.168152 
L 60.060969 513.115171 
L 62.876454 510.766482 
L 65.691939 511.645667 
L 68.507424 514.793747 
L 71.322908 516.796966 
L 74.138393 516.620131 
L 76.953878 513.448942 
L 79.769363 512.266039 
L 82.584847 513.402149 
L 85.400332 514.865232 
L 88.215817 516.869899 
L 91.031302 517.308538 
L 93.846786 517.567141 
L 96.662271 517.567147 
L 99.477756 517.401694 
L 102.293241 517.567156 
L 110.739695 517.567166 
L 113.55518 517.378332 
L 116.370664 514.955573 
L 119.186149 513.327834 
L 124.817119 513.935191 
L 130.448088 516.029499 
L 133.263573 516.516476 
L 136.079057 514.843383 
L 138.894542 514.028162 
L 141.710027 514.768728 
L 152.971966 516.22205 
L 155.787451 516.078169 
L 158.602935 515.793051 
L 161.41842 515.71123 
L 164.233905 513.659451 
L 167.04939 513.536019 
L 169.864874 515.066198 
L 172.680359 516.322192 
L 175.495844 516.104832 
L 178.311329 515.364595 
L 181.126813 513.293288 
L 183.942298 514.31079 
L 186.757783 517.567153 
L 189.573268 517.057786 
L 192.388752 515.958731 
L 195.204237 515.148106 
L 198.019722 516.454774 
L 200.835207 517.567147 
L 206.466176 517.567147 
L 209.281661 517.000664 
L 212.097146 514.704376 
L 214.91263 513.720805 
L 217.728115 514.47389 
L 223.359084 515.308904 
L 226.174569 516.371816 
L 228.990054 516.13677 
L 231.805539 517.133139 
L 234.621023 517.567162 
L 240.251993 517.567158 
L 243.067478 516.380119 
L 245.882962 513.133881 
L 248.698447 514.301571 
L 251.513932 516.948502 
L 254.329417 517.567156 
L 257.144901 516.790205 
L 259.960386 517.567162 
L 262.775871 517.076053 
L 265.591356 516.764689 
L 268.40684 517.134218 
L 271.222325 517.170292 
L 276.853295 517.567169 
L 279.668779 517.400882 
L 282.484264 516.513265 
L 285.299749 516.517788 
L 288.115234 515.723386 
L 290.930718 517.286597 
L 293.746203 517.101288 
L 296.561688 516.41971 
L 299.377172 513.242927 
L 302.192657 509.160044 
L 305.008142 509.271062 
L 307.823627 511.548754 
L 310.639111 515.059744 
L 313.454596 515.432746 
L 316.270081 515.084736 
L 319.085566 515.354346 
L 321.90105 514.548041 
L 324.716535 515.079937 
L 327.53202 516.541842 
L 330.347505 515.645538 
L 335.978474 516.799362 
L 338.793959 516.285188 
L 341.609444 515.466366 
L 344.424928 516.386542 
L 347.240413 515.567226 
L 350.055898 515.557982 
L 352.871383 515.874474 
L 355.686867 515.248661 
L 358.502352 515.265352 
L 361 516.099122 
L 361 516.099122 
" clip-path="url(#p3de0b8374f)" style="fill: none; stroke: #0000ff; stroke-width: 1.5; stroke-linecap: square"/>
   </g>
   <g id="line2d_50">
    <path d="M 54.43 517.56717 
L 290.930718 517.56717 
" clip-path="url(#p3de0b8374f)" style="fill: none; stroke: #000000; stroke-width: 0.8; stroke-linecap: square"/>
   </g>
   <g id="line2d_51">
    <path d="M 54.43 512.19211 
L 57.245485 509.722294 
L 60.060969 508.325251 
L 62.876454 509.563059 
L 65.691939 511.941292 
M 85.400332 516.192336 
L 88.215817 510.899336 
L 91.031302 513.035876 
M 116.370664 512.387438 
L 119.186149 510.812715 
L 122.001634 511.424005 
L 124.817119 511.18794 
L 127.632603 512.853959 
M 136.079057 514.297821 
L 138.894542 511.722958 
L 141.710027 510.794607 
L 144.525512 510.544839 
L 147.340996 512.455926 
M 164.233905 516.26138 
L 167.04939 512.438004 
L 169.864874 512.98024 
L 172.680359 511.510986 
L 175.495844 511.871613 
L 178.311329 510.449542 
L 181.126813 508.810019 
L 183.942298 509.077499 
L 186.757783 511.928084 
L 189.573268 510.145258 
L 192.388752 510.263246 
L 198.019722 514.14427 
M 214.91263 514.146652 
L 217.728115 511.791019 
L 220.5436 515.72938 
M 257.144901 511.587694 
L 259.960386 507.39007 
L 262.775871 509.608333 
M 302.192657 512.232061 
L 305.008142 509.013788 
L 307.823627 506.756356 
L 310.639111 506.536567 
L 313.454596 508.759525 
L 316.270081 509.753064 
L 319.085566 509.665514 
L 321.90105 511.176856 
L 324.716535 513.345308 
L 327.53202 513.641419 
L 330.347505 515.335729 
M 344.424928 516.733412 
" clip-path="url(#p3de0b8374f)" style="fill: none; stroke-dasharray: 5.55,2.4; stroke-dashoffset: 0; stroke: #000000; stroke-width: 1.5"/>
   </g>
   <g id="line2d_52">
    <path d="M 110.739695 518.4 
L 110.739695 465.515298 
" clip-path="url(#p3de0b8374f)" style="fill: none; stroke: #000000; stroke-width: 0.8; stroke-linecap: square"/>
   </g>
   <g id="patch_18">
    <path d="M 54.43 517.56717 
L 54.43 465.515298 
" style="fill: none; stroke: #000000; stroke-width: 0.8; stroke-linejoin: miter; stroke-linecap: square"/>
   </g>
   <g id="text_19">
    <!-- gamma -->
    <g transform="translate(149.828797 459.515298) scale(0.12 -0.12)">
     <defs>
      <path id="DejaVuSans-67" d="M 2906 1791 
Q 2906 2416 2648 2759 
Q 2391 3103 1925 3103 
Q 1463 3103 1205 2759 
Q 947 2416 947 1791 
Q 947 1169 1205 825 
Q 1463 481 1925 481 
Q 2391 481 2648 825 
Q 2906 1169 2906 1791 
z
M 3481 434 
Q 3481 -459 3084 -895 
Q 2688 -1331 1869 -1331 
Q 1566 -1331 1297 -1286 
Q 1028 -1241 775 -1147 
L 775 -588 
Q 1028 -725 1275 -790 
Q 1522 -856 1778 -856 
Q 2344 -856 2625 -561 
Q 2906 -266 2906 331 
L 2906 616 
Q 2728 306 2450 153 
Q 2172 0 1784 0 
Q 1141 0 747 490 
Q 353 981 353 1791 
Q 353 2603 747 3093 
Q 1141 3584 1784 3584 
Q 2172 3584 2450 3431 
Q 2728 3278 2906 2969 
L 2906 3500 
L 3481 3500 
L 3481 434 
z
" transform="scale(0.015625)"/>
      <path id="DejaVuSans-6d" d="M 3328 2828 
Q 3544 3216 3844 3400 
Q 4144 3584 4550 3584 
Q 5097 3584 5394 3201 
Q 5691 2819 5691 2113 
L 5691 0 
L 5113 0 
L 5113 2094 
Q 5113 2597 4934 2840 
Q 4756 3084 4391 3084 
Q 3944 3084 3684 2787 
Q 3425 2491 3425 1978 
L 3425 0 
L 2847 0 
L 2847 2094 
Q 2847 2600 2669 2842 
Q 2491 3084 2119 3084 
Q 1678 3084 1418 2786 
Q 1159 2488 1159 1978 
L 1159 0 
L 581 0 
L 581 3500 
L 1159 3500 
L 1159 2956 
Q 1356 3278 1631 3431 
Q 1906 3584 2284 3584 
Q 2666 3584 2933 3390 
Q 3200 3197 3328 2828 
z
" transform="scale(0.015625)"/>
     </defs>
     <use xlink:href="#DejaVuSans-67"/>
     <use xlink:href="#DejaVuSans-61" transform="translate(63.476562 0)"/>
     <use xlink:href="#DejaVuSans-6d" transform="translate(124.755859 0)"/>
     <use xlink:href="#DejaVuSans-6d" transform="translate(222.167969 0)"/>
     <use xlink:href="#DejaVuSans-61" transform="translate(319.580078 0)"/>
    </g>
   </g>
  </g>
  <g id="axes_12">
   <g id="patch_19">
    <path d="M 304.519466 518.4 
L 343.936252 518.4 
L 343.936252 465.515298 
L 304.519466 465.515298 
z
" style="fill: #ffffff"/>
   </g>
   <g id="matplotlib.axis_23">
    <g id="xtick_17">
     <g id="text_20">
      <!-- Pre -->
      <g transform="translate(302.20356 532.998437) scale(0.1 -0.1)">
       <defs>
        <path id="DejaVuSans-50" d="M 1259 4147 
L 1259 2394 
L 2053 2394 
Q 2494 2394 2734 2622 
Q 2975 2850 2975 3272 
Q 2975 3691 2734 3919 
Q 2494 4147 2053 4147 
L 1259 4147 
z
M 628 4666 
L 2053 4666 
Q 2838 4666 3239 4311 
Q 3641 3956 3641 3272 
Q 3641 2581 3239 2228 
Q 2838 1875 2053 1875 
L 1259 1875 
L 1259 0 
L 628 0 
L 628 4666 
z
" transform="scale(0.015625)"/>
        <path id="DejaVuSans-72" d="M 2631 2963 
Q 2534 3019 2420 3045 
Q 2306 3072 2169 3072 
Q 1681 3072 1420 2755 
Q 1159 2438 1159 1844 
L 1159 0 
L 581 0 
L 581 3500 
L 1159 3500 
L 1159 2956 
Q 1341 3275 1631 3429 
Q 1922 3584 2338 3584 
Q 2397 3584 2469 3576 
Q 2541 3569 2628 3553 
L 2631 2963 
z
" transform="scale(0.015625)"/>
       </defs>
       <use xlink:href="#DejaVuSans-50"/>
       <use xlink:href="#DejaVuSans-72" transform="translate(58.552734 0)"/>
       <use xlink:href="#DejaVuSans-65" transform="translate(97.416016 0)"/>
      </g>
     </g>
    </g>
    <g id="xtick_18">
     <g id="text_21">
      <!-- Post -->
      <g transform="translate(327.84747 532.998437) scale(0.1 -0.1)">
       <defs>
        <path id="DejaVuSans-6f" d="M 1959 3097 
Q 1497 3097 1228 2736 
Q 959 2375 959 1747 
Q 959 1119 1226 758 
Q 1494 397 1959 397 
Q 2419 397 2687 759 
Q 2956 1122 2956 1747 
Q 2956 2369 2687 2733 
Q 2419 3097 1959 3097 
z
M 1959 3584 
Q 2709 3584 3137 3096 
Q 3566 2609 3566 1747 
Q 3566 888 3137 398 
Q 2709 -91 1959 -91 
Q 1206 -91 779 398 
Q 353 888 353 1747 
Q 353 2609 779 3096 
Q 1206 3584 1959 3584 
z
" transform="scale(0.015625)"/>
        <path id="DejaVuSans-73" d="M 2834 3397 
L 2834 2853 
Q 2591 2978 2328 3040 
Q 2066 3103 1784 3103 
Q 1356 3103 1142 2972 
Q 928 2841 928 2578 
Q 928 2378 1081 2264 
Q 1234 2150 1697 2047 
L 1894 2003 
Q 2506 1872 2764 1633 
Q 3022 1394 3022 966 
Q 3022 478 2636 193 
Q 2250 -91 1575 -91 
Q 1294 -91 989 -36 
Q 684 19 347 128 
L 347 722 
Q 666 556 975 473 
Q 1284 391 1588 391 
Q 1994 391 2212 530 
Q 2431 669 2431 922 
Q 2431 1156 2273 1281 
Q 2116 1406 1581 1522 
L 1381 1569 
Q 847 1681 609 1914 
Q 372 2147 372 2553 
Q 372 3047 722 3315 
Q 1072 3584 1716 3584 
Q 2034 3584 2315 3537 
Q 2597 3491 2834 3397 
z
" transform="scale(0.015625)"/>
       </defs>
       <use xlink:href="#DejaVuSans-50"/>
       <use xlink:href="#DejaVuSans-6f" transform="translate(56.677734 0)"/>
       <use xlink:href="#DejaVuSans-73" transform="translate(117.859375 0)"/>
       <use xlink:href="#DejaVuSans-74" transform="translate(169.958984 0)"/>
      </g>
     </g>
    </g>
   </g>
   <g id="matplotlib.axis_24">
    <g id="ytick_23"/>
    <g id="ytick_24"/>
   </g>
   <g id="line2d_53">
    <path d="M 310.150435 516.497848 
L 338.305283 515.625705 
" clip-path="url(#pe515fb69c7)" style="fill: none; stroke: #ff0000; stroke-width: 1.5; stroke-linecap: square"/>
    <g clip-path="url(#pe515fb69c7)">
     <use xlink:href="#ma98730b9b7" x="310.150435" y="516.497848" style="fill: #ff0000; stroke: #ff0000; stroke-linejoin: miter"/>
     <use xlink:href="#ma98730b9b7" x="338.305283" y="515.625705" style="fill: #ff0000; stroke: #ff0000; stroke-linejoin: miter"/>
    </g>
   </g>
   <g id="line2d_54">
    <path d="M 310.150435 515.395066 
L 338.305283 515.924197 
" clip-path="url(#pe515fb69c7)" style="fill: none; stroke: #0000ff; stroke-width: 1.5; stroke-linecap: square"/>
    <g clip-path="url(#pe515fb69c7)">
     <use xlink:href="#meafe6e4b83" x="310.150435" y="515.395066" style="fill: #0000ff; stroke: #0000ff; stroke-linejoin: miter"/>
     <use xlink:href="#meafe6e4b83" x="338.305283" y="515.924197" style="fill: #0000ff; stroke: #0000ff; stroke-linejoin: miter"/>
    </g>
   </g>
  </g>
  <g id="text_22">
   <!-- variance (a.u.) -->
   <g transform="translate(14.798438 324.428125) rotate(-90) scale(0.1 -0.1)">
    <defs>
     <path id="DejaVuSans-76" d="M 191 3500 
L 800 3500 
L 1894 563 
L 2988 3500 
L 3597 3500 
L 2284 0 
L 1503 0 
L 191 3500 
z
" transform="scale(0.015625)"/>
     <path id="DejaVuSans-69" d="M 603 3500 
L 1178 3500 
L 1178 0 
L 603 0 
L 603 3500 
z
M 603 4863 
L 1178 4863 
L 1178 4134 
L 603 4134 
L 603 4863 
z
" transform="scale(0.015625)"/>
     <path id="DejaVuSans-6e" d="M 3513 2113 
L 3513 0 
L 2938 0 
L 2938 2094 
Q 2938 2591 2744 2837 
Q 2550 3084 2163 3084 
Q 1697 3084 1428 2787 
Q 1159 2491 1159 1978 
L 1159 0 
L 581 0 
L 581 3500 
L 1159 3500 
L 1159 2956 
Q 1366 3272 1645 3428 
Q 1925 3584 2291 3584 
Q 2894 3584 3203 3211 
Q 3513 2838 3513 2113 
z
" transform="scale(0.015625)"/>
     <path id="DejaVuSans-63" d="M 3122 3366 
L 3122 2828 
Q 2878 2963 2633 3030 
Q 2388 3097 2138 3097 
Q 1578 3097 1268 2742 
Q 959 2388 959 1747 
Q 959 1106 1268 751 
Q 1578 397 2138 397 
Q 2388 397 2633 464 
Q 2878 531 3122 666 
L 3122 134 
Q 2881 22 2623 -34 
Q 2366 -91 2075 -91 
Q 1284 -91 818 406 
Q 353 903 353 1747 
Q 353 2603 823 3093 
Q 1294 3584 2113 3584 
Q 2378 3584 2631 3529 
Q 2884 3475 3122 3366 
z
" transform="scale(0.015625)"/>
     <path id="DejaVuSans-20" transform="scale(0.015625)"/>
     <path id="DejaVuSans-28" d="M 1984 4856 
Q 1566 4138 1362 3434 
Q 1159 2731 1159 2009 
Q 1159 1288 1364 580 
Q 1569 -128 1984 -844 
L 1484 -844 
Q 1016 -109 783 600 
Q 550 1309 550 2009 
Q 550 2706 781 3412 
Q 1013 4119 1484 4856 
L 1984 4856 
z
" transform="scale(0.015625)"/>
     <path id="DejaVuSans-29" d="M 513 4856 
L 1013 4856 
Q 1481 4119 1714 3412 
Q 1947 2706 1947 2009 
Q 1947 1309 1714 600 
Q 1481 -109 1013 -844 
L 513 -844 
Q 928 -128 1133 580 
Q 1338 1288 1338 2009 
Q 1338 2731 1133 3434 
Q 928 4138 513 4856 
z
" transform="scale(0.015625)"/>
    </defs>
    <use xlink:href="#DejaVuSans-76"/>
    <use xlink:href="#DejaVuSans-61" transform="translate(59.179688 0)"/>
    <use xlink:href="#DejaVuSans-72" transform="translate(120.458984 0)"/>
    <use xlink:href="#DejaVuSans-69" transform="translate(161.572266 0)"/>
    <use xlink:href="#DejaVuSans-61" transform="translate(189.355469 0)"/>
    <use xlink:href="#DejaVuSans-6e" transform="translate(250.634766 0)"/>
    <use xlink:href="#DejaVuSans-63" transform="translate(314.013672 0)"/>
    <use xlink:href="#DejaVuSans-65" transform="translate(368.994141 0)"/>
    <use xlink:href="#DejaVuSans-20" transform="translate(430.517578 0)"/>
    <use xlink:href="#DejaVuSans-28" transform="translate(462.304688 0)"/>
    <use xlink:href="#DejaVuSans-61" transform="translate(501.318359 0)"/>
    <use xlink:href="#DejaVuSans-2e" transform="translate(562.597656 0)"/>
    <use xlink:href="#DejaVuSans-75" transform="translate(594.384766 0)"/>
    <use xlink:href="#DejaVuSans-2e" transform="translate(657.763672 0)"/>
    <use xlink:href="#DejaVuSans-29" transform="translate(689.550781 0)"/>
   </g>
  </g>
  <g id="text_23">
   <!-- Variance explained by component model (monkey M, PMd) -->
   <g transform="translate(3.295312 20.638125) scale(0.12 -0.12)">
    <defs>
     <path id="DejaVuSans-56" d="M 1831 0 
L 50 4666 
L 709 4666 
L 2188 738 
L 3669 4666 
L 4325 4666 
L 2547 0 
L 1831 0 
z
" transform="scale(0.015625)"/>
     <path id="DejaVuSans-78" d="M 3513 3500 
L 2247 1797 
L 3578 0 
L 2900 0 
L 1881 1375 
L 863 0 
L 184 0 
L 1544 1831 
L 300 3500 
L 978 3500 
L 1906 2253 
L 2834 3500 
L 3513 3500 
z
" transform="scale(0.015625)"/>
     <path id="DejaVuSans-79" d="M 2059 -325 
Q 1816 -950 1584 -1140 
Q 1353 -1331 966 -1331 
L 506 -1331 
L 506 -850 
L 844 -850 
Q 1081 -850 1212 -737 
Q 1344 -625 1503 -206 
L 1606 56 
L 191 3500 
L 800 3500 
L 1894 763 
L 2988 3500 
L 3597 3500 
L 2059 -325 
z
" transform="scale(0.015625)"/>
     <path id="DejaVuSans-6b" d="M 581 4863 
L 1159 4863 
L 1159 1991 
L 2875 3500 
L 3609 3500 
L 1753 1863 
L 3688 0 
L 2938 0 
L 1159 1709 
L 1159 0 
L 581 0 
L 581 4863 
z
" transform="scale(0.015625)"/>
     <path id="DejaVuSans-4d" d="M 628 4666 
L 1569 4666 
L 2759 1491 
L 3956 4666 
L 4897 4666 
L 4897 0 
L 4281 0 
L 4281 4097 
L 3078 897 
L 2444 897 
L 1241 4097 
L 1241 0 
L 628 0 
L 628 4666 
z
" transform="scale(0.015625)"/>
     <path id="DejaVuSans-2c" d="M 750 794 
L 1409 794 
L 1409 256 
L 897 -744 
L 494 -744 
L 750 256 
L 750 794 
z
" transform="scale(0.015625)"/>
    </defs>
    <use xlink:href="#DejaVuSans-56"/>
    <use xlink:href="#DejaVuSans-61" transform="translate(60.658203 0)"/>
    <use xlink:href="#DejaVuSans-72" transform="translate(121.9375 0)"/>
    <use xlink:href="#DejaVuSans-69" transform="translate(163.050781 0)"/>
    <use xlink:href="#DejaVuSans-61" transform="translate(190.833984 0)"/>
    <use xlink:href="#DejaVuSans-6e" transform="translate(252.113281 0)"/>
    <use xlink:href="#DejaVuSans-63" transform="translate(315.492188 0)"/>
    <use xlink:href="#DejaVuSans-65" transform="translate(370.472656 0)"/>
    <use xlink:href="#DejaVuSans-20" transform="translate(431.996094 0)"/>
    <use xlink:href="#DejaVuSans-65" transform="translate(463.783203 0)"/>
    <use xlink:href="#DejaVuSans-78" transform="translate(523.556641 0)"/>
    <use xlink:href="#DejaVuSans-70" transform="translate(582.736328 0)"/>
    <use xlink:href="#DejaVuSans-6c" transform="translate(646.212891 0)"/>
    <use xlink:href="#DejaVuSans-61" transform="translate(673.996094 0)"/>
    <use xlink:href="#DejaVuSans-69" transform="translate(735.275391 0)"/>
    <use xlink:href="#DejaVuSans-6e" transform="translate(763.058594 0)"/>
    <use xlink:href="#DejaVuSans-65" transform="translate(826.4375 0)"/>
    <use xlink:href="#DejaVuSans-64" transform="translate(887.960938 0)"/>
    <use xlink:href="#DejaVuSans-20" transform="translate(951.4375 0)"/>
    <use xlink:href="#DejaVuSans-62" transform="translate(983.224609 0)"/>
    <use xlink:href="#DejaVuSans-79" transform="translate(1046.701172 0)"/>
    <use xlink:href="#DejaVuSans-20" transform="translate(1105.880859 0)"/>
    <use xlink:href="#DejaVuSans-63" transform="translate(1137.667969 0)"/>
    <use xlink:href="#DejaVuSans-6f" transform="translate(1192.648438 0)"/>
    <use xlink:href="#DejaVuSans-6d" transform="translate(1253.830078 0)"/>
    <use xlink:href="#DejaVuSans-70" transform="translate(1351.242188 0)"/>
    <use xlink:href="#DejaVuSans-6f" transform="translate(1414.71875 0)"/>
    <use xlink:href="#DejaVuSans-6e" transform="translate(1475.900391 0)"/>
    <use xlink:href="#DejaVuSans-65" transform="translate(1539.279297 0)"/>
    <use xlink:href="#DejaVuSans-6e" transform="translate(1600.802734 0)"/>
    <use xlink:href="#DejaVuSans-74" transform="translate(1664.181641 0)"/>
    <use xlink:href="#DejaVuSans-20" transform="translate(1703.390625 0)"/>
    <use xlink:href="#DejaVuSans-6d" transform="translate(1735.177734 0)"/>
    <use xlink:href="#DejaVuSans-6f" transform="translate(1832.589844 0)"/>
    <use xlink:href="#DejaVuSans-64" transform="translate(1893.771484 0)"/>
    <use xlink:href="#DejaVuSans-65" transform="translate(1957.248047 0)"/>
    <use xlink:href="#DejaVuSans-6c" transform="translate(2018.771484 0)"/>
    <use xlink:href="#DejaVuSans-20" transform="translate(2046.554688 0)"/>
    <use xlink:href="#DejaVuSans-28" transform="translate(2078.341797 0)"/>
    <use xlink:href="#DejaVuSans-6d" transform="translate(2117.355469 0)"/>
    <use xlink:href="#DejaVuSans-6f" transform="translate(2214.767578 0)"/>
    <use xlink:href="#DejaVuSans-6e" transform="translate(2275.949219 0)"/>
    <use xlink:href="#DejaVuSans-6b" transform="translate(2339.328125 0)"/>
    <use xlink:href="#DejaVuSans-65" transform="translate(2393.613281 0)"/>
    <use xlink:href="#DejaVuSans-79" transform="translate(2455.136719 0)"/>
    <use xlink:href="#DejaVuSans-20" transform="translate(2514.316406 0)"/>
    <use xlink:href="#DejaVuSans-4d" transform="translate(2546.103516 0)"/>
    <use xlink:href="#DejaVuSans-2c" transform="translate(2632.382812 0)"/>
    <use xlink:href="#DejaVuSans-20" transform="translate(2664.169922 0)"/>
    <use xlink:href="#DejaVuSans-50" transform="translate(2695.957031 0)"/>
    <use xlink:href="#DejaVuSans-4d" transform="translate(2756.259766 0)"/>
    <use xlink:href="#DejaVuSans-64" transform="translate(2842.539062 0)"/>
    <use xlink:href="#DejaVuSans-29" transform="translate(2906.015625 0)"/>
   </g>
  </g>
  <g id="legend_1">
   <g id="line2d_55">
    <path d="M 215.613281 562.878281 
L 224.613281 562.878281 
L 233.613281 562.878281 
" style="fill: none; stroke: #ff0000; stroke-width: 1.5; stroke-linecap: square"/>
   </g>
   <g id="text_24">
    <!-- cue -->
    <g transform="translate(240.813281 566.028281) scale(0.09 -0.09)">
     <use xlink:href="#DejaVuSans-63"/>
     <use xlink:href="#DejaVuSans-75" transform="translate(54.980469 0)"/>
     <use xlink:href="#DejaVuSans-65" transform="translate(118.359375 0)"/>
    </g>
   </g>
   <g id="line2d_56">
    <path d="M 275.003438 562.878281 
L 284.003438 562.878281 
L 293.003438 562.878281 
" style="fill: none; stroke: #0000ff; stroke-width: 1.5; stroke-linecap: square"/>
   </g>
   <g id="text_25">
    <!-- uncertainty -->
    <g transform="translate(300.203438 566.028281) scale(0.09 -0.09)">
     <use xlink:href="#DejaVuSans-75"/>
     <use xlink:href="#DejaVuSans-6e" transform="translate(63.378906 0)"/>
     <use xlink:href="#DejaVuSans-63" transform="translate(126.757812 0)"/>
     <use xlink:href="#DejaVuSans-65" transform="translate(181.738281 0)"/>
     <use xlink:href="#DejaVuSans-72" transform="translate(243.261719 0)"/>
     <use xlink:href="#DejaVuSans-74" transform="translate(284.375 0)"/>
     <use xlink:href="#DejaVuSans-61" transform="translate(323.583984 0)"/>
     <use xlink:href="#DejaVuSans-69" transform="translate(384.863281 0)"/>
     <use xlink:href="#DejaVuSans-6e" transform="translate(412.646484 0)"/>
     <use xlink:href="#DejaVuSans-74" transform="translate(476.025391 0)"/>
     <use xlink:href="#DejaVuSans-79" transform="translate(515.234375 0)"/>
    </g>
   </g>
  </g>
 </g>
 <defs>
  <clipPath id="pbee3b47055">
   <rect x="54.43" y="50.64" width="236.500718" height="52.884702"/>
  </clipPath>
  <clipPath id="pef3699f7fd">
   <rect x="304.519466" y="50.64" width="39.416786" height="52.884702"/>
  </clipPath>
  <clipPath id="pf4899cdf44">
   <rect x="54.43" y="133.61506" width="236.500718" height="52.884702"/>
  </clipPath>
  <clipPath id="pbfa25c9522">
   <rect x="304.519466" y="133.61506" width="39.416786" height="52.884702"/>
  </clipPath>
  <clipPath id="p8706d2370e">
   <rect x="54.43" y="216.590119" width="236.500718" height="52.884702"/>
  </clipPath>
  <clipPath id="p48144bb85a">
   <rect x="304.519466" y="216.590119" width="39.416786" height="52.884702"/>
  </clipPath>
  <clipPath id="pa598dc3565">
   <rect x="54.43" y="299.565179" width="236.500718" height="52.884702"/>
  </clipPath>
  <clipPath id="pbf112be1af">
   <rect x="304.519466" y="299.565179" width="39.416786" height="52.884702"/>
  </clipPath>
  <clipPath id="p178e9d87bd">
   <rect x="54.43" y="382.540239" width="236.500718" height="52.884702"/>
  </clipPath>
  <clipPath id="p9b33f38fda">
   <rect x="304.519466" y="382.540239" width="39.416786" height="52.884702"/>
  </clipPath>
  <clipPath id="p3de0b8374f">
   <rect x="54.43" y="465.515298" width="236.500718" height="52.884702"/>
  </clipPath>
  <clipPath id="pe515fb69c7">
   <rect x="304.519466" y="465.515298" width="39.416786" height="52.884702"/>
  </clipPath>
 </defs>
</svg>
