<?xml version="1.0" encoding="utf-8" standalone="no"?>
<!DOCTYPE svg PUBLIC "-//W3C//DTD SVG 1.1//EN"
  "http://www.w3.org/Graphics/SVG/1.1/DTD/svg11.dtd">
<svg xmlns:xlink="http://www.w3.org/1999/xlink" width="360pt" height="216pt" viewBox="0 0 360 216" xmlns="http://www.w3.org/2000/svg" version="1.1">
 <metadata>
  <rdf:RDF xmlns:dc="http://purl.org/dc/elements/1.1/" xmlns:cc="http://creativecommons.org/ns#" xmlns:rdf="http://www.w3.org/1999/02/22-rdf-syntax-ns#">
   <cc:Work>
    <dc:type rdf:resource="http://purl.org/dc/dcmitype/StillImage"/>
    <dc:date>2025-07-17T11:52:09.631669</dc:date>
    <dc:format>image/svg+xml</dc:format>
    <dc:creator>
     <cc:Agent>
      <dc:title>Matplotlib v3.10.1, https://matplotlib.org/</dc:title>
     </cc:Agent>
    </dc:creator>
   </cc:Work>
  </rdf:RDF>
 </metadata>
 <defs>
  <style type="text/css">*{stroke-linejoin: round; stroke-linecap: butt}</style>
 </defs>
 <g id="figure_1">
  <g id="patch_1">
   <path d="M 0 216 
L 360 216 
L 360 0 
L 0 0 
z
" style="fill: #ffffff"/>
  </g>
  <g id="axes_1">
   <g id="patch_2">
    <path d="M 54.52 194.4 
L 290.943575 194.4 
L 290.943575 38.52 
L 54.52 38.52 
z
" style="fill: #ffffff"/>
   </g>
   <g id="matplotlib.axis_1">
    <g id="xtick_1">
     <g id="text_1">
      <!-- Cue -->
      <g transform="translate(101.074609 208.998437) scale(0.1 -0.1)">
       <defs>
        <path id="DejaVuSans-43" d="M 4122 4306 
L 4122 3641 
Q 3803 3938 3442 4084 
Q 3081 4231 2675 4231 
Q 1875 4231 1450 3742 
Q 1025 3253 1025 2328 
Q 1025 1406 1450 917 
Q 1875 428 2675 428 
Q 3081 428 3442 575 
Q 3803 722 4122 1019 
L 4122 359 
Q 3791 134 3420 21 
Q 3050 -91 2638 -91 
Q 1578 -91 968 557 
Q 359 1206 359 2328 
Q 359 3453 968 4101 
Q 1578 4750 2638 4750 
Q 3056 4750 3426 4639 
Q 3797 4528 4122 4306 
z
" transform="scale(0.015625)"/>
        <path id="DejaVuSans-75" d="M 544 1381 
L 544 3500 
L 1119 3500 
L 1119 1403 
Q 1119 906 1312 657 
Q 1506 409 1894 409 
Q 2359 409 2629 706 
Q 2900 1003 2900 1516 
L 2900 3500 
L 3475 3500 
L 3475 0 
L 2900 0 
L 2900 538 
Q 2691 219 2414 64 
Q 2138 -91 1772 -91 
Q 1169 -91 856 284 
Q 544 659 544 1381 
z
M 1991 3584 
L 1991 3584 
z
" transform="scale(0.015625)"/>
        <path id="DejaVuSans-65" d="M 3597 1894 
L 3597 1613 
L 953 1613 
Q 991 1019 1311 708 
Q 1631 397 2203 397 
Q 2534 397 2845 478 
Q 3156 559 3463 722 
L 3463 178 
Q 3153 47 2828 -22 
Q 2503 -91 2169 -91 
Q 1331 -91 842 396 
Q 353 884 353 1716 
Q 353 2575 817 3079 
Q 1281 3584 2069 3584 
Q 2775 3584 3186 3129 
Q 3597 2675 3597 1894 
z
M 3022 2063 
Q 3016 2534 2758 2815 
Q 2500 3097 2075 3097 
Q 1594 3097 1305 2825 
Q 1016 2553 972 2059 
L 3022 2063 
z
" transform="scale(0.015625)"/>
       </defs>
       <use xlink:href="#DejaVuSans-43"/>
       <use xlink:href="#DejaVuSans-75" transform="translate(69.824219 0)"/>
       <use xlink:href="#DejaVuSans-65" transform="translate(133.203125 0)"/>
      </g>
     </g>
    </g>
   </g>
   <g id="matplotlib.axis_2">
    <g id="ytick_1">
     <g id="line2d_1">
      <defs>
       <path id="m78be406d83" d="M 0 0 
L -3.5 0 
" style="stroke: #000000; stroke-width: 0.8"/>
      </defs>
      <g>
       <use xlink:href="#m78be406d83" x="54.52" y="191.945197" style="stroke: #000000; stroke-width: 0.8"/>
      </g>
     </g>
     <g id="text_2">
      <!-- 0.0 -->
      <g transform="translate(31.616875 195.744416) scale(0.1 -0.1)">
       <defs>
        <path id="DejaVuSans-30" d="M 2034 4250 
Q 1547 4250 1301 3770 
Q 1056 3291 1056 2328 
Q 1056 1369 1301 889 
Q 1547 409 2034 409 
Q 2525 409 2770 889 
Q 3016 1369 3016 2328 
Q 3016 3291 2770 3770 
Q 2525 4250 2034 4250 
z
M 2034 4750 
Q 2819 4750 3233 4129 
Q 3647 3509 3647 2328 
Q 3647 1150 3233 529 
Q 2819 -91 2034 -91 
Q 1250 -91 836 529 
Q 422 1150 422 2328 
Q 422 3509 836 4129 
Q 1250 4750 2034 4750 
z
" transform="scale(0.015625)"/>
        <path id="DejaVuSans-2e" d="M 684 794 
L 1344 794 
L 1344 0 
L 684 0 
L 684 794 
z
" transform="scale(0.015625)"/>
       </defs>
       <use xlink:href="#DejaVuSans-30"/>
       <use xlink:href="#DejaVuSans-2e" transform="translate(63.623047 0)"/>
       <use xlink:href="#DejaVuSans-30" transform="translate(95.410156 0)"/>
      </g>
     </g>
    </g>
    <g id="ytick_2">
     <g id="line2d_2">
      <g>
       <use xlink:href="#m78be406d83" x="54.52" y="161.260157" style="stroke: #000000; stroke-width: 0.8"/>
      </g>
     </g>
     <g id="text_3">
      <!-- 0.1 -->
      <g transform="translate(31.616875 165.059376) scale(0.1 -0.1)">
       <defs>
        <path id="DejaVuSans-31" d="M 794 531 
L 1825 531 
L 1825 4091 
L 703 3866 
L 703 4441 
L 1819 4666 
L 2450 4666 
L 2450 531 
L 3481 531 
L 3481 0 
L 794 0 
L 794 531 
z
" transform="scale(0.015625)"/>
       </defs>
       <use xlink:href="#DejaVuSans-30"/>
       <use xlink:href="#DejaVuSans-2e" transform="translate(63.623047 0)"/>
       <use xlink:href="#DejaVuSans-31" transform="translate(95.410156 0)"/>
      </g>
     </g>
    </g>
    <g id="ytick_3">
     <g id="line2d_3">
      <g>
       <use xlink:href="#m78be406d83" x="54.52" y="130.575118" style="stroke: #000000; stroke-width: 0.8"/>
      </g>
     </g>
     <g id="text_4">
      <!-- 0.2 -->
      <g transform="translate(31.616875 134.374337) scale(0.1 -0.1)">
       <defs>
        <path id="DejaVuSans-32" d="M 1228 531 
L 3431 531 
L 3431 0 
L 469 0 
L 469 531 
Q 828 903 1448 1529 
Q 2069 2156 2228 2338 
Q 2531 2678 2651 2914 
Q 2772 3150 2772 3378 
Q 2772 3750 2511 3984 
Q 2250 4219 1831 4219 
Q 1534 4219 1204 4116 
Q 875 4013 500 3803 
L 500 4441 
Q 881 4594 1212 4672 
Q 1544 4750 1819 4750 
Q 2544 4750 2975 4387 
Q 3406 4025 3406 3419 
Q 3406 3131 3298 2873 
Q 3191 2616 2906 2266 
Q 2828 2175 2409 1742 
Q 1991 1309 1228 531 
z
" transform="scale(0.015625)"/>
       </defs>
       <use xlink:href="#DejaVuSans-30"/>
       <use xlink:href="#DejaVuSans-2e" transform="translate(63.623047 0)"/>
       <use xlink:href="#DejaVuSans-32" transform="translate(95.410156 0)"/>
      </g>
     </g>
    </g>
    <g id="ytick_4">
     <g id="line2d_4">
      <g>
       <use xlink:href="#m78be406d83" x="54.52" y="99.890079" style="stroke: #000000; stroke-width: 0.8"/>
      </g>
     </g>
     <g id="text_5">
      <!-- 0.3 -->
      <g transform="translate(31.616875 103.689297) scale(0.1 -0.1)">
       <defs>
        <path id="DejaVuSans-33" d="M 2597 2516 
Q 3050 2419 3304 2112 
Q 3559 1806 3559 1356 
Q 3559 666 3084 287 
Q 2609 -91 1734 -91 
Q 1441 -91 1130 -33 
Q 819 25 488 141 
L 488 750 
Q 750 597 1062 519 
Q 1375 441 1716 441 
Q 2309 441 2620 675 
Q 2931 909 2931 1356 
Q 2931 1769 2642 2001 
Q 2353 2234 1838 2234 
L 1294 2234 
L 1294 2753 
L 1863 2753 
Q 2328 2753 2575 2939 
Q 2822 3125 2822 3475 
Q 2822 3834 2567 4026 
Q 2313 4219 1838 4219 
Q 1578 4219 1281 4162 
Q 984 4106 628 3988 
L 628 4550 
Q 988 4650 1302 4700 
Q 1616 4750 1894 4750 
Q 2613 4750 3031 4423 
Q 3450 4097 3450 3541 
Q 3450 3153 3228 2886 
Q 3006 2619 2597 2516 
z
" transform="scale(0.015625)"/>
       </defs>
       <use xlink:href="#DejaVuSans-30"/>
       <use xlink:href="#DejaVuSans-2e" transform="translate(63.623047 0)"/>
       <use xlink:href="#DejaVuSans-33" transform="translate(95.410156 0)"/>
      </g>
     </g>
    </g>
    <g id="ytick_5">
     <g id="line2d_5">
      <g>
       <use xlink:href="#m78be406d83" x="54.52" y="69.205039" style="stroke: #000000; stroke-width: 0.8"/>
      </g>
     </g>
     <g id="text_6">
      <!-- 0.4 -->
      <g transform="translate(31.616875 73.004258) scale(0.1 -0.1)">
       <defs>
        <path id="DejaVuSans-34" d="M 2419 4116 
L 825 1625 
L 2419 1625 
L 2419 4116 
z
M 2253 4666 
L 3047 4666 
L 3047 1625 
L 3713 1625 
L 3713 1100 
L 3047 1100 
L 3047 0 
L 2419 0 
L 2419 1100 
L 313 1100 
L 313 1709 
L 2253 4666 
z
" transform="scale(0.015625)"/>
       </defs>
       <use xlink:href="#DejaVuSans-30"/>
       <use xlink:href="#DejaVuSans-2e" transform="translate(63.623047 0)"/>
       <use xlink:href="#DejaVuSans-34" transform="translate(95.410156 0)"/>
      </g>
     </g>
    </g>
    <g id="ytick_6">
     <g id="line2d_6">
      <g>
       <use xlink:href="#m78be406d83" x="54.52" y="38.52" style="stroke: #000000; stroke-width: 0.8"/>
      </g>
     </g>
     <g id="text_7">
      <!-- 0.5 -->
      <g transform="translate(31.616875 42.319219) scale(0.1 -0.1)">
       <defs>
        <path id="DejaVuSans-35" d="M 691 4666 
L 3169 4666 
L 3169 4134 
L 1269 4134 
L 1269 2991 
Q 1406 3038 1543 3061 
Q 1681 3084 1819 3084 
Q 2600 3084 3056 2656 
Q 3513 2228 3513 1497 
Q 3513 744 3044 326 
Q 2575 -91 1722 -91 
Q 1428 -91 1123 -41 
Q 819 9 494 109 
L 494 744 
Q 775 591 1075 516 
Q 1375 441 1709 441 
Q 2250 441 2565 725 
Q 2881 1009 2881 1497 
Q 2881 1984 2565 2268 
Q 2250 2553 1709 2553 
Q 1456 2553 1204 2497 
Q 953 2441 691 2322 
L 691 4666 
z
" transform="scale(0.015625)"/>
       </defs>
       <use xlink:href="#DejaVuSans-30"/>
       <use xlink:href="#DejaVuSans-2e" transform="translate(63.623047 0)"/>
       <use xlink:href="#DejaVuSans-35" transform="translate(95.410156 0)"/>
      </g>
     </g>
    </g>
   </g>
   <g id="line2d_7">
    <path d="M 54.52 187.066576 
L 57.334566 186.514539 
L 60.149133 186.179406 
L 62.963699 185.52669 
L 65.778265 184.610104 
L 68.592832 183.850416 
L 71.407398 183.484881 
L 74.221965 183.253211 
L 77.036531 183.375162 
L 79.851097 184.072946 
L 88.294796 186.658165 
L 93.923929 188.870013 
L 96.738496 191.945197 
L 127.698726 191.945197 
L 130.513292 188.693214 
L 133.327858 187.008513 
L 138.956991 184.090354 
L 141.771558 183.181762 
L 144.586124 182.87416 
L 147.40069 182.813014 
L 155.844389 182.924003 
L 164.288089 182.788936 
L 167.102655 182.935181 
L 169.917221 183.386742 
L 172.731788 184.469623 
L 175.546354 186.162631 
L 178.36092 188.136322 
L 181.175487 190.498358 
L 183.990053 191.945197 
L 198.062885 191.945197 
L 200.877451 189.572277 
L 203.692018 188.430043 
L 206.506584 187.642334 
L 209.321151 187.595498 
L 212.135717 188.855042 
L 214.950283 191.945197 
L 226.208549 191.944935 
L 229.023115 189.956673 
L 231.837682 190.241409 
L 234.652248 191.945197 
L 361 191.945197 
L 361 191.945197 
" clip-path="url(#pa6273ab2c1)" style="fill: none; stroke: #ff0000; stroke-width: 1.5; stroke-linecap: square"/>
   </g>
   <g id="line2d_8">
    <path d="M 54.52 191.945197 
L 102.367628 191.944677 
L 105.182195 188.960597 
L 107.996761 188.234905 
L 110.811327 188.154921 
L 113.625894 188.627749 
L 116.44046 189.476738 
L 119.255027 189.783018 
L 122.069593 188.29695 
L 124.884159 186.451374 
L 127.698726 185.307351 
L 130.513292 185.276193 
L 133.327858 186.516598 
L 136.142425 188.89063 
L 138.956991 191.945197 
L 150.215257 191.945197 
L 155.844389 188.631698 
L 158.658956 187.688169 
L 161.473522 187.721661 
L 164.288089 188.082898 
L 167.102655 188.119 
L 169.917221 187.553081 
L 172.731788 187.260089 
L 175.546354 187.410568 
L 178.36092 187.778762 
L 189.619186 187.86087 
L 192.433752 188.212339 
L 195.248319 189.697112 
L 198.062885 191.945197 
L 200.877451 190.855466 
L 203.692018 189.494369 
L 206.506584 188.831876 
L 209.321151 189.071476 
L 212.135717 189.429317 
L 214.950283 189.362826 
L 217.76485 189.561491 
L 220.579416 191.251508 
L 223.393982 191.945195 
L 248.72508 191.945197 
L 251.539646 189.90164 
L 254.354213 187.561187 
L 257.168779 186.260353 
L 259.983345 185.427418 
L 265.612478 184.274895 
L 268.427044 183.896648 
L 271.241611 183.66724 
L 274.056177 183.890733 
L 279.68531 185.294187 
L 282.499876 185.70852 
L 285.314443 185.98163 
L 288.129009 186.456238 
L 290.943575 191.945197 
L 296.572708 191.945197 
L 299.387275 190.658169 
L 302.201841 189.182149 
L 305.016407 188.805693 
L 307.830974 189.410836 
L 310.64554 191.213902 
L 313.460106 191.94495 
L 316.274673 191.945197 
L 319.089239 189.527795 
L 321.903806 187.849103 
L 324.718372 186.73473 
L 327.532938 186.277636 
L 330.347505 186.706312 
L 333.162071 187.83465 
L 335.976637 189.42225 
L 338.791204 191.945197 
L 361 191.945197 
L 361 191.945197 
" clip-path="url(#pa6273ab2c1)" style="fill: none; stroke: #0000ff; stroke-width: 1.5; stroke-linecap: square"/>
   </g>
   <g id="line2d_9">
    <path d="M 54.52 191.945197 
L 290.943575 191.945197 
" clip-path="url(#pa6273ab2c1)" style="fill: none; stroke: #000000; stroke-width: 0.8; stroke-linecap: square"/>
   </g>
   <g id="line2d_10">
    <path d="M 82.665664 189.409111 
L 85.48023 187.367774 
L 88.294796 187.69508 
M 127.698726 190.767255 
L 130.513292 185.297307 
L 133.327858 183.676954 
L 136.142425 182.676304 
L 141.771558 179.406973 
L 144.586124 178.376009 
L 147.40069 177.910476 
L 150.215257 177.834848 
L 153.029823 177.912802 
L 155.844389 177.565498 
L 158.658956 177.05196 
L 161.473522 176.921288 
L 164.288089 177.375115 
L 172.731788 180.090822 
L 175.546354 181.27314 
L 178.36092 183.075521 
L 181.175487 185.377033 
L 183.990053 188.179617 
M 195.248319 187.898576 
L 198.062885 185.705865 
L 200.877451 184.652509 
L 206.506584 183.422268 
L 209.321151 183.61026 
L 212.135717 184.711191 
L 214.950283 186.031485 
L 217.76485 187.179073 
L 220.579416 187.427485 
L 223.393982 187.064284 
L 226.208549 187.105895 
L 229.023115 188.311213 
M 254.354213 187.772059 
L 257.168779 185.320966 
L 259.983345 184.406598 
L 262.797912 184.272913 
L 265.612478 183.967241 
L 268.427044 183.807985 
L 271.241611 184.25116 
L 274.056177 185.547598 
L 276.870744 187.232655 
L 279.68531 188.408255 
L 282.499876 188.750243 
L 285.314443 187.501573 
L 288.129009 186.514632 
M 313.460106 191.800505 
L 316.274673 189.861315 
L 319.089239 190.026549 
L 321.903806 190.746767 
L 324.718372 188.977045 
L 327.532938 187.576302 
L 330.347505 187.822224 
L 330.347505 187.822224 
" clip-path="url(#pa6273ab2c1)" style="fill: none; stroke-dasharray: 5.55,2.4; stroke-dashoffset: 0; stroke: #000000; stroke-width: 1.5"/>
   </g>
   <g id="line2d_11">
    <path d="M 110.811327 194.4 
L 110.811327 38.52 
" clip-path="url(#pa6273ab2c1)" style="fill: none; stroke: #000000; stroke-width: 0.8; stroke-linecap: square"/>
   </g>
   <g id="patch_3">
    <path d="M 54.52 191.945197 
L 54.52 38.52 
" style="fill: none; stroke: #000000; stroke-width: 0.8; stroke-linejoin: miter; stroke-linecap: square"/>
   </g>
   <g id="legend_1">
    <g id="line2d_12">
     <path d="M 146.556857 50.308594 
L 155.556857 50.308594 
L 164.556857 50.308594 
" style="fill: none; stroke: #ff0000; stroke-width: 1.5; stroke-linecap: square"/>
    </g>
    <g id="text_8">
     <!-- cue -->
     <g transform="translate(171.756857 53.458594) scale(0.09 -0.09)">
      <defs>
       <path id="DejaVuSans-63" d="M 3122 3366 
L 3122 2828 
Q 2878 2963 2633 3030 
Q 2388 3097 2138 3097 
Q 1578 3097 1268 2742 
Q 959 2388 959 1747 
Q 959 1106 1268 751 
Q 1578 397 2138 397 
Q 2388 397 2633 464 
Q 2878 531 3122 666 
L 3122 134 
Q 2881 22 2623 -34 
Q 2366 -91 2075 -91 
Q 1284 -91 818 406 
Q 353 903 353 1747 
Q 353 2603 823 3093 
Q 1294 3584 2113 3584 
Q 2378 3584 2631 3529 
Q 2884 3475 3122 3366 
z
" transform="scale(0.015625)"/>
      </defs>
      <use xlink:href="#DejaVuSans-63"/>
      <use xlink:href="#DejaVuSans-75" transform="translate(54.980469 0)"/>
      <use xlink:href="#DejaVuSans-65" transform="translate(118.359375 0)"/>
     </g>
    </g>
    <g id="line2d_13">
     <path d="M 205.947013 50.308594 
L 214.947013 50.308594 
L 223.947013 50.308594 
" style="fill: none; stroke: #0000ff; stroke-width: 1.5; stroke-linecap: square"/>
    </g>
    <g id="text_9">
     <!-- uncertainty -->
     <g transform="translate(231.147013 53.458594) scale(0.09 -0.09)">
      <defs>
       <path id="DejaVuSans-6e" d="M 3513 2113 
L 3513 0 
L 2938 0 
L 2938 2094 
Q 2938 2591 2744 2837 
Q 2550 3084 2163 3084 
Q 1697 3084 1428 2787 
Q 1159 2491 1159 1978 
L 1159 0 
L 581 0 
L 581 3500 
L 1159 3500 
L 1159 2956 
Q 1366 3272 1645 3428 
Q 1925 3584 2291 3584 
Q 2894 3584 3203 3211 
Q 3513 2838 3513 2113 
z
" transform="scale(0.015625)"/>
       <path id="DejaVuSans-72" d="M 2631 2963 
Q 2534 3019 2420 3045 
Q 2306 3072 2169 3072 
Q 1681 3072 1420 2755 
Q 1159 2438 1159 1844 
L 1159 0 
L 581 0 
L 581 3500 
L 1159 3500 
L 1159 2956 
Q 1341 3275 1631 3429 
Q 1922 3584 2338 3584 
Q 2397 3584 2469 3576 
Q 2541 3569 2628 3553 
L 2631 2963 
z
" transform="scale(0.015625)"/>
       <path id="DejaVuSans-74" d="M 1172 4494 
L 1172 3500 
L 2356 3500 
L 2356 3053 
L 1172 3053 
L 1172 1153 
Q 1172 725 1289 603 
Q 1406 481 1766 481 
L 2356 481 
L 2356 0 
L 1766 0 
Q 1100 0 847 248 
Q 594 497 594 1153 
L 594 3053 
L 172 3053 
L 172 3500 
L 594 3500 
L 594 4494 
L 1172 4494 
z
" transform="scale(0.015625)"/>
       <path id="DejaVuSans-61" d="M 2194 1759 
Q 1497 1759 1228 1600 
Q 959 1441 959 1056 
Q 959 750 1161 570 
Q 1363 391 1709 391 
Q 2188 391 2477 730 
Q 2766 1069 2766 1631 
L 2766 1759 
L 2194 1759 
z
M 3341 1997 
L 3341 0 
L 2766 0 
L 2766 531 
Q 2569 213 2275 61 
Q 1981 -91 1556 -91 
Q 1019 -91 701 211 
Q 384 513 384 1019 
Q 384 1609 779 1909 
Q 1175 2209 1959 2209 
L 2766 2209 
L 2766 2266 
Q 2766 2663 2505 2880 
Q 2244 3097 1772 3097 
Q 1472 3097 1187 3025 
Q 903 2953 641 2809 
L 641 3341 
Q 956 3463 1253 3523 
Q 1550 3584 1831 3584 
Q 2591 3584 2966 3190 
Q 3341 2797 3341 1997 
z
" transform="scale(0.015625)"/>
       <path id="DejaVuSans-69" d="M 603 3500 
L 1178 3500 
L 1178 0 
L 603 0 
L 603 3500 
z
M 603 4863 
L 1178 4863 
L 1178 4134 
L 603 4134 
L 603 4863 
z
" transform="scale(0.015625)"/>
       <path id="DejaVuSans-79" d="M 2059 -325 
Q 1816 -950 1584 -1140 
Q 1353 -1331 966 -1331 
L 506 -1331 
L 506 -850 
L 844 -850 
Q 1081 -850 1212 -737 
Q 1344 -625 1503 -206 
L 1606 56 
L 191 3500 
L 800 3500 
L 1894 763 
L 2988 3500 
L 3597 3500 
L 2059 -325 
z
" transform="scale(0.015625)"/>
      </defs>
      <use xlink:href="#DejaVuSans-75"/>
      <use xlink:href="#DejaVuSans-6e" transform="translate(63.378906 0)"/>
      <use xlink:href="#DejaVuSans-63" transform="translate(126.757812 0)"/>
      <use xlink:href="#DejaVuSans-65" transform="translate(181.738281 0)"/>
      <use xlink:href="#DejaVuSans-72" transform="translate(243.261719 0)"/>
      <use xlink:href="#DejaVuSans-74" transform="translate(284.375 0)"/>
      <use xlink:href="#DejaVuSans-61" transform="translate(323.583984 0)"/>
      <use xlink:href="#DejaVuSans-69" transform="translate(384.863281 0)"/>
      <use xlink:href="#DejaVuSans-6e" transform="translate(412.646484 0)"/>
      <use xlink:href="#DejaVuSans-74" transform="translate(476.025391 0)"/>
      <use xlink:href="#DejaVuSans-79" transform="translate(515.234375 0)"/>
     </g>
    </g>
   </g>
  </g>
  <g id="axes_2">
   <g id="patch_4">
    <path d="M 304.532323 194.4 
L 343.936252 194.4 
L 343.936252 38.52 
L 304.532323 38.52 
z
" style="fill: #ffffff"/>
   </g>
   <g id="matplotlib.axis_3">
    <g id="xtick_2">
     <g id="text_10">
      <!-- Pre -->
      <g transform="translate(302.214581 208.998437) scale(0.1 -0.1)">
       <defs>
        <path id="DejaVuSans-50" d="M 1259 4147 
L 1259 2394 
L 2053 2394 
Q 2494 2394 2734 2622 
Q 2975 2850 2975 3272 
Q 2975 3691 2734 3919 
Q 2494 4147 2053 4147 
L 1259 4147 
z
M 628 4666 
L 2053 4666 
Q 2838 4666 3239 4311 
Q 3641 3956 3641 3272 
Q 3641 2581 3239 2228 
Q 2838 1875 2053 1875 
L 1259 1875 
L 1259 0 
L 628 0 
L 628 4666 
z
" transform="scale(0.015625)"/>
       </defs>
       <use xlink:href="#DejaVuSans-50"/>
       <use xlink:href="#DejaVuSans-72" transform="translate(58.552734 0)"/>
       <use xlink:href="#DejaVuSans-65" transform="translate(97.416016 0)"/>
      </g>
     </g>
    </g>
    <g id="xtick_3">
     <g id="text_11">
      <!-- Post -->
      <g transform="translate(327.849307 208.998437) scale(0.1 -0.1)">
       <defs>
        <path id="DejaVuSans-6f" d="M 1959 3097 
Q 1497 3097 1228 2736 
Q 959 2375 959 1747 
Q 959 1119 1226 758 
Q 1494 397 1959 397 
Q 2419 397 2687 759 
Q 2956 1122 2956 1747 
Q 2956 2369 2687 2733 
Q 2419 3097 1959 3097 
z
M 1959 3584 
Q 2709 3584 3137 3096 
Q 3566 2609 3566 1747 
Q 3566 888 3137 398 
Q 2709 -91 1959 -91 
Q 1206 -91 779 398 
Q 353 888 353 1747 
Q 353 2609 779 3096 
Q 1206 3584 1959 3584 
z
" transform="scale(0.015625)"/>
        <path id="DejaVuSans-73" d="M 2834 3397 
L 2834 2853 
Q 2591 2978 2328 3040 
Q 2066 3103 1784 3103 
Q 1356 3103 1142 2972 
Q 928 2841 928 2578 
Q 928 2378 1081 2264 
Q 1234 2150 1697 2047 
L 1894 2003 
Q 2506 1872 2764 1633 
Q 3022 1394 3022 966 
Q 3022 478 2636 193 
Q 2250 -91 1575 -91 
Q 1294 -91 989 -36 
Q 684 19 347 128 
L 347 722 
Q 666 556 975 473 
Q 1284 391 1588 391 
Q 1994 391 2212 530 
Q 2431 669 2431 922 
Q 2431 1156 2273 1281 
Q 2116 1406 1581 1522 
L 1381 1569 
Q 847 1681 609 1914 
Q 372 2147 372 2553 
Q 372 3047 722 3315 
Q 1072 3584 1716 3584 
Q 2034 3584 2315 3537 
Q 2597 3491 2834 3397 
z
" transform="scale(0.015625)"/>
       </defs>
       <use xlink:href="#DejaVuSans-50"/>
       <use xlink:href="#DejaVuSans-6f" transform="translate(56.677734 0)"/>
       <use xlink:href="#DejaVuSans-73" transform="translate(117.859375 0)"/>
       <use xlink:href="#DejaVuSans-74" transform="translate(169.958984 0)"/>
      </g>
     </g>
    </g>
   </g>
   <g id="matplotlib.axis_4">
    <g id="ytick_7"/>
    <g id="ytick_8"/>
    <g id="ytick_9"/>
    <g id="ytick_10"/>
    <g id="ytick_11"/>
    <g id="ytick_12"/>
   </g>
   <g id="line2d_14">
    <path d="M 310.161456 187.081804 
L 338.30712 189.425409 
" clip-path="url(#p3e6a62bdba)" style="fill: none; stroke: #ff0000; stroke-width: 1.5; stroke-linecap: square"/>
    <defs>
     <path id="mfc66f38e29" d="M -2.5 2.5 
L 2.5 2.5 
L 2.5 -2.5 
L -2.5 -2.5 
z
" style="stroke: #ff0000; stroke-linejoin: miter"/>
    </defs>
    <g clip-path="url(#p3e6a62bdba)">
     <use xlink:href="#mfc66f38e29" x="310.161456" y="187.081804" style="fill: #ff0000; stroke: #ff0000; stroke-linejoin: miter"/>
     <use xlink:href="#mfc66f38e29" x="338.30712" y="189.425409" style="fill: #ff0000; stroke: #ff0000; stroke-linejoin: miter"/>
    </g>
   </g>
   <g id="line2d_15">
    <path d="M 310.161456 191.605452 
L 338.30712 188.643229 
" clip-path="url(#p3e6a62bdba)" style="fill: none; stroke: #0000ff; stroke-width: 1.5; stroke-linecap: square"/>
    <defs>
     <path id="mf7b382cb53" d="M -2.5 2.5 
L 2.5 2.5 
L 2.5 -2.5 
L -2.5 -2.5 
z
" style="stroke: #0000ff; stroke-linejoin: miter"/>
    </defs>
    <g clip-path="url(#p3e6a62bdba)">
     <use xlink:href="#mf7b382cb53" x="310.161456" y="191.605452" style="fill: #0000ff; stroke: #0000ff; stroke-linejoin: miter"/>
     <use xlink:href="#mf7b382cb53" x="338.30712" y="188.643229" style="fill: #0000ff; stroke: #0000ff; stroke-linejoin: miter"/>
    </g>
   </g>
  </g>
  <g id="text_12">
   <!-- variance (a.u.) -->
   <g transform="translate(14.798438 144.428125) rotate(-90) scale(0.1 -0.1)">
    <defs>
     <path id="DejaVuSans-76" d="M 191 3500 
L 800 3500 
L 1894 563 
L 2988 3500 
L 3597 3500 
L 2284 0 
L 1503 0 
L 191 3500 
z
" transform="scale(0.015625)"/>
     <path id="DejaVuSans-20" transform="scale(0.015625)"/>
     <path id="DejaVuSans-28" d="M 1984 4856 
Q 1566 4138 1362 3434 
Q 1159 2731 1159 2009 
Q 1159 1288 1364 580 
Q 1569 -128 1984 -844 
L 1484 -844 
Q 1016 -109 783 600 
Q 550 1309 550 2009 
Q 550 2706 781 3412 
Q 1013 4119 1484 4856 
L 1984 4856 
z
" transform="scale(0.015625)"/>
     <path id="DejaVuSans-29" d="M 513 4856 
L 1013 4856 
Q 1481 4119 1714 3412 
Q 1947 2706 1947 2009 
Q 1947 1309 1714 600 
Q 1481 -109 1013 -844 
L 513 -844 
Q 928 -128 1133 580 
Q 1338 1288 1338 2009 
Q 1338 2731 1133 3434 
Q 928 4138 513 4856 
z
" transform="scale(0.015625)"/>
    </defs>
    <use xlink:href="#DejaVuSans-76"/>
    <use xlink:href="#DejaVuSans-61" transform="translate(59.179688 0)"/>
    <use xlink:href="#DejaVuSans-72" transform="translate(120.458984 0)"/>
    <use xlink:href="#DejaVuSans-69" transform="translate(161.572266 0)"/>
    <use xlink:href="#DejaVuSans-61" transform="translate(189.355469 0)"/>
    <use xlink:href="#DejaVuSans-6e" transform="translate(250.634766 0)"/>
    <use xlink:href="#DejaVuSans-63" transform="translate(314.013672 0)"/>
    <use xlink:href="#DejaVuSans-65" transform="translate(368.994141 0)"/>
    <use xlink:href="#DejaVuSans-20" transform="translate(430.517578 0)"/>
    <use xlink:href="#DejaVuSans-28" transform="translate(462.304688 0)"/>
    <use xlink:href="#DejaVuSans-61" transform="translate(501.318359 0)"/>
    <use xlink:href="#DejaVuSans-2e" transform="translate(562.597656 0)"/>
    <use xlink:href="#DejaVuSans-75" transform="translate(594.384766 0)"/>
    <use xlink:href="#DejaVuSans-2e" transform="translate(657.763672 0)"/>
    <use xlink:href="#DejaVuSans-29" transform="translate(689.550781 0)"/>
   </g>
  </g>
  <g id="text_13">
   <!-- Variance explained by component model (monkey M, PMd) -->
   <g transform="translate(3.295312 13.438125) scale(0.12 -0.12)">
    <defs>
     <path id="DejaVuSans-56" d="M 1831 0 
L 50 4666 
L 709 4666 
L 2188 738 
L 3669 4666 
L 4325 4666 
L 2547 0 
L 1831 0 
z
" transform="scale(0.015625)"/>
     <path id="DejaVuSans-78" d="M 3513 3500 
L 2247 1797 
L 3578 0 
L 2900 0 
L 1881 1375 
L 863 0 
L 184 0 
L 1544 1831 
L 300 3500 
L 978 3500 
L 1906 2253 
L 2834 3500 
L 3513 3500 
z
" transform="scale(0.015625)"/>
     <path id="DejaVuSans-70" d="M 1159 525 
L 1159 -1331 
L 581 -1331 
L 581 3500 
L 1159 3500 
L 1159 2969 
Q 1341 3281 1617 3432 
Q 1894 3584 2278 3584 
Q 2916 3584 3314 3078 
Q 3713 2572 3713 1747 
Q 3713 922 3314 415 
Q 2916 -91 2278 -91 
Q 1894 -91 1617 61 
Q 1341 213 1159 525 
z
M 3116 1747 
Q 3116 2381 2855 2742 
Q 2594 3103 2138 3103 
Q 1681 3103 1420 2742 
Q 1159 2381 1159 1747 
Q 1159 1113 1420 752 
Q 1681 391 2138 391 
Q 2594 391 2855 752 
Q 3116 1113 3116 1747 
z
" transform="scale(0.015625)"/>
     <path id="DejaVuSans-6c" d="M 603 4863 
L 1178 4863 
L 1178 0 
L 603 0 
L 603 4863 
z
" transform="scale(0.015625)"/>
     <path id="DejaVuSans-64" d="M 2906 2969 
L 2906 4863 
L 3481 4863 
L 3481 0 
L 2906 0 
L 2906 525 
Q 2725 213 2448 61 
Q 2172 -91 1784 -91 
Q 1150 -91 751 415 
Q 353 922 353 1747 
Q 353 2572 751 3078 
Q 1150 3584 1784 3584 
Q 2172 3584 2448 3432 
Q 2725 3281 2906 2969 
z
M 947 1747 
Q 947 1113 1208 752 
Q 1469 391 1925 391 
Q 2381 391 2643 752 
Q 2906 1113 2906 1747 
Q 2906 2381 2643 2742 
Q 2381 3103 1925 3103 
Q 1469 3103 1208 2742 
Q 947 2381 947 1747 
z
" transform="scale(0.015625)"/>
     <path id="DejaVuSans-62" d="M 3116 1747 
Q 3116 2381 2855 2742 
Q 2594 3103 2138 3103 
Q 1681 3103 1420 2742 
Q 1159 2381 1159 1747 
Q 1159 1113 1420 752 
Q 1681 391 2138 391 
Q 2594 391 2855 752 
Q 3116 1113 3116 1747 
z
M 1159 2969 
Q 1341 3281 1617 3432 
Q 1894 3584 2278 3584 
Q 2916 3584 3314 3078 
Q 3713 2572 3713 1747 
Q 3713 922 3314 415 
Q 2916 -91 2278 -91 
Q 1894 -91 1617 61 
Q 1341 213 1159 525 
L 1159 0 
L 581 0 
L 581 4863 
L 1159 4863 
L 1159 2969 
z
" transform="scale(0.015625)"/>
     <path id="DejaVuSans-6d" d="M 3328 2828 
Q 3544 3216 3844 3400 
Q 4144 3584 4550 3584 
Q 5097 3584 5394 3201 
Q 5691 2819 5691 2113 
L 5691 0 
L 5113 0 
L 5113 2094 
Q 5113 2597 4934 2840 
Q 4756 3084 4391 3084 
Q 3944 3084 3684 2787 
Q 3425 2491 3425 1978 
L 3425 0 
L 2847 0 
L 2847 2094 
Q 2847 2600 2669 2842 
Q 2491 3084 2119 3084 
Q 1678 3084 1418 2786 
Q 1159 2488 1159 1978 
L 1159 0 
L 581 0 
L 581 3500 
L 1159 3500 
L 1159 2956 
Q 1356 3278 1631 3431 
Q 1906 3584 2284 3584 
Q 2666 3584 2933 3390 
Q 3200 3197 3328 2828 
z
" transform="scale(0.015625)"/>
     <path id="DejaVuSans-6b" d="M 581 4863 
L 1159 4863 
L 1159 1991 
L 2875 3500 
L 3609 3500 
L 1753 1863 
L 3688 0 
L 2938 0 
L 1159 1709 
L 1159 0 
L 581 0 
L 581 4863 
z
" transform="scale(0.015625)"/>
     <path id="DejaVuSans-4d" d="M 628 4666 
L 1569 4666 
L 2759 1491 
L 3956 4666 
L 4897 4666 
L 4897 0 
L 4281 0 
L 4281 4097 
L 3078 897 
L 2444 897 
L 1241 4097 
L 1241 0 
L 628 0 
L 628 4666 
z
" transform="scale(0.015625)"/>
     <path id="DejaVuSans-2c" d="M 750 794 
L 1409 794 
L 1409 256 
L 897 -744 
L 494 -744 
L 750 256 
L 750 794 
z
" transform="scale(0.015625)"/>
    </defs>
    <use xlink:href="#DejaVuSans-56"/>
    <use xlink:href="#DejaVuSans-61" transform="translate(60.658203 0)"/>
    <use xlink:href="#DejaVuSans-72" transform="translate(121.9375 0)"/>
    <use xlink:href="#DejaVuSans-69" transform="translate(163.050781 0)"/>
    <use xlink:href="#DejaVuSans-61" transform="translate(190.833984 0)"/>
    <use xlink:href="#DejaVuSans-6e" transform="translate(252.113281 0)"/>
    <use xlink:href="#DejaVuSans-63" transform="translate(315.492188 0)"/>
    <use xlink:href="#DejaVuSans-65" transform="translate(370.472656 0)"/>
    <use xlink:href="#DejaVuSans-20" transform="translate(431.996094 0)"/>
    <use xlink:href="#DejaVuSans-65" transform="translate(463.783203 0)"/>
    <use xlink:href="#DejaVuSans-78" transform="translate(523.556641 0)"/>
    <use xlink:href="#DejaVuSans-70" transform="translate(582.736328 0)"/>
    <use xlink:href="#DejaVuSans-6c" transform="translate(646.212891 0)"/>
    <use xlink:href="#DejaVuSans-61" transform="translate(673.996094 0)"/>
    <use xlink:href="#DejaVuSans-69" transform="translate(735.275391 0)"/>
    <use xlink:href="#DejaVuSans-6e" transform="translate(763.058594 0)"/>
    <use xlink:href="#DejaVuSans-65" transform="translate(826.4375 0)"/>
    <use xlink:href="#DejaVuSans-64" transform="translate(887.960938 0)"/>
    <use xlink:href="#DejaVuSans-20" transform="translate(951.4375 0)"/>
    <use xlink:href="#DejaVuSans-62" transform="translate(983.224609 0)"/>
    <use xlink:href="#DejaVuSans-79" transform="translate(1046.701172 0)"/>
    <use xlink:href="#DejaVuSans-20" transform="translate(1105.880859 0)"/>
    <use xlink:href="#DejaVuSans-63" transform="translate(1137.667969 0)"/>
    <use xlink:href="#DejaVuSans-6f" transform="translate(1192.648438 0)"/>
    <use xlink:href="#DejaVuSans-6d" transform="translate(1253.830078 0)"/>
    <use xlink:href="#DejaVuSans-70" transform="translate(1351.242188 0)"/>
    <use xlink:href="#DejaVuSans-6f" transform="translate(1414.71875 0)"/>
    <use xlink:href="#DejaVuSans-6e" transform="translate(1475.900391 0)"/>
    <use xlink:href="#DejaVuSans-65" transform="translate(1539.279297 0)"/>
    <use xlink:href="#DejaVuSans-6e" transform="translate(1600.802734 0)"/>
    <use xlink:href="#DejaVuSans-74" transform="translate(1664.181641 0)"/>
    <use xlink:href="#DejaVuSans-20" transform="translate(1703.390625 0)"/>
    <use xlink:href="#DejaVuSans-6d" transform="translate(1735.177734 0)"/>
    <use xlink:href="#DejaVuSans-6f" transform="translate(1832.589844 0)"/>
    <use xlink:href="#DejaVuSans-64" transform="translate(1893.771484 0)"/>
    <use xlink:href="#DejaVuSans-65" transform="translate(1957.248047 0)"/>
    <use xlink:href="#DejaVuSans-6c" transform="translate(2018.771484 0)"/>
    <use xlink:href="#DejaVuSans-20" transform="translate(2046.554688 0)"/>
    <use xlink:href="#DejaVuSans-28" transform="translate(2078.341797 0)"/>
    <use xlink:href="#DejaVuSans-6d" transform="translate(2117.355469 0)"/>
    <use xlink:href="#DejaVuSans-6f" transform="translate(2214.767578 0)"/>
    <use xlink:href="#DejaVuSans-6e" transform="translate(2275.949219 0)"/>
    <use xlink:href="#DejaVuSans-6b" transform="translate(2339.328125 0)"/>
    <use xlink:href="#DejaVuSans-65" transform="translate(2393.613281 0)"/>
    <use xlink:href="#DejaVuSans-79" transform="translate(2455.136719 0)"/>
    <use xlink:href="#DejaVuSans-20" transform="translate(2514.316406 0)"/>
    <use xlink:href="#DejaVuSans-4d" transform="translate(2546.103516 0)"/>
    <use xlink:href="#DejaVuSans-2c" transform="translate(2632.382812 0)"/>
    <use xlink:href="#DejaVuSans-20" transform="translate(2664.169922 0)"/>
    <use xlink:href="#DejaVuSans-50" transform="translate(2695.957031 0)"/>
    <use xlink:href="#DejaVuSans-4d" transform="translate(2756.259766 0)"/>
    <use xlink:href="#DejaVuSans-64" transform="translate(2842.539062 0)"/>
    <use xlink:href="#DejaVuSans-29" transform="translate(2906.015625 0)"/>
   </g>
  </g>
 </g>
 <defs>
  <clipPath id="pa6273ab2c1">
   <rect x="54.52" y="38.52" width="236.423575" height="155.88"/>
  </clipPath>
  <clipPath id="p3e6a62bdba">
   <rect x="304.532323" y="38.52" width="39.403929" height="155.88"/>
  </clipPath>
 </defs>
</svg>
