<?xml version="1.0" encoding="utf-8" standalone="no"?>
<!DOCTYPE svg PUBLIC "-//W3C//DTD SVG 1.1//EN"
  "http://www.w3.org/Graphics/SVG/1.1/DTD/svg11.dtd">
<svg xmlns:xlink="http://www.w3.org/1999/xlink" width="360pt" height="576pt" viewBox="0 0 360 576" xmlns="http://www.w3.org/2000/svg" version="1.1">
 <metadata>
  <rdf:RDF xmlns:dc="http://purl.org/dc/elements/1.1/" xmlns:cc="http://creativecommons.org/ns#" xmlns:rdf="http://www.w3.org/1999/02/22-rdf-syntax-ns#">
   <cc:Work>
    <dc:type rdf:resource="http://purl.org/dc/dcmitype/StillImage"/>
    <dc:date>2025-07-16T20:54:55.705915</dc:date>
    <dc:format>image/svg+xml</dc:format>
    <dc:creator>
     <cc:Agent>
      <dc:title>Matplotlib v3.10.1, https://matplotlib.org/</dc:title>
     </cc:Agent>
    </dc:creator>
   </cc:Work>
  </rdf:RDF>
 </metadata>
 <defs>
  <style type="text/css">*{stroke-linejoin: round; stroke-linecap: butt}</style>
 </defs>
 <g id="figure_1">
  <g id="patch_1">
   <path d="M 0 576 
L 360 576 
L 360 0 
L 0 0 
z
" style="fill: #ffffff"/>
  </g>
  <g id="axes_1">
   <g id="patch_2">
    <path d="M 54.43 103.716325 
L 259.3075 103.716325 
L 259.3075 50.64 
L 54.43 50.64 
z
" style="fill: #ffffff"/>
   </g>
   <g id="matplotlib.axis_1">
    <g id="xtick_1"/>
   </g>
   <g id="matplotlib.axis_2">
    <g id="ytick_1">
     <g id="line2d_1">
      <defs>
       <path id="m954c6893d3" d="M 0 0 
L -3.5 0 
" style="stroke: #000000; stroke-width: 0.8"/>
      </defs>
      <g>
       <use xlink:href="#m954c6893d3" x="54.43" y="102.675612" style="stroke: #000000; stroke-width: 0.8"/>
      </g>
     </g>
     <g id="text_1">
      <!-- 0.0 -->
      <g transform="translate(31.526875 106.474831) scale(0.1 -0.1)">
       <defs>
        <path id="DejaVuSans-30" d="M 2034 4250 
Q 1547 4250 1301 3770 
Q 1056 3291 1056 2328 
Q 1056 1369 1301 889 
Q 1547 409 2034 409 
Q 2525 409 2770 889 
Q 3016 1369 3016 2328 
Q 3016 3291 2770 3770 
Q 2525 4250 2034 4250 
z
M 2034 4750 
Q 2819 4750 3233 4129 
Q 3647 3509 3647 2328 
Q 3647 1150 3233 529 
Q 2819 -91 2034 -91 
Q 1250 -91 836 529 
Q 422 1150 422 2328 
Q 422 3509 836 4129 
Q 1250 4750 2034 4750 
z
" transform="scale(0.015625)"/>
        <path id="DejaVuSans-2e" d="M 684 794 
L 1344 794 
L 1344 0 
L 684 0 
L 684 794 
z
" transform="scale(0.015625)"/>
       </defs>
       <use xlink:href="#DejaVuSans-30"/>
       <use xlink:href="#DejaVuSans-2e" transform="translate(63.623047 0)"/>
       <use xlink:href="#DejaVuSans-30" transform="translate(95.410156 0)"/>
      </g>
     </g>
    </g>
    <g id="ytick_2">
     <g id="line2d_2">
      <g>
       <use xlink:href="#m954c6893d3" x="54.43" y="50.64" style="stroke: #000000; stroke-width: 0.8"/>
      </g>
     </g>
     <g id="text_2">
      <!-- 0.5 -->
      <g transform="translate(31.526875 54.439219) scale(0.1 -0.1)">
       <defs>
        <path id="DejaVuSans-35" d="M 691 4666 
L 3169 4666 
L 3169 4134 
L 1269 4134 
L 1269 2991 
Q 1406 3038 1543 3061 
Q 1681 3084 1819 3084 
Q 2600 3084 3056 2656 
Q 3513 2228 3513 1497 
Q 3513 744 3044 326 
Q 2575 -91 1722 -91 
Q 1428 -91 1123 -41 
Q 819 9 494 109 
L 494 744 
Q 775 591 1075 516 
Q 1375 441 1709 441 
Q 2250 441 2565 725 
Q 2881 1009 2881 1497 
Q 2881 1984 2565 2268 
Q 2250 2553 1709 2553 
Q 1456 2553 1204 2497 
Q 953 2441 691 2322 
L 691 4666 
z
" transform="scale(0.015625)"/>
       </defs>
       <use xlink:href="#DejaVuSans-30"/>
       <use xlink:href="#DejaVuSans-2e" transform="translate(63.623047 0)"/>
       <use xlink:href="#DejaVuSans-35" transform="translate(95.410156 0)"/>
      </g>
     </g>
    </g>
   </g>
   <g id="line2d_3">
    <path d="M -1 98.230295 
L 42.722714 97.554672 
L 51.503179 97.401656 
L 54.43 95.991415 
L 92.478679 95.566773 
L 124.673714 95.435492 
L 159.795571 95.525025 
L 194.917429 95.843335 
L 230.039286 96.359409 
L 256.380679 96.895277 
L 256.380679 96.895277 
" clip-path="url(#pf46a6f098e)" style="fill: none; stroke: #ffcc33; stroke-width: 1.5; stroke-linecap: square"/>
   </g>
   <g id="line2d_4">
    <path d="M -1 102.675612 
L 256.380679 102.675598 
L 256.380679 102.675598 
" clip-path="url(#pf46a6f098e)" style="fill: none; stroke: #ff0000; stroke-width: 1.5; stroke-linecap: square"/>
   </g>
   <g id="line2d_5">
    <path d="M -1 102.675612 
L 256.380679 102.675612 
L 256.380679 102.675612 
" clip-path="url(#pf46a6f098e)" style="fill: none; stroke: #0000ff; stroke-width: 1.5; stroke-linecap: square"/>
   </g>
   <g id="line2d_6">
    <path d="M -1 102.675612 
L 256.380679 102.675612 
L 256.380679 102.675612 
" clip-path="url(#pf46a6f098e)" style="fill: none; stroke: #ff00ff; stroke-width: 1.5; stroke-linecap: square"/>
   </g>
   <g id="line2d_7">
    <path d="M 54.43 102.675612 
L 259.3075 102.675612 
" clip-path="url(#pf46a6f098e)" style="fill: none; stroke: #000000; stroke-width: 0.8; stroke-linecap: square"/>
   </g>
   <g id="line2d_8">
    <path d="M 54.43 99.721711 
L 74.91775 99.955757 
L 89.551857 100.318121 
L 101.259143 100.828116 
L 107.112786 101.228775 
L 112.966429 101.887486 
L 112.966429 101.887486 
" clip-path="url(#pf46a6f098e)" style="fill: none; stroke-dasharray: 5.55,2.4; stroke-dashoffset: 0; stroke: #000000; stroke-width: 1.5"/>
   </g>
   <g id="line2d_9">
    <path d="M 142.234643 103.716325 
L 142.234643 50.64 
" clip-path="url(#pf46a6f098e)" style="fill: none; stroke: #000000; stroke-width: 0.8; stroke-linecap: square"/>
   </g>
   <g id="patch_3">
    <path d="M 54.43 102.675612 
L 54.43 50.64 
" style="fill: none; stroke: #000000; stroke-width: 0.8; stroke-linejoin: miter; stroke-linecap: square"/>
   </g>
   <g id="text_3">
    <!-- delta -->
    <g transform="translate(141.671875 44.64) scale(0.12 -0.12)">
     <defs>
      <path id="DejaVuSans-64" d="M 2906 2969 
L 2906 4863 
L 3481 4863 
L 3481 0 
L 2906 0 
L 2906 525 
Q 2725 213 2448 61 
Q 2172 -91 1784 -91 
Q 1150 -91 751 415 
Q 353 922 353 1747 
Q 353 2572 751 3078 
Q 1150 3584 1784 3584 
Q 2172 3584 2448 3432 
Q 2725 3281 2906 2969 
z
M 947 1747 
Q 947 1113 1208 752 
Q 1469 391 1925 391 
Q 2381 391 2643 752 
Q 2906 1113 2906 1747 
Q 2906 2381 2643 2742 
Q 2381 3103 1925 3103 
Q 1469 3103 1208 2742 
Q 947 2381 947 1747 
z
" transform="scale(0.015625)"/>
      <path id="DejaVuSans-65" d="M 3597 1894 
L 3597 1613 
L 953 1613 
Q 991 1019 1311 708 
Q 1631 397 2203 397 
Q 2534 397 2845 478 
Q 3156 559 3463 722 
L 3463 178 
Q 3153 47 2828 -22 
Q 2503 -91 2169 -91 
Q 1331 -91 842 396 
Q 353 884 353 1716 
Q 353 2575 817 3079 
Q 1281 3584 2069 3584 
Q 2775 3584 3186 3129 
Q 3597 2675 3597 1894 
z
M 3022 2063 
Q 3016 2534 2758 2815 
Q 2500 3097 2075 3097 
Q 1594 3097 1305 2825 
Q 1016 2553 972 2059 
L 3022 2063 
z
" transform="scale(0.015625)"/>
      <path id="DejaVuSans-6c" d="M 603 4863 
L 1178 4863 
L 1178 0 
L 603 0 
L 603 4863 
z
" transform="scale(0.015625)"/>
      <path id="DejaVuSans-74" d="M 1172 4494 
L 1172 3500 
L 2356 3500 
L 2356 3053 
L 1172 3053 
L 1172 1153 
Q 1172 725 1289 603 
Q 1406 481 1766 481 
L 2356 481 
L 2356 0 
L 1766 0 
Q 1100 0 847 248 
Q 594 497 594 1153 
L 594 3053 
L 172 3053 
L 172 3500 
L 594 3500 
L 594 4494 
L 1172 4494 
z
" transform="scale(0.015625)"/>
      <path id="DejaVuSans-61" d="M 2194 1759 
Q 1497 1759 1228 1600 
Q 959 1441 959 1056 
Q 959 750 1161 570 
Q 1363 391 1709 391 
Q 2188 391 2477 730 
Q 2766 1069 2766 1631 
L 2766 1759 
L 2194 1759 
z
M 3341 1997 
L 3341 0 
L 2766 0 
L 2766 531 
Q 2569 213 2275 61 
Q 1981 -91 1556 -91 
Q 1019 -91 701 211 
Q 384 513 384 1019 
Q 384 1609 779 1909 
Q 1175 2209 1959 2209 
L 2766 2209 
L 2766 2266 
Q 2766 2663 2505 2880 
Q 2244 3097 1772 3097 
Q 1472 3097 1187 3025 
Q 903 2953 641 2809 
L 641 3341 
Q 956 3463 1253 3523 
Q 1550 3584 1831 3584 
Q 2591 3584 2966 3190 
Q 3341 2797 3341 1997 
z
" transform="scale(0.015625)"/>
     </defs>
     <use xlink:href="#DejaVuSans-64"/>
     <use xlink:href="#DejaVuSans-65" transform="translate(63.476562 0)"/>
     <use xlink:href="#DejaVuSans-6c" transform="translate(125 0)"/>
     <use xlink:href="#DejaVuSans-74" transform="translate(152.783203 0)"/>
     <use xlink:href="#DejaVuSans-61" transform="translate(191.992188 0)"/>
    </g>
   </g>
  </g>
  <g id="axes_2">
   <g id="patch_4">
    <path d="M 270.1075 103.716325 
L 304.25375 103.716325 
L 304.25375 50.64 
L 270.1075 50.64 
z
" style="fill: #ffffff"/>
   </g>
   <g id="patch_5">
    <path d="M 271.659602 102.675612 
L 279.420114 102.675612 
L 279.420114 95.602942 
L 271.659602 95.602942 
z
" clip-path="url(#p2ff74abe6f)" style="fill: #ffcc33"/>
   </g>
   <g id="patch_6">
    <path d="M 279.420114 102.675612 
L 287.180625 102.675612 
L 287.180625 102.675612 
L 279.420114 102.675612 
z
" clip-path="url(#p2ff74abe6f)" style="fill: #ff0000"/>
   </g>
   <g id="patch_7">
    <path d="M 287.180625 102.675612 
L 294.941136 102.675612 
L 294.941136 102.675612 
L 287.180625 102.675612 
z
" clip-path="url(#p2ff74abe6f)" style="fill: #0000ff"/>
   </g>
   <g id="patch_8">
    <path d="M 294.941136 102.675612 
L 302.701648 102.675612 
L 302.701648 102.675612 
L 294.941136 102.675612 
z
" clip-path="url(#p2ff74abe6f)" style="fill: #ff00ff"/>
   </g>
   <g id="matplotlib.axis_3"/>
   <g id="matplotlib.axis_4">
    <g id="ytick_3"/>
    <g id="ytick_4"/>
   </g>
   <g id="text_4">
    <!-- Pre -->
    <g transform="translate(277.644375 44.64) scale(0.12 -0.12)">
     <defs>
      <path id="DejaVuSans-50" d="M 1259 4147 
L 1259 2394 
L 2053 2394 
Q 2494 2394 2734 2622 
Q 2975 2850 2975 3272 
Q 2975 3691 2734 3919 
Q 2494 4147 2053 4147 
L 1259 4147 
z
M 628 4666 
L 2053 4666 
Q 2838 4666 3239 4311 
Q 3641 3956 3641 3272 
Q 3641 2581 3239 2228 
Q 2838 1875 2053 1875 
L 1259 1875 
L 1259 0 
L 628 0 
L 628 4666 
z
" transform="scale(0.015625)"/>
      <path id="DejaVuSans-72" d="M 2631 2963 
Q 2534 3019 2420 3045 
Q 2306 3072 2169 3072 
Q 1681 3072 1420 2755 
Q 1159 2438 1159 1844 
L 1159 0 
L 581 0 
L 581 3500 
L 1159 3500 
L 1159 2956 
Q 1341 3275 1631 3429 
Q 1922 3584 2338 3584 
Q 2397 3584 2469 3576 
Q 2541 3569 2628 3553 
L 2631 2963 
z
" transform="scale(0.015625)"/>
     </defs>
     <use xlink:href="#DejaVuSans-50"/>
     <use xlink:href="#DejaVuSans-72" transform="translate(58.552734 0)"/>
     <use xlink:href="#DejaVuSans-65" transform="translate(97.416016 0)"/>
    </g>
   </g>
  </g>
  <g id="axes_3">
   <g id="patch_9">
    <path d="M 315.05375 103.716325 
L 349.2 103.716325 
L 349.2 50.64 
L 315.05375 50.64 
z
" style="fill: #ffffff"/>
   </g>
   <g id="patch_10">
    <path d="M 316.605852 102.675612 
L 324.366364 102.675612 
L 324.366364 95.99083 
L 316.605852 95.99083 
z
" clip-path="url(#p4c417ccc2c)" style="fill: #ffcc33"/>
   </g>
   <g id="patch_11">
    <path d="M 324.366364 102.675612 
L 332.126875 102.675612 
L 332.126875 102.675606 
L 324.366364 102.675606 
z
" clip-path="url(#p4c417ccc2c)" style="fill: #ff0000"/>
   </g>
   <g id="patch_12">
    <path d="M 332.126875 102.675612 
L 339.887386 102.675612 
L 339.887386 102.675607 
L 332.126875 102.675607 
z
" clip-path="url(#p4c417ccc2c)" style="fill: #0000ff"/>
   </g>
   <g id="patch_13">
    <path d="M 339.887386 102.675612 
L 347.647898 102.675612 
L 347.647898 102.675612 
L 339.887386 102.675612 
z
" clip-path="url(#p4c417ccc2c)" style="fill: #ff00ff"/>
   </g>
   <g id="matplotlib.axis_5"/>
   <g id="matplotlib.axis_6">
    <g id="ytick_5"/>
    <g id="ytick_6"/>
   </g>
   <g id="text_5">
    <!-- Post -->
    <g transform="translate(319.5775 44.64) scale(0.12 -0.12)">
     <defs>
      <path id="DejaVuSans-6f" d="M 1959 3097 
Q 1497 3097 1228 2736 
Q 959 2375 959 1747 
Q 959 1119 1226 758 
Q 1494 397 1959 397 
Q 2419 397 2687 759 
Q 2956 1122 2956 1747 
Q 2956 2369 2687 2733 
Q 2419 3097 1959 3097 
z
M 1959 3584 
Q 2709 3584 3137 3096 
Q 3566 2609 3566 1747 
Q 3566 888 3137 398 
Q 2709 -91 1959 -91 
Q 1206 -91 779 398 
Q 353 888 353 1747 
Q 353 2609 779 3096 
Q 1206 3584 1959 3584 
z
" transform="scale(0.015625)"/>
      <path id="DejaVuSans-73" d="M 2834 3397 
L 2834 2853 
Q 2591 2978 2328 3040 
Q 2066 3103 1784 3103 
Q 1356 3103 1142 2972 
Q 928 2841 928 2578 
Q 928 2378 1081 2264 
Q 1234 2150 1697 2047 
L 1894 2003 
Q 2506 1872 2764 1633 
Q 3022 1394 3022 966 
Q 3022 478 2636 193 
Q 2250 -91 1575 -91 
Q 1294 -91 989 -36 
Q 684 19 347 128 
L 347 722 
Q 666 556 975 473 
Q 1284 391 1588 391 
Q 1994 391 2212 530 
Q 2431 669 2431 922 
Q 2431 1156 2273 1281 
Q 2116 1406 1581 1522 
L 1381 1569 
Q 847 1681 609 1914 
Q 372 2147 372 2553 
Q 372 3047 722 3315 
Q 1072 3584 1716 3584 
Q 2034 3584 2315 3537 
Q 2597 3491 2834 3397 
z
" transform="scale(0.015625)"/>
     </defs>
     <use xlink:href="#DejaVuSans-50"/>
     <use xlink:href="#DejaVuSans-6f" transform="translate(56.677734 0)"/>
     <use xlink:href="#DejaVuSans-73" transform="translate(117.859375 0)"/>
     <use xlink:href="#DejaVuSans-74" transform="translate(169.958984 0)"/>
    </g>
   </g>
  </g>
  <g id="axes_4">
   <g id="patch_14">
    <path d="M 54.43 186.65306 
L 259.3075 186.65306 
L 259.3075 133.576735 
L 54.43 133.576735 
z
" style="fill: #ffffff"/>
   </g>
   <g id="matplotlib.axis_7">
    <g id="xtick_2"/>
   </g>
   <g id="matplotlib.axis_8">
    <g id="ytick_7">
     <g id="line2d_10">
      <g>
       <use xlink:href="#m954c6893d3" x="54.43" y="185.612347" style="stroke: #000000; stroke-width: 0.8"/>
      </g>
     </g>
     <g id="text_6">
      <!-- 0.0 -->
      <g transform="translate(31.526875 189.411566) scale(0.1 -0.1)">
       <use xlink:href="#DejaVuSans-30"/>
       <use xlink:href="#DejaVuSans-2e" transform="translate(63.623047 0)"/>
       <use xlink:href="#DejaVuSans-30" transform="translate(95.410156 0)"/>
      </g>
     </g>
    </g>
    <g id="ytick_8">
     <g id="line2d_11">
      <g>
       <use xlink:href="#m954c6893d3" x="54.43" y="133.576735" style="stroke: #000000; stroke-width: 0.8"/>
      </g>
     </g>
     <g id="text_7">
      <!-- 0.5 -->
      <g transform="translate(31.526875 137.375954) scale(0.1 -0.1)">
       <use xlink:href="#DejaVuSans-30"/>
       <use xlink:href="#DejaVuSans-2e" transform="translate(63.623047 0)"/>
       <use xlink:href="#DejaVuSans-35" transform="translate(95.410156 0)"/>
      </g>
     </g>
    </g>
   </g>
   <g id="line2d_12">
    <path d="M -1 185.612347 
L 112.966429 185.612239 
L 115.89325 183.425156 
L 118.820071 182.358871 
L 124.673714 180.761827 
L 130.527357 179.434147 
L 139.307821 177.684184 
L 148.088286 176.137785 
L 156.86875 174.790352 
L 165.649214 173.66926 
L 174.429679 172.768774 
L 183.210143 172.068467 
L 191.990607 171.638786 
L 197.84425 171.539347 
L 203.697893 171.596685 
L 209.551536 171.83232 
L 215.405179 172.282109 
L 221.258821 172.955908 
L 227.112464 173.855199 
L 232.966107 175.023738 
L 238.81975 176.564876 
L 241.746571 177.51954 
L 244.673393 178.630578 
L 247.600214 179.956821 
L 250.527036 181.637142 
L 253.453857 184.996395 
L 256.380679 185.612324 
L 256.380679 185.612324 
" clip-path="url(#p7a19cc416f)" style="fill: none; stroke: #ffcc33; stroke-width: 1.5; stroke-linecap: square"/>
   </g>
   <g id="line2d_13">
    <path d="M -1 185.612323 
L 10.527679 185.612347 
L 13.4545 184.366 
L 16.381321 183.761892 
L 22.234964 182.901344 
L 28.088607 182.272068 
L 33.94225 181.819544 
L 42.722714 181.408795 
L 51.503179 181.203695 
L 54.43 183.733478 
L 66.137286 182.629545 
L 74.91775 182.026171 
L 83.698214 181.703213 
L 92.478679 181.682348 
L 101.259143 181.922862 
L 110.039607 182.373982 
L 112.966429 182.562291 
L 118.820071 181.97828 
L 127.600536 181.469254 
L 145.161464 180.520222 
L 156.86875 179.56718 
L 186.136964 176.890294 
L 194.917429 176.321281 
L 203.697893 175.993997 
L 209.551536 175.946377 
L 215.405179 176.055279 
L 221.258821 176.325092 
L 227.112464 176.758206 
L 232.966107 177.367697 
L 238.81975 178.217703 
L 241.746571 178.768109 
L 244.673393 179.436316 
L 247.600214 180.277945 
L 250.527036 181.438234 
L 253.453857 183.420828 
L 256.380679 183.820976 
L 256.380679 183.820976 
" clip-path="url(#p7a19cc416f)" style="fill: none; stroke: #ff0000; stroke-width: 1.5; stroke-linecap: square"/>
   </g>
   <g id="line2d_14">
    <path d="M -1 185.612336 
L 256.380679 185.612347 
L 256.380679 185.612347 
" clip-path="url(#p7a19cc416f)" style="fill: none; stroke: #0000ff; stroke-width: 1.5; stroke-linecap: square"/>
   </g>
   <g id="line2d_15">
    <path d="M -1 180.926202 
L 7.600857 180.332914 
L 16.381321 179.954521 
L 25.161786 179.854669 
L 33.94225 180.038408 
L 42.722714 180.466144 
L 51.503179 181.100379 
L 54.43 183.609477 
L 101.259143 181.16968 
L 124.673714 179.803666 
L 136.381 179.381905 
L 148.088286 179.200331 
L 159.795571 179.222705 
L 171.502857 179.483502 
L 183.210143 180.010251 
L 197.84425 180.933232 
L 215.405179 182.093092 
L 224.185643 182.436526 
L 230.039286 182.482198 
L 238.81975 182.286757 
L 250.527036 181.701576 
L 256.380679 181.367745 
L 256.380679 181.367745 
" clip-path="url(#p7a19cc416f)" style="fill: none; stroke: #ff00ff; stroke-width: 1.5; stroke-linecap: square"/>
   </g>
   <g id="line2d_16">
    <path d="M 54.43 185.612347 
L 259.3075 185.612347 
" clip-path="url(#p7a19cc416f)" style="fill: none; stroke: #000000; stroke-width: 0.8; stroke-linecap: square"/>
   </g>
   <g id="line2d_17">
    <path d="M 7.600857 184.570562 
L 10.527679 183.13407 
L 13.4545 182.221905 
L 19.308143 180.840515 
L 25.161786 179.763033 
L 31.015429 178.903581 
L 36.869071 178.252056 
L 42.722714 177.830977 
L 48.576357 177.663335 
L 51.503179 177.677925 
M 80.771393 184.17745 
L 83.698214 183.406022 
L 89.551857 182.318999 
L 98.332321 181.003235 
L 115.89325 178.666405 
L 130.527357 176.964097 
L 151.015107 174.85693 
L 162.722393 173.790117 
L 174.429679 172.972809 
L 183.210143 172.540601 
L 191.990607 172.343569 
L 200.771071 172.449661 
L 206.624714 172.692656 
L 212.478357 173.102095 
L 218.332 173.695227 
L 224.185643 174.471413 
L 230.039286 175.431858 
L 235.892929 176.639276 
L 241.746571 178.192157 
L 244.673393 179.132434 
L 247.600214 180.207233 
L 250.527036 181.454265 
L 253.453857 183.012792 
L 253.453857 183.012792 
" clip-path="url(#p7a19cc416f)" style="fill: none; stroke-dasharray: 5.55,2.4; stroke-dashoffset: 0; stroke: #000000; stroke-width: 1.5"/>
   </g>
   <g id="line2d_18">
    <path d="M 142.234643 186.65306 
L 142.234643 133.576735 
" clip-path="url(#p7a19cc416f)" style="fill: none; stroke: #000000; stroke-width: 0.8; stroke-linecap: square"/>
   </g>
   <g id="patch_15">
    <path d="M 54.43 185.612347 
L 54.43 133.576735 
" style="fill: none; stroke: #000000; stroke-width: 0.8; stroke-linejoin: miter; stroke-linecap: square"/>
   </g>
   <g id="text_8">
    <!-- theta -->
    <g transform="translate(140.993125 127.576735) scale(0.12 -0.12)">
     <defs>
      <path id="DejaVuSans-68" d="M 3513 2113 
L 3513 0 
L 2938 0 
L 2938 2094 
Q 2938 2591 2744 2837 
Q 2550 3084 2163 3084 
Q 1697 3084 1428 2787 
Q 1159 2491 1159 1978 
L 1159 0 
L 581 0 
L 581 4863 
L 1159 4863 
L 1159 2956 
Q 1366 3272 1645 3428 
Q 1925 3584 2291 3584 
Q 2894 3584 3203 3211 
Q 3513 2838 3513 2113 
z
" transform="scale(0.015625)"/>
     </defs>
     <use xlink:href="#DejaVuSans-74"/>
     <use xlink:href="#DejaVuSans-68" transform="translate(39.208984 0)"/>
     <use xlink:href="#DejaVuSans-65" transform="translate(102.587891 0)"/>
     <use xlink:href="#DejaVuSans-74" transform="translate(164.111328 0)"/>
     <use xlink:href="#DejaVuSans-61" transform="translate(203.320312 0)"/>
    </g>
   </g>
  </g>
  <g id="axes_5">
   <g id="patch_16">
    <path d="M 270.1075 186.65306 
L 304.25375 186.65306 
L 304.25375 133.576735 
L 270.1075 133.576735 
z
" style="fill: #ffffff"/>
   </g>
   <g id="patch_17">
    <path d="M 271.659602 185.612347 
L 279.420114 185.612347 
L 279.420114 184.005801 
L 271.659602 184.005801 
z
" clip-path="url(#pe2d449214c)" style="fill: #ffcc33"/>
   </g>
   <g id="patch_18">
    <path d="M 279.420114 185.612347 
L 287.180625 185.612347 
L 287.180625 182.034365 
L 279.420114 182.034365 
z
" clip-path="url(#pe2d449214c)" style="fill: #ff0000"/>
   </g>
   <g id="patch_19">
    <path d="M 287.180625 185.612347 
L 294.941136 185.612347 
L 294.941136 185.612334 
L 287.180625 185.612334 
z
" clip-path="url(#pe2d449214c)" style="fill: #0000ff"/>
   </g>
   <g id="patch_20">
    <path d="M 294.941136 185.612347 
L 302.701648 185.612347 
L 302.701648 181.389616 
L 294.941136 181.389616 
z
" clip-path="url(#pe2d449214c)" style="fill: #ff00ff"/>
   </g>
   <g id="matplotlib.axis_9"/>
   <g id="matplotlib.axis_10">
    <g id="ytick_9"/>
    <g id="ytick_10"/>
   </g>
  </g>
  <g id="axes_6">
   <g id="patch_21">
    <path d="M 315.05375 186.65306 
L 349.2 186.65306 
L 349.2 133.576735 
L 315.05375 133.576735 
z
" style="fill: #ffffff"/>
   </g>
   <g id="patch_22">
    <path d="M 316.605852 185.612347 
L 324.366364 185.612347 
L 324.366364 174.647749 
L 316.605852 174.647749 
z
" clip-path="url(#pf2a6eb8f5b)" style="fill: #ffcc33"/>
   </g>
   <g id="patch_23">
    <path d="M 324.366364 185.612347 
L 332.126875 185.612347 
L 332.126875 178.16477 
L 324.366364 178.16477 
z
" clip-path="url(#pf2a6eb8f5b)" style="fill: #ff0000"/>
   </g>
   <g id="patch_24">
    <path d="M 332.126875 185.612347 
L 339.887386 185.612347 
L 339.887386 185.610836 
L 332.126875 185.610836 
z
" clip-path="url(#pf2a6eb8f5b)" style="fill: #0000ff"/>
   </g>
   <g id="patch_25">
    <path d="M 339.887386 185.612347 
L 347.647898 185.612347 
L 347.647898 180.835209 
L 339.887386 180.835209 
z
" clip-path="url(#pf2a6eb8f5b)" style="fill: #ff00ff"/>
   </g>
   <g id="matplotlib.axis_11"/>
   <g id="matplotlib.axis_12">
    <g id="ytick_11"/>
    <g id="ytick_12"/>
   </g>
  </g>
  <g id="axes_7">
   <g id="patch_26">
    <path d="M 54.43 269.589795 
L 259.3075 269.589795 
L 259.3075 216.51347 
L 54.43 216.51347 
z
" style="fill: #ffffff"/>
   </g>
   <g id="matplotlib.axis_13">
    <g id="xtick_3"/>
   </g>
   <g id="matplotlib.axis_14">
    <g id="ytick_13">
     <g id="line2d_19">
      <g>
       <use xlink:href="#m954c6893d3" x="54.43" y="268.549083" style="stroke: #000000; stroke-width: 0.8"/>
      </g>
     </g>
     <g id="text_9">
      <!-- 0.0 -->
      <g transform="translate(31.526875 272.348301) scale(0.1 -0.1)">
       <use xlink:href="#DejaVuSans-30"/>
       <use xlink:href="#DejaVuSans-2e" transform="translate(63.623047 0)"/>
       <use xlink:href="#DejaVuSans-30" transform="translate(95.410156 0)"/>
      </g>
     </g>
    </g>
    <g id="ytick_14">
     <g id="line2d_20">
      <g>
       <use xlink:href="#m954c6893d3" x="54.43" y="216.51347" style="stroke: #000000; stroke-width: 0.8"/>
      </g>
     </g>
     <g id="text_10">
      <!-- 0.5 -->
      <g transform="translate(31.526875 220.312689) scale(0.1 -0.1)">
       <use xlink:href="#DejaVuSans-30"/>
       <use xlink:href="#DejaVuSans-2e" transform="translate(63.623047 0)"/>
       <use xlink:href="#DejaVuSans-35" transform="translate(95.410156 0)"/>
      </g>
     </g>
    </g>
   </g>
   <g id="line2d_21">
    <path d="M -1 268.548473 
L 13.4545 268.549083 
L 16.381321 266.986905 
L 19.308143 266.004397 
L 22.234964 265.730394 
L 25.161786 265.901088 
L 28.088607 266.565344 
L 31.015429 268.549083 
L 115.89325 268.549083 
L 118.820071 265.250394 
L 133.454179 254.69521 
L 136.381 252.976472 
L 139.307821 251.636286 
L 142.234643 250.707432 
L 145.161464 250.125467 
L 148.088286 249.756959 
L 151.015107 249.525173 
L 156.86875 249.373091 
L 168.576036 249.145432 
L 174.429679 249.055624 
L 180.283321 249.220853 
L 186.136964 249.121548 
L 189.063786 249.281342 
L 191.990607 249.630004 
L 197.84425 250.787999 
L 203.697893 252.157861 
L 206.624714 253.029391 
L 209.551536 254.211883 
L 218.332 258.589261 
L 221.258821 259.732571 
L 224.185643 260.625353 
L 227.112464 261.174386 
L 230.039286 261.288058 
L 232.966107 260.994619 
L 235.892929 260.394495 
L 238.81975 259.56652 
L 244.673393 257.711926 
L 247.600214 256.956277 
L 253.453857 255.870749 
L 256.380679 255.472175 
L 256.380679 255.472175 
" clip-path="url(#pd50fb69a0f)" style="fill: none; stroke: #ffcc33; stroke-width: 1.5; stroke-linecap: square"/>
   </g>
   <g id="line2d_22">
    <path d="M -1 268.548207 
L 1.747214 268.54906 
L 7.600857 266.203698 
L 10.527679 265.491958 
L 13.4545 264.933642 
L 19.308143 263.188418 
L 22.234964 262.647346 
L 25.161786 262.329258 
L 28.088607 262.226207 
L 31.015429 262.285715 
L 36.869071 261.579472 
L 42.722714 261.086525 
L 51.503179 260.631326 
L 54.43 262.777161 
L 60.283643 261.536534 
L 74.91775 257.897181 
L 77.844571 257.375532 
L 80.771393 256.990809 
L 83.698214 256.752188 
L 86.625036 256.650912 
L 92.478679 256.763067 
L 98.332321 257.185396 
L 101.259143 257.542549 
L 107.112786 258.591908 
L 115.89325 260.691432 
L 118.820071 260.961057 
L 127.600536 261.436697 
L 133.454179 262.03778 
L 139.307821 263.006353 
L 145.161464 264.146644 
L 151.015107 264.985021 
L 156.86875 265.462412 
L 162.722393 265.522466 
L 168.576036 265.601979 
L 171.502857 265.796766 
L 174.429679 266.193423 
L 177.3565 266.968339 
L 180.283321 268.549073 
L 256.380679 268.549082 
L 256.380679 268.549082 
" clip-path="url(#pd50fb69a0f)" style="fill: none; stroke: #ff0000; stroke-width: 1.5; stroke-linecap: square"/>
   </g>
   <g id="line2d_23">
    <path d="M -1 268.549026 
L 1.747214 268.549082 
L 4.674036 265.814895 
L 7.600857 264.952825 
L 10.527679 264.745293 
L 33.94225 265.08054 
L 39.795893 264.882065 
L 45.649536 264.509373 
L 51.503179 264.059807 
L 54.43 258.401033 
L 57.356821 258.866191 
L 60.283643 259.463261 
L 63.210464 260.240507 
L 66.137286 261.23529 
L 69.064107 262.47431 
L 71.990929 263.989334 
L 74.91775 266.004271 
L 77.844571 268.549083 
L 235.892929 268.549083 
L 238.81975 265.574933 
L 241.746571 264.40715 
L 244.673393 263.814475 
L 247.600214 263.525917 
L 250.527036 263.460799 
L 256.380679 263.616257 
L 256.380679 263.616257 
" clip-path="url(#pd50fb69a0f)" style="fill: none; stroke: #0000ff; stroke-width: 1.5; stroke-linecap: square"/>
   </g>
   <g id="line2d_24">
    <path d="M -1 265.964762 
L 1.747214 265.011236 
L 4.674036 263.007735 
L 7.600857 261.850274 
L 10.527679 261.234027 
L 22.234964 259.487985 
L 31.015429 257.914207 
L 36.869071 257.007334 
L 42.722714 256.438609 
L 51.503179 255.725015 
L 54.43 254.99966 
L 60.283643 254.959941 
L 63.210464 255.068894 
L 66.137286 255.346008 
L 69.064107 255.845956 
L 71.990929 256.58665 
L 74.91775 257.664125 
L 77.844571 258.416411 
L 80.771393 258.455224 
L 86.625036 258.89166 
L 98.332321 260.194665 
L 104.185964 260.609463 
L 110.039607 260.727595 
L 115.89325 260.768715 
L 118.820071 260.885554 
L 121.746893 261.136761 
L 124.673714 261.561701 
L 127.600536 262.173167 
L 136.381 264.4183 
L 139.307821 265.022434 
L 142.234643 265.450608 
L 145.161464 265.662009 
L 151.015107 265.637789 
L 156.86875 265.332617 
L 162.722393 264.766237 
L 171.502857 263.536925 
L 177.3565 262.668263 
L 183.210143 262.066875 
L 186.136964 261.961189 
L 189.063786 262.049491 
L 191.990607 262.340918 
L 194.917429 262.798966 
L 197.84425 263.397962 
L 200.771071 264.14334 
L 203.697893 265.045961 
L 206.624714 266.129532 
L 209.551536 267.898554 
L 212.478357 268.549076 
L 227.112464 268.549051 
L 230.039286 265.898814 
L 235.892929 262.14706 
L 238.81975 259.151943 
L 241.746571 256.765679 
L 244.673393 254.976395 
L 247.600214 253.697815 
L 250.527036 252.845147 
L 253.453857 252.288048 
L 256.380679 251.853649 
L 256.380679 251.853649 
" clip-path="url(#pd50fb69a0f)" style="fill: none; stroke: #ff00ff; stroke-width: 1.5; stroke-linecap: square"/>
   </g>
   <g id="line2d_25">
    <path d="M 54.43 268.549083 
L 259.3075 268.549083 
" clip-path="url(#pd50fb69a0f)" style="fill: none; stroke: #000000; stroke-width: 0.8; stroke-linecap: square"/>
   </g>
   <g id="line2d_26">
    <path d="M -1 261.207954 
L 1.747214 259.890214 
L 4.674036 258.670791 
L 7.600857 257.628809 
L 10.527679 256.758435 
L 16.381321 255.424878 
L 22.234964 254.437354 
L 25.161786 254.084812 
L 31.015429 253.712025 
L 36.869071 253.686418 
L 45.649536 253.790296 
L 51.503179 253.510107 
L 54.43 255.760335 
L 60.283643 255.457209 
L 71.990929 254.716799 
L 77.844571 254.486734 
L 83.698214 254.4819 
L 95.4055 254.913786 
L 101.259143 255.325705 
L 112.966429 256.469704 
L 115.89325 256.495082 
L 118.820071 256.331326 
L 121.746893 256.000141 
L 124.673714 255.518141 
L 127.600536 254.879461 
L 130.527357 254.081005 
L 139.307821 251.345477 
L 142.234643 250.647998 
L 145.161464 250.133253 
L 148.088286 249.762383 
L 153.941929 249.366215 
L 171.502857 248.855179 
L 180.283321 248.406786 
L 183.210143 248.387726 
L 186.136964 248.504159 
L 189.063786 248.80202 
L 191.990607 249.295215 
L 197.84425 250.681535 
L 206.624714 252.962178 
L 209.551536 254.060553 
L 212.478357 255.52057 
L 218.332 258.655809 
L 221.258821 259.960014 
L 224.185643 261.047016 
L 227.112464 261.694939 
L 230.039286 261.472034 
L 232.966107 260.266034 
L 235.892929 258.469196 
L 241.746571 254.598809 
L 244.673393 252.970204 
L 247.600214 251.722259 
L 250.527036 250.826926 
L 253.453857 250.154583 
L 256.380679 249.598881 
L 256.380679 249.598881 
" clip-path="url(#pd50fb69a0f)" style="fill: none; stroke-dasharray: 5.55,2.4; stroke-dashoffset: 0; stroke: #000000; stroke-width: 1.5"/>
   </g>
   <g id="line2d_27">
    <path d="M 142.234643 269.589795 
L 142.234643 216.51347 
" clip-path="url(#pd50fb69a0f)" style="fill: none; stroke: #000000; stroke-width: 0.8; stroke-linecap: square"/>
   </g>
   <g id="patch_27">
    <path d="M 54.43 268.549083 
L 54.43 216.51347 
" style="fill: none; stroke: #000000; stroke-width: 0.8; stroke-linejoin: miter; stroke-linecap: square"/>
   </g>
   <g id="text_11">
    <!-- alpha-beta -->
    <g transform="translate(124.541875 210.51347) scale(0.12 -0.12)">
     <defs>
      <path id="DejaVuSans-70" d="M 1159 525 
L 1159 -1331 
L 581 -1331 
L 581 3500 
L 1159 3500 
L 1159 2969 
Q 1341 3281 1617 3432 
Q 1894 3584 2278 3584 
Q 2916 3584 3314 3078 
Q 3713 2572 3713 1747 
Q 3713 922 3314 415 
Q 2916 -91 2278 -91 
Q 1894 -91 1617 61 
Q 1341 213 1159 525 
z
M 3116 1747 
Q 3116 2381 2855 2742 
Q 2594 3103 2138 3103 
Q 1681 3103 1420 2742 
Q 1159 2381 1159 1747 
Q 1159 1113 1420 752 
Q 1681 391 2138 391 
Q 2594 391 2855 752 
Q 3116 1113 3116 1747 
z
" transform="scale(0.015625)"/>
      <path id="DejaVuSans-2d" d="M 313 2009 
L 1997 2009 
L 1997 1497 
L 313 1497 
L 313 2009 
z
" transform="scale(0.015625)"/>
      <path id="DejaVuSans-62" d="M 3116 1747 
Q 3116 2381 2855 2742 
Q 2594 3103 2138 3103 
Q 1681 3103 1420 2742 
Q 1159 2381 1159 1747 
Q 1159 1113 1420 752 
Q 1681 391 2138 391 
Q 2594 391 2855 752 
Q 3116 1113 3116 1747 
z
M 1159 2969 
Q 1341 3281 1617 3432 
Q 1894 3584 2278 3584 
Q 2916 3584 3314 3078 
Q 3713 2572 3713 1747 
Q 3713 922 3314 415 
Q 2916 -91 2278 -91 
Q 1894 -91 1617 61 
Q 1341 213 1159 525 
L 1159 0 
L 581 0 
L 581 4863 
L 1159 4863 
L 1159 2969 
z
" transform="scale(0.015625)"/>
     </defs>
     <use xlink:href="#DejaVuSans-61"/>
     <use xlink:href="#DejaVuSans-6c" transform="translate(61.279297 0)"/>
     <use xlink:href="#DejaVuSans-70" transform="translate(89.0625 0)"/>
     <use xlink:href="#DejaVuSans-68" transform="translate(152.539062 0)"/>
     <use xlink:href="#DejaVuSans-61" transform="translate(215.917969 0)"/>
     <use xlink:href="#DejaVuSans-2d" transform="translate(277.197266 0)"/>
     <use xlink:href="#DejaVuSans-62" transform="translate(313.28125 0)"/>
     <use xlink:href="#DejaVuSans-65" transform="translate(376.757812 0)"/>
     <use xlink:href="#DejaVuSans-74" transform="translate(438.28125 0)"/>
     <use xlink:href="#DejaVuSans-61" transform="translate(477.490234 0)"/>
    </g>
   </g>
  </g>
  <g id="axes_8">
   <g id="patch_28">
    <path d="M 270.1075 269.589795 
L 304.25375 269.589795 
L 304.25375 216.51347 
L 270.1075 216.51347 
z
" style="fill: #ffffff"/>
   </g>
   <g id="patch_29">
    <path d="M 271.659602 268.549083 
L 279.420114 268.549083 
L 279.420114 265.744534 
L 271.659602 265.744534 
z
" clip-path="url(#pda8c0cee22)" style="fill: #ffcc33"/>
   </g>
   <g id="patch_30">
    <path d="M 279.420114 268.549083 
L 287.180625 268.549083 
L 287.180625 259.546885 
L 279.420114 259.546885 
z
" clip-path="url(#pda8c0cee22)" style="fill: #ff0000"/>
   </g>
   <g id="patch_31">
    <path d="M 287.180625 268.549083 
L 294.941136 268.549083 
L 294.941136 266.624803 
L 287.180625 266.624803 
z
" clip-path="url(#pda8c0cee22)" style="fill: #0000ff"/>
   </g>
   <g id="patch_32">
    <path d="M 294.941136 268.549083 
L 302.701648 268.549083 
L 302.701648 259.483523 
L 294.941136 259.483523 
z
" clip-path="url(#pda8c0cee22)" style="fill: #ff00ff"/>
   </g>
   <g id="matplotlib.axis_15"/>
   <g id="matplotlib.axis_16">
    <g id="ytick_15"/>
    <g id="ytick_16"/>
   </g>
  </g>
  <g id="axes_9">
   <g id="patch_33">
    <path d="M 315.05375 269.589795 
L 349.2 269.589795 
L 349.2 216.51347 
L 315.05375 216.51347 
z
" style="fill: #ffffff"/>
   </g>
   <g id="patch_34">
    <path d="M 316.605852 268.549083 
L 324.366364 268.549083 
L 324.366364 253.440017 
L 316.605852 253.440017 
z
" clip-path="url(#p3fb2e3ce5f)" style="fill: #ffcc33"/>
   </g>
   <g id="patch_35">
    <path d="M 324.366364 268.549083 
L 332.126875 268.549083 
L 332.126875 267.500865 
L 324.366364 267.500865 
z
" clip-path="url(#p3fb2e3ce5f)" style="fill: #ff0000"/>
   </g>
   <g id="patch_36">
    <path d="M 332.126875 268.549083 
L 339.887386 268.549083 
L 339.887386 267.751087 
L 332.126875 267.751087 
z
" clip-path="url(#p3fb2e3ce5f)" style="fill: #0000ff"/>
   </g>
   <g id="patch_37">
    <path d="M 339.887386 268.549083 
L 347.647898 268.549083 
L 347.647898 263.147067 
L 339.887386 263.147067 
z
" clip-path="url(#p3fb2e3ce5f)" style="fill: #ff00ff"/>
   </g>
   <g id="matplotlib.axis_17"/>
   <g id="matplotlib.axis_18">
    <g id="ytick_17"/>
    <g id="ytick_18"/>
   </g>
  </g>
  <g id="axes_10">
   <g id="patch_38">
    <path d="M 54.43 352.52653 
L 259.3075 352.52653 
L 259.3075 299.450205 
L 54.43 299.450205 
z
" style="fill: #ffffff"/>
   </g>
   <g id="matplotlib.axis_19">
    <g id="xtick_4"/>
   </g>
   <g id="matplotlib.axis_20">
    <g id="ytick_19">
     <g id="line2d_28">
      <g>
       <use xlink:href="#m954c6893d3" x="54.43" y="351.485818" style="stroke: #000000; stroke-width: 0.8"/>
      </g>
     </g>
     <g id="text_12">
      <!-- 0.0 -->
      <g transform="translate(31.526875 355.285036) scale(0.1 -0.1)">
       <use xlink:href="#DejaVuSans-30"/>
       <use xlink:href="#DejaVuSans-2e" transform="translate(63.623047 0)"/>
       <use xlink:href="#DejaVuSans-30" transform="translate(95.410156 0)"/>
      </g>
     </g>
    </g>
    <g id="ytick_20">
     <g id="line2d_29">
      <g>
       <use xlink:href="#m954c6893d3" x="54.43" y="299.450205" style="stroke: #000000; stroke-width: 0.8"/>
      </g>
     </g>
     <g id="text_13">
      <!-- 0.5 -->
      <g transform="translate(31.526875 303.249424) scale(0.1 -0.1)">
       <use xlink:href="#DejaVuSans-30"/>
       <use xlink:href="#DejaVuSans-2e" transform="translate(63.623047 0)"/>
       <use xlink:href="#DejaVuSans-35" transform="translate(95.410156 0)"/>
      </g>
     </g>
    </g>
   </g>
   <g id="line2d_30">
    <path d="M -1 351.485818 
L 107.112786 351.485818 
L 110.039607 350.988426 
L 112.966429 349.114902 
L 118.820071 346.642315 
L 124.673714 344.461149 
L 130.527357 342.551958 
L 136.381 340.898258 
L 142.234643 339.49804 
L 148.088286 338.243951 
L 153.941929 336.938209 
L 159.795571 336.003491 
L 162.722393 335.699652 
L 168.576036 335.421742 
L 174.429679 335.528953 
L 180.283321 335.919279 
L 189.063786 336.827846 
L 197.84425 337.77981 
L 203.697893 338.205531 
L 215.405179 338.731002 
L 218.332 339.024827 
L 221.258821 339.479872 
L 224.185643 340.105896 
L 227.112464 340.887451 
L 238.81975 344.54802 
L 241.746571 345.13043 
L 256.380679 347.321754 
L 256.380679 347.321754 
" clip-path="url(#pfa56f51880)" style="fill: none; stroke: #ffcc33; stroke-width: 1.5; stroke-linecap: square"/>
   </g>
   <g id="line2d_31">
    <path d="M -1 351.485818 
L 10.527679 351.485818 
L 13.4545 349.687622 
L 16.381321 348.86042 
L 19.308143 348.235807 
L 25.161786 347.3118 
L 31.015429 346.679595 
L 39.795893 346.079929 
L 51.503179 345.542395 
L 54.43 347.52406 
L 71.990929 344.54745 
L 77.844571 343.734178 
L 83.698214 343.126449 
L 89.551857 342.768149 
L 95.4055 342.68495 
L 101.259143 342.917031 
L 107.112786 343.526573 
L 118.820071 345.213965 
L 127.600536 346.497847 
L 136.381 348.050991 
L 142.234643 349.385573 
L 148.088286 351.485818 
L 238.81975 351.485817 
L 241.746571 350.277807 
L 244.673393 349.728596 
L 247.600214 349.615644 
L 250.527036 349.838543 
L 253.453857 350.549267 
L 256.380679 351.485818 
L 256.380679 351.485818 
" clip-path="url(#pfa56f51880)" style="fill: none; stroke: #ff0000; stroke-width: 1.5; stroke-linecap: square"/>
   </g>
   <g id="line2d_32">
    <path d="M -1 351.485816 
L 51.503179 351.485818 
L 54.43 344.605131 
L 57.356821 345.298513 
L 60.283643 346.125366 
L 63.210464 347.115866 
L 66.137286 348.417319 
L 69.064107 351.485649 
L 98.332321 351.485818 
L 101.259143 351.194448 
L 104.185964 348.315649 
L 107.112786 346.831414 
L 110.039607 345.558104 
L 112.966429 345.342193 
L 118.820071 345.684806 
L 127.600536 346.586456 
L 136.381 347.492744 
L 142.234643 347.927648 
L 148.088286 348.14242 
L 153.941929 348.129557 
L 159.795571 347.945505 
L 162.722393 348.750284 
L 165.649214 351.142478 
L 168.576036 351.485816 
L 256.380679 351.485817 
L 256.380679 351.485817 
" clip-path="url(#pfa56f51880)" style="fill: none; stroke: #0000ff; stroke-width: 1.5; stroke-linecap: square"/>
   </g>
   <g id="line2d_33">
    <path d="M -1 345.6853 
L 51.503179 340.701312 
L 63.210464 342.080799 
L 66.137286 342.736086 
L 69.064107 343.683214 
L 77.844571 343.279557 
L 83.698214 343.189164 
L 89.551857 343.294732 
L 95.4055 343.673921 
L 98.332321 343.995334 
L 101.259143 344.430751 
L 104.185964 345.953211 
L 107.112786 347.635568 
L 110.039607 350.000289 
L 112.966429 351.485818 
L 159.795571 351.485818 
L 162.722393 348.946166 
L 165.649214 347.005341 
L 168.576036 346.227605 
L 171.502857 345.577839 
L 174.429679 345.050951 
L 177.3565 344.655962 
L 180.283321 344.392124 
L 183.210143 344.258401 
L 186.136964 344.254559 
L 191.990607 344.606826 
L 197.84425 345.32392 
L 212.478357 347.485464 
L 215.405179 347.672786 
L 218.332 347.693502 
L 221.258821 347.539699 
L 224.185643 347.226688 
L 230.039286 346.227792 
L 235.892929 344.880568 
L 253.453857 340.364398 
L 256.380679 339.751827 
L 256.380679 339.751827 
" clip-path="url(#pfa56f51880)" style="fill: none; stroke: #ff00ff; stroke-width: 1.5; stroke-linecap: square"/>
   </g>
   <g id="line2d_34">
    <path d="M 54.43 351.485818 
L 259.3075 351.485818 
" clip-path="url(#pfa56f51880)" style="fill: none; stroke: #000000; stroke-width: 0.8; stroke-linecap: square"/>
   </g>
   <g id="line2d_35">
    <path d="M -1 342.603188 
L 4.674036 341.263948 
L 10.527679 340.163977 
L 16.381321 339.385224 
L 22.234964 338.916474 
L 28.088607 338.71806 
L 36.869071 338.738415 
L 45.649536 338.758568 
L 51.503179 338.606693 
L 54.43 341.828451 
L 63.210464 342.550944 
L 69.064107 342.822105 
L 74.91775 342.790894 
L 80.771393 342.379157 
L 86.625036 341.649133 
L 95.4055 340.401284 
L 101.259143 339.82992 
L 107.112786 339.621001 
L 124.673714 339.506766 
L 133.454179 339.128281 
L 139.307821 338.704511 
L 148.088286 337.788679 
L 159.795571 336.429629 
L 165.649214 335.961386 
L 171.502857 335.753231 
L 177.3565 335.859637 
L 183.210143 336.303675 
L 189.063786 337.069876 
L 203.697893 339.367238 
L 209.551536 339.82624 
L 221.258821 340.291535 
L 232.966107 341.15594 
L 238.81975 341.172098 
L 244.673393 340.784496 
L 256.380679 339.533356 
L 256.380679 339.533356 
" clip-path="url(#pfa56f51880)" style="fill: none; stroke-dasharray: 5.55,2.4; stroke-dashoffset: 0; stroke: #000000; stroke-width: 1.5"/>
   </g>
   <g id="line2d_36">
    <path d="M 142.234643 352.52653 
L 142.234643 299.450205 
" clip-path="url(#pfa56f51880)" style="fill: none; stroke: #000000; stroke-width: 0.8; stroke-linecap: square"/>
   </g>
   <g id="patch_39">
    <path d="M 54.43 351.485818 
L 54.43 299.450205 
" style="fill: none; stroke: #000000; stroke-width: 0.8; stroke-linejoin: miter; stroke-linecap: square"/>
   </g>
   <g id="text_14">
    <!-- alpha -->
    <g transform="translate(140.236562 293.450205) scale(0.12 -0.12)">
     <use xlink:href="#DejaVuSans-61"/>
     <use xlink:href="#DejaVuSans-6c" transform="translate(61.279297 0)"/>
     <use xlink:href="#DejaVuSans-70" transform="translate(89.0625 0)"/>
     <use xlink:href="#DejaVuSans-68" transform="translate(152.539062 0)"/>
     <use xlink:href="#DejaVuSans-61" transform="translate(215.917969 0)"/>
    </g>
   </g>
  </g>
  <g id="axes_11">
   <g id="patch_40">
    <path d="M 270.1075 352.52653 
L 304.25375 352.52653 
L 304.25375 299.450205 
L 270.1075 299.450205 
z
" style="fill: #ffffff"/>
   </g>
   <g id="patch_41">
    <path d="M 271.659602 351.485818 
L 279.420114 351.485818 
L 279.420114 349.052249 
L 271.659602 349.052249 
z
" clip-path="url(#p3cc8599042)" style="fill: #ffcc33"/>
   </g>
   <g id="patch_42">
    <path d="M 279.420114 351.485818 
L 287.180625 351.485818 
L 287.180625 344.922623 
L 279.420114 344.922623 
z
" clip-path="url(#p3cc8599042)" style="fill: #ff0000"/>
   </g>
   <g id="patch_43">
    <path d="M 287.180625 351.485818 
L 294.941136 351.485818 
L 294.941136 348.481979 
L 287.180625 348.481979 
z
" clip-path="url(#p3cc8599042)" style="fill: #0000ff"/>
   </g>
   <g id="patch_44">
    <path d="M 294.941136 351.485818 
L 302.701648 351.485818 
L 302.701648 346.317728 
L 294.941136 346.317728 
z
" clip-path="url(#p3cc8599042)" style="fill: #ff00ff"/>
   </g>
   <g id="matplotlib.axis_21"/>
   <g id="matplotlib.axis_22">
    <g id="ytick_21"/>
    <g id="ytick_22"/>
   </g>
  </g>
  <g id="axes_12">
   <g id="patch_45">
    <path d="M 315.05375 352.52653 
L 349.2 352.52653 
L 349.2 299.450205 
L 315.05375 299.450205 
z
" style="fill: #ffffff"/>
   </g>
   <g id="patch_46">
    <path d="M 316.605852 351.485818 
L 324.366364 351.485818 
L 324.366364 339.365707 
L 316.605852 339.365707 
z
" clip-path="url(#paf25d8be93)" style="fill: #ffcc33"/>
   </g>
   <g id="patch_47">
    <path d="M 324.366364 351.485818 
L 332.126875 351.485818 
L 332.126875 351.221189 
L 324.366364 351.221189 
z
" clip-path="url(#paf25d8be93)" style="fill: #ff0000"/>
   </g>
   <g id="patch_48">
    <path d="M 332.126875 351.485818 
L 339.887386 351.485818 
L 339.887386 350.809487 
L 332.126875 350.809487 
z
" clip-path="url(#paf25d8be93)" style="fill: #0000ff"/>
   </g>
   <g id="patch_49">
    <path d="M 339.887386 351.485818 
L 347.647898 351.485818 
L 347.647898 346.249065 
L 339.887386 346.249065 
z
" clip-path="url(#paf25d8be93)" style="fill: #ff00ff"/>
   </g>
   <g id="matplotlib.axis_23"/>
   <g id="matplotlib.axis_24">
    <g id="ytick_23"/>
    <g id="ytick_24"/>
   </g>
  </g>
  <g id="axes_13">
   <g id="patch_50">
    <path d="M 54.43 435.463265 
L 259.3075 435.463265 
L 259.3075 382.38694 
L 54.43 382.38694 
z
" style="fill: #ffffff"/>
   </g>
   <g id="matplotlib.axis_25">
    <g id="xtick_5"/>
   </g>
   <g id="matplotlib.axis_26">
    <g id="ytick_25">
     <g id="line2d_37">
      <g>
       <use xlink:href="#m954c6893d3" x="54.43" y="434.422553" style="stroke: #000000; stroke-width: 0.8"/>
      </g>
     </g>
     <g id="text_15">
      <!-- 0.0 -->
      <g transform="translate(31.526875 438.221771) scale(0.1 -0.1)">
       <use xlink:href="#DejaVuSans-30"/>
       <use xlink:href="#DejaVuSans-2e" transform="translate(63.623047 0)"/>
       <use xlink:href="#DejaVuSans-30" transform="translate(95.410156 0)"/>
      </g>
     </g>
    </g>
    <g id="ytick_26">
     <g id="line2d_38">
      <g>
       <use xlink:href="#m954c6893d3" x="54.43" y="382.38694" style="stroke: #000000; stroke-width: 0.8"/>
      </g>
     </g>
     <g id="text_16">
      <!-- 0.5 -->
      <g transform="translate(31.526875 386.186159) scale(0.1 -0.1)">
       <use xlink:href="#DejaVuSans-30"/>
       <use xlink:href="#DejaVuSans-2e" transform="translate(63.623047 0)"/>
       <use xlink:href="#DejaVuSans-35" transform="translate(95.410156 0)"/>
      </g>
     </g>
    </g>
   </g>
   <g id="line2d_39">
    <path d="M -1 434.422552 
L 13.4545 434.422538 
L 16.381321 432.582667 
L 19.308143 431.59903 
L 22.234964 431.380386 
L 25.161786 431.7213 
L 28.088607 432.693984 
L 31.015429 434.418806 
L 69.064107 434.41479 
L 71.990929 432.298889 
L 74.91775 431.414098 
L 77.844571 431.117043 
L 80.771393 431.305021 
L 83.698214 432.030596 
L 86.625036 434.235548 
L 89.551857 434.422553 
L 118.820071 434.422553 
L 121.746893 432.188975 
L 130.527357 421.402722 
L 133.454179 418.216382 
L 136.381 415.914968 
L 139.307821 414.568418 
L 142.234643 413.975163 
L 145.161464 413.841329 
L 153.941929 413.928985 
L 159.795571 414.121367 
L 165.649214 414.022526 
L 171.502857 413.702672 
L 177.3565 413.374531 
L 180.283321 413.400144 
L 183.210143 413.66627 
L 186.136964 414.354453 
L 189.063786 414.539172 
L 191.990607 415.019681 
L 194.917429 415.81794 
L 197.84425 416.832778 
L 200.771071 417.985499 
L 203.697893 419.31122 
L 206.624714 420.977789 
L 209.551536 423.143402 
L 212.478357 425.598668 
L 215.405179 427.834886 
L 218.332 429.540813 
L 221.258821 430.718715 
L 224.185643 431.394817 
L 227.112464 431.404369 
L 230.039286 430.693728 
L 232.966107 429.540792 
L 241.746571 425.422776 
L 244.673393 424.261393 
L 247.600214 423.45607 
L 253.453857 423.220914 
L 256.380679 422.956596 
L 256.380679 422.956596 
" clip-path="url(#pcadf2ad162)" style="fill: none; stroke: #ffcc33; stroke-width: 1.5; stroke-linecap: square"/>
   </g>
   <g id="line2d_40">
    <path d="M -1 434.376732 
L 1.747214 433.675917 
L 4.674036 431.948227 
L 7.600857 431.274368 
L 13.4545 430.595636 
L 19.308143 428.980885 
L 22.234964 428.411142 
L 25.161786 428.054383 
L 31.015429 427.625477 
L 36.869071 426.670571 
L 39.795893 426.342902 
L 45.649536 426.072038 
L 51.503179 426.121502 
L 54.43 427.868014 
L 57.356821 427.255757 
L 60.283643 426.4696 
L 63.210464 425.517909 
L 69.064107 423.320694 
L 71.990929 421.787954 
L 74.91775 420.478979 
L 77.844571 419.657021 
L 80.771393 419.334779 
L 83.698214 419.508359 
L 86.625036 420.160377 
L 92.478679 420.729355 
L 98.332321 421.469626 
L 101.259143 422.016477 
L 104.185964 422.738217 
L 107.112786 423.617462 
L 118.820071 427.589385 
L 121.746893 427.963332 
L 124.673714 427.506735 
L 127.600536 427.288549 
L 130.527357 427.252246 
L 133.454179 427.496575 
L 136.381 427.997011 
L 145.161464 429.950223 
L 148.088286 430.321388 
L 151.015107 430.485517 
L 153.941929 430.522113 
L 156.86875 430.424049 
L 162.722393 429.814647 
L 168.576036 429.286553 
L 171.502857 429.17304 
L 174.429679 429.228823 
L 177.3565 429.536616 
L 180.283321 430.182863 
L 183.210143 431.311197 
L 186.136964 433.815207 
L 189.063786 434.422553 
L 232.966107 434.422539 
L 235.892929 434.298607 
L 238.81975 434.422553 
L 244.673393 434.422553 
L 247.600214 433.523461 
L 250.527036 431.61283 
L 253.453857 430.544322 
L 256.380679 429.963958 
L 256.380679 429.963958 
" clip-path="url(#pcadf2ad162)" style="fill: none; stroke: #ff0000; stroke-width: 1.5; stroke-linecap: square"/>
   </g>
   <g id="line2d_41">
    <path d="M -1 430.517841 
L 1.747214 430.577718 
L 4.674036 426.914818 
L 7.600857 425.752667 
L 10.527679 425.142701 
L 13.4545 424.891922 
L 19.308143 424.776838 
L 25.161786 424.951732 
L 31.015429 425.490759 
L 42.722714 426.894024 
L 48.576357 427.124636 
L 51.503179 427.124407 
L 54.43 423.152548 
L 57.356821 423.298539 
L 60.283643 423.675147 
L 63.210464 424.359902 
L 66.137286 425.392495 
L 69.064107 426.742415 
L 71.990929 428.331678 
L 74.91775 430.19224 
L 77.844571 432.629679 
L 80.771393 434.422553 
L 110.039607 434.422527 
L 112.966429 432.915671 
L 115.89325 431.032294 
L 118.820071 429.970971 
L 121.746893 429.341303 
L 124.673714 429.130666 
L 127.600536 429.532709 
L 130.527357 430.651912 
L 133.454179 433.008818 
L 136.381 434.422553 
L 206.624714 434.422553 
L 209.551536 433.82894 
L 212.478357 432.271443 
L 215.405179 431.658959 
L 218.332 431.338556 
L 221.258821 431.224134 
L 224.185643 431.431017 
L 227.112464 432.069492 
L 230.039286 433.467237 
L 232.966107 434.422553 
L 235.892929 431.611981 
L 238.81975 429.190479 
L 241.746571 428.453838 
L 244.673393 428.38094 
L 247.600214 428.755946 
L 250.527036 429.456883 
L 256.380679 431.269627 
L 256.380679 431.269627 
" clip-path="url(#pcadf2ad162)" style="fill: none; stroke: #0000ff; stroke-width: 1.5; stroke-linecap: square"/>
   </g>
   <g id="line2d_42">
    <path d="M -1 434.422552 
L 1.747214 434.422543 
L 4.674036 428.585072 
L 7.600857 426.838313 
L 10.527679 425.650763 
L 13.4545 424.808763 
L 25.161786 422.098105 
L 28.088607 421.532048 
L 31.015429 421.131762 
L 33.94225 420.938011 
L 36.869071 421.006267 
L 42.722714 421.720949 
L 45.649536 422.096017 
L 48.576357 422.337071 
L 51.503179 422.39297 
L 54.43 420.533001 
L 60.283643 419.940191 
L 63.210464 419.817485 
L 66.137286 419.938822 
L 69.064107 420.348469 
L 71.990929 421.007792 
L 74.91775 421.98966 
L 77.844571 423.317692 
L 80.771393 423.916786 
L 83.698214 424.307959 
L 92.478679 425.984217 
L 95.4055 426.353909 
L 98.332321 426.56906 
L 101.259143 426.595818 
L 104.185964 426.355977 
L 107.112786 425.830005 
L 110.039607 425.087898 
L 112.966429 423.891882 
L 115.89325 421.994732 
L 118.820071 420.55385 
L 121.746893 419.649091 
L 124.673714 419.447743 
L 127.600536 420.26519 
L 130.527357 422.166106 
L 133.454179 425.001702 
L 136.381 426.834093 
L 139.307821 428.131115 
L 142.234643 429.092059 
L 145.161464 429.711683 
L 151.015107 430.434275 
L 156.86875 430.842069 
L 162.722393 430.886805 
L 168.576036 430.560529 
L 180.283321 429.671821 
L 186.136964 429.583492 
L 189.063786 429.728092 
L 191.990607 430.076289 
L 194.917429 430.646597 
L 197.84425 431.497744 
L 200.771071 432.887835 
L 203.697893 434.422553 
L 232.966107 434.422553 
L 235.892929 429.925162 
L 238.81975 426.283358 
L 241.746571 424.222335 
L 244.673393 422.90622 
L 247.600214 422.269805 
L 250.527036 422.172428 
L 256.380679 422.70722 
L 256.380679 422.70722 
" clip-path="url(#pcadf2ad162)" style="fill: none; stroke: #ff00ff; stroke-width: 1.5; stroke-linecap: square"/>
   </g>
   <g id="line2d_43">
    <path d="M 54.43 434.422553 
L 259.3075 434.422553 
" clip-path="url(#pcadf2ad162)" style="fill: none; stroke: #000000; stroke-width: 0.8; stroke-linecap: square"/>
   </g>
   <g id="line2d_44">
    <path d="M 1.747214 431.127697 
L 4.674036 428.142086 
L 7.600857 426.1526 
L 10.527679 424.624931 
L 13.4545 423.396841 
L 19.308143 421.347692 
L 25.161786 419.674194 
L 28.088607 419.019217 
L 31.015429 418.505033 
L 33.94225 418.183069 
L 36.869071 418.071825 
L 42.722714 418.284229 
L 51.503179 418.754877 
L 54.43 421.027606 
L 60.283643 419.971118 
L 71.990929 417.63648 
L 74.91775 417.1949 
L 77.844571 417.012892 
L 80.771393 417.121933 
L 83.698214 417.506709 
L 89.551857 418.823611 
L 92.478679 419.470738 
L 104.185964 421.507029 
L 107.112786 421.807491 
L 110.039607 421.813941 
L 112.966429 421.463529 
L 115.89325 420.779473 
L 124.673714 418.17479 
L 130.527357 416.766301 
L 136.381 414.985405 
L 139.307821 414.346463 
L 142.234643 414.002773 
L 148.088286 413.851858 
L 153.941929 413.933591 
L 162.722393 414.224183 
L 168.576036 414.139768 
L 183.210143 413.459806 
L 186.136964 413.561797 
L 189.063786 413.905612 
L 191.990607 414.518387 
L 194.917429 415.353151 
L 200.771071 417.374947 
L 203.697893 418.515625 
L 206.624714 419.867086 
L 209.551536 421.567176 
L 215.405179 425.392638 
L 218.332 426.971579 
L 221.258821 428.384057 
L 224.185643 430.070414 
L 227.112464 432.428466 
M 232.966107 430.891797 
L 235.892929 427.919729 
L 238.81975 425.295624 
L 241.746571 423.076911 
L 244.673393 421.327211 
L 247.600214 420.097756 
L 250.527036 419.275325 
L 256.380679 418.074461 
L 256.380679 418.074461 
" clip-path="url(#pcadf2ad162)" style="fill: none; stroke-dasharray: 5.55,2.4; stroke-dashoffset: 0; stroke: #000000; stroke-width: 1.5"/>
   </g>
   <g id="line2d_45">
    <path d="M 142.234643 435.463265 
L 142.234643 382.38694 
" clip-path="url(#pcadf2ad162)" style="fill: none; stroke: #000000; stroke-width: 0.8; stroke-linecap: square"/>
   </g>
   <g id="patch_51">
    <path d="M 54.43 434.422553 
L 54.43 382.38694 
" style="fill: none; stroke: #000000; stroke-width: 0.8; stroke-linejoin: miter; stroke-linecap: square"/>
   </g>
   <g id="text_17">
    <!-- beta -->
    <g transform="translate(143.33875 376.38694) scale(0.12 -0.12)">
     <use xlink:href="#DejaVuSans-62"/>
     <use xlink:href="#DejaVuSans-65" transform="translate(63.476562 0)"/>
     <use xlink:href="#DejaVuSans-74" transform="translate(125 0)"/>
     <use xlink:href="#DejaVuSans-61" transform="translate(164.208984 0)"/>
    </g>
   </g>
  </g>
  <g id="axes_14">
   <g id="patch_52">
    <path d="M 270.1075 435.463265 
L 304.25375 435.463265 
L 304.25375 382.38694 
L 270.1075 382.38694 
z
" style="fill: #ffffff"/>
   </g>
   <g id="patch_53">
    <path d="M 271.659602 434.422553 
L 279.420114 434.422553 
L 279.420114 431.115324 
L 271.659602 431.115324 
z
" clip-path="url(#p4eb6798329)" style="fill: #ffcc33"/>
   </g>
   <g id="patch_54">
    <path d="M 279.420114 434.422553 
L 287.180625 434.422553 
L 287.180625 424.219649 
L 279.420114 424.219649 
z
" clip-path="url(#p4eb6798329)" style="fill: #ff0000"/>
   </g>
   <g id="patch_55">
    <path d="M 287.180625 434.422553 
L 294.941136 434.422553 
L 294.941136 431.028402 
L 287.180625 431.028402 
z
" clip-path="url(#p4eb6798329)" style="fill: #0000ff"/>
   </g>
   <g id="patch_56">
    <path d="M 294.941136 434.422553 
L 302.701648 434.422553 
L 302.701648 423.211206 
L 294.941136 423.211206 
z
" clip-path="url(#p4eb6798329)" style="fill: #ff00ff"/>
   </g>
   <g id="matplotlib.axis_27"/>
   <g id="matplotlib.axis_28">
    <g id="ytick_27"/>
    <g id="ytick_28"/>
   </g>
  </g>
  <g id="axes_15">
   <g id="patch_57">
    <path d="M 315.05375 435.463265 
L 349.2 435.463265 
L 349.2 382.38694 
L 315.05375 382.38694 
z
" style="fill: #ffffff"/>
   </g>
   <g id="patch_58">
    <path d="M 316.605852 434.422553 
L 324.366364 434.422553 
L 324.366364 419.990343 
L 316.605852 419.990343 
z
" clip-path="url(#pd8f7cd5d6a)" style="fill: #ffcc33"/>
   </g>
   <g id="patch_59">
    <path d="M 324.366364 434.422553 
L 332.126875 434.422553 
L 332.126875 432.426171 
L 324.366364 432.426171 
z
" clip-path="url(#pd8f7cd5d6a)" style="fill: #ff0000"/>
   </g>
   <g id="patch_60">
    <path d="M 332.126875 434.422553 
L 339.887386 434.422553 
L 339.887386 433.02246 
L 332.126875 433.02246 
z
" clip-path="url(#pd8f7cd5d6a)" style="fill: #0000ff"/>
   </g>
   <g id="patch_61">
    <path d="M 339.887386 434.422553 
L 347.647898 434.422553 
L 347.647898 430.235957 
L 339.887386 430.235957 
z
" clip-path="url(#pd8f7cd5d6a)" style="fill: #ff00ff"/>
   </g>
   <g id="matplotlib.axis_29"/>
   <g id="matplotlib.axis_30">
    <g id="ytick_29"/>
    <g id="ytick_30"/>
   </g>
  </g>
  <g id="axes_16">
   <g id="patch_62">
    <path d="M 54.43 518.4 
L 259.3075 518.4 
L 259.3075 465.323675 
L 54.43 465.323675 
z
" style="fill: #ffffff"/>
   </g>
   <g id="matplotlib.axis_31">
    <g id="xtick_6">
     <g id="text_18">
      <!-- Pert -->
      <g transform="translate(132.308862 532.998438) scale(0.1 -0.1)">
       <use xlink:href="#DejaVuSans-50"/>
       <use xlink:href="#DejaVuSans-65" transform="translate(56.677734 0)"/>
       <use xlink:href="#DejaVuSans-72" transform="translate(118.201172 0)"/>
       <use xlink:href="#DejaVuSans-74" transform="translate(159.314453 0)"/>
      </g>
     </g>
    </g>
   </g>
   <g id="matplotlib.axis_32">
    <g id="ytick_31">
     <g id="line2d_46">
      <g>
       <use xlink:href="#m954c6893d3" x="54.43" y="517.359288" style="stroke: #000000; stroke-width: 0.8"/>
      </g>
     </g>
     <g id="text_19">
      <!-- 0.0 -->
      <g transform="translate(31.526875 521.158507) scale(0.1 -0.1)">
       <use xlink:href="#DejaVuSans-30"/>
       <use xlink:href="#DejaVuSans-2e" transform="translate(63.623047 0)"/>
       <use xlink:href="#DejaVuSans-30" transform="translate(95.410156 0)"/>
      </g>
     </g>
    </g>
    <g id="ytick_32">
     <g id="line2d_47">
      <g>
       <use xlink:href="#m954c6893d3" x="54.43" y="465.323675" style="stroke: #000000; stroke-width: 0.8"/>
      </g>
     </g>
     <g id="text_20">
      <!-- 0.5 -->
      <g transform="translate(31.526875 469.122894) scale(0.1 -0.1)">
       <use xlink:href="#DejaVuSans-30"/>
       <use xlink:href="#DejaVuSans-2e" transform="translate(63.623047 0)"/>
       <use xlink:href="#DejaVuSans-35" transform="translate(95.410156 0)"/>
      </g>
     </g>
    </g>
   </g>
   <g id="line2d_48">
    <path d="M -1 517.359283 
L 19.308143 517.359288 
L 22.234964 513.693279 
L 25.161786 517.359288 
L 45.649536 517.359288 
L 48.576357 512.213133 
L 51.503179 511.42078 
L 54.43 517.359276 
L 63.210464 517.359258 
L 66.137286 514.669688 
L 69.064107 517.359288 
L 74.91775 517.359288 
L 77.844571 514.166932 
L 80.771393 509.788591 
L 83.698214 509.098673 
L 86.625036 510.649453 
L 89.551857 515.056012 
L 92.478679 517.359268 
L 115.89325 517.359288 
L 118.820071 514.859891 
L 121.746893 513.181103 
L 124.673714 513.962794 
L 127.600536 514.430651 
L 130.527357 513.752892 
L 133.454179 508.746744 
L 136.381 498.182025 
L 139.307821 489.513188 
L 142.234643 487.125843 
L 145.161464 485.907553 
L 148.088286 485.56244 
L 151.015107 485.73768 
L 153.941929 486.418624 
L 156.86875 487.869261 
L 159.795571 492.146776 
L 162.722393 499.219232 
L 165.649214 506.736077 
L 168.576036 511.191612 
L 171.502857 513.313011 
L 174.429679 515.056442 
L 177.3565 517.359275 
L 180.283321 512.982111 
L 183.210143 512.805905 
L 186.136964 512.501409 
L 189.063786 517.359287 
L 215.405179 517.359285 
L 218.332 511.421948 
L 221.258821 511.771436 
L 224.185643 514.962477 
L 227.112464 517.359288 
L 230.039286 515.223452 
L 235.892929 511.710607 
L 241.746571 509.702951 
L 244.673393 509.85081 
L 247.600214 510.595703 
L 250.527036 510.850966 
L 253.453857 512.687549 
L 256.380679 515.997831 
L 256.380679 515.997831 
" clip-path="url(#pa8fe4ecf4b)" style="fill: none; stroke: #ffcc33; stroke-width: 1.5; stroke-linecap: square"/>
   </g>
   <g id="line2d_49">
    <path d="M -1 516.479747 
L 1.747214 516.679337 
L 4.674036 515.114207 
L 7.600857 513.373633 
L 10.527679 512.897308 
L 13.4545 513.284004 
L 16.381321 514.623483 
L 19.308143 514.304866 
L 22.234964 511.697176 
L 25.161786 513.56564 
L 28.088607 517.359288 
L 36.869071 517.359224 
L 39.795893 514.518787 
L 42.722714 514.470544 
L 45.649536 513.721601 
L 48.576357 514.583637 
L 51.503179 516.910304 
L 54.43 517.359276 
L 66.137286 517.359273 
L 69.064107 510.598976 
L 71.990929 505.52281 
L 74.91775 504.629328 
L 77.844571 505.622678 
L 80.771393 504.83388 
L 83.698214 505.815762 
L 86.625036 507.791655 
L 89.551857 511.407922 
L 95.4055 517.359288 
L 130.527357 517.359278 
L 133.454179 513.169742 
L 136.381 512.40441 
L 139.307821 514.159699 
L 142.234643 514.963611 
L 145.161464 514.135387 
L 148.088286 514.044838 
L 151.015107 514.260537 
L 153.941929 514.740324 
L 156.86875 515.416712 
L 159.795571 517.359272 
L 177.3565 517.359288 
L 180.283321 515.423514 
L 183.210143 517.359288 
L 212.478357 517.359269 
L 215.405179 516.546371 
L 218.332 510.907074 
L 221.258821 511.419972 
L 224.185643 514.240688 
L 227.112464 517.359288 
L 247.600214 517.359276 
L 250.527036 516.552664 
L 253.453857 517.359288 
L 256.380679 517.359288 
L 256.380679 517.359288 
" clip-path="url(#pa8fe4ecf4b)" style="fill: none; stroke: #ff0000; stroke-width: 1.5; stroke-linecap: square"/>
   </g>
   <g id="line2d_50">
    <path d="M -1 517.359288 
L 4.674036 517.359288 
L 7.600857 514.862883 
L 10.527679 517.359287 
L 60.283643 517.359288 
L 63.210464 512.47612 
L 66.137286 508.294532 
L 69.064107 507.674473 
L 71.990929 509.215134 
L 74.91775 511.741045 
L 77.844571 513.779292 
L 80.771393 515.254944 
L 83.698214 517.357051 
L 127.600536 517.359288 
L 130.527357 515.230014 
L 133.454179 515.010553 
L 136.381 517.359277 
L 139.307821 514.322321 
L 142.234643 513.246504 
L 145.161464 515.833994 
L 151.015107 515.412337 
L 153.941929 514.8537 
L 156.86875 513.689693 
L 159.795571 513.356087 
L 162.722393 517.359288 
L 200.771071 517.359249 
L 203.697893 515.553785 
L 206.624714 515.395856 
L 209.551536 513.938214 
L 212.478357 517.359288 
L 256.380679 517.359283 
L 256.380679 517.359283 
" clip-path="url(#pa8fe4ecf4b)" style="fill: none; stroke: #0000ff; stroke-width: 1.5; stroke-linecap: square"/>
   </g>
   <g id="line2d_51">
    <path d="M -1 517.359288 
L 31.015429 517.359264 
L 33.94225 512.41543 
L 36.869071 512.021309 
L 39.795893 513.029621 
L 42.722714 513.55502 
L 45.649536 513.768526 
L 48.576357 513.39759 
L 51.503179 512.838896 
L 54.43 517.359288 
L 80.771393 517.353906 
L 83.698214 512.834251 
L 86.625036 510.544309 
L 89.551857 509.717692 
L 92.478679 510.913297 
L 95.4055 513.613686 
L 98.332321 517.359288 
L 130.527357 517.359271 
L 133.454179 515.385212 
L 136.381 509.676461 
L 139.307821 509.668204 
L 142.234643 512.276569 
L 145.161464 517.359288 
L 156.86875 517.359288 
L 159.795571 514.699766 
L 162.722393 511.309148 
L 165.649214 511.098412 
L 168.576036 512.618127 
L 171.502857 514.802518 
L 174.429679 517.359288 
L 183.210143 517.359288 
L 186.136964 514.862686 
L 189.063786 517.359288 
L 209.551536 517.359288 
L 212.478357 511.946575 
L 215.405179 517.359288 
L 244.673393 517.359288 
L 247.600214 514.593173 
L 250.527036 513.526735 
L 253.453857 513.254744 
L 256.380679 513.769691 
L 256.380679 513.769691 
" clip-path="url(#pa8fe4ecf4b)" style="fill: none; stroke: #ff00ff; stroke-width: 1.5; stroke-linecap: square"/>
   </g>
   <g id="line2d_52">
    <path d="M 54.43 517.359288 
L 259.3075 517.359288 
" clip-path="url(#pa8fe4ecf4b)" style="fill: none; stroke: #000000; stroke-width: 0.8; stroke-linecap: square"/>
   </g>
   <g id="line2d_53">
    <path d="M 22.234964 511.207299 
L 25.161786 513.871634 
M 48.576357 512.832925 
L 51.503179 511.99324 
M 66.137286 511.674937 
L 69.064107 508.722176 
L 71.990929 505.097148 
L 74.91775 504.118166 
L 77.844571 504.832885 
L 80.771393 503.775042 
L 83.698214 503.499515 
L 86.625036 505.30609 
L 89.551857 507.618675 
L 92.478679 511.087656 
M 110.039607 511.086382 
L 112.966429 509.746295 
L 115.89325 511.683431 
M 133.454179 510.657653 
L 136.381 498.372388 
L 139.307821 489.523215 
L 142.234643 487.378013 
L 145.161464 486.756837 
L 148.088286 486.582109 
L 151.015107 486.74089 
L 153.941929 487.2455 
L 156.86875 488.401409 
L 159.795571 492.248062 
L 165.649214 507.235237 
L 168.576036 511.49148 
L 171.502857 514.93399 
M 212.478357 513.045261 
L 215.405179 511.957979 
L 218.332 509.748307 
L 221.258821 510.611785 
L 224.185643 512.882956 
M 238.81975 514.214238 
L 241.746571 510.740143 
L 244.673393 510.20567 
L 247.600214 509.904539 
L 250.527036 510.081876 
L 253.453857 512.204533 
L 256.380679 514.577281 
L 256.380679 514.577281 
" clip-path="url(#pa8fe4ecf4b)" style="fill: none; stroke-dasharray: 5.55,2.4; stroke-dashoffset: 0; stroke: #000000; stroke-width: 1.5"/>
   </g>
   <g id="line2d_54">
    <path d="M 142.234643 518.4 
L 142.234643 465.323675 
" clip-path="url(#pa8fe4ecf4b)" style="fill: none; stroke: #000000; stroke-width: 0.8; stroke-linecap: square"/>
   </g>
   <g id="patch_63">
    <path d="M 54.43 517.359288 
L 54.43 465.323675 
" style="fill: none; stroke: #000000; stroke-width: 0.8; stroke-linejoin: miter; stroke-linecap: square"/>
   </g>
   <g id="text_21">
    <!-- gamma -->
    <g transform="translate(134.017187 459.323675) scale(0.12 -0.12)">
     <defs>
      <path id="DejaVuSans-67" d="M 2906 1791 
Q 2906 2416 2648 2759 
Q 2391 3103 1925 3103 
Q 1463 3103 1205 2759 
Q 947 2416 947 1791 
Q 947 1169 1205 825 
Q 1463 481 1925 481 
Q 2391 481 2648 825 
Q 2906 1169 2906 1791 
z
M 3481 434 
Q 3481 -459 3084 -895 
Q 2688 -1331 1869 -1331 
Q 1566 -1331 1297 -1286 
Q 1028 -1241 775 -1147 
L 775 -588 
Q 1028 -725 1275 -790 
Q 1522 -856 1778 -856 
Q 2344 -856 2625 -561 
Q 2906 -266 2906 331 
L 2906 616 
Q 2728 306 2450 153 
Q 2172 0 1784 0 
Q 1141 0 747 490 
Q 353 981 353 1791 
Q 353 2603 747 3093 
Q 1141 3584 1784 3584 
Q 2172 3584 2450 3431 
Q 2728 3278 2906 2969 
L 2906 3500 
L 3481 3500 
L 3481 434 
z
" transform="scale(0.015625)"/>
      <path id="DejaVuSans-6d" d="M 3328 2828 
Q 3544 3216 3844 3400 
Q 4144 3584 4550 3584 
Q 5097 3584 5394 3201 
Q 5691 2819 5691 2113 
L 5691 0 
L 5113 0 
L 5113 2094 
Q 5113 2597 4934 2840 
Q 4756 3084 4391 3084 
Q 3944 3084 3684 2787 
Q 3425 2491 3425 1978 
L 3425 0 
L 2847 0 
L 2847 2094 
Q 2847 2600 2669 2842 
Q 2491 3084 2119 3084 
Q 1678 3084 1418 2786 
Q 1159 2488 1159 1978 
L 1159 0 
L 581 0 
L 581 3500 
L 1159 3500 
L 1159 2956 
Q 1356 3278 1631 3431 
Q 1906 3584 2284 3584 
Q 2666 3584 2933 3390 
Q 3200 3197 3328 2828 
z
" transform="scale(0.015625)"/>
     </defs>
     <use xlink:href="#DejaVuSans-67"/>
     <use xlink:href="#DejaVuSans-61" transform="translate(63.476562 0)"/>
     <use xlink:href="#DejaVuSans-6d" transform="translate(124.755859 0)"/>
     <use xlink:href="#DejaVuSans-6d" transform="translate(222.167969 0)"/>
     <use xlink:href="#DejaVuSans-61" transform="translate(319.580078 0)"/>
    </g>
   </g>
  </g>
  <g id="axes_17">
   <g id="patch_64">
    <path d="M 270.1075 518.4 
L 304.25375 518.4 
L 304.25375 465.323675 
L 270.1075 465.323675 
z
" style="fill: #ffffff"/>
   </g>
   <g id="patch_65">
    <path d="M 271.659602 517.359288 
L 279.420114 517.359288 
L 279.420114 513.926905 
L 271.659602 513.926905 
z
" clip-path="url(#pb1381715a5)" style="fill: #ffcc33"/>
   </g>
   <g id="patch_66">
    <path d="M 279.420114 517.359288 
L 287.180625 517.359288 
L 287.180625 514.091496 
L 279.420114 514.091496 
z
" clip-path="url(#pb1381715a5)" style="fill: #ff0000"/>
   </g>
   <g id="patch_67">
    <path d="M 287.180625 517.359288 
L 294.941136 517.359288 
L 294.941136 515.672727 
L 287.180625 515.672727 
z
" clip-path="url(#pb1381715a5)" style="fill: #0000ff"/>
   </g>
   <g id="patch_68">
    <path d="M 294.941136 517.359288 
L 302.701648 517.359288 
L 302.701648 515.808399 
L 294.941136 515.808399 
z
" clip-path="url(#pb1381715a5)" style="fill: #ff00ff"/>
   </g>
   <g id="matplotlib.axis_33"/>
   <g id="matplotlib.axis_34">
    <g id="ytick_33"/>
    <g id="ytick_34"/>
   </g>
  </g>
  <g id="axes_18">
   <g id="patch_69">
    <path d="M 315.05375 518.4 
L 349.2 518.4 
L 349.2 465.323675 
L 315.05375 465.323675 
z
" style="fill: #ffffff"/>
   </g>
   <g id="patch_70">
    <path d="M 316.605852 517.359288 
L 324.366364 517.359288 
L 324.366364 509.045453 
L 316.605852 509.045453 
z
" clip-path="url(#pe792c59c8f)" style="fill: #ffcc33"/>
   </g>
   <g id="patch_71">
    <path d="M 324.366364 517.359288 
L 332.126875 517.359288 
L 332.126875 516.467789 
L 324.366364 516.467789 
z
" clip-path="url(#pe792c59c8f)" style="fill: #ff0000"/>
   </g>
   <g id="patch_72">
    <path d="M 332.126875 517.359288 
L 339.887386 517.359288 
L 339.887386 516.6933 
L 332.126875 516.6933 
z
" clip-path="url(#pe792c59c8f)" style="fill: #0000ff"/>
   </g>
   <g id="patch_73">
    <path d="M 339.887386 517.359288 
L 347.647898 517.359288 
L 347.647898 516.120454 
L 339.887386 516.120454 
z
" clip-path="url(#pe792c59c8f)" style="fill: #ff00ff"/>
   </g>
   <g id="matplotlib.axis_35"/>
   <g id="matplotlib.axis_36">
    <g id="ytick_35"/>
    <g id="ytick_36"/>
   </g>
  </g>
  <g id="text_22">
   <!-- variance (a.u.) -->
   <g transform="translate(14.798438 324.428125) rotate(-90) scale(0.1 -0.1)">
    <defs>
     <path id="DejaVuSans-76" d="M 191 3500 
L 800 3500 
L 1894 563 
L 2988 3500 
L 3597 3500 
L 2284 0 
L 1503 0 
L 191 3500 
z
" transform="scale(0.015625)"/>
     <path id="DejaVuSans-69" d="M 603 3500 
L 1178 3500 
L 1178 0 
L 603 0 
L 603 3500 
z
M 603 4863 
L 1178 4863 
L 1178 4134 
L 603 4134 
L 603 4863 
z
" transform="scale(0.015625)"/>
     <path id="DejaVuSans-6e" d="M 3513 2113 
L 3513 0 
L 2938 0 
L 2938 2094 
Q 2938 2591 2744 2837 
Q 2550 3084 2163 3084 
Q 1697 3084 1428 2787 
Q 1159 2491 1159 1978 
L 1159 0 
L 581 0 
L 581 3500 
L 1159 3500 
L 1159 2956 
Q 1366 3272 1645 3428 
Q 1925 3584 2291 3584 
Q 2894 3584 3203 3211 
Q 3513 2838 3513 2113 
z
" transform="scale(0.015625)"/>
     <path id="DejaVuSans-63" d="M 3122 3366 
L 3122 2828 
Q 2878 2963 2633 3030 
Q 2388 3097 2138 3097 
Q 1578 3097 1268 2742 
Q 959 2388 959 1747 
Q 959 1106 1268 751 
Q 1578 397 2138 397 
Q 2388 397 2633 464 
Q 2878 531 3122 666 
L 3122 134 
Q 2881 22 2623 -34 
Q 2366 -91 2075 -91 
Q 1284 -91 818 406 
Q 353 903 353 1747 
Q 353 2603 823 3093 
Q 1294 3584 2113 3584 
Q 2378 3584 2631 3529 
Q 2884 3475 3122 3366 
z
" transform="scale(0.015625)"/>
     <path id="DejaVuSans-20" transform="scale(0.015625)"/>
     <path id="DejaVuSans-28" d="M 1984 4856 
Q 1566 4138 1362 3434 
Q 1159 2731 1159 2009 
Q 1159 1288 1364 580 
Q 1569 -128 1984 -844 
L 1484 -844 
Q 1016 -109 783 600 
Q 550 1309 550 2009 
Q 550 2706 781 3412 
Q 1013 4119 1484 4856 
L 1984 4856 
z
" transform="scale(0.015625)"/>
     <path id="DejaVuSans-75" d="M 544 1381 
L 544 3500 
L 1119 3500 
L 1119 1403 
Q 1119 906 1312 657 
Q 1506 409 1894 409 
Q 2359 409 2629 706 
Q 2900 1003 2900 1516 
L 2900 3500 
L 3475 3500 
L 3475 0 
L 2900 0 
L 2900 538 
Q 2691 219 2414 64 
Q 2138 -91 1772 -91 
Q 1169 -91 856 284 
Q 544 659 544 1381 
z
M 1991 3584 
L 1991 3584 
z
" transform="scale(0.015625)"/>
     <path id="DejaVuSans-29" d="M 513 4856 
L 1013 4856 
Q 1481 4119 1714 3412 
Q 1947 2706 1947 2009 
Q 1947 1309 1714 600 
Q 1481 -109 1013 -844 
L 513 -844 
Q 928 -128 1133 580 
Q 1338 1288 1338 2009 
Q 1338 2731 1133 3434 
Q 928 4138 513 4856 
z
" transform="scale(0.015625)"/>
    </defs>
    <use xlink:href="#DejaVuSans-76"/>
    <use xlink:href="#DejaVuSans-61" transform="translate(59.179688 0)"/>
    <use xlink:href="#DejaVuSans-72" transform="translate(120.458984 0)"/>
    <use xlink:href="#DejaVuSans-69" transform="translate(161.572266 0)"/>
    <use xlink:href="#DejaVuSans-61" transform="translate(189.355469 0)"/>
    <use xlink:href="#DejaVuSans-6e" transform="translate(250.634766 0)"/>
    <use xlink:href="#DejaVuSans-63" transform="translate(314.013672 0)"/>
    <use xlink:href="#DejaVuSans-65" transform="translate(368.994141 0)"/>
    <use xlink:href="#DejaVuSans-20" transform="translate(430.517578 0)"/>
    <use xlink:href="#DejaVuSans-28" transform="translate(462.304688 0)"/>
    <use xlink:href="#DejaVuSans-61" transform="translate(501.318359 0)"/>
    <use xlink:href="#DejaVuSans-2e" transform="translate(562.597656 0)"/>
    <use xlink:href="#DejaVuSans-75" transform="translate(594.384766 0)"/>
    <use xlink:href="#DejaVuSans-2e" transform="translate(657.763672 0)"/>
    <use xlink:href="#DejaVuSans-29" transform="translate(689.550781 0)"/>
   </g>
  </g>
  <g id="text_23">
   <!-- Variance explained by component model (Monkey M, PMd) -->
   <g transform="translate(3.962813 20.638125) scale(0.12 -0.12)">
    <defs>
     <path id="DejaVuSans-56" d="M 1831 0 
L 50 4666 
L 709 4666 
L 2188 738 
L 3669 4666 
L 4325 4666 
L 2547 0 
L 1831 0 
z
" transform="scale(0.015625)"/>
     <path id="DejaVuSans-78" d="M 3513 3500 
L 2247 1797 
L 3578 0 
L 2900 0 
L 1881 1375 
L 863 0 
L 184 0 
L 1544 1831 
L 300 3500 
L 978 3500 
L 1906 2253 
L 2834 3500 
L 3513 3500 
z
" transform="scale(0.015625)"/>
     <path id="DejaVuSans-79" d="M 2059 -325 
Q 1816 -950 1584 -1140 
Q 1353 -1331 966 -1331 
L 506 -1331 
L 506 -850 
L 844 -850 
Q 1081 -850 1212 -737 
Q 1344 -625 1503 -206 
L 1606 56 
L 191 3500 
L 800 3500 
L 1894 763 
L 2988 3500 
L 3597 3500 
L 2059 -325 
z
" transform="scale(0.015625)"/>
     <path id="DejaVuSans-4d" d="M 628 4666 
L 1569 4666 
L 2759 1491 
L 3956 4666 
L 4897 4666 
L 4897 0 
L 4281 0 
L 4281 4097 
L 3078 897 
L 2444 897 
L 1241 4097 
L 1241 0 
L 628 0 
L 628 4666 
z
" transform="scale(0.015625)"/>
     <path id="DejaVuSans-6b" d="M 581 4863 
L 1159 4863 
L 1159 1991 
L 2875 3500 
L 3609 3500 
L 1753 1863 
L 3688 0 
L 2938 0 
L 1159 1709 
L 1159 0 
L 581 0 
L 581 4863 
z
" transform="scale(0.015625)"/>
     <path id="DejaVuSans-2c" d="M 750 794 
L 1409 794 
L 1409 256 
L 897 -744 
L 494 -744 
L 750 256 
L 750 794 
z
" transform="scale(0.015625)"/>
    </defs>
    <use xlink:href="#DejaVuSans-56"/>
    <use xlink:href="#DejaVuSans-61" transform="translate(60.658203 0)"/>
    <use xlink:href="#DejaVuSans-72" transform="translate(121.9375 0)"/>
    <use xlink:href="#DejaVuSans-69" transform="translate(163.050781 0)"/>
    <use xlink:href="#DejaVuSans-61" transform="translate(190.833984 0)"/>
    <use xlink:href="#DejaVuSans-6e" transform="translate(252.113281 0)"/>
    <use xlink:href="#DejaVuSans-63" transform="translate(315.492188 0)"/>
    <use xlink:href="#DejaVuSans-65" transform="translate(370.472656 0)"/>
    <use xlink:href="#DejaVuSans-20" transform="translate(431.996094 0)"/>
    <use xlink:href="#DejaVuSans-65" transform="translate(463.783203 0)"/>
    <use xlink:href="#DejaVuSans-78" transform="translate(523.556641 0)"/>
    <use xlink:href="#DejaVuSans-70" transform="translate(582.736328 0)"/>
    <use xlink:href="#DejaVuSans-6c" transform="translate(646.212891 0)"/>
    <use xlink:href="#DejaVuSans-61" transform="translate(673.996094 0)"/>
    <use xlink:href="#DejaVuSans-69" transform="translate(735.275391 0)"/>
    <use xlink:href="#DejaVuSans-6e" transform="translate(763.058594 0)"/>
    <use xlink:href="#DejaVuSans-65" transform="translate(826.4375 0)"/>
    <use xlink:href="#DejaVuSans-64" transform="translate(887.960938 0)"/>
    <use xlink:href="#DejaVuSans-20" transform="translate(951.4375 0)"/>
    <use xlink:href="#DejaVuSans-62" transform="translate(983.224609 0)"/>
    <use xlink:href="#DejaVuSans-79" transform="translate(1046.701172 0)"/>
    <use xlink:href="#DejaVuSans-20" transform="translate(1105.880859 0)"/>
    <use xlink:href="#DejaVuSans-63" transform="translate(1137.667969 0)"/>
    <use xlink:href="#DejaVuSans-6f" transform="translate(1192.648438 0)"/>
    <use xlink:href="#DejaVuSans-6d" transform="translate(1253.830078 0)"/>
    <use xlink:href="#DejaVuSans-70" transform="translate(1351.242188 0)"/>
    <use xlink:href="#DejaVuSans-6f" transform="translate(1414.71875 0)"/>
    <use xlink:href="#DejaVuSans-6e" transform="translate(1475.900391 0)"/>
    <use xlink:href="#DejaVuSans-65" transform="translate(1539.279297 0)"/>
    <use xlink:href="#DejaVuSans-6e" transform="translate(1600.802734 0)"/>
    <use xlink:href="#DejaVuSans-74" transform="translate(1664.181641 0)"/>
    <use xlink:href="#DejaVuSans-20" transform="translate(1703.390625 0)"/>
    <use xlink:href="#DejaVuSans-6d" transform="translate(1735.177734 0)"/>
    <use xlink:href="#DejaVuSans-6f" transform="translate(1832.589844 0)"/>
    <use xlink:href="#DejaVuSans-64" transform="translate(1893.771484 0)"/>
    <use xlink:href="#DejaVuSans-65" transform="translate(1957.248047 0)"/>
    <use xlink:href="#DejaVuSans-6c" transform="translate(2018.771484 0)"/>
    <use xlink:href="#DejaVuSans-20" transform="translate(2046.554688 0)"/>
    <use xlink:href="#DejaVuSans-28" transform="translate(2078.341797 0)"/>
    <use xlink:href="#DejaVuSans-4d" transform="translate(2117.355469 0)"/>
    <use xlink:href="#DejaVuSans-6f" transform="translate(2203.634766 0)"/>
    <use xlink:href="#DejaVuSans-6e" transform="translate(2264.816406 0)"/>
    <use xlink:href="#DejaVuSans-6b" transform="translate(2328.195312 0)"/>
    <use xlink:href="#DejaVuSans-65" transform="translate(2382.480469 0)"/>
    <use xlink:href="#DejaVuSans-79" transform="translate(2444.003906 0)"/>
    <use xlink:href="#DejaVuSans-20" transform="translate(2503.183594 0)"/>
    <use xlink:href="#DejaVuSans-4d" transform="translate(2534.970703 0)"/>
    <use xlink:href="#DejaVuSans-2c" transform="translate(2621.25 0)"/>
    <use xlink:href="#DejaVuSans-20" transform="translate(2653.037109 0)"/>
    <use xlink:href="#DejaVuSans-50" transform="translate(2684.824219 0)"/>
    <use xlink:href="#DejaVuSans-4d" transform="translate(2745.126953 0)"/>
    <use xlink:href="#DejaVuSans-64" transform="translate(2831.40625 0)"/>
    <use xlink:href="#DejaVuSans-29" transform="translate(2894.882812 0)"/>
   </g>
  </g>
  <g id="legend_1">
   <g id="line2d_55">
    <path d="M 205.479844 549.667969 
L 214.479844 549.667969 
L 223.479844 549.667969 
" style="fill: none; stroke: #ffcc33; stroke-width: 1.5; stroke-linecap: square"/>
   </g>
   <g id="text_24">
    <!-- finger -->
    <g transform="translate(230.679844 552.817969) scale(0.09 -0.09)">
     <defs>
      <path id="DejaVuSans-66" d="M 2375 4863 
L 2375 4384 
L 1825 4384 
Q 1516 4384 1395 4259 
Q 1275 4134 1275 3809 
L 1275 3500 
L 2222 3500 
L 2222 3053 
L 1275 3053 
L 1275 0 
L 697 0 
L 697 3053 
L 147 3053 
L 147 3500 
L 697 3500 
L 697 3744 
Q 697 4328 969 4595 
Q 1241 4863 1831 4863 
L 2375 4863 
z
" transform="scale(0.015625)"/>
     </defs>
     <use xlink:href="#DejaVuSans-66"/>
     <use xlink:href="#DejaVuSans-69" transform="translate(35.205078 0)"/>
     <use xlink:href="#DejaVuSans-6e" transform="translate(62.988281 0)"/>
     <use xlink:href="#DejaVuSans-67" transform="translate(126.367188 0)"/>
     <use xlink:href="#DejaVuSans-65" transform="translate(189.84375 0)"/>
     <use xlink:href="#DejaVuSans-72" transform="translate(251.367188 0)"/>
    </g>
   </g>
   <g id="line2d_56">
    <path d="M 205.479844 562.878281 
L 214.479844 562.878281 
L 223.479844 562.878281 
" style="fill: none; stroke: #ff0000; stroke-width: 1.5; stroke-linecap: square"/>
   </g>
   <g id="text_25">
    <!-- cue -->
    <g transform="translate(230.679844 566.028281) scale(0.09 -0.09)">
     <use xlink:href="#DejaVuSans-63"/>
     <use xlink:href="#DejaVuSans-75" transform="translate(54.980469 0)"/>
     <use xlink:href="#DejaVuSans-65" transform="translate(118.359375 0)"/>
    </g>
   </g>
   <g id="line2d_57">
    <path d="M 275.003438 549.667969 
L 284.003438 549.667969 
L 293.003438 549.667969 
" style="fill: none; stroke: #0000ff; stroke-width: 1.5; stroke-linecap: square"/>
   </g>
   <g id="text_26">
    <!-- uncertainty -->
    <g transform="translate(300.203438 552.817969) scale(0.09 -0.09)">
     <use xlink:href="#DejaVuSans-75"/>
     <use xlink:href="#DejaVuSans-6e" transform="translate(63.378906 0)"/>
     <use xlink:href="#DejaVuSans-63" transform="translate(126.757812 0)"/>
     <use xlink:href="#DejaVuSans-65" transform="translate(181.738281 0)"/>
     <use xlink:href="#DejaVuSans-72" transform="translate(243.261719 0)"/>
     <use xlink:href="#DejaVuSans-74" transform="translate(284.375 0)"/>
     <use xlink:href="#DejaVuSans-61" transform="translate(323.583984 0)"/>
     <use xlink:href="#DejaVuSans-69" transform="translate(384.863281 0)"/>
     <use xlink:href="#DejaVuSans-6e" transform="translate(412.646484 0)"/>
     <use xlink:href="#DejaVuSans-74" transform="translate(476.025391 0)"/>
     <use xlink:href="#DejaVuSans-79" transform="translate(515.234375 0)"/>
    </g>
   </g>
   <g id="line2d_58">
    <path d="M 275.003438 562.878281 
L 284.003438 562.878281 
L 293.003438 562.878281 
" style="fill: none; stroke: #ff00ff; stroke-width: 1.5; stroke-linecap: square"/>
   </g>
   <g id="text_27">
    <!-- surprise -->
    <g transform="translate(300.203438 566.028281) scale(0.09 -0.09)">
     <use xlink:href="#DejaVuSans-73"/>
     <use xlink:href="#DejaVuSans-75" transform="translate(52.099609 0)"/>
     <use xlink:href="#DejaVuSans-72" transform="translate(115.478516 0)"/>
     <use xlink:href="#DejaVuSans-70" transform="translate(156.591797 0)"/>
     <use xlink:href="#DejaVuSans-72" transform="translate(220.068359 0)"/>
     <use xlink:href="#DejaVuSans-69" transform="translate(261.181641 0)"/>
     <use xlink:href="#DejaVuSans-73" transform="translate(288.964844 0)"/>
     <use xlink:href="#DejaVuSans-65" transform="translate(341.064453 0)"/>
    </g>
   </g>
  </g>
 </g>
 <defs>
  <clipPath id="pf46a6f098e">
   <rect x="54.43" y="50.64" width="204.8775" height="53.076325"/>
  </clipPath>
  <clipPath id="p2ff74abe6f">
   <rect x="270.1075" y="50.64" width="34.14625" height="53.076325"/>
  </clipPath>
  <clipPath id="p4c417ccc2c">
   <rect x="315.05375" y="50.64" width="34.14625" height="53.076325"/>
  </clipPath>
  <clipPath id="p7a19cc416f">
   <rect x="54.43" y="133.576735" width="204.8775" height="53.076325"/>
  </clipPath>
  <clipPath id="pe2d449214c">
   <rect x="270.1075" y="133.576735" width="34.14625" height="53.076325"/>
  </clipPath>
  <clipPath id="pf2a6eb8f5b">
   <rect x="315.05375" y="133.576735" width="34.14625" height="53.076325"/>
  </clipPath>
  <clipPath id="pd50fb69a0f">
   <rect x="54.43" y="216.51347" width="204.8775" height="53.076325"/>
  </clipPath>
  <clipPath id="pda8c0cee22">
   <rect x="270.1075" y="216.51347" width="34.14625" height="53.076325"/>
  </clipPath>
  <clipPath id="p3fb2e3ce5f">
   <rect x="315.05375" y="216.51347" width="34.14625" height="53.076325"/>
  </clipPath>
  <clipPath id="pfa56f51880">
   <rect x="54.43" y="299.450205" width="204.8775" height="53.076325"/>
  </clipPath>
  <clipPath id="p3cc8599042">
   <rect x="270.1075" y="299.450205" width="34.14625" height="53.076325"/>
  </clipPath>
  <clipPath id="paf25d8be93">
   <rect x="315.05375" y="299.450205" width="34.14625" height="53.076325"/>
  </clipPath>
  <clipPath id="pcadf2ad162">
   <rect x="54.43" y="382.38694" width="204.8775" height="53.076325"/>
  </clipPath>
  <clipPath id="p4eb6798329">
   <rect x="270.1075" y="382.38694" width="34.14625" height="53.076325"/>
  </clipPath>
  <clipPath id="pd8f7cd5d6a">
   <rect x="315.05375" y="382.38694" width="34.14625" height="53.076325"/>
  </clipPath>
  <clipPath id="pa8fe4ecf4b">
   <rect x="54.43" y="465.323675" width="204.8775" height="53.076325"/>
  </clipPath>
  <clipPath id="pb1381715a5">
   <rect x="270.1075" y="465.323675" width="34.14625" height="53.076325"/>
  </clipPath>
  <clipPath id="pe792c59c8f">
   <rect x="315.05375" y="465.323675" width="34.14625" height="53.076325"/>
  </clipPath>
 </defs>
</svg>
