<?xml version="1.0" encoding="utf-8" standalone="no"?>
<!DOCTYPE svg PUBLIC "-//W3C//DTD SVG 1.1//EN"
  "http://www.w3.org/Graphics/SVG/1.1/DTD/svg11.dtd">
<svg xmlns:xlink="http://www.w3.org/1999/xlink" width="360pt" height="576pt" viewBox="0 0 360 576" xmlns="http://www.w3.org/2000/svg" version="1.1">
 <metadata>
  <rdf:RDF xmlns:dc="http://purl.org/dc/elements/1.1/" xmlns:cc="http://creativecommons.org/ns#" xmlns:rdf="http://www.w3.org/1999/02/22-rdf-syntax-ns#">
   <cc:Work>
    <dc:type rdf:resource="http://purl.org/dc/dcmitype/StillImage"/>
    <dc:date>2025-07-16T20:55:07.997166</dc:date>
    <dc:format>image/svg+xml</dc:format>
    <dc:creator>
     <cc:Agent>
      <dc:title>Matplotlib v3.10.1, https://matplotlib.org/</dc:title>
     </cc:Agent>
    </dc:creator>
   </cc:Work>
  </rdf:RDF>
 </metadata>
 <defs>
  <style type="text/css">*{stroke-linejoin: round; stroke-linecap: butt}</style>
 </defs>
 <g id="figure_1">
  <g id="patch_1">
   <path d="M 0 576 
L 360 576 
L 360 0 
L 0 0 
z
" style="fill: #ffffff"/>
  </g>
  <g id="axes_1">
   <g id="patch_2">
    <path d="M 54.43 103.716325 
L 259.3075 103.716325 
L 259.3075 50.64 
L 54.43 50.64 
z
" style="fill: #ffffff"/>
   </g>
   <g id="matplotlib.axis_1">
    <g id="xtick_1"/>
   </g>
   <g id="matplotlib.axis_2">
    <g id="ytick_1">
     <g id="line2d_1">
      <defs>
       <path id="m4badc92bb5" d="M 0 0 
L -3.5 0 
" style="stroke: #000000; stroke-width: 0.8"/>
      </defs>
      <g>
       <use xlink:href="#m4badc92bb5" x="54.43" y="102.675612" style="stroke: #000000; stroke-width: 0.8"/>
      </g>
     </g>
     <g id="text_1">
      <!-- 0.0 -->
      <g transform="translate(31.526875 106.474831) scale(0.1 -0.1)">
       <defs>
        <path id="DejaVuSans-30" d="M 2034 4250 
Q 1547 4250 1301 3770 
Q 1056 3291 1056 2328 
Q 1056 1369 1301 889 
Q 1547 409 2034 409 
Q 2525 409 2770 889 
Q 3016 1369 3016 2328 
Q 3016 3291 2770 3770 
Q 2525 4250 2034 4250 
z
M 2034 4750 
Q 2819 4750 3233 4129 
Q 3647 3509 3647 2328 
Q 3647 1150 3233 529 
Q 2819 -91 2034 -91 
Q 1250 -91 836 529 
Q 422 1150 422 2328 
Q 422 3509 836 4129 
Q 1250 4750 2034 4750 
z
" transform="scale(0.015625)"/>
        <path id="DejaVuSans-2e" d="M 684 794 
L 1344 794 
L 1344 0 
L 684 0 
L 684 794 
z
" transform="scale(0.015625)"/>
       </defs>
       <use xlink:href="#DejaVuSans-30"/>
       <use xlink:href="#DejaVuSans-2e" transform="translate(63.623047 0)"/>
       <use xlink:href="#DejaVuSans-30" transform="translate(95.410156 0)"/>
      </g>
     </g>
    </g>
    <g id="ytick_2">
     <g id="line2d_2">
      <g>
       <use xlink:href="#m4badc92bb5" x="54.43" y="50.64" style="stroke: #000000; stroke-width: 0.8"/>
      </g>
     </g>
     <g id="text_2">
      <!-- 0.5 -->
      <g transform="translate(31.526875 54.439219) scale(0.1 -0.1)">
       <defs>
        <path id="DejaVuSans-35" d="M 691 4666 
L 3169 4666 
L 3169 4134 
L 1269 4134 
L 1269 2991 
Q 1406 3038 1543 3061 
Q 1681 3084 1819 3084 
Q 2600 3084 3056 2656 
Q 3513 2228 3513 1497 
Q 3513 744 3044 326 
Q 2575 -91 1722 -91 
Q 1428 -91 1123 -41 
Q 819 9 494 109 
L 494 744 
Q 775 591 1075 516 
Q 1375 441 1709 441 
Q 2250 441 2565 725 
Q 2881 1009 2881 1497 
Q 2881 1984 2565 2268 
Q 2250 2553 1709 2553 
Q 1456 2553 1204 2497 
Q 953 2441 691 2322 
L 691 4666 
z
" transform="scale(0.015625)"/>
       </defs>
       <use xlink:href="#DejaVuSans-30"/>
       <use xlink:href="#DejaVuSans-2e" transform="translate(63.623047 0)"/>
       <use xlink:href="#DejaVuSans-35" transform="translate(95.410156 0)"/>
      </g>
     </g>
    </g>
   </g>
   <g id="line2d_3">
    <path d="M -1 76.146077 
L 13.4545 75.028525 
L 31.015429 73.922851 
L 48.576357 73.081908 
L 51.503179 72.966331 
L 54.43 74.740226 
L 69.064107 74.650252 
L 86.625036 74.749186 
L 112.966429 75.152964 
L 145.161464 75.893186 
L 156.86875 76.182444 
L 232.966107 73.134936 
L 256.380679 72.387294 
L 256.380679 72.387294 
" clip-path="url(#pbb496b1a2a)" style="fill: none; stroke: #ffcc33; stroke-width: 1.5; stroke-linecap: square"/>
   </g>
   <g id="line2d_4">
    <path d="M -1 77.800327 
L 10.527679 77.806753 
L 22.234964 78.063606 
L 33.94225 78.583193 
L 45.649536 79.372921 
L 51.503179 79.870057 
L 54.43 81.832277 
L 63.210464 82.993313 
L 74.91775 84.791751 
L 89.551857 87.325209 
L 110.039607 91.149519 
L 133.454179 95.692082 
L 142.234643 97.526726 
L 148.088286 98.917361 
L 151.015107 99.743042 
L 153.941929 100.855296 
L 156.86875 102.671276 
L 232.966107 102.675612 
L 256.380679 102.675612 
L 256.380679 102.675612 
" clip-path="url(#pbb496b1a2a)" style="fill: none; stroke: #ff0000; stroke-width: 1.5; stroke-linecap: square"/>
   </g>
   <g id="line2d_5">
    <path d="M -1 102.675612 
L 256.380679 102.675612 
L 256.380679 102.675612 
" clip-path="url(#pbb496b1a2a)" style="fill: none; stroke: #0000ff; stroke-width: 1.5; stroke-linecap: square"/>
   </g>
   <g id="line2d_6">
    <path d="M -1 102.675612 
L 51.503179 102.675612 
L 54.43 100.113381 
L 63.210464 99.118672 
L 74.91775 98.066741 
L 89.551857 97.016758 
L 104.185964 96.203236 
L 118.820071 95.599804 
L 136.381 95.124512 
L 153.941929 94.751555 
L 156.86875 94.874439 
L 174.429679 94.859419 
L 191.990607 95.069919 
L 209.551536 95.501373 
L 227.112464 96.161874 
L 244.673393 97.071933 
L 256.380679 97.834339 
L 256.380679 97.834339 
" clip-path="url(#pbb496b1a2a)" style="fill: none; stroke: #ff00ff; stroke-width: 1.5; stroke-linecap: square"/>
   </g>
   <g id="line2d_7">
    <path d="M 54.43 102.675612 
L 259.3075 102.675612 
" clip-path="url(#pbb496b1a2a)" style="fill: none; stroke: #000000; stroke-width: 0.8; stroke-linecap: square"/>
   </g>
   <g id="line2d_8">
    <path d="M -1 73.286636 
L 13.4545 73.078507 
L 28.088607 73.086841 
L 45.649536 73.338382 
L 51.503179 73.467282 
L 54.43 75.155546 
L 95.4055 76.794277 
L 110.039607 77.081012 
L 124.673714 77.143061 
L 142.234643 76.968997 
L 165.649214 76.478588 
L 235.892929 74.806782 
L 256.380679 74.564189 
L 256.380679 74.564189 
" clip-path="url(#pbb496b1a2a)" style="fill: none; stroke-dasharray: 5.55,2.4; stroke-dashoffset: 0; stroke: #000000; stroke-width: 1.5"/>
   </g>
   <g id="line2d_9">
    <path d="M 142.234643 103.716325 
L 142.234643 50.64 
" clip-path="url(#pbb496b1a2a)" style="fill: none; stroke: #000000; stroke-width: 0.8; stroke-linecap: square"/>
   </g>
   <g id="patch_3">
    <path d="M 54.43 102.675612 
L 54.43 50.64 
" style="fill: none; stroke: #000000; stroke-width: 0.8; stroke-linejoin: miter; stroke-linecap: square"/>
   </g>
   <g id="text_3">
    <!-- delta -->
    <g transform="translate(141.671875 44.64) scale(0.12 -0.12)">
     <defs>
      <path id="DejaVuSans-64" d="M 2906 2969 
L 2906 4863 
L 3481 4863 
L 3481 0 
L 2906 0 
L 2906 525 
Q 2725 213 2448 61 
Q 2172 -91 1784 -91 
Q 1150 -91 751 415 
Q 353 922 353 1747 
Q 353 2572 751 3078 
Q 1150 3584 1784 3584 
Q 2172 3584 2448 3432 
Q 2725 3281 2906 2969 
z
M 947 1747 
Q 947 1113 1208 752 
Q 1469 391 1925 391 
Q 2381 391 2643 752 
Q 2906 1113 2906 1747 
Q 2906 2381 2643 2742 
Q 2381 3103 1925 3103 
Q 1469 3103 1208 2742 
Q 947 2381 947 1747 
z
" transform="scale(0.015625)"/>
      <path id="DejaVuSans-65" d="M 3597 1894 
L 3597 1613 
L 953 1613 
Q 991 1019 1311 708 
Q 1631 397 2203 397 
Q 2534 397 2845 478 
Q 3156 559 3463 722 
L 3463 178 
Q 3153 47 2828 -22 
Q 2503 -91 2169 -91 
Q 1331 -91 842 396 
Q 353 884 353 1716 
Q 353 2575 817 3079 
Q 1281 3584 2069 3584 
Q 2775 3584 3186 3129 
Q 3597 2675 3597 1894 
z
M 3022 2063 
Q 3016 2534 2758 2815 
Q 2500 3097 2075 3097 
Q 1594 3097 1305 2825 
Q 1016 2553 972 2059 
L 3022 2063 
z
" transform="scale(0.015625)"/>
      <path id="DejaVuSans-6c" d="M 603 4863 
L 1178 4863 
L 1178 0 
L 603 0 
L 603 4863 
z
" transform="scale(0.015625)"/>
      <path id="DejaVuSans-74" d="M 1172 4494 
L 1172 3500 
L 2356 3500 
L 2356 3053 
L 1172 3053 
L 1172 1153 
Q 1172 725 1289 603 
Q 1406 481 1766 481 
L 2356 481 
L 2356 0 
L 1766 0 
Q 1100 0 847 248 
Q 594 497 594 1153 
L 594 3053 
L 172 3053 
L 172 3500 
L 594 3500 
L 594 4494 
L 1172 4494 
z
" transform="scale(0.015625)"/>
      <path id="DejaVuSans-61" d="M 2194 1759 
Q 1497 1759 1228 1600 
Q 959 1441 959 1056 
Q 959 750 1161 570 
Q 1363 391 1709 391 
Q 2188 391 2477 730 
Q 2766 1069 2766 1631 
L 2766 1759 
L 2194 1759 
z
M 3341 1997 
L 3341 0 
L 2766 0 
L 2766 531 
Q 2569 213 2275 61 
Q 1981 -91 1556 -91 
Q 1019 -91 701 211 
Q 384 513 384 1019 
Q 384 1609 779 1909 
Q 1175 2209 1959 2209 
L 2766 2209 
L 2766 2266 
Q 2766 2663 2505 2880 
Q 2244 3097 1772 3097 
Q 1472 3097 1187 3025 
Q 903 2953 641 2809 
L 641 3341 
Q 956 3463 1253 3523 
Q 1550 3584 1831 3584 
Q 2591 3584 2966 3190 
Q 3341 2797 3341 1997 
z
" transform="scale(0.015625)"/>
     </defs>
     <use xlink:href="#DejaVuSans-64"/>
     <use xlink:href="#DejaVuSans-65" transform="translate(63.476562 0)"/>
     <use xlink:href="#DejaVuSans-6c" transform="translate(125 0)"/>
     <use xlink:href="#DejaVuSans-74" transform="translate(152.783203 0)"/>
     <use xlink:href="#DejaVuSans-61" transform="translate(191.992188 0)"/>
    </g>
   </g>
  </g>
  <g id="axes_2">
   <g id="patch_4">
    <path d="M 270.1075 103.716325 
L 304.25375 103.716325 
L 304.25375 50.64 
L 270.1075 50.64 
z
" style="fill: #ffffff"/>
   </g>
   <g id="patch_5">
    <path d="M 271.659602 102.675612 
L 279.420114 102.675612 
L 279.420114 75.001187 
L 271.659602 75.001187 
z
" clip-path="url(#pebbbbea029)" style="fill: #ffcc33"/>
   </g>
   <g id="patch_6">
    <path d="M 279.420114 102.675612 
L 287.180625 102.675612 
L 287.180625 88.886455 
L 279.420114 88.886455 
z
" clip-path="url(#pebbbbea029)" style="fill: #ff0000"/>
   </g>
   <g id="patch_7">
    <path d="M 287.180625 102.675612 
L 294.941136 102.675612 
L 294.941136 102.670162 
L 287.180625 102.670162 
z
" clip-path="url(#pebbbbea029)" style="fill: #0000ff"/>
   </g>
   <g id="patch_8">
    <path d="M 294.941136 102.675612 
L 302.701648 102.675612 
L 302.701648 96.927421 
L 294.941136 96.927421 
z
" clip-path="url(#pebbbbea029)" style="fill: #ff00ff"/>
   </g>
   <g id="matplotlib.axis_3"/>
   <g id="matplotlib.axis_4">
    <g id="ytick_3"/>
    <g id="ytick_4"/>
   </g>
   <g id="text_4">
    <!-- Pre -->
    <g transform="translate(277.644375 44.64) scale(0.12 -0.12)">
     <defs>
      <path id="DejaVuSans-50" d="M 1259 4147 
L 1259 2394 
L 2053 2394 
Q 2494 2394 2734 2622 
Q 2975 2850 2975 3272 
Q 2975 3691 2734 3919 
Q 2494 4147 2053 4147 
L 1259 4147 
z
M 628 4666 
L 2053 4666 
Q 2838 4666 3239 4311 
Q 3641 3956 3641 3272 
Q 3641 2581 3239 2228 
Q 2838 1875 2053 1875 
L 1259 1875 
L 1259 0 
L 628 0 
L 628 4666 
z
" transform="scale(0.015625)"/>
      <path id="DejaVuSans-72" d="M 2631 2963 
Q 2534 3019 2420 3045 
Q 2306 3072 2169 3072 
Q 1681 3072 1420 2755 
Q 1159 2438 1159 1844 
L 1159 0 
L 581 0 
L 581 3500 
L 1159 3500 
L 1159 2956 
Q 1341 3275 1631 3429 
Q 1922 3584 2338 3584 
Q 2397 3584 2469 3576 
Q 2541 3569 2628 3553 
L 2631 2963 
z
" transform="scale(0.015625)"/>
     </defs>
     <use xlink:href="#DejaVuSans-50"/>
     <use xlink:href="#DejaVuSans-72" transform="translate(58.552734 0)"/>
     <use xlink:href="#DejaVuSans-65" transform="translate(97.416016 0)"/>
    </g>
   </g>
  </g>
  <g id="axes_3">
   <g id="patch_9">
    <path d="M 315.05375 103.716325 
L 349.2 103.716325 
L 349.2 50.64 
L 315.05375 50.64 
z
" style="fill: #ffffff"/>
   </g>
   <g id="patch_10">
    <path d="M 316.605852 102.675612 
L 324.366364 102.675612 
L 324.366364 74.412514 
L 316.605852 74.412514 
z
" clip-path="url(#p564090e1c6)" style="fill: #ffcc33"/>
   </g>
   <g id="patch_11">
    <path d="M 324.366364 102.675612 
L 332.126875 102.675612 
L 332.126875 102.221955 
L 324.366364 102.221955 
z
" clip-path="url(#p564090e1c6)" style="fill: #ff0000"/>
   </g>
   <g id="patch_12">
    <path d="M 332.126875 102.675612 
L 339.887386 102.675612 
L 339.887386 102.675598 
L 332.126875 102.675598 
z
" clip-path="url(#p564090e1c6)" style="fill: #0000ff"/>
   </g>
   <g id="patch_13">
    <path d="M 339.887386 102.675612 
L 347.647898 102.675612 
L 347.647898 95.639106 
L 339.887386 95.639106 
z
" clip-path="url(#p564090e1c6)" style="fill: #ff00ff"/>
   </g>
   <g id="matplotlib.axis_5"/>
   <g id="matplotlib.axis_6">
    <g id="ytick_5"/>
    <g id="ytick_6"/>
   </g>
   <g id="text_5">
    <!-- Post -->
    <g transform="translate(319.5775 44.64) scale(0.12 -0.12)">
     <defs>
      <path id="DejaVuSans-6f" d="M 1959 3097 
Q 1497 3097 1228 2736 
Q 959 2375 959 1747 
Q 959 1119 1226 758 
Q 1494 397 1959 397 
Q 2419 397 2687 759 
Q 2956 1122 2956 1747 
Q 2956 2369 2687 2733 
Q 2419 3097 1959 3097 
z
M 1959 3584 
Q 2709 3584 3137 3096 
Q 3566 2609 3566 1747 
Q 3566 888 3137 398 
Q 2709 -91 1959 -91 
Q 1206 -91 779 398 
Q 353 888 353 1747 
Q 353 2609 779 3096 
Q 1206 3584 1959 3584 
z
" transform="scale(0.015625)"/>
      <path id="DejaVuSans-73" d="M 2834 3397 
L 2834 2853 
Q 2591 2978 2328 3040 
Q 2066 3103 1784 3103 
Q 1356 3103 1142 2972 
Q 928 2841 928 2578 
Q 928 2378 1081 2264 
Q 1234 2150 1697 2047 
L 1894 2003 
Q 2506 1872 2764 1633 
Q 3022 1394 3022 966 
Q 3022 478 2636 193 
Q 2250 -91 1575 -91 
Q 1294 -91 989 -36 
Q 684 19 347 128 
L 347 722 
Q 666 556 975 473 
Q 1284 391 1588 391 
Q 1994 391 2212 530 
Q 2431 669 2431 922 
Q 2431 1156 2273 1281 
Q 2116 1406 1581 1522 
L 1381 1569 
Q 847 1681 609 1914 
Q 372 2147 372 2553 
Q 372 3047 722 3315 
Q 1072 3584 1716 3584 
Q 2034 3584 2315 3537 
Q 2597 3491 2834 3397 
z
" transform="scale(0.015625)"/>
     </defs>
     <use xlink:href="#DejaVuSans-50"/>
     <use xlink:href="#DejaVuSans-6f" transform="translate(56.677734 0)"/>
     <use xlink:href="#DejaVuSans-73" transform="translate(117.859375 0)"/>
     <use xlink:href="#DejaVuSans-74" transform="translate(169.958984 0)"/>
    </g>
   </g>
  </g>
  <g id="axes_4">
   <g id="patch_14">
    <path d="M 54.43 186.65306 
L 259.3075 186.65306 
L 259.3075 133.576735 
L 54.43 133.576735 
z
" style="fill: #ffffff"/>
   </g>
   <g id="matplotlib.axis_7">
    <g id="xtick_2"/>
   </g>
   <g id="matplotlib.axis_8">
    <g id="ytick_7">
     <g id="line2d_10">
      <g>
       <use xlink:href="#m4badc92bb5" x="54.43" y="185.612347" style="stroke: #000000; stroke-width: 0.8"/>
      </g>
     </g>
     <g id="text_6">
      <!-- 0.0 -->
      <g transform="translate(31.526875 189.411566) scale(0.1 -0.1)">
       <use xlink:href="#DejaVuSans-30"/>
       <use xlink:href="#DejaVuSans-2e" transform="translate(63.623047 0)"/>
       <use xlink:href="#DejaVuSans-30" transform="translate(95.410156 0)"/>
      </g>
     </g>
    </g>
    <g id="ytick_8">
     <g id="line2d_11">
      <g>
       <use xlink:href="#m4badc92bb5" x="54.43" y="133.576735" style="stroke: #000000; stroke-width: 0.8"/>
      </g>
     </g>
     <g id="text_7">
      <!-- 0.5 -->
      <g transform="translate(31.526875 137.375954) scale(0.1 -0.1)">
       <use xlink:href="#DejaVuSans-30"/>
       <use xlink:href="#DejaVuSans-2e" transform="translate(63.623047 0)"/>
       <use xlink:href="#DejaVuSans-35" transform="translate(95.410156 0)"/>
      </g>
     </g>
    </g>
   </g>
   <g id="line2d_12">
    <path d="M -1 185.612347 
L 63.210464 185.612347 
L 66.137286 184.291196 
L 69.064107 181.110826 
L 71.990929 179.175216 
L 74.91775 177.553941 
L 80.771393 174.730855 
L 83.698214 173.480854 
L 86.625036 172.354102 
L 89.551857 171.755205 
L 92.478679 171.2903 
L 95.4055 170.972022 
L 98.332321 170.821717 
L 101.259143 170.858165 
L 104.185964 171.093492 
L 107.112786 171.52494 
L 110.039607 172.127746 
L 118.820071 174.232417 
L 121.746893 174.661865 
L 124.673714 174.783097 
L 127.600536 174.570863 
L 130.527357 174.072975 
L 136.381 172.591796 
L 142.234643 171.109134 
L 148.088286 169.974931 
L 151.015107 169.570947 
L 153.941929 169.284177 
L 156.86875 169.116143 
L 159.795571 169.064029 
L 165.649214 169.292089 
L 171.502857 169.941072 
L 177.3565 171.013055 
L 183.210143 172.483912 
L 197.84425 176.642951 
L 200.771071 177.128063 
L 203.697893 177.314488 
L 206.624714 177.141095 
L 209.551536 176.60794 
L 212.478357 175.788543 
L 224.185643 171.81006 
L 227.112464 171.049083 
L 230.039286 170.44327 
L 232.966107 169.991932 
L 235.892929 169.682853 
L 241.746571 169.420514 
L 247.600214 169.478774 
L 253.453857 169.626843 
L 256.380679 169.666138 
L 256.380679 169.666138 
" clip-path="url(#p2f80d25094)" style="fill: none; stroke: #ffcc33; stroke-width: 1.5; stroke-linecap: square"/>
   </g>
   <g id="line2d_13">
    <path d="M -1 178.928005 
L 19.308143 177.346684 
L 28.088607 176.889857 
L 42.722714 176.42486 
L 51.503179 176.307879 
L 54.43 173.186059 
L 63.210464 174.256325 
L 66.137286 174.720064 
L 74.91775 178.175616 
L 80.771393 180.721648 
L 83.698214 182.285929 
L 86.625036 185.221345 
L 89.551857 185.612347 
L 133.454179 185.612347 
L 136.381 184.67326 
L 139.307821 182.407664 
L 142.234643 181.148787 
L 145.161464 180.166016 
L 151.015107 178.592162 
L 156.86875 177.285547 
L 165.649214 175.582629 
L 174.429679 174.118856 
L 180.283321 173.300817 
L 186.136964 172.67604 
L 191.990607 172.349819 
L 194.917429 172.339676 
L 197.84425 172.447951 
L 203.697893 173.005619 
L 209.551536 173.855106 
L 215.405179 174.85778 
L 221.258821 176.057352 
L 230.039286 178.170973 
L 241.746571 181.268118 
L 247.600214 183.106341 
L 250.527036 184.494536 
L 253.453857 185.612347 
L 256.380679 185.612347 
L 256.380679 185.612347 
" clip-path="url(#p2f80d25094)" style="fill: none; stroke: #ff0000; stroke-width: 1.5; stroke-linecap: square"/>
   </g>
   <g id="line2d_14">
    <path d="M -1 185.612347 
L 48.576357 185.612347 
L 51.503179 183.605753 
L 54.43 176.502752 
L 63.210464 175.820926 
L 80.771393 174.782806 
L 110.039607 173.439777 
L 112.966429 173.411339 
L 118.820071 175.048416 
L 124.673714 177.141765 
L 127.600536 178.350137 
L 130.527357 179.681319 
L 133.454179 181.197702 
L 136.381 183.184503 
L 139.307821 185.612347 
L 256.380679 185.612347 
L 256.380679 185.612347 
" clip-path="url(#p2f80d25094)" style="fill: none; stroke: #0000ff; stroke-width: 1.5; stroke-linecap: square"/>
   </g>
   <g id="line2d_15">
    <path d="M -1 185.612312 
L 110.039607 185.612347 
L 112.966429 184.583612 
L 115.89325 181.554967 
L 118.820071 179.693319 
L 124.673714 176.516805 
L 133.454179 172.262018 
L 136.381 170.964022 
L 139.307821 170.076937 
L 145.161464 169.127379 
L 153.941929 167.969487 
L 165.649214 166.713936 
L 177.3565 165.686551 
L 186.136964 165.093502 
L 191.990607 164.912475 
L 197.84425 165.053766 
L 200.771071 165.292433 
L 203.697893 165.666664 
L 206.624714 166.191164 
L 209.551536 166.874988 
L 212.478357 167.715612 
L 218.332 169.797662 
L 227.112464 173.440379 
L 235.892929 177.005483 
L 247.600214 181.532569 
L 250.527036 182.932892 
L 253.453857 185.612347 
L 256.380679 185.612347 
L 256.380679 185.612347 
" clip-path="url(#p2f80d25094)" style="fill: none; stroke: #ff00ff; stroke-width: 1.5; stroke-linecap: square"/>
   </g>
   <g id="line2d_16">
    <path d="M 54.43 185.612347 
L 259.3075 185.612347 
" clip-path="url(#p2f80d25094)" style="fill: none; stroke: #000000; stroke-width: 0.8; stroke-linecap: square"/>
   </g>
   <g id="line2d_17">
    <path d="M -1 176.37834 
L 1.747214 175.931157 
L 4.674036 175.619195 
L 7.600857 175.469275 
L 10.527679 175.486788 
L 13.4545 175.683486 
L 16.381321 176.079025 
L 19.308143 176.705541 
L 22.234964 177.616794 
L 25.161786 178.908212 
L 28.088607 180.817222 
M 54.43 183.584792 
L 57.356821 183.059482 
L 60.283643 182.091716 
L 66.137286 179.701712 
L 77.844571 174.750118 
L 83.698214 172.547555 
L 89.551857 170.72419 
L 92.478679 170.001901 
L 95.4055 169.423603 
L 98.332321 168.999924 
L 101.259143 168.736365 
L 104.185964 168.62951 
L 110.039607 168.787959 
L 115.89325 169.053957 
L 118.820071 169.018764 
L 121.746893 168.772176 
L 124.673714 168.281339 
L 127.600536 167.555614 
L 130.527357 166.641034 
L 139.307821 163.416669 
L 145.161464 161.382552 
L 151.015107 159.69539 
L 156.86875 158.426919 
L 162.722393 157.585073 
L 168.576036 157.154413 
L 174.429679 157.128102 
L 180.283321 157.528004 
L 186.136964 158.364786 
L 191.990607 159.61442 
L 197.84425 161.201339 
L 209.551536 164.593967 
L 212.478357 165.203677 
L 215.405179 165.600744 
L 218.332 165.757233 
L 221.258821 165.680947 
L 224.185643 165.412245 
L 230.039286 164.526823 
L 238.81975 163.025973 
L 244.673393 162.2115 
L 250.527036 161.624847 
L 256.380679 161.25647 
L 256.380679 161.25647 
" clip-path="url(#p2f80d25094)" style="fill: none; stroke-dasharray: 5.55,2.4; stroke-dashoffset: 0; stroke: #000000; stroke-width: 1.5"/>
   </g>
   <g id="line2d_18">
    <path d="M 142.234643 186.65306 
L 142.234643 133.576735 
" clip-path="url(#p2f80d25094)" style="fill: none; stroke: #000000; stroke-width: 0.8; stroke-linecap: square"/>
   </g>
   <g id="patch_15">
    <path d="M 54.43 185.612347 
L 54.43 133.576735 
" style="fill: none; stroke: #000000; stroke-width: 0.8; stroke-linejoin: miter; stroke-linecap: square"/>
   </g>
   <g id="text_8">
    <!-- theta -->
    <g transform="translate(140.993125 127.576735) scale(0.12 -0.12)">
     <defs>
      <path id="DejaVuSans-68" d="M 3513 2113 
L 3513 0 
L 2938 0 
L 2938 2094 
Q 2938 2591 2744 2837 
Q 2550 3084 2163 3084 
Q 1697 3084 1428 2787 
Q 1159 2491 1159 1978 
L 1159 0 
L 581 0 
L 581 4863 
L 1159 4863 
L 1159 2956 
Q 1366 3272 1645 3428 
Q 1925 3584 2291 3584 
Q 2894 3584 3203 3211 
Q 3513 2838 3513 2113 
z
" transform="scale(0.015625)"/>
     </defs>
     <use xlink:href="#DejaVuSans-74"/>
     <use xlink:href="#DejaVuSans-68" transform="translate(39.208984 0)"/>
     <use xlink:href="#DejaVuSans-65" transform="translate(102.587891 0)"/>
     <use xlink:href="#DejaVuSans-74" transform="translate(164.111328 0)"/>
     <use xlink:href="#DejaVuSans-61" transform="translate(203.320312 0)"/>
    </g>
   </g>
  </g>
  <g id="axes_5">
   <g id="patch_16">
    <path d="M 270.1075 186.65306 
L 304.25375 186.65306 
L 304.25375 133.576735 
L 270.1075 133.576735 
z
" style="fill: #ffffff"/>
   </g>
   <g id="patch_17">
    <path d="M 271.659602 185.612347 
L 279.420114 185.612347 
L 279.420114 175.607313 
L 271.659602 175.607313 
z
" clip-path="url(#p8ac011fc68)" style="fill: #ffcc33"/>
   </g>
   <g id="patch_18">
    <path d="M 279.420114 185.612347 
L 287.180625 185.612347 
L 287.180625 182.169151 
L 279.420114 182.169151 
z
" clip-path="url(#p8ac011fc68)" style="fill: #ff0000"/>
   </g>
   <g id="patch_19">
    <path d="M 287.180625 185.612347 
L 294.941136 185.612347 
L 294.941136 175.998283 
L 287.180625 175.998283 
z
" clip-path="url(#p8ac011fc68)" style="fill: #0000ff"/>
   </g>
   <g id="patch_20">
    <path d="M 294.941136 185.612347 
L 302.701648 185.612347 
L 302.701648 182.48802 
L 294.941136 182.48802 
z
" clip-path="url(#p8ac011fc68)" style="fill: #ff00ff"/>
   </g>
   <g id="matplotlib.axis_9"/>
   <g id="matplotlib.axis_10">
    <g id="ytick_9"/>
    <g id="ytick_10"/>
   </g>
  </g>
  <g id="axes_6">
   <g id="patch_21">
    <path d="M 315.05375 186.65306 
L 349.2 186.65306 
L 349.2 133.576735 
L 315.05375 133.576735 
z
" style="fill: #ffffff"/>
   </g>
   <g id="patch_22">
    <path d="M 316.605852 185.612347 
L 324.366364 185.612347 
L 324.366364 171.807921 
L 316.605852 171.807921 
z
" clip-path="url(#pe6a00458f8)" style="fill: #ffcc33"/>
   </g>
   <g id="patch_23">
    <path d="M 324.366364 185.612347 
L 332.126875 185.612347 
L 332.126875 176.901857 
L 324.366364 176.901857 
z
" clip-path="url(#pe6a00458f8)" style="fill: #ff0000"/>
   </g>
   <g id="patch_24">
    <path d="M 332.126875 185.612347 
L 339.887386 185.612347 
L 339.887386 185.609957 
L 332.126875 185.609957 
z
" clip-path="url(#pe6a00458f8)" style="fill: #0000ff"/>
   </g>
   <g id="patch_25">
    <path d="M 339.887386 185.612347 
L 347.647898 185.612347 
L 347.647898 170.501727 
L 339.887386 170.501727 
z
" clip-path="url(#pe6a00458f8)" style="fill: #ff00ff"/>
   </g>
   <g id="matplotlib.axis_11"/>
   <g id="matplotlib.axis_12">
    <g id="ytick_11"/>
    <g id="ytick_12"/>
   </g>
  </g>
  <g id="axes_7">
   <g id="patch_26">
    <path d="M 54.43 269.589795 
L 259.3075 269.589795 
L 259.3075 216.51347 
L 54.43 216.51347 
z
" style="fill: #ffffff"/>
   </g>
   <g id="matplotlib.axis_13">
    <g id="xtick_3"/>
   </g>
   <g id="matplotlib.axis_14">
    <g id="ytick_13">
     <g id="line2d_19">
      <g>
       <use xlink:href="#m4badc92bb5" x="54.43" y="268.549083" style="stroke: #000000; stroke-width: 0.8"/>
      </g>
     </g>
     <g id="text_9">
      <!-- 0.0 -->
      <g transform="translate(31.526875 272.348301) scale(0.1 -0.1)">
       <use xlink:href="#DejaVuSans-30"/>
       <use xlink:href="#DejaVuSans-2e" transform="translate(63.623047 0)"/>
       <use xlink:href="#DejaVuSans-30" transform="translate(95.410156 0)"/>
      </g>
     </g>
    </g>
    <g id="ytick_14">
     <g id="line2d_20">
      <g>
       <use xlink:href="#m4badc92bb5" x="54.43" y="216.51347" style="stroke: #000000; stroke-width: 0.8"/>
      </g>
     </g>
     <g id="text_10">
      <!-- 0.5 -->
      <g transform="translate(31.526875 220.312689) scale(0.1 -0.1)">
       <use xlink:href="#DejaVuSans-30"/>
       <use xlink:href="#DejaVuSans-2e" transform="translate(63.623047 0)"/>
       <use xlink:href="#DejaVuSans-35" transform="translate(95.410156 0)"/>
      </g>
     </g>
    </g>
   </g>
   <g id="line2d_21">
    <path d="M -1 268.549083 
L 71.990929 268.549083 
L 74.91775 265.579899 
L 77.844571 264.119252 
L 80.771393 263.462286 
L 89.551857 262.434393 
L 92.478679 262.519441 
L 98.332321 263.573972 
L 101.259143 263.433822 
L 104.185964 262.954518 
L 107.112786 262.652059 
L 110.039607 262.474094 
L 112.966429 262.740184 
L 115.89325 263.607615 
L 118.820071 265.413979 
L 121.746893 268.54871 
L 124.673714 266.244894 
L 127.600536 263.348241 
L 130.527357 260.936251 
L 133.454179 259.838567 
L 136.381 260.154979 
L 142.234643 262.736081 
L 145.161464 262.701628 
L 151.015107 260.837293 
L 156.86875 259.756121 
L 159.795571 258.586821 
L 165.649214 255.455527 
L 171.502857 252.823112 
L 174.429679 252.333395 
L 177.3565 252.309782 
L 180.283321 252.426923 
L 186.136964 252.910912 
L 191.990607 253.111295 
L 197.84425 253.515143 
L 200.771071 253.79653 
L 203.697893 254.30965 
L 206.624714 255.494868 
L 209.551536 257.837731 
L 212.478357 261.326282 
L 215.405179 265.184836 
L 218.332 265.600136 
L 224.185643 258.726403 
L 230.039286 252.760574 
L 232.966107 250.057941 
L 235.892929 248.067378 
L 238.81975 246.721767 
L 241.746571 245.795166 
L 250.527036 244.140311 
L 253.453857 243.533231 
L 256.380679 243.119107 
L 256.380679 243.119107 
" clip-path="url(#p1147827958)" style="fill: none; stroke: #ffcc33; stroke-width: 1.5; stroke-linecap: square"/>
   </g>
   <g id="line2d_22">
    <path d="M -1 268.549083 
L 10.527679 268.546565 
L 13.4545 264.156127 
L 16.381321 260.361431 
L 19.308143 257.740555 
L 22.234964 255.886153 
L 25.161786 254.574146 
L 28.088607 253.603423 
L 36.869071 251.123842 
L 39.795893 250.082377 
L 48.576357 246.42744 
L 51.503179 245.641318 
L 54.43 249.883423 
L 57.356821 250.414886 
L 60.283643 250.687479 
L 63.210464 250.635485 
L 66.137286 250.270007 
L 69.064107 249.625599 
L 71.990929 248.817847 
L 74.91775 247.626401 
L 77.844571 246.757948 
L 80.771393 246.635397 
L 83.698214 247.117011 
L 86.625036 247.852135 
L 89.551857 248.708972 
L 92.478679 249.768869 
L 95.4055 251.018429 
L 98.332321 252.136113 
L 101.259143 252.778631 
L 107.112786 253.270484 
L 110.039607 253.674231 
L 112.966429 254.707542 
L 115.89325 256.518111 
L 118.820071 259.132542 
L 121.746893 262.043927 
L 124.673714 264.42833 
L 127.600536 266.091731 
L 130.527357 265.619695 
L 133.454179 264.099781 
L 139.307821 260.476248 
L 142.234643 258.982305 
L 145.161464 258.137052 
L 148.088286 257.770121 
L 156.86875 257.230283 
L 159.795571 257.532522 
L 162.722393 258.512581 
L 165.649214 260.146999 
L 168.576036 262.377514 
L 171.502857 265.742885 
L 174.429679 268.549083 
L 180.283321 268.549069 
L 183.210143 266.877762 
L 186.136964 262.128138 
L 189.063786 258.828235 
L 191.990607 255.958062 
L 194.917429 253.511471 
L 197.84425 251.545369 
L 200.771071 250.080913 
L 203.697893 249.229928 
L 206.624714 249.209686 
L 209.551536 250.147734 
L 212.478357 251.679065 
L 215.405179 252.855196 
L 218.332 253.504584 
L 221.258821 255.318798 
L 224.185643 257.80823 
L 230.039286 262.324509 
L 232.966107 265.241704 
L 235.892929 268.549083 
L 256.380679 268.549083 
L 256.380679 268.549083 
" clip-path="url(#p1147827958)" style="fill: none; stroke: #ff0000; stroke-width: 1.5; stroke-linecap: square"/>
   </g>
   <g id="line2d_23">
    <path d="M -1 268.549081 
L 1.747214 268.549078 
L 4.674036 264.543472 
L 7.600857 262.549715 
L 10.527679 261.960613 
L 13.4545 262.362131 
L 16.381321 263.695735 
L 19.308143 266.613086 
L 22.234964 268.549082 
L 66.137286 268.548835 
L 69.064107 267.226044 
L 71.990929 266.56028 
L 74.91775 266.257956 
L 83.698214 266.086997 
L 86.625036 265.729105 
L 89.551857 264.815585 
L 98.332321 261.123573 
L 104.185964 259.02848 
L 107.112786 258.193107 
L 110.039607 254.72947 
L 112.966429 252.784337 
L 115.89325 251.816809 
L 118.820071 251.590693 
L 121.746893 252.305728 
L 124.673714 254.698137 
L 127.600536 260.978256 
L 130.527357 263.177293 
L 133.454179 266.377491 
L 136.381 268.545276 
L 180.283321 268.548269 
L 183.210143 267.366251 
L 186.136964 268.549083 
L 256.380679 268.549083 
L 256.380679 268.549083 
" clip-path="url(#p1147827958)" style="fill: none; stroke: #0000ff; stroke-width: 1.5; stroke-linecap: square"/>
   </g>
   <g id="line2d_24">
    <path d="M -1 268.549083 
L 33.94225 268.549076 
L 36.869071 267.877018 
L 39.795893 267.01804 
L 42.722714 266.666482 
L 45.649536 266.702015 
L 48.576357 267.414658 
L 51.503179 268.549083 
L 107.112786 268.548587 
L 110.039607 262.209194 
L 112.966429 259.931211 
L 115.89325 258.602725 
L 118.820071 257.899223 
L 121.746893 258.059674 
L 124.673714 259.791939 
L 127.600536 268.548938 
L 145.161464 268.549083 
L 162.722393 268.549083 
L 165.649214 266.330782 
L 168.576036 264.829369 
L 171.502857 263.940469 
L 174.429679 263.708336 
L 177.3565 264.186899 
L 180.283321 265.293481 
L 183.210143 268.536549 
L 209.551536 268.545991 
L 238.81975 268.549083 
L 241.746571 266.525688 
L 244.673393 264.685823 
L 247.600214 263.139637 
L 250.527036 262.123713 
L 253.453857 261.704776 
L 256.380679 261.573613 
L 256.380679 261.573613 
" clip-path="url(#p1147827958)" style="fill: none; stroke: #ff00ff; stroke-width: 1.5; stroke-linecap: square"/>
   </g>
   <g id="line2d_25">
    <path d="M 54.43 268.549083 
L 259.3075 268.549083 
" clip-path="url(#p1147827958)" style="fill: none; stroke: #000000; stroke-width: 0.8; stroke-linecap: square"/>
   </g>
   <g id="line2d_26">
    <path d="M 19.308143 265.215055 
L 22.234964 262.014344 
L 25.161786 259.929987 
L 28.088607 258.433806 
L 33.94225 255.919016 
L 36.869071 254.26141 
L 45.649536 248.29601 
L 48.576357 246.99825 
L 51.503179 246.305181 
L 54.43 248.003988 
L 57.356821 248.498089 
L 60.283643 248.74581 
L 63.210464 248.649544 
L 66.137286 248.252211 
L 69.064107 247.624754 
L 71.990929 246.878127 
L 74.91775 246.274794 
L 77.844571 246.06242 
L 80.771393 246.375777 
L 83.698214 247.126582 
L 92.478679 249.767039 
L 95.4055 250.587555 
L 98.332321 251.162034 
L 101.259143 251.215185 
L 104.185964 250.795176 
L 107.112786 250.243326 
L 110.039607 249.931063 
L 112.966429 250.088789 
L 115.89325 250.749955 
L 121.746893 252.685493 
L 127.600536 255.126404 
L 130.527357 256.343519 
L 133.454179 257.829601 
L 136.381 260.049572 
L 142.234643 266.00889 
L 145.161464 265.828882 
L 148.088286 263.613968 
L 151.015107 261.914155 
L 153.941929 260.552583 
L 156.86875 258.843376 
L 162.722393 254.520377 
L 165.649214 252.806002 
L 168.576036 251.506428 
L 171.502857 250.509082 
L 174.429679 249.882679 
L 177.3565 249.683107 
L 180.283321 249.860509 
L 183.210143 250.382977 
L 186.136964 251.175919 
L 191.990607 253.207594 
L 194.917429 253.835334 
L 197.84425 253.4496 
L 200.771071 251.973515 
L 203.697893 250.15831 
L 206.624714 248.971452 
L 209.551536 248.979854 
L 212.478357 249.926795 
L 218.332 252.637206 
L 221.258821 253.962182 
L 224.185643 254.530018 
L 227.112464 254.004007 
L 230.039286 252.851135 
L 232.966107 251.474047 
L 235.892929 249.837192 
L 238.81975 248.026357 
L 241.746571 246.452354 
L 247.600214 243.761303 
L 250.527036 242.574066 
L 253.453857 241.726547 
L 256.380679 241.136463 
L 256.380679 241.136463 
" clip-path="url(#p1147827958)" style="fill: none; stroke-dasharray: 5.55,2.4; stroke-dashoffset: 0; stroke: #000000; stroke-width: 1.5"/>
   </g>
   <g id="line2d_27">
    <path d="M 142.234643 269.589795 
L 142.234643 216.51347 
" clip-path="url(#p1147827958)" style="fill: none; stroke: #000000; stroke-width: 0.8; stroke-linecap: square"/>
   </g>
   <g id="patch_27">
    <path d="M 54.43 268.549083 
L 54.43 216.51347 
" style="fill: none; stroke: #000000; stroke-width: 0.8; stroke-linejoin: miter; stroke-linecap: square"/>
   </g>
   <g id="text_11">
    <!-- alpha-beta -->
    <g transform="translate(124.541875 210.51347) scale(0.12 -0.12)">
     <defs>
      <path id="DejaVuSans-70" d="M 1159 525 
L 1159 -1331 
L 581 -1331 
L 581 3500 
L 1159 3500 
L 1159 2969 
Q 1341 3281 1617 3432 
Q 1894 3584 2278 3584 
Q 2916 3584 3314 3078 
Q 3713 2572 3713 1747 
Q 3713 922 3314 415 
Q 2916 -91 2278 -91 
Q 1894 -91 1617 61 
Q 1341 213 1159 525 
z
M 3116 1747 
Q 3116 2381 2855 2742 
Q 2594 3103 2138 3103 
Q 1681 3103 1420 2742 
Q 1159 2381 1159 1747 
Q 1159 1113 1420 752 
Q 1681 391 2138 391 
Q 2594 391 2855 752 
Q 3116 1113 3116 1747 
z
" transform="scale(0.015625)"/>
      <path id="DejaVuSans-2d" d="M 313 2009 
L 1997 2009 
L 1997 1497 
L 313 1497 
L 313 2009 
z
" transform="scale(0.015625)"/>
      <path id="DejaVuSans-62" d="M 3116 1747 
Q 3116 2381 2855 2742 
Q 2594 3103 2138 3103 
Q 1681 3103 1420 2742 
Q 1159 2381 1159 1747 
Q 1159 1113 1420 752 
Q 1681 391 2138 391 
Q 2594 391 2855 752 
Q 3116 1113 3116 1747 
z
M 1159 2969 
Q 1341 3281 1617 3432 
Q 1894 3584 2278 3584 
Q 2916 3584 3314 3078 
Q 3713 2572 3713 1747 
Q 3713 922 3314 415 
Q 2916 -91 2278 -91 
Q 1894 -91 1617 61 
Q 1341 213 1159 525 
L 1159 0 
L 581 0 
L 581 4863 
L 1159 4863 
L 1159 2969 
z
" transform="scale(0.015625)"/>
     </defs>
     <use xlink:href="#DejaVuSans-61"/>
     <use xlink:href="#DejaVuSans-6c" transform="translate(61.279297 0)"/>
     <use xlink:href="#DejaVuSans-70" transform="translate(89.0625 0)"/>
     <use xlink:href="#DejaVuSans-68" transform="translate(152.539062 0)"/>
     <use xlink:href="#DejaVuSans-61" transform="translate(215.917969 0)"/>
     <use xlink:href="#DejaVuSans-2d" transform="translate(277.197266 0)"/>
     <use xlink:href="#DejaVuSans-62" transform="translate(313.28125 0)"/>
     <use xlink:href="#DejaVuSans-65" transform="translate(376.757812 0)"/>
     <use xlink:href="#DejaVuSans-74" transform="translate(438.28125 0)"/>
     <use xlink:href="#DejaVuSans-61" transform="translate(477.490234 0)"/>
    </g>
   </g>
  </g>
  <g id="axes_8">
   <g id="patch_28">
    <path d="M 270.1075 269.589795 
L 304.25375 269.589795 
L 304.25375 216.51347 
L 270.1075 216.51347 
z
" style="fill: #ffffff"/>
   </g>
   <g id="patch_29">
    <path d="M 271.659602 268.549083 
L 279.420114 268.549083 
L 279.420114 264.478563 
L 271.659602 264.478563 
z
" clip-path="url(#pdf91866ab7)" style="fill: #ffcc33"/>
   </g>
   <g id="patch_30">
    <path d="M 279.420114 268.549083 
L 287.180625 268.549083 
L 287.180625 253.87048 
L 279.420114 253.87048 
z
" clip-path="url(#pdf91866ab7)" style="fill: #ff0000"/>
   </g>
   <g id="patch_31">
    <path d="M 287.180625 268.549083 
L 294.941136 268.549083 
L 294.941136 262.716992 
L 287.180625 262.716992 
z
" clip-path="url(#pdf91866ab7)" style="fill: #0000ff"/>
   </g>
   <g id="patch_32">
    <path d="M 294.941136 268.549083 
L 302.701648 268.549083 
L 302.701648 266.721673 
L 294.941136 266.721673 
z
" clip-path="url(#pdf91866ab7)" style="fill: #ff00ff"/>
   </g>
   <g id="matplotlib.axis_15"/>
   <g id="matplotlib.axis_16">
    <g id="ytick_15"/>
    <g id="ytick_16"/>
   </g>
  </g>
  <g id="axes_9">
   <g id="patch_33">
    <path d="M 315.05375 269.589795 
L 349.2 269.589795 
L 349.2 216.51347 
L 315.05375 216.51347 
z
" style="fill: #ffffff"/>
   </g>
   <g id="patch_34">
    <path d="M 316.605852 268.549083 
L 324.366364 268.549083 
L 324.366364 254.398602 
L 316.605852 254.398602 
z
" clip-path="url(#p5a2c8bcb7f)" style="fill: #ffcc33"/>
   </g>
   <g id="patch_35">
    <path d="M 324.366364 268.549083 
L 332.126875 268.549083 
L 332.126875 260.292783 
L 324.366364 260.292783 
z
" clip-path="url(#p5a2c8bcb7f)" style="fill: #ff0000"/>
   </g>
   <g id="patch_36">
    <path d="M 332.126875 268.549083 
L 339.887386 268.549083 
L 339.887386 268.51915 
L 332.126875 268.51915 
z
" clip-path="url(#p5a2c8bcb7f)" style="fill: #0000ff"/>
   </g>
   <g id="patch_37">
    <path d="M 339.887386 268.549083 
L 347.647898 268.549083 
L 347.647898 267.184792 
L 339.887386 267.184792 
z
" clip-path="url(#p5a2c8bcb7f)" style="fill: #ff00ff"/>
   </g>
   <g id="matplotlib.axis_17"/>
   <g id="matplotlib.axis_18">
    <g id="ytick_17"/>
    <g id="ytick_18"/>
   </g>
  </g>
  <g id="axes_10">
   <g id="patch_38">
    <path d="M 54.43 352.52653 
L 259.3075 352.52653 
L 259.3075 299.450205 
L 54.43 299.450205 
z
" style="fill: #ffffff"/>
   </g>
   <g id="matplotlib.axis_19">
    <g id="xtick_4"/>
   </g>
   <g id="matplotlib.axis_20">
    <g id="ytick_19">
     <g id="line2d_28">
      <g>
       <use xlink:href="#m4badc92bb5" x="54.43" y="351.485818" style="stroke: #000000; stroke-width: 0.8"/>
      </g>
     </g>
     <g id="text_12">
      <!-- 0.0 -->
      <g transform="translate(31.526875 355.285036) scale(0.1 -0.1)">
       <use xlink:href="#DejaVuSans-30"/>
       <use xlink:href="#DejaVuSans-2e" transform="translate(63.623047 0)"/>
       <use xlink:href="#DejaVuSans-30" transform="translate(95.410156 0)"/>
      </g>
     </g>
    </g>
    <g id="ytick_20">
     <g id="line2d_29">
      <g>
       <use xlink:href="#m4badc92bb5" x="54.43" y="299.450205" style="stroke: #000000; stroke-width: 0.8"/>
      </g>
     </g>
     <g id="text_13">
      <!-- 0.5 -->
      <g transform="translate(31.526875 303.249424) scale(0.1 -0.1)">
       <use xlink:href="#DejaVuSans-30"/>
       <use xlink:href="#DejaVuSans-2e" transform="translate(63.623047 0)"/>
       <use xlink:href="#DejaVuSans-35" transform="translate(95.410156 0)"/>
      </g>
     </g>
    </g>
   </g>
   <g id="line2d_30">
    <path d="M -1 347.006157 
L 1.747214 346.505415 
L 4.674036 346.377929 
L 7.600857 346.590782 
L 10.527679 347.081024 
L 13.4545 347.8517 
L 16.381321 349.127027 
L 19.308143 351.485818 
L 42.722714 351.485818 
L 45.649536 345.969087 
L 48.576357 343.416159 
L 51.503179 342.027497 
L 54.43 351.485818 
L 95.4055 351.485692 
L 98.332321 349.790019 
L 104.185964 348.218733 
L 107.112786 346.902091 
L 110.039607 344.947716 
L 112.966429 342.368707 
L 121.746893 333.387809 
L 124.673714 330.992773 
L 127.600536 329.099293 
L 130.527357 327.663091 
L 133.454179 326.600952 
L 136.381 325.812878 
L 142.234643 324.699159 
L 145.161464 324.256135 
L 148.088286 323.96041 
L 153.941929 323.672767 
L 159.795571 323.733754 
L 162.722393 323.938194 
L 165.649214 324.268094 
L 171.502857 325.242923 
L 186.136964 328.197457 
L 189.063786 329.174359 
L 191.990607 330.408462 
L 194.917429 331.877334 
L 197.84425 333.552065 
L 200.771071 335.404997 
L 203.697893 337.409342 
L 206.624714 339.552225 
L 209.551536 341.840759 
L 212.478357 344.301835 
L 215.405179 347.053335 
L 218.332 351.485817 
L 224.185643 351.485818 
L 227.112464 348.162704 
L 230.039286 344.666693 
L 235.892929 338.628201 
L 238.81975 335.855029 
L 241.746571 333.299883 
L 244.673393 331.035528 
L 247.600214 329.106997 
L 250.527036 327.554049 
L 253.453857 327.098337 
L 256.380679 327.07537 
L 256.380679 327.07537 
" clip-path="url(#p102d815d88)" style="fill: none; stroke: #ffcc33; stroke-width: 1.5; stroke-linecap: square"/>
   </g>
   <g id="line2d_31">
    <path d="M -1 344.251262 
L 1.747214 343.374562 
L 4.674036 342.589545 
L 10.527679 341.354314 
L 19.308143 339.872991 
L 25.161786 339.313875 
L 28.088607 338.829577 
L 31.015429 338.189852 
L 39.795893 335.882871 
L 42.722714 335.336888 
L 45.649536 333.812911 
L 48.576357 332.819346 
L 51.503179 332.676304 
L 54.43 344.27449 
L 57.356821 345.797034 
L 60.283643 347.111215 
L 63.210464 348.227039 
L 66.137286 349.170106 
L 69.064107 349.919541 
L 71.990929 350.397799 
L 74.91775 350.745268 
L 77.844571 351.485816 
L 115.89325 351.485818 
L 121.746893 349.443249 
L 124.673714 348.598965 
L 127.600536 347.944004 
L 130.527357 347.543128 
L 133.454179 347.423674 
L 136.381 347.599577 
L 139.307821 348.071404 
L 142.234643 348.855769 
L 145.161464 350.099072 
L 148.088286 351.485818 
L 171.502857 351.485818 
L 174.429679 349.751927 
L 177.3565 347.705321 
L 186.136964 342.179768 
L 189.063786 340.484178 
L 191.990607 338.939579 
L 194.917429 337.555305 
L 197.84425 336.324608 
L 200.771071 335.237077 
L 203.697893 334.291603 
L 206.624714 333.499096 
L 209.551536 332.890017 
L 215.405179 332.121205 
L 218.332 331.717604 
L 221.258821 331.517234 
L 224.185643 331.549074 
L 227.112464 332.241235 
L 230.039286 333.886757 
L 232.966107 335.825429 
L 238.81975 340.096876 
L 244.673393 344.547355 
L 247.600214 346.92456 
L 250.527036 350.774987 
L 253.453857 351.485818 
L 256.380679 351.485818 
L 256.380679 351.485818 
" clip-path="url(#p102d815d88)" style="fill: none; stroke: #ff0000; stroke-width: 1.5; stroke-linecap: square"/>
   </g>
   <g id="line2d_32">
    <path d="M -1 335.87791 
L 1.747214 336.019195 
L 7.600857 336.783508 
L 13.4545 337.708567 
L 22.234964 338.658515 
L 28.088607 339.271627 
L 31.015429 339.776538 
L 33.94225 340.624756 
L 36.869071 341.936879 
L 39.795893 343.725824 
L 42.722714 346.01652 
L 48.576357 351.475837 
L 51.503179 351.482434 
L 54.43 348.081752 
L 57.356821 350.370339 
L 60.283643 351.485818 
L 162.722393 351.485818 
L 165.649214 350.906058 
L 168.576036 350.028692 
L 180.283321 347.548181 
L 183.210143 347.100406 
L 186.136964 346.867932 
L 189.063786 346.918503 
L 191.990607 347.259613 
L 194.917429 347.777696 
L 197.84425 348.518436 
L 200.771071 349.6973 
L 203.697893 351.485818 
L 241.746571 351.485818 
L 247.600214 347.772685 
L 250.527036 346.806275 
L 253.453857 342.217435 
L 256.380679 340.808805 
L 256.380679 340.808805 
" clip-path="url(#p102d815d88)" style="fill: none; stroke: #0000ff; stroke-width: 1.5; stroke-linecap: square"/>
   </g>
   <g id="line2d_33">
    <path d="M -1 351.485814 
L 10.527679 351.485818 
L 13.4545 348.750526 
L 16.381321 347.467555 
L 19.308143 346.602789 
L 25.161786 345.409931 
L 28.088607 345.014868 
L 31.015429 344.80628 
L 33.94225 344.901403 
L 36.869071 345.418664 
L 39.795893 346.433784 
L 42.722714 348.098138 
L 45.649536 350.375224 
L 48.576357 351.483617 
L 74.91775 351.485798 
L 77.844571 349.484269 
L 80.771393 348.509371 
L 83.698214 347.812271 
L 86.625036 347.339695 
L 89.551857 347.076436 
L 101.259143 346.530835 
L 107.112786 346.111558 
L 110.039607 346.072508 
L 112.966429 346.245223 
L 115.89325 346.675253 
L 118.820071 347.392069 
L 121.746893 348.417724 
L 124.673714 349.856937 
L 127.600536 351.485818 
L 145.161464 351.485601 
L 148.088286 349.695736 
L 151.015107 348.843818 
L 156.86875 347.69294 
L 165.649214 346.309421 
L 168.576036 345.917082 
L 171.502857 345.655455 
L 174.429679 345.578965 
L 177.3565 345.726193 
L 180.283321 346.131941 
L 183.210143 346.803282 
L 186.136964 347.771002 
L 189.063786 349.235455 
L 191.990607 351.485818 
L 250.527036 351.484936 
L 253.453857 344.504366 
L 256.380679 343.025149 
L 256.380679 343.025149 
" clip-path="url(#p102d815d88)" style="fill: none; stroke: #ff00ff; stroke-width: 1.5; stroke-linecap: square"/>
   </g>
   <g id="line2d_34">
    <path d="M 54.43 351.485818 
L 259.3075 351.485818 
" clip-path="url(#p102d815d88)" style="fill: none; stroke: #000000; stroke-width: 0.8; stroke-linecap: square"/>
   </g>
   <g id="line2d_35">
    <path d="M -1 335.43806 
L 1.747214 334.448869 
L 4.674036 333.552726 
L 7.600857 332.798102 
L 10.527679 332.19144 
L 13.4545 331.729312 
L 19.308143 331.099627 
L 33.94225 329.769425 
L 36.869071 329.724218 
L 39.795893 329.891311 
L 42.722714 330.331741 
L 45.649536 331.11157 
L 48.576357 332.31187 
L 51.503179 333.995073 
L 54.43 348.367576 
M 112.966429 346.386141 
L 115.89325 340.926405 
L 118.820071 336.577343 
L 121.746893 332.857529 
L 124.673714 329.76307 
L 127.600536 327.281778 
L 130.527357 325.365958 
L 133.454179 323.930549 
L 136.381 322.868022 
L 139.307821 322.076229 
L 142.234643 321.469712 
L 148.088286 320.611039 
L 153.941929 320.146699 
L 156.86875 320.072004 
L 159.795571 320.114444 
L 162.722393 320.280253 
L 165.649214 320.576668 
L 168.576036 321.004889 
L 174.429679 322.222684 
L 180.283321 323.87351 
L 183.210143 324.891178 
L 186.136964 326.056415 
L 197.84425 331.221787 
L 200.771071 332.050452 
L 203.697893 332.451779 
L 206.624714 332.411771 
L 209.551536 332.036093 
L 218.332 330.417701 
L 224.185643 329.718165 
L 230.039286 329.009556 
L 232.966107 328.38402 
L 235.892929 327.462569 
L 238.81975 326.213047 
L 247.600214 321.6626 
L 250.527036 320.416832 
L 253.453857 319.46357 
L 256.380679 318.816647 
L 256.380679 318.816647 
" clip-path="url(#p102d815d88)" style="fill: none; stroke-dasharray: 5.55,2.4; stroke-dashoffset: 0; stroke: #000000; stroke-width: 1.5"/>
   </g>
   <g id="line2d_36">
    <path d="M 142.234643 352.52653 
L 142.234643 299.450205 
" clip-path="url(#p102d815d88)" style="fill: none; stroke: #000000; stroke-width: 0.8; stroke-linecap: square"/>
   </g>
   <g id="patch_39">
    <path d="M 54.43 351.485818 
L 54.43 299.450205 
" style="fill: none; stroke: #000000; stroke-width: 0.8; stroke-linejoin: miter; stroke-linecap: square"/>
   </g>
   <g id="text_14">
    <!-- alpha -->
    <g transform="translate(140.236562 293.450205) scale(0.12 -0.12)">
     <use xlink:href="#DejaVuSans-61"/>
     <use xlink:href="#DejaVuSans-6c" transform="translate(61.279297 0)"/>
     <use xlink:href="#DejaVuSans-70" transform="translate(89.0625 0)"/>
     <use xlink:href="#DejaVuSans-68" transform="translate(152.539062 0)"/>
     <use xlink:href="#DejaVuSans-61" transform="translate(215.917969 0)"/>
    </g>
   </g>
  </g>
  <g id="axes_11">
   <g id="patch_40">
    <path d="M 270.1075 352.52653 
L 304.25375 352.52653 
L 304.25375 299.450205 
L 270.1075 299.450205 
z
" style="fill: #ffffff"/>
   </g>
   <g id="patch_41">
    <path d="M 271.659602 351.485818 
L 279.420114 351.485818 
L 279.420114 344.262898 
L 271.659602 344.262898 
z
" clip-path="url(#p091c5f8265)" style="fill: #ffcc33"/>
   </g>
   <g id="patch_42">
    <path d="M 279.420114 351.485818 
L 287.180625 351.485818 
L 287.180625 349.783969 
L 279.420114 349.783969 
z
" clip-path="url(#p091c5f8265)" style="fill: #ff0000"/>
   </g>
   <g id="patch_43">
    <path d="M 287.180625 351.485818 
L 294.941136 351.485818 
L 294.941136 351.335157 
L 287.180625 351.335157 
z
" clip-path="url(#p091c5f8265)" style="fill: #0000ff"/>
   </g>
   <g id="patch_44">
    <path d="M 294.941136 351.485818 
L 302.701648 351.485818 
L 302.701648 349.12304 
L 294.941136 349.12304 
z
" clip-path="url(#p091c5f8265)" style="fill: #ff00ff"/>
   </g>
   <g id="matplotlib.axis_21"/>
   <g id="matplotlib.axis_22">
    <g id="ytick_21"/>
    <g id="ytick_22"/>
   </g>
  </g>
  <g id="axes_12">
   <g id="patch_45">
    <path d="M 315.05375 352.52653 
L 349.2 352.52653 
L 349.2 299.450205 
L 315.05375 299.450205 
z
" style="fill: #ffffff"/>
   </g>
   <g id="patch_46">
    <path d="M 316.605852 351.485818 
L 324.366364 351.485818 
L 324.366364 332.74299 
L 316.605852 332.74299 
z
" clip-path="url(#p5f2af8afdc)" style="fill: #ffcc33"/>
   </g>
   <g id="patch_47">
    <path d="M 324.366364 351.485818 
L 332.126875 351.485818 
L 332.126875 342.696693 
L 324.366364 342.696693 
z
" clip-path="url(#p5f2af8afdc)" style="fill: #ff0000"/>
   </g>
   <g id="patch_48">
    <path d="M 332.126875 351.485818 
L 339.887386 351.485818 
L 339.887386 349.721331 
L 332.126875 349.721331 
z
" clip-path="url(#p5f2af8afdc)" style="fill: #0000ff"/>
   </g>
   <g id="patch_49">
    <path d="M 339.887386 351.485818 
L 347.647898 351.485818 
L 347.647898 349.481319 
L 339.887386 349.481319 
z
" clip-path="url(#p5f2af8afdc)" style="fill: #ff00ff"/>
   </g>
   <g id="matplotlib.axis_23"/>
   <g id="matplotlib.axis_24">
    <g id="ytick_23"/>
    <g id="ytick_24"/>
   </g>
  </g>
  <g id="axes_13">
   <g id="patch_50">
    <path d="M 54.43 435.463265 
L 259.3075 435.463265 
L 259.3075 382.38694 
L 54.43 382.38694 
z
" style="fill: #ffffff"/>
   </g>
   <g id="matplotlib.axis_25">
    <g id="xtick_5"/>
   </g>
   <g id="matplotlib.axis_26">
    <g id="ytick_25">
     <g id="line2d_37">
      <g>
       <use xlink:href="#m4badc92bb5" x="54.43" y="434.422553" style="stroke: #000000; stroke-width: 0.8"/>
      </g>
     </g>
     <g id="text_15">
      <!-- 0.0 -->
      <g transform="translate(31.526875 438.221771) scale(0.1 -0.1)">
       <use xlink:href="#DejaVuSans-30"/>
       <use xlink:href="#DejaVuSans-2e" transform="translate(63.623047 0)"/>
       <use xlink:href="#DejaVuSans-30" transform="translate(95.410156 0)"/>
      </g>
     </g>
    </g>
    <g id="ytick_26">
     <g id="line2d_38">
      <g>
       <use xlink:href="#m4badc92bb5" x="54.43" y="382.38694" style="stroke: #000000; stroke-width: 0.8"/>
      </g>
     </g>
     <g id="text_16">
      <!-- 0.5 -->
      <g transform="translate(31.526875 386.186159) scale(0.1 -0.1)">
       <use xlink:href="#DejaVuSans-30"/>
       <use xlink:href="#DejaVuSans-2e" transform="translate(63.623047 0)"/>
       <use xlink:href="#DejaVuSans-35" transform="translate(95.410156 0)"/>
      </g>
     </g>
    </g>
   </g>
   <g id="line2d_39">
    <path d="M -1 434.422553 
L 69.064107 434.422487 
L 71.990929 431.664573 
L 74.91775 430.054043 
L 77.844571 429.332411 
L 80.771393 429.435128 
L 83.698214 429.920291 
L 86.625036 430.036872 
L 92.478679 429.328406 
L 95.4055 429.399975 
L 98.332321 429.257071 
L 104.185964 427.630239 
L 107.112786 427.373473 
L 110.039607 427.788443 
L 112.966429 429.4072 
L 115.89325 434.420294 
L 133.454179 434.422553 
L 136.381 428.911267 
L 139.307821 424.539402 
L 142.234643 421.777397 
L 145.161464 419.918044 
L 148.088286 418.88102 
L 151.015107 418.541488 
L 156.86875 419.035842 
L 159.795571 418.472971 
L 162.722393 417.323558 
L 165.649214 416.666298 
L 168.576036 416.831959 
L 171.502857 417.648942 
L 174.429679 419.512895 
L 177.3565 421.901412 
L 183.210143 427.926044 
L 186.136964 431.339407 
L 189.063786 434.422503 
L 194.917429 434.422553 
L 197.84425 428.389921 
L 200.771071 425.942691 
L 203.697893 424.121754 
L 206.624714 423.413876 
L 209.551536 424.375577 
L 212.478357 427.565543 
L 215.405179 433.549078 
L 218.332 433.227844 
L 221.258821 427.553682 
L 224.185643 423.885706 
L 227.112464 421.472856 
L 230.039286 419.639565 
L 232.966107 418.332413 
L 238.81975 415.899976 
L 241.746571 415.031859 
L 244.673393 414.572241 
L 247.600214 413.884257 
L 256.380679 410.418599 
L 256.380679 410.418599 
" clip-path="url(#p8158323cb0)" style="fill: none; stroke: #ffcc33; stroke-width: 1.5; stroke-linecap: square"/>
   </g>
   <g id="line2d_40">
    <path d="M -1 434.422553 
L 10.527679 434.422517 
L 13.4545 429.963085 
L 16.381321 426.314461 
L 19.308143 423.897388 
L 22.234964 422.253753 
L 25.161786 421.149563 
L 28.088607 420.448282 
L 36.869071 419.061357 
L 39.795893 418.313125 
L 42.722714 417.248081 
L 51.503179 413.451045 
L 54.43 417.181416 
L 57.356821 417.751981 
L 60.283643 417.903969 
L 63.210464 417.601914 
L 66.137286 416.925789 
L 69.064107 415.939282 
L 71.990929 414.429472 
L 74.91775 413.079352 
L 77.844571 412.497241 
L 80.771393 412.775451 
L 86.625036 414.528019 
L 95.4055 416.428587 
L 98.332321 416.73008 
L 101.259143 416.421207 
L 104.185964 415.802719 
L 107.112786 415.310918 
L 110.039607 415.243104 
L 112.966429 416.131946 
L 115.89325 418.043876 
L 118.820071 418.977094 
L 121.746893 420.161462 
L 127.600536 423.041067 
L 130.527357 424.169585 
L 133.454179 424.983089 
L 136.381 426.586192 
L 139.307821 427.926045 
L 142.234643 427.624308 
L 148.088286 425.873034 
L 159.795571 423.275918 
L 162.722393 423.167506 
L 165.649214 423.828425 
L 168.576036 425.286881 
L 171.502857 427.812398 
L 174.429679 434.422197 
L 189.063786 434.42239 
L 191.990607 429.930666 
L 194.917429 427.665662 
L 197.84425 424.102981 
L 200.771071 421.91668 
L 203.697893 420.571724 
L 206.624714 420.140601 
L 209.551536 420.67599 
L 215.405179 423.860837 
L 218.332 424.463887 
L 221.258821 427.131265 
L 224.185643 431.273033 
L 227.112464 434.422553 
L 256.380679 434.422553 
L 256.380679 434.422553 
" clip-path="url(#p8158323cb0)" style="fill: none; stroke: #ff0000; stroke-width: 1.5; stroke-linecap: square"/>
   </g>
   <g id="line2d_41">
    <path d="M -1 434.422553 
L 10.527679 434.422527 
L 13.4545 433.529931 
L 16.381321 434.422553 
L 86.625036 434.422553 
L 89.551857 432.568903 
L 92.478679 430.163326 
L 95.4055 428.312658 
L 101.259143 425.216175 
L 107.112786 422.264911 
L 110.039607 418.284892 
L 112.966429 415.642896 
L 115.89325 413.965525 
L 118.820071 413.191896 
L 121.746893 413.867345 
L 124.673714 416.541098 
L 127.600536 422.739795 
L 133.454179 429.258017 
L 136.381 434.422473 
L 256.380679 434.422553 
L 256.380679 434.422553 
" clip-path="url(#p8158323cb0)" style="fill: none; stroke: #0000ff; stroke-width: 1.5; stroke-linecap: square"/>
   </g>
   <g id="line2d_42">
    <path d="M -1 434.422553 
L 107.112786 434.42255 
L 110.039607 428.277911 
L 112.966429 426.015367 
L 115.89325 424.561233 
L 118.820071 423.613742 
L 121.746893 423.650374 
L 124.673714 425.278872 
L 127.600536 431.660163 
L 130.527357 434.422553 
L 197.84425 434.422553 
L 200.771071 432.148804 
L 203.697893 427.320529 
L 206.624714 425.451921 
L 209.551536 425.099189 
L 212.478357 425.761645 
L 215.405179 427.461064 
L 218.332 430.668842 
L 221.258821 434.422553 
L 235.892929 434.422553 
L 238.81975 431.545076 
L 241.746571 429.803327 
L 244.673393 428.25972 
L 247.600214 426.886457 
L 250.527036 426.184693 
L 253.453857 426.25676 
L 256.380679 426.627833 
L 256.380679 426.627833 
" clip-path="url(#p8158323cb0)" style="fill: none; stroke: #ff00ff; stroke-width: 1.5; stroke-linecap: square"/>
   </g>
   <g id="line2d_43">
    <path d="M 54.43 434.422553 
L 259.3075 434.422553 
" clip-path="url(#p8158323cb0)" style="fill: none; stroke: #000000; stroke-width: 0.8; stroke-linecap: square"/>
   </g>
   <g id="line2d_44">
    <path d="M 33.94225 430.733243 
L 39.795893 425.343693 
L 42.722714 422.496618 
L 45.649536 419.805548 
L 48.576357 417.491582 
L 51.503179 415.648905 
L 54.43 415.267667 
L 57.356821 415.862421 
L 60.283643 416.077294 
L 63.210464 415.818665 
L 66.137286 415.196208 
L 71.990929 413.300242 
L 74.91775 412.678294 
L 77.844571 412.703731 
L 80.771393 413.400177 
L 86.625036 415.742842 
L 89.551857 416.592514 
L 92.478679 417.034474 
L 95.4055 417.129129 
L 98.332321 416.723025 
L 101.259143 415.647042 
L 107.112786 412.640419 
L 110.039607 411.60393 
L 112.966429 411.315691 
L 115.89325 411.870319 
L 118.820071 413.121925 
L 121.746893 414.92946 
L 124.673714 417.627568 
L 127.600536 421.734851 
L 130.527357 428.078071 
M 145.161464 430.539892 
L 148.088286 426.63192 
L 151.015107 425.385631 
L 156.86875 425.572922 
L 159.795571 424.136377 
L 162.722393 422.127593 
L 165.649214 420.997392 
L 168.576036 420.689391 
L 171.502857 420.788938 
L 174.429679 421.954327 
L 177.3565 424.955948 
L 180.283321 430.246292 
M 200.771071 430.128091 
L 203.697893 422.005524 
L 206.624714 418.339813 
L 209.551536 417.158552 
L 212.478357 417.878872 
L 215.405179 420.138794 
L 218.332 423.747386 
L 221.258821 428.123537 
L 224.185643 431.535651 
L 227.112464 430.630353 
L 232.966107 425.762794 
L 235.892929 422.950897 
L 238.81975 419.800555 
L 241.746571 417.294698 
L 244.673393 415.531236 
L 247.600214 413.93231 
L 250.527036 412.518717 
L 253.453857 411.465962 
L 256.380679 410.559368 
L 256.380679 410.559368 
" clip-path="url(#p8158323cb0)" style="fill: none; stroke-dasharray: 5.55,2.4; stroke-dashoffset: 0; stroke: #000000; stroke-width: 1.5"/>
   </g>
   <g id="line2d_45">
    <path d="M 142.234643 435.463265 
L 142.234643 382.38694 
" clip-path="url(#p8158323cb0)" style="fill: none; stroke: #000000; stroke-width: 0.8; stroke-linecap: square"/>
   </g>
   <g id="patch_51">
    <path d="M 54.43 434.422553 
L 54.43 382.38694 
" style="fill: none; stroke: #000000; stroke-width: 0.8; stroke-linejoin: miter; stroke-linecap: square"/>
   </g>
   <g id="text_17">
    <!-- beta -->
    <g transform="translate(143.33875 376.38694) scale(0.12 -0.12)">
     <use xlink:href="#DejaVuSans-62"/>
     <use xlink:href="#DejaVuSans-65" transform="translate(63.476562 0)"/>
     <use xlink:href="#DejaVuSans-74" transform="translate(125 0)"/>
     <use xlink:href="#DejaVuSans-61" transform="translate(164.208984 0)"/>
    </g>
   </g>
  </g>
  <g id="axes_14">
   <g id="patch_52">
    <path d="M 270.1075 435.463265 
L 304.25375 435.463265 
L 304.25375 382.38694 
L 270.1075 382.38694 
z
" style="fill: #ffffff"/>
   </g>
   <g id="patch_53">
    <path d="M 271.659602 434.422553 
L 279.420114 434.422553 
L 279.420114 431.322394 
L 271.659602 431.322394 
z
" clip-path="url(#p9b84d74eb1)" style="fill: #ffcc33"/>
   </g>
   <g id="patch_54">
    <path d="M 279.420114 434.422553 
L 287.180625 434.422553 
L 287.180625 417.758778 
L 279.420114 417.758778 
z
" clip-path="url(#p9b84d74eb1)" style="fill: #ff0000"/>
   </g>
   <g id="patch_55">
    <path d="M 287.180625 434.422553 
L 294.941136 434.422553 
L 294.941136 428.01135 
L 287.180625 428.01135 
z
" clip-path="url(#p9b84d74eb1)" style="fill: #0000ff"/>
   </g>
   <g id="patch_56">
    <path d="M 294.941136 434.422553 
L 302.701648 434.422553 
L 302.701648 432.492305 
L 294.941136 432.492305 
z
" clip-path="url(#p9b84d74eb1)" style="fill: #ff00ff"/>
   </g>
   <g id="matplotlib.axis_27"/>
   <g id="matplotlib.axis_28">
    <g id="ytick_27"/>
    <g id="ytick_28"/>
   </g>
  </g>
  <g id="axes_15">
   <g id="patch_57">
    <path d="M 315.05375 435.463265 
L 349.2 435.463265 
L 349.2 382.38694 
L 315.05375 382.38694 
z
" style="fill: #ffffff"/>
   </g>
   <g id="patch_58">
    <path d="M 316.605852 434.422553 
L 324.366364 434.422553 
L 324.366364 421.885868 
L 316.605852 421.885868 
z
" clip-path="url(#pcb015122a9)" style="fill: #ffcc33"/>
   </g>
   <g id="patch_59">
    <path d="M 324.366364 434.422553 
L 332.126875 434.422553 
L 332.126875 428.913092 
L 324.366364 428.913092 
z
" clip-path="url(#pcb015122a9)" style="fill: #ff0000"/>
   </g>
   <g id="patch_60">
    <path d="M 332.126875 434.422553 
L 339.887386 434.422553 
L 339.887386 434.422293 
L 332.126875 434.422293 
z
" clip-path="url(#pcb015122a9)" style="fill: #0000ff"/>
   </g>
   <g id="patch_61">
    <path d="M 339.887386 434.422553 
L 347.647898 434.422553 
L 347.647898 432.111551 
L 339.887386 432.111551 
z
" clip-path="url(#pcb015122a9)" style="fill: #ff00ff"/>
   </g>
   <g id="matplotlib.axis_29"/>
   <g id="matplotlib.axis_30">
    <g id="ytick_29"/>
    <g id="ytick_30"/>
   </g>
  </g>
  <g id="axes_16">
   <g id="patch_62">
    <path d="M 54.43 518.4 
L 259.3075 518.4 
L 259.3075 465.323675 
L 54.43 465.323675 
z
" style="fill: #ffffff"/>
   </g>
   <g id="matplotlib.axis_31">
    <g id="xtick_6">
     <g id="text_18">
      <!-- Pert -->
      <g transform="translate(132.308862 532.998438) scale(0.1 -0.1)">
       <use xlink:href="#DejaVuSans-50"/>
       <use xlink:href="#DejaVuSans-65" transform="translate(56.677734 0)"/>
       <use xlink:href="#DejaVuSans-72" transform="translate(118.201172 0)"/>
       <use xlink:href="#DejaVuSans-74" transform="translate(159.314453 0)"/>
      </g>
     </g>
    </g>
   </g>
   <g id="matplotlib.axis_32">
    <g id="ytick_31">
     <g id="line2d_46">
      <g>
       <use xlink:href="#m4badc92bb5" x="54.43" y="517.359288" style="stroke: #000000; stroke-width: 0.8"/>
      </g>
     </g>
     <g id="text_19">
      <!-- 0.0 -->
      <g transform="translate(31.526875 521.158507) scale(0.1 -0.1)">
       <use xlink:href="#DejaVuSans-30"/>
       <use xlink:href="#DejaVuSans-2e" transform="translate(63.623047 0)"/>
       <use xlink:href="#DejaVuSans-30" transform="translate(95.410156 0)"/>
      </g>
     </g>
    </g>
    <g id="ytick_32">
     <g id="line2d_47">
      <g>
       <use xlink:href="#m4badc92bb5" x="54.43" y="465.323675" style="stroke: #000000; stroke-width: 0.8"/>
      </g>
     </g>
     <g id="text_20">
      <!-- 0.5 -->
      <g transform="translate(31.526875 469.122894) scale(0.1 -0.1)">
       <use xlink:href="#DejaVuSans-30"/>
       <use xlink:href="#DejaVuSans-2e" transform="translate(63.623047 0)"/>
       <use xlink:href="#DejaVuSans-35" transform="translate(95.410156 0)"/>
      </g>
     </g>
    </g>
   </g>
   <g id="line2d_48">
    <path d="M -1 517.359288 
L 69.064107 517.359288 
L 71.990929 515.294961 
L 74.91775 512.996373 
L 77.844571 511.606122 
L 80.771393 511.505669 
L 83.698214 517.359288 
L 89.551857 517.359288 
L 92.478679 515.468789 
L 95.4055 508.767349 
L 98.332321 505.296885 
L 101.259143 503.172953 
L 104.185964 503.565643 
L 107.112786 506.642255 
L 112.966429 512.018997 
L 115.89325 517.359238 
L 127.600536 517.359288 
L 130.527357 512.387841 
L 133.454179 514.94737 
L 136.381 517.359288 
L 142.234643 517.359236 
L 145.161464 513.255411 
L 148.088286 515.75478 
L 151.015107 513.710371 
L 153.941929 512.211136 
L 156.86875 510.578601 
L 159.795571 507.98067 
L 162.722393 506.161954 
L 165.649214 508.051127 
L 168.576036 517.359212 
L 177.3565 517.359288 
L 180.283321 516.923984 
L 183.210143 514.687889 
L 186.136964 510.65258 
L 189.063786 510.449934 
L 191.990607 509.851718 
L 194.917429 508.178309 
L 197.84425 508.462617 
L 200.771071 507.548696 
L 203.697893 508.672406 
L 206.624714 510.249039 
L 209.551536 511.270745 
L 212.478357 513.697893 
L 215.405179 517.356319 
L 227.112464 517.359287 
L 230.039286 514.776961 
L 235.892929 504.69143 
L 238.81975 502.390509 
L 241.746571 505.008283 
L 244.673393 506.555434 
L 247.600214 505.049589 
L 250.527036 501.903648 
L 256.380679 496.964883 
L 256.380679 496.964883 
" clip-path="url(#pc7dd9f2091)" style="fill: none; stroke: #ffcc33; stroke-width: 1.5; stroke-linecap: square"/>
   </g>
   <g id="line2d_49">
    <path d="M -1 513.212171 
L 1.747214 511.993231 
L 4.674036 511.010497 
L 7.600857 508.116188 
L 10.527679 505.053881 
L 13.4545 503.707986 
L 16.381321 504.712926 
L 19.308143 506.670516 
L 25.161786 506.308338 
L 28.088607 507.715007 
L 31.015429 510.073488 
L 33.94225 510.140106 
L 36.869071 508.835799 
L 39.795893 508.579873 
L 42.722714 509.707029 
L 45.649536 514.083896 
L 48.576357 517.359288 
L 71.990929 517.359225 
L 74.91775 516.064811 
L 77.844571 514.275295 
L 80.771393 513.541549 
L 83.698214 517.35924 
L 133.454179 517.359288 
L 136.381 513.39678 
L 139.307821 513.274129 
L 142.234643 517.359287 
L 148.088286 517.359287 
L 151.015107 515.412892 
L 153.941929 515.308097 
L 156.86875 517.35348 
L 162.722393 517.359288 
L 165.649214 514.52908 
L 168.576036 507.76052 
L 171.502857 506.626958 
L 174.429679 506.371581 
L 177.3565 506.349057 
L 180.283321 508.85423 
L 183.210143 516.269375 
L 186.136964 517.359249 
L 189.063786 517.359288 
L 194.917429 511.128871 
L 197.84425 511.783358 
L 200.771071 510.90894 
L 203.697893 512.394034 
L 206.624714 514.121508 
L 209.551536 517.358521 
L 218.332 517.355364 
L 221.258821 515.785667 
L 224.185643 517.356656 
L 232.966107 517.359288 
L 235.892929 511.49932 
L 238.81975 510.343794 
L 241.746571 514.571242 
L 244.673393 517.359269 
L 253.453857 517.357823 
L 256.380679 514.197944 
L 256.380679 514.197944 
" clip-path="url(#pc7dd9f2091)" style="fill: none; stroke: #ff0000; stroke-width: 1.5; stroke-linecap: square"/>
   </g>
   <g id="line2d_50">
    <path d="M -1 517.16859 
L 1.747214 514.251741 
L 4.674036 507.972543 
L 7.600857 507.10269 
L 10.527679 507.626865 
L 13.4545 507.731798 
L 16.381321 507.47814 
L 19.308143 507.940918 
L 22.234964 509.783165 
L 25.161786 517.359288 
L 112.966429 517.359288 
L 115.89325 511.162857 
L 118.820071 504.597981 
L 121.746893 502.490562 
L 124.673714 508.039474 
L 127.600536 510.762372 
L 130.527357 517.359288 
L 148.088286 517.359288 
L 151.015107 514.516897 
L 156.86875 507.241704 
L 159.795571 505.411294 
L 162.722393 504.783427 
L 165.649214 510.709708 
L 168.576036 517.359288 
L 171.502857 517.359288 
L 174.429679 516.272992 
L 177.3565 512.589811 
L 180.283321 517.359282 
L 183.210143 517.359288 
L 186.136964 517.08338 
L 189.063786 517.359288 
L 206.624714 517.351103 
L 209.551536 515.10181 
L 212.478357 517.350028 
L 256.380679 517.359288 
L 256.380679 517.359288 
" clip-path="url(#pc7dd9f2091)" style="fill: none; stroke: #0000ff; stroke-width: 1.5; stroke-linecap: square"/>
   </g>
   <g id="line2d_51">
    <path d="M -1 505.884515 
L 1.747214 508.7704 
L 4.674036 512.088885 
L 7.600857 508.914678 
L 10.527679 508.369049 
L 13.4545 511.670986 
L 16.381321 517.359126 
L 22.234964 517.359279 
L 25.161786 512.915401 
L 28.088607 513.404501 
L 31.015429 513.177681 
L 33.94225 514.219018 
L 36.869071 517.359219 
L 54.43 517.359288 
L 57.356821 515.981718 
L 60.283643 509.414318 
L 63.210464 509.873189 
L 66.137286 517.359288 
L 69.064107 517.359288 
L 71.990929 514.739523 
L 74.91775 515.213147 
L 77.844571 517.344293 
L 95.4055 517.359288 
L 98.332321 512.852845 
L 101.259143 513.527805 
L 104.185964 517.359235 
L 110.039607 517.359288 
L 112.966429 511.933669 
L 115.89325 508.461077 
L 118.820071 503.661407 
L 121.746893 504.615549 
L 124.673714 514.749881 
L 127.600536 517.359284 
L 130.527357 507.986675 
L 133.454179 506.835992 
L 136.381 508.849078 
L 139.307821 511.179141 
L 142.234643 517.359288 
L 151.015107 517.359062 
L 153.941929 513.7163 
L 156.86875 517.354419 
L 165.649214 517.334103 
L 168.576036 509.389568 
L 171.502857 509.935922 
L 174.429679 517.359288 
L 177.3565 517.359288 
L 180.283321 516.944576 
L 183.210143 517.359187 
L 191.990607 517.359288 
L 194.917429 514.539519 
L 197.84425 513.948977 
L 200.771071 517.359288 
L 203.697893 517.359288 
L 206.624714 510.526502 
L 209.551536 507.903614 
L 212.478357 508.718768 
L 215.405179 509.272662 
L 218.332 507.815036 
L 221.258821 508.030573 
L 224.185643 510.522189 
L 227.112464 517.359288 
L 247.600214 517.359288 
L 250.527036 513.596052 
L 253.453857 514.61222 
L 256.380679 517.359285 
L 256.380679 517.359285 
" clip-path="url(#pc7dd9f2091)" style="fill: none; stroke: #ff00ff; stroke-width: 1.5; stroke-linecap: square"/>
   </g>
   <g id="line2d_52">
    <path d="M 54.43 517.359288 
L 259.3075 517.359288 
" clip-path="url(#pc7dd9f2091)" style="fill: none; stroke: #000000; stroke-width: 0.8; stroke-linecap: square"/>
   </g>
   <g id="line2d_53">
    <path d="M 4.674036 510.420496 
L 7.600857 503.836246 
L 10.527679 500.685261 
L 13.4545 501.17001 
L 16.381321 504.781918 
L 19.308143 509.335718 
L 22.234964 510.417334 
L 25.161786 512.594858 
L 28.088607 515.840862 
M 74.91775 513.125894 
L 77.844571 505.317969 
L 80.771393 501.894368 
L 83.698214 504.194786 
L 86.625036 509.189675 
M 101.259143 508.037372 
L 104.185964 504.089921 
L 107.112786 505.134122 
L 110.039607 510.837984 
M 118.820071 507.688412 
L 121.746893 502.57887 
L 124.673714 503.622411 
L 127.600536 509.598106 
L 130.527357 508.969726 
L 133.454179 513.595536 
M 151.015107 511.164437 
L 153.941929 509.139834 
L 156.86875 509.128168 
L 159.795571 507.42794 
L 162.722393 505.951534 
L 165.649214 507.294333 
L 168.576036 502.519747 
L 171.502857 500.213535 
L 174.429679 504.122524 
L 177.3565 511.868339 
M 183.210143 508.023159 
L 186.136964 501.261343 
L 189.063786 500.612821 
L 194.917429 514.174101 
L 197.84425 513.45105 
L 200.771071 513.4 
L 203.697893 510.469365 
L 206.624714 503.917558 
L 209.551536 503.684439 
L 212.478357 511.025433 
M 235.892929 507.538006 
L 238.81975 503.815276 
L 241.746571 507.131436 
L 244.673393 509.297172 
L 247.600214 509.519314 
L 250.527036 505.976603 
L 253.453857 502.751365 
L 256.380679 499.779329 
L 256.380679 499.779329 
" clip-path="url(#pc7dd9f2091)" style="fill: none; stroke-dasharray: 5.55,2.4; stroke-dashoffset: 0; stroke: #000000; stroke-width: 1.5"/>
   </g>
   <g id="line2d_54">
    <path d="M 142.234643 518.4 
L 142.234643 465.323675 
" clip-path="url(#pc7dd9f2091)" style="fill: none; stroke: #000000; stroke-width: 0.8; stroke-linecap: square"/>
   </g>
   <g id="patch_63">
    <path d="M 54.43 517.359288 
L 54.43 465.323675 
" style="fill: none; stroke: #000000; stroke-width: 0.8; stroke-linejoin: miter; stroke-linecap: square"/>
   </g>
   <g id="text_21">
    <!-- gamma -->
    <g transform="translate(134.017187 459.323675) scale(0.12 -0.12)">
     <defs>
      <path id="DejaVuSans-67" d="M 2906 1791 
Q 2906 2416 2648 2759 
Q 2391 3103 1925 3103 
Q 1463 3103 1205 2759 
Q 947 2416 947 1791 
Q 947 1169 1205 825 
Q 1463 481 1925 481 
Q 2391 481 2648 825 
Q 2906 1169 2906 1791 
z
M 3481 434 
Q 3481 -459 3084 -895 
Q 2688 -1331 1869 -1331 
Q 1566 -1331 1297 -1286 
Q 1028 -1241 775 -1147 
L 775 -588 
Q 1028 -725 1275 -790 
Q 1522 -856 1778 -856 
Q 2344 -856 2625 -561 
Q 2906 -266 2906 331 
L 2906 616 
Q 2728 306 2450 153 
Q 2172 0 1784 0 
Q 1141 0 747 490 
Q 353 981 353 1791 
Q 353 2603 747 3093 
Q 1141 3584 1784 3584 
Q 2172 3584 2450 3431 
Q 2728 3278 2906 2969 
L 2906 3500 
L 3481 3500 
L 3481 434 
z
" transform="scale(0.015625)"/>
      <path id="DejaVuSans-6d" d="M 3328 2828 
Q 3544 3216 3844 3400 
Q 4144 3584 4550 3584 
Q 5097 3584 5394 3201 
Q 5691 2819 5691 2113 
L 5691 0 
L 5113 0 
L 5113 2094 
Q 5113 2597 4934 2840 
Q 4756 3084 4391 3084 
Q 3944 3084 3684 2787 
Q 3425 2491 3425 1978 
L 3425 0 
L 2847 0 
L 2847 2094 
Q 2847 2600 2669 2842 
Q 2491 3084 2119 3084 
Q 1678 3084 1418 2786 
Q 1159 2488 1159 1978 
L 1159 0 
L 581 0 
L 581 3500 
L 1159 3500 
L 1159 2956 
Q 1356 3278 1631 3431 
Q 1906 3584 2284 3584 
Q 2666 3584 2933 3390 
Q 3200 3197 3328 2828 
z
" transform="scale(0.015625)"/>
     </defs>
     <use xlink:href="#DejaVuSans-67"/>
     <use xlink:href="#DejaVuSans-61" transform="translate(63.476562 0)"/>
     <use xlink:href="#DejaVuSans-6d" transform="translate(124.755859 0)"/>
     <use xlink:href="#DejaVuSans-6d" transform="translate(222.167969 0)"/>
     <use xlink:href="#DejaVuSans-61" transform="translate(319.580078 0)"/>
    </g>
   </g>
  </g>
  <g id="axes_17">
   <g id="patch_64">
    <path d="M 270.1075 518.4 
L 304.25375 518.4 
L 304.25375 465.323675 
L 270.1075 465.323675 
z
" style="fill: #ffffff"/>
   </g>
   <g id="patch_65">
    <path d="M 271.659602 517.359288 
L 279.420114 517.359288 
L 279.420114 514.027318 
L 271.659602 514.027318 
z
" clip-path="url(#p25961dbbb2)" style="fill: #ffcc33"/>
   </g>
   <g id="patch_66">
    <path d="M 279.420114 517.359288 
L 287.180625 517.359288 
L 287.180625 516.817705 
L 279.420114 516.817705 
z
" clip-path="url(#p25961dbbb2)" style="fill: #ff0000"/>
   </g>
   <g id="patch_67">
    <path d="M 287.180625 517.359288 
L 294.941136 517.359288 
L 294.941136 515.700994 
L 287.180625 515.700994 
z
" clip-path="url(#p25961dbbb2)" style="fill: #0000ff"/>
   </g>
   <g id="patch_68">
    <path d="M 294.941136 517.359288 
L 302.701648 517.359288 
L 302.701648 513.762977 
L 294.941136 513.762977 
z
" clip-path="url(#p25961dbbb2)" style="fill: #ff00ff"/>
   </g>
   <g id="matplotlib.axis_33"/>
   <g id="matplotlib.axis_34">
    <g id="ytick_33"/>
    <g id="ytick_34"/>
   </g>
  </g>
  <g id="axes_18">
   <g id="patch_69">
    <path d="M 315.05375 518.4 
L 349.2 518.4 
L 349.2 465.323675 
L 315.05375 465.323675 
z
" style="fill: #ffffff"/>
   </g>
   <g id="patch_70">
    <path d="M 316.605852 517.359288 
L 324.366364 517.359288 
L 324.366364 510.958844 
L 316.605852 510.958844 
z
" clip-path="url(#p9bdb501784)" style="fill: #ffcc33"/>
   </g>
   <g id="patch_71">
    <path d="M 324.366364 517.359288 
L 332.126875 517.359288 
L 332.126875 514.640061 
L 324.366364 514.640061 
z
" clip-path="url(#p9bdb501784)" style="fill: #ff0000"/>
   </g>
   <g id="patch_72">
    <path d="M 332.126875 517.359288 
L 339.887386 517.359288 
L 339.887386 515.882845 
L 332.126875 515.882845 
z
" clip-path="url(#p9bdb501784)" style="fill: #0000ff"/>
   </g>
   <g id="patch_73">
    <path d="M 339.887386 517.359288 
L 347.647898 517.359288 
L 347.647898 515.085554 
L 339.887386 515.085554 
z
" clip-path="url(#p9bdb501784)" style="fill: #ff00ff"/>
   </g>
   <g id="matplotlib.axis_35"/>
   <g id="matplotlib.axis_36">
    <g id="ytick_35"/>
    <g id="ytick_36"/>
   </g>
  </g>
  <g id="text_22">
   <!-- variance (a.u.) -->
   <g transform="translate(14.798438 324.428125) rotate(-90) scale(0.1 -0.1)">
    <defs>
     <path id="DejaVuSans-76" d="M 191 3500 
L 800 3500 
L 1894 563 
L 2988 3500 
L 3597 3500 
L 2284 0 
L 1503 0 
L 191 3500 
z
" transform="scale(0.015625)"/>
     <path id="DejaVuSans-69" d="M 603 3500 
L 1178 3500 
L 1178 0 
L 603 0 
L 603 3500 
z
M 603 4863 
L 1178 4863 
L 1178 4134 
L 603 4134 
L 603 4863 
z
" transform="scale(0.015625)"/>
     <path id="DejaVuSans-6e" d="M 3513 2113 
L 3513 0 
L 2938 0 
L 2938 2094 
Q 2938 2591 2744 2837 
Q 2550 3084 2163 3084 
Q 1697 3084 1428 2787 
Q 1159 2491 1159 1978 
L 1159 0 
L 581 0 
L 581 3500 
L 1159 3500 
L 1159 2956 
Q 1366 3272 1645 3428 
Q 1925 3584 2291 3584 
Q 2894 3584 3203 3211 
Q 3513 2838 3513 2113 
z
" transform="scale(0.015625)"/>
     <path id="DejaVuSans-63" d="M 3122 3366 
L 3122 2828 
Q 2878 2963 2633 3030 
Q 2388 3097 2138 3097 
Q 1578 3097 1268 2742 
Q 959 2388 959 1747 
Q 959 1106 1268 751 
Q 1578 397 2138 397 
Q 2388 397 2633 464 
Q 2878 531 3122 666 
L 3122 134 
Q 2881 22 2623 -34 
Q 2366 -91 2075 -91 
Q 1284 -91 818 406 
Q 353 903 353 1747 
Q 353 2603 823 3093 
Q 1294 3584 2113 3584 
Q 2378 3584 2631 3529 
Q 2884 3475 3122 3366 
z
" transform="scale(0.015625)"/>
     <path id="DejaVuSans-20" transform="scale(0.015625)"/>
     <path id="DejaVuSans-28" d="M 1984 4856 
Q 1566 4138 1362 3434 
Q 1159 2731 1159 2009 
Q 1159 1288 1364 580 
Q 1569 -128 1984 -844 
L 1484 -844 
Q 1016 -109 783 600 
Q 550 1309 550 2009 
Q 550 2706 781 3412 
Q 1013 4119 1484 4856 
L 1984 4856 
z
" transform="scale(0.015625)"/>
     <path id="DejaVuSans-75" d="M 544 1381 
L 544 3500 
L 1119 3500 
L 1119 1403 
Q 1119 906 1312 657 
Q 1506 409 1894 409 
Q 2359 409 2629 706 
Q 2900 1003 2900 1516 
L 2900 3500 
L 3475 3500 
L 3475 0 
L 2900 0 
L 2900 538 
Q 2691 219 2414 64 
Q 2138 -91 1772 -91 
Q 1169 -91 856 284 
Q 544 659 544 1381 
z
M 1991 3584 
L 1991 3584 
z
" transform="scale(0.015625)"/>
     <path id="DejaVuSans-29" d="M 513 4856 
L 1013 4856 
Q 1481 4119 1714 3412 
Q 1947 2706 1947 2009 
Q 1947 1309 1714 600 
Q 1481 -109 1013 -844 
L 513 -844 
Q 928 -128 1133 580 
Q 1338 1288 1338 2009 
Q 1338 2731 1133 3434 
Q 928 4138 513 4856 
z
" transform="scale(0.015625)"/>
    </defs>
    <use xlink:href="#DejaVuSans-76"/>
    <use xlink:href="#DejaVuSans-61" transform="translate(59.179688 0)"/>
    <use xlink:href="#DejaVuSans-72" transform="translate(120.458984 0)"/>
    <use xlink:href="#DejaVuSans-69" transform="translate(161.572266 0)"/>
    <use xlink:href="#DejaVuSans-61" transform="translate(189.355469 0)"/>
    <use xlink:href="#DejaVuSans-6e" transform="translate(250.634766 0)"/>
    <use xlink:href="#DejaVuSans-63" transform="translate(314.013672 0)"/>
    <use xlink:href="#DejaVuSans-65" transform="translate(368.994141 0)"/>
    <use xlink:href="#DejaVuSans-20" transform="translate(430.517578 0)"/>
    <use xlink:href="#DejaVuSans-28" transform="translate(462.304688 0)"/>
    <use xlink:href="#DejaVuSans-61" transform="translate(501.318359 0)"/>
    <use xlink:href="#DejaVuSans-2e" transform="translate(562.597656 0)"/>
    <use xlink:href="#DejaVuSans-75" transform="translate(594.384766 0)"/>
    <use xlink:href="#DejaVuSans-2e" transform="translate(657.763672 0)"/>
    <use xlink:href="#DejaVuSans-29" transform="translate(689.550781 0)"/>
   </g>
  </g>
  <g id="text_23">
   <!-- Variance explained by component model (Monkey P, PMd) -->
   <g transform="translate(5.521875 20.638125) scale(0.12 -0.12)">
    <defs>
     <path id="DejaVuSans-56" d="M 1831 0 
L 50 4666 
L 709 4666 
L 2188 738 
L 3669 4666 
L 4325 4666 
L 2547 0 
L 1831 0 
z
" transform="scale(0.015625)"/>
     <path id="DejaVuSans-78" d="M 3513 3500 
L 2247 1797 
L 3578 0 
L 2900 0 
L 1881 1375 
L 863 0 
L 184 0 
L 1544 1831 
L 300 3500 
L 978 3500 
L 1906 2253 
L 2834 3500 
L 3513 3500 
z
" transform="scale(0.015625)"/>
     <path id="DejaVuSans-79" d="M 2059 -325 
Q 1816 -950 1584 -1140 
Q 1353 -1331 966 -1331 
L 506 -1331 
L 506 -850 
L 844 -850 
Q 1081 -850 1212 -737 
Q 1344 -625 1503 -206 
L 1606 56 
L 191 3500 
L 800 3500 
L 1894 763 
L 2988 3500 
L 3597 3500 
L 2059 -325 
z
" transform="scale(0.015625)"/>
     <path id="DejaVuSans-4d" d="M 628 4666 
L 1569 4666 
L 2759 1491 
L 3956 4666 
L 4897 4666 
L 4897 0 
L 4281 0 
L 4281 4097 
L 3078 897 
L 2444 897 
L 1241 4097 
L 1241 0 
L 628 0 
L 628 4666 
z
" transform="scale(0.015625)"/>
     <path id="DejaVuSans-6b" d="M 581 4863 
L 1159 4863 
L 1159 1991 
L 2875 3500 
L 3609 3500 
L 1753 1863 
L 3688 0 
L 2938 0 
L 1159 1709 
L 1159 0 
L 581 0 
L 581 4863 
z
" transform="scale(0.015625)"/>
     <path id="DejaVuSans-2c" d="M 750 794 
L 1409 794 
L 1409 256 
L 897 -744 
L 494 -744 
L 750 256 
L 750 794 
z
" transform="scale(0.015625)"/>
    </defs>
    <use xlink:href="#DejaVuSans-56"/>
    <use xlink:href="#DejaVuSans-61" transform="translate(60.658203 0)"/>
    <use xlink:href="#DejaVuSans-72" transform="translate(121.9375 0)"/>
    <use xlink:href="#DejaVuSans-69" transform="translate(163.050781 0)"/>
    <use xlink:href="#DejaVuSans-61" transform="translate(190.833984 0)"/>
    <use xlink:href="#DejaVuSans-6e" transform="translate(252.113281 0)"/>
    <use xlink:href="#DejaVuSans-63" transform="translate(315.492188 0)"/>
    <use xlink:href="#DejaVuSans-65" transform="translate(370.472656 0)"/>
    <use xlink:href="#DejaVuSans-20" transform="translate(431.996094 0)"/>
    <use xlink:href="#DejaVuSans-65" transform="translate(463.783203 0)"/>
    <use xlink:href="#DejaVuSans-78" transform="translate(523.556641 0)"/>
    <use xlink:href="#DejaVuSans-70" transform="translate(582.736328 0)"/>
    <use xlink:href="#DejaVuSans-6c" transform="translate(646.212891 0)"/>
    <use xlink:href="#DejaVuSans-61" transform="translate(673.996094 0)"/>
    <use xlink:href="#DejaVuSans-69" transform="translate(735.275391 0)"/>
    <use xlink:href="#DejaVuSans-6e" transform="translate(763.058594 0)"/>
    <use xlink:href="#DejaVuSans-65" transform="translate(826.4375 0)"/>
    <use xlink:href="#DejaVuSans-64" transform="translate(887.960938 0)"/>
    <use xlink:href="#DejaVuSans-20" transform="translate(951.4375 0)"/>
    <use xlink:href="#DejaVuSans-62" transform="translate(983.224609 0)"/>
    <use xlink:href="#DejaVuSans-79" transform="translate(1046.701172 0)"/>
    <use xlink:href="#DejaVuSans-20" transform="translate(1105.880859 0)"/>
    <use xlink:href="#DejaVuSans-63" transform="translate(1137.667969 0)"/>
    <use xlink:href="#DejaVuSans-6f" transform="translate(1192.648438 0)"/>
    <use xlink:href="#DejaVuSans-6d" transform="translate(1253.830078 0)"/>
    <use xlink:href="#DejaVuSans-70" transform="translate(1351.242188 0)"/>
    <use xlink:href="#DejaVuSans-6f" transform="translate(1414.71875 0)"/>
    <use xlink:href="#DejaVuSans-6e" transform="translate(1475.900391 0)"/>
    <use xlink:href="#DejaVuSans-65" transform="translate(1539.279297 0)"/>
    <use xlink:href="#DejaVuSans-6e" transform="translate(1600.802734 0)"/>
    <use xlink:href="#DejaVuSans-74" transform="translate(1664.181641 0)"/>
    <use xlink:href="#DejaVuSans-20" transform="translate(1703.390625 0)"/>
    <use xlink:href="#DejaVuSans-6d" transform="translate(1735.177734 0)"/>
    <use xlink:href="#DejaVuSans-6f" transform="translate(1832.589844 0)"/>
    <use xlink:href="#DejaVuSans-64" transform="translate(1893.771484 0)"/>
    <use xlink:href="#DejaVuSans-65" transform="translate(1957.248047 0)"/>
    <use xlink:href="#DejaVuSans-6c" transform="translate(2018.771484 0)"/>
    <use xlink:href="#DejaVuSans-20" transform="translate(2046.554688 0)"/>
    <use xlink:href="#DejaVuSans-28" transform="translate(2078.341797 0)"/>
    <use xlink:href="#DejaVuSans-4d" transform="translate(2117.355469 0)"/>
    <use xlink:href="#DejaVuSans-6f" transform="translate(2203.634766 0)"/>
    <use xlink:href="#DejaVuSans-6e" transform="translate(2264.816406 0)"/>
    <use xlink:href="#DejaVuSans-6b" transform="translate(2328.195312 0)"/>
    <use xlink:href="#DejaVuSans-65" transform="translate(2382.480469 0)"/>
    <use xlink:href="#DejaVuSans-79" transform="translate(2444.003906 0)"/>
    <use xlink:href="#DejaVuSans-20" transform="translate(2503.183594 0)"/>
    <use xlink:href="#DejaVuSans-50" transform="translate(2534.970703 0)"/>
    <use xlink:href="#DejaVuSans-2c" transform="translate(2595.273438 0)"/>
    <use xlink:href="#DejaVuSans-20" transform="translate(2627.060547 0)"/>
    <use xlink:href="#DejaVuSans-50" transform="translate(2658.847656 0)"/>
    <use xlink:href="#DejaVuSans-4d" transform="translate(2719.150391 0)"/>
    <use xlink:href="#DejaVuSans-64" transform="translate(2805.429688 0)"/>
    <use xlink:href="#DejaVuSans-29" transform="translate(2868.90625 0)"/>
   </g>
  </g>
  <g id="legend_1">
   <g id="line2d_55">
    <path d="M 205.479844 549.667969 
L 214.479844 549.667969 
L 223.479844 549.667969 
" style="fill: none; stroke: #ffcc33; stroke-width: 1.5; stroke-linecap: square"/>
   </g>
   <g id="text_24">
    <!-- finger -->
    <g transform="translate(230.679844 552.817969) scale(0.09 -0.09)">
     <defs>
      <path id="DejaVuSans-66" d="M 2375 4863 
L 2375 4384 
L 1825 4384 
Q 1516 4384 1395 4259 
Q 1275 4134 1275 3809 
L 1275 3500 
L 2222 3500 
L 2222 3053 
L 1275 3053 
L 1275 0 
L 697 0 
L 697 3053 
L 147 3053 
L 147 3500 
L 697 3500 
L 697 3744 
Q 697 4328 969 4595 
Q 1241 4863 1831 4863 
L 2375 4863 
z
" transform="scale(0.015625)"/>
     </defs>
     <use xlink:href="#DejaVuSans-66"/>
     <use xlink:href="#DejaVuSans-69" transform="translate(35.205078 0)"/>
     <use xlink:href="#DejaVuSans-6e" transform="translate(62.988281 0)"/>
     <use xlink:href="#DejaVuSans-67" transform="translate(126.367188 0)"/>
     <use xlink:href="#DejaVuSans-65" transform="translate(189.84375 0)"/>
     <use xlink:href="#DejaVuSans-72" transform="translate(251.367188 0)"/>
    </g>
   </g>
   <g id="line2d_56">
    <path d="M 205.479844 562.878281 
L 214.479844 562.878281 
L 223.479844 562.878281 
" style="fill: none; stroke: #ff0000; stroke-width: 1.5; stroke-linecap: square"/>
   </g>
   <g id="text_25">
    <!-- cue -->
    <g transform="translate(230.679844 566.028281) scale(0.09 -0.09)">
     <use xlink:href="#DejaVuSans-63"/>
     <use xlink:href="#DejaVuSans-75" transform="translate(54.980469 0)"/>
     <use xlink:href="#DejaVuSans-65" transform="translate(118.359375 0)"/>
    </g>
   </g>
   <g id="line2d_57">
    <path d="M 275.003438 549.667969 
L 284.003438 549.667969 
L 293.003438 549.667969 
" style="fill: none; stroke: #0000ff; stroke-width: 1.5; stroke-linecap: square"/>
   </g>
   <g id="text_26">
    <!-- uncertainty -->
    <g transform="translate(300.203438 552.817969) scale(0.09 -0.09)">
     <use xlink:href="#DejaVuSans-75"/>
     <use xlink:href="#DejaVuSans-6e" transform="translate(63.378906 0)"/>
     <use xlink:href="#DejaVuSans-63" transform="translate(126.757812 0)"/>
     <use xlink:href="#DejaVuSans-65" transform="translate(181.738281 0)"/>
     <use xlink:href="#DejaVuSans-72" transform="translate(243.261719 0)"/>
     <use xlink:href="#DejaVuSans-74" transform="translate(284.375 0)"/>
     <use xlink:href="#DejaVuSans-61" transform="translate(323.583984 0)"/>
     <use xlink:href="#DejaVuSans-69" transform="translate(384.863281 0)"/>
     <use xlink:href="#DejaVuSans-6e" transform="translate(412.646484 0)"/>
     <use xlink:href="#DejaVuSans-74" transform="translate(476.025391 0)"/>
     <use xlink:href="#DejaVuSans-79" transform="translate(515.234375 0)"/>
    </g>
   </g>
   <g id="line2d_58">
    <path d="M 275.003438 562.878281 
L 284.003438 562.878281 
L 293.003438 562.878281 
" style="fill: none; stroke: #ff00ff; stroke-width: 1.5; stroke-linecap: square"/>
   </g>
   <g id="text_27">
    <!-- surprise -->
    <g transform="translate(300.203438 566.028281) scale(0.09 -0.09)">
     <use xlink:href="#DejaVuSans-73"/>
     <use xlink:href="#DejaVuSans-75" transform="translate(52.099609 0)"/>
     <use xlink:href="#DejaVuSans-72" transform="translate(115.478516 0)"/>
     <use xlink:href="#DejaVuSans-70" transform="translate(156.591797 0)"/>
     <use xlink:href="#DejaVuSans-72" transform="translate(220.068359 0)"/>
     <use xlink:href="#DejaVuSans-69" transform="translate(261.181641 0)"/>
     <use xlink:href="#DejaVuSans-73" transform="translate(288.964844 0)"/>
     <use xlink:href="#DejaVuSans-65" transform="translate(341.064453 0)"/>
    </g>
   </g>
  </g>
 </g>
 <defs>
  <clipPath id="pbb496b1a2a">
   <rect x="54.43" y="50.64" width="204.8775" height="53.076325"/>
  </clipPath>
  <clipPath id="pebbbbea029">
   <rect x="270.1075" y="50.64" width="34.14625" height="53.076325"/>
  </clipPath>
  <clipPath id="p564090e1c6">
   <rect x="315.05375" y="50.64" width="34.14625" height="53.076325"/>
  </clipPath>
  <clipPath id="p2f80d25094">
   <rect x="54.43" y="133.576735" width="204.8775" height="53.076325"/>
  </clipPath>
  <clipPath id="p8ac011fc68">
   <rect x="270.1075" y="133.576735" width="34.14625" height="53.076325"/>
  </clipPath>
  <clipPath id="pe6a00458f8">
   <rect x="315.05375" y="133.576735" width="34.14625" height="53.076325"/>
  </clipPath>
  <clipPath id="p1147827958">
   <rect x="54.43" y="216.51347" width="204.8775" height="53.076325"/>
  </clipPath>
  <clipPath id="pdf91866ab7">
   <rect x="270.1075" y="216.51347" width="34.14625" height="53.076325"/>
  </clipPath>
  <clipPath id="p5a2c8bcb7f">
   <rect x="315.05375" y="216.51347" width="34.14625" height="53.076325"/>
  </clipPath>
  <clipPath id="p102d815d88">
   <rect x="54.43" y="299.450205" width="204.8775" height="53.076325"/>
  </clipPath>
  <clipPath id="p091c5f8265">
   <rect x="270.1075" y="299.450205" width="34.14625" height="53.076325"/>
  </clipPath>
  <clipPath id="p5f2af8afdc">
   <rect x="315.05375" y="299.450205" width="34.14625" height="53.076325"/>
  </clipPath>
  <clipPath id="p8158323cb0">
   <rect x="54.43" y="382.38694" width="204.8775" height="53.076325"/>
  </clipPath>
  <clipPath id="p9b84d74eb1">
   <rect x="270.1075" y="382.38694" width="34.14625" height="53.076325"/>
  </clipPath>
  <clipPath id="pcb015122a9">
   <rect x="315.05375" y="382.38694" width="34.14625" height="53.076325"/>
  </clipPath>
  <clipPath id="pc7dd9f2091">
   <rect x="54.43" y="465.323675" width="204.8775" height="53.076325"/>
  </clipPath>
  <clipPath id="p25961dbbb2">
   <rect x="270.1075" y="465.323675" width="34.14625" height="53.076325"/>
  </clipPath>
  <clipPath id="p9bdb501784">
   <rect x="315.05375" y="465.323675" width="34.14625" height="53.076325"/>
  </clipPath>
 </defs>
</svg>
