<?xml version="1.0" encoding="utf-8" standalone="no"?>
<!DOCTYPE svg PUBLIC "-//W3C//DTD SVG 1.1//EN"
  "http://www.w3.org/Graphics/SVG/1.1/DTD/svg11.dtd">
<svg xmlns:xlink="http://www.w3.org/1999/xlink" width="360pt" height="576pt" viewBox="0 0 360 576" xmlns="http://www.w3.org/2000/svg" version="1.1">
 <metadata>
  <rdf:RDF xmlns:dc="http://purl.org/dc/elements/1.1/" xmlns:cc="http://creativecommons.org/ns#" xmlns:rdf="http://www.w3.org/1999/02/22-rdf-syntax-ns#">
   <cc:Work>
    <dc:type rdf:resource="http://purl.org/dc/dcmitype/StillImage"/>
    <dc:date>2025-07-17T11:53:42.648331</dc:date>
    <dc:format>image/svg+xml</dc:format>
    <dc:creator>
     <cc:Agent>
      <dc:title>Matplotlib v3.10.1, https://matplotlib.org/</dc:title>
     </cc:Agent>
    </dc:creator>
   </cc:Work>
  </rdf:RDF>
 </metadata>
 <defs>
  <style type="text/css">*{stroke-linejoin: round; stroke-linecap: butt}</style>
 </defs>
 <g id="figure_1">
  <g id="patch_1">
   <path d="M 0 576 
L 360 576 
L 360 0 
L 0 0 
z
" style="fill: #ffffff"/>
  </g>
  <g id="axes_1">
   <g id="patch_2">
    <path d="M 54.43 103.524702 
L 290.930718 103.524702 
L 290.930718 50.64 
L 54.43 50.64 
z
" style="fill: #ffffff"/>
   </g>
   <g id="matplotlib.axis_1">
    <g id="xtick_1"/>
   </g>
   <g id="matplotlib.axis_2">
    <g id="ytick_1">
     <g id="line2d_1">
      <defs>
       <path id="mde2995f3b1" d="M 0 0 
L -3.5 0 
" style="stroke: #000000; stroke-width: 0.8"/>
      </defs>
      <g>
       <use xlink:href="#mde2995f3b1" x="54.43" y="102.691872" style="stroke: #000000; stroke-width: 0.8"/>
      </g>
     </g>
     <g id="text_1">
      <!-- 0.0 -->
      <g transform="translate(31.526875 106.49109) scale(0.1 -0.1)">
       <defs>
        <path id="DejaVuSans-30" d="M 2034 4250 
Q 1547 4250 1301 3770 
Q 1056 3291 1056 2328 
Q 1056 1369 1301 889 
Q 1547 409 2034 409 
Q 2525 409 2770 889 
Q 3016 1369 3016 2328 
Q 3016 3291 2770 3770 
Q 2525 4250 2034 4250 
z
M 2034 4750 
Q 2819 4750 3233 4129 
Q 3647 3509 3647 2328 
Q 3647 1150 3233 529 
Q 2819 -91 2034 -91 
Q 1250 -91 836 529 
Q 422 1150 422 2328 
Q 422 3509 836 4129 
Q 1250 4750 2034 4750 
z
" transform="scale(0.015625)"/>
        <path id="DejaVuSans-2e" d="M 684 794 
L 1344 794 
L 1344 0 
L 684 0 
L 684 794 
z
" transform="scale(0.015625)"/>
       </defs>
       <use xlink:href="#DejaVuSans-30"/>
       <use xlink:href="#DejaVuSans-2e" transform="translate(63.623047 0)"/>
       <use xlink:href="#DejaVuSans-30" transform="translate(95.410156 0)"/>
      </g>
     </g>
    </g>
    <g id="ytick_2">
     <g id="line2d_2">
      <g>
       <use xlink:href="#mde2995f3b1" x="54.43" y="50.64" style="stroke: #000000; stroke-width: 0.8"/>
      </g>
     </g>
     <g id="text_2">
      <!-- 0.5 -->
      <g transform="translate(31.526875 54.439219) scale(0.1 -0.1)">
       <defs>
        <path id="DejaVuSans-35" d="M 691 4666 
L 3169 4666 
L 3169 4134 
L 1269 4134 
L 1269 2991 
Q 1406 3038 1543 3061 
Q 1681 3084 1819 3084 
Q 2600 3084 3056 2656 
Q 3513 2228 3513 1497 
Q 3513 744 3044 326 
Q 2575 -91 1722 -91 
Q 1428 -91 1123 -41 
Q 819 9 494 109 
L 494 744 
Q 775 591 1075 516 
Q 1375 441 1709 441 
Q 2250 441 2565 725 
Q 2881 1009 2881 1497 
Q 2881 1984 2565 2268 
Q 2250 2553 1709 2553 
Q 1456 2553 1204 2497 
Q 953 2441 691 2322 
L 691 4666 
z
" transform="scale(0.015625)"/>
       </defs>
       <use xlink:href="#DejaVuSans-30"/>
       <use xlink:href="#DejaVuSans-2e" transform="translate(63.623047 0)"/>
       <use xlink:href="#DejaVuSans-35" transform="translate(95.410156 0)"/>
      </g>
     </g>
    </g>
   </g>
   <g id="line2d_3">
    <path d="M -1 87.711173 
L 3.751275 87.345438 
L 17.265601 85.833567 
L 34.15851 84.31883 
L 51.051418 82.976586 
L 54.43 83.630761 
L 67.944327 82.47854 
L 84.837235 81.247373 
L 108.487307 79.779955 
L 125.380215 78.931784 
L 176.058941 76.812701 
L 196.330431 76.276552 
L 226.737666 75.775325 
L 247.009156 75.673126 
L 263.902065 75.784076 
L 284.173555 76.165359 
L 287.552137 76.258004 
L 287.552137 76.258004 
" clip-path="url(#p022c77731f)" style="fill: none; stroke: #ffcc33; stroke-width: 1.5; stroke-linecap: square"/>
   </g>
   <g id="line2d_4">
    <path d="M -1 89.569392 
L 13.88702 89.421681 
L 27.401346 89.501437 
L 40.915673 89.826448 
L 51.051418 90.229097 
L 54.43 92.365367 
L 57.808582 92.604093 
L 61.187163 92.975182 
L 78.080072 93.582005 
L 88.215817 94.074463 
L 91.594399 94.290637 
L 94.97298 94.622802 
L 118.623052 95.39455 
L 128.758797 95.836674 
L 132.137379 95.78094 
L 142.273124 95.98942 
L 152.408869 96.115251 
L 155.787451 96.288617 
L 192.951849 96.420207 
L 199.709013 96.38679 
L 230.116248 96.629059 
L 253.76632 96.923284 
L 277.416392 97.464944 
L 287.552137 97.797336 
L 287.552137 97.797336 
" clip-path="url(#p022c77731f)" style="fill: none; stroke: #ff0000; stroke-width: 1.5; stroke-linecap: square"/>
   </g>
   <g id="line2d_5">
    <path d="M -1 102.691019 
L 155.787451 102.600302 
L 186.194686 102.46305 
L 196.330431 102.335305 
L 223.359084 102.100198 
L 270.659228 101.855171 
L 274.03781 101.54192 
L 280.794973 101.310181 
L 287.552137 101.155086 
L 287.552137 101.155086 
" clip-path="url(#p022c77731f)" style="fill: none; stroke: #0000ff; stroke-width: 1.5; stroke-linecap: square"/>
   </g>
   <g id="line2d_6">
    <path d="M -1 102.691375 
L 13.88702 102.69119 
L 20.644183 102.462448 
L 44.294255 102.135161 
L 51.051418 102.058492 
L 54.43 101.219774 
L 64.565745 101.052516 
L 74.70149 100.551897 
L 84.837235 100.177504 
L 88.215817 99.837303 
L 98.351562 99.274205 
L 115.24447 98.600577 
L 135.515961 98.035299 
L 155.787451 97.672916 
L 179.437523 97.48019 
L 206.466176 97.513987 
L 263.902065 97.99627 
L 270.659228 98.132827 
L 274.03781 97.655438 
L 287.552137 97.475778 
L 287.552137 97.475778 
" clip-path="url(#p022c77731f)" style="fill: none; stroke: #ff00ff; stroke-width: 1.5; stroke-linecap: square"/>
   </g>
   <g id="line2d_7">
    <path d="M 54.43 102.691872 
L 290.930718 102.691872 
" clip-path="url(#p022c77731f)" style="fill: none; stroke: #000000; stroke-width: 0.8; stroke-linecap: square"/>
   </g>
   <g id="line2d_8">
    <path d="M -1 83.415307 
L 51.051418 81.597991 
L 54.43 82.853706 
L 74.70149 81.825675 
L 111.865889 79.623859 
L 138.894542 78.13924 
L 159.166032 77.218946 
L 179.437523 76.516266 
L 199.709013 76.05219 
L 219.980503 75.82203 
L 240.251993 75.827629 
L 260.523483 76.079837 
L 280.794973 76.572824 
L 287.552137 76.784392 
L 287.552137 76.784392 
" clip-path="url(#p022c77731f)" style="fill: none; stroke-dasharray: 5.55,2.4; stroke-dashoffset: 0; stroke: #000000; stroke-width: 1.5"/>
   </g>
   <g id="line2d_9">
    <path d="M 155.787451 103.524702 
L 155.787451 50.64 
" clip-path="url(#p022c77731f)" style="fill: none; stroke: #000000; stroke-width: 0.8; stroke-linecap: square"/>
   </g>
   <g id="patch_3">
    <path d="M 54.43 102.691872 
L 54.43 50.64 
" style="fill: none; stroke: #000000; stroke-width: 0.8; stroke-linejoin: miter; stroke-linecap: square"/>
   </g>
   <g id="text_3">
    <!-- delta -->
    <g transform="translate(157.483484 44.64) scale(0.12 -0.12)">
     <defs>
      <path id="DejaVuSans-64" d="M 2906 2969 
L 2906 4863 
L 3481 4863 
L 3481 0 
L 2906 0 
L 2906 525 
Q 2725 213 2448 61 
Q 2172 -91 1784 -91 
Q 1150 -91 751 415 
Q 353 922 353 1747 
Q 353 2572 751 3078 
Q 1150 3584 1784 3584 
Q 2172 3584 2448 3432 
Q 2725 3281 2906 2969 
z
M 947 1747 
Q 947 1113 1208 752 
Q 1469 391 1925 391 
Q 2381 391 2643 752 
Q 2906 1113 2906 1747 
Q 2906 2381 2643 2742 
Q 2381 3103 1925 3103 
Q 1469 3103 1208 2742 
Q 947 2381 947 1747 
z
" transform="scale(0.015625)"/>
      <path id="DejaVuSans-65" d="M 3597 1894 
L 3597 1613 
L 953 1613 
Q 991 1019 1311 708 
Q 1631 397 2203 397 
Q 2534 397 2845 478 
Q 3156 559 3463 722 
L 3463 178 
Q 3153 47 2828 -22 
Q 2503 -91 2169 -91 
Q 1331 -91 842 396 
Q 353 884 353 1716 
Q 353 2575 817 3079 
Q 1281 3584 2069 3584 
Q 2775 3584 3186 3129 
Q 3597 2675 3597 1894 
z
M 3022 2063 
Q 3016 2534 2758 2815 
Q 2500 3097 2075 3097 
Q 1594 3097 1305 2825 
Q 1016 2553 972 2059 
L 3022 2063 
z
" transform="scale(0.015625)"/>
      <path id="DejaVuSans-6c" d="M 603 4863 
L 1178 4863 
L 1178 0 
L 603 0 
L 603 4863 
z
" transform="scale(0.015625)"/>
      <path id="DejaVuSans-74" d="M 1172 4494 
L 1172 3500 
L 2356 3500 
L 2356 3053 
L 1172 3053 
L 1172 1153 
Q 1172 725 1289 603 
Q 1406 481 1766 481 
L 2356 481 
L 2356 0 
L 1766 0 
Q 1100 0 847 248 
Q 594 497 594 1153 
L 594 3053 
L 172 3053 
L 172 3500 
L 594 3500 
L 594 4494 
L 1172 4494 
z
" transform="scale(0.015625)"/>
      <path id="DejaVuSans-61" d="M 2194 1759 
Q 1497 1759 1228 1600 
Q 959 1441 959 1056 
Q 959 750 1161 570 
Q 1363 391 1709 391 
Q 2188 391 2477 730 
Q 2766 1069 2766 1631 
L 2766 1759 
L 2194 1759 
z
M 3341 1997 
L 3341 0 
L 2766 0 
L 2766 531 
Q 2569 213 2275 61 
Q 1981 -91 1556 -91 
Q 1019 -91 701 211 
Q 384 513 384 1019 
Q 384 1609 779 1909 
Q 1175 2209 1959 2209 
L 2766 2209 
L 2766 2266 
Q 2766 2663 2505 2880 
Q 2244 3097 1772 3097 
Q 1472 3097 1187 3025 
Q 903 2953 641 2809 
L 641 3341 
Q 956 3463 1253 3523 
Q 1550 3584 1831 3584 
Q 2591 3584 2966 3190 
Q 3341 2797 3341 1997 
z
" transform="scale(0.015625)"/>
     </defs>
     <use xlink:href="#DejaVuSans-64"/>
     <use xlink:href="#DejaVuSans-65" transform="translate(63.476562 0)"/>
     <use xlink:href="#DejaVuSans-6c" transform="translate(125 0)"/>
     <use xlink:href="#DejaVuSans-74" transform="translate(152.783203 0)"/>
     <use xlink:href="#DejaVuSans-61" transform="translate(191.992188 0)"/>
    </g>
   </g>
  </g>
  <g id="axes_2">
   <g id="patch_4">
    <path d="M 304.519466 103.524702 
L 343.936252 103.524702 
L 343.936252 50.64 
L 304.519466 50.64 
z
" style="fill: #ffffff"/>
   </g>
   <g id="matplotlib.axis_3">
    <g id="xtick_2"/>
    <g id="xtick_3"/>
   </g>
   <g id="matplotlib.axis_4">
    <g id="ytick_3"/>
    <g id="ytick_4"/>
   </g>
   <g id="line2d_10">
    <path d="M 310.150435 80.292277 
L 338.305283 76.264507 
" clip-path="url(#p2933585876)" style="fill: none; stroke: #ffcc33; stroke-width: 1.5; stroke-linecap: square"/>
    <defs>
     <path id="mfd5bc818af" d="M -2.5 2.5 
L 2.5 2.5 
L 2.5 -2.5 
L -2.5 -2.5 
z
" style="stroke: #ffcc33; stroke-linejoin: miter"/>
    </defs>
    <g clip-path="url(#p2933585876)">
     <use xlink:href="#mfd5bc818af" x="310.150435" y="80.292277" style="fill: #ffcc33; stroke: #ffcc33; stroke-linejoin: miter"/>
     <use xlink:href="#mfd5bc818af" x="338.305283" y="76.264507" style="fill: #ffcc33; stroke: #ffcc33; stroke-linejoin: miter"/>
    </g>
   </g>
   <g id="line2d_11">
    <path d="M 310.150435 94.644314 
L 338.305283 96.533244 
" clip-path="url(#p2933585876)" style="fill: none; stroke: #ff0000; stroke-width: 1.5; stroke-linecap: square"/>
    <defs>
     <path id="m85a1f96953" d="M -2.5 2.5 
L 2.5 2.5 
L 2.5 -2.5 
L -2.5 -2.5 
z
" style="stroke: #ff0000; stroke-linejoin: miter"/>
    </defs>
    <g clip-path="url(#p2933585876)">
     <use xlink:href="#m85a1f96953" x="310.150435" y="94.644314" style="fill: #ff0000; stroke: #ff0000; stroke-linejoin: miter"/>
     <use xlink:href="#m85a1f96953" x="338.305283" y="96.533244" style="fill: #ff0000; stroke: #ff0000; stroke-linejoin: miter"/>
    </g>
   </g>
   <g id="line2d_12">
    <path d="M 310.150435 102.687843 
L 338.305283 102.253026 
" clip-path="url(#p2933585876)" style="fill: none; stroke: #0000ff; stroke-width: 1.5; stroke-linecap: square"/>
    <defs>
     <path id="m2f84459d4c" d="M -2.5 2.5 
L 2.5 2.5 
L 2.5 -2.5 
L -2.5 -2.5 
z
" style="stroke: #0000ff; stroke-linejoin: miter"/>
    </defs>
    <g clip-path="url(#p2933585876)">
     <use xlink:href="#m2f84459d4c" x="310.150435" y="102.687843" style="fill: #0000ff; stroke: #0000ff; stroke-linejoin: miter"/>
     <use xlink:href="#m2f84459d4c" x="338.305283" y="102.253026" style="fill: #0000ff; stroke: #0000ff; stroke-linejoin: miter"/>
    </g>
   </g>
   <g id="line2d_13">
    <path d="M 310.150435 99.289935 
L 338.305283 97.593729 
" clip-path="url(#p2933585876)" style="fill: none; stroke: #ff00ff; stroke-width: 1.5; stroke-linecap: square"/>
    <defs>
     <path id="m7143ca9f24" d="M -2.5 2.5 
L 2.5 2.5 
L 2.5 -2.5 
L -2.5 -2.5 
z
" style="stroke: #ff00ff; stroke-linejoin: miter"/>
    </defs>
    <g clip-path="url(#p2933585876)">
     <use xlink:href="#m7143ca9f24" x="310.150435" y="99.289935" style="fill: #ff00ff; stroke: #ff00ff; stroke-linejoin: miter"/>
     <use xlink:href="#m7143ca9f24" x="338.305283" y="97.593729" style="fill: #ff00ff; stroke: #ff00ff; stroke-linejoin: miter"/>
    </g>
   </g>
  </g>
  <g id="axes_3">
   <g id="patch_5">
    <path d="M 54.43 186.499761 
L 290.930718 186.499761 
L 290.930718 133.61506 
L 54.43 133.61506 
z
" style="fill: #ffffff"/>
   </g>
   <g id="matplotlib.axis_5">
    <g id="xtick_4"/>
   </g>
   <g id="matplotlib.axis_6">
    <g id="ytick_5">
     <g id="line2d_14">
      <g>
       <use xlink:href="#mde2995f3b1" x="54.43" y="185.666931" style="stroke: #000000; stroke-width: 0.8"/>
      </g>
     </g>
     <g id="text_4">
      <!-- 0.0 -->
      <g transform="translate(31.526875 189.46615) scale(0.1 -0.1)">
       <use xlink:href="#DejaVuSans-30"/>
       <use xlink:href="#DejaVuSans-2e" transform="translate(63.623047 0)"/>
       <use xlink:href="#DejaVuSans-30" transform="translate(95.410156 0)"/>
      </g>
     </g>
    </g>
    <g id="ytick_6">
     <g id="line2d_15">
      <g>
       <use xlink:href="#mde2995f3b1" x="54.43" y="133.61506" style="stroke: #000000; stroke-width: 0.8"/>
      </g>
     </g>
     <g id="text_5">
      <!-- 0.5 -->
      <g transform="translate(31.526875 137.414278) scale(0.1 -0.1)">
       <use xlink:href="#DejaVuSans-30"/>
       <use xlink:href="#DejaVuSans-2e" transform="translate(63.623047 0)"/>
       <use xlink:href="#DejaVuSans-35" transform="translate(95.410156 0)"/>
      </g>
     </g>
    </g>
   </g>
   <g id="line2d_16">
    <path d="M -1 181.003903 
L 3.751275 181.786526 
L 10.508438 183.257549 
L 13.88702 183.6995 
L 17.265601 184.312601 
L 20.644183 184.805079 
L 30.779928 184.960707 
L 34.15851 184.723904 
L 40.915673 184.59453 
L 44.294255 184.625914 
L 47.672837 184.842269 
L 51.051418 184.739999 
L 54.43 183.836351 
L 61.187163 183.480589 
L 67.944327 183.390206 
L 71.322908 183.555971 
L 74.70149 183.46427 
L 78.080072 182.878913 
L 81.458654 182.426231 
L 88.215817 180.901068 
L 94.97298 179.844934 
L 101.730144 178.649493 
L 105.108725 178.125334 
L 108.487307 177.123723 
L 122.001634 171.83578 
L 125.380215 170.63657 
L 128.758797 169.572097 
L 132.137379 168.644477 
L 138.894542 167.146298 
L 145.651706 166.02172 
L 152.408869 165.161096 
L 159.166032 164.516186 
L 169.301777 163.857562 
L 176.058941 163.550523 
L 186.194686 163.346198 
L 192.951849 163.418767 
L 199.709013 163.708 
L 206.466176 164.252126 
L 213.223339 165.099244 
L 219.980503 166.299119 
L 223.359084 167.055664 
L 226.737666 167.937227 
L 230.116248 168.956531 
L 236.873411 171.377293 
L 240.251993 172.625724 
L 243.630575 173.569507 
L 247.009156 173.878172 
L 250.387738 173.737112 
L 260.523483 172.943199 
L 267.280646 172.640464 
L 270.659228 172.615566 
L 274.03781 172.754951 
L 280.794973 172.668949 
L 287.552137 172.834336 
L 287.552137 172.834336 
" clip-path="url(#p8235b9ce1f)" style="fill: none; stroke: #ffcc33; stroke-width: 1.5; stroke-linecap: square"/>
   </g>
   <g id="line2d_17">
    <path d="M -1 181.239188 
L 0.372693 181.10473 
L 10.508438 180.479934 
L 27.401346 180.416608 
L 37.537092 180.856988 
L 47.672837 181.383593 
L 51.051418 181.699144 
L 54.43 178.685778 
L 61.187163 179.56688 
L 67.944327 180.746806 
L 71.322908 180.844736 
L 81.458654 181.834484 
L 88.215817 183.096479 
L 115.24447 185.465851 
L 118.623052 185.435157 
L 125.380215 185.117286 
L 138.894542 184.779907 
L 149.030287 184.502976 
L 155.787451 184.195244 
L 165.923196 183.852443 
L 169.301777 183.168288 
L 176.058941 182.391513 
L 179.437523 182.103262 
L 182.816104 181.508676 
L 189.573268 180.823726 
L 206.466176 179.567846 
L 213.223339 179.210887 
L 223.359084 178.932249 
L 233.49483 178.965766 
L 240.251993 179.200753 
L 243.630575 179.395241 
L 250.387738 179.113699 
L 253.76632 179.381048 
L 257.144901 179.963553 
L 260.523483 180.733483 
L 263.902065 181.194436 
L 270.659228 181.738589 
L 277.416392 182.511315 
L 280.794973 183.220145 
L 284.173555 183.578011 
L 287.552137 183.735354 
L 287.552137 183.735354 
" clip-path="url(#p8235b9ce1f)" style="fill: none; stroke: #ff0000; stroke-width: 1.5; stroke-linecap: square"/>
   </g>
   <g id="line2d_18">
    <path d="M -1 185.66693 
L 20.644183 185.666929 
L 24.022765 185.553808 
L 27.401346 185.038203 
L 34.15851 184.591732 
L 47.672837 184.022132 
L 51.051418 183.907705 
L 54.43 180.868731 
L 61.187163 180.306606 
L 67.944327 180.057327 
L 84.837235 179.806118 
L 94.97298 180.185498 
L 98.351562 180.172375 
L 111.865889 181.840491 
L 115.24447 182.067932 
L 132.137379 182.418312 
L 135.515961 182.590476 
L 138.894542 182.567146 
L 149.030287 182.066506 
L 152.408869 182.054862 
L 155.787451 182.157503 
L 159.166032 182.536047 
L 169.301777 182.557438 
L 176.058941 182.752516 
L 182.816104 183.192883 
L 196.330431 183.225757 
L 219.980503 183.564188 
L 226.737666 183.985182 
L 240.251993 183.24847 
L 247.009156 183.139932 
L 253.76632 183.204791 
L 263.902065 183.598615 
L 274.03781 184.215487 
L 277.416392 184.274734 
L 284.173555 184.786706 
L 287.552137 184.833257 
L 287.552137 184.833257 
" clip-path="url(#p8235b9ce1f)" style="fill: none; stroke: #0000ff; stroke-width: 1.5; stroke-linecap: square"/>
   </g>
   <g id="line2d_19">
    <path d="M -1 185.579371 
L 0.372693 185.666922 
L 51.051418 185.666931 
L 54.43 184.644629 
L 57.808582 184.809897 
L 61.187163 185.139756 
L 74.70149 185.330752 
L 81.458654 185.66693 
L 91.594399 185.666927 
L 94.97298 185.424712 
L 98.351562 185.056254 
L 108.487307 183.491017 
L 118.623052 182.56192 
L 132.137379 181.649334 
L 135.515961 181.456338 
L 138.894542 181.070128 
L 142.273124 180.540665 
L 145.651706 180.215982 
L 159.166032 177.63055 
L 169.301777 176.477342 
L 179.437523 175.536034 
L 186.194686 175.166365 
L 196.330431 174.855776 
L 206.466176 174.767843 
L 213.223339 174.928218 
L 216.601921 175.154486 
L 223.359084 175.342555 
L 230.116248 175.87 
L 236.873411 176.756081 
L 240.251993 177.344274 
L 243.630575 178.285585 
L 247.009156 178.844935 
L 250.387738 179.640387 
L 253.76632 180.124672 
L 263.902065 180.741239 
L 270.659228 181.284192 
L 274.03781 181.625859 
L 277.416392 182.150486 
L 287.552137 182.877568 
L 287.552137 182.877568 
" clip-path="url(#p8235b9ce1f)" style="fill: none; stroke: #ff00ff; stroke-width: 1.5; stroke-linecap: square"/>
   </g>
   <g id="line2d_20">
    <path d="M 54.43 185.666931 
L 290.930718 185.666931 
" clip-path="url(#p8235b9ce1f)" style="fill: none; stroke: #000000; stroke-width: 0.8; stroke-linecap: square"/>
   </g>
   <g id="line2d_21">
    <path d="M -1 179.603935 
L 0.372693 179.939464 
L 3.751275 181.166309 
L 7.129856 183.188248 
M 84.837235 182.677466 
L 88.215817 181.304542 
L 91.594399 180.269495 
L 98.351562 178.665306 
L 105.108725 177.213221 
L 108.487307 176.379323 
L 111.865889 175.378846 
L 115.24447 174.165559 
L 122.001634 171.245342 
L 128.758797 168.362475 
L 132.137379 167.117536 
L 135.515961 166.016786 
L 142.273124 164.178521 
L 149.030287 162.703087 
L 155.787451 161.489096 
L 162.544614 160.475771 
L 169.301777 159.637506 
L 176.058941 158.974767 
L 182.816104 158.501267 
L 189.573268 158.235933 
L 196.330431 158.20684 
L 203.087594 158.453851 
L 209.844758 159.032949 
L 213.223339 159.47023 
L 216.601921 160.021059 
L 219.980503 160.699129 
L 223.359084 161.519676 
L 226.737666 162.496002 
L 230.116248 163.628495 
L 240.251993 167.302311 
L 243.630575 168.103385 
L 247.009156 168.448334 
L 250.387738 168.362281 
L 253.76632 167.977306 
L 267.280646 165.910792 
L 274.03781 165.317484 
L 280.794973 165.110833 
L 287.552137 165.199509 
L 287.552137 165.199509 
" clip-path="url(#p8235b9ce1f)" style="fill: none; stroke-dasharray: 5.55,2.4; stroke-dashoffset: 0; stroke: #000000; stroke-width: 1.5"/>
   </g>
   <g id="line2d_22">
    <path d="M 155.787451 186.499761 
L 155.787451 133.61506 
" clip-path="url(#p8235b9ce1f)" style="fill: none; stroke: #000000; stroke-width: 0.8; stroke-linecap: square"/>
   </g>
   <g id="patch_6">
    <path d="M 54.43 185.666931 
L 54.43 133.61506 
" style="fill: none; stroke: #000000; stroke-width: 0.8; stroke-linejoin: miter; stroke-linecap: square"/>
   </g>
   <g id="text_6">
    <!-- theta -->
    <g transform="translate(156.804734 127.61506) scale(0.12 -0.12)">
     <defs>
      <path id="DejaVuSans-68" d="M 3513 2113 
L 3513 0 
L 2938 0 
L 2938 2094 
Q 2938 2591 2744 2837 
Q 2550 3084 2163 3084 
Q 1697 3084 1428 2787 
Q 1159 2491 1159 1978 
L 1159 0 
L 581 0 
L 581 4863 
L 1159 4863 
L 1159 2956 
Q 1366 3272 1645 3428 
Q 1925 3584 2291 3584 
Q 2894 3584 3203 3211 
Q 3513 2838 3513 2113 
z
" transform="scale(0.015625)"/>
     </defs>
     <use xlink:href="#DejaVuSans-74"/>
     <use xlink:href="#DejaVuSans-68" transform="translate(39.208984 0)"/>
     <use xlink:href="#DejaVuSans-65" transform="translate(102.587891 0)"/>
     <use xlink:href="#DejaVuSans-74" transform="translate(164.111328 0)"/>
     <use xlink:href="#DejaVuSans-61" transform="translate(203.320312 0)"/>
    </g>
   </g>
  </g>
  <g id="axes_4">
   <g id="patch_7">
    <path d="M 304.519466 186.499761 
L 343.936252 186.499761 
L 343.936252 133.61506 
L 304.519466 133.61506 
z
" style="fill: #ffffff"/>
   </g>
   <g id="matplotlib.axis_7">
    <g id="xtick_5"/>
    <g id="xtick_6"/>
   </g>
   <g id="matplotlib.axis_8">
    <g id="ytick_7"/>
    <g id="ytick_8"/>
   </g>
   <g id="line2d_23">
    <path d="M 310.150435 176.277343 
L 338.305283 166.732474 
" clip-path="url(#pd0287cc153)" style="fill: none; stroke: #ffcc33; stroke-width: 1.5; stroke-linecap: square"/>
    <g clip-path="url(#pd0287cc153)">
     <use xlink:href="#mfd5bc818af" x="310.150435" y="176.277343" style="fill: #ffcc33; stroke: #ffcc33; stroke-linejoin: miter"/>
     <use xlink:href="#mfd5bc818af" x="338.305283" y="166.732474" style="fill: #ffcc33; stroke: #ffcc33; stroke-linejoin: miter"/>
    </g>
   </g>
   <g id="line2d_24">
    <path d="M 310.150435 183.272038 
L 338.305283 180.585323 
" clip-path="url(#pd0287cc153)" style="fill: none; stroke: #ff0000; stroke-width: 1.5; stroke-linecap: square"/>
    <g clip-path="url(#pd0287cc153)">
     <use xlink:href="#m85a1f96953" x="310.150435" y="183.272038" style="fill: #ff0000; stroke: #ff0000; stroke-linejoin: miter"/>
     <use xlink:href="#m85a1f96953" x="338.305283" y="180.585323" style="fill: #ff0000; stroke: #ff0000; stroke-linejoin: miter"/>
    </g>
   </g>
   <g id="line2d_25">
    <path d="M 310.150435 181.130482 
L 338.305283 183.162102 
" clip-path="url(#pd0287cc153)" style="fill: none; stroke: #0000ff; stroke-width: 1.5; stroke-linecap: square"/>
    <g clip-path="url(#pd0287cc153)">
     <use xlink:href="#m2f84459d4c" x="310.150435" y="181.130482" style="fill: #0000ff; stroke: #0000ff; stroke-linejoin: miter"/>
     <use xlink:href="#m2f84459d4c" x="338.305283" y="183.162102" style="fill: #0000ff; stroke: #0000ff; stroke-linejoin: miter"/>
    </g>
   </g>
   <g id="line2d_26">
    <path d="M 310.150435 183.480319 
L 338.305283 176.388826 
" clip-path="url(#pd0287cc153)" style="fill: none; stroke: #ff00ff; stroke-width: 1.5; stroke-linecap: square"/>
    <g clip-path="url(#pd0287cc153)">
     <use xlink:href="#m7143ca9f24" x="310.150435" y="183.480319" style="fill: #ff00ff; stroke: #ff00ff; stroke-linejoin: miter"/>
     <use xlink:href="#m7143ca9f24" x="338.305283" y="176.388826" style="fill: #ff00ff; stroke: #ff00ff; stroke-linejoin: miter"/>
    </g>
   </g>
  </g>
  <g id="axes_5">
   <g id="patch_8">
    <path d="M 54.43 269.474821 
L 290.930718 269.474821 
L 290.930718 216.590119 
L 54.43 216.590119 
z
" style="fill: #ffffff"/>
   </g>
   <g id="matplotlib.axis_9">
    <g id="xtick_7"/>
   </g>
   <g id="matplotlib.axis_10">
    <g id="ytick_9">
     <g id="line2d_27">
      <g>
       <use xlink:href="#mde2995f3b1" x="54.43" y="268.641991" style="stroke: #000000; stroke-width: 0.8"/>
      </g>
     </g>
     <g id="text_7">
      <!-- 0.0 -->
      <g transform="translate(31.526875 272.44121) scale(0.1 -0.1)">
       <use xlink:href="#DejaVuSans-30"/>
       <use xlink:href="#DejaVuSans-2e" transform="translate(63.623047 0)"/>
       <use xlink:href="#DejaVuSans-30" transform="translate(95.410156 0)"/>
      </g>
     </g>
    </g>
    <g id="ytick_10">
     <g id="line2d_28">
      <g>
       <use xlink:href="#mde2995f3b1" x="54.43" y="216.590119" style="stroke: #000000; stroke-width: 0.8"/>
      </g>
     </g>
     <g id="text_8">
      <!-- 0.5 -->
      <g transform="translate(31.526875 220.389338) scale(0.1 -0.1)">
       <use xlink:href="#DejaVuSans-30"/>
       <use xlink:href="#DejaVuSans-2e" transform="translate(63.623047 0)"/>
       <use xlink:href="#DejaVuSans-35" transform="translate(95.410156 0)"/>
      </g>
     </g>
    </g>
   </g>
   <g id="line2d_29">
    <path d="M -1 266.734028 
L 0.372693 266.784331 
L 3.751275 266.523606 
L 7.129856 266.441558 
L 10.508438 266.700945 
L 13.88702 267.49847 
L 17.265601 268.074107 
L 24.022765 268.641989 
L 27.401346 268.641977 
L 30.779928 268.132942 
L 37.537092 266.104343 
L 40.915673 265.4733 
L 44.294255 265.10162 
L 51.051418 264.904021 
L 54.43 266.362884 
L 57.808582 265.918919 
L 78.080072 264.849562 
L 81.458654 264.9003 
L 94.97298 265.675946 
L 101.730144 265.817792 
L 111.865889 265.441596 
L 115.24447 265.288221 
L 118.623052 265.399406 
L 122.001634 265.358592 
L 128.758797 264.712899 
L 132.137379 264.474347 
L 135.515961 262.819904 
L 138.894542 261.324821 
L 142.273124 260.230667 
L 145.651706 259.409539 
L 152.408869 257.172035 
L 155.787451 254.890212 
L 159.166032 252.981256 
L 162.544614 251.639012 
L 165.923196 250.839465 
L 169.301777 250.608168 
L 176.058941 250.780643 
L 182.816104 250.771942 
L 186.194686 251.393639 
L 189.573268 252.659204 
L 192.951849 254.175342 
L 196.330431 255.460584 
L 199.709013 255.754524 
L 203.087594 255.390532 
L 206.466176 256.204759 
L 209.844758 257.210277 
L 213.223339 257.924143 
L 216.601921 258.986291 
L 219.980503 260.227089 
L 226.737666 262.380698 
L 230.116248 262.271741 
L 233.49483 262.42895 
L 236.873411 263.253277 
L 240.251993 265.0233 
L 243.630575 266.454331 
L 247.009156 266.179321 
L 250.387738 264.822021 
L 253.76632 263.272045 
L 257.144901 260.341789 
L 260.523483 257.981284 
L 263.902065 255.944852 
L 267.280646 254.116903 
L 270.659228 252.784164 
L 277.416392 251.625832 
L 284.173555 250.087376 
L 287.552137 249.408492 
L 287.552137 249.408492 
" clip-path="url(#pd7d9173d1e)" style="fill: none; stroke: #ffcc33; stroke-width: 1.5; stroke-linecap: square"/>
   </g>
   <g id="line2d_30">
    <path d="M -1 263.859188 
L 0.372693 263.912948 
L 3.751275 264.557241 
L 13.88702 262.677222 
L 17.265601 261.579886 
L 20.644183 259.82005 
L 24.022765 258.735188 
L 27.401346 257.994072 
L 30.779928 257.473939 
L 34.15851 257.137805 
L 37.537092 256.596519 
L 40.915673 255.750348 
L 44.294255 255.168389 
L 47.672837 254.789299 
L 51.051418 254.008314 
L 54.43 257.892665 
L 61.187163 258.640085 
L 64.565745 258.851464 
L 71.322908 259.054657 
L 78.080072 258.16717 
L 81.458654 257.981425 
L 84.837235 258.119821 
L 88.215817 258.51051 
L 98.351562 259.985108 
L 101.730144 260.420206 
L 105.108725 260.697813 
L 108.487307 260.759811 
L 115.24447 260.60045 
L 118.623052 260.852488 
L 128.758797 262.614464 
L 132.137379 263.002664 
L 135.515961 262.864405 
L 138.894542 262.937337 
L 142.273124 262.454211 
L 145.651706 262.095549 
L 149.030287 261.53066 
L 152.408869 261.341286 
L 155.787451 261.459421 
L 162.544614 261.174073 
L 169.301777 260.795739 
L 172.680359 260.777392 
L 176.058941 261.030261 
L 179.437523 261.63103 
L 186.194686 263.673584 
L 196.330431 265.61361 
L 199.709013 265.90138 
L 203.087594 264.711457 
L 206.466176 263.787173 
L 209.844758 262.693823 
L 213.223339 262.018169 
L 216.601921 261.525799 
L 219.980503 260.453201 
L 223.359084 259.547297 
L 226.737666 258.396275 
L 230.116248 257.884748 
L 233.49483 257.810651 
L 236.873411 257.969806 
L 240.251993 258.378621 
L 247.009156 260.147765 
L 250.387738 260.93417 
L 253.76632 261.061013 
L 257.144901 261.534814 
L 263.902065 263.086422 
L 267.280646 263.507434 
L 270.659228 264.080181 
L 274.03781 264.872945 
L 277.416392 266.293281 
L 280.794973 267.181228 
L 284.173555 268.469329 
L 287.552137 268.641989 
L 287.552137 268.641989 
" clip-path="url(#pd7d9173d1e)" style="fill: none; stroke: #ff0000; stroke-width: 1.5; stroke-linecap: square"/>
   </g>
   <g id="line2d_31">
    <path d="M -1 263.12916 
L 0.372693 263.186845 
L 10.508438 263.309419 
L 13.88702 262.681114 
L 17.265601 262.809614 
L 20.644183 263.104207 
L 24.022765 263.572198 
L 27.401346 264.241986 
L 30.779928 265.314986 
L 34.15851 267.39069 
L 40.915673 267.968394 
L 44.294255 268.314688 
L 47.672837 268.331787 
L 51.051418 267.874313 
L 54.43 265.583864 
L 57.808582 265.779599 
L 61.187163 266.140987 
L 64.565745 265.817662 
L 67.944327 266.085485 
L 71.322908 266.803872 
L 74.70149 266.986819 
L 81.458654 267.850927 
L 84.837235 267.462324 
L 91.594399 266.957974 
L 98.351562 266.065544 
L 101.730144 265.357616 
L 105.108725 264.366083 
L 108.487307 263.62529 
L 111.865889 263.0756 
L 115.24447 262.727244 
L 122.001634 261.32433 
L 125.380215 261.121741 
L 128.758797 261.512727 
L 132.137379 261.64903 
L 135.515961 261.93969 
L 145.651706 266.464513 
L 149.030287 266.937498 
L 152.408869 267.021104 
L 155.787451 266.677066 
L 159.166032 267.266832 
L 169.301777 267.017084 
L 172.680359 267.248267 
L 176.058941 267.705734 
L 179.437523 268.311827 
L 182.816104 268.226042 
L 186.194686 268.323915 
L 189.573268 268.224988 
L 192.951849 267.614776 
L 196.330431 267.446647 
L 199.709013 267.510774 
L 206.466176 267.385274 
L 213.223339 267.662102 
L 216.601921 268.143356 
L 219.980503 268.182172 
L 223.359084 267.906384 
L 230.116248 268.070137 
L 233.49483 268.641759 
L 267.280646 268.59159 
L 270.659228 268.09397 
L 274.03781 268.377656 
L 277.416392 267.973352 
L 280.794973 266.914963 
L 284.173555 266.088512 
L 287.552137 265.496959 
L 287.552137 265.496959 
" clip-path="url(#pd7d9173d1e)" style="fill: none; stroke: #0000ff; stroke-width: 1.5; stroke-linecap: square"/>
   </g>
   <g id="line2d_32">
    <path d="M -1 268.225882 
L 3.751275 268.073241 
L 10.508438 267.803789 
L 13.88702 266.544539 
L 27.401346 265.543753 
L 30.779928 265.577269 
L 34.15851 266.251869 
L 37.537092 266.032303 
L 40.915673 265.440867 
L 44.294255 265.068685 
L 47.672837 264.931904 
L 51.051418 265.085659 
L 54.43 266.233889 
L 57.808582 265.48969 
L 64.565745 264.627819 
L 67.944327 264.61628 
L 74.70149 265.124981 
L 78.080072 265.6505 
L 84.837235 266.212565 
L 88.215817 266.367039 
L 94.97298 267.260227 
L 98.351562 267.695966 
L 101.730144 267.966826 
L 105.108725 267.846952 
L 111.865889 267.411231 
L 115.24447 267.275833 
L 118.623052 265.879937 
L 122.001634 265.085318 
L 125.380215 264.728886 
L 128.758797 264.598242 
L 132.137379 264.655471 
L 135.515961 264.979171 
L 138.894542 266.426384 
L 145.651706 266.65058 
L 149.030287 266.846397 
L 152.408869 267.346524 
L 155.787451 267.37098 
L 159.166032 268.195933 
L 162.544614 268.105282 
L 169.301777 267.631518 
L 172.680359 267.469789 
L 176.058941 266.538464 
L 179.437523 266.122084 
L 186.194686 265.535607 
L 189.573268 264.940157 
L 192.951849 264.640559 
L 203.087594 265.581106 
L 209.844758 266.767566 
L 213.223339 266.874818 
L 216.601921 266.812483 
L 219.980503 266.455968 
L 223.359084 266.483422 
L 226.737666 267.086779 
L 230.116248 266.732682 
L 233.49483 266.193155 
L 236.873411 266.140743 
L 240.251993 266.334499 
L 243.630575 266.741648 
L 247.009156 267.541868 
L 250.387738 267.629826 
L 257.144901 268.109002 
L 260.523483 267.822995 
L 263.902065 267.758175 
L 270.659228 266.68816 
L 277.416392 265.370034 
L 280.794973 263.970966 
L 284.173555 263.08969 
L 287.552137 262.645345 
L 287.552137 262.645345 
" clip-path="url(#pd7d9173d1e)" style="fill: none; stroke: #ff00ff; stroke-width: 1.5; stroke-linecap: square"/>
   </g>
   <g id="line2d_33">
    <path d="M 54.43 268.641991 
L 290.930718 268.641991 
" clip-path="url(#pd7d9173d1e)" style="fill: none; stroke: #000000; stroke-width: 0.8; stroke-linecap: square"/>
   </g>
   <g id="line2d_34">
    <path d="M 13.88702 266.001953 
L 17.265601 262.877474 
L 20.644183 260.80996 
L 24.022765 259.320043 
L 30.779928 256.884411 
L 40.915673 252.937533 
L 44.294255 252.020761 
L 47.672837 251.613738 
L 51.051418 251.637817 
L 54.43 254.284776 
L 57.808582 254.715398 
L 64.565745 255.245623 
L 71.322908 255.373383 
L 78.080072 255.251836 
L 81.458654 255.585703 
L 84.837235 256.324428 
L 91.594399 258.113677 
L 94.97298 258.725549 
L 98.351562 259.070003 
L 101.730144 259.202336 
L 105.108725 259.09344 
L 108.487307 258.622088 
L 115.24447 256.930495 
L 118.623052 256.433293 
L 122.001634 256.405419 
L 125.380215 256.578789 
L 128.758797 256.522577 
L 132.137379 256.047382 
L 138.894542 254.924013 
L 142.273124 254.397256 
L 145.651706 253.677228 
L 149.030287 252.71181 
L 155.787451 250.280344 
L 162.544614 247.916424 
L 165.923196 247.090886 
L 169.301777 246.680434 
L 176.058941 246.326642 
L 179.437523 246.323643 
L 182.816104 246.698326 
L 186.194686 247.531953 
L 189.573268 248.780323 
L 192.951849 250.210309 
L 196.330431 251.258425 
L 203.087594 251.862482 
L 206.466176 252.809957 
L 209.844758 254.272171 
L 216.601921 257.823455 
L 219.980503 259.17307 
L 223.359084 259.437373 
L 226.737666 258.54046 
L 230.116248 257.220065 
L 233.49483 256.10509 
L 236.873411 255.432684 
L 240.251993 255.436972 
L 243.630575 256.356948 
L 247.009156 257.775095 
L 250.387738 258.498949 
L 253.76632 258.104306 
L 257.144901 256.903688 
L 260.523483 255.2093 
L 267.280646 251.054861 
L 270.659228 249.426859 
L 274.03781 248.322887 
L 280.794973 246.60028 
L 287.552137 245.291233 
L 287.552137 245.291233 
" clip-path="url(#pd7d9173d1e)" style="fill: none; stroke-dasharray: 5.55,2.4; stroke-dashoffset: 0; stroke: #000000; stroke-width: 1.5"/>
   </g>
   <g id="line2d_35">
    <path d="M 155.787451 269.474821 
L 155.787451 216.590119 
" clip-path="url(#pd7d9173d1e)" style="fill: none; stroke: #000000; stroke-width: 0.8; stroke-linecap: square"/>
   </g>
   <g id="patch_9">
    <path d="M 54.43 268.641991 
L 54.43 216.590119 
" style="fill: none; stroke: #000000; stroke-width: 0.8; stroke-linejoin: miter; stroke-linecap: square"/>
   </g>
   <g id="text_9">
    <!-- alpha-beta -->
    <g transform="translate(140.353484 210.590119) scale(0.12 -0.12)">
     <defs>
      <path id="DejaVuSans-70" d="M 1159 525 
L 1159 -1331 
L 581 -1331 
L 581 3500 
L 1159 3500 
L 1159 2969 
Q 1341 3281 1617 3432 
Q 1894 3584 2278 3584 
Q 2916 3584 3314 3078 
Q 3713 2572 3713 1747 
Q 3713 922 3314 415 
Q 2916 -91 2278 -91 
Q 1894 -91 1617 61 
Q 1341 213 1159 525 
z
M 3116 1747 
Q 3116 2381 2855 2742 
Q 2594 3103 2138 3103 
Q 1681 3103 1420 2742 
Q 1159 2381 1159 1747 
Q 1159 1113 1420 752 
Q 1681 391 2138 391 
Q 2594 391 2855 752 
Q 3116 1113 3116 1747 
z
" transform="scale(0.015625)"/>
      <path id="DejaVuSans-2d" d="M 313 2009 
L 1997 2009 
L 1997 1497 
L 313 1497 
L 313 2009 
z
" transform="scale(0.015625)"/>
      <path id="DejaVuSans-62" d="M 3116 1747 
Q 3116 2381 2855 2742 
Q 2594 3103 2138 3103 
Q 1681 3103 1420 2742 
Q 1159 2381 1159 1747 
Q 1159 1113 1420 752 
Q 1681 391 2138 391 
Q 2594 391 2855 752 
Q 3116 1113 3116 1747 
z
M 1159 2969 
Q 1341 3281 1617 3432 
Q 1894 3584 2278 3584 
Q 2916 3584 3314 3078 
Q 3713 2572 3713 1747 
Q 3713 922 3314 415 
Q 2916 -91 2278 -91 
Q 1894 -91 1617 61 
Q 1341 213 1159 525 
L 1159 0 
L 581 0 
L 581 4863 
L 1159 4863 
L 1159 2969 
z
" transform="scale(0.015625)"/>
     </defs>
     <use xlink:href="#DejaVuSans-61"/>
     <use xlink:href="#DejaVuSans-6c" transform="translate(61.279297 0)"/>
     <use xlink:href="#DejaVuSans-70" transform="translate(89.0625 0)"/>
     <use xlink:href="#DejaVuSans-68" transform="translate(152.539062 0)"/>
     <use xlink:href="#DejaVuSans-61" transform="translate(215.917969 0)"/>
     <use xlink:href="#DejaVuSans-2d" transform="translate(277.197266 0)"/>
     <use xlink:href="#DejaVuSans-62" transform="translate(313.28125 0)"/>
     <use xlink:href="#DejaVuSans-65" transform="translate(376.757812 0)"/>
     <use xlink:href="#DejaVuSans-74" transform="translate(438.28125 0)"/>
     <use xlink:href="#DejaVuSans-61" transform="translate(477.490234 0)"/>
    </g>
   </g>
  </g>
  <g id="axes_6">
   <g id="patch_10">
    <path d="M 304.519466 269.474821 
L 343.936252 269.474821 
L 343.936252 216.590119 
L 304.519466 216.590119 
z
" style="fill: #ffffff"/>
   </g>
   <g id="matplotlib.axis_11">
    <g id="xtick_8"/>
    <g id="xtick_9"/>
   </g>
   <g id="matplotlib.axis_12">
    <g id="ytick_11"/>
    <g id="ytick_12"/>
   </g>
   <g id="line2d_36">
    <path d="M 310.150435 264.280043 
L 338.305283 257.322616 
" clip-path="url(#pe75653fd38)" style="fill: none; stroke: #ffcc33; stroke-width: 1.5; stroke-linecap: square"/>
    <g clip-path="url(#pe75653fd38)">
     <use xlink:href="#mfd5bc818af" x="310.150435" y="264.280043" style="fill: #ffcc33; stroke: #ffcc33; stroke-linejoin: miter"/>
     <use xlink:href="#mfd5bc818af" x="338.305283" y="257.322616" style="fill: #ffcc33; stroke: #ffcc33; stroke-linejoin: miter"/>
    </g>
   </g>
   <g id="line2d_37">
    <path d="M 310.150435 260.263712 
L 338.305283 261.438176 
" clip-path="url(#pe75653fd38)" style="fill: none; stroke: #ff0000; stroke-width: 1.5; stroke-linecap: square"/>
    <g clip-path="url(#pe75653fd38)">
     <use xlink:href="#m85a1f96953" x="310.150435" y="260.263712" style="fill: #ff0000; stroke: #ff0000; stroke-linejoin: miter"/>
     <use xlink:href="#m85a1f96953" x="338.305283" y="261.438176" style="fill: #ff0000; stroke: #ff0000; stroke-linejoin: miter"/>
    </g>
   </g>
   <g id="line2d_38">
    <path d="M 310.150435 265.009383 
L 338.305283 267.907789 
" clip-path="url(#pe75653fd38)" style="fill: none; stroke: #0000ff; stroke-width: 1.5; stroke-linecap: square"/>
    <g clip-path="url(#pe75653fd38)">
     <use xlink:href="#m2f84459d4c" x="310.150435" y="265.009383" style="fill: #0000ff; stroke: #0000ff; stroke-linejoin: miter"/>
     <use xlink:href="#m2f84459d4c" x="338.305283" y="267.907789" style="fill: #0000ff; stroke: #0000ff; stroke-linejoin: miter"/>
    </g>
   </g>
   <g id="line2d_39">
    <path d="M 310.150435 266.129714 
L 338.305283 266.638887 
" clip-path="url(#pe75653fd38)" style="fill: none; stroke: #ff00ff; stroke-width: 1.5; stroke-linecap: square"/>
    <g clip-path="url(#pe75653fd38)">
     <use xlink:href="#m7143ca9f24" x="310.150435" y="266.129714" style="fill: #ff00ff; stroke: #ff00ff; stroke-linejoin: miter"/>
     <use xlink:href="#m7143ca9f24" x="338.305283" y="266.638887" style="fill: #ff00ff; stroke: #ff00ff; stroke-linejoin: miter"/>
    </g>
   </g>
  </g>
  <g id="axes_7">
   <g id="patch_11">
    <path d="M 54.43 352.449881 
L 290.930718 352.449881 
L 290.930718 299.565179 
L 54.43 299.565179 
z
" style="fill: #ffffff"/>
   </g>
   <g id="matplotlib.axis_13">
    <g id="xtick_10"/>
   </g>
   <g id="matplotlib.axis_14">
    <g id="ytick_13">
     <g id="line2d_40">
      <g>
       <use xlink:href="#mde2995f3b1" x="54.43" y="351.617051" style="stroke: #000000; stroke-width: 0.8"/>
      </g>
     </g>
     <g id="text_10">
      <!-- 0.0 -->
      <g transform="translate(31.526875 355.416269) scale(0.1 -0.1)">
       <use xlink:href="#DejaVuSans-30"/>
       <use xlink:href="#DejaVuSans-2e" transform="translate(63.623047 0)"/>
       <use xlink:href="#DejaVuSans-30" transform="translate(95.410156 0)"/>
      </g>
     </g>
    </g>
    <g id="ytick_14">
     <g id="line2d_41">
      <g>
       <use xlink:href="#mde2995f3b1" x="54.43" y="299.565179" style="stroke: #000000; stroke-width: 0.8"/>
      </g>
     </g>
     <g id="text_11">
      <!-- 0.5 -->
      <g transform="translate(31.526875 303.364398) scale(0.1 -0.1)">
       <use xlink:href="#DejaVuSans-30"/>
       <use xlink:href="#DejaVuSans-2e" transform="translate(63.623047 0)"/>
       <use xlink:href="#DejaVuSans-35" transform="translate(95.410156 0)"/>
      </g>
     </g>
    </g>
   </g>
   <g id="line2d_42">
    <path d="M -1 347.157727 
L 0.372693 347.145269 
L 3.751275 347.226919 
L 7.129856 347.426639 
L 10.508438 347.785199 
L 13.88702 348.411266 
L 17.265601 349.913408 
L 20.644183 350.682028 
L 24.022765 351.617051 
L 34.15851 351.616194 
L 37.537092 349.922813 
L 40.915673 348.838886 
L 44.294255 348.125408 
L 47.672837 347.676339 
L 51.051418 346.416446 
L 54.43 351.616968 
L 57.808582 351.616534 
L 61.187163 351.249039 
L 64.565745 351.079274 
L 67.944327 351.236744 
L 71.322908 351.616752 
L 94.97298 351.61701 
L 98.351562 351.128041 
L 101.730144 350.37477 
L 105.108725 349.263205 
L 115.24447 347.462518 
L 118.623052 346.280638 
L 122.001634 344.697577 
L 132.137379 339.114137 
L 135.515961 335.720663 
L 138.894542 333.465965 
L 142.273124 331.695226 
L 145.651706 330.318762 
L 149.030287 329.25116 
L 155.787451 327.629306 
L 162.544614 326.447525 
L 169.301777 325.628131 
L 172.680359 325.372034 
L 179.437523 325.202166 
L 182.816104 325.277457 
L 189.573268 326.013085 
L 196.330431 326.913631 
L 199.709013 327.47848 
L 203.087594 328.205194 
L 206.466176 329.33883 
L 209.844758 330.724513 
L 213.223339 332.331353 
L 216.601921 334.14607 
L 226.737666 339.938494 
L 233.49483 343.156774 
L 236.873411 344.808666 
L 240.251993 346.908801 
L 243.630575 350.217341 
L 247.009156 351.617051 
L 250.387738 351.025214 
L 253.76632 349.673938 
L 257.144901 345.845472 
L 260.523483 342.791131 
L 263.902065 339.96403 
L 267.280646 337.289101 
L 270.659228 334.818979 
L 274.03781 332.802743 
L 277.416392 331.050945 
L 280.794973 329.800584 
L 284.173555 329.03684 
L 287.552137 328.898917 
L 287.552137 328.898917 
" clip-path="url(#p89043429a3)" style="fill: none; stroke: #ffcc33; stroke-width: 1.5; stroke-linecap: square"/>
   </g>
   <g id="line2d_43">
    <path d="M -1 344.691209 
L 0.372693 344.205375 
L 3.751275 343.699388 
L 13.88702 342.681997 
L 24.022765 341.257134 
L 30.779928 340.318354 
L 34.15851 339.781678 
L 40.915673 338.019863 
L 44.294255 337.471241 
L 47.672837 337.272594 
L 51.051418 337.294574 
L 54.43 344.887421 
L 61.187163 346.686223 
L 67.944327 348.3012 
L 71.322908 349.608631 
L 81.458654 349.909258 
L 88.215817 350.346209 
L 94.97298 350.84751 
L 101.730144 350.935604 
L 105.108725 350.686604 
L 115.24447 349.671935 
L 118.623052 349.575523 
L 125.380215 349.838918 
L 132.137379 350.158861 
L 135.515961 348.749763 
L 138.894542 348.11235 
L 142.273124 347.677418 
L 145.651706 347.431302 
L 155.787451 347.270154 
L 159.166032 347.761851 
L 165.923196 347.858939 
L 172.680359 348.215417 
L 176.058941 348.536 
L 179.437523 349.038851 
L 182.816104 349.703567 
L 196.330431 348.149599 
L 203.087594 346.890273 
L 206.466176 344.648802 
L 209.844758 343.071436 
L 213.223339 341.749215 
L 219.980503 339.552645 
L 236.873411 334.793808 
L 240.251993 334.255635 
L 243.630575 334.249749 
L 250.387738 334.547102 
L 253.76632 335.000944 
L 257.144901 336.403594 
L 260.523483 338.231675 
L 263.902065 340.222685 
L 267.280646 342.3909 
L 270.659228 345.216083 
L 274.03781 346.725886 
L 277.416392 348.507879 
L 284.173555 351.617048 
L 287.552137 351.617044 
L 287.552137 351.617044 
" clip-path="url(#p89043429a3)" style="fill: none; stroke: #ff0000; stroke-width: 1.5; stroke-linecap: square"/>
   </g>
   <g id="line2d_44">
    <path d="M -1 339.125832 
L 7.129856 339.858966 
L 13.88702 340.534682 
L 17.265601 340.945891 
L 20.644183 341.510694 
L 24.022765 342.346668 
L 27.401346 343.553036 
L 30.779928 345.537715 
L 34.15851 347.863424 
L 37.537092 348.672194 
L 40.915673 349.602159 
L 44.294255 350.748355 
L 47.672837 351.615833 
L 51.051418 350.67975 
L 54.43 350.168284 
L 57.808582 350.600722 
L 61.187163 351.417554 
L 64.565745 351.61462 
L 132.137379 351.617051 
L 135.515961 350.823268 
L 138.894542 350.220091 
L 142.273124 349.866463 
L 149.030287 349.521237 
L 155.787451 349.499474 
L 165.923196 349.816754 
L 176.058941 350.374149 
L 179.437523 350.628192 
L 182.816104 350.370705 
L 186.194686 350.664762 
L 196.330431 349.878854 
L 203.087594 349.618358 
L 206.466176 349.65775 
L 213.223339 350.038666 
L 219.980503 350.23821 
L 223.359084 350.616844 
L 226.737666 351.550267 
L 233.49483 351.616354 
L 267.280646 351.617051 
L 274.03781 350.824738 
L 277.416392 349.611883 
L 280.794973 346.435974 
L 284.173555 344.394722 
L 287.552137 343.237282 
L 287.552137 343.237282 
" clip-path="url(#p89043429a3)" style="fill: none; stroke: #0000ff; stroke-width: 1.5; stroke-linecap: square"/>
   </g>
   <g id="line2d_45">
    <path d="M -1 350.368728 
L 0.372693 350.303167 
L 13.88702 348.777952 
L 17.265601 348.525456 
L 20.644183 347.624122 
L 24.022765 346.883067 
L 27.401346 346.35103 
L 30.779928 345.967953 
L 34.15851 346.003962 
L 37.537092 346.286052 
L 40.915673 345.436091 
L 44.294255 345.405343 
L 47.672837 345.723693 
L 51.051418 345.685035 
L 54.43 348.799339 
L 57.808582 347.897974 
L 61.187163 347.563197 
L 64.565745 347.534245 
L 67.944327 347.752254 
L 71.322908 348.178067 
L 78.080072 348.671283 
L 84.837235 348.321113 
L 88.215817 348.295871 
L 91.594399 348.41156 
L 94.97298 348.743625 
L 98.351562 349.714928 
L 101.730144 349.81405 
L 105.108725 349.232707 
L 108.487307 348.470369 
L 111.865889 347.925932 
L 115.24447 347.518581 
L 118.623052 347.266746 
L 122.001634 347.212406 
L 125.380215 347.388228 
L 128.758797 347.801944 
L 132.137379 348.423068 
L 135.515961 349.204488 
L 142.273124 351.175434 
L 145.651706 351.417048 
L 149.030287 351.227368 
L 162.544614 350.006924 
L 165.923196 349.166987 
L 169.301777 348.585631 
L 176.058941 347.715223 
L 186.194686 346.671095 
L 192.951849 346.315951 
L 196.330431 346.315047 
L 199.709013 346.450918 
L 203.087594 346.736022 
L 206.466176 347.217569 
L 209.844758 348.410471 
L 216.601921 348.97682 
L 219.980503 349.424289 
L 223.359084 350.014389 
L 226.737666 350.9783 
L 230.116248 351.616364 
L 247.009156 351.617051 
L 250.387738 350.856795 
L 253.76632 350.524401 
L 257.144901 350.467475 
L 260.523483 350.585422 
L 263.902065 350.8809 
L 267.280646 351.61705 
L 274.03781 351.617051 
L 277.416392 351.128924 
L 280.794973 348.10223 
L 284.173555 346.169846 
L 287.552137 345.151714 
L 287.552137 345.151714 
" clip-path="url(#p89043429a3)" style="fill: none; stroke: #ff00ff; stroke-width: 1.5; stroke-linecap: square"/>
   </g>
   <g id="line2d_46">
    <path d="M 54.43 351.617051 
L 290.930718 351.617051 
" clip-path="url(#p89043429a3)" style="fill: none; stroke: #000000; stroke-width: 0.8; stroke-linecap: square"/>
   </g>
   <g id="line2d_47">
    <path d="M -1 336.632812 
L 3.751275 335.886732 
L 7.129856 335.442775 
L 10.508438 335.115179 
L 17.265601 334.803815 
L 24.022765 334.806343 
L 44.294255 335.299346 
L 47.672837 335.661384 
L 51.051418 336.396873 
L 54.43 348.86022 
M 125.380215 349.64501 
L 128.758797 342.347515 
L 132.137379 338.056336 
L 135.515961 334.554264 
L 138.894542 331.616216 
L 142.273124 329.192892 
L 145.651706 327.249456 
L 149.030287 325.714192 
L 152.408869 324.500253 
L 155.787451 323.535067 
L 159.166032 322.767837 
L 162.544614 322.174273 
L 165.923196 321.745944 
L 169.301777 321.476371 
L 172.680359 321.366501 
L 176.058941 321.415722 
L 179.437523 321.618936 
L 182.816104 321.971636 
L 186.194686 322.466349 
L 189.573268 323.095546 
L 192.951849 323.847685 
L 196.330431 324.713773 
L 199.709013 325.698108 
L 203.087594 326.814693 
L 206.466176 328.081049 
L 209.844758 329.512848 
L 219.980503 334.360761 
L 223.359084 335.633034 
L 226.737666 336.326856 
L 230.116248 336.285922 
L 233.49483 335.633254 
L 236.873411 334.757519 
L 240.251993 334.076507 
L 243.630575 333.77092 
L 250.387738 333.585886 
L 253.76632 333.180595 
L 257.144901 332.435421 
L 260.523483 331.383487 
L 263.902065 330.070139 
L 267.280646 328.535811 
L 274.03781 325.185843 
L 277.416392 323.651294 
L 280.794973 322.367472 
L 284.173555 321.398988 
L 287.552137 320.752841 
L 287.552137 320.752841 
" clip-path="url(#p89043429a3)" style="fill: none; stroke-dasharray: 5.55,2.4; stroke-dashoffset: 0; stroke: #000000; stroke-width: 1.5"/>
   </g>
   <g id="line2d_48">
    <path d="M 155.787451 352.449881 
L 155.787451 299.565179 
" clip-path="url(#p89043429a3)" style="fill: none; stroke: #000000; stroke-width: 0.8; stroke-linecap: square"/>
   </g>
   <g id="patch_12">
    <path d="M 54.43 351.617051 
L 54.43 299.565179 
" style="fill: none; stroke: #000000; stroke-width: 0.8; stroke-linejoin: miter; stroke-linecap: square"/>
   </g>
   <g id="text_12">
    <!-- alpha -->
    <g transform="translate(156.048172 293.565179) scale(0.12 -0.12)">
     <use xlink:href="#DejaVuSans-61"/>
     <use xlink:href="#DejaVuSans-6c" transform="translate(61.279297 0)"/>
     <use xlink:href="#DejaVuSans-70" transform="translate(89.0625 0)"/>
     <use xlink:href="#DejaVuSans-68" transform="translate(152.539062 0)"/>
     <use xlink:href="#DejaVuSans-61" transform="translate(215.917969 0)"/>
    </g>
   </g>
  </g>
  <g id="axes_8">
   <g id="patch_13">
    <path d="M 304.519466 352.449881 
L 343.936252 352.449881 
L 343.936252 299.565179 
L 304.519466 299.565179 
z
" style="fill: #ffffff"/>
   </g>
   <g id="matplotlib.axis_15">
    <g id="xtick_11"/>
    <g id="xtick_12"/>
   </g>
   <g id="matplotlib.axis_16">
    <g id="ytick_15"/>
    <g id="ytick_16"/>
   </g>
   <g id="line2d_49">
    <path d="M 310.150435 345.585812 
L 338.305283 334.191677 
" clip-path="url(#pc5c696ab06)" style="fill: none; stroke: #ffcc33; stroke-width: 1.5; stroke-linecap: square"/>
    <g clip-path="url(#pc5c696ab06)">
     <use xlink:href="#mfd5bc818af" x="310.150435" y="345.585812" style="fill: #ffcc33; stroke: #ffcc33; stroke-linejoin: miter"/>
     <use xlink:href="#mfd5bc818af" x="338.305283" y="334.191677" style="fill: #ffcc33; stroke: #ffcc33; stroke-linejoin: miter"/>
    </g>
   </g>
   <g id="line2d_50">
    <path d="M 310.150435 349.080817 
L 338.305283 342.757506 
" clip-path="url(#pc5c696ab06)" style="fill: none; stroke: #ff0000; stroke-width: 1.5; stroke-linecap: square"/>
    <g clip-path="url(#pc5c696ab06)">
     <use xlink:href="#m85a1f96953" x="310.150435" y="349.080817" style="fill: #ff0000; stroke: #ff0000; stroke-linejoin: miter"/>
     <use xlink:href="#m85a1f96953" x="338.305283" y="342.757506" style="fill: #ff0000; stroke: #ff0000; stroke-linejoin: miter"/>
    </g>
   </g>
   <g id="line2d_51">
    <path d="M 310.150435 351.189704 
L 338.305283 350.550507 
" clip-path="url(#pc5c696ab06)" style="fill: none; stroke: #0000ff; stroke-width: 1.5; stroke-linecap: square"/>
    <g clip-path="url(#pc5c696ab06)">
     <use xlink:href="#m2f84459d4c" x="310.150435" y="351.189704" style="fill: #0000ff; stroke: #0000ff; stroke-linejoin: miter"/>
     <use xlink:href="#m2f84459d4c" x="338.305283" y="350.550507" style="fill: #0000ff; stroke: #0000ff; stroke-linejoin: miter"/>
    </g>
   </g>
   <g id="line2d_52">
    <path d="M 310.150435 348.727538 
L 338.305283 349.126655 
" clip-path="url(#pc5c696ab06)" style="fill: none; stroke: #ff00ff; stroke-width: 1.5; stroke-linecap: square"/>
    <g clip-path="url(#pc5c696ab06)">
     <use xlink:href="#m7143ca9f24" x="310.150435" y="348.727538" style="fill: #ff00ff; stroke: #ff00ff; stroke-linejoin: miter"/>
     <use xlink:href="#m7143ca9f24" x="338.305283" y="349.126655" style="fill: #ff00ff; stroke: #ff00ff; stroke-linejoin: miter"/>
    </g>
   </g>
  </g>
  <g id="axes_9">
   <g id="patch_14">
    <path d="M 54.43 435.42494 
L 290.930718 435.42494 
L 290.930718 382.540239 
L 54.43 382.540239 
z
" style="fill: #ffffff"/>
   </g>
   <g id="matplotlib.axis_17">
    <g id="xtick_13"/>
   </g>
   <g id="matplotlib.axis_18">
    <g id="ytick_17">
     <g id="line2d_53">
      <g>
       <use xlink:href="#mde2995f3b1" x="54.43" y="434.59211" style="stroke: #000000; stroke-width: 0.8"/>
      </g>
     </g>
     <g id="text_13">
      <!-- 0.0 -->
      <g transform="translate(31.526875 438.391329) scale(0.1 -0.1)">
       <use xlink:href="#DejaVuSans-30"/>
       <use xlink:href="#DejaVuSans-2e" transform="translate(63.623047 0)"/>
       <use xlink:href="#DejaVuSans-30" transform="translate(95.410156 0)"/>
      </g>
     </g>
    </g>
    <g id="ytick_18">
     <g id="line2d_54">
      <g>
       <use xlink:href="#mde2995f3b1" x="54.43" y="382.540239" style="stroke: #000000; stroke-width: 0.8"/>
      </g>
     </g>
     <g id="text_14">
      <!-- 0.5 -->
      <g transform="translate(31.526875 386.339457) scale(0.1 -0.1)">
       <use xlink:href="#DejaVuSans-30"/>
       <use xlink:href="#DejaVuSans-2e" transform="translate(63.623047 0)"/>
       <use xlink:href="#DejaVuSans-35" transform="translate(95.410156 0)"/>
      </g>
     </g>
    </g>
   </g>
   <g id="line2d_55">
    <path d="M -1 434.050153 
L 0.372693 434.120169 
L 3.751275 433.749957 
L 7.129856 433.558873 
L 10.508438 433.738701 
L 13.88702 434.495777 
L 17.265601 434.055542 
L 27.401346 433.635011 
L 30.779928 432.729662 
L 34.15851 431.500791 
L 37.537092 430.955574 
L 40.915673 430.692687 
L 44.294255 430.60206 
L 47.672837 430.700714 
L 54.43 431.661865 
L 57.808582 431.09124 
L 61.187163 431.029901 
L 64.565745 430.758194 
L 67.944327 430.600276 
L 74.70149 429.877129 
L 78.080072 429.71613 
L 81.458654 429.781365 
L 98.351562 431.080769 
L 105.108725 431.852085 
L 108.487307 431.982377 
L 111.865889 431.749719 
L 115.24447 432.060635 
L 122.001634 433.336086 
L 128.758797 433.891072 
L 132.137379 433.91968 
L 138.894542 432.931659 
L 145.651706 430.194573 
L 149.030287 428.288088 
L 152.408869 426.811753 
L 155.787451 424.146305 
L 159.166032 422.2037 
L 162.544614 421.342443 
L 165.923196 421.292556 
L 169.301777 421.639608 
L 172.680359 421.839965 
L 182.816104 421.774445 
L 186.194686 422.481273 
L 189.573268 424.17333 
L 192.951849 426.782123 
L 196.330431 428.231767 
L 199.709013 428.367612 
L 203.087594 427.101381 
L 206.466176 427.377121 
L 209.844758 427.946243 
L 213.223339 428.193346 
L 216.601921 428.922994 
L 219.980503 429.822168 
L 223.359084 430.341444 
L 226.737666 430.669224 
L 230.116248 429.637939 
L 233.49483 429.040833 
L 236.873411 429.320889 
L 240.251993 430.84681 
L 243.630575 431.788817 
L 247.009156 431.191639 
L 250.387738 429.17457 
L 253.76632 427.597509 
L 257.144901 425.714135 
L 260.523483 424.668025 
L 263.902065 423.261369 
L 270.659228 420.915772 
L 277.416392 419.920554 
L 284.173555 417.791431 
L 287.552137 416.562274 
L 287.552137 416.562274 
" clip-path="url(#p7378cc97a5)" style="fill: none; stroke: #ffcc33; stroke-width: 1.5; stroke-linecap: square"/>
   </g>
   <g id="line2d_56">
    <path d="M -1 429.34929 
L 0.372693 429.565491 
L 3.751275 430.580146 
L 13.88702 428.594737 
L 17.265601 427.504968 
L 20.644183 425.693265 
L 24.022765 424.884177 
L 27.401346 424.600495 
L 30.779928 424.828344 
L 34.15851 424.87331 
L 37.537092 424.56198 
L 40.915673 423.844507 
L 47.672837 422.929131 
L 51.051418 421.687305 
L 54.43 423.351356 
L 57.808582 423.710246 
L 61.187163 423.541686 
L 64.565745 423.171182 
L 67.944327 422.662622 
L 78.080072 420.660559 
L 81.458654 420.4635 
L 84.837235 420.639342 
L 88.215817 421.139044 
L 94.97298 422.368305 
L 98.351562 422.824763 
L 101.730144 423.120997 
L 105.108725 423.201424 
L 108.487307 423.011467 
L 111.865889 422.616063 
L 115.24447 422.383317 
L 118.623052 422.575353 
L 122.001634 423.267772 
L 125.380215 424.11525 
L 128.758797 424.76475 
L 132.137379 425.275708 
L 138.894542 425.970745 
L 142.273124 425.838531 
L 152.408869 427.07996 
L 155.787451 427.220333 
L 159.166032 426.861857 
L 165.923196 426.349042 
L 169.301777 426.053546 
L 172.680359 425.938326 
L 176.058941 426.126046 
L 179.437523 426.68296 
L 182.816104 427.69373 
L 186.194686 429.183753 
L 196.330431 432.184528 
L 199.709013 432.809915 
L 203.087594 431.564329 
L 206.466176 431.336268 
L 209.844758 430.606872 
L 213.223339 430.30484 
L 216.601921 430.165413 
L 223.359084 428.363305 
L 226.737666 426.700107 
L 230.116248 426.223993 
L 233.49483 426.35076 
L 236.873411 426.739101 
L 240.251993 427.348644 
L 247.009156 429.893287 
L 250.387738 431.637026 
L 253.76632 431.966327 
L 257.144901 431.974364 
L 260.523483 432.254566 
L 263.902065 432.332536 
L 270.659228 431.470198 
L 274.03781 431.842408 
L 277.416392 432.904843 
L 280.794973 433.355164 
L 284.173555 434.370117 
L 287.552137 434.59211 
L 287.552137 434.59211 
" clip-path="url(#p7378cc97a5)" style="fill: none; stroke: #ff0000; stroke-width: 1.5; stroke-linecap: square"/>
   </g>
   <g id="line2d_57">
    <path d="M -1 432.857564 
L 0.372693 432.883981 
L 10.508438 432.637897 
L 13.88702 431.67771 
L 17.265601 431.666683 
L 24.022765 432.046826 
L 27.401346 432.390967 
L 30.779928 432.919962 
L 34.15851 434.591992 
L 44.294255 434.54359 
L 47.672837 434.193798 
L 51.051418 434.006796 
L 54.43 431.281133 
L 61.187163 431.462032 
L 64.565745 430.961871 
L 67.944327 431.305498 
L 71.322908 432.228903 
L 74.70149 432.464052 
L 81.458654 433.575028 
L 84.837235 433.075294 
L 91.594399 432.427144 
L 98.351562 431.279536 
L 101.730144 430.369342 
L 111.865889 426.657309 
L 115.24447 425.81472 
L 122.001634 423.227111 
L 125.380215 422.726394 
L 128.758797 423.117571 
L 132.137379 423.346723 
L 135.515961 424.326365 
L 142.273124 429.479127 
L 145.651706 432.637403 
L 149.030287 433.298825 
L 152.408869 433.425625 
L 155.787451 432.973311 
L 159.166032 433.699113 
L 162.544614 433.531805 
L 165.923196 432.996327 
L 169.301777 432.242594 
L 172.680359 433.425467 
L 176.058941 433.921024 
L 179.437523 434.591411 
L 182.816104 434.591467 
L 186.194686 434.006689 
L 189.573268 433.710214 
L 192.951849 433.640482 
L 199.709013 433.956901 
L 206.466176 433.815653 
L 209.844758 433.853532 
L 213.223339 434.008704 
L 216.601921 434.591144 
L 219.980503 434.591533 
L 223.359084 434.074988 
L 226.737666 433.842476 
L 230.116248 433.857142 
L 233.49483 434.592071 
L 267.280646 434.527309 
L 270.659228 433.696369 
L 274.03781 433.913542 
L 277.416392 433.626456 
L 284.173555 433.454054 
L 287.552137 433.502817 
L 287.552137 433.502817 
" clip-path="url(#p7378cc97a5)" style="fill: none; stroke: #0000ff; stroke-width: 1.5; stroke-linecap: square"/>
   </g>
   <g id="line2d_58">
    <path d="M -1 434.592109 
L 0.372693 434.59211 
L 3.751275 434.038535 
L 10.508438 433.575536 
L 13.88702 431.995453 
L 17.265601 431.821512 
L 20.644183 431.94791 
L 24.022765 432.224463 
L 30.779928 433.072795 
L 34.15851 433.924696 
L 47.672837 432.347723 
L 51.051418 432.253469 
L 54.43 431.353366 
L 57.808582 431.018525 
L 64.565745 430.783416 
L 71.322908 431.281051 
L 74.70149 431.458904 
L 81.458654 432.537371 
L 84.837235 432.33843 
L 88.215817 432.48242 
L 94.97298 434.047024 
L 98.351562 434.190988 
L 101.730144 434.496755 
L 108.487307 434.591751 
L 115.24447 434.592109 
L 118.623052 432.905314 
L 122.001634 431.90695 
L 125.380215 431.373328 
L 128.758797 431.02805 
L 132.137379 430.835424 
L 135.515961 430.916726 
L 138.894542 432.376928 
L 142.273124 432.022681 
L 145.651706 430.896148 
L 149.030287 430.981896 
L 152.408869 431.858482 
L 155.787451 432.597677 
L 159.166032 434.591818 
L 169.301777 434.59211 
L 176.058941 431.620924 
L 179.437523 430.939925 
L 189.573268 429.786111 
L 192.951849 430.054546 
L 196.330431 430.836274 
L 213.223339 433.593219 
L 216.601921 432.592858 
L 219.980503 431.29773 
L 223.359084 430.651601 
L 226.737666 430.754554 
L 230.116248 429.931149 
L 233.49483 429.237458 
L 236.873411 429.169586 
L 240.251993 429.471744 
L 243.630575 430.231188 
L 247.009156 431.679695 
L 250.387738 432.656571 
L 253.76632 433.341505 
L 257.144901 433.367954 
L 260.523483 432.817108 
L 263.902065 432.650683 
L 267.280646 432.074904 
L 270.659228 432.080041 
L 274.03781 431.263889 
L 277.416392 430.594506 
L 280.794973 430.092859 
L 284.173555 429.787953 
L 287.552137 429.652996 
L 287.552137 429.652996 
" clip-path="url(#p7378cc97a5)" style="fill: none; stroke: #ff00ff; stroke-width: 1.5; stroke-linecap: square"/>
   </g>
   <g id="line2d_59">
    <path d="M 54.43 434.59211 
L 290.930718 434.59211 
" clip-path="url(#p7378cc97a5)" style="fill: none; stroke: #000000; stroke-width: 0.8; stroke-linecap: square"/>
   </g>
   <g id="line2d_60">
    <path d="M 27.401346 430.32292 
L 30.779928 427.579963 
L 34.15851 425.146511 
L 37.537092 423.0154 
L 40.915673 421.237846 
L 44.294255 419.991961 
L 47.672837 419.293122 
L 54.43 418.202276 
L 61.187163 418.423428 
L 67.944327 418.380966 
L 71.322908 418.10816 
L 74.70149 417.691157 
L 78.080072 417.508484 
L 81.458654 417.82834 
L 84.837235 418.640049 
L 91.594399 420.965759 
L 94.97298 421.866239 
L 98.351562 422.269193 
L 101.730144 422.093944 
L 105.108725 421.313133 
L 108.487307 419.963875 
L 111.865889 418.365373 
L 115.24447 417.079075 
L 118.623052 416.544526 
L 122.001634 416.913842 
L 125.380215 417.910996 
L 132.137379 420.153418 
L 135.515961 421.619654 
L 138.894542 423.520946 
L 142.273124 424.974285 
L 145.651706 425.259564 
L 149.030287 424.414755 
L 155.787451 421.735105 
L 159.166032 420.706351 
L 162.544614 420.02819 
L 165.923196 419.598561 
L 169.301777 419.417308 
L 172.680359 419.105018 
L 176.058941 418.493121 
L 179.437523 418.023822 
L 182.816104 418.183451 
L 186.194686 419.213937 
L 189.573268 421.398958 
L 192.951849 424.474951 
L 196.330431 426.74986 
L 199.709013 426.132196 
L 203.087594 424.897873 
L 206.466176 425.366498 
L 209.844758 427.545483 
L 213.223339 431.443673 
M 223.359084 430.284495 
L 226.737666 426.460134 
L 230.116248 424.014627 
L 233.49483 422.623334 
L 236.873411 421.931463 
L 240.251993 422.193065 
L 243.630575 424.240586 
L 247.009156 428.527913 
M 257.144901 431.408427 
L 260.523483 427.731778 
L 263.902065 424.584035 
L 267.280646 421.921395 
L 270.659228 420.166048 
L 274.03781 419.273874 
L 280.794973 417.863275 
L 287.552137 416.298934 
L 287.552137 416.298934 
" clip-path="url(#p7378cc97a5)" style="fill: none; stroke-dasharray: 5.55,2.4; stroke-dashoffset: 0; stroke: #000000; stroke-width: 1.5"/>
   </g>
   <g id="line2d_61">
    <path d="M 155.787451 435.42494 
L 155.787451 382.540239 
" clip-path="url(#p7378cc97a5)" style="fill: none; stroke: #000000; stroke-width: 0.8; stroke-linecap: square"/>
   </g>
   <g id="patch_15">
    <path d="M 54.43 434.59211 
L 54.43 382.540239 
" style="fill: none; stroke: #000000; stroke-width: 0.8; stroke-linejoin: miter; stroke-linecap: square"/>
   </g>
   <g id="text_15">
    <!-- beta -->
    <g transform="translate(159.150359 376.540239) scale(0.12 -0.12)">
     <use xlink:href="#DejaVuSans-62"/>
     <use xlink:href="#DejaVuSans-65" transform="translate(63.476562 0)"/>
     <use xlink:href="#DejaVuSans-74" transform="translate(125 0)"/>
     <use xlink:href="#DejaVuSans-61" transform="translate(164.208984 0)"/>
    </g>
   </g>
  </g>
  <g id="axes_10">
   <g id="patch_16">
    <path d="M 304.519466 435.42494 
L 343.936252 435.42494 
L 343.936252 382.540239 
L 304.519466 382.540239 
z
" style="fill: #ffffff"/>
   </g>
   <g id="matplotlib.axis_19">
    <g id="xtick_14"/>
    <g id="xtick_15"/>
   </g>
   <g id="matplotlib.axis_20">
    <g id="ytick_19"/>
    <g id="ytick_20"/>
   </g>
   <g id="line2d_62">
    <path d="M 310.150435 431.248708 
L 338.305283 426.530977 
" clip-path="url(#pdc33b17bff)" style="fill: none; stroke: #ffcc33; stroke-width: 1.5; stroke-linecap: square"/>
    <g clip-path="url(#pdc33b17bff)">
     <use xlink:href="#mfd5bc818af" x="310.150435" y="431.248708" style="fill: #ffcc33; stroke: #ffcc33; stroke-linejoin: miter"/>
     <use xlink:href="#mfd5bc818af" x="338.305283" y="426.530977" style="fill: #ffcc33; stroke: #ffcc33; stroke-linejoin: miter"/>
    </g>
   </g>
   <g id="line2d_63">
    <path d="M 310.150435 423.376313 
L 338.305283 428.84456 
" clip-path="url(#pdc33b17bff)" style="fill: none; stroke: #ff0000; stroke-width: 1.5; stroke-linecap: square"/>
    <g clip-path="url(#pdc33b17bff)">
     <use xlink:href="#m85a1f96953" x="310.150435" y="423.376313" style="fill: #ff0000; stroke: #ff0000; stroke-linejoin: miter"/>
     <use xlink:href="#m85a1f96953" x="338.305283" y="428.84456" style="fill: #ff0000; stroke: #ff0000; stroke-linejoin: miter"/>
    </g>
   </g>
   <g id="line2d_64">
    <path d="M 310.150435 429.524711 
L 338.305283 434.010286 
" clip-path="url(#pdc33b17bff)" style="fill: none; stroke: #0000ff; stroke-width: 1.5; stroke-linecap: square"/>
    <g clip-path="url(#pdc33b17bff)">
     <use xlink:href="#m2f84459d4c" x="310.150435" y="429.524711" style="fill: #0000ff; stroke: #0000ff; stroke-linejoin: miter"/>
     <use xlink:href="#m2f84459d4c" x="338.305283" y="434.010286" style="fill: #0000ff; stroke: #0000ff; stroke-linejoin: miter"/>
    </g>
   </g>
   <g id="line2d_65">
    <path d="M 310.150435 432.292824 
L 338.305283 431.78051 
" clip-path="url(#pdc33b17bff)" style="fill: none; stroke: #ff00ff; stroke-width: 1.5; stroke-linecap: square"/>
    <g clip-path="url(#pdc33b17bff)">
     <use xlink:href="#m7143ca9f24" x="310.150435" y="432.292824" style="fill: #ff00ff; stroke: #ff00ff; stroke-linejoin: miter"/>
     <use xlink:href="#m7143ca9f24" x="338.305283" y="431.78051" style="fill: #ff00ff; stroke: #ff00ff; stroke-linejoin: miter"/>
    </g>
   </g>
  </g>
  <g id="axes_11">
   <g id="patch_17">
    <path d="M 54.43 518.4 
L 290.930718 518.4 
L 290.930718 465.515298 
L 54.43 465.515298 
z
" style="fill: #ffffff"/>
   </g>
   <g id="matplotlib.axis_21">
    <g id="xtick_16">
     <g id="text_16">
      <!-- Pert -->
      <g transform="translate(145.861669 532.998437) scale(0.1 -0.1)">
       <defs>
        <path id="DejaVuSans-50" d="M 1259 4147 
L 1259 2394 
L 2053 2394 
Q 2494 2394 2734 2622 
Q 2975 2850 2975 3272 
Q 2975 3691 2734 3919 
Q 2494 4147 2053 4147 
L 1259 4147 
z
M 628 4666 
L 2053 4666 
Q 2838 4666 3239 4311 
Q 3641 3956 3641 3272 
Q 3641 2581 3239 2228 
Q 2838 1875 2053 1875 
L 1259 1875 
L 1259 0 
L 628 0 
L 628 4666 
z
" transform="scale(0.015625)"/>
        <path id="DejaVuSans-72" d="M 2631 2963 
Q 2534 3019 2420 3045 
Q 2306 3072 2169 3072 
Q 1681 3072 1420 2755 
Q 1159 2438 1159 1844 
L 1159 0 
L 581 0 
L 581 3500 
L 1159 3500 
L 1159 2956 
Q 1341 3275 1631 3429 
Q 1922 3584 2338 3584 
Q 2397 3584 2469 3576 
Q 2541 3569 2628 3553 
L 2631 2963 
z
" transform="scale(0.015625)"/>
       </defs>
       <use xlink:href="#DejaVuSans-50"/>
       <use xlink:href="#DejaVuSans-65" transform="translate(56.677734 0)"/>
       <use xlink:href="#DejaVuSans-72" transform="translate(118.201172 0)"/>
       <use xlink:href="#DejaVuSans-74" transform="translate(159.314453 0)"/>
      </g>
     </g>
    </g>
   </g>
   <g id="matplotlib.axis_22">
    <g id="ytick_21">
     <g id="line2d_66">
      <g>
       <use xlink:href="#mde2995f3b1" x="54.43" y="517.56717" style="stroke: #000000; stroke-width: 0.8"/>
      </g>
     </g>
     <g id="text_17">
      <!-- 0.0 -->
      <g transform="translate(31.526875 521.366389) scale(0.1 -0.1)">
       <use xlink:href="#DejaVuSans-30"/>
       <use xlink:href="#DejaVuSans-2e" transform="translate(63.623047 0)"/>
       <use xlink:href="#DejaVuSans-30" transform="translate(95.410156 0)"/>
      </g>
     </g>
    </g>
    <g id="ytick_22">
     <g id="line2d_67">
      <g>
       <use xlink:href="#mde2995f3b1" x="54.43" y="465.515298" style="stroke: #000000; stroke-width: 0.8"/>
      </g>
     </g>
     <g id="text_18">
      <!-- 0.5 -->
      <g transform="translate(31.526875 469.314517) scale(0.1 -0.1)">
       <use xlink:href="#DejaVuSans-30"/>
       <use xlink:href="#DejaVuSans-2e" transform="translate(63.623047 0)"/>
       <use xlink:href="#DejaVuSans-35" transform="translate(95.410156 0)"/>
      </g>
     </g>
    </g>
   </g>
   <g id="line2d_68">
    <path d="M -1 514.50295 
L 0.372693 514.856858 
L 7.129856 514.590764 
L 13.88702 515.832368 
L 17.265601 514.645823 
L 20.644183 515.16597 
L 24.022765 517.137908 
L 27.401346 515.968528 
L 30.779928 516.57406 
L 34.15851 515.42427 
L 37.537092 516.690368 
L 40.915673 517.363903 
L 44.294255 517.567169 
L 47.672837 515.82084 
L 51.051418 515.98391 
L 57.808582 517.566714 
L 61.187163 517.566926 
L 74.70149 514.675135 
L 78.080072 514.784417 
L 81.458654 513.623794 
L 84.837235 514.532761 
L 88.215817 516.057992 
L 91.594399 515.480435 
L 94.97298 515.246294 
L 98.351562 513.167527 
L 101.730144 511.776505 
L 105.108725 510.211212 
L 108.487307 511.477881 
L 111.865889 511.238946 
L 115.24447 512.330839 
L 118.623052 514.013914 
L 122.001634 513.671963 
L 125.380215 515.333763 
L 132.137379 516.618982 
L 135.515961 517.296892 
L 138.894542 516.556976 
L 142.273124 513.928649 
L 149.030287 516.580065 
L 152.408869 515.272302 
L 155.787451 515.859807 
L 159.166032 515.912885 
L 162.544614 511.339963 
L 165.923196 512.544123 
L 172.680359 509.879432 
L 179.437523 511.936477 
L 182.816104 512.09303 
L 186.194686 512.626338 
L 189.573268 510.161566 
L 192.951849 509.865419 
L 196.330431 513.89372 
L 199.709013 516.439682 
L 203.087594 515.050919 
L 206.466176 512.286072 
L 209.844758 509.952902 
L 213.223339 508.613464 
L 216.601921 509.256562 
L 219.980503 509.593881 
L 223.359084 509.61306 
L 226.737666 509.259081 
L 230.116248 509.725397 
L 233.49483 509.957683 
L 236.873411 511.642589 
L 240.251993 514.747279 
L 243.630575 513.076168 
L 247.009156 513.559807 
L 250.387738 514.721872 
L 253.76632 514.545807 
L 257.144901 513.639162 
L 260.523483 514.493538 
L 263.902065 513.424448 
L 267.280646 512.979492 
L 270.659228 511.944983 
L 274.03781 509.843366 
L 277.416392 511.882269 
L 280.794973 511.858478 
L 287.552137 510.100656 
L 287.552137 510.100656 
" clip-path="url(#p820317f0b5)" style="fill: none; stroke: #ffcc33; stroke-width: 1.5; stroke-linecap: square"/>
   </g>
   <g id="line2d_69">
    <path d="M -1 513.658359 
L 0.372693 513.334711 
L 3.751275 512.871223 
L 7.129856 512.029573 
L 10.508438 513.499622 
L 13.88702 515.304536 
L 17.265601 515.184055 
L 20.644183 514.875615 
L 24.022765 514.691719 
L 27.401346 512.989283 
L 30.779928 512.862432 
L 34.15851 514.422583 
L 37.537092 514.083734 
L 40.915673 514.220772 
L 44.294255 513.146714 
L 47.672837 513.012098 
L 51.051418 514.389272 
L 54.43 516.105544 
L 57.808582 517.566805 
L 61.187163 516.97863 
L 64.565745 515.755642 
L 71.322908 515.735454 
L 74.70149 516.747693 
L 78.080072 516.073129 
L 81.458654 514.686211 
L 84.837235 516.077828 
L 88.215817 516.408571 
L 91.594399 516.475928 
L 94.97298 515.983672 
L 98.351562 515.745569 
L 101.730144 515.726996 
L 105.108725 516.96626 
L 108.487307 517.312213 
L 111.865889 516.672929 
L 115.24447 515.832071 
L 118.623052 515.733473 
L 122.001634 514.479231 
L 125.380215 512.736637 
L 128.758797 512.511148 
L 132.137379 513.815088 
L 135.515961 515.666912 
L 138.894542 515.334322 
L 142.273124 514.735144 
L 145.651706 513.708573 
L 149.030287 513.553871 
L 152.408869 514.127564 
L 155.787451 515.701009 
L 159.166032 515.956846 
L 162.544614 515.471916 
L 165.923196 515.316755 
L 169.301777 514.971596 
L 172.680359 514.898554 
L 176.058941 514.635643 
L 179.437523 517.176311 
L 182.816104 515.061201 
L 189.573268 509.874116 
L 192.951849 510.042657 
L 196.330431 511.799467 
L 199.709013 513.210757 
L 203.087594 515.393148 
L 206.466176 515.184468 
L 209.844758 514.628663 
L 213.223339 514.289922 
L 216.601921 515.600744 
L 219.980503 516.69551 
L 230.116248 514.492267 
L 233.49483 514.823071 
L 236.873411 516.581687 
L 240.251993 515.775383 
L 243.630575 511.603762 
L 247.009156 511.535914 
L 250.387738 514.624535 
L 253.76632 513.156204 
L 257.144901 514.239633 
L 260.523483 516.684331 
L 263.902065 517.063482 
L 270.659228 515.813642 
L 274.03781 516.151177 
L 277.416392 517.567158 
L 280.794973 517.319985 
L 284.173555 516.720915 
L 287.552137 516.745486 
L 287.552137 516.745486 
" clip-path="url(#p820317f0b5)" style="fill: none; stroke: #ff0000; stroke-width: 1.5; stroke-linecap: square"/>
   </g>
   <g id="line2d_70">
    <path d="M -1 512.197007 
L 0.372693 511.623883 
L 3.751275 513.014522 
L 7.129856 513.637438 
L 10.508438 512.666727 
L 13.88702 515.548958 
L 17.265601 516.162838 
L 20.644183 517.567166 
L 30.779928 517.566866 
L 37.537092 517.313732 
L 40.915673 517.178399 
L 44.294255 516.498993 
L 47.672837 517.13221 
L 51.051418 517.070736 
L 54.43 517.56717 
L 57.808582 517.566392 
L 61.187163 516.051912 
L 64.565745 516.32129 
L 67.944327 517.003645 
L 71.322908 517.054473 
L 74.70149 517.564104 
L 81.458654 517.566779 
L 84.837235 517.056017 
L 88.215817 517.145169 
L 91.594399 516.421696 
L 98.351562 515.966943 
L 101.730144 517.120596 
L 105.108725 517.56717 
L 111.865889 517.56717 
L 115.24447 517.424552 
L 118.623052 517.567169 
L 122.001634 515.948413 
L 125.380215 515.034992 
L 128.758797 513.532841 
L 132.137379 512.254093 
L 135.515961 513.705089 
L 138.894542 515.748848 
L 142.273124 517.033399 
L 145.651706 517.125241 
L 149.030287 517.56584 
L 152.408869 517.565737 
L 155.787451 515.89616 
L 159.166032 517.250706 
L 162.544614 517.56717 
L 165.923196 517.253099 
L 172.680359 513.972906 
L 176.058941 513.746582 
L 179.437523 513.168794 
L 182.816104 514.502888 
L 186.194686 516.941258 
L 189.573268 516.662429 
L 192.951849 516.735032 
L 196.330431 516.481313 
L 199.709013 516.991288 
L 203.087594 516.841611 
L 206.466176 514.95337 
L 209.844758 515.393314 
L 213.223339 515.670784 
L 216.601921 516.87988 
L 219.980503 517.010353 
L 223.359084 517.565655 
L 226.737666 517.273784 
L 230.116248 516.864304 
L 233.49483 517.1596 
L 236.873411 516.651477 
L 240.251993 516.901833 
L 243.630575 517.566688 
L 257.144901 517.567142 
L 260.523483 517.058791 
L 263.902065 514.872482 
L 267.280646 514.716865 
L 270.659228 517.566987 
L 277.416392 517.239113 
L 280.794973 517.565039 
L 287.552137 517.566421 
L 287.552137 517.566421 
" clip-path="url(#p820317f0b5)" style="fill: none; stroke: #0000ff; stroke-width: 1.5; stroke-linecap: square"/>
   </g>
   <g id="line2d_71">
    <path d="M -1 509.590353 
L 0.372693 509.334567 
L 3.751275 512.582203 
L 7.129856 514.142367 
L 10.508438 511.575843 
L 13.88702 510.211949 
L 17.265601 512.251521 
L 20.644183 511.630567 
L 24.022765 513.626423 
L 27.401346 514.621898 
L 30.779928 510.803581 
L 34.15851 511.439084 
L 37.537092 512.288415 
L 40.915673 512.06012 
L 44.294255 513.788925 
L 47.672837 516.103093 
L 51.051418 514.213961 
L 54.43 515.645472 
L 57.808582 513.715234 
L 61.187163 511.916028 
L 64.565745 513.177129 
L 67.944327 514.832033 
L 71.322908 515.565332 
L 74.70149 515.02137 
L 78.080072 514.77393 
L 81.458654 515.171854 
L 84.837235 515.238214 
L 88.215817 514.74325 
L 91.594399 514.71865 
L 94.97298 514.44293 
L 98.351562 514.850592 
L 101.730144 514.979138 
L 105.108725 514.06983 
L 111.865889 516.585077 
L 115.24447 514.591747 
L 118.623052 511.568728 
L 122.001634 512.003303 
L 125.380215 510.663977 
L 128.758797 511.108432 
L 135.515961 515.341505 
L 138.894542 515.32271 
L 142.273124 513.398592 
L 145.651706 513.142379 
L 149.030287 513.80733 
L 155.787451 515.371175 
L 159.166032 515.71696 
L 162.544614 515.721105 
L 169.301777 513.75439 
L 172.680359 515.406388 
L 176.058941 514.623534 
L 179.437523 512.112396 
L 182.816104 512.592678 
L 186.194686 513.227592 
L 189.573268 512.363203 
L 192.951849 513.805326 
L 196.330431 514.557712 
L 199.709013 513.570557 
L 203.087594 514.095158 
L 206.466176 511.850744 
L 209.844758 510.994861 
L 213.223339 511.632184 
L 216.601921 511.760864 
L 219.980503 512.158099 
L 223.359084 512.86476 
L 226.737666 514.946744 
L 230.116248 513.197617 
L 233.49483 509.890457 
L 236.873411 510.650619 
L 240.251993 512.875813 
L 243.630575 512.786764 
L 247.009156 511.909503 
L 250.387738 512.19419 
L 253.76632 510.659961 
L 260.523483 508.582816 
L 263.902065 509.18681 
L 267.280646 510.668197 
L 270.659228 511.684614 
L 274.03781 513.935688 
L 280.794973 512.762937 
L 284.173555 511.458704 
L 287.552137 512.469483 
L 287.552137 512.469483 
" clip-path="url(#p820317f0b5)" style="fill: none; stroke: #ff00ff; stroke-width: 1.5; stroke-linecap: square"/>
   </g>
   <g id="line2d_72">
    <path d="M 54.43 517.56717 
L 290.930718 517.56717 
" clip-path="url(#p820317f0b5)" style="fill: none; stroke: #000000; stroke-width: 0.8; stroke-linecap: square"/>
   </g>
   <g id="line2d_73">
    <path d="M -1 504.321642 
L 0.372693 503.292762 
L 3.751275 505.992442 
L 7.129856 506.087423 
L 10.508438 506.305359 
L 13.88702 511.384879 
L 17.265601 515.019316 
L 20.644183 515.390343 
M 81.458654 511.721271 
L 84.837235 508.392908 
L 88.215817 507.154328 
L 91.594399 506.562059 
L 94.97298 506.636662 
L 98.351562 509.715355 
M 115.24447 511.860457 
L 118.623052 511.276558 
L 122.001634 511.961713 
L 128.758797 509.259572 
L 132.137379 506.493537 
L 135.515961 508.132413 
L 138.894542 511.870893 
L 142.273124 513.23116 
M 169.301777 515.184405 
L 172.680359 510.117709 
L 179.437523 506.282861 
L 182.816104 506.017747 
L 186.194686 502.948182 
L 189.573268 501.616187 
L 192.951849 504.039773 
L 196.330431 510.554297 
L 199.709013 513.671267 
L 203.087594 509.99608 
L 206.466176 504.947068 
L 209.844758 501.812077 
L 213.223339 503.413376 
L 216.601921 507.018707 
L 219.980503 510.345153 
L 223.359084 511.043009 
L 226.737666 510.447616 
L 230.116248 506.056073 
L 233.49483 505.514398 
L 236.873411 510.878491 
M 243.630575 512.140618 
L 247.009156 509.163598 
L 250.387738 512.38404 
L 253.76632 508.309739 
L 257.144901 509.843686 
L 260.523483 511.895622 
L 263.902065 506.760662 
L 267.280646 506.538736 
L 270.659228 510.427625 
L 274.03781 509.118349 
L 277.416392 510.002122 
L 280.794973 509.10454 
L 284.173555 508.606158 
L 287.552137 508.221328 
L 287.552137 508.221328 
" clip-path="url(#p820317f0b5)" style="fill: none; stroke-dasharray: 5.55,2.4; stroke-dashoffset: 0; stroke: #000000; stroke-width: 1.5"/>
   </g>
   <g id="line2d_74">
    <path d="M 155.787451 518.4 
L 155.787451 465.515298 
" clip-path="url(#p820317f0b5)" style="fill: none; stroke: #000000; stroke-width: 0.8; stroke-linecap: square"/>
   </g>
   <g id="patch_18">
    <path d="M 54.43 517.56717 
L 54.43 465.515298 
" style="fill: none; stroke: #000000; stroke-width: 0.8; stroke-linejoin: miter; stroke-linecap: square"/>
   </g>
   <g id="text_19">
    <!-- gamma -->
    <g transform="translate(149.828797 459.515298) scale(0.12 -0.12)">
     <defs>
      <path id="DejaVuSans-67" d="M 2906 1791 
Q 2906 2416 2648 2759 
Q 2391 3103 1925 3103 
Q 1463 3103 1205 2759 
Q 947 2416 947 1791 
Q 947 1169 1205 825 
Q 1463 481 1925 481 
Q 2391 481 2648 825 
Q 2906 1169 2906 1791 
z
M 3481 434 
Q 3481 -459 3084 -895 
Q 2688 -1331 1869 -1331 
Q 1566 -1331 1297 -1286 
Q 1028 -1241 775 -1147 
L 775 -588 
Q 1028 -725 1275 -790 
Q 1522 -856 1778 -856 
Q 2344 -856 2625 -561 
Q 2906 -266 2906 331 
L 2906 616 
Q 2728 306 2450 153 
Q 2172 0 1784 0 
Q 1141 0 747 490 
Q 353 981 353 1791 
Q 353 2603 747 3093 
Q 1141 3584 1784 3584 
Q 2172 3584 2450 3431 
Q 2728 3278 2906 2969 
L 2906 3500 
L 3481 3500 
L 3481 434 
z
" transform="scale(0.015625)"/>
      <path id="DejaVuSans-6d" d="M 3328 2828 
Q 3544 3216 3844 3400 
Q 4144 3584 4550 3584 
Q 5097 3584 5394 3201 
Q 5691 2819 5691 2113 
L 5691 0 
L 5113 0 
L 5113 2094 
Q 5113 2597 4934 2840 
Q 4756 3084 4391 3084 
Q 3944 3084 3684 2787 
Q 3425 2491 3425 1978 
L 3425 0 
L 2847 0 
L 2847 2094 
Q 2847 2600 2669 2842 
Q 2491 3084 2119 3084 
Q 1678 3084 1418 2786 
Q 1159 2488 1159 1978 
L 1159 0 
L 581 0 
L 581 3500 
L 1159 3500 
L 1159 2956 
Q 1356 3278 1631 3431 
Q 1906 3584 2284 3584 
Q 2666 3584 2933 3390 
Q 3200 3197 3328 2828 
z
" transform="scale(0.015625)"/>
     </defs>
     <use xlink:href="#DejaVuSans-67"/>
     <use xlink:href="#DejaVuSans-61" transform="translate(63.476562 0)"/>
     <use xlink:href="#DejaVuSans-6d" transform="translate(124.755859 0)"/>
     <use xlink:href="#DejaVuSans-6d" transform="translate(222.167969 0)"/>
     <use xlink:href="#DejaVuSans-61" transform="translate(319.580078 0)"/>
    </g>
   </g>
  </g>
  <g id="axes_12">
   <g id="patch_19">
    <path d="M 304.519466 518.4 
L 343.936252 518.4 
L 343.936252 465.515298 
L 304.519466 465.515298 
z
" style="fill: #ffffff"/>
   </g>
   <g id="matplotlib.axis_23">
    <g id="xtick_17">
     <g id="text_20">
      <!-- Pre -->
      <g transform="translate(302.20356 532.998437) scale(0.1 -0.1)">
       <use xlink:href="#DejaVuSans-50"/>
       <use xlink:href="#DejaVuSans-72" transform="translate(58.552734 0)"/>
       <use xlink:href="#DejaVuSans-65" transform="translate(97.416016 0)"/>
      </g>
     </g>
    </g>
    <g id="xtick_18">
     <g id="text_21">
      <!-- Post -->
      <g transform="translate(327.84747 532.998437) scale(0.1 -0.1)">
       <defs>
        <path id="DejaVuSans-6f" d="M 1959 3097 
Q 1497 3097 1228 2736 
Q 959 2375 959 1747 
Q 959 1119 1226 758 
Q 1494 397 1959 397 
Q 2419 397 2687 759 
Q 2956 1122 2956 1747 
Q 2956 2369 2687 2733 
Q 2419 3097 1959 3097 
z
M 1959 3584 
Q 2709 3584 3137 3096 
Q 3566 2609 3566 1747 
Q 3566 888 3137 398 
Q 2709 -91 1959 -91 
Q 1206 -91 779 398 
Q 353 888 353 1747 
Q 353 2609 779 3096 
Q 1206 3584 1959 3584 
z
" transform="scale(0.015625)"/>
        <path id="DejaVuSans-73" d="M 2834 3397 
L 2834 2853 
Q 2591 2978 2328 3040 
Q 2066 3103 1784 3103 
Q 1356 3103 1142 2972 
Q 928 2841 928 2578 
Q 928 2378 1081 2264 
Q 1234 2150 1697 2047 
L 1894 2003 
Q 2506 1872 2764 1633 
Q 3022 1394 3022 966 
Q 3022 478 2636 193 
Q 2250 -91 1575 -91 
Q 1294 -91 989 -36 
Q 684 19 347 128 
L 347 722 
Q 666 556 975 473 
Q 1284 391 1588 391 
Q 1994 391 2212 530 
Q 2431 669 2431 922 
Q 2431 1156 2273 1281 
Q 2116 1406 1581 1522 
L 1381 1569 
Q 847 1681 609 1914 
Q 372 2147 372 2553 
Q 372 3047 722 3315 
Q 1072 3584 1716 3584 
Q 2034 3584 2315 3537 
Q 2597 3491 2834 3397 
z
" transform="scale(0.015625)"/>
       </defs>
       <use xlink:href="#DejaVuSans-50"/>
       <use xlink:href="#DejaVuSans-6f" transform="translate(56.677734 0)"/>
       <use xlink:href="#DejaVuSans-73" transform="translate(117.859375 0)"/>
       <use xlink:href="#DejaVuSans-74" transform="translate(169.958984 0)"/>
      </g>
     </g>
    </g>
   </g>
   <g id="matplotlib.axis_24">
    <g id="ytick_23"/>
    <g id="ytick_24"/>
   </g>
   <g id="line2d_75">
    <path d="M 310.150435 514.849122 
L 338.305283 512.063744 
" clip-path="url(#pa3382ed632)" style="fill: none; stroke: #ffcc33; stroke-width: 1.5; stroke-linecap: square"/>
    <g clip-path="url(#pa3382ed632)">
     <use xlink:href="#mfd5bc818af" x="310.150435" y="514.849122" style="fill: #ffcc33; stroke: #ffcc33; stroke-linejoin: miter"/>
     <use xlink:href="#mfd5bc818af" x="338.305283" y="512.063744" style="fill: #ffcc33; stroke: #ffcc33; stroke-linejoin: miter"/>
    </g>
   </g>
   <g id="line2d_76">
    <path d="M 310.150435 515.498795 
L 338.305283 514.404985 
" clip-path="url(#pa3382ed632)" style="fill: none; stroke: #ff0000; stroke-width: 1.5; stroke-linecap: square"/>
    <g clip-path="url(#pa3382ed632)">
     <use xlink:href="#m85a1f96953" x="310.150435" y="515.498795" style="fill: #ff0000; stroke: #ff0000; stroke-linejoin: miter"/>
     <use xlink:href="#m85a1f96953" x="338.305283" y="514.404985" style="fill: #ff0000; stroke: #ff0000; stroke-linejoin: miter"/>
    </g>
   </g>
   <g id="line2d_77">
    <path d="M 310.150435 516.578751 
L 338.305283 516.446012 
" clip-path="url(#pa3382ed632)" style="fill: none; stroke: #0000ff; stroke-width: 1.5; stroke-linecap: square"/>
    <g clip-path="url(#pa3382ed632)">
     <use xlink:href="#m2f84459d4c" x="310.150435" y="516.578751" style="fill: #0000ff; stroke: #0000ff; stroke-linejoin: miter"/>
     <use xlink:href="#m2f84459d4c" x="338.305283" y="516.446012" style="fill: #0000ff; stroke: #0000ff; stroke-linejoin: miter"/>
    </g>
   </g>
   <g id="line2d_78">
    <path d="M 310.150435 514.121226 
L 338.305283 512.953573 
" clip-path="url(#pa3382ed632)" style="fill: none; stroke: #ff00ff; stroke-width: 1.5; stroke-linecap: square"/>
    <g clip-path="url(#pa3382ed632)">
     <use xlink:href="#m7143ca9f24" x="310.150435" y="514.121226" style="fill: #ff00ff; stroke: #ff00ff; stroke-linejoin: miter"/>
     <use xlink:href="#m7143ca9f24" x="338.305283" y="512.953573" style="fill: #ff00ff; stroke: #ff00ff; stroke-linejoin: miter"/>
    </g>
   </g>
  </g>
  <g id="text_22">
   <!-- variance (a.u.) -->
   <g transform="translate(14.798438 324.428125) rotate(-90) scale(0.1 -0.1)">
    <defs>
     <path id="DejaVuSans-76" d="M 191 3500 
L 800 3500 
L 1894 563 
L 2988 3500 
L 3597 3500 
L 2284 0 
L 1503 0 
L 191 3500 
z
" transform="scale(0.015625)"/>
     <path id="DejaVuSans-69" d="M 603 3500 
L 1178 3500 
L 1178 0 
L 603 0 
L 603 3500 
z
M 603 4863 
L 1178 4863 
L 1178 4134 
L 603 4134 
L 603 4863 
z
" transform="scale(0.015625)"/>
     <path id="DejaVuSans-6e" d="M 3513 2113 
L 3513 0 
L 2938 0 
L 2938 2094 
Q 2938 2591 2744 2837 
Q 2550 3084 2163 3084 
Q 1697 3084 1428 2787 
Q 1159 2491 1159 1978 
L 1159 0 
L 581 0 
L 581 3500 
L 1159 3500 
L 1159 2956 
Q 1366 3272 1645 3428 
Q 1925 3584 2291 3584 
Q 2894 3584 3203 3211 
Q 3513 2838 3513 2113 
z
" transform="scale(0.015625)"/>
     <path id="DejaVuSans-63" d="M 3122 3366 
L 3122 2828 
Q 2878 2963 2633 3030 
Q 2388 3097 2138 3097 
Q 1578 3097 1268 2742 
Q 959 2388 959 1747 
Q 959 1106 1268 751 
Q 1578 397 2138 397 
Q 2388 397 2633 464 
Q 2878 531 3122 666 
L 3122 134 
Q 2881 22 2623 -34 
Q 2366 -91 2075 -91 
Q 1284 -91 818 406 
Q 353 903 353 1747 
Q 353 2603 823 3093 
Q 1294 3584 2113 3584 
Q 2378 3584 2631 3529 
Q 2884 3475 3122 3366 
z
" transform="scale(0.015625)"/>
     <path id="DejaVuSans-20" transform="scale(0.015625)"/>
     <path id="DejaVuSans-28" d="M 1984 4856 
Q 1566 4138 1362 3434 
Q 1159 2731 1159 2009 
Q 1159 1288 1364 580 
Q 1569 -128 1984 -844 
L 1484 -844 
Q 1016 -109 783 600 
Q 550 1309 550 2009 
Q 550 2706 781 3412 
Q 1013 4119 1484 4856 
L 1984 4856 
z
" transform="scale(0.015625)"/>
     <path id="DejaVuSans-75" d="M 544 1381 
L 544 3500 
L 1119 3500 
L 1119 1403 
Q 1119 906 1312 657 
Q 1506 409 1894 409 
Q 2359 409 2629 706 
Q 2900 1003 2900 1516 
L 2900 3500 
L 3475 3500 
L 3475 0 
L 2900 0 
L 2900 538 
Q 2691 219 2414 64 
Q 2138 -91 1772 -91 
Q 1169 -91 856 284 
Q 544 659 544 1381 
z
M 1991 3584 
L 1991 3584 
z
" transform="scale(0.015625)"/>
     <path id="DejaVuSans-29" d="M 513 4856 
L 1013 4856 
Q 1481 4119 1714 3412 
Q 1947 2706 1947 2009 
Q 1947 1309 1714 600 
Q 1481 -109 1013 -844 
L 513 -844 
Q 928 -128 1133 580 
Q 1338 1288 1338 2009 
Q 1338 2731 1133 3434 
Q 928 4138 513 4856 
z
" transform="scale(0.015625)"/>
    </defs>
    <use xlink:href="#DejaVuSans-76"/>
    <use xlink:href="#DejaVuSans-61" transform="translate(59.179688 0)"/>
    <use xlink:href="#DejaVuSans-72" transform="translate(120.458984 0)"/>
    <use xlink:href="#DejaVuSans-69" transform="translate(161.572266 0)"/>
    <use xlink:href="#DejaVuSans-61" transform="translate(189.355469 0)"/>
    <use xlink:href="#DejaVuSans-6e" transform="translate(250.634766 0)"/>
    <use xlink:href="#DejaVuSans-63" transform="translate(314.013672 0)"/>
    <use xlink:href="#DejaVuSans-65" transform="translate(368.994141 0)"/>
    <use xlink:href="#DejaVuSans-20" transform="translate(430.517578 0)"/>
    <use xlink:href="#DejaVuSans-28" transform="translate(462.304688 0)"/>
    <use xlink:href="#DejaVuSans-61" transform="translate(501.318359 0)"/>
    <use xlink:href="#DejaVuSans-2e" transform="translate(562.597656 0)"/>
    <use xlink:href="#DejaVuSans-75" transform="translate(594.384766 0)"/>
    <use xlink:href="#DejaVuSans-2e" transform="translate(657.763672 0)"/>
    <use xlink:href="#DejaVuSans-29" transform="translate(689.550781 0)"/>
   </g>
  </g>
  <g id="text_23">
   <!-- Variance explained by component model (monkey P, PMd) -->
   <g transform="translate(4.854375 20.638125) scale(0.12 -0.12)">
    <defs>
     <path id="DejaVuSans-56" d="M 1831 0 
L 50 4666 
L 709 4666 
L 2188 738 
L 3669 4666 
L 4325 4666 
L 2547 0 
L 1831 0 
z
" transform="scale(0.015625)"/>
     <path id="DejaVuSans-78" d="M 3513 3500 
L 2247 1797 
L 3578 0 
L 2900 0 
L 1881 1375 
L 863 0 
L 184 0 
L 1544 1831 
L 300 3500 
L 978 3500 
L 1906 2253 
L 2834 3500 
L 3513 3500 
z
" transform="scale(0.015625)"/>
     <path id="DejaVuSans-79" d="M 2059 -325 
Q 1816 -950 1584 -1140 
Q 1353 -1331 966 -1331 
L 506 -1331 
L 506 -850 
L 844 -850 
Q 1081 -850 1212 -737 
Q 1344 -625 1503 -206 
L 1606 56 
L 191 3500 
L 800 3500 
L 1894 763 
L 2988 3500 
L 3597 3500 
L 2059 -325 
z
" transform="scale(0.015625)"/>
     <path id="DejaVuSans-6b" d="M 581 4863 
L 1159 4863 
L 1159 1991 
L 2875 3500 
L 3609 3500 
L 1753 1863 
L 3688 0 
L 2938 0 
L 1159 1709 
L 1159 0 
L 581 0 
L 581 4863 
z
" transform="scale(0.015625)"/>
     <path id="DejaVuSans-2c" d="M 750 794 
L 1409 794 
L 1409 256 
L 897 -744 
L 494 -744 
L 750 256 
L 750 794 
z
" transform="scale(0.015625)"/>
     <path id="DejaVuSans-4d" d="M 628 4666 
L 1569 4666 
L 2759 1491 
L 3956 4666 
L 4897 4666 
L 4897 0 
L 4281 0 
L 4281 4097 
L 3078 897 
L 2444 897 
L 1241 4097 
L 1241 0 
L 628 0 
L 628 4666 
z
" transform="scale(0.015625)"/>
    </defs>
    <use xlink:href="#DejaVuSans-56"/>
    <use xlink:href="#DejaVuSans-61" transform="translate(60.658203 0)"/>
    <use xlink:href="#DejaVuSans-72" transform="translate(121.9375 0)"/>
    <use xlink:href="#DejaVuSans-69" transform="translate(163.050781 0)"/>
    <use xlink:href="#DejaVuSans-61" transform="translate(190.833984 0)"/>
    <use xlink:href="#DejaVuSans-6e" transform="translate(252.113281 0)"/>
    <use xlink:href="#DejaVuSans-63" transform="translate(315.492188 0)"/>
    <use xlink:href="#DejaVuSans-65" transform="translate(370.472656 0)"/>
    <use xlink:href="#DejaVuSans-20" transform="translate(431.996094 0)"/>
    <use xlink:href="#DejaVuSans-65" transform="translate(463.783203 0)"/>
    <use xlink:href="#DejaVuSans-78" transform="translate(523.556641 0)"/>
    <use xlink:href="#DejaVuSans-70" transform="translate(582.736328 0)"/>
    <use xlink:href="#DejaVuSans-6c" transform="translate(646.212891 0)"/>
    <use xlink:href="#DejaVuSans-61" transform="translate(673.996094 0)"/>
    <use xlink:href="#DejaVuSans-69" transform="translate(735.275391 0)"/>
    <use xlink:href="#DejaVuSans-6e" transform="translate(763.058594 0)"/>
    <use xlink:href="#DejaVuSans-65" transform="translate(826.4375 0)"/>
    <use xlink:href="#DejaVuSans-64" transform="translate(887.960938 0)"/>
    <use xlink:href="#DejaVuSans-20" transform="translate(951.4375 0)"/>
    <use xlink:href="#DejaVuSans-62" transform="translate(983.224609 0)"/>
    <use xlink:href="#DejaVuSans-79" transform="translate(1046.701172 0)"/>
    <use xlink:href="#DejaVuSans-20" transform="translate(1105.880859 0)"/>
    <use xlink:href="#DejaVuSans-63" transform="translate(1137.667969 0)"/>
    <use xlink:href="#DejaVuSans-6f" transform="translate(1192.648438 0)"/>
    <use xlink:href="#DejaVuSans-6d" transform="translate(1253.830078 0)"/>
    <use xlink:href="#DejaVuSans-70" transform="translate(1351.242188 0)"/>
    <use xlink:href="#DejaVuSans-6f" transform="translate(1414.71875 0)"/>
    <use xlink:href="#DejaVuSans-6e" transform="translate(1475.900391 0)"/>
    <use xlink:href="#DejaVuSans-65" transform="translate(1539.279297 0)"/>
    <use xlink:href="#DejaVuSans-6e" transform="translate(1600.802734 0)"/>
    <use xlink:href="#DejaVuSans-74" transform="translate(1664.181641 0)"/>
    <use xlink:href="#DejaVuSans-20" transform="translate(1703.390625 0)"/>
    <use xlink:href="#DejaVuSans-6d" transform="translate(1735.177734 0)"/>
    <use xlink:href="#DejaVuSans-6f" transform="translate(1832.589844 0)"/>
    <use xlink:href="#DejaVuSans-64" transform="translate(1893.771484 0)"/>
    <use xlink:href="#DejaVuSans-65" transform="translate(1957.248047 0)"/>
    <use xlink:href="#DejaVuSans-6c" transform="translate(2018.771484 0)"/>
    <use xlink:href="#DejaVuSans-20" transform="translate(2046.554688 0)"/>
    <use xlink:href="#DejaVuSans-28" transform="translate(2078.341797 0)"/>
    <use xlink:href="#DejaVuSans-6d" transform="translate(2117.355469 0)"/>
    <use xlink:href="#DejaVuSans-6f" transform="translate(2214.767578 0)"/>
    <use xlink:href="#DejaVuSans-6e" transform="translate(2275.949219 0)"/>
    <use xlink:href="#DejaVuSans-6b" transform="translate(2339.328125 0)"/>
    <use xlink:href="#DejaVuSans-65" transform="translate(2393.613281 0)"/>
    <use xlink:href="#DejaVuSans-79" transform="translate(2455.136719 0)"/>
    <use xlink:href="#DejaVuSans-20" transform="translate(2514.316406 0)"/>
    <use xlink:href="#DejaVuSans-50" transform="translate(2546.103516 0)"/>
    <use xlink:href="#DejaVuSans-2c" transform="translate(2606.40625 0)"/>
    <use xlink:href="#DejaVuSans-20" transform="translate(2638.193359 0)"/>
    <use xlink:href="#DejaVuSans-50" transform="translate(2669.980469 0)"/>
    <use xlink:href="#DejaVuSans-4d" transform="translate(2730.283203 0)"/>
    <use xlink:href="#DejaVuSans-64" transform="translate(2816.5625 0)"/>
    <use xlink:href="#DejaVuSans-29" transform="translate(2880.039062 0)"/>
   </g>
  </g>
  <g id="legend_1">
   <g id="line2d_79">
    <path d="M 205.479844 549.667969 
L 214.479844 549.667969 
L 223.479844 549.667969 
" style="fill: none; stroke: #ffcc33; stroke-width: 1.5; stroke-linecap: square"/>
   </g>
   <g id="text_24">
    <!-- finger -->
    <g transform="translate(230.679844 552.817969) scale(0.09 -0.09)">
     <defs>
      <path id="DejaVuSans-66" d="M 2375 4863 
L 2375 4384 
L 1825 4384 
Q 1516 4384 1395 4259 
Q 1275 4134 1275 3809 
L 1275 3500 
L 2222 3500 
L 2222 3053 
L 1275 3053 
L 1275 0 
L 697 0 
L 697 3053 
L 147 3053 
L 147 3500 
L 697 3500 
L 697 3744 
Q 697 4328 969 4595 
Q 1241 4863 1831 4863 
L 2375 4863 
z
" transform="scale(0.015625)"/>
     </defs>
     <use xlink:href="#DejaVuSans-66"/>
     <use xlink:href="#DejaVuSans-69" transform="translate(35.205078 0)"/>
     <use xlink:href="#DejaVuSans-6e" transform="translate(62.988281 0)"/>
     <use xlink:href="#DejaVuSans-67" transform="translate(126.367188 0)"/>
     <use xlink:href="#DejaVuSans-65" transform="translate(189.84375 0)"/>
     <use xlink:href="#DejaVuSans-72" transform="translate(251.367188 0)"/>
    </g>
   </g>
   <g id="line2d_80">
    <path d="M 205.479844 562.878281 
L 214.479844 562.878281 
L 223.479844 562.878281 
" style="fill: none; stroke: #ff0000; stroke-width: 1.5; stroke-linecap: square"/>
   </g>
   <g id="text_25">
    <!-- cue -->
    <g transform="translate(230.679844 566.028281) scale(0.09 -0.09)">
     <use xlink:href="#DejaVuSans-63"/>
     <use xlink:href="#DejaVuSans-75" transform="translate(54.980469 0)"/>
     <use xlink:href="#DejaVuSans-65" transform="translate(118.359375 0)"/>
    </g>
   </g>
   <g id="line2d_81">
    <path d="M 275.003438 549.667969 
L 284.003438 549.667969 
L 293.003438 549.667969 
" style="fill: none; stroke: #0000ff; stroke-width: 1.5; stroke-linecap: square"/>
   </g>
   <g id="text_26">
    <!-- uncertainty -->
    <g transform="translate(300.203438 552.817969) scale(0.09 -0.09)">
     <use xlink:href="#DejaVuSans-75"/>
     <use xlink:href="#DejaVuSans-6e" transform="translate(63.378906 0)"/>
     <use xlink:href="#DejaVuSans-63" transform="translate(126.757812 0)"/>
     <use xlink:href="#DejaVuSans-65" transform="translate(181.738281 0)"/>
     <use xlink:href="#DejaVuSans-72" transform="translate(243.261719 0)"/>
     <use xlink:href="#DejaVuSans-74" transform="translate(284.375 0)"/>
     <use xlink:href="#DejaVuSans-61" transform="translate(323.583984 0)"/>
     <use xlink:href="#DejaVuSans-69" transform="translate(384.863281 0)"/>
     <use xlink:href="#DejaVuSans-6e" transform="translate(412.646484 0)"/>
     <use xlink:href="#DejaVuSans-74" transform="translate(476.025391 0)"/>
     <use xlink:href="#DejaVuSans-79" transform="translate(515.234375 0)"/>
    </g>
   </g>
   <g id="line2d_82">
    <path d="M 275.003438 562.878281 
L 284.003438 562.878281 
L 293.003438 562.878281 
" style="fill: none; stroke: #ff00ff; stroke-width: 1.5; stroke-linecap: square"/>
   </g>
   <g id="text_27">
    <!-- surprise -->
    <g transform="translate(300.203438 566.028281) scale(0.09 -0.09)">
     <use xlink:href="#DejaVuSans-73"/>
     <use xlink:href="#DejaVuSans-75" transform="translate(52.099609 0)"/>
     <use xlink:href="#DejaVuSans-72" transform="translate(115.478516 0)"/>
     <use xlink:href="#DejaVuSans-70" transform="translate(156.591797 0)"/>
     <use xlink:href="#DejaVuSans-72" transform="translate(220.068359 0)"/>
     <use xlink:href="#DejaVuSans-69" transform="translate(261.181641 0)"/>
     <use xlink:href="#DejaVuSans-73" transform="translate(288.964844 0)"/>
     <use xlink:href="#DejaVuSans-65" transform="translate(341.064453 0)"/>
    </g>
   </g>
  </g>
 </g>
 <defs>
  <clipPath id="p022c77731f">
   <rect x="54.43" y="50.64" width="236.500718" height="52.884702"/>
  </clipPath>
  <clipPath id="p2933585876">
   <rect x="304.519466" y="50.64" width="39.416786" height="52.884702"/>
  </clipPath>
  <clipPath id="p8235b9ce1f">
   <rect x="54.43" y="133.61506" width="236.500718" height="52.884702"/>
  </clipPath>
  <clipPath id="pd0287cc153">
   <rect x="304.519466" y="133.61506" width="39.416786" height="52.884702"/>
  </clipPath>
  <clipPath id="pd7d9173d1e">
   <rect x="54.43" y="216.590119" width="236.500718" height="52.884702"/>
  </clipPath>
  <clipPath id="pe75653fd38">
   <rect x="304.519466" y="216.590119" width="39.416786" height="52.884702"/>
  </clipPath>
  <clipPath id="p89043429a3">
   <rect x="54.43" y="299.565179" width="236.500718" height="52.884702"/>
  </clipPath>
  <clipPath id="pc5c696ab06">
   <rect x="304.519466" y="299.565179" width="39.416786" height="52.884702"/>
  </clipPath>
  <clipPath id="p7378cc97a5">
   <rect x="54.43" y="382.540239" width="236.500718" height="52.884702"/>
  </clipPath>
  <clipPath id="pdc33b17bff">
   <rect x="304.519466" y="382.540239" width="39.416786" height="52.884702"/>
  </clipPath>
  <clipPath id="p820317f0b5">
   <rect x="54.43" y="465.515298" width="236.500718" height="52.884702"/>
  </clipPath>
  <clipPath id="pa3382ed632">
   <rect x="304.519466" y="465.515298" width="39.416786" height="52.884702"/>
  </clipPath>
 </defs>
</svg>
