<?xml version="1.0" encoding="utf-8" standalone="no"?>
<!DOCTYPE svg PUBLIC "-//W3C//DTD SVG 1.1//EN"
  "http://www.w3.org/Graphics/SVG/1.1/DTD/svg11.dtd">
<svg xmlns:xlink="http://www.w3.org/1999/xlink" width="360pt" height="576pt" viewBox="0 0 360 576" xmlns="http://www.w3.org/2000/svg" version="1.1">
 <metadata>
  <rdf:RDF xmlns:dc="http://purl.org/dc/elements/1.1/" xmlns:cc="http://creativecommons.org/ns#" xmlns:rdf="http://www.w3.org/1999/02/22-rdf-syntax-ns#">
   <cc:Work>
    <dc:type rdf:resource="http://purl.org/dc/dcmitype/StillImage"/>
    <dc:date>2025-07-16T20:46:06.095413</dc:date>
    <dc:format>image/svg+xml</dc:format>
    <dc:creator>
     <cc:Agent>
      <dc:title>Matplotlib v3.10.1, https://matplotlib.org/</dc:title>
     </cc:Agent>
    </dc:creator>
   </cc:Work>
  </rdf:RDF>
 </metadata>
 <defs>
  <style type="text/css">*{stroke-linejoin: round; stroke-linecap: butt}</style>
 </defs>
 <g id="figure_1">
  <g id="patch_1">
   <path d="M 0 576 
L 360 576 
L 360 0 
L 0 0 
z
" style="fill: #ffffff"/>
  </g>
  <g id="axes_1">
   <g id="patch_2">
    <path d="M 54.43 107.088627 
L 282.071667 107.088627 
L 282.071667 50.64 
L 54.43 50.64 
z
" style="fill: #ffffff"/>
   </g>
   <g id="matplotlib.axis_1">
    <g id="xtick_1"/>
   </g>
   <g id="matplotlib.axis_2">
    <g id="ytick_1">
     <g id="line2d_1">
      <defs>
       <path id="m38cef93907" d="M 0 0 
L -3.5 0 
" style="stroke: #000000; stroke-width: 0.8"/>
      </defs>
      <g>
       <use xlink:href="#m38cef93907" x="54.43" y="105.981792" style="stroke: #000000; stroke-width: 0.8"/>
      </g>
     </g>
     <g id="text_1">
      <!-- 0.0 -->
      <g transform="translate(31.526875 109.78101) scale(0.1 -0.1)">
       <defs>
        <path id="DejaVuSans-30" d="M 2034 4250 
Q 1547 4250 1301 3770 
Q 1056 3291 1056 2328 
Q 1056 1369 1301 889 
Q 1547 409 2034 409 
Q 2525 409 2770 889 
Q 3016 1369 3016 2328 
Q 3016 3291 2770 3770 
Q 2525 4250 2034 4250 
z
M 2034 4750 
Q 2819 4750 3233 4129 
Q 3647 3509 3647 2328 
Q 3647 1150 3233 529 
Q 2819 -91 2034 -91 
Q 1250 -91 836 529 
Q 422 1150 422 2328 
Q 422 3509 836 4129 
Q 1250 4750 2034 4750 
z
" transform="scale(0.015625)"/>
        <path id="DejaVuSans-2e" d="M 684 794 
L 1344 794 
L 1344 0 
L 684 0 
L 684 794 
z
" transform="scale(0.015625)"/>
       </defs>
       <use xlink:href="#DejaVuSans-30"/>
       <use xlink:href="#DejaVuSans-2e" transform="translate(63.623047 0)"/>
       <use xlink:href="#DejaVuSans-30" transform="translate(95.410156 0)"/>
      </g>
     </g>
    </g>
    <g id="ytick_2">
     <g id="line2d_2">
      <g>
       <use xlink:href="#m38cef93907" x="54.43" y="50.64" style="stroke: #000000; stroke-width: 0.8"/>
      </g>
     </g>
     <g id="text_2">
      <!-- 0.5 -->
      <g transform="translate(31.526875 54.439219) scale(0.1 -0.1)">
       <defs>
        <path id="DejaVuSans-35" d="M 691 4666 
L 3169 4666 
L 3169 4134 
L 1269 4134 
L 1269 2991 
Q 1406 3038 1543 3061 
Q 1681 3084 1819 3084 
Q 2600 3084 3056 2656 
Q 3513 2228 3513 1497 
Q 3513 744 3044 326 
Q 2575 -91 1722 -91 
Q 1428 -91 1123 -41 
Q 819 9 494 109 
L 494 744 
Q 775 591 1075 516 
Q 1375 441 1709 441 
Q 2250 441 2565 725 
Q 2881 1009 2881 1497 
Q 2881 1984 2565 2268 
Q 2250 2553 1709 2553 
Q 1456 2553 1204 2497 
Q 953 2441 691 2322 
L 691 4666 
z
" transform="scale(0.015625)"/>
       </defs>
       <use xlink:href="#DejaVuSans-30"/>
       <use xlink:href="#DejaVuSans-2e" transform="translate(63.623047 0)"/>
       <use xlink:href="#DejaVuSans-35" transform="translate(95.410156 0)"/>
      </g>
     </g>
    </g>
   </g>
   <g id="line2d_3">
    <path d="M 54.43 105.981792 
L 227.87127 105.981792 
L 230.58129 104.85538 
L 233.29131 104.176265 
L 238.711349 103.298801 
L 246.841409 102.390534 
L 254.971468 101.712738 
L 265.811548 101.023737 
L 279.361647 100.400337 
L 282.071667 98.720157 
L 298.331786 98.339946 
L 317.301925 98.148606 
L 336.272063 98.174952 
L 357.952222 98.411098 
L 361 98.45974 
L 361 98.45974 
" clip-path="url(#p0b6df9e7c7)" style="fill: none; stroke: #ff0000; stroke-width: 1.5; stroke-linecap: square"/>
   </g>
   <g id="line2d_4">
    <path d="M 54.43 105.981791 
L 361 105.981792 
L 361 105.981792 
" clip-path="url(#p0b6df9e7c7)" style="fill: none; stroke: #0000ff; stroke-width: 1.5; stroke-linecap: square"/>
   </g>
   <g id="line2d_5">
    <path d="M 54.43 105.981792 
L 282.071667 105.981792 
" clip-path="url(#p0b6df9e7c7)" style="fill: none; stroke: #000000; stroke-width: 0.8; stroke-linecap: square"/>
   </g>
   <g id="line2d_6">
    <path d="M 214.321171 104.734555 
L 217.03119 104.069724 
L 222.45123 103.202552 
L 227.87127 102.585354 
L 236.001329 101.907297 
L 246.841409 101.303822 
L 257.681488 100.939279 
L 271.231587 100.733655 
L 279.361647 100.720625 
L 282.071667 98.282687 
L 301.041806 98.816523 
L 317.301925 99.482511 
L 333.562044 100.371854 
L 347.112143 101.333782 
L 357.952222 102.331971 
L 361 102.675338 
L 361 102.675338 
" clip-path="url(#p0b6df9e7c7)" style="fill: none; stroke-dasharray: 5.55,2.4; stroke-dashoffset: 0; stroke: #000000; stroke-width: 1.5"/>
   </g>
   <g id="line2d_7">
    <path d="M 108.630397 107.088627 
L 108.630397 50.64 
" clip-path="url(#p0b6df9e7c7)" style="fill: none; stroke: #000000; stroke-width: 0.8; stroke-linecap: square"/>
   </g>
   <g id="patch_3">
    <path d="M 54.43 105.981792 
L 54.43 50.64 
" style="fill: none; stroke: #000000; stroke-width: 0.8; stroke-linejoin: miter; stroke-linecap: square"/>
   </g>
   <g id="text_3">
    <!-- delta -->
    <g transform="translate(153.053958 44.64) scale(0.12 -0.12)">
     <defs>
      <path id="DejaVuSans-64" d="M 2906 2969 
L 2906 4863 
L 3481 4863 
L 3481 0 
L 2906 0 
L 2906 525 
Q 2725 213 2448 61 
Q 2172 -91 1784 -91 
Q 1150 -91 751 415 
Q 353 922 353 1747 
Q 353 2572 751 3078 
Q 1150 3584 1784 3584 
Q 2172 3584 2448 3432 
Q 2725 3281 2906 2969 
z
M 947 1747 
Q 947 1113 1208 752 
Q 1469 391 1925 391 
Q 2381 391 2643 752 
Q 2906 1113 2906 1747 
Q 2906 2381 2643 2742 
Q 2381 3103 1925 3103 
Q 1469 3103 1208 2742 
Q 947 2381 947 1747 
z
" transform="scale(0.015625)"/>
      <path id="DejaVuSans-65" d="M 3597 1894 
L 3597 1613 
L 953 1613 
Q 991 1019 1311 708 
Q 1631 397 2203 397 
Q 2534 397 2845 478 
Q 3156 559 3463 722 
L 3463 178 
Q 3153 47 2828 -22 
Q 2503 -91 2169 -91 
Q 1331 -91 842 396 
Q 353 884 353 1716 
Q 353 2575 817 3079 
Q 1281 3584 2069 3584 
Q 2775 3584 3186 3129 
Q 3597 2675 3597 1894 
z
M 3022 2063 
Q 3016 2534 2758 2815 
Q 2500 3097 2075 3097 
Q 1594 3097 1305 2825 
Q 1016 2553 972 2059 
L 3022 2063 
z
" transform="scale(0.015625)"/>
      <path id="DejaVuSans-6c" d="M 603 4863 
L 1178 4863 
L 1178 0 
L 603 0 
L 603 4863 
z
" transform="scale(0.015625)"/>
      <path id="DejaVuSans-74" d="M 1172 4494 
L 1172 3500 
L 2356 3500 
L 2356 3053 
L 1172 3053 
L 1172 1153 
Q 1172 725 1289 603 
Q 1406 481 1766 481 
L 2356 481 
L 2356 0 
L 1766 0 
Q 1100 0 847 248 
Q 594 497 594 1153 
L 594 3053 
L 172 3053 
L 172 3500 
L 594 3500 
L 594 4494 
L 1172 4494 
z
" transform="scale(0.015625)"/>
      <path id="DejaVuSans-61" d="M 2194 1759 
Q 1497 1759 1228 1600 
Q 959 1441 959 1056 
Q 959 750 1161 570 
Q 1363 391 1709 391 
Q 2188 391 2477 730 
Q 2766 1069 2766 1631 
L 2766 1759 
L 2194 1759 
z
M 3341 1997 
L 3341 0 
L 2766 0 
L 2766 531 
Q 2569 213 2275 61 
Q 1981 -91 1556 -91 
Q 1019 -91 701 211 
Q 384 513 384 1019 
Q 384 1609 779 1909 
Q 1175 2209 1959 2209 
L 2766 2209 
L 2766 2266 
Q 2766 2663 2505 2880 
Q 2244 3097 1772 3097 
Q 1472 3097 1187 3025 
Q 903 2953 641 2809 
L 641 3341 
Q 956 3463 1253 3523 
Q 1550 3584 1831 3584 
Q 2591 3584 2966 3190 
Q 3341 2797 3341 1997 
z
" transform="scale(0.015625)"/>
     </defs>
     <use xlink:href="#DejaVuSans-64"/>
     <use xlink:href="#DejaVuSans-65" transform="translate(63.476562 0)"/>
     <use xlink:href="#DejaVuSans-6c" transform="translate(125 0)"/>
     <use xlink:href="#DejaVuSans-74" transform="translate(152.783203 0)"/>
     <use xlink:href="#DejaVuSans-61" transform="translate(191.992188 0)"/>
    </g>
   </g>
  </g>
  <g id="axes_2">
   <g id="patch_4">
    <path d="M 292.871667 107.088627 
L 315.635833 107.088627 
L 315.635833 50.64 
L 292.871667 50.64 
z
" style="fill: #ffffff"/>
   </g>
   <g id="patch_5">
    <path d="M 293.906402 105.981792 
L 304.25375 105.981792 
L 304.25375 105.98179 
L 293.906402 105.98179 
z
" clip-path="url(#pc9d60ae871)" style="fill: #ff0000"/>
   </g>
   <g id="patch_6">
    <path d="M 304.25375 105.981792 
L 314.601098 105.981792 
L 314.601098 105.981777 
L 304.25375 105.981777 
z
" clip-path="url(#pc9d60ae871)" style="fill: #0000ff"/>
   </g>
   <g id="matplotlib.axis_3"/>
   <g id="matplotlib.axis_4">
    <g id="ytick_3"/>
    <g id="ytick_4"/>
   </g>
   <g id="text_4">
    <!-- Pre -->
    <g transform="translate(294.7175 44.64) scale(0.12 -0.12)">
     <defs>
      <path id="DejaVuSans-50" d="M 1259 4147 
L 1259 2394 
L 2053 2394 
Q 2494 2394 2734 2622 
Q 2975 2850 2975 3272 
Q 2975 3691 2734 3919 
Q 2494 4147 2053 4147 
L 1259 4147 
z
M 628 4666 
L 2053 4666 
Q 2838 4666 3239 4311 
Q 3641 3956 3641 3272 
Q 3641 2581 3239 2228 
Q 2838 1875 2053 1875 
L 1259 1875 
L 1259 0 
L 628 0 
L 628 4666 
z
" transform="scale(0.015625)"/>
      <path id="DejaVuSans-72" d="M 2631 2963 
Q 2534 3019 2420 3045 
Q 2306 3072 2169 3072 
Q 1681 3072 1420 2755 
Q 1159 2438 1159 1844 
L 1159 0 
L 581 0 
L 581 3500 
L 1159 3500 
L 1159 2956 
Q 1341 3275 1631 3429 
Q 1922 3584 2338 3584 
Q 2397 3584 2469 3576 
Q 2541 3569 2628 3553 
L 2631 2963 
z
" transform="scale(0.015625)"/>
     </defs>
     <use xlink:href="#DejaVuSans-50"/>
     <use xlink:href="#DejaVuSans-72" transform="translate(58.552734 0)"/>
     <use xlink:href="#DejaVuSans-65" transform="translate(97.416016 0)"/>
    </g>
   </g>
  </g>
  <g id="axes_3">
   <g id="patch_7">
    <path d="M 326.435833 107.088627 
L 349.2 107.088627 
L 349.2 50.64 
L 326.435833 50.64 
z
" style="fill: #ffffff"/>
   </g>
   <g id="patch_8">
    <path d="M 327.470568 105.981792 
L 337.817917 105.981792 
L 337.817917 104.800264 
L 327.470568 104.800264 
z
" clip-path="url(#p99df9240ed)" style="fill: #ff0000"/>
   </g>
   <g id="patch_9">
    <path d="M 337.817917 105.981792 
L 348.165265 105.981792 
L 348.165265 105.981764 
L 337.817917 105.981764 
z
" clip-path="url(#p99df9240ed)" style="fill: #0000ff"/>
   </g>
   <g id="matplotlib.axis_5"/>
   <g id="matplotlib.axis_6">
    <g id="ytick_5"/>
    <g id="ytick_6"/>
   </g>
   <g id="text_5">
    <!-- Post -->
    <g transform="translate(325.268542 44.64) scale(0.12 -0.12)">
     <defs>
      <path id="DejaVuSans-6f" d="M 1959 3097 
Q 1497 3097 1228 2736 
Q 959 2375 959 1747 
Q 959 1119 1226 758 
Q 1494 397 1959 397 
Q 2419 397 2687 759 
Q 2956 1122 2956 1747 
Q 2956 2369 2687 2733 
Q 2419 3097 1959 3097 
z
M 1959 3584 
Q 2709 3584 3137 3096 
Q 3566 2609 3566 1747 
Q 3566 888 3137 398 
Q 2709 -91 1959 -91 
Q 1206 -91 779 398 
Q 353 888 353 1747 
Q 353 2609 779 3096 
Q 1206 3584 1959 3584 
z
" transform="scale(0.015625)"/>
      <path id="DejaVuSans-73" d="M 2834 3397 
L 2834 2853 
Q 2591 2978 2328 3040 
Q 2066 3103 1784 3103 
Q 1356 3103 1142 2972 
Q 928 2841 928 2578 
Q 928 2378 1081 2264 
Q 1234 2150 1697 2047 
L 1894 2003 
Q 2506 1872 2764 1633 
Q 3022 1394 3022 966 
Q 3022 478 2636 193 
Q 2250 -91 1575 -91 
Q 1294 -91 989 -36 
Q 684 19 347 128 
L 347 722 
Q 666 556 975 473 
Q 1284 391 1588 391 
Q 1994 391 2212 530 
Q 2431 669 2431 922 
Q 2431 1156 2273 1281 
Q 2116 1406 1581 1522 
L 1381 1569 
Q 847 1681 609 1914 
Q 372 2147 372 2553 
Q 372 3047 722 3315 
Q 1072 3584 1716 3584 
Q 2034 3584 2315 3537 
Q 2597 3491 2834 3397 
z
" transform="scale(0.015625)"/>
     </defs>
     <use xlink:href="#DejaVuSans-50"/>
     <use xlink:href="#DejaVuSans-6f" transform="translate(56.677734 0)"/>
     <use xlink:href="#DejaVuSans-73" transform="translate(117.859375 0)"/>
     <use xlink:href="#DejaVuSans-74" transform="translate(169.958984 0)"/>
    </g>
   </g>
  </g>
  <g id="axes_4">
   <g id="patch_10">
    <path d="M 54.43 195.294902 
L 282.071667 195.294902 
L 282.071667 138.846275 
L 54.43 138.846275 
z
" style="fill: #ffffff"/>
   </g>
   <g id="matplotlib.axis_7">
    <g id="xtick_2"/>
   </g>
   <g id="matplotlib.axis_8">
    <g id="ytick_7">
     <g id="line2d_8">
      <g>
       <use xlink:href="#m38cef93907" x="54.43" y="194.188066" style="stroke: #000000; stroke-width: 0.8"/>
      </g>
     </g>
     <g id="text_6">
      <!-- 0.0 -->
      <g transform="translate(31.526875 197.987285) scale(0.1 -0.1)">
       <use xlink:href="#DejaVuSans-30"/>
       <use xlink:href="#DejaVuSans-2e" transform="translate(63.623047 0)"/>
       <use xlink:href="#DejaVuSans-30" transform="translate(95.410156 0)"/>
      </g>
     </g>
    </g>
    <g id="ytick_8">
     <g id="line2d_9">
      <g>
       <use xlink:href="#m38cef93907" x="54.43" y="138.846275" style="stroke: #000000; stroke-width: 0.8"/>
      </g>
     </g>
     <g id="text_7">
      <!-- 0.5 -->
      <g transform="translate(31.526875 142.645493) scale(0.1 -0.1)">
       <use xlink:href="#DejaVuSans-30"/>
       <use xlink:href="#DejaVuSans-2e" transform="translate(63.623047 0)"/>
       <use xlink:href="#DejaVuSans-35" transform="translate(95.410156 0)"/>
      </g>
     </g>
    </g>
   </g>
   <g id="line2d_10">
    <path d="M 54.43 187.42602 
L 62.56006 187.669937 
L 70.690119 188.245621 
L 78.820179 189.14422 
L 84.240218 189.924174 
L 89.660258 190.863793 
L 95.080298 192.06061 
L 97.790317 192.924553 
L 100.500337 194.188062 
L 227.87127 194.188066 
L 233.29131 192.155311 
L 238.711349 190.855059 
L 246.841409 189.307336 
L 254.971468 188.034474 
L 260.391508 187.359698 
L 265.811548 186.847948 
L 271.231587 186.499714 
L 279.361647 186.258947 
L 282.071667 188.507152 
L 292.911746 187.787001 
L 298.331786 187.58974 
L 303.751825 187.571525 
L 309.171865 187.757302 
L 314.591905 188.164571 
L 320.011944 188.769506 
L 328.142004 189.967858 
L 338.982083 191.891964 
L 344.402123 193.017471 
L 347.112143 193.912453 
L 349.822163 194.188066 
L 361 194.187978 
L 361 194.187978 
" clip-path="url(#p966916b385)" style="fill: none; stroke: #ff0000; stroke-width: 1.5; stroke-linecap: square"/>
   </g>
   <g id="line2d_11">
    <path d="M 54.43 194.188048 
L 303.751825 194.188066 
L 306.461845 192.829885 
L 309.171865 191.932494 
L 311.881885 191.290863 
L 317.301925 190.310872 
L 322.721964 189.564073 
L 328.142004 188.988179 
L 336.272063 188.387949 
L 344.402123 188.028801 
L 357.952222 187.726176 
L 361 187.67485 
L 361 187.67485 
" clip-path="url(#p966916b385)" style="fill: none; stroke: #0000ff; stroke-width: 1.5; stroke-linecap: square"/>
   </g>
   <g id="line2d_12">
    <path d="M 54.43 194.188066 
L 282.071667 194.188066 
" clip-path="url(#p966916b385)" style="fill: none; stroke: #000000; stroke-width: 0.8; stroke-linecap: square"/>
   </g>
   <g id="line2d_13">
    <path d="M 54.43 186.467738 
L 59.85004 186.798155 
L 65.270079 187.444031 
L 70.690119 188.435076 
L 73.400139 189.08668 
L 76.110159 189.880525 
L 78.820179 190.895916 
L 81.530198 192.450366 
M 265.811548 192.088547 
L 268.521567 191.128736 
L 271.231587 190.483278 
L 273.941607 190.010642 
L 279.361647 189.397057 
M 290.201726 193.724761 
L 292.911746 191.947937 
L 295.621766 191.017522 
L 298.331786 190.291003 
L 303.751825 189.174643 
L 309.171865 188.385492 
L 314.591905 187.868455 
L 320.011944 187.569765 
L 325.431984 187.44971 
L 333.562044 187.513367 
L 344.402123 187.875683 
L 361 188.64992 
L 361 188.64992 
" clip-path="url(#p966916b385)" style="fill: none; stroke-dasharray: 5.55,2.4; stroke-dashoffset: 0; stroke: #000000; stroke-width: 1.5"/>
   </g>
   <g id="line2d_14">
    <path d="M 108.630397 195.294902 
L 108.630397 138.846275 
" clip-path="url(#p966916b385)" style="fill: none; stroke: #000000; stroke-width: 0.8; stroke-linecap: square"/>
   </g>
   <g id="patch_11">
    <path d="M 54.43 194.188066 
L 54.43 138.846275 
" style="fill: none; stroke: #000000; stroke-width: 0.8; stroke-linejoin: miter; stroke-linecap: square"/>
   </g>
   <g id="text_8">
    <!-- theta -->
    <g transform="translate(152.375208 132.846275) scale(0.12 -0.12)">
     <defs>
      <path id="DejaVuSans-68" d="M 3513 2113 
L 3513 0 
L 2938 0 
L 2938 2094 
Q 2938 2591 2744 2837 
Q 2550 3084 2163 3084 
Q 1697 3084 1428 2787 
Q 1159 2491 1159 1978 
L 1159 0 
L 581 0 
L 581 4863 
L 1159 4863 
L 1159 2956 
Q 1366 3272 1645 3428 
Q 1925 3584 2291 3584 
Q 2894 3584 3203 3211 
Q 3513 2838 3513 2113 
z
" transform="scale(0.015625)"/>
     </defs>
     <use xlink:href="#DejaVuSans-74"/>
     <use xlink:href="#DejaVuSans-68" transform="translate(39.208984 0)"/>
     <use xlink:href="#DejaVuSans-65" transform="translate(102.587891 0)"/>
     <use xlink:href="#DejaVuSans-74" transform="translate(164.111328 0)"/>
     <use xlink:href="#DejaVuSans-61" transform="translate(203.320312 0)"/>
    </g>
   </g>
  </g>
  <g id="axes_5">
   <g id="patch_12">
    <path d="M 292.871667 195.294902 
L 315.635833 195.294902 
L 315.635833 138.846275 
L 292.871667 138.846275 
z
" style="fill: #ffffff"/>
   </g>
   <g id="patch_13">
    <path d="M 293.906402 194.188066 
L 304.25375 194.188066 
L 304.25375 190.015484 
L 293.906402 190.015484 
z
" clip-path="url(#p48ed6aa356)" style="fill: #ff0000"/>
   </g>
   <g id="patch_14">
    <path d="M 304.25375 194.188066 
L 314.601098 194.188066 
L 314.601098 194.188064 
L 304.25375 194.188064 
z
" clip-path="url(#p48ed6aa356)" style="fill: #0000ff"/>
   </g>
   <g id="matplotlib.axis_9"/>
   <g id="matplotlib.axis_10">
    <g id="ytick_9"/>
    <g id="ytick_10"/>
   </g>
  </g>
  <g id="axes_6">
   <g id="patch_15">
    <path d="M 326.435833 195.294902 
L 349.2 195.294902 
L 349.2 138.846275 
L 326.435833 138.846275 
z
" style="fill: #ffffff"/>
   </g>
   <g id="patch_16">
    <path d="M 327.470568 194.188066 
L 337.817917 194.188066 
L 337.817917 192.528819 
L 327.470568 192.528819 
z
" clip-path="url(#p1ff45fb373)" style="fill: #ff0000"/>
   </g>
   <g id="patch_17">
    <path d="M 337.817917 194.188066 
L 348.165265 194.188066 
L 348.165265 194.188064 
L 337.817917 194.188064 
z
" clip-path="url(#p1ff45fb373)" style="fill: #0000ff"/>
   </g>
   <g id="matplotlib.axis_11"/>
   <g id="matplotlib.axis_12">
    <g id="ytick_11"/>
    <g id="ytick_12"/>
   </g>
  </g>
  <g id="axes_7">
   <g id="patch_18">
    <path d="M 54.43 283.501176 
L 282.071667 283.501176 
L 282.071667 227.052549 
L 54.43 227.052549 
z
" style="fill: #ffffff"/>
   </g>
   <g id="matplotlib.axis_13">
    <g id="xtick_3"/>
   </g>
   <g id="matplotlib.axis_14">
    <g id="ytick_13">
     <g id="line2d_15">
      <g>
       <use xlink:href="#m38cef93907" x="54.43" y="282.394341" style="stroke: #000000; stroke-width: 0.8"/>
      </g>
     </g>
     <g id="text_9">
      <!-- 0.0 -->
      <g transform="translate(31.526875 286.193559) scale(0.1 -0.1)">
       <use xlink:href="#DejaVuSans-30"/>
       <use xlink:href="#DejaVuSans-2e" transform="translate(63.623047 0)"/>
       <use xlink:href="#DejaVuSans-30" transform="translate(95.410156 0)"/>
      </g>
     </g>
    </g>
    <g id="ytick_14">
     <g id="line2d_16">
      <g>
       <use xlink:href="#m38cef93907" x="54.43" y="227.052549" style="stroke: #000000; stroke-width: 0.8"/>
      </g>
     </g>
     <g id="text_10">
      <!-- 0.5 -->
      <g transform="translate(31.526875 230.851768) scale(0.1 -0.1)">
       <use xlink:href="#DejaVuSans-30"/>
       <use xlink:href="#DejaVuSans-2e" transform="translate(63.623047 0)"/>
       <use xlink:href="#DejaVuSans-35" transform="translate(95.410156 0)"/>
      </g>
     </g>
    </g>
   </g>
   <g id="line2d_17">
    <path d="M 54.43 282.394341 
L 70.690119 282.394284 
L 73.400139 280.700588 
L 76.110159 279.206087 
L 78.820179 278.374137 
L 81.530198 277.962662 
L 84.240218 277.909295 
L 86.950238 278.199352 
L 89.660258 278.874753 
L 92.370278 280.07227 
L 95.080298 282.394341 
L 225.16125 282.394341 
L 227.87127 280.374696 
L 230.58129 278.10239 
L 233.29131 276.648543 
L 236.001329 275.57001 
L 238.711349 274.725135 
L 244.131389 273.366092 
L 254.971468 270.926987 
L 260.391508 269.931046 
L 265.811548 269.181898 
L 271.231587 268.683977 
L 279.361647 268.189199 
L 282.071667 269.916383 
L 292.911746 265.282047 
L 295.621766 264.457801 
L 298.331786 263.888851 
L 301.041806 263.57475 
L 303.751825 263.483953 
L 306.461845 263.566543 
L 311.881885 264.120496 
L 317.301925 265.043358 
L 322.721964 266.257788 
L 328.142004 267.848144 
L 333.562044 269.806171 
L 341.692103 272.938272 
L 347.112143 274.590545 
L 349.822163 275.268877 
L 352.532183 275.664134 
L 355.242202 275.382192 
L 357.952222 274.095944 
L 361 271.71629 
L 361 271.71629 
" clip-path="url(#p2edb43c9b6)" style="fill: none; stroke: #ff0000; stroke-width: 1.5; stroke-linecap: square"/>
   </g>
   <g id="line2d_18">
    <path d="M 54.43 274.154814 
L 59.85004 274.123203 
L 65.270079 274.244083 
L 70.690119 274.629399 
L 76.110159 275.264111 
L 92.370278 277.656514 
L 97.790317 278.059972 
L 114.050437 278.974692 
L 116.760456 278.802305 
L 119.470476 278.432454 
L 124.890516 277.316836 
L 135.730595 275.047761 
L 138.440615 274.693274 
L 141.150635 274.466237 
L 143.860655 274.366214 
L 149.280694 274.503259 
L 151.990714 274.715064 
L 154.700734 275.03921 
L 160.120774 276.033557 
L 168.250833 277.701741 
L 170.960853 278.11486 
L 173.670873 278.376277 
L 176.380893 278.399343 
L 179.090913 278.149936 
L 189.930992 276.411659 
L 192.641012 276.216906 
L 195.351032 276.218281 
L 198.061052 276.432151 
L 200.771071 276.837962 
L 217.03119 280.048713 
L 219.74121 280.917776 
L 222.45123 282.39429 
L 279.361647 282.394341 
L 282.071667 280.927206 
L 284.781687 282.394341 
L 303.751825 282.394341 
L 306.461845 279.859988 
L 309.171865 278.443188 
L 311.881885 277.569285 
L 314.591905 276.984357 
L 320.011944 276.248902 
L 325.431984 275.801747 
L 338.982083 274.844632 
L 344.402123 274.443296 
L 349.822163 274.29546 
L 355.242202 274.515047 
L 360.662242 275.176282 
L 361 275.225732 
L 361 275.225732 
" clip-path="url(#p2edb43c9b6)" style="fill: none; stroke: #0000ff; stroke-width: 1.5; stroke-linecap: square"/>
   </g>
   <g id="line2d_19">
    <path d="M 54.43 282.394341 
L 282.071667 282.394341 
" clip-path="url(#p2edb43c9b6)" style="fill: none; stroke: #000000; stroke-width: 0.8; stroke-linecap: square"/>
   </g>
   <g id="line2d_20">
    <path d="M 54.43 280.421716 
L 57.14002 279.686097 
L 65.270079 278.225371 
L 73.400139 276.650816 
L 76.110159 276.319046 
L 78.820179 276.201396 
L 81.530198 276.337292 
L 84.240218 276.755418 
L 86.950238 277.515419 
L 89.660258 278.804884 
M 124.890516 280.93431 
L 127.600536 277.786118 
L 130.310556 276.189688 
L 133.020575 275.125332 
L 135.730595 274.462137 
L 138.440615 274.13432 
L 141.150635 274.099733 
L 143.860655 274.335919 
L 146.570675 274.824116 
L 149.280694 275.552253 
L 154.700734 277.47929 
L 160.120774 279.643891 
L 162.830794 280.882104 
M 219.74121 282.201464 
L 222.45123 279.593317 
L 227.87127 276.48334 
L 230.58129 275.124614 
L 233.29131 273.994089 
L 236.001329 273.157172 
L 238.711349 272.596861 
L 244.131389 271.955469 
L 249.551429 271.232743 
L 254.971468 270.124027 
L 265.811548 267.562477 
L 271.231587 266.645068 
L 279.361647 265.648035 
L 282.071667 268.217759 
L 287.491706 267.312608 
L 298.331786 265.060654 
L 301.041806 264.622178 
L 303.751825 264.303963 
L 306.461845 264.124648 
L 309.171865 264.091092 
L 311.881885 264.190091 
L 317.301925 264.742245 
L 322.721964 265.594075 
L 328.142004 266.686203 
L 333.562044 267.840343 
L 336.272063 268.324362 
L 338.982083 268.682339 
L 344.402123 268.99417 
L 349.822163 269.249711 
L 352.532183 269.429938 
L 355.242202 269.450326 
L 357.952222 269.034719 
L 361 267.84901 
L 361 267.84901 
" clip-path="url(#p2edb43c9b6)" style="fill: none; stroke-dasharray: 5.55,2.4; stroke-dashoffset: 0; stroke: #000000; stroke-width: 1.5"/>
   </g>
   <g id="line2d_21">
    <path d="M 108.630397 283.501176 
L 108.630397 227.052549 
" clip-path="url(#p2edb43c9b6)" style="fill: none; stroke: #000000; stroke-width: 0.8; stroke-linecap: square"/>
   </g>
   <g id="patch_19">
    <path d="M 54.43 282.394341 
L 54.43 227.052549 
" style="fill: none; stroke: #000000; stroke-width: 0.8; stroke-linejoin: miter; stroke-linecap: square"/>
   </g>
   <g id="text_11">
    <!-- alpha-beta -->
    <g transform="translate(135.923958 221.052549) scale(0.12 -0.12)">
     <defs>
      <path id="DejaVuSans-70" d="M 1159 525 
L 1159 -1331 
L 581 -1331 
L 581 3500 
L 1159 3500 
L 1159 2969 
Q 1341 3281 1617 3432 
Q 1894 3584 2278 3584 
Q 2916 3584 3314 3078 
Q 3713 2572 3713 1747 
Q 3713 922 3314 415 
Q 2916 -91 2278 -91 
Q 1894 -91 1617 61 
Q 1341 213 1159 525 
z
M 3116 1747 
Q 3116 2381 2855 2742 
Q 2594 3103 2138 3103 
Q 1681 3103 1420 2742 
Q 1159 2381 1159 1747 
Q 1159 1113 1420 752 
Q 1681 391 2138 391 
Q 2594 391 2855 752 
Q 3116 1113 3116 1747 
z
" transform="scale(0.015625)"/>
      <path id="DejaVuSans-2d" d="M 313 2009 
L 1997 2009 
L 1997 1497 
L 313 1497 
L 313 2009 
z
" transform="scale(0.015625)"/>
      <path id="DejaVuSans-62" d="M 3116 1747 
Q 3116 2381 2855 2742 
Q 2594 3103 2138 3103 
Q 1681 3103 1420 2742 
Q 1159 2381 1159 1747 
Q 1159 1113 1420 752 
Q 1681 391 2138 391 
Q 2594 391 2855 752 
Q 3116 1113 3116 1747 
z
M 1159 2969 
Q 1341 3281 1617 3432 
Q 1894 3584 2278 3584 
Q 2916 3584 3314 3078 
Q 3713 2572 3713 1747 
Q 3713 922 3314 415 
Q 2916 -91 2278 -91 
Q 1894 -91 1617 61 
Q 1341 213 1159 525 
L 1159 0 
L 581 0 
L 581 4863 
L 1159 4863 
L 1159 2969 
z
" transform="scale(0.015625)"/>
     </defs>
     <use xlink:href="#DejaVuSans-61"/>
     <use xlink:href="#DejaVuSans-6c" transform="translate(61.279297 0)"/>
     <use xlink:href="#DejaVuSans-70" transform="translate(89.0625 0)"/>
     <use xlink:href="#DejaVuSans-68" transform="translate(152.539062 0)"/>
     <use xlink:href="#DejaVuSans-61" transform="translate(215.917969 0)"/>
     <use xlink:href="#DejaVuSans-2d" transform="translate(277.197266 0)"/>
     <use xlink:href="#DejaVuSans-62" transform="translate(313.28125 0)"/>
     <use xlink:href="#DejaVuSans-65" transform="translate(376.757812 0)"/>
     <use xlink:href="#DejaVuSans-74" transform="translate(438.28125 0)"/>
     <use xlink:href="#DejaVuSans-61" transform="translate(477.490234 0)"/>
    </g>
   </g>
  </g>
  <g id="axes_8">
   <g id="patch_20">
    <path d="M 292.871667 283.501176 
L 315.635833 283.501176 
L 315.635833 227.052549 
L 292.871667 227.052549 
z
" style="fill: #ffffff"/>
   </g>
   <g id="patch_21">
    <path d="M 293.906402 282.394341 
L 304.25375 282.394341 
L 304.25375 281.001549 
L 293.906402 281.001549 
z
" clip-path="url(#pa7430f039c)" style="fill: #ff0000"/>
   </g>
   <g id="patch_22">
    <path d="M 304.25375 282.394341 
L 314.601098 282.394341 
L 314.601098 276.0814 
L 304.25375 276.0814 
z
" clip-path="url(#pa7430f039c)" style="fill: #0000ff"/>
   </g>
   <g id="matplotlib.axis_15"/>
   <g id="matplotlib.axis_16">
    <g id="ytick_15"/>
    <g id="ytick_16"/>
   </g>
  </g>
  <g id="axes_9">
   <g id="patch_23">
    <path d="M 326.435833 283.501176 
L 349.2 283.501176 
L 349.2 227.052549 
L 326.435833 227.052549 
z
" style="fill: #ffffff"/>
   </g>
   <g id="patch_24">
    <path d="M 327.470568 282.394341 
L 337.817917 282.394341 
L 337.817917 279.172914 
L 327.470568 279.172914 
z
" clip-path="url(#p8b580872ab)" style="fill: #ff0000"/>
   </g>
   <g id="patch_25">
    <path d="M 337.817917 282.394341 
L 348.165265 282.394341 
L 348.165265 278.916371 
L 337.817917 278.916371 
z
" clip-path="url(#p8b580872ab)" style="fill: #0000ff"/>
   </g>
   <g id="matplotlib.axis_17"/>
   <g id="matplotlib.axis_18">
    <g id="ytick_17"/>
    <g id="ytick_18"/>
   </g>
  </g>
  <g id="axes_10">
   <g id="patch_26">
    <path d="M 54.43 371.707451 
L 282.071667 371.707451 
L 282.071667 315.258824 
L 54.43 315.258824 
z
" style="fill: #ffffff"/>
   </g>
   <g id="matplotlib.axis_19">
    <g id="xtick_4"/>
   </g>
   <g id="matplotlib.axis_20">
    <g id="ytick_19">
     <g id="line2d_22">
      <g>
       <use xlink:href="#m38cef93907" x="54.43" y="370.600615" style="stroke: #000000; stroke-width: 0.8"/>
      </g>
     </g>
     <g id="text_12">
      <!-- 0.0 -->
      <g transform="translate(31.526875 374.399834) scale(0.1 -0.1)">
       <use xlink:href="#DejaVuSans-30"/>
       <use xlink:href="#DejaVuSans-2e" transform="translate(63.623047 0)"/>
       <use xlink:href="#DejaVuSans-30" transform="translate(95.410156 0)"/>
      </g>
     </g>
    </g>
    <g id="ytick_20">
     <g id="line2d_23">
      <g>
       <use xlink:href="#m38cef93907" x="54.43" y="315.258824" style="stroke: #000000; stroke-width: 0.8"/>
      </g>
     </g>
     <g id="text_13">
      <!-- 0.5 -->
      <g transform="translate(31.526875 319.058042) scale(0.1 -0.1)">
       <use xlink:href="#DejaVuSans-30"/>
       <use xlink:href="#DejaVuSans-2e" transform="translate(63.623047 0)"/>
       <use xlink:href="#DejaVuSans-35" transform="translate(95.410156 0)"/>
      </g>
     </g>
    </g>
   </g>
   <g id="line2d_24">
    <path d="M 54.43 370.600615 
L 70.690119 370.600615 
L 73.400139 370.10341 
L 76.110159 369.877118 
L 78.820179 369.825458 
L 81.530198 369.915795 
L 86.950238 370.600615 
L 233.29131 370.600615 
L 236.001329 368.346801 
L 238.711349 367.004872 
L 241.421369 365.960825 
L 246.841409 364.264378 
L 252.261448 362.911979 
L 257.681488 361.847337 
L 263.101528 361.032082 
L 268.521567 360.43124 
L 276.651627 359.776194 
L 279.361647 359.597072 
L 282.071667 361.504229 
L 287.491706 359.962839 
L 292.911746 358.659159 
L 298.331786 357.726362 
L 303.751825 357.217689 
L 309.171865 357.116708 
L 314.591905 357.379316 
L 320.011944 357.972038 
L 325.431984 358.879368 
L 330.852024 360.090837 
L 344.402123 363.436571 
L 349.822163 364.367491 
L 352.532183 364.5901 
L 355.242202 364.520965 
L 357.952222 364.086222 
L 361 363.165437 
L 361 363.165437 
" clip-path="url(#p3ecc846c9f)" style="fill: none; stroke: #ff0000; stroke-width: 1.5; stroke-linecap: square"/>
   </g>
   <g id="line2d_25">
    <path d="M 54.43 364.554348 
L 59.85004 364.441897 
L 65.270079 364.552613 
L 70.690119 364.989057 
L 76.110159 365.819492 
L 78.820179 366.409246 
L 81.530198 367.147685 
L 84.240218 368.107824 
L 86.950238 369.745318 
L 89.660258 370.600556 
L 135.730595 370.600615 
L 138.440615 369.038732 
L 141.150635 368.210929 
L 143.860655 367.690412 
L 146.570675 367.371219 
L 149.280694 367.224701 
L 151.990714 367.230279 
L 154.700734 367.372271 
L 160.120774 367.989111 
L 165.540813 368.773774 
L 168.250833 369.075684 
L 170.960853 369.223473 
L 173.670873 369.184666 
L 179.090913 368.751388 
L 184.510952 368.30304 
L 187.220972 368.199209 
L 189.930992 368.221609 
L 192.641012 368.408824 
L 195.351032 368.831037 
L 200.771071 370.600615 
L 257.681488 370.600615 
L 260.391508 369.838739 
L 263.101528 369.26925 
L 268.521567 368.735739 
L 279.361647 368.096251 
L 282.071667 370.600615 
L 306.461845 370.600615 
L 309.171865 367.939838 
L 311.881885 366.447351 
L 314.591905 365.297242 
L 317.301925 364.319168 
L 322.721964 362.715772 
L 328.142004 361.508222 
L 333.562044 360.620235 
L 338.982083 359.987066 
L 344.402123 359.573414 
L 349.822163 359.391455 
L 355.242202 359.473132 
L 361 359.891751 
L 361 359.891751 
" clip-path="url(#p3ecc846c9f)" style="fill: none; stroke: #0000ff; stroke-width: 1.5; stroke-linecap: square"/>
   </g>
   <g id="line2d_26">
    <path d="M 54.43 370.600615 
L 282.071667 370.600615 
" clip-path="url(#p3ecc846c9f)" style="fill: none; stroke: #000000; stroke-width: 0.8; stroke-linecap: square"/>
   </g>
   <g id="line2d_27">
    <path d="M 241.421369 367.309609 
L 244.131389 365.871614 
L 246.841409 364.827592 
L 249.551429 363.996773 
L 254.971468 362.710328 
L 260.391508 361.691183 
L 271.231587 360.00047 
L 279.361647 358.727072 
L 282.071667 362.169256 
L 284.781687 362.182189 
L 287.491706 362.03141 
L 290.201726 361.727689 
L 295.621766 360.820465 
L 306.461845 358.826953 
L 311.881885 358.003858 
L 317.301925 357.354362 
L 322.721964 356.91487 
L 328.142004 356.749801 
L 336.272063 356.862558 
L 349.822163 357.183342 
L 357.952222 357.511073 
L 361 357.473795 
L 361 357.473795 
" clip-path="url(#p3ecc846c9f)" style="fill: none; stroke-dasharray: 5.55,2.4; stroke-dashoffset: 0; stroke: #000000; stroke-width: 1.5"/>
   </g>
   <g id="line2d_28">
    <path d="M 108.630397 371.707451 
L 108.630397 315.258824 
" clip-path="url(#p3ecc846c9f)" style="fill: none; stroke: #000000; stroke-width: 0.8; stroke-linecap: square"/>
   </g>
   <g id="patch_27">
    <path d="M 54.43 370.600615 
L 54.43 315.258824 
" style="fill: none; stroke: #000000; stroke-width: 0.8; stroke-linejoin: miter; stroke-linecap: square"/>
   </g>
   <g id="text_14">
    <!-- alpha -->
    <g transform="translate(151.618646 309.258824) scale(0.12 -0.12)">
     <use xlink:href="#DejaVuSans-61"/>
     <use xlink:href="#DejaVuSans-6c" transform="translate(61.279297 0)"/>
     <use xlink:href="#DejaVuSans-70" transform="translate(89.0625 0)"/>
     <use xlink:href="#DejaVuSans-68" transform="translate(152.539062 0)"/>
     <use xlink:href="#DejaVuSans-61" transform="translate(215.917969 0)"/>
    </g>
   </g>
  </g>
  <g id="axes_11">
   <g id="patch_28">
    <path d="M 292.871667 371.707451 
L 315.635833 371.707451 
L 315.635833 315.258824 
L 292.871667 315.258824 
z
" style="fill: #ffffff"/>
   </g>
   <g id="patch_29">
    <path d="M 293.906402 370.600615 
L 304.25375 370.600615 
L 304.25375 370.451609 
L 293.906402 370.451609 
z
" clip-path="url(#pab4b57c0d5)" style="fill: #ff0000"/>
   </g>
   <g id="patch_30">
    <path d="M 304.25375 370.600615 
L 314.601098 370.600615 
L 314.601098 367.449699 
L 304.25375 367.449699 
z
" clip-path="url(#pab4b57c0d5)" style="fill: #0000ff"/>
   </g>
   <g id="matplotlib.axis_21"/>
   <g id="matplotlib.axis_22">
    <g id="ytick_21"/>
    <g id="ytick_22"/>
   </g>
  </g>
  <g id="axes_12">
   <g id="patch_31">
    <path d="M 326.435833 371.707451 
L 349.2 371.707451 
L 349.2 315.258824 
L 326.435833 315.258824 
z
" style="fill: #ffffff"/>
   </g>
   <g id="patch_32">
    <path d="M 327.470568 370.600615 
L 337.817917 370.600615 
L 337.817917 368.478675 
L 327.470568 368.478675 
z
" clip-path="url(#p0f400b6559)" style="fill: #ff0000"/>
   </g>
   <g id="patch_33">
    <path d="M 337.817917 370.600615 
L 348.165265 370.600615 
L 348.165265 369.56678 
L 337.817917 369.56678 
z
" clip-path="url(#p0f400b6559)" style="fill: #0000ff"/>
   </g>
   <g id="matplotlib.axis_23"/>
   <g id="matplotlib.axis_24">
    <g id="ytick_23"/>
    <g id="ytick_24"/>
   </g>
  </g>
  <g id="axes_13">
   <g id="patch_34">
    <path d="M 54.43 459.913725 
L 282.071667 459.913725 
L 282.071667 403.465098 
L 54.43 403.465098 
z
" style="fill: #ffffff"/>
   </g>
   <g id="matplotlib.axis_25">
    <g id="xtick_5"/>
   </g>
   <g id="matplotlib.axis_26">
    <g id="ytick_25">
     <g id="line2d_29">
      <g>
       <use xlink:href="#m38cef93907" x="54.43" y="458.80689" style="stroke: #000000; stroke-width: 0.8"/>
      </g>
     </g>
     <g id="text_15">
      <!-- 0.0 -->
      <g transform="translate(31.526875 462.606108) scale(0.1 -0.1)">
       <use xlink:href="#DejaVuSans-30"/>
       <use xlink:href="#DejaVuSans-2e" transform="translate(63.623047 0)"/>
       <use xlink:href="#DejaVuSans-30" transform="translate(95.410156 0)"/>
      </g>
     </g>
    </g>
    <g id="ytick_26">
     <g id="line2d_30">
      <g>
       <use xlink:href="#m38cef93907" x="54.43" y="403.465098" style="stroke: #000000; stroke-width: 0.8"/>
      </g>
     </g>
     <g id="text_16">
      <!-- 0.5 -->
      <g transform="translate(31.526875 407.264317) scale(0.1 -0.1)">
       <use xlink:href="#DejaVuSans-30"/>
       <use xlink:href="#DejaVuSans-2e" transform="translate(63.623047 0)"/>
       <use xlink:href="#DejaVuSans-35" transform="translate(95.410156 0)"/>
      </g>
     </g>
    </g>
   </g>
   <g id="line2d_31">
    <path d="M 54.43 458.806797 
L 73.400139 458.80689 
L 76.110159 455.756859 
L 78.820179 454.266556 
L 81.530198 453.524046 
L 84.240218 453.344638 
L 86.950238 453.684788 
L 89.660258 454.611838 
L 92.370278 456.323799 
L 95.080298 458.80689 
L 225.16125 458.80689 
L 227.87127 457.88005 
L 230.58129 454.800934 
L 233.29131 453.321131 
L 236.001329 452.40203 
L 238.711349 451.81897 
L 244.131389 450.950494 
L 246.841409 450.386336 
L 249.551429 449.655465 
L 263.101528 445.437701 
L 265.811548 444.842767 
L 268.521567 444.384552 
L 271.231587 444.115751 
L 276.651627 443.999638 
L 279.361647 444.087891 
L 282.071667 446.584513 
L 284.781687 445.05169 
L 290.201726 441.437481 
L 292.911746 439.641154 
L 295.621766 438.147096 
L 298.331786 437.085712 
L 301.041806 436.485902 
L 303.751825 436.274041 
L 306.461845 436.325822 
L 309.171865 436.584825 
L 311.881885 436.996888 
L 317.301925 438.148332 
L 322.721964 439.601572 
L 325.431984 440.505 
L 328.142004 441.553122 
L 330.852024 442.724102 
L 333.562044 444.029165 
L 341.692103 448.329959 
L 349.822163 452.089344 
L 352.532183 452.895891 
L 355.242202 451.858641 
L 357.952222 448.740988 
L 361 444.861804 
L 361 444.861804 
" clip-path="url(#pf372a6ef71)" style="fill: none; stroke: #ff0000; stroke-width: 1.5; stroke-linecap: square"/>
   </g>
   <g id="line2d_32">
    <path d="M 54.43 450.897128 
L 67.980099 451.171232 
L 70.690119 451.424988 
L 81.530198 452.831908 
L 84.240218 452.91096 
L 86.950238 452.852603 
L 92.370278 452.427071 
L 97.790317 451.712976 
L 103.210357 451.005446 
L 108.630397 450.734485 
L 119.470476 450.851399 
L 130.310556 449.903505 
L 135.730595 449.544767 
L 141.150635 449.675896 
L 146.570675 450.192707 
L 151.990714 451.045354 
L 157.410754 452.284538 
L 162.830794 453.56823 
L 170.960853 455.397028 
L 173.670873 456.134502 
L 176.380893 456.653053 
L 179.090913 456.469252 
L 181.800933 455.716535 
L 187.220972 453.88996 
L 189.930992 453.140742 
L 192.641012 452.56666 
L 195.351032 452.223141 
L 198.061052 452.181633 
L 200.771071 452.419681 
L 203.481091 452.804989 
L 206.191111 453.072527 
L 208.901131 453.018028 
L 219.74121 451.744941 
L 225.16125 451.515071 
L 233.29131 451.436719 
L 238.711349 451.603075 
L 241.421369 451.937325 
L 244.131389 452.532191 
L 246.841409 453.357795 
L 249.551429 454.402632 
L 252.261448 455.862866 
L 254.971468 458.806792 
L 279.361647 458.806836 
L 282.071667 454.842355 
L 284.781687 455.358197 
L 287.491706 456.582315 
L 290.201726 458.806882 
L 301.041806 458.80689 
L 303.751825 458.392812 
L 306.461845 455.753797 
L 309.171865 454.88979 
L 311.881885 454.608828 
L 314.591905 454.731562 
L 317.301925 455.126326 
L 320.011944 455.721138 
L 322.721964 456.495398 
L 325.431984 457.553882 
L 328.142004 458.806882 
L 361 458.806888 
L 361 458.806888 
" clip-path="url(#pf372a6ef71)" style="fill: none; stroke: #0000ff; stroke-width: 1.5; stroke-linecap: square"/>
   </g>
   <g id="line2d_33">
    <path d="M 54.43 458.80689 
L 282.071667 458.80689 
" clip-path="url(#pf372a6ef71)" style="fill: none; stroke: #000000; stroke-width: 0.8; stroke-linecap: square"/>
   </g>
   <g id="line2d_34">
    <path d="M 54.43 454.918382 
L 57.14002 455.142794 
L 62.56006 455.965484 
L 65.270079 455.922241 
L 67.980099 455.39563 
L 76.110159 452.866948 
L 78.820179 452.291514 
L 81.530198 451.971511 
L 84.240218 451.928999 
L 86.950238 452.199503 
L 89.660258 452.847563 
L 92.370278 453.899042 
L 95.080298 455.387541 
L 97.790317 457.494144 
M 105.920377 457.22564 
L 108.630397 455.310406 
L 116.760456 450.633205 
L 119.470476 449.221091 
L 122.180496 448.076962 
L 124.890516 447.293092 
L 127.600536 446.859822 
L 130.310556 446.701923 
L 133.020575 446.78419 
L 135.730595 447.129297 
L 138.440615 447.727912 
L 141.150635 448.541726 
L 143.860655 449.524386 
L 151.990714 452.743789 
L 154.700734 453.286405 
L 157.410754 453.261626 
L 160.120774 452.733236 
L 168.250833 450.57872 
L 170.960853 450.086209 
L 173.670873 449.845393 
L 176.380893 449.889376 
L 179.090913 450.194202 
L 181.800933 450.714792 
L 187.220972 452.191926 
L 195.351032 454.679763 
L 198.061052 455.469396 
L 200.771071 456.461793 
L 203.481091 458.172821 
M 211.611151 457.004748 
L 214.321171 456.26451 
L 219.74121 455.434554 
L 222.45123 454.572099 
L 225.16125 453.321026 
L 230.58129 450.529761 
L 233.29131 449.338907 
L 236.001329 448.412595 
L 238.711349 447.725269 
L 246.841409 446.08283 
L 249.551429 445.26225 
L 254.971468 443.311463 
L 260.391508 441.362612 
L 263.101528 440.669621 
L 265.811548 440.21937 
L 268.521567 439.969695 
L 271.231587 439.92518 
L 276.651627 440.154606 
L 279.361647 440.317093 
L 282.071667 444.137255 
L 292.911746 439.516738 
L 295.621766 438.527855 
L 298.331786 437.702148 
L 301.041806 437.096095 
L 303.751825 436.734818 
L 306.461845 436.614058 
L 309.171865 436.74699 
L 311.881885 437.119609 
L 314.591905 437.695414 
L 320.011944 439.23932 
L 325.431984 441.075694 
L 330.852024 443.241117 
L 336.272063 445.492254 
L 338.982083 446.450509 
L 341.692103 447.098652 
L 347.112143 447.839394 
L 352.532183 449.067334 
L 355.242202 449.013483 
L 357.952222 447.256549 
L 361 444.141114 
L 361 444.141114 
" clip-path="url(#pf372a6ef71)" style="fill: none; stroke-dasharray: 5.55,2.4; stroke-dashoffset: 0; stroke: #000000; stroke-width: 1.5"/>
   </g>
   <g id="line2d_35">
    <path d="M 108.630397 459.913725 
L 108.630397 403.465098 
" clip-path="url(#pf372a6ef71)" style="fill: none; stroke: #000000; stroke-width: 0.8; stroke-linecap: square"/>
   </g>
   <g id="patch_35">
    <path d="M 54.43 458.80689 
L 54.43 403.465098 
" style="fill: none; stroke: #000000; stroke-width: 0.8; stroke-linejoin: miter; stroke-linecap: square"/>
   </g>
   <g id="text_17">
    <!-- beta -->
    <g transform="translate(154.720833 397.465098) scale(0.12 -0.12)">
     <use xlink:href="#DejaVuSans-62"/>
     <use xlink:href="#DejaVuSans-65" transform="translate(63.476562 0)"/>
     <use xlink:href="#DejaVuSans-74" transform="translate(125 0)"/>
     <use xlink:href="#DejaVuSans-61" transform="translate(164.208984 0)"/>
    </g>
   </g>
  </g>
  <g id="axes_14">
   <g id="patch_36">
    <path d="M 292.871667 459.913725 
L 315.635833 459.913725 
L 315.635833 403.465098 
L 292.871667 403.465098 
z
" style="fill: #ffffff"/>
   </g>
   <g id="patch_37">
    <path d="M 293.906402 458.80689 
L 304.25375 458.80689 
L 304.25375 457.300089 
L 293.906402 457.300089 
z
" clip-path="url(#p74053526c9)" style="fill: #ff0000"/>
   </g>
   <g id="patch_38">
    <path d="M 304.25375 458.80689 
L 314.601098 458.80689 
L 314.601098 451.736758 
L 304.25375 451.736758 
z
" clip-path="url(#p74053526c9)" style="fill: #0000ff"/>
   </g>
   <g id="matplotlib.axis_27"/>
   <g id="matplotlib.axis_28">
    <g id="ytick_27"/>
    <g id="ytick_28"/>
   </g>
  </g>
  <g id="axes_15">
   <g id="patch_39">
    <path d="M 326.435833 459.913725 
L 349.2 459.913725 
L 349.2 403.465098 
L 326.435833 403.465098 
z
" style="fill: #ffffff"/>
   </g>
   <g id="patch_40">
    <path d="M 327.470568 458.80689 
L 337.817917 458.80689 
L 337.817917 455.637765 
L 327.470568 455.637765 
z
" clip-path="url(#pdff3189eff)" style="fill: #ff0000"/>
   </g>
   <g id="patch_41">
    <path d="M 337.817917 458.80689 
L 348.165265 458.80689 
L 348.165265 453.2903 
L 337.817917 453.2903 
z
" clip-path="url(#pdff3189eff)" style="fill: #0000ff"/>
   </g>
   <g id="matplotlib.axis_29"/>
   <g id="matplotlib.axis_30">
    <g id="ytick_29"/>
    <g id="ytick_30"/>
   </g>
  </g>
  <g id="axes_16">
   <g id="patch_42">
    <path d="M 54.43 548.12 
L 282.071667 548.12 
L 282.071667 491.671373 
L 54.43 491.671373 
z
" style="fill: #ffffff"/>
   </g>
   <g id="matplotlib.axis_31">
    <g id="xtick_6">
     <g id="text_18">
      <!-- Cue -->
      <g transform="translate(98.893678 562.718437) scale(0.1 -0.1)">
       <defs>
        <path id="DejaVuSans-43" d="M 4122 4306 
L 4122 3641 
Q 3803 3938 3442 4084 
Q 3081 4231 2675 4231 
Q 1875 4231 1450 3742 
Q 1025 3253 1025 2328 
Q 1025 1406 1450 917 
Q 1875 428 2675 428 
Q 3081 428 3442 575 
Q 3803 722 4122 1019 
L 4122 359 
Q 3791 134 3420 21 
Q 3050 -91 2638 -91 
Q 1578 -91 968 557 
Q 359 1206 359 2328 
Q 359 3453 968 4101 
Q 1578 4750 2638 4750 
Q 3056 4750 3426 4639 
Q 3797 4528 4122 4306 
z
" transform="scale(0.015625)"/>
        <path id="DejaVuSans-75" d="M 544 1381 
L 544 3500 
L 1119 3500 
L 1119 1403 
Q 1119 906 1312 657 
Q 1506 409 1894 409 
Q 2359 409 2629 706 
Q 2900 1003 2900 1516 
L 2900 3500 
L 3475 3500 
L 3475 0 
L 2900 0 
L 2900 538 
Q 2691 219 2414 64 
Q 2138 -91 1772 -91 
Q 1169 -91 856 284 
Q 544 659 544 1381 
z
M 1991 3584 
L 1991 3584 
z
" transform="scale(0.015625)"/>
       </defs>
       <use xlink:href="#DejaVuSans-43"/>
       <use xlink:href="#DejaVuSans-75" transform="translate(69.824219 0)"/>
       <use xlink:href="#DejaVuSans-65" transform="translate(133.203125 0)"/>
      </g>
     </g>
    </g>
   </g>
   <g id="matplotlib.axis_32">
    <g id="ytick_31">
     <g id="line2d_36">
      <g>
       <use xlink:href="#m38cef93907" x="54.43" y="547.013164" style="stroke: #000000; stroke-width: 0.8"/>
      </g>
     </g>
     <g id="text_19">
      <!-- 0.0 -->
      <g transform="translate(31.526875 550.812383) scale(0.1 -0.1)">
       <use xlink:href="#DejaVuSans-30"/>
       <use xlink:href="#DejaVuSans-2e" transform="translate(63.623047 0)"/>
       <use xlink:href="#DejaVuSans-30" transform="translate(95.410156 0)"/>
      </g>
     </g>
    </g>
    <g id="ytick_32">
     <g id="line2d_37">
      <g>
       <use xlink:href="#m38cef93907" x="54.43" y="491.671373" style="stroke: #000000; stroke-width: 0.8"/>
      </g>
     </g>
     <g id="text_20">
      <!-- 0.5 -->
      <g transform="translate(31.526875 495.470591) scale(0.1 -0.1)">
       <use xlink:href="#DejaVuSans-30"/>
       <use xlink:href="#DejaVuSans-2e" transform="translate(63.623047 0)"/>
       <use xlink:href="#DejaVuSans-35" transform="translate(95.410156 0)"/>
      </g>
     </g>
    </g>
   </g>
   <g id="line2d_38">
    <path d="M 54.43 547.013164 
L 84.240218 547.013164 
L 86.950238 542.828305 
L 89.660258 540.565038 
L 92.370278 541.666063 
L 95.080298 545.265684 
L 97.790317 547.013164 
L 108.630397 547.013164 
L 111.340417 540.615393 
L 114.050437 539.469693 
L 116.760456 542.795211 
L 119.470476 547.013124 
L 143.860655 547.013131 
L 149.280694 541.166048 
L 151.990714 543.538803 
L 154.700734 547.013164 
L 165.540813 547.013164 
L 168.250833 543.751873 
L 170.960853 538.489588 
L 173.670873 535.420851 
L 176.380893 534.678197 
L 179.090913 535.939601 
L 181.800933 538.994825 
L 184.510952 546.476444 
L 187.220972 547.013164 
L 208.901131 547.013164 
L 211.611151 538.523326 
L 214.321171 538.564481 
L 217.03119 544.171731 
L 219.74121 547.013164 
L 227.87127 547.013164 
L 230.58129 544.252776 
L 233.29131 543.762186 
L 236.001329 542.762046 
L 238.711349 541.159184 
L 241.421369 541.110037 
L 244.131389 542.250857 
L 246.841409 546.634578 
L 249.551429 547.013164 
L 260.391508 547.013164 
L 263.101528 543.630623 
L 265.811548 540.836437 
L 268.521567 539.861253 
L 271.231587 540.654972 
L 276.651627 538.813346 
L 279.361647 539.706367 
L 282.071667 547.013164 
L 292.911746 547.013109 
L 295.621766 537.73413 
L 298.331786 531.670908 
L 301.041806 529.073905 
L 303.751825 531.364966 
L 306.461845 534.117976 
L 309.171865 537.13194 
L 311.881885 538.800349 
L 314.591905 539.660586 
L 317.301925 540.878307 
L 320.011944 547.013164 
L 355.242202 547.013164 
L 360.662242 520.997245 
L 361 520.703044 
L 361 520.703044 
" clip-path="url(#p4e50d112c1)" style="fill: none; stroke: #ff0000; stroke-width: 1.5; stroke-linecap: square"/>
   </g>
   <g id="line2d_39">
    <path d="M 54.43 540.506456 
L 57.14002 538.645725 
L 59.85004 535.730987 
L 62.56006 533.547842 
L 65.270079 535.439569 
L 67.980099 539.740979 
L 70.690119 547.013082 
L 114.050437 547.013164 
L 116.760456 545.469544 
L 119.470476 546.161296 
L 122.180496 547.013086 
L 133.020575 547.013164 
L 135.730595 542.170744 
L 138.440615 542.709478 
L 141.150635 546.251872 
L 143.860655 547.013094 
L 151.990714 547.013164 
L 154.700734 542.548939 
L 157.410754 540.854099 
L 160.120774 539.487757 
L 162.830794 540.191434 
L 165.540813 542.393724 
L 168.250833 545.228635 
L 170.960853 547.013133 
L 203.481091 547.013164 
L 206.191111 543.115571 
L 208.901131 542.475894 
L 211.611151 543.076547 
L 214.321171 547.013164 
L 236.001329 547.013163 
L 238.711349 542.411132 
L 241.421369 544.927414 
L 244.131389 547.013164 
L 273.941607 547.013163 
L 279.361647 543.872181 
L 282.071667 547.013164 
L 287.491706 547.013164 
L 290.201726 540.742877 
L 292.911746 535.735662 
L 295.621766 535.120264 
L 298.331786 536.427965 
L 301.041806 538.26232 
L 303.751825 540.753334 
L 306.461845 542.752697 
L 309.171865 543.301068 
L 311.881885 542.747454 
L 314.591905 545.186377 
L 317.301925 547.013164 
L 328.142004 547.013164 
L 330.852024 546.009442 
L 333.562044 547.013087 
L 344.402123 547.013164 
L 347.112143 545.527048 
L 349.822163 543.653881 
L 352.532183 541.965312 
L 355.242202 542.284765 
L 357.952222 547.012938 
L 360.662242 547.013164 
L 361 546.499067 
L 361 546.499067 
" clip-path="url(#p4e50d112c1)" style="fill: none; stroke: #0000ff; stroke-width: 1.5; stroke-linecap: square"/>
   </g>
   <g id="line2d_40">
    <path d="M 54.43 547.013164 
L 282.071667 547.013164 
" clip-path="url(#p4e50d112c1)" style="fill: none; stroke: #000000; stroke-width: 0.8; stroke-linecap: square"/>
   </g>
   <g id="line2d_41">
    <path d="M 54.43 537.815436 
L 57.14002 536.093221 
L 59.85004 535.08403 
L 62.56006 534.345384 
L 65.270079 537.079818 
M 86.950238 540.008208 
L 89.660258 535.738858 
L 92.370278 537.846859 
M 114.050437 541.438246 
L 116.760456 539.124106 
L 119.470476 541.630346 
M 135.730595 540.307992 
L 138.440615 537.593601 
L 141.150635 538.325301 
L 143.860655 544.194347 
M 149.280694 539.820455 
L 151.990714 538.257244 
L 154.700734 543.015931 
M 170.960853 541.003426 
L 173.670873 537.863353 
L 176.380893 536.177075 
L 179.090913 536.62281 
L 181.800933 536.694979 
L 184.510952 535.62229 
L 187.220972 535.842611 
L 189.930992 537.09271 
L 192.641012 538.811762 
L 195.351032 541.358361 
M 249.551429 544.211534 
L 252.261448 537.763821 
L 254.971468 540.030585 
M 273.941607 543.985903 
L 276.651627 543.676432 
M 292.911746 540.25682 
L 295.621766 534.105731 
L 298.331786 529.949053 
L 301.041806 528.110427 
L 306.461845 533.074058 
L 309.171865 535.605668 
L 311.881885 536.702092 
L 314.591905 537.984818 
L 317.301925 540.846818 
M 357.952222 537.119282 
L 360.662242 521.605804 
L 361 521.230913 
L 361 521.230913 
" clip-path="url(#p4e50d112c1)" style="fill: none; stroke-dasharray: 5.55,2.4; stroke-dashoffset: 0; stroke: #000000; stroke-width: 1.5"/>
   </g>
   <g id="line2d_42">
    <path d="M 108.630397 548.12 
L 108.630397 491.671373 
" clip-path="url(#p4e50d112c1)" style="fill: none; stroke: #000000; stroke-width: 0.8; stroke-linecap: square"/>
   </g>
   <g id="patch_43">
    <path d="M 54.43 547.013164 
L 54.43 491.671373 
" style="fill: none; stroke: #000000; stroke-width: 0.8; stroke-linejoin: miter; stroke-linecap: square"/>
   </g>
   <g id="text_21">
    <!-- gamma -->
    <g transform="translate(145.399271 485.671373) scale(0.12 -0.12)">
     <defs>
      <path id="DejaVuSans-67" d="M 2906 1791 
Q 2906 2416 2648 2759 
Q 2391 3103 1925 3103 
Q 1463 3103 1205 2759 
Q 947 2416 947 1791 
Q 947 1169 1205 825 
Q 1463 481 1925 481 
Q 2391 481 2648 825 
Q 2906 1169 2906 1791 
z
M 3481 434 
Q 3481 -459 3084 -895 
Q 2688 -1331 1869 -1331 
Q 1566 -1331 1297 -1286 
Q 1028 -1241 775 -1147 
L 775 -588 
Q 1028 -725 1275 -790 
Q 1522 -856 1778 -856 
Q 2344 -856 2625 -561 
Q 2906 -266 2906 331 
L 2906 616 
Q 2728 306 2450 153 
Q 2172 0 1784 0 
Q 1141 0 747 490 
Q 353 981 353 1791 
Q 353 2603 747 3093 
Q 1141 3584 1784 3584 
Q 2172 3584 2450 3431 
Q 2728 3278 2906 2969 
L 2906 3500 
L 3481 3500 
L 3481 434 
z
" transform="scale(0.015625)"/>
      <path id="DejaVuSans-6d" d="M 3328 2828 
Q 3544 3216 3844 3400 
Q 4144 3584 4550 3584 
Q 5097 3584 5394 3201 
Q 5691 2819 5691 2113 
L 5691 0 
L 5113 0 
L 5113 2094 
Q 5113 2597 4934 2840 
Q 4756 3084 4391 3084 
Q 3944 3084 3684 2787 
Q 3425 2491 3425 1978 
L 3425 0 
L 2847 0 
L 2847 2094 
Q 2847 2600 2669 2842 
Q 2491 3084 2119 3084 
Q 1678 3084 1418 2786 
Q 1159 2488 1159 1978 
L 1159 0 
L 581 0 
L 581 3500 
L 1159 3500 
L 1159 2956 
Q 1356 3278 1631 3431 
Q 1906 3584 2284 3584 
Q 2666 3584 2933 3390 
Q 3200 3197 3328 2828 
z
" transform="scale(0.015625)"/>
     </defs>
     <use xlink:href="#DejaVuSans-67"/>
     <use xlink:href="#DejaVuSans-61" transform="translate(63.476562 0)"/>
     <use xlink:href="#DejaVuSans-6d" transform="translate(124.755859 0)"/>
     <use xlink:href="#DejaVuSans-6d" transform="translate(222.167969 0)"/>
     <use xlink:href="#DejaVuSans-61" transform="translate(319.580078 0)"/>
    </g>
   </g>
  </g>
  <g id="axes_17">
   <g id="patch_44">
    <path d="M 292.871667 548.12 
L 315.635833 548.12 
L 315.635833 491.671373 
L 292.871667 491.671373 
z
" style="fill: #ffffff"/>
   </g>
   <g id="patch_45">
    <path d="M 293.906402 547.013164 
L 304.25375 547.013164 
L 304.25375 546.126778 
L 293.906402 546.126778 
z
" clip-path="url(#p191a053ddc)" style="fill: #ff0000"/>
   </g>
   <g id="patch_46">
    <path d="M 304.25375 547.013164 
L 314.601098 547.013164 
L 314.601098 544.089781 
L 304.25375 544.089781 
z
" clip-path="url(#p191a053ddc)" style="fill: #0000ff"/>
   </g>
   <g id="matplotlib.axis_33"/>
   <g id="matplotlib.axis_34">
    <g id="ytick_33"/>
    <g id="ytick_34"/>
   </g>
  </g>
  <g id="axes_18">
   <g id="patch_47">
    <path d="M 326.435833 548.12 
L 349.2 548.12 
L 349.2 491.671373 
L 326.435833 491.671373 
z
" style="fill: #ffffff"/>
   </g>
   <g id="patch_48">
    <path d="M 327.470568 547.013164 
L 337.817917 547.013164 
L 337.817917 544.22415 
L 327.470568 544.22415 
z
" clip-path="url(#p985c74c155)" style="fill: #ff0000"/>
   </g>
   <g id="patch_49">
    <path d="M 337.817917 547.013164 
L 348.165265 547.013164 
L 348.165265 545.96027 
L 337.817917 545.96027 
z
" clip-path="url(#p985c74c155)" style="fill: #0000ff"/>
   </g>
   <g id="matplotlib.axis_35"/>
   <g id="matplotlib.axis_36">
    <g id="ytick_35"/>
    <g id="ytick_36"/>
   </g>
  </g>
  <g id="text_22">
   <!-- variance (a.u.) -->
   <g transform="translate(14.798438 324.428125) rotate(-90) scale(0.1 -0.1)">
    <defs>
     <path id="DejaVuSans-76" d="M 191 3500 
L 800 3500 
L 1894 563 
L 2988 3500 
L 3597 3500 
L 2284 0 
L 1503 0 
L 191 3500 
z
" transform="scale(0.015625)"/>
     <path id="DejaVuSans-69" d="M 603 3500 
L 1178 3500 
L 1178 0 
L 603 0 
L 603 3500 
z
M 603 4863 
L 1178 4863 
L 1178 4134 
L 603 4134 
L 603 4863 
z
" transform="scale(0.015625)"/>
     <path id="DejaVuSans-6e" d="M 3513 2113 
L 3513 0 
L 2938 0 
L 2938 2094 
Q 2938 2591 2744 2837 
Q 2550 3084 2163 3084 
Q 1697 3084 1428 2787 
Q 1159 2491 1159 1978 
L 1159 0 
L 581 0 
L 581 3500 
L 1159 3500 
L 1159 2956 
Q 1366 3272 1645 3428 
Q 1925 3584 2291 3584 
Q 2894 3584 3203 3211 
Q 3513 2838 3513 2113 
z
" transform="scale(0.015625)"/>
     <path id="DejaVuSans-63" d="M 3122 3366 
L 3122 2828 
Q 2878 2963 2633 3030 
Q 2388 3097 2138 3097 
Q 1578 3097 1268 2742 
Q 959 2388 959 1747 
Q 959 1106 1268 751 
Q 1578 397 2138 397 
Q 2388 397 2633 464 
Q 2878 531 3122 666 
L 3122 134 
Q 2881 22 2623 -34 
Q 2366 -91 2075 -91 
Q 1284 -91 818 406 
Q 353 903 353 1747 
Q 353 2603 823 3093 
Q 1294 3584 2113 3584 
Q 2378 3584 2631 3529 
Q 2884 3475 3122 3366 
z
" transform="scale(0.015625)"/>
     <path id="DejaVuSans-20" transform="scale(0.015625)"/>
     <path id="DejaVuSans-28" d="M 1984 4856 
Q 1566 4138 1362 3434 
Q 1159 2731 1159 2009 
Q 1159 1288 1364 580 
Q 1569 -128 1984 -844 
L 1484 -844 
Q 1016 -109 783 600 
Q 550 1309 550 2009 
Q 550 2706 781 3412 
Q 1013 4119 1484 4856 
L 1984 4856 
z
" transform="scale(0.015625)"/>
     <path id="DejaVuSans-29" d="M 513 4856 
L 1013 4856 
Q 1481 4119 1714 3412 
Q 1947 2706 1947 2009 
Q 1947 1309 1714 600 
Q 1481 -109 1013 -844 
L 513 -844 
Q 928 -128 1133 580 
Q 1338 1288 1338 2009 
Q 1338 2731 1133 3434 
Q 928 4138 513 4856 
z
" transform="scale(0.015625)"/>
    </defs>
    <use xlink:href="#DejaVuSans-76"/>
    <use xlink:href="#DejaVuSans-61" transform="translate(59.179688 0)"/>
    <use xlink:href="#DejaVuSans-72" transform="translate(120.458984 0)"/>
    <use xlink:href="#DejaVuSans-69" transform="translate(161.572266 0)"/>
    <use xlink:href="#DejaVuSans-61" transform="translate(189.355469 0)"/>
    <use xlink:href="#DejaVuSans-6e" transform="translate(250.634766 0)"/>
    <use xlink:href="#DejaVuSans-63" transform="translate(314.013672 0)"/>
    <use xlink:href="#DejaVuSans-65" transform="translate(368.994141 0)"/>
    <use xlink:href="#DejaVuSans-20" transform="translate(430.517578 0)"/>
    <use xlink:href="#DejaVuSans-28" transform="translate(462.304688 0)"/>
    <use xlink:href="#DejaVuSans-61" transform="translate(501.318359 0)"/>
    <use xlink:href="#DejaVuSans-2e" transform="translate(562.597656 0)"/>
    <use xlink:href="#DejaVuSans-75" transform="translate(594.384766 0)"/>
    <use xlink:href="#DejaVuSans-2e" transform="translate(657.763672 0)"/>
    <use xlink:href="#DejaVuSans-29" transform="translate(689.550781 0)"/>
   </g>
  </g>
  <g id="text_23">
   <!-- Variance explained by component model (Monkey M, PMd) -->
   <g transform="translate(3.962813 20.638125) scale(0.12 -0.12)">
    <defs>
     <path id="DejaVuSans-56" d="M 1831 0 
L 50 4666 
L 709 4666 
L 2188 738 
L 3669 4666 
L 4325 4666 
L 2547 0 
L 1831 0 
z
" transform="scale(0.015625)"/>
     <path id="DejaVuSans-78" d="M 3513 3500 
L 2247 1797 
L 3578 0 
L 2900 0 
L 1881 1375 
L 863 0 
L 184 0 
L 1544 1831 
L 300 3500 
L 978 3500 
L 1906 2253 
L 2834 3500 
L 3513 3500 
z
" transform="scale(0.015625)"/>
     <path id="DejaVuSans-79" d="M 2059 -325 
Q 1816 -950 1584 -1140 
Q 1353 -1331 966 -1331 
L 506 -1331 
L 506 -850 
L 844 -850 
Q 1081 -850 1212 -737 
Q 1344 -625 1503 -206 
L 1606 56 
L 191 3500 
L 800 3500 
L 1894 763 
L 2988 3500 
L 3597 3500 
L 2059 -325 
z
" transform="scale(0.015625)"/>
     <path id="DejaVuSans-4d" d="M 628 4666 
L 1569 4666 
L 2759 1491 
L 3956 4666 
L 4897 4666 
L 4897 0 
L 4281 0 
L 4281 4097 
L 3078 897 
L 2444 897 
L 1241 4097 
L 1241 0 
L 628 0 
L 628 4666 
z
" transform="scale(0.015625)"/>
     <path id="DejaVuSans-6b" d="M 581 4863 
L 1159 4863 
L 1159 1991 
L 2875 3500 
L 3609 3500 
L 1753 1863 
L 3688 0 
L 2938 0 
L 1159 1709 
L 1159 0 
L 581 0 
L 581 4863 
z
" transform="scale(0.015625)"/>
     <path id="DejaVuSans-2c" d="M 750 794 
L 1409 794 
L 1409 256 
L 897 -744 
L 494 -744 
L 750 256 
L 750 794 
z
" transform="scale(0.015625)"/>
    </defs>
    <use xlink:href="#DejaVuSans-56"/>
    <use xlink:href="#DejaVuSans-61" transform="translate(60.658203 0)"/>
    <use xlink:href="#DejaVuSans-72" transform="translate(121.9375 0)"/>
    <use xlink:href="#DejaVuSans-69" transform="translate(163.050781 0)"/>
    <use xlink:href="#DejaVuSans-61" transform="translate(190.833984 0)"/>
    <use xlink:href="#DejaVuSans-6e" transform="translate(252.113281 0)"/>
    <use xlink:href="#DejaVuSans-63" transform="translate(315.492188 0)"/>
    <use xlink:href="#DejaVuSans-65" transform="translate(370.472656 0)"/>
    <use xlink:href="#DejaVuSans-20" transform="translate(431.996094 0)"/>
    <use xlink:href="#DejaVuSans-65" transform="translate(463.783203 0)"/>
    <use xlink:href="#DejaVuSans-78" transform="translate(523.556641 0)"/>
    <use xlink:href="#DejaVuSans-70" transform="translate(582.736328 0)"/>
    <use xlink:href="#DejaVuSans-6c" transform="translate(646.212891 0)"/>
    <use xlink:href="#DejaVuSans-61" transform="translate(673.996094 0)"/>
    <use xlink:href="#DejaVuSans-69" transform="translate(735.275391 0)"/>
    <use xlink:href="#DejaVuSans-6e" transform="translate(763.058594 0)"/>
    <use xlink:href="#DejaVuSans-65" transform="translate(826.4375 0)"/>
    <use xlink:href="#DejaVuSans-64" transform="translate(887.960938 0)"/>
    <use xlink:href="#DejaVuSans-20" transform="translate(951.4375 0)"/>
    <use xlink:href="#DejaVuSans-62" transform="translate(983.224609 0)"/>
    <use xlink:href="#DejaVuSans-79" transform="translate(1046.701172 0)"/>
    <use xlink:href="#DejaVuSans-20" transform="translate(1105.880859 0)"/>
    <use xlink:href="#DejaVuSans-63" transform="translate(1137.667969 0)"/>
    <use xlink:href="#DejaVuSans-6f" transform="translate(1192.648438 0)"/>
    <use xlink:href="#DejaVuSans-6d" transform="translate(1253.830078 0)"/>
    <use xlink:href="#DejaVuSans-70" transform="translate(1351.242188 0)"/>
    <use xlink:href="#DejaVuSans-6f" transform="translate(1414.71875 0)"/>
    <use xlink:href="#DejaVuSans-6e" transform="translate(1475.900391 0)"/>
    <use xlink:href="#DejaVuSans-65" transform="translate(1539.279297 0)"/>
    <use xlink:href="#DejaVuSans-6e" transform="translate(1600.802734 0)"/>
    <use xlink:href="#DejaVuSans-74" transform="translate(1664.181641 0)"/>
    <use xlink:href="#DejaVuSans-20" transform="translate(1703.390625 0)"/>
    <use xlink:href="#DejaVuSans-6d" transform="translate(1735.177734 0)"/>
    <use xlink:href="#DejaVuSans-6f" transform="translate(1832.589844 0)"/>
    <use xlink:href="#DejaVuSans-64" transform="translate(1893.771484 0)"/>
    <use xlink:href="#DejaVuSans-65" transform="translate(1957.248047 0)"/>
    <use xlink:href="#DejaVuSans-6c" transform="translate(2018.771484 0)"/>
    <use xlink:href="#DejaVuSans-20" transform="translate(2046.554688 0)"/>
    <use xlink:href="#DejaVuSans-28" transform="translate(2078.341797 0)"/>
    <use xlink:href="#DejaVuSans-4d" transform="translate(2117.355469 0)"/>
    <use xlink:href="#DejaVuSans-6f" transform="translate(2203.634766 0)"/>
    <use xlink:href="#DejaVuSans-6e" transform="translate(2264.816406 0)"/>
    <use xlink:href="#DejaVuSans-6b" transform="translate(2328.195312 0)"/>
    <use xlink:href="#DejaVuSans-65" transform="translate(2382.480469 0)"/>
    <use xlink:href="#DejaVuSans-79" transform="translate(2444.003906 0)"/>
    <use xlink:href="#DejaVuSans-20" transform="translate(2503.183594 0)"/>
    <use xlink:href="#DejaVuSans-4d" transform="translate(2534.970703 0)"/>
    <use xlink:href="#DejaVuSans-2c" transform="translate(2621.25 0)"/>
    <use xlink:href="#DejaVuSans-20" transform="translate(2653.037109 0)"/>
    <use xlink:href="#DejaVuSans-50" transform="translate(2684.824219 0)"/>
    <use xlink:href="#DejaVuSans-4d" transform="translate(2745.126953 0)"/>
    <use xlink:href="#DejaVuSans-64" transform="translate(2831.40625 0)"/>
    <use xlink:href="#DejaVuSans-29" transform="translate(2894.882812 0)"/>
   </g>
  </g>
  <g id="legend_1">
   <g id="line2d_43">
    <path d="M 215.613281 562.878281 
L 224.613281 562.878281 
L 233.613281 562.878281 
" style="fill: none; stroke: #ff0000; stroke-width: 1.5; stroke-linecap: square"/>
   </g>
   <g id="text_24">
    <!-- cue -->
    <g transform="translate(240.813281 566.028281) scale(0.09 -0.09)">
     <use xlink:href="#DejaVuSans-63"/>
     <use xlink:href="#DejaVuSans-75" transform="translate(54.980469 0)"/>
     <use xlink:href="#DejaVuSans-65" transform="translate(118.359375 0)"/>
    </g>
   </g>
   <g id="line2d_44">
    <path d="M 275.003438 562.878281 
L 284.003438 562.878281 
L 293.003438 562.878281 
" style="fill: none; stroke: #0000ff; stroke-width: 1.5; stroke-linecap: square"/>
   </g>
   <g id="text_25">
    <!-- uncertainty -->
    <g transform="translate(300.203438 566.028281) scale(0.09 -0.09)">
     <use xlink:href="#DejaVuSans-75"/>
     <use xlink:href="#DejaVuSans-6e" transform="translate(63.378906 0)"/>
     <use xlink:href="#DejaVuSans-63" transform="translate(126.757812 0)"/>
     <use xlink:href="#DejaVuSans-65" transform="translate(181.738281 0)"/>
     <use xlink:href="#DejaVuSans-72" transform="translate(243.261719 0)"/>
     <use xlink:href="#DejaVuSans-74" transform="translate(284.375 0)"/>
     <use xlink:href="#DejaVuSans-61" transform="translate(323.583984 0)"/>
     <use xlink:href="#DejaVuSans-69" transform="translate(384.863281 0)"/>
     <use xlink:href="#DejaVuSans-6e" transform="translate(412.646484 0)"/>
     <use xlink:href="#DejaVuSans-74" transform="translate(476.025391 0)"/>
     <use xlink:href="#DejaVuSans-79" transform="translate(515.234375 0)"/>
    </g>
   </g>
  </g>
 </g>
 <defs>
  <clipPath id="p0b6df9e7c7">
   <rect x="54.43" y="50.64" width="227.641667" height="56.448627"/>
  </clipPath>
  <clipPath id="pc9d60ae871">
   <rect x="292.871667" y="50.64" width="22.764167" height="56.448627"/>
  </clipPath>
  <clipPath id="p99df9240ed">
   <rect x="326.435833" y="50.64" width="22.764167" height="56.448627"/>
  </clipPath>
  <clipPath id="p966916b385">
   <rect x="54.43" y="138.846275" width="227.641667" height="56.448627"/>
  </clipPath>
  <clipPath id="p48ed6aa356">
   <rect x="292.871667" y="138.846275" width="22.764167" height="56.448627"/>
  </clipPath>
  <clipPath id="p1ff45fb373">
   <rect x="326.435833" y="138.846275" width="22.764167" height="56.448627"/>
  </clipPath>
  <clipPath id="p2edb43c9b6">
   <rect x="54.43" y="227.052549" width="227.641667" height="56.448627"/>
  </clipPath>
  <clipPath id="pa7430f039c">
   <rect x="292.871667" y="227.052549" width="22.764167" height="56.448627"/>
  </clipPath>
  <clipPath id="p8b580872ab">
   <rect x="326.435833" y="227.052549" width="22.764167" height="56.448627"/>
  </clipPath>
  <clipPath id="p3ecc846c9f">
   <rect x="54.43" y="315.258824" width="227.641667" height="56.448627"/>
  </clipPath>
  <clipPath id="pab4b57c0d5">
   <rect x="292.871667" y="315.258824" width="22.764167" height="56.448627"/>
  </clipPath>
  <clipPath id="p0f400b6559">
   <rect x="326.435833" y="315.258824" width="22.764167" height="56.448627"/>
  </clipPath>
  <clipPath id="pf372a6ef71">
   <rect x="54.43" y="403.465098" width="227.641667" height="56.448627"/>
  </clipPath>
  <clipPath id="p74053526c9">
   <rect x="292.871667" y="403.465098" width="22.764167" height="56.448627"/>
  </clipPath>
  <clipPath id="pdff3189eff">
   <rect x="326.435833" y="403.465098" width="22.764167" height="56.448627"/>
  </clipPath>
  <clipPath id="p4e50d112c1">
   <rect x="54.43" y="491.671373" width="227.641667" height="56.448627"/>
  </clipPath>
  <clipPath id="p191a053ddc">
   <rect x="292.871667" y="491.671373" width="22.764167" height="56.448627"/>
  </clipPath>
  <clipPath id="p985c74c155">
   <rect x="326.435833" y="491.671373" width="22.764167" height="56.448627"/>
  </clipPath>
 </defs>
</svg>
