<?xml version="1.0" encoding="utf-8" standalone="no"?>
<!DOCTYPE svg PUBLIC "-//W3C//DTD SVG 1.1//EN"
  "http://www.w3.org/Graphics/SVG/1.1/DTD/svg11.dtd">
<svg xmlns:xlink="http://www.w3.org/1999/xlink" width="288pt" height="216pt" viewBox="0 0 288 216" xmlns="http://www.w3.org/2000/svg" version="1.1">
 <metadata>
  <rdf:RDF xmlns:dc="http://purl.org/dc/elements/1.1/" xmlns:cc="http://creativecommons.org/ns#" xmlns:rdf="http://www.w3.org/1999/02/22-rdf-syntax-ns#">
   <cc:Work>
    <dc:type rdf:resource="http://purl.org/dc/dcmitype/StillImage"/>
    <dc:date>2025-08-10T16:59:28.872954</dc:date>
    <dc:format>image/svg+xml</dc:format>
    <dc:creator>
     <cc:Agent>
      <dc:title>Matplotlib v3.10.1, https://matplotlib.org/</dc:title>
     </cc:Agent>
    </dc:creator>
   </cc:Work>
  </rdf:RDF>
 </metadata>
 <defs>
  <style type="text/css">*{stroke-linejoin: round; stroke-linecap: butt}</style>
 </defs>
 <g id="figure_1">
  <g id="patch_1">
   <path d="M 0 216 
L 288 216 
L 288 0 
L 0 0 
z
" style="fill: #ffffff"/>
  </g>
  <g id="axes_1">
   <g id="patch_2">
    <path d="M 47.961178 178.707405 
L 92.871731 178.707405 
L 92.871731 35.732595 
L 47.961178 35.732595 
z
" style="fill: #ffffff"/>
   </g>
   <g id="patch_3">
    <path d="M 47.961178 166.792791 
L 92.871731 166.792791 
L 92.871731 122.175592 
L 47.961178 122.175592 
z
" clip-path="url(#paf131668d8)" style="fill: #d3d3d3"/>
   </g>
   <g id="PathCollection_1">
    <defs>
     <path id="mcd50a599fa" d="M 0 3 
C 0.795609 3 1.55874 2.683901 2.12132 2.12132 
C 2.683901 1.55874 3 0.795609 3 0 
C 3 -0.795609 2.683901 -1.55874 2.12132 -2.12132 
C 1.55874 -2.683901 0.795609 -3 0 -3 
C -0.795609 -3 -1.55874 -2.683901 -2.12132 -2.12132 
C -2.683901 -1.55874 -3 -0.795609 -3 0 
C -3 0.795609 -2.683901 1.55874 -2.12132 2.12132 
C -1.55874 2.683901 -0.795609 3 0 3 
z
" style="stroke: #000000"/>
    </defs>
    <g clip-path="url(#paf131668d8)">
     <use xlink:href="#mcd50a599fa" x="53.41468" y="166.792832" style="stroke: #000000"/>
     <use xlink:href="#mcd50a599fa" x="55.228116" y="117.684172" style="stroke: #000000"/>
     <use xlink:href="#mcd50a599fa" x="55.063472" y="98.172538" style="stroke: #000000"/>
     <use xlink:href="#mcd50a599fa" x="51.655082" y="48.920685" style="stroke: #000000"/>
     <use xlink:href="#mcd50a599fa" x="53.08844" y="166.792732" style="stroke: #000000"/>
     <use xlink:href="#mcd50a599fa" x="52.923691" y="166.792835" style="stroke: #000000"/>
     <use xlink:href="#mcd50a599fa" x="54.226749" y="123.406248" style="stroke: #000000"/>
     <use xlink:href="#mcd50a599fa" x="53.870999" y="140.027271" style="stroke: #000000"/>
     <use xlink:href="#mcd50a599fa" x="54.833924" y="124.836676" style="stroke: #000000"/>
     <use xlink:href="#mcd50a599fa" x="51.415835" y="166.792837" style="stroke: #000000"/>
     <use xlink:href="#mcd50a599fa" x="54.813388" y="146.681232" style="stroke: #000000"/>
     <use xlink:href="#mcd50a599fa" x="59.527282" y="129.968545" style="stroke: #000000"/>
     <use xlink:href="#mcd50a599fa" x="54.011716" y="161.891462" style="stroke: #000000"/>
     <use xlink:href="#mcd50a599fa" x="57.07094" y="116.422257" style="stroke: #000000"/>
    </g>
   </g>
   <g id="matplotlib.axis_1">
    <g id="xtick_1">
     <g id="line2d_1">
      <defs>
       <path id="m9d4e9558a2" d="M 0 0 
L 0 3.5 
" style="stroke: #000000; stroke-width: 0.8"/>
      </defs>
      <g>
       <use xlink:href="#m9d4e9558a2" x="51.415835" y="178.707405" style="stroke: #000000; stroke-width: 0.8"/>
      </g>
     </g>
     <g id="text_1">
      <!-- 0.00 -->
      <g transform="translate(40.283023 193.305843) scale(0.1 -0.1)">
       <defs>
        <path id="DejaVuSans-30" d="M 2034 4250 
Q 1547 4250 1301 3770 
Q 1056 3291 1056 2328 
Q 1056 1369 1301 889 
Q 1547 409 2034 409 
Q 2525 409 2770 889 
Q 3016 1369 3016 2328 
Q 3016 3291 2770 3770 
Q 2525 4250 2034 4250 
z
M 2034 4750 
Q 2819 4750 3233 4129 
Q 3647 3509 3647 2328 
Q 3647 1150 3233 529 
Q 2819 -91 2034 -91 
Q 1250 -91 836 529 
Q 422 1150 422 2328 
Q 422 3509 836 4129 
Q 1250 4750 2034 4750 
z
" transform="scale(0.015625)"/>
        <path id="DejaVuSans-2e" d="M 684 794 
L 1344 794 
L 1344 0 
L 684 0 
L 684 794 
z
" transform="scale(0.015625)"/>
       </defs>
       <use xlink:href="#DejaVuSans-30"/>
       <use xlink:href="#DejaVuSans-2e" transform="translate(63.623047 0)"/>
       <use xlink:href="#DejaVuSans-30" transform="translate(95.410156 0)"/>
       <use xlink:href="#DejaVuSans-30" transform="translate(159.033203 0)"/>
      </g>
     </g>
    </g>
    <g id="xtick_2">
     <g id="line2d_2">
      <g>
       <use xlink:href="#m9d4e9558a2" x="85.962415" y="178.707405" style="stroke: #000000; stroke-width: 0.8"/>
      </g>
     </g>
     <g id="text_2">
      <!-- 0.25 -->
      <g transform="translate(74.829602 193.305843) scale(0.1 -0.1)">
       <defs>
        <path id="DejaVuSans-32" d="M 1228 531 
L 3431 531 
L 3431 0 
L 469 0 
L 469 531 
Q 828 903 1448 1529 
Q 2069 2156 2228 2338 
Q 2531 2678 2651 2914 
Q 2772 3150 2772 3378 
Q 2772 3750 2511 3984 
Q 2250 4219 1831 4219 
Q 1534 4219 1204 4116 
Q 875 4013 500 3803 
L 500 4441 
Q 881 4594 1212 4672 
Q 1544 4750 1819 4750 
Q 2544 4750 2975 4387 
Q 3406 4025 3406 3419 
Q 3406 3131 3298 2873 
Q 3191 2616 2906 2266 
Q 2828 2175 2409 1742 
Q 1991 1309 1228 531 
z
" transform="scale(0.015625)"/>
        <path id="DejaVuSans-35" d="M 691 4666 
L 3169 4666 
L 3169 4134 
L 1269 4134 
L 1269 2991 
Q 1406 3038 1543 3061 
Q 1681 3084 1819 3084 
Q 2600 3084 3056 2656 
Q 3513 2228 3513 1497 
Q 3513 744 3044 326 
Q 2575 -91 1722 -91 
Q 1428 -91 1123 -41 
Q 819 9 494 109 
L 494 744 
Q 775 591 1075 516 
Q 1375 441 1709 441 
Q 2250 441 2565 725 
Q 2881 1009 2881 1497 
Q 2881 1984 2565 2268 
Q 2250 2553 1709 2553 
Q 1456 2553 1204 2497 
Q 953 2441 691 2322 
L 691 4666 
z
" transform="scale(0.015625)"/>
       </defs>
       <use xlink:href="#DejaVuSans-30"/>
       <use xlink:href="#DejaVuSans-2e" transform="translate(63.623047 0)"/>
       <use xlink:href="#DejaVuSans-32" transform="translate(95.410156 0)"/>
       <use xlink:href="#DejaVuSans-35" transform="translate(159.033203 0)"/>
      </g>
     </g>
    </g>
   </g>
   <g id="matplotlib.axis_2">
    <g id="ytick_1">
     <g id="line2d_3">
      <defs>
       <path id="md1f2ff47cd" d="M 0 0 
L -3.5 0 
" style="stroke: #000000; stroke-width: 0.8"/>
      </defs>
      <g>
       <use xlink:href="#md1f2ff47cd" x="47.961178" y="166.792837" style="stroke: #000000; stroke-width: 0.8"/>
      </g>
     </g>
     <g id="text_3">
      <!-- −1.0 -->
      <g transform="translate(16.678365 170.592056) scale(0.1 -0.1)">
       <defs>
        <path id="DejaVuSans-2212" d="M 678 2272 
L 4684 2272 
L 4684 1741 
L 678 1741 
L 678 2272 
z
" transform="scale(0.015625)"/>
        <path id="DejaVuSans-31" d="M 794 531 
L 1825 531 
L 1825 4091 
L 703 3866 
L 703 4441 
L 1819 4666 
L 2450 4666 
L 2450 531 
L 3481 531 
L 3481 0 
L 794 0 
L 794 531 
z
" transform="scale(0.015625)"/>
       </defs>
       <use xlink:href="#DejaVuSans-2212"/>
       <use xlink:href="#DejaVuSans-31" transform="translate(83.789062 0)"/>
       <use xlink:href="#DejaVuSans-2e" transform="translate(147.412109 0)"/>
       <use xlink:href="#DejaVuSans-30" transform="translate(179.199219 0)"/>
      </g>
     </g>
    </g>
    <g id="ytick_2">
     <g id="line2d_4">
      <g>
       <use xlink:href="#md1f2ff47cd" x="47.961178" y="137.006419" style="stroke: #000000; stroke-width: 0.8"/>
      </g>
     </g>
     <g id="text_4">
      <!-- −0.5 -->
      <g transform="translate(16.678365 140.805637) scale(0.1 -0.1)">
       <use xlink:href="#DejaVuSans-2212"/>
       <use xlink:href="#DejaVuSans-30" transform="translate(83.789062 0)"/>
       <use xlink:href="#DejaVuSans-2e" transform="translate(147.412109 0)"/>
       <use xlink:href="#DejaVuSans-35" transform="translate(179.199219 0)"/>
      </g>
     </g>
    </g>
    <g id="ytick_3">
     <g id="line2d_5">
      <g>
       <use xlink:href="#md1f2ff47cd" x="47.961178" y="107.22" style="stroke: #000000; stroke-width: 0.8"/>
      </g>
     </g>
     <g id="text_5">
      <!-- 0.0 -->
      <g transform="translate(25.058053 111.019219) scale(0.1 -0.1)">
       <use xlink:href="#DejaVuSans-30"/>
       <use xlink:href="#DejaVuSans-2e" transform="translate(63.623047 0)"/>
       <use xlink:href="#DejaVuSans-30" transform="translate(95.410156 0)"/>
      </g>
     </g>
    </g>
    <g id="ytick_4">
     <g id="line2d_6">
      <g>
       <use xlink:href="#md1f2ff47cd" x="47.961178" y="77.433581" style="stroke: #000000; stroke-width: 0.8"/>
      </g>
     </g>
     <g id="text_6">
      <!-- 0.5 -->
      <g transform="translate(25.058053 81.2328) scale(0.1 -0.1)">
       <use xlink:href="#DejaVuSans-30"/>
       <use xlink:href="#DejaVuSans-2e" transform="translate(63.623047 0)"/>
       <use xlink:href="#DejaVuSans-35" transform="translate(95.410156 0)"/>
      </g>
     </g>
    </g>
    <g id="ytick_5">
     <g id="line2d_7">
      <g>
       <use xlink:href="#md1f2ff47cd" x="47.961178" y="47.647163" style="stroke: #000000; stroke-width: 0.8"/>
      </g>
     </g>
     <g id="text_7">
      <!-- 1.0 -->
      <g transform="translate(25.058053 51.446381) scale(0.1 -0.1)">
       <use xlink:href="#DejaVuSans-31"/>
       <use xlink:href="#DejaVuSans-2e" transform="translate(63.623047 0)"/>
       <use xlink:href="#DejaVuSans-30" transform="translate(95.410156 0)"/>
      </g>
     </g>
    </g>
    <g id="text_8">
     <!-- correlation -->
     <g transform="translate(10.598678 134.046562) rotate(-90) scale(0.1 -0.1)">
      <defs>
       <path id="DejaVuSans-63" d="M 3122 3366 
L 3122 2828 
Q 2878 2963 2633 3030 
Q 2388 3097 2138 3097 
Q 1578 3097 1268 2742 
Q 959 2388 959 1747 
Q 959 1106 1268 751 
Q 1578 397 2138 397 
Q 2388 397 2633 464 
Q 2878 531 3122 666 
L 3122 134 
Q 2881 22 2623 -34 
Q 2366 -91 2075 -91 
Q 1284 -91 818 406 
Q 353 903 353 1747 
Q 353 2603 823 3093 
Q 1294 3584 2113 3584 
Q 2378 3584 2631 3529 
Q 2884 3475 3122 3366 
z
" transform="scale(0.015625)"/>
       <path id="DejaVuSans-6f" d="M 1959 3097 
Q 1497 3097 1228 2736 
Q 959 2375 959 1747 
Q 959 1119 1226 758 
Q 1494 397 1959 397 
Q 2419 397 2687 759 
Q 2956 1122 2956 1747 
Q 2956 2369 2687 2733 
Q 2419 3097 1959 3097 
z
M 1959 3584 
Q 2709 3584 3137 3096 
Q 3566 2609 3566 1747 
Q 3566 888 3137 398 
Q 2709 -91 1959 -91 
Q 1206 -91 779 398 
Q 353 888 353 1747 
Q 353 2609 779 3096 
Q 1206 3584 1959 3584 
z
" transform="scale(0.015625)"/>
       <path id="DejaVuSans-72" d="M 2631 2963 
Q 2534 3019 2420 3045 
Q 2306 3072 2169 3072 
Q 1681 3072 1420 2755 
Q 1159 2438 1159 1844 
L 1159 0 
L 581 0 
L 581 3500 
L 1159 3500 
L 1159 2956 
Q 1341 3275 1631 3429 
Q 1922 3584 2338 3584 
Q 2397 3584 2469 3576 
Q 2541 3569 2628 3553 
L 2631 2963 
z
" transform="scale(0.015625)"/>
       <path id="DejaVuSans-65" d="M 3597 1894 
L 3597 1613 
L 953 1613 
Q 991 1019 1311 708 
Q 1631 397 2203 397 
Q 2534 397 2845 478 
Q 3156 559 3463 722 
L 3463 178 
Q 3153 47 2828 -22 
Q 2503 -91 2169 -91 
Q 1331 -91 842 396 
Q 353 884 353 1716 
Q 353 2575 817 3079 
Q 1281 3584 2069 3584 
Q 2775 3584 3186 3129 
Q 3597 2675 3597 1894 
z
M 3022 2063 
Q 3016 2534 2758 2815 
Q 2500 3097 2075 3097 
Q 1594 3097 1305 2825 
Q 1016 2553 972 2059 
L 3022 2063 
z
" transform="scale(0.015625)"/>
       <path id="DejaVuSans-6c" d="M 603 4863 
L 1178 4863 
L 1178 0 
L 603 0 
L 603 4863 
z
" transform="scale(0.015625)"/>
       <path id="DejaVuSans-61" d="M 2194 1759 
Q 1497 1759 1228 1600 
Q 959 1441 959 1056 
Q 959 750 1161 570 
Q 1363 391 1709 391 
Q 2188 391 2477 730 
Q 2766 1069 2766 1631 
L 2766 1759 
L 2194 1759 
z
M 3341 1997 
L 3341 0 
L 2766 0 
L 2766 531 
Q 2569 213 2275 61 
Q 1981 -91 1556 -91 
Q 1019 -91 701 211 
Q 384 513 384 1019 
Q 384 1609 779 1909 
Q 1175 2209 1959 2209 
L 2766 2209 
L 2766 2266 
Q 2766 2663 2505 2880 
Q 2244 3097 1772 3097 
Q 1472 3097 1187 3025 
Q 903 2953 641 2809 
L 641 3341 
Q 956 3463 1253 3523 
Q 1550 3584 1831 3584 
Q 2591 3584 2966 3190 
Q 3341 2797 3341 1997 
z
" transform="scale(0.015625)"/>
       <path id="DejaVuSans-74" d="M 1172 4494 
L 1172 3500 
L 2356 3500 
L 2356 3053 
L 1172 3053 
L 1172 1153 
Q 1172 725 1289 603 
Q 1406 481 1766 481 
L 2356 481 
L 2356 0 
L 1766 0 
Q 1100 0 847 248 
Q 594 497 594 1153 
L 594 3053 
L 172 3053 
L 172 3500 
L 594 3500 
L 594 4494 
L 1172 4494 
z
" transform="scale(0.015625)"/>
       <path id="DejaVuSans-69" d="M 603 3500 
L 1178 3500 
L 1178 0 
L 603 0 
L 603 3500 
z
M 603 4863 
L 1178 4863 
L 1178 4134 
L 603 4134 
L 603 4863 
z
" transform="scale(0.015625)"/>
       <path id="DejaVuSans-6e" d="M 3513 2113 
L 3513 0 
L 2938 0 
L 2938 2094 
Q 2938 2591 2744 2837 
Q 2550 3084 2163 3084 
Q 1697 3084 1428 2787 
Q 1159 2491 1159 1978 
L 1159 0 
L 581 0 
L 581 3500 
L 1159 3500 
L 1159 2956 
Q 1366 3272 1645 3428 
Q 1925 3584 2291 3584 
Q 2894 3584 3203 3211 
Q 3513 2838 3513 2113 
z
" transform="scale(0.015625)"/>
      </defs>
      <use xlink:href="#DejaVuSans-63"/>
      <use xlink:href="#DejaVuSans-6f" transform="translate(54.980469 0)"/>
      <use xlink:href="#DejaVuSans-72" transform="translate(116.162109 0)"/>
      <use xlink:href="#DejaVuSans-72" transform="translate(155.525391 0)"/>
      <use xlink:href="#DejaVuSans-65" transform="translate(194.388672 0)"/>
      <use xlink:href="#DejaVuSans-6c" transform="translate(255.912109 0)"/>
      <use xlink:href="#DejaVuSans-61" transform="translate(283.695312 0)"/>
      <use xlink:href="#DejaVuSans-74" transform="translate(344.974609 0)"/>
      <use xlink:href="#DejaVuSans-69" transform="translate(384.183594 0)"/>
      <use xlink:href="#DejaVuSans-6f" transform="translate(411.966797 0)"/>
      <use xlink:href="#DejaVuSans-6e" transform="translate(473.148438 0)"/>
     </g>
    </g>
   </g>
   <g id="line2d_8">
    <path d="M 47.961178 133.92002 
L 92.871731 133.92002 
" clip-path="url(#paf131668d8)" style="fill: none; stroke-dasharray: 5.55,2.4; stroke-dashoffset: 0; stroke: #ff0000; stroke-width: 1.5"/>
   </g>
   <g id="line2d_9">
    <path d="M 47.961178 107.22 
L 92.871731 107.22 
" clip-path="url(#paf131668d8)" style="fill: none; stroke: #000000; stroke-width: 0.8; stroke-linecap: square"/>
   </g>
   <g id="patch_4">
    <path d="M 47.961178 166.792837 
L 47.961178 47.647163 
" style="fill: none; stroke: #000000; stroke-width: 0.8; stroke-linejoin: miter; stroke-linecap: square"/>
   </g>
   <g id="patch_5">
    <path d="M 51.415835 178.707405 
L 85.962415 178.707405 
" style="fill: none; stroke: #000000; stroke-width: 0.8; stroke-linejoin: miter; stroke-linecap: square"/>
   </g>
   <g id="text_9">
    <!-- PMd -->
    <g transform="translate(57.812704 29.732595) scale(0.12 -0.12)">
     <defs>
      <path id="DejaVuSans-50" d="M 1259 4147 
L 1259 2394 
L 2053 2394 
Q 2494 2394 2734 2622 
Q 2975 2850 2975 3272 
Q 2975 3691 2734 3919 
Q 2494 4147 2053 4147 
L 1259 4147 
z
M 628 4666 
L 2053 4666 
Q 2838 4666 3239 4311 
Q 3641 3956 3641 3272 
Q 3641 2581 3239 2228 
Q 2838 1875 2053 1875 
L 1259 1875 
L 1259 0 
L 628 0 
L 628 4666 
z
" transform="scale(0.015625)"/>
      <path id="DejaVuSans-4d" d="M 628 4666 
L 1569 4666 
L 2759 1491 
L 3956 4666 
L 4897 4666 
L 4897 0 
L 4281 0 
L 4281 4097 
L 3078 897 
L 2444 897 
L 1241 4097 
L 1241 0 
L 628 0 
L 628 4666 
z
" transform="scale(0.015625)"/>
      <path id="DejaVuSans-64" d="M 2906 2969 
L 2906 4863 
L 3481 4863 
L 3481 0 
L 2906 0 
L 2906 525 
Q 2725 213 2448 61 
Q 2172 -91 1784 -91 
Q 1150 -91 751 415 
Q 353 922 353 1747 
Q 353 2572 751 3078 
Q 1150 3584 1784 3584 
Q 2172 3584 2448 3432 
Q 2725 3281 2906 2969 
z
M 947 1747 
Q 947 1113 1208 752 
Q 1469 391 1925 391 
Q 2381 391 2643 752 
Q 2906 1113 2906 1747 
Q 2906 2381 2643 2742 
Q 2381 3103 1925 3103 
Q 1469 3103 1208 2742 
Q 947 2381 947 1747 
z
" transform="scale(0.015625)"/>
     </defs>
     <use xlink:href="#DejaVuSans-50"/>
     <use xlink:href="#DejaVuSans-4d" transform="translate(60.302734 0)"/>
     <use xlink:href="#DejaVuSans-64" transform="translate(146.582031 0)"/>
    </g>
   </g>
  </g>
  <g id="axes_2">
   <g id="patch_6">
    <path d="M 110.628356 178.707405 
L 155.53891 178.707405 
L 155.53891 35.732595 
L 110.628356 35.732595 
z
" style="fill: #ffffff"/>
   </g>
   <g id="patch_7">
    <path d="M 110.628356 82.257665 
L 155.53891 82.257665 
L 155.53891 66.901698 
L 110.628356 66.901698 
z
" clip-path="url(#pc0737ba9c2)" style="fill: #d3d3d3"/>
   </g>
   <g id="PathCollection_2">
    <g clip-path="url(#pc0737ba9c2)">
     <use xlink:href="#mcd50a599fa" x="115.460212" y="166.792792" style="stroke: #000000"/>
     <use xlink:href="#mcd50a599fa" x="126.794249" y="62.307166" style="stroke: #000000"/>
     <use xlink:href="#mcd50a599fa" x="127.900408" y="57.168173" style="stroke: #000000"/>
     <use xlink:href="#mcd50a599fa" x="115.778924" y="47.647208" style="stroke: #000000"/>
     <use xlink:href="#mcd50a599fa" x="114.083014" y="166.792837" style="stroke: #000000"/>
     <use xlink:href="#mcd50a599fa" x="115.359359" y="166.792819" style="stroke: #000000"/>
     <use xlink:href="#mcd50a599fa" x="115.387453" y="166.792829" style="stroke: #000000"/>
     <use xlink:href="#mcd50a599fa" x="125.496266" y="93.591407" style="stroke: #000000"/>
     <use xlink:href="#mcd50a599fa" x="139.202616" y="63.591371" style="stroke: #000000"/>
     <use xlink:href="#mcd50a599fa" x="120.501496" y="65.00987" style="stroke: #000000"/>
     <use xlink:href="#mcd50a599fa" x="122.646248" y="69.968435" style="stroke: #000000"/>
     <use xlink:href="#mcd50a599fa" x="126.951436" y="92.489039" style="stroke: #000000"/>
     <use xlink:href="#mcd50a599fa" x="136.303334" y="68.672999" style="stroke: #000000"/>
     <use xlink:href="#mcd50a599fa" x="128.62942" y="80.834385" style="stroke: #000000"/>
    </g>
   </g>
   <g id="matplotlib.axis_3">
    <g id="xtick_3">
     <g id="line2d_10">
      <g>
       <use xlink:href="#m9d4e9558a2" x="114.083014" y="178.707405" style="stroke: #000000; stroke-width: 0.8"/>
      </g>
     </g>
     <g id="text_10">
      <!-- 0.00 -->
      <g transform="translate(102.950202 193.305843) scale(0.1 -0.1)">
       <use xlink:href="#DejaVuSans-30"/>
       <use xlink:href="#DejaVuSans-2e" transform="translate(63.623047 0)"/>
       <use xlink:href="#DejaVuSans-30" transform="translate(95.410156 0)"/>
       <use xlink:href="#DejaVuSans-30" transform="translate(159.033203 0)"/>
      </g>
     </g>
    </g>
    <g id="xtick_4">
     <g id="line2d_11">
      <g>
       <use xlink:href="#m9d4e9558a2" x="148.629594" y="178.707405" style="stroke: #000000; stroke-width: 0.8"/>
      </g>
     </g>
     <g id="text_11">
      <!-- 0.25 -->
      <g transform="translate(137.496781 193.305843) scale(0.1 -0.1)">
       <use xlink:href="#DejaVuSans-30"/>
       <use xlink:href="#DejaVuSans-2e" transform="translate(63.623047 0)"/>
       <use xlink:href="#DejaVuSans-32" transform="translate(95.410156 0)"/>
       <use xlink:href="#DejaVuSans-35" transform="translate(159.033203 0)"/>
      </g>
     </g>
    </g>
   </g>
   <g id="matplotlib.axis_4"/>
   <g id="line2d_12">
    <path d="M 110.628356 72.895969 
L 155.53891 72.895969 
" clip-path="url(#pc0737ba9c2)" style="fill: none; stroke-dasharray: 5.55,2.4; stroke-dashoffset: 0; stroke: #ff0000; stroke-width: 1.5"/>
   </g>
   <g id="line2d_13">
    <path d="M 110.628356 107.22 
L 155.53891 107.22 
" clip-path="url(#pc0737ba9c2)" style="fill: none; stroke: #000000; stroke-width: 0.8; stroke-linecap: square"/>
   </g>
   <g id="patch_8">
    <path d="M 114.083014 178.707405 
L 148.629594 178.707405 
" style="fill: none; stroke: #000000; stroke-width: 0.8; stroke-linejoin: miter; stroke-linecap: square"/>
   </g>
   <g id="text_12">
    <!-- M1 -->
    <g transform="translate(124.089258 29.732595) scale(0.12 -0.12)">
     <use xlink:href="#DejaVuSans-4d"/>
     <use xlink:href="#DejaVuSans-31" transform="translate(86.279297 0)"/>
    </g>
   </g>
  </g>
  <g id="axes_3">
   <g id="patch_9">
    <path d="M 173.295535 178.707405 
L 218.206088 178.707405 
L 218.206088 35.732595 
L 173.295535 35.732595 
z
" style="fill: #ffffff"/>
   </g>
   <g id="patch_10">
    <path d="M 173.295535 80.055675 
L 218.206088 80.055675 
L 218.206088 65.101737 
L 173.295535 65.101737 
z
" clip-path="url(#pde008bb08f)" style="fill: #d3d3d3"/>
   </g>
   <g id="PathCollection_3">
    <g clip-path="url(#pde008bb08f)">
     <use xlink:href="#mcd50a599fa" x="178.005324" y="166.792837" style="stroke: #000000"/>
     <use xlink:href="#mcd50a599fa" x="192.199847" y="73.736833" style="stroke: #000000"/>
     <use xlink:href="#mcd50a599fa" x="208.791894" y="61.244726" style="stroke: #000000"/>
     <use xlink:href="#mcd50a599fa" x="182.665482" y="65.135801" style="stroke: #000000"/>
     <use xlink:href="#mcd50a599fa" x="178.357886" y="47.64717" style="stroke: #000000"/>
     <use xlink:href="#mcd50a599fa" x="178.400685" y="80.843063" style="stroke: #000000"/>
     <use xlink:href="#mcd50a599fa" x="180.663812" y="82.823985" style="stroke: #000000"/>
     <use xlink:href="#mcd50a599fa" x="191.328311" y="76.36889" style="stroke: #000000"/>
     <use xlink:href="#mcd50a599fa" x="208.984456" y="68.370655" style="stroke: #000000"/>
     <use xlink:href="#mcd50a599fa" x="193.635988" y="47.647163" style="stroke: #000000"/>
     <use xlink:href="#mcd50a599fa" x="185.692317" y="77.803449" style="stroke: #000000"/>
     <use xlink:href="#mcd50a599fa" x="193.593502" y="90.224167" style="stroke: #000000"/>
     <use xlink:href="#mcd50a599fa" x="193.354431" y="77.207917" style="stroke: #000000"/>
     <use xlink:href="#mcd50a599fa" x="191.47098" y="76.967568" style="stroke: #000000"/>
    </g>
   </g>
   <g id="matplotlib.axis_5">
    <g id="xtick_5">
     <g id="line2d_14">
      <g>
       <use xlink:href="#m9d4e9558a2" x="176.750193" y="178.707405" style="stroke: #000000; stroke-width: 0.8"/>
      </g>
     </g>
     <g id="text_13">
      <!-- 0.00 -->
      <g transform="translate(165.617381 193.305843) scale(0.1 -0.1)">
       <use xlink:href="#DejaVuSans-30"/>
       <use xlink:href="#DejaVuSans-2e" transform="translate(63.623047 0)"/>
       <use xlink:href="#DejaVuSans-30" transform="translate(95.410156 0)"/>
       <use xlink:href="#DejaVuSans-30" transform="translate(159.033203 0)"/>
      </g>
     </g>
    </g>
    <g id="xtick_6">
     <g id="line2d_15">
      <g>
       <use xlink:href="#m9d4e9558a2" x="211.296772" y="178.707405" style="stroke: #000000; stroke-width: 0.8"/>
      </g>
     </g>
     <g id="text_14">
      <!-- 0.25 -->
      <g transform="translate(200.16396 193.305843) scale(0.1 -0.1)">
       <use xlink:href="#DejaVuSans-30"/>
       <use xlink:href="#DejaVuSans-2e" transform="translate(63.623047 0)"/>
       <use xlink:href="#DejaVuSans-32" transform="translate(95.410156 0)"/>
       <use xlink:href="#DejaVuSans-35" transform="translate(159.033203 0)"/>
      </g>
     </g>
    </g>
   </g>
   <g id="matplotlib.axis_6"/>
   <g id="line2d_16">
    <path d="M 173.295535 71.571834 
L 218.206088 71.571834 
" clip-path="url(#pde008bb08f)" style="fill: none; stroke-dasharray: 5.55,2.4; stroke-dashoffset: 0; stroke: #ff0000; stroke-width: 1.5"/>
   </g>
   <g id="line2d_17">
    <path d="M 173.295535 107.22 
L 218.206088 107.22 
" clip-path="url(#pde008bb08f)" style="fill: none; stroke: #000000; stroke-width: 0.8; stroke-linecap: square"/>
   </g>
   <g id="patch_11">
    <path d="M 176.750193 178.707405 
L 211.296772 178.707405 
" style="fill: none; stroke: #000000; stroke-width: 0.8; stroke-linejoin: miter; stroke-linecap: square"/>
   </g>
   <g id="text_15">
    <!-- S1 -->
    <g transform="translate(188.124249 29.732595) scale(0.12 -0.12)">
     <defs>
      <path id="DejaVuSans-53" d="M 3425 4513 
L 3425 3897 
Q 3066 4069 2747 4153 
Q 2428 4238 2131 4238 
Q 1616 4238 1336 4038 
Q 1056 3838 1056 3469 
Q 1056 3159 1242 3001 
Q 1428 2844 1947 2747 
L 2328 2669 
Q 3034 2534 3370 2195 
Q 3706 1856 3706 1288 
Q 3706 609 3251 259 
Q 2797 -91 1919 -91 
Q 1588 -91 1214 -16 
Q 841 59 441 206 
L 441 856 
Q 825 641 1194 531 
Q 1563 422 1919 422 
Q 2459 422 2753 634 
Q 3047 847 3047 1241 
Q 3047 1584 2836 1778 
Q 2625 1972 2144 2069 
L 1759 2144 
Q 1053 2284 737 2584 
Q 422 2884 422 3419 
Q 422 4038 858 4394 
Q 1294 4750 2059 4750 
Q 2388 4750 2728 4690 
Q 3069 4631 3425 4513 
z
" transform="scale(0.015625)"/>
     </defs>
     <use xlink:href="#DejaVuSans-53"/>
     <use xlink:href="#DejaVuSans-31" transform="translate(63.476562 0)"/>
    </g>
   </g>
  </g>
  <g id="axes_4">
   <g id="patch_12">
    <path d="M 235.962714 178.707405 
L 280.873267 178.707405 
L 280.873267 35.732595 
L 235.962714 35.732595 
z
" style="fill: #ffffff"/>
   </g>
   <g id="patch_13">
    <path d="M 235.962714 166.792837 
L 280.873267 166.792837 
L 280.873267 148.392548 
L 235.962714 148.392548 
z
" clip-path="url(#p83932d923e)" style="fill: #d3d3d3"/>
   </g>
   <g id="PathCollection_4">
    <g clip-path="url(#p83932d923e)">
     <use xlink:href="#mcd50a599fa" x="241.312186" y="166.792834" style="stroke: #000000"/>
     <use xlink:href="#mcd50a599fa" x="243.585152" y="128.838799" style="stroke: #000000"/>
     <use xlink:href="#mcd50a599fa" x="241.325132" y="146.306271" style="stroke: #000000"/>
     <use xlink:href="#mcd50a599fa" x="239.647249" y="166.792788" style="stroke: #000000"/>
     <use xlink:href="#mcd50a599fa" x="241.120693" y="166.792746" style="stroke: #000000"/>
     <use xlink:href="#mcd50a599fa" x="241.508495" y="166.792835" style="stroke: #000000"/>
     <use xlink:href="#mcd50a599fa" x="240.174543" y="128.928892" style="stroke: #000000"/>
     <use xlink:href="#mcd50a599fa" x="241.795274" y="156.342216" style="stroke: #000000"/>
     <use xlink:href="#mcd50a599fa" x="242.958678" y="152.849463" style="stroke: #000000"/>
     <use xlink:href="#mcd50a599fa" x="240.844958" y="166.792837" style="stroke: #000000"/>
     <use xlink:href="#mcd50a599fa" x="241.959892" y="138.174509" style="stroke: #000000"/>
     <use xlink:href="#mcd50a599fa" x="246.108024" y="159.307369" style="stroke: #000000"/>
     <use xlink:href="#mcd50a599fa" x="242.119026" y="166.792837" style="stroke: #000000"/>
     <use xlink:href="#mcd50a599fa" x="242.411652" y="149.782394" style="stroke: #000000"/>
    </g>
   </g>
   <g id="matplotlib.axis_7">
    <g id="xtick_7">
     <g id="line2d_18">
      <g>
       <use xlink:href="#m9d4e9558a2" x="239.417372" y="178.707405" style="stroke: #000000; stroke-width: 0.8"/>
      </g>
     </g>
     <g id="text_16">
      <!-- 0.00 -->
      <g transform="translate(228.284559 193.305843) scale(0.1 -0.1)">
       <use xlink:href="#DejaVuSans-30"/>
       <use xlink:href="#DejaVuSans-2e" transform="translate(63.623047 0)"/>
       <use xlink:href="#DejaVuSans-30" transform="translate(95.410156 0)"/>
       <use xlink:href="#DejaVuSans-30" transform="translate(159.033203 0)"/>
      </g>
     </g>
    </g>
    <g id="xtick_8">
     <g id="line2d_19">
      <g>
       <use xlink:href="#m9d4e9558a2" x="273.963951" y="178.707405" style="stroke: #000000; stroke-width: 0.8"/>
      </g>
     </g>
     <g id="text_17">
      <!-- 0.25 -->
      <g transform="translate(262.831139 193.305843) scale(0.1 -0.1)">
       <use xlink:href="#DejaVuSans-30"/>
       <use xlink:href="#DejaVuSans-2e" transform="translate(63.623047 0)"/>
       <use xlink:href="#DejaVuSans-32" transform="translate(95.410156 0)"/>
       <use xlink:href="#DejaVuSans-35" transform="translate(159.033203 0)"/>
      </g>
     </g>
    </g>
   </g>
   <g id="matplotlib.axis_8"/>
   <g id="line2d_20">
    <path d="M 235.962714 163.489803 
L 280.873267 163.489803 
" clip-path="url(#p83932d923e)" style="fill: none; stroke-dasharray: 5.55,2.4; stroke-dashoffset: 0; stroke: #ff0000; stroke-width: 1.5"/>
   </g>
   <g id="line2d_21">
    <path d="M 235.962714 107.22 
L 280.873267 107.22 
" clip-path="url(#p83932d923e)" style="fill: none; stroke: #000000; stroke-width: 0.8; stroke-linecap: square"/>
   </g>
   <g id="patch_14">
    <path d="M 239.417372 178.707405 
L 273.963951 178.707405 
" style="fill: none; stroke: #000000; stroke-width: 0.8; stroke-linejoin: miter; stroke-linecap: square"/>
   </g>
   <g id="text_18">
    <!-- SPLa -->
    <g transform="translate(243.971116 29.732595) scale(0.12 -0.12)">
     <defs>
      <path id="DejaVuSans-4c" d="M 628 4666 
L 1259 4666 
L 1259 531 
L 3531 531 
L 3531 0 
L 628 0 
L 628 4666 
z
" transform="scale(0.015625)"/>
     </defs>
     <use xlink:href="#DejaVuSans-53"/>
     <use xlink:href="#DejaVuSans-50" transform="translate(63.476562 0)"/>
     <use xlink:href="#DejaVuSans-4c" transform="translate(123.779297 0)"/>
     <use xlink:href="#DejaVuSans-61" transform="translate(179.492188 0)"/>
    </g>
   </g>
  </g>
  <g id="text_19">
   <!-- SNR -->
   <g transform="translate(131.533125 210.504135) scale(0.12 -0.12)">
    <defs>
     <path id="DejaVuSans-4e" d="M 628 4666 
L 1478 4666 
L 3547 763 
L 3547 4666 
L 4159 4666 
L 4159 0 
L 3309 0 
L 1241 3903 
L 1241 0 
L 628 0 
L 628 4666 
z
" transform="scale(0.015625)"/>
     <path id="DejaVuSans-52" d="M 2841 2188 
Q 3044 2119 3236 1894 
Q 3428 1669 3622 1275 
L 4263 0 
L 3584 0 
L 2988 1197 
Q 2756 1666 2539 1819 
Q 2322 1972 1947 1972 
L 1259 1972 
L 1259 0 
L 628 0 
L 628 4666 
L 2053 4666 
Q 2853 4666 3247 4331 
Q 3641 3997 3641 3322 
Q 3641 2881 3436 2590 
Q 3231 2300 2841 2188 
z
M 1259 4147 
L 1259 2491 
L 2053 2491 
Q 2509 2491 2742 2702 
Q 2975 2913 2975 3322 
Q 2975 3731 2742 3939 
Q 2509 4147 2053 4147 
L 1259 4147 
z
" transform="scale(0.015625)"/>
    </defs>
    <use xlink:href="#DejaVuSans-53"/>
    <use xlink:href="#DejaVuSans-4e" transform="translate(63.476562 0)"/>
    <use xlink:href="#DejaVuSans-52" transform="translate(138.28125 0)"/>
   </g>
  </g>
  <g id="text_20">
   <!-- Preparation-execution activity correlation -->
   <g transform="translate(19.817813 12.118365) scale(0.12 -0.12)">
    <defs>
     <path id="DejaVuSans-70" d="M 1159 525 
L 1159 -1331 
L 581 -1331 
L 581 3500 
L 1159 3500 
L 1159 2969 
Q 1341 3281 1617 3432 
Q 1894 3584 2278 3584 
Q 2916 3584 3314 3078 
Q 3713 2572 3713 1747 
Q 3713 922 3314 415 
Q 2916 -91 2278 -91 
Q 1894 -91 1617 61 
Q 1341 213 1159 525 
z
M 3116 1747 
Q 3116 2381 2855 2742 
Q 2594 3103 2138 3103 
Q 1681 3103 1420 2742 
Q 1159 2381 1159 1747 
Q 1159 1113 1420 752 
Q 1681 391 2138 391 
Q 2594 391 2855 752 
Q 3116 1113 3116 1747 
z
" transform="scale(0.015625)"/>
     <path id="DejaVuSans-2d" d="M 313 2009 
L 1997 2009 
L 1997 1497 
L 313 1497 
L 313 2009 
z
" transform="scale(0.015625)"/>
     <path id="DejaVuSans-78" d="M 3513 3500 
L 2247 1797 
L 3578 0 
L 2900 0 
L 1881 1375 
L 863 0 
L 184 0 
L 1544 1831 
L 300 3500 
L 978 3500 
L 1906 2253 
L 2834 3500 
L 3513 3500 
z
" transform="scale(0.015625)"/>
     <path id="DejaVuSans-75" d="M 544 1381 
L 544 3500 
L 1119 3500 
L 1119 1403 
Q 1119 906 1312 657 
Q 1506 409 1894 409 
Q 2359 409 2629 706 
Q 2900 1003 2900 1516 
L 2900 3500 
L 3475 3500 
L 3475 0 
L 2900 0 
L 2900 538 
Q 2691 219 2414 64 
Q 2138 -91 1772 -91 
Q 1169 -91 856 284 
Q 544 659 544 1381 
z
M 1991 3584 
L 1991 3584 
z
" transform="scale(0.015625)"/>
     <path id="DejaVuSans-20" transform="scale(0.015625)"/>
     <path id="DejaVuSans-76" d="M 191 3500 
L 800 3500 
L 1894 563 
L 2988 3500 
L 3597 3500 
L 2284 0 
L 1503 0 
L 191 3500 
z
" transform="scale(0.015625)"/>
     <path id="DejaVuSans-79" d="M 2059 -325 
Q 1816 -950 1584 -1140 
Q 1353 -1331 966 -1331 
L 506 -1331 
L 506 -850 
L 844 -850 
Q 1081 -850 1212 -737 
Q 1344 -625 1503 -206 
L 1606 56 
L 191 3500 
L 800 3500 
L 1894 763 
L 2988 3500 
L 3597 3500 
L 2059 -325 
z
" transform="scale(0.015625)"/>
    </defs>
    <use xlink:href="#DejaVuSans-50"/>
    <use xlink:href="#DejaVuSans-72" transform="translate(58.552734 0)"/>
    <use xlink:href="#DejaVuSans-65" transform="translate(97.416016 0)"/>
    <use xlink:href="#DejaVuSans-70" transform="translate(158.939453 0)"/>
    <use xlink:href="#DejaVuSans-61" transform="translate(222.416016 0)"/>
    <use xlink:href="#DejaVuSans-72" transform="translate(283.695312 0)"/>
    <use xlink:href="#DejaVuSans-61" transform="translate(324.808594 0)"/>
    <use xlink:href="#DejaVuSans-74" transform="translate(386.087891 0)"/>
    <use xlink:href="#DejaVuSans-69" transform="translate(425.296875 0)"/>
    <use xlink:href="#DejaVuSans-6f" transform="translate(453.080078 0)"/>
    <use xlink:href="#DejaVuSans-6e" transform="translate(514.261719 0)"/>
    <use xlink:href="#DejaVuSans-2d" transform="translate(577.640625 0)"/>
    <use xlink:href="#DejaVuSans-65" transform="translate(613.724609 0)"/>
    <use xlink:href="#DejaVuSans-78" transform="translate(673.498047 0)"/>
    <use xlink:href="#DejaVuSans-65" transform="translate(729.552734 0)"/>
    <use xlink:href="#DejaVuSans-63" transform="translate(791.076172 0)"/>
    <use xlink:href="#DejaVuSans-75" transform="translate(846.056641 0)"/>
    <use xlink:href="#DejaVuSans-74" transform="translate(909.435547 0)"/>
    <use xlink:href="#DejaVuSans-69" transform="translate(948.644531 0)"/>
    <use xlink:href="#DejaVuSans-6f" transform="translate(976.427734 0)"/>
    <use xlink:href="#DejaVuSans-6e" transform="translate(1037.609375 0)"/>
    <use xlink:href="#DejaVuSans-20" transform="translate(1100.988281 0)"/>
    <use xlink:href="#DejaVuSans-61" transform="translate(1132.775391 0)"/>
    <use xlink:href="#DejaVuSans-63" transform="translate(1194.054688 0)"/>
    <use xlink:href="#DejaVuSans-74" transform="translate(1249.035156 0)"/>
    <use xlink:href="#DejaVuSans-69" transform="translate(1288.244141 0)"/>
    <use xlink:href="#DejaVuSans-76" transform="translate(1316.027344 0)"/>
    <use xlink:href="#DejaVuSans-69" transform="translate(1375.207031 0)"/>
    <use xlink:href="#DejaVuSans-74" transform="translate(1402.990234 0)"/>
    <use xlink:href="#DejaVuSans-79" transform="translate(1442.199219 0)"/>
    <use xlink:href="#DejaVuSans-20" transform="translate(1501.378906 0)"/>
    <use xlink:href="#DejaVuSans-63" transform="translate(1533.166016 0)"/>
    <use xlink:href="#DejaVuSans-6f" transform="translate(1588.146484 0)"/>
    <use xlink:href="#DejaVuSans-72" transform="translate(1649.328125 0)"/>
    <use xlink:href="#DejaVuSans-72" transform="translate(1688.691406 0)"/>
    <use xlink:href="#DejaVuSans-65" transform="translate(1727.554688 0)"/>
    <use xlink:href="#DejaVuSans-6c" transform="translate(1789.078125 0)"/>
    <use xlink:href="#DejaVuSans-61" transform="translate(1816.861328 0)"/>
    <use xlink:href="#DejaVuSans-74" transform="translate(1878.140625 0)"/>
    <use xlink:href="#DejaVuSans-69" transform="translate(1917.349609 0)"/>
    <use xlink:href="#DejaVuSans-6f" transform="translate(1945.132812 0)"/>
    <use xlink:href="#DejaVuSans-6e" transform="translate(2006.314453 0)"/>
   </g>
  </g>
 </g>
 <defs>
  <clipPath id="paf131668d8">
   <rect x="47.961178" y="35.732595" width="44.910553" height="142.97481"/>
  </clipPath>
  <clipPath id="pc0737ba9c2">
   <rect x="110.628356" y="35.732595" width="44.910553" height="142.97481"/>
  </clipPath>
  <clipPath id="pde008bb08f">
   <rect x="173.295535" y="35.732595" width="44.910553" height="142.97481"/>
  </clipPath>
  <clipPath id="p83932d923e">
   <rect x="235.962714" y="35.732595" width="44.910553" height="142.97481"/>
  </clipPath>
 </defs>
</svg>
