<?xml version="1.0" encoding="utf-8" standalone="no"?>
<!DOCTYPE svg PUBLIC "-//W3C//DTD SVG 1.1//EN"
  "http://www.w3.org/Graphics/SVG/1.1/DTD/svg11.dtd">
<svg xmlns:xlink="http://www.w3.org/1999/xlink" width="286.445499pt" height="293.76pt" viewBox="0 0 286.445499 293.76" xmlns="http://www.w3.org/2000/svg" version="1.1">
 <metadata>
  <rdf:RDF xmlns:dc="http://purl.org/dc/elements/1.1/" xmlns:cc="http://creativecommons.org/ns#" xmlns:rdf="http://www.w3.org/1999/02/22-rdf-syntax-ns#">
   <cc:Work>
    <dc:type rdf:resource="http://purl.org/dc/dcmitype/StillImage"/>
    <dc:date>2025-05-29T07:49:39.086714</dc:date>
    <dc:format>image/svg+xml</dc:format>
    <dc:creator>
     <cc:Agent>
      <dc:title>Matplotlib v3.10.1, https://matplotlib.org/</dc:title>
     </cc:Agent>
    </dc:creator>
   </cc:Work>
  </rdf:RDF>
 </metadata>
 <defs>
  <style type="text/css">*{stroke-linejoin: round; stroke-linecap: butt}</style>
 </defs>
 <g id="figure_1">
  <g id="patch_1">
   <path d="M 0 293.76 
L 286.445499 293.76 
L 286.445499 0 
L 0 0 
z
"/>
  </g>
  <g id="axes_1">
   <g id="patch_2">
    <path d="M 58.84 222.824 
L 155.853927 222.824 
L 155.853927 52.08 
L 58.84 52.08 
z
"/>
   </g>
   <g id="FillBetweenPolyCollection_1">
    <defs>
     <path id="m030a6944db" d="M 63.249724 -167.148679 
L 63.249724 -81.331408 
L 64.140577 -82.139853 
L 65.031431 -82.941546 
L 65.922284 -83.736161 
L 66.813137 -84.523354 
L 67.703991 -85.302765 
L 68.594844 -86.074011 
L 69.485697 -86.836691 
L 70.376551 -87.590386 
L 71.267404 -88.334651 
L 72.158257 -89.069022 
L 73.04911 -89.793011 
L 73.939964 -90.506108 
L 74.830817 -91.207778 
L 75.72167 -91.897464 
L 76.612524 -92.574584 
L 77.503377 -93.238533 
L 78.39423 -93.888682 
L 79.285084 -94.524382 
L 80.175937 -95.144959 
L 81.06679 -95.749724 
L 81.957644 -96.337967 
L 82.848497 -96.908962 
L 83.73935 -97.461974 
L 84.630204 -97.996256 
L 85.521057 -98.511058 
L 86.41191 -99.005628 
L 87.302764 -99.47922 
L 88.193617 -99.9311 
L 89.08447 -100.360547 
L 89.975324 -100.766868 
L 90.866177 -101.149399 
L 91.75703 -101.507511 
L 92.647884 -101.840625 
L 93.538737 -102.148209 
L 94.42959 -102.429793 
L 95.320444 -102.684972 
L 96.211297 -102.913412 
L 97.10215 -103.114852 
L 97.993004 -103.289115 
L 98.883857 -103.436104 
L 99.77471 -103.555805 
L 100.665563 -103.64829 
L 101.556417 -103.713713 
L 102.44727 -103.752309 
L 103.338123 -103.764389 
L 104.228977 -103.750337 
L 105.11983 -103.710606 
L 106.010683 -103.645707 
L 106.901537 -103.556206 
L 107.79239 -103.442718 
L 108.683243 -103.305897 
L 109.574097 -103.146427 
L 110.46495 -102.965022 
L 111.355803 -102.762413 
L 112.246657 -102.539342 
L 113.13751 -102.29656 
L 114.028363 -102.034819 
L 114.919217 -101.754866 
L 115.81007 -101.457441 
L 116.700923 -101.143273 
L 117.591777 -100.813076 
L 118.48263 -100.467548 
L 119.373483 -100.107365 
L 120.264337 -99.733187 
L 121.15519 -99.345646 
L 122.046043 -98.945357 
L 122.936897 -98.532908 
L 123.82775 -98.108863 
L 124.718603 -97.673765 
L 125.609456 -97.22813 
L 126.50031 -96.772455 
L 127.391163 -96.30721 
L 128.282016 -95.832845 
L 129.17287 -95.349788 
L 130.063723 -94.858445 
L 130.954576 -94.359205 
L 131.84543 -93.852435 
L 132.736283 -93.338483 
L 133.627136 -92.81768 
L 134.51799 -92.290343 
L 135.408843 -91.756768 
L 136.299696 -91.217238 
L 137.19055 -90.672022 
L 138.081403 -90.121375 
L 138.972256 -89.565538 
L 139.86311 -89.004739 
L 140.753963 -88.439196 
L 141.644816 -87.869115 
L 142.53567 -87.294691 
L 143.426523 -86.716111 
L 144.317376 -86.133549 
L 145.20823 -85.547173 
L 146.099083 -84.957142 
L 146.989936 -84.363607 
L 147.88079 -83.76671 
L 148.771643 -83.166588 
L 149.662496 -82.563371 
L 150.55335 -81.957181 
L 151.444203 -81.348135 
L 151.444203 -195.406886 
L 151.444203 -195.406886 
L 150.55335 -194.512235 
L 149.662496 -193.62044 
L 148.771643 -192.731617 
L 147.88079 -191.84589 
L 146.989936 -190.963388 
L 146.099083 -190.084247 
L 145.20823 -189.20861 
L 144.317376 -188.336629 
L 143.426523 -187.468462 
L 142.53567 -186.604276 
L 141.644816 -185.744247 
L 140.753963 -184.88856 
L 139.86311 -184.037412 
L 138.972256 -183.191008 
L 138.081403 -182.349565 
L 137.19055 -181.513313 
L 136.299696 -180.682491 
L 135.408843 -179.857357 
L 134.51799 -179.038176 
L 133.627136 -178.225233 
L 132.736283 -177.418825 
L 131.84543 -176.619268 
L 130.954576 -175.826892 
L 130.063723 -175.042046 
L 129.17287 -174.265099 
L 128.282016 -173.496436 
L 127.391163 -172.736466 
L 126.50031 -171.985615 
L 125.609456 -171.244334 
L 124.718603 -170.513095 
L 123.82775 -169.792391 
L 122.936897 -169.082741 
L 122.046043 -168.384686 
L 121.15519 -167.698791 
L 120.264337 -167.025646 
L 119.373483 -166.365862 
L 118.48263 -165.720074 
L 117.591777 -165.08894 
L 116.700923 -164.473138 
L 115.81007 -163.873365 
L 114.919217 -163.290334 
L 114.028363 -162.724776 
L 113.13751 -162.177429 
L 112.246657 -161.649042 
L 111.355803 -161.140366 
L 110.46495 -160.652151 
L 109.574097 -160.185141 
L 108.683243 -159.740066 
L 107.79239 -159.317639 
L 106.901537 -158.918545 
L 106.010683 -158.54344 
L 105.11983 -158.192935 
L 104.228977 -157.867598 
L 103.338123 -157.567941 
L 102.44727 -157.294416 
L 101.556417 -157.047406 
L 100.665563 -156.827224 
L 99.77471 -156.634103 
L 98.883857 -156.468199 
L 97.993004 -156.329583 
L 97.10215 -156.21824 
L 96.211297 -156.134075 
L 95.320444 -156.076909 
L 94.42959 -156.046483 
L 93.538737 -156.042462 
L 92.647884 -156.064441 
L 91.75703 -156.111949 
L 90.866177 -156.184456 
L 89.975324 -156.281381 
L 89.08447 -156.402097 
L 88.193617 -156.545939 
L 87.302764 -156.712213 
L 86.41191 -156.9002 
L 85.521057 -157.109165 
L 84.630204 -157.338361 
L 83.73935 -157.587037 
L 82.848497 -157.854444 
L 81.957644 -158.139834 
L 81.06679 -158.442471 
L 80.175937 -158.761631 
L 79.285084 -159.096603 
L 78.39423 -159.446697 
L 77.503377 -159.811241 
L 76.612524 -160.189585 
L 75.72167 -160.581099 
L 74.830817 -160.98518 
L 73.939964 -161.401244 
L 73.04911 -161.828736 
L 72.158257 -162.26712 
L 71.267404 -162.715885 
L 70.376551 -163.174545 
L 69.485697 -163.642634 
L 68.594844 -164.119709 
L 67.703991 -164.60535 
L 66.813137 -165.099155 
L 65.922284 -165.600743 
L 65.031431 -166.109753 
L 64.140577 -166.62584 
L 63.249724 -167.148679 
z
"/>
    </defs>
    <g clip-path="url(#p887356e0cc)">
     <use xlink:href="#m030a6944db" x="0" y="293.76" style="fill: #ffffff; fill-opacity: 0.2"/>
    </g>
   </g>
   <g id="PathCollection_1">
    <defs>
     <path id="me80da504a3" d="M 0 3 
C 0.795609 3 1.55874 2.683901 2.12132 2.12132 
C 2.683901 1.55874 3 0.795609 3 0 
C 3 -0.795609 2.683901 -1.55874 2.12132 -2.12132 
C 1.55874 -2.683901 0.795609 -3 0 -3 
C -0.795609 -3 -1.55874 -2.683901 -2.12132 -2.12132 
C -2.683901 -1.55874 -3 -0.795609 -3 0 
C -3 0.795609 -2.683901 1.55874 -2.12132 2.12132 
C -1.55874 2.683901 -0.795609 3 0 3 
z
" style="stroke: #ffffff"/>
    </defs>
    <g clip-path="url(#p887356e0cc)">
     <use xlink:href="#me80da504a3" x="68.091085" y="215.062909" style="fill: #ffffff; stroke: #ffffff"/>
     <use xlink:href="#me80da504a3" x="101.330237" y="129.914314" style="fill: #ffffff; stroke: #ffffff"/>
     <use xlink:href="#me80da504a3" x="151.444203" y="173.005746" style="fill: #ffffff; stroke: #ffffff"/>
     <use xlink:href="#me80da504a3" x="136.020314" y="169.786389" style="fill: #ffffff; stroke: #ffffff"/>
     <use xlink:href="#me80da504a3" x="85.54946" y="203.504932" style="fill: #ffffff; stroke: #ffffff"/>
     <use xlink:href="#me80da504a3" x="145.541162" y="179.928643" style="fill: #ffffff; stroke: #ffffff"/>
     <use xlink:href="#me80da504a3" x="89.893835" y="209.734843" style="fill: #ffffff; stroke: #ffffff"/>
     <use xlink:href="#me80da504a3" x="78.841823" y="147.676385" style="fill: #ffffff; stroke: #ffffff"/>
     <use xlink:href="#me80da504a3" x="74.442764" y="123.289462" style="fill: #ffffff; stroke: #ffffff"/>
     <use xlink:href="#me80da504a3" x="82.726017" y="195.045287" style="fill: #ffffff; stroke: #ffffff"/>
     <use xlink:href="#me80da504a3" x="83.399499" y="205.325769" style="fill: #ffffff; stroke: #ffffff"/>
     <use xlink:href="#me80da504a3" x="98.472255" y="161.66797" style="fill: #ffffff; stroke: #ffffff"/>
     <use xlink:href="#me80da504a3" x="63.249724" y="120.219162" style="fill: #ffffff; stroke: #ffffff"/>
     <use xlink:href="#me80da504a3" x="121.048292" y="59.841091" style="fill: #ffffff; stroke: #ffffff"/>
    </g>
   </g>
   <g id="matplotlib.axis_1">
    <g id="xtick_1">
     <g id="line2d_1">
      <defs>
       <path id="m09f9a1e22e" d="M 0 0 
L 0 3.5 
" style="stroke: #ffffff; stroke-width: 2"/>
      </defs>
      <g>
       <use xlink:href="#m09f9a1e22e" x="66.971144" y="222.824" style="fill: #ffffff; stroke: #ffffff; stroke-width: 2"/>
      </g>
     </g>
     <g id="text_1">
      <!-- −0.010 -->
      <g style="fill: #ffffff" transform="translate(48.467237 237.422437) scale(0.1 -0.1)">
       <defs>
        <path id="DejaVuSans-2212" d="M 678 2272 
L 4684 2272 
L 4684 1741 
L 678 1741 
L 678 2272 
z
" transform="scale(0.015625)"/>
        <path id="DejaVuSans-30" d="M 2034 4250 
Q 1547 4250 1301 3770 
Q 1056 3291 1056 2328 
Q 1056 1369 1301 889 
Q 1547 409 2034 409 
Q 2525 409 2770 889 
Q 3016 1369 3016 2328 
Q 3016 3291 2770 3770 
Q 2525 4250 2034 4250 
z
M 2034 4750 
Q 2819 4750 3233 4129 
Q 3647 3509 3647 2328 
Q 3647 1150 3233 529 
Q 2819 -91 2034 -91 
Q 1250 -91 836 529 
Q 422 1150 422 2328 
Q 422 3509 836 4129 
Q 1250 4750 2034 4750 
z
" transform="scale(0.015625)"/>
        <path id="DejaVuSans-2e" d="M 684 794 
L 1344 794 
L 1344 0 
L 684 0 
L 684 794 
z
" transform="scale(0.015625)"/>
        <path id="DejaVuSans-31" d="M 794 531 
L 1825 531 
L 1825 4091 
L 703 3866 
L 703 4441 
L 1819 4666 
L 2450 4666 
L 2450 531 
L 3481 531 
L 3481 0 
L 794 0 
L 794 531 
z
" transform="scale(0.015625)"/>
       </defs>
       <use xlink:href="#DejaVuSans-2212"/>
       <use xlink:href="#DejaVuSans-30" transform="translate(83.789062 0)"/>
       <use xlink:href="#DejaVuSans-2e" transform="translate(147.412109 0)"/>
       <use xlink:href="#DejaVuSans-30" transform="translate(179.199219 0)"/>
       <use xlink:href="#DejaVuSans-31" transform="translate(242.822266 0)"/>
       <use xlink:href="#DejaVuSans-30" transform="translate(306.445312 0)"/>
      </g>
     </g>
    </g>
    <g id="xtick_2">
     <g id="line2d_2">
      <g>
       <use xlink:href="#m09f9a1e22e" x="105.825873" y="222.824" style="fill: #ffffff; stroke: #ffffff; stroke-width: 2"/>
      </g>
     </g>
     <g id="text_2">
      <!-- 0.035 -->
      <g style="fill: #ffffff" transform="translate(91.51181 237.422437) scale(0.1 -0.1)">
       <defs>
        <path id="DejaVuSans-33" d="M 2597 2516 
Q 3050 2419 3304 2112 
Q 3559 1806 3559 1356 
Q 3559 666 3084 287 
Q 2609 -91 1734 -91 
Q 1441 -91 1130 -33 
Q 819 25 488 141 
L 488 750 
Q 750 597 1062 519 
Q 1375 441 1716 441 
Q 2309 441 2620 675 
Q 2931 909 2931 1356 
Q 2931 1769 2642 2001 
Q 2353 2234 1838 2234 
L 1294 2234 
L 1294 2753 
L 1863 2753 
Q 2328 2753 2575 2939 
Q 2822 3125 2822 3475 
Q 2822 3834 2567 4026 
Q 2313 4219 1838 4219 
Q 1578 4219 1281 4162 
Q 984 4106 628 3988 
L 628 4550 
Q 988 4650 1302 4700 
Q 1616 4750 1894 4750 
Q 2613 4750 3031 4423 
Q 3450 4097 3450 3541 
Q 3450 3153 3228 2886 
Q 3006 2619 2597 2516 
z
" transform="scale(0.015625)"/>
        <path id="DejaVuSans-35" d="M 691 4666 
L 3169 4666 
L 3169 4134 
L 1269 4134 
L 1269 2991 
Q 1406 3038 1543 3061 
Q 1681 3084 1819 3084 
Q 2600 3084 3056 2656 
Q 3513 2228 3513 1497 
Q 3513 744 3044 326 
Q 2575 -91 1722 -91 
Q 1428 -91 1123 -41 
Q 819 9 494 109 
L 494 744 
Q 775 591 1075 516 
Q 1375 441 1709 441 
Q 2250 441 2565 725 
Q 2881 1009 2881 1497 
Q 2881 1984 2565 2268 
Q 2250 2553 1709 2553 
Q 1456 2553 1204 2497 
Q 953 2441 691 2322 
L 691 4666 
z
" transform="scale(0.015625)"/>
       </defs>
       <use xlink:href="#DejaVuSans-30"/>
       <use xlink:href="#DejaVuSans-2e" transform="translate(63.623047 0)"/>
       <use xlink:href="#DejaVuSans-30" transform="translate(95.410156 0)"/>
       <use xlink:href="#DejaVuSans-33" transform="translate(159.033203 0)"/>
       <use xlink:href="#DejaVuSans-35" transform="translate(222.65625 0)"/>
      </g>
     </g>
    </g>
    <g id="xtick_3">
     <g id="line2d_3">
      <g>
       <use xlink:href="#m09f9a1e22e" x="144.680602" y="222.824" style="fill: #ffffff; stroke: #ffffff; stroke-width: 2"/>
      </g>
     </g>
     <g id="text_3">
      <!-- 0.080 -->
      <g style="fill: #ffffff" transform="translate(130.366539 237.422437) scale(0.1 -0.1)">
       <defs>
        <path id="DejaVuSans-38" d="M 2034 2216 
Q 1584 2216 1326 1975 
Q 1069 1734 1069 1313 
Q 1069 891 1326 650 
Q 1584 409 2034 409 
Q 2484 409 2743 651 
Q 3003 894 3003 1313 
Q 3003 1734 2745 1975 
Q 2488 2216 2034 2216 
z
M 1403 2484 
Q 997 2584 770 2862 
Q 544 3141 544 3541 
Q 544 4100 942 4425 
Q 1341 4750 2034 4750 
Q 2731 4750 3128 4425 
Q 3525 4100 3525 3541 
Q 3525 3141 3298 2862 
Q 3072 2584 2669 2484 
Q 3125 2378 3379 2068 
Q 3634 1759 3634 1313 
Q 3634 634 3220 271 
Q 2806 -91 2034 -91 
Q 1263 -91 848 271 
Q 434 634 434 1313 
Q 434 1759 690 2068 
Q 947 2378 1403 2484 
z
M 1172 3481 
Q 1172 3119 1398 2916 
Q 1625 2713 2034 2713 
Q 2441 2713 2670 2916 
Q 2900 3119 2900 3481 
Q 2900 3844 2670 4047 
Q 2441 4250 2034 4250 
Q 1625 4250 1398 4047 
Q 1172 3844 1172 3481 
z
" transform="scale(0.015625)"/>
       </defs>
       <use xlink:href="#DejaVuSans-30"/>
       <use xlink:href="#DejaVuSans-2e" transform="translate(63.623047 0)"/>
       <use xlink:href="#DejaVuSans-30" transform="translate(95.410156 0)"/>
       <use xlink:href="#DejaVuSans-38" transform="translate(159.033203 0)"/>
       <use xlink:href="#DejaVuSans-30" transform="translate(222.65625 0)"/>
      </g>
     </g>
    </g>
   </g>
   <g id="matplotlib.axis_2">
    <g id="ytick_1">
     <g id="line2d_4">
      <defs>
       <path id="mf260bad9e8" d="M 0 0 
L -3.5 0 
" style="stroke: #ffffff; stroke-width: 2"/>
      </defs>
      <g>
       <use xlink:href="#mf260bad9e8" x="58.84" y="215.062909" style="fill: #ffffff; stroke: #ffffff; stroke-width: 2"/>
      </g>
     </g>
     <g id="text_4">
      <!-- 0.0 -->
      <g style="fill: #ffffff" transform="translate(35.936875 218.862128) scale(0.1 -0.1)">
       <use xlink:href="#DejaVuSans-30"/>
       <use xlink:href="#DejaVuSans-2e" transform="translate(63.623047 0)"/>
       <use xlink:href="#DejaVuSans-30" transform="translate(95.410156 0)"/>
      </g>
     </g>
    </g>
    <g id="ytick_2">
     <g id="line2d_5">
      <g>
       <use xlink:href="#mf260bad9e8" x="58.84" y="191.121642" style="fill: #ffffff; stroke: #ffffff; stroke-width: 2"/>
      </g>
     </g>
     <g id="text_5">
      <!-- 0.1 -->
      <g style="fill: #ffffff" transform="translate(35.936875 194.920861) scale(0.1 -0.1)">
       <use xlink:href="#DejaVuSans-30"/>
       <use xlink:href="#DejaVuSans-2e" transform="translate(63.623047 0)"/>
       <use xlink:href="#DejaVuSans-31" transform="translate(95.410156 0)"/>
      </g>
     </g>
    </g>
    <g id="ytick_3">
     <g id="line2d_6">
      <g>
       <use xlink:href="#mf260bad9e8" x="58.84" y="167.180375" style="fill: #ffffff; stroke: #ffffff; stroke-width: 2"/>
      </g>
     </g>
     <g id="text_6">
      <!-- 0.2 -->
      <g style="fill: #ffffff" transform="translate(35.936875 170.979594) scale(0.1 -0.1)">
       <defs>
        <path id="DejaVuSans-32" d="M 1228 531 
L 3431 531 
L 3431 0 
L 469 0 
L 469 531 
Q 828 903 1448 1529 
Q 2069 2156 2228 2338 
Q 2531 2678 2651 2914 
Q 2772 3150 2772 3378 
Q 2772 3750 2511 3984 
Q 2250 4219 1831 4219 
Q 1534 4219 1204 4116 
Q 875 4013 500 3803 
L 500 4441 
Q 881 4594 1212 4672 
Q 1544 4750 1819 4750 
Q 2544 4750 2975 4387 
Q 3406 4025 3406 3419 
Q 3406 3131 3298 2873 
Q 3191 2616 2906 2266 
Q 2828 2175 2409 1742 
Q 1991 1309 1228 531 
z
" transform="scale(0.015625)"/>
       </defs>
       <use xlink:href="#DejaVuSans-30"/>
       <use xlink:href="#DejaVuSans-2e" transform="translate(63.623047 0)"/>
       <use xlink:href="#DejaVuSans-32" transform="translate(95.410156 0)"/>
      </g>
     </g>
    </g>
    <g id="ytick_4">
     <g id="line2d_7">
      <g>
       <use xlink:href="#mf260bad9e8" x="58.84" y="143.239109" style="fill: #ffffff; stroke: #ffffff; stroke-width: 2"/>
      </g>
     </g>
     <g id="text_7">
      <!-- 0.3 -->
      <g style="fill: #ffffff" transform="translate(35.936875 147.038327) scale(0.1 -0.1)">
       <use xlink:href="#DejaVuSans-30"/>
       <use xlink:href="#DejaVuSans-2e" transform="translate(63.623047 0)"/>
       <use xlink:href="#DejaVuSans-33" transform="translate(95.410156 0)"/>
      </g>
     </g>
    </g>
    <g id="ytick_5">
     <g id="line2d_8">
      <g>
       <use xlink:href="#mf260bad9e8" x="58.84" y="119.297842" style="fill: #ffffff; stroke: #ffffff; stroke-width: 2"/>
      </g>
     </g>
     <g id="text_8">
      <!-- 0.4 -->
      <g style="fill: #ffffff" transform="translate(35.936875 123.097061) scale(0.1 -0.1)">
       <defs>
        <path id="DejaVuSans-34" d="M 2419 4116 
L 825 1625 
L 2419 1625 
L 2419 4116 
z
M 2253 4666 
L 3047 4666 
L 3047 1625 
L 3713 1625 
L 3713 1100 
L 3047 1100 
L 3047 0 
L 2419 0 
L 2419 1100 
L 313 1100 
L 313 1709 
L 2253 4666 
z
" transform="scale(0.015625)"/>
       </defs>
       <use xlink:href="#DejaVuSans-30"/>
       <use xlink:href="#DejaVuSans-2e" transform="translate(63.623047 0)"/>
       <use xlink:href="#DejaVuSans-34" transform="translate(95.410156 0)"/>
      </g>
     </g>
    </g>
    <g id="ytick_6">
     <g id="line2d_9">
      <g>
       <use xlink:href="#mf260bad9e8" x="58.84" y="95.356575" style="fill: #ffffff; stroke: #ffffff; stroke-width: 2"/>
      </g>
     </g>
     <g id="text_9">
      <!-- 0.5 -->
      <g style="fill: #ffffff" transform="translate(35.936875 99.155794) scale(0.1 -0.1)">
       <use xlink:href="#DejaVuSans-30"/>
       <use xlink:href="#DejaVuSans-2e" transform="translate(63.623047 0)"/>
       <use xlink:href="#DejaVuSans-35" transform="translate(95.410156 0)"/>
      </g>
     </g>
    </g>
    <g id="ytick_7">
     <g id="line2d_10">
      <g>
       <use xlink:href="#mf260bad9e8" x="58.84" y="71.415308" style="fill: #ffffff; stroke: #ffffff; stroke-width: 2"/>
      </g>
     </g>
     <g id="text_10">
      <!-- 0.6 -->
      <g style="fill: #ffffff" transform="translate(35.936875 75.214527) scale(0.1 -0.1)">
       <defs>
        <path id="DejaVuSans-36" d="M 2113 2584 
Q 1688 2584 1439 2293 
Q 1191 2003 1191 1497 
Q 1191 994 1439 701 
Q 1688 409 2113 409 
Q 2538 409 2786 701 
Q 3034 994 3034 1497 
Q 3034 2003 2786 2293 
Q 2538 2584 2113 2584 
z
M 3366 4563 
L 3366 3988 
Q 3128 4100 2886 4159 
Q 2644 4219 2406 4219 
Q 1781 4219 1451 3797 
Q 1122 3375 1075 2522 
Q 1259 2794 1537 2939 
Q 1816 3084 2150 3084 
Q 2853 3084 3261 2657 
Q 3669 2231 3669 1497 
Q 3669 778 3244 343 
Q 2819 -91 2113 -91 
Q 1303 -91 875 529 
Q 447 1150 447 2328 
Q 447 3434 972 4092 
Q 1497 4750 2381 4750 
Q 2619 4750 2861 4703 
Q 3103 4656 3366 4563 
z
" transform="scale(0.015625)"/>
       </defs>
       <use xlink:href="#DejaVuSans-30"/>
       <use xlink:href="#DejaVuSans-2e" transform="translate(63.623047 0)"/>
       <use xlink:href="#DejaVuSans-36" transform="translate(95.410156 0)"/>
      </g>
     </g>
    </g>
   </g>
   <g id="line2d_11">
    <path d="M 63.249724 169.519956 
L 64.140577 169.377153 
L 65.031431 169.234351 
L 65.922284 169.091548 
L 66.813137 168.948745 
L 67.703991 168.805943 
L 68.594844 168.66314 
L 69.485697 168.520337 
L 70.376551 168.377535 
L 71.267404 168.234732 
L 72.158257 168.091929 
L 73.04911 167.949127 
L 73.939964 167.806324 
L 74.830817 167.663521 
L 75.72167 167.520718 
L 76.612524 167.377916 
L 77.503377 167.235113 
L 78.39423 167.09231 
L 79.285084 166.949508 
L 80.175937 166.806705 
L 81.06679 166.663902 
L 81.957644 166.5211 
L 82.848497 166.378297 
L 83.73935 166.235494 
L 84.630204 166.092691 
L 85.521057 165.949889 
L 86.41191 165.807086 
L 87.302764 165.664283 
L 88.193617 165.521481 
L 89.08447 165.378678 
L 89.975324 165.235875 
L 90.866177 165.093073 
L 91.75703 164.95027 
L 92.647884 164.807467 
L 93.538737 164.664665 
L 94.42959 164.521862 
L 95.320444 164.379059 
L 96.211297 164.236256 
L 97.10215 164.093454 
L 97.993004 163.950651 
L 98.883857 163.807848 
L 99.77471 163.665046 
L 100.665563 163.522243 
L 101.556417 163.37944 
L 102.44727 163.236638 
L 103.338123 163.093835 
L 104.228977 162.951032 
L 105.11983 162.80823 
L 106.010683 162.665427 
L 106.901537 162.522624 
L 107.79239 162.379821 
L 108.683243 162.237019 
L 109.574097 162.094216 
L 110.46495 161.951413 
L 111.355803 161.808611 
L 112.246657 161.665808 
L 113.13751 161.523005 
L 114.028363 161.380203 
L 114.919217 161.2374 
L 115.81007 161.094597 
L 116.700923 160.951795 
L 117.591777 160.808992 
L 118.48263 160.666189 
L 119.373483 160.523386 
L 120.264337 160.380584 
L 121.15519 160.237781 
L 122.046043 160.094978 
L 122.936897 159.952176 
L 123.82775 159.809373 
L 124.718603 159.66657 
L 125.609456 159.523768 
L 126.50031 159.380965 
L 127.391163 159.238162 
L 128.282016 159.09536 
L 129.17287 158.952557 
L 130.063723 158.809754 
L 130.954576 158.666951 
L 131.84543 158.524149 
L 132.736283 158.381346 
L 133.627136 158.238543 
L 134.51799 158.095741 
L 135.408843 157.952938 
L 136.299696 157.810135 
L 137.19055 157.667333 
L 138.081403 157.52453 
L 138.972256 157.381727 
L 139.86311 157.238925 
L 140.753963 157.096122 
L 141.644816 156.953319 
L 142.53567 156.810516 
L 143.426523 156.667714 
L 144.317376 156.524911 
L 145.20823 156.382108 
L 146.099083 156.239306 
L 146.989936 156.096503 
L 147.88079 155.9537 
L 148.771643 155.810898 
L 149.662496 155.668095 
L 150.55335 155.525292 
L 151.444203 155.38249 
" clip-path="url(#p887356e0cc)" style="fill: none; stroke-dasharray: 5.55,2.4; stroke-dashoffset: 0; stroke: #ffffff; stroke-width: 1.5"/>
   </g>
   <g id="line2d_12">
    <path d="M 75.605528 222.824 
L 75.605528 52.08 
" clip-path="url(#p887356e0cc)" style="fill: none; stroke: #ffffff; stroke-width: 0.8; stroke-linecap: square"/>
   </g>
   <g id="line2d_13">
    <path d="M 58.84 215.062909 
L 155.853927 215.062909 
" clip-path="url(#p887356e0cc)" style="fill: none; stroke: #ffffff; stroke-width: 0.8; stroke-linecap: square"/>
   </g>
   <g id="patch_3">
    <path d="M 58.84 215.062909 
L 58.84 71.415308 
" style="fill: none; stroke: #ffffff; stroke-width: 2; stroke-linejoin: miter; stroke-linecap: square"/>
   </g>
   <g id="patch_4">
    <path d="M 66.971144 222.824 
L 144.680602 222.824 
" style="fill: none; stroke: #ffffff; stroke-width: 2; stroke-linejoin: miter; stroke-linecap: square"/>
   </g>
   <g id="text_11">
    <!-- M1 -->
    <g style="fill: #ffffff" transform="translate(98.352588 46.08) scale(0.12 -0.12)">
     <defs>
      <path id="DejaVuSans-4d" d="M 628 4666 
L 1569 4666 
L 2759 1491 
L 3956 4666 
L 4897 4666 
L 4897 0 
L 4281 0 
L 4281 4097 
L 3078 897 
L 2444 897 
L 1241 4097 
L 1241 0 
L 628 0 
L 628 4666 
z
" transform="scale(0.015625)"/>
     </defs>
     <use xlink:href="#DejaVuSans-4d"/>
     <use xlink:href="#DejaVuSans-31" transform="translate(86.279297 0)"/>
    </g>
   </g>
  </g>
  <g id="axes_2">
   <g id="patch_5">
    <path d="M 179.090835 222.824 
L 276.104762 222.824 
L 276.104762 52.08 
L 179.090835 52.08 
z
"/>
   </g>
   <g id="FillBetweenPolyCollection_2">
    <defs>
     <path id="md877403f8f" d="M 183.500559 -185.651002 
L 183.500559 -107.003648 
L 184.391412 -107.653228 
L 185.282265 -108.296619 
L 186.173119 -108.933524 
L 187.063972 -109.563627 
L 187.954825 -110.186598 
L 188.845679 -110.802086 
L 189.736532 -111.409725 
L 190.627385 -112.009128 
L 191.518239 -112.59989 
L 192.409092 -113.181584 
L 193.299945 -113.753764 
L 194.190799 -114.315961 
L 195.081652 -114.867687 
L 195.972505 -115.408429 
L 196.863359 -115.937655 
L 197.754212 -116.454811 
L 198.645065 -116.95932 
L 199.535919 -117.450587 
L 200.426772 -117.927995 
L 201.317625 -118.390912 
L 202.208479 -118.838686 
L 203.099332 -119.270655 
L 203.990185 -119.686142 
L 204.881038 -120.084465 
L 205.771892 -120.464934 
L 206.662745 -120.826862 
L 207.553598 -121.169566 
L 208.444452 -121.49237 
L 209.335305 -121.794617 
L 210.226158 -122.075669 
L 211.117012 -122.334919 
L 212.007865 -122.57179 
L 212.898718 -122.785751 
L 213.789572 -122.976316 
L 214.680425 -123.143054 
L 215.571278 -123.285592 
L 216.462132 -123.403624 
L 217.352985 -123.496914 
L 218.243838 -123.565296 
L 219.134692 -123.608683 
L 220.025545 -123.627062 
L 220.916398 -123.620499 
L 221.807252 -123.589135 
L 222.698105 -123.533185 
L 223.588958 -123.452935 
L 224.479812 -123.348736 
L 225.370665 -123.221003 
L 226.261518 -123.070205 
L 227.152372 -122.896861 
L 228.043225 -122.701534 
L 228.934078 -122.484822 
L 229.824931 -122.247355 
L 230.715785 -121.989785 
L 231.606638 -121.712783 
L 232.497491 -121.417028 
L 233.388345 -121.103209 
L 234.279198 -120.772015 
L 235.170051 -120.42413 
L 236.060905 -120.060234 
L 236.951758 -119.680993 
L 237.842611 -119.287063 
L 238.733465 -118.879081 
L 239.624318 -118.457671 
L 240.515171 -118.023433 
L 241.406025 -117.57695 
L 242.296878 -117.118784 
L 243.187731 -116.649473 
L 244.078585 -116.169535 
L 244.969438 -115.679468 
L 245.860291 -115.179745 
L 246.751145 -114.670819 
L 247.641998 -114.153123 
L 248.532851 -113.62707 
L 249.423705 -113.09305 
L 250.314558 -112.551438 
L 251.205411 -112.002588 
L 252.096265 -111.446836 
L 252.987118 -110.884503 
L 253.877971 -110.315892 
L 254.768825 -109.741291 
L 255.659678 -109.160975 
L 256.550531 -108.575201 
L 257.441384 -107.984216 
L 258.332238 -107.388254 
L 259.223091 -106.787535 
L 260.113944 -106.182269 
L 261.004798 -105.572655 
L 261.895651 -104.958883 
L 262.786504 -104.34113 
L 263.677358 -103.719568 
L 264.568211 -103.094357 
L 265.459064 -102.465651 
L 266.349918 -101.833596 
L 267.240771 -101.198328 
L 268.131624 -100.55998 
L 269.022478 -99.918677 
L 269.913331 -99.274536 
L 270.804184 -98.627672 
L 271.695038 -97.97819 
L 271.695038 -202.507486 
L 271.695038 -202.507486 
L 270.804184 -201.778903 
L 269.913331 -201.052937 
L 269.022478 -200.329695 
L 268.131624 -199.609291 
L 267.240771 -198.891841 
L 266.349918 -198.177473 
L 265.459064 -197.466315 
L 264.568211 -196.758508 
L 263.677358 -196.054196 
L 262.786504 -195.353533 
L 261.895651 -194.656679 
L 261.004798 -193.963805 
L 260.113944 -193.275091 
L 259.223091 -192.590723 
L 258.332238 -191.910903 
L 257.441384 -191.235839 
L 256.550531 -190.565753 
L 255.659678 -189.900878 
L 254.768825 -189.24146 
L 253.877971 -188.587759 
L 252.987118 -187.940046 
L 252.096265 -187.298612 
L 251.205411 -186.663759 
L 250.314558 -186.035807 
L 249.423705 -185.415094 
L 248.532851 -184.801973 
L 247.641998 -184.196818 
L 246.751145 -183.600021 
L 245.860291 -183.011995 
L 244.969438 -182.43317 
L 244.078585 -181.864001 
L 243.187731 -181.304963 
L 242.296878 -180.75655 
L 241.406025 -180.219282 
L 240.515171 -179.693698 
L 239.624318 -179.180359 
L 238.733465 -178.679848 
L 237.842611 -178.192765 
L 236.951758 -177.719733 
L 236.060905 -177.261391 
L 235.170051 -176.818394 
L 234.279198 -176.391408 
L 233.388345 -175.981112 
L 232.497491 -175.588192 
L 231.606638 -175.213336 
L 230.715785 -174.857232 
L 229.824931 -174.520561 
L 228.934078 -174.203993 
L 228.043225 -173.90818 
L 227.152372 -173.633752 
L 226.261518 -173.381306 
L 225.370665 -173.151407 
L 224.479812 -172.944573 
L 223.588958 -172.761273 
L 222.698105 -172.601921 
L 221.807252 -172.46687 
L 220.916398 -172.356404 
L 220.025545 -172.27074 
L 219.134692 -172.210018 
L 218.243838 -172.174304 
L 217.352985 -172.163585 
L 216.462132 -172.177773 
L 215.571278 -172.216704 
L 214.680425 -172.280141 
L 213.789572 -172.367777 
L 212.898718 -172.479241 
L 212.007865 -172.614101 
L 211.117012 -172.771871 
L 210.226158 -172.952019 
L 209.335305 -173.15397 
L 208.444452 -173.377116 
L 207.553598 -173.620819 
L 206.662745 -173.884421 
L 205.771892 -174.167248 
L 204.881038 -174.468616 
L 203.990185 -174.787838 
L 203.099332 -175.124224 
L 202.208479 -175.477091 
L 201.317625 -175.845764 
L 200.426772 -176.22958 
L 199.535919 -176.627887 
L 198.645065 -177.040052 
L 197.754212 -177.46546 
L 196.863359 -177.903514 
L 195.972505 -178.353639 
L 195.081652 -178.81528 
L 194.190799 -179.287905 
L 193.299945 -179.771001 
L 192.409092 -180.264079 
L 191.518239 -180.766672 
L 190.627385 -181.278333 
L 189.736532 -181.798635 
L 188.845679 -182.327172 
L 187.954825 -182.863559 
L 187.063972 -183.407428 
L 186.173119 -183.958431 
L 185.282265 -184.516234 
L 184.391412 -185.080524 
L 183.500559 -185.651002 
z
"/>
    </defs>
    <g clip-path="url(#pdbb7e2c31b)">
     <use xlink:href="#md877403f8f" x="0" y="293.76" style="fill: #ffffff; fill-opacity: 0.2"/>
    </g>
   </g>
   <g id="PathCollection_2">
    <g clip-path="url(#pdbb7e2c31b)">
     <use xlink:href="#me80da504a3" x="188.341919" y="215.060964" style="fill: #ffffff; stroke: #ffffff"/>
     <use xlink:href="#me80da504a3" x="221.581071" y="129.891798" style="fill: #ffffff; stroke: #ffffff"/>
     <use xlink:href="#me80da504a3" x="271.695038" y="102.174804" style="fill: #ffffff; stroke: #ffffff"/>
     <use xlink:href="#me80da504a3" x="256.271149" y="171.15984" style="fill: #ffffff; stroke: #ffffff"/>
     <use xlink:href="#me80da504a3" x="205.800295" y="185.054783" style="fill: #ffffff; stroke: #ffffff"/>
     <use xlink:href="#me80da504a3" x="265.791997" y="192.863399" style="fill: #ffffff; stroke: #ffffff"/>
     <use xlink:href="#me80da504a3" x="210.14467" y="164.601558" style="fill: #ffffff; stroke: #ffffff"/>
     <use xlink:href="#me80da504a3" x="199.092658" y="130.283032" style="fill: #ffffff; stroke: #ffffff"/>
     <use xlink:href="#me80da504a3" x="194.693599" y="110.892268" style="fill: #ffffff; stroke: #ffffff"/>
     <use xlink:href="#me80da504a3" x="202.976851" y="170.694509" style="fill: #ffffff; stroke: #ffffff"/>
     <use xlink:href="#me80da504a3" x="203.650333" y="151.455696" style="fill: #ffffff; stroke: #ffffff"/>
     <use xlink:href="#me80da504a3" x="218.72309" y="145.510657" style="fill: #ffffff; stroke: #ffffff"/>
     <use xlink:href="#me80da504a3" x="183.500559" y="85.135433" style="fill: #ffffff; stroke: #ffffff"/>
     <use xlink:href="#me80da504a3" x="241.299127" y="87.322291" style="fill: #ffffff; stroke: #ffffff"/>
    </g>
   </g>
   <g id="matplotlib.axis_3">
    <g id="xtick_4">
     <g id="line2d_14">
      <g>
       <use xlink:href="#m09f9a1e22e" x="187.221978" y="222.824" style="fill: #ffffff; stroke: #ffffff; stroke-width: 2"/>
      </g>
     </g>
     <g id="text_12">
      <!-- −0.010 -->
      <g style="fill: #ffffff" transform="translate(168.718072 237.422437) scale(0.1 -0.1)">
       <use xlink:href="#DejaVuSans-2212"/>
       <use xlink:href="#DejaVuSans-30" transform="translate(83.789062 0)"/>
       <use xlink:href="#DejaVuSans-2e" transform="translate(147.412109 0)"/>
       <use xlink:href="#DejaVuSans-30" transform="translate(179.199219 0)"/>
       <use xlink:href="#DejaVuSans-31" transform="translate(242.822266 0)"/>
       <use xlink:href="#DejaVuSans-30" transform="translate(306.445312 0)"/>
      </g>
     </g>
    </g>
    <g id="xtick_5">
     <g id="line2d_15">
      <g>
       <use xlink:href="#m09f9a1e22e" x="226.076707" y="222.824" style="fill: #ffffff; stroke: #ffffff; stroke-width: 2"/>
      </g>
     </g>
     <g id="text_13">
      <!-- 0.035 -->
      <g style="fill: #ffffff" transform="translate(211.762645 237.422437) scale(0.1 -0.1)">
       <use xlink:href="#DejaVuSans-30"/>
       <use xlink:href="#DejaVuSans-2e" transform="translate(63.623047 0)"/>
       <use xlink:href="#DejaVuSans-30" transform="translate(95.410156 0)"/>
       <use xlink:href="#DejaVuSans-33" transform="translate(159.033203 0)"/>
       <use xlink:href="#DejaVuSans-35" transform="translate(222.65625 0)"/>
      </g>
     </g>
    </g>
    <g id="xtick_6">
     <g id="line2d_16">
      <g>
       <use xlink:href="#m09f9a1e22e" x="264.931437" y="222.824" style="fill: #ffffff; stroke: #ffffff; stroke-width: 2"/>
      </g>
     </g>
     <g id="text_14">
      <!-- 0.080 -->
      <g style="fill: #ffffff" transform="translate(250.617374 237.422437) scale(0.1 -0.1)">
       <use xlink:href="#DejaVuSans-30"/>
       <use xlink:href="#DejaVuSans-2e" transform="translate(63.623047 0)"/>
       <use xlink:href="#DejaVuSans-30" transform="translate(95.410156 0)"/>
       <use xlink:href="#DejaVuSans-38" transform="translate(159.033203 0)"/>
       <use xlink:href="#DejaVuSans-30" transform="translate(222.65625 0)"/>
      </g>
     </g>
    </g>
   </g>
   <g id="matplotlib.axis_4">
    <g id="ytick_8">
     <g id="line2d_17">
      <g>
       <use xlink:href="#mf260bad9e8" x="179.090835" y="215.062909" style="fill: #ffffff; stroke: #ffffff; stroke-width: 2"/>
      </g>
     </g>
    </g>
    <g id="ytick_9">
     <g id="line2d_18">
      <g>
       <use xlink:href="#mf260bad9e8" x="179.090835" y="191.121642" style="fill: #ffffff; stroke: #ffffff; stroke-width: 2"/>
      </g>
     </g>
    </g>
    <g id="ytick_10">
     <g id="line2d_19">
      <g>
       <use xlink:href="#mf260bad9e8" x="179.090835" y="167.180375" style="fill: #ffffff; stroke: #ffffff; stroke-width: 2"/>
      </g>
     </g>
    </g>
    <g id="ytick_11">
     <g id="line2d_20">
      <g>
       <use xlink:href="#mf260bad9e8" x="179.090835" y="143.239109" style="fill: #ffffff; stroke: #ffffff; stroke-width: 2"/>
      </g>
     </g>
    </g>
    <g id="ytick_12">
     <g id="line2d_21">
      <g>
       <use xlink:href="#mf260bad9e8" x="179.090835" y="119.297842" style="fill: #ffffff; stroke: #ffffff; stroke-width: 2"/>
      </g>
     </g>
    </g>
    <g id="ytick_13">
     <g id="line2d_22">
      <g>
       <use xlink:href="#mf260bad9e8" x="179.090835" y="95.356575" style="fill: #ffffff; stroke: #ffffff; stroke-width: 2"/>
      </g>
     </g>
    </g>
    <g id="ytick_14">
     <g id="line2d_23">
      <g>
       <use xlink:href="#mf260bad9e8" x="179.090835" y="71.415308" style="fill: #ffffff; stroke: #ffffff; stroke-width: 2"/>
      </g>
     </g>
    </g>
   </g>
   <g id="line2d_24">
    <path d="M 183.500559 147.432675 
L 184.391412 147.393124 
L 185.282265 147.353573 
L 186.173119 147.314023 
L 187.063972 147.274472 
L 187.954825 147.234921 
L 188.845679 147.195371 
L 189.736532 147.15582 
L 190.627385 147.11627 
L 191.518239 147.076719 
L 192.409092 147.037168 
L 193.299945 146.997618 
L 194.190799 146.958067 
L 195.081652 146.918516 
L 195.972505 146.878966 
L 196.863359 146.839415 
L 197.754212 146.799865 
L 198.645065 146.760314 
L 199.535919 146.720763 
L 200.426772 146.681213 
L 201.317625 146.641662 
L 202.208479 146.602111 
L 203.099332 146.562561 
L 203.990185 146.52301 
L 204.881038 146.483459 
L 205.771892 146.443909 
L 206.662745 146.404358 
L 207.553598 146.364808 
L 208.444452 146.325257 
L 209.335305 146.285706 
L 210.226158 146.246156 
L 211.117012 146.206605 
L 212.007865 146.167054 
L 212.898718 146.127504 
L 213.789572 146.087953 
L 214.680425 146.048403 
L 215.571278 146.008852 
L 216.462132 145.969301 
L 217.352985 145.929751 
L 218.243838 145.8902 
L 219.134692 145.850649 
L 220.025545 145.811099 
L 220.916398 145.771548 
L 221.807252 145.731997 
L 222.698105 145.692447 
L 223.588958 145.652896 
L 224.479812 145.613346 
L 225.370665 145.573795 
L 226.261518 145.534244 
L 227.152372 145.494694 
L 228.043225 145.455143 
L 228.934078 145.415592 
L 229.824931 145.376042 
L 230.715785 145.336491 
L 231.606638 145.296941 
L 232.497491 145.25739 
L 233.388345 145.217839 
L 234.279198 145.178289 
L 235.170051 145.138738 
L 236.060905 145.099187 
L 236.951758 145.059637 
L 237.842611 145.020086 
L 238.733465 144.980535 
L 239.624318 144.940985 
L 240.515171 144.901434 
L 241.406025 144.861884 
L 242.296878 144.822333 
L 243.187731 144.782782 
L 244.078585 144.743232 
L 244.969438 144.703681 
L 245.860291 144.66413 
L 246.751145 144.62458 
L 247.641998 144.585029 
L 248.532851 144.545479 
L 249.423705 144.505928 
L 250.314558 144.466377 
L 251.205411 144.426827 
L 252.096265 144.387276 
L 252.987118 144.347725 
L 253.877971 144.308175 
L 254.768825 144.268624 
L 255.659678 144.229073 
L 256.550531 144.189523 
L 257.441384 144.149972 
L 258.332238 144.110422 
L 259.223091 144.070871 
L 260.113944 144.03132 
L 261.004798 143.99177 
L 261.895651 143.952219 
L 262.786504 143.912668 
L 263.677358 143.873118 
L 264.568211 143.833567 
L 265.459064 143.794017 
L 266.349918 143.754466 
L 267.240771 143.714915 
L 268.131624 143.675365 
L 269.022478 143.635814 
L 269.913331 143.596263 
L 270.804184 143.556713 
L 271.695038 143.517162 
" clip-path="url(#pdbb7e2c31b)" style="fill: none; stroke-dasharray: 5.55,2.4; stroke-dashoffset: 0; stroke: #ffffff; stroke-width: 1.5"/>
   </g>
   <g id="line2d_25">
    <path d="M 195.856363 222.824 
L 195.856363 52.08 
" clip-path="url(#pdbb7e2c31b)" style="fill: none; stroke: #ffffff; stroke-width: 0.8; stroke-linecap: square"/>
   </g>
   <g id="line2d_26">
    <path d="M 179.090835 215.062909 
L 276.104762 215.062909 
" clip-path="url(#pdbb7e2c31b)" style="fill: none; stroke: #ffffff; stroke-width: 0.8; stroke-linecap: square"/>
   </g>
   <g id="patch_6">
    <path d="M 179.090835 215.062909 
L 179.090835 71.415308 
" style="fill: none; stroke: #ffffff; stroke-width: 2; stroke-linejoin: miter; stroke-linecap: square"/>
   </g>
   <g id="patch_7">
    <path d="M 187.221978 222.824 
L 264.931437 222.824 
" style="fill: none; stroke: #ffffff; stroke-width: 2; stroke-linejoin: miter; stroke-linecap: square"/>
   </g>
   <g id="text_15">
    <!-- S1 -->
    <g style="fill: #ffffff" transform="translate(219.971236 46.08) scale(0.12 -0.12)">
     <defs>
      <path id="DejaVuSans-53" d="M 3425 4513 
L 3425 3897 
Q 3066 4069 2747 4153 
Q 2428 4238 2131 4238 
Q 1616 4238 1336 4038 
Q 1056 3838 1056 3469 
Q 1056 3159 1242 3001 
Q 1428 2844 1947 2747 
L 2328 2669 
Q 3034 2534 3370 2195 
Q 3706 1856 3706 1288 
Q 3706 609 3251 259 
Q 2797 -91 1919 -91 
Q 1588 -91 1214 -16 
Q 841 59 441 206 
L 441 856 
Q 825 641 1194 531 
Q 1563 422 1919 422 
Q 2459 422 2753 634 
Q 3047 847 3047 1241 
Q 3047 1584 2836 1778 
Q 2625 1972 2144 2069 
L 1759 2144 
Q 1053 2284 737 2584 
Q 422 2884 422 3419 
Q 422 4038 858 4394 
Q 1294 4750 2059 4750 
Q 2388 4750 2728 4690 
Q 3069 4631 3425 4513 
z
" transform="scale(0.015625)"/>
     </defs>
     <use xlink:href="#DejaVuSans-53"/>
     <use xlink:href="#DejaVuSans-31" transform="translate(63.476562 0)"/>
    </g>
   </g>
  </g>
  <g id="text_16">
   <!-- force difference between -->
   <g style="fill: #ffffff" transform="translate(70.365 270.627) scale(0.12 -0.12)">
    <defs>
     <path id="DejaVuSans-66" d="M 2375 4863 
L 2375 4384 
L 1825 4384 
Q 1516 4384 1395 4259 
Q 1275 4134 1275 3809 
L 1275 3500 
L 2222 3500 
L 2222 3053 
L 1275 3053 
L 1275 0 
L 697 0 
L 697 3053 
L 147 3053 
L 147 3500 
L 697 3500 
L 697 3744 
Q 697 4328 969 4595 
Q 1241 4863 1831 4863 
L 2375 4863 
z
" transform="scale(0.015625)"/>
     <path id="DejaVuSans-6f" d="M 1959 3097 
Q 1497 3097 1228 2736 
Q 959 2375 959 1747 
Q 959 1119 1226 758 
Q 1494 397 1959 397 
Q 2419 397 2687 759 
Q 2956 1122 2956 1747 
Q 2956 2369 2687 2733 
Q 2419 3097 1959 3097 
z
M 1959 3584 
Q 2709 3584 3137 3096 
Q 3566 2609 3566 1747 
Q 3566 888 3137 398 
Q 2709 -91 1959 -91 
Q 1206 -91 779 398 
Q 353 888 353 1747 
Q 353 2609 779 3096 
Q 1206 3584 1959 3584 
z
" transform="scale(0.015625)"/>
     <path id="DejaVuSans-72" d="M 2631 2963 
Q 2534 3019 2420 3045 
Q 2306 3072 2169 3072 
Q 1681 3072 1420 2755 
Q 1159 2438 1159 1844 
L 1159 0 
L 581 0 
L 581 3500 
L 1159 3500 
L 1159 2956 
Q 1341 3275 1631 3429 
Q 1922 3584 2338 3584 
Q 2397 3584 2469 3576 
Q 2541 3569 2628 3553 
L 2631 2963 
z
" transform="scale(0.015625)"/>
     <path id="DejaVuSans-63" d="M 3122 3366 
L 3122 2828 
Q 2878 2963 2633 3030 
Q 2388 3097 2138 3097 
Q 1578 3097 1268 2742 
Q 959 2388 959 1747 
Q 959 1106 1268 751 
Q 1578 397 2138 397 
Q 2388 397 2633 464 
Q 2878 531 3122 666 
L 3122 134 
Q 2881 22 2623 -34 
Q 2366 -91 2075 -91 
Q 1284 -91 818 406 
Q 353 903 353 1747 
Q 353 2603 823 3093 
Q 1294 3584 2113 3584 
Q 2378 3584 2631 3529 
Q 2884 3475 3122 3366 
z
" transform="scale(0.015625)"/>
     <path id="DejaVuSans-65" d="M 3597 1894 
L 3597 1613 
L 953 1613 
Q 991 1019 1311 708 
Q 1631 397 2203 397 
Q 2534 397 2845 478 
Q 3156 559 3463 722 
L 3463 178 
Q 3153 47 2828 -22 
Q 2503 -91 2169 -91 
Q 1331 -91 842 396 
Q 353 884 353 1716 
Q 353 2575 817 3079 
Q 1281 3584 2069 3584 
Q 2775 3584 3186 3129 
Q 3597 2675 3597 1894 
z
M 3022 2063 
Q 3016 2534 2758 2815 
Q 2500 3097 2075 3097 
Q 1594 3097 1305 2825 
Q 1016 2553 972 2059 
L 3022 2063 
z
" transform="scale(0.015625)"/>
     <path id="DejaVuSans-20" transform="scale(0.015625)"/>
     <path id="DejaVuSans-64" d="M 2906 2969 
L 2906 4863 
L 3481 4863 
L 3481 0 
L 2906 0 
L 2906 525 
Q 2725 213 2448 61 
Q 2172 -91 1784 -91 
Q 1150 -91 751 415 
Q 353 922 353 1747 
Q 353 2572 751 3078 
Q 1150 3584 1784 3584 
Q 2172 3584 2448 3432 
Q 2725 3281 2906 2969 
z
M 947 1747 
Q 947 1113 1208 752 
Q 1469 391 1925 391 
Q 2381 391 2643 752 
Q 2906 1113 2906 1747 
Q 2906 2381 2643 2742 
Q 2381 3103 1925 3103 
Q 1469 3103 1208 2742 
Q 947 2381 947 1747 
z
" transform="scale(0.015625)"/>
     <path id="DejaVuSans-69" d="M 603 3500 
L 1178 3500 
L 1178 0 
L 603 0 
L 603 3500 
z
M 603 4863 
L 1178 4863 
L 1178 4134 
L 603 4134 
L 603 4863 
z
" transform="scale(0.015625)"/>
     <path id="DejaVuSans-6e" d="M 3513 2113 
L 3513 0 
L 2938 0 
L 2938 2094 
Q 2938 2591 2744 2837 
Q 2550 3084 2163 3084 
Q 1697 3084 1428 2787 
Q 1159 2491 1159 1978 
L 1159 0 
L 581 0 
L 581 3500 
L 1159 3500 
L 1159 2956 
Q 1366 3272 1645 3428 
Q 1925 3584 2291 3584 
Q 2894 3584 3203 3211 
Q 3513 2838 3513 2113 
z
" transform="scale(0.015625)"/>
     <path id="DejaVuSans-62" d="M 3116 1747 
Q 3116 2381 2855 2742 
Q 2594 3103 2138 3103 
Q 1681 3103 1420 2742 
Q 1159 2381 1159 1747 
Q 1159 1113 1420 752 
Q 1681 391 2138 391 
Q 2594 391 2855 752 
Q 3116 1113 3116 1747 
z
M 1159 2969 
Q 1341 3281 1617 3432 
Q 1894 3584 2278 3584 
Q 2916 3584 3314 3078 
Q 3713 2572 3713 1747 
Q 3713 922 3314 415 
Q 2916 -91 2278 -91 
Q 1894 -91 1617 61 
Q 1341 213 1159 525 
L 1159 0 
L 581 0 
L 581 4863 
L 1159 4863 
L 1159 2969 
z
" transform="scale(0.015625)"/>
     <path id="DejaVuSans-74" d="M 1172 4494 
L 1172 3500 
L 2356 3500 
L 2356 3053 
L 1172 3053 
L 1172 1153 
Q 1172 725 1289 603 
Q 1406 481 1766 481 
L 2356 481 
L 2356 0 
L 1766 0 
Q 1100 0 847 248 
Q 594 497 594 1153 
L 594 3053 
L 172 3053 
L 172 3500 
L 594 3500 
L 594 4494 
L 1172 4494 
z
" transform="scale(0.015625)"/>
     <path id="DejaVuSans-77" d="M 269 3500 
L 844 3500 
L 1563 769 
L 2278 3500 
L 2956 3500 
L 3675 769 
L 4391 3500 
L 4966 3500 
L 4050 0 
L 3372 0 
L 2619 2869 
L 1863 0 
L 1184 0 
L 269 3500 
z
" transform="scale(0.015625)"/>
    </defs>
    <use xlink:href="#DejaVuSans-66"/>
    <use xlink:href="#DejaVuSans-6f" transform="translate(35.205078 0)"/>
    <use xlink:href="#DejaVuSans-72" transform="translate(96.386719 0)"/>
    <use xlink:href="#DejaVuSans-63" transform="translate(135.25 0)"/>
    <use xlink:href="#DejaVuSans-65" transform="translate(190.230469 0)"/>
    <use xlink:href="#DejaVuSans-20" transform="translate(251.753906 0)"/>
    <use xlink:href="#DejaVuSans-64" transform="translate(283.541016 0)"/>
    <use xlink:href="#DejaVuSans-69" transform="translate(347.017578 0)"/>
    <use xlink:href="#DejaVuSans-66" transform="translate(374.800781 0)"/>
    <use xlink:href="#DejaVuSans-66" transform="translate(410.005859 0)"/>
    <use xlink:href="#DejaVuSans-65" transform="translate(445.210938 0)"/>
    <use xlink:href="#DejaVuSans-72" transform="translate(506.734375 0)"/>
    <use xlink:href="#DejaVuSans-65" transform="translate(545.597656 0)"/>
    <use xlink:href="#DejaVuSans-6e" transform="translate(607.121094 0)"/>
    <use xlink:href="#DejaVuSans-63" transform="translate(670.5 0)"/>
    <use xlink:href="#DejaVuSans-65" transform="translate(725.480469 0)"/>
    <use xlink:href="#DejaVuSans-20" transform="translate(787.003906 0)"/>
    <use xlink:href="#DejaVuSans-62" transform="translate(818.791016 0)"/>
    <use xlink:href="#DejaVuSans-65" transform="translate(882.267578 0)"/>
    <use xlink:href="#DejaVuSans-74" transform="translate(943.791016 0)"/>
    <use xlink:href="#DejaVuSans-77" transform="translate(983 0)"/>
    <use xlink:href="#DejaVuSans-65" transform="translate(1064.787109 0)"/>
    <use xlink:href="#DejaVuSans-65" transform="translate(1126.310547 0)"/>
    <use xlink:href="#DejaVuSans-6e" transform="translate(1187.833984 0)"/>
   </g>
   <!-- cued and uncued finger (N) -->
   <g style="fill: #ffffff" transform="translate(62.994375 284.064375) scale(0.12 -0.12)">
    <defs>
     <path id="DejaVuSans-75" d="M 544 1381 
L 544 3500 
L 1119 3500 
L 1119 1403 
Q 1119 906 1312 657 
Q 1506 409 1894 409 
Q 2359 409 2629 706 
Q 2900 1003 2900 1516 
L 2900 3500 
L 3475 3500 
L 3475 0 
L 2900 0 
L 2900 538 
Q 2691 219 2414 64 
Q 2138 -91 1772 -91 
Q 1169 -91 856 284 
Q 544 659 544 1381 
z
M 1991 3584 
L 1991 3584 
z
" transform="scale(0.015625)"/>
     <path id="DejaVuSans-61" d="M 2194 1759 
Q 1497 1759 1228 1600 
Q 959 1441 959 1056 
Q 959 750 1161 570 
Q 1363 391 1709 391 
Q 2188 391 2477 730 
Q 2766 1069 2766 1631 
L 2766 1759 
L 2194 1759 
z
M 3341 1997 
L 3341 0 
L 2766 0 
L 2766 531 
Q 2569 213 2275 61 
Q 1981 -91 1556 -91 
Q 1019 -91 701 211 
Q 384 513 384 1019 
Q 384 1609 779 1909 
Q 1175 2209 1959 2209 
L 2766 2209 
L 2766 2266 
Q 2766 2663 2505 2880 
Q 2244 3097 1772 3097 
Q 1472 3097 1187 3025 
Q 903 2953 641 2809 
L 641 3341 
Q 956 3463 1253 3523 
Q 1550 3584 1831 3584 
Q 2591 3584 2966 3190 
Q 3341 2797 3341 1997 
z
" transform="scale(0.015625)"/>
     <path id="DejaVuSans-67" d="M 2906 1791 
Q 2906 2416 2648 2759 
Q 2391 3103 1925 3103 
Q 1463 3103 1205 2759 
Q 947 2416 947 1791 
Q 947 1169 1205 825 
Q 1463 481 1925 481 
Q 2391 481 2648 825 
Q 2906 1169 2906 1791 
z
M 3481 434 
Q 3481 -459 3084 -895 
Q 2688 -1331 1869 -1331 
Q 1566 -1331 1297 -1286 
Q 1028 -1241 775 -1147 
L 775 -588 
Q 1028 -725 1275 -790 
Q 1522 -856 1778 -856 
Q 2344 -856 2625 -561 
Q 2906 -266 2906 331 
L 2906 616 
Q 2728 306 2450 153 
Q 2172 0 1784 0 
Q 1141 0 747 490 
Q 353 981 353 1791 
Q 353 2603 747 3093 
Q 1141 3584 1784 3584 
Q 2172 3584 2450 3431 
Q 2728 3278 2906 2969 
L 2906 3500 
L 3481 3500 
L 3481 434 
z
" transform="scale(0.015625)"/>
     <path id="DejaVuSans-28" d="M 1984 4856 
Q 1566 4138 1362 3434 
Q 1159 2731 1159 2009 
Q 1159 1288 1364 580 
Q 1569 -128 1984 -844 
L 1484 -844 
Q 1016 -109 783 600 
Q 550 1309 550 2009 
Q 550 2706 781 3412 
Q 1013 4119 1484 4856 
L 1984 4856 
z
" transform="scale(0.015625)"/>
     <path id="DejaVuSans-4e" d="M 628 4666 
L 1478 4666 
L 3547 763 
L 3547 4666 
L 4159 4666 
L 4159 0 
L 3309 0 
L 1241 3903 
L 1241 0 
L 628 0 
L 628 4666 
z
" transform="scale(0.015625)"/>
     <path id="DejaVuSans-29" d="M 513 4856 
L 1013 4856 
Q 1481 4119 1714 3412 
Q 1947 2706 1947 2009 
Q 1947 1309 1714 600 
Q 1481 -109 1013 -844 
L 513 -844 
Q 928 -128 1133 580 
Q 1338 1288 1338 2009 
Q 1338 2731 1133 3434 
Q 928 4138 513 4856 
z
" transform="scale(0.015625)"/>
    </defs>
    <use xlink:href="#DejaVuSans-63"/>
    <use xlink:href="#DejaVuSans-75" transform="translate(54.980469 0)"/>
    <use xlink:href="#DejaVuSans-65" transform="translate(118.359375 0)"/>
    <use xlink:href="#DejaVuSans-64" transform="translate(179.882812 0)"/>
    <use xlink:href="#DejaVuSans-20" transform="translate(243.359375 0)"/>
    <use xlink:href="#DejaVuSans-61" transform="translate(275.146484 0)"/>
    <use xlink:href="#DejaVuSans-6e" transform="translate(336.425781 0)"/>
    <use xlink:href="#DejaVuSans-64" transform="translate(399.804688 0)"/>
    <use xlink:href="#DejaVuSans-20" transform="translate(463.28125 0)"/>
    <use xlink:href="#DejaVuSans-75" transform="translate(495.068359 0)"/>
    <use xlink:href="#DejaVuSans-6e" transform="translate(558.447266 0)"/>
    <use xlink:href="#DejaVuSans-63" transform="translate(621.826172 0)"/>
    <use xlink:href="#DejaVuSans-75" transform="translate(676.806641 0)"/>
    <use xlink:href="#DejaVuSans-65" transform="translate(740.185547 0)"/>
    <use xlink:href="#DejaVuSans-64" transform="translate(801.708984 0)"/>
    <use xlink:href="#DejaVuSans-20" transform="translate(865.185547 0)"/>
    <use xlink:href="#DejaVuSans-66" transform="translate(896.972656 0)"/>
    <use xlink:href="#DejaVuSans-69" transform="translate(932.177734 0)"/>
    <use xlink:href="#DejaVuSans-6e" transform="translate(959.960938 0)"/>
    <use xlink:href="#DejaVuSans-67" transform="translate(1023.339844 0)"/>
    <use xlink:href="#DejaVuSans-65" transform="translate(1086.816406 0)"/>
    <use xlink:href="#DejaVuSans-72" transform="translate(1148.339844 0)"/>
    <use xlink:href="#DejaVuSans-20" transform="translate(1189.453125 0)"/>
    <use xlink:href="#DejaVuSans-28" transform="translate(1221.240234 0)"/>
    <use xlink:href="#DejaVuSans-4e" transform="translate(1260.253906 0)"/>
    <use xlink:href="#DejaVuSans-29" transform="translate(1335.058594 0)"/>
   </g>
  </g>
  <g id="text_17">
   <!-- Weight -->
   <g style="fill: #ffffff" transform="translate(16.318125 166.3425) rotate(-90) scale(0.12 -0.12)">
    <defs>
     <path id="DejaVuSans-57" d="M 213 4666 
L 850 4666 
L 1831 722 
L 2809 4666 
L 3519 4666 
L 4500 722 
L 5478 4666 
L 6119 4666 
L 4947 0 
L 4153 0 
L 3169 4050 
L 2175 0 
L 1381 0 
L 213 4666 
z
" transform="scale(0.015625)"/>
     <path id="DejaVuSans-68" d="M 3513 2113 
L 3513 0 
L 2938 0 
L 2938 2094 
Q 2938 2591 2744 2837 
Q 2550 3084 2163 3084 
Q 1697 3084 1428 2787 
Q 1159 2491 1159 1978 
L 1159 0 
L 581 0 
L 581 4863 
L 1159 4863 
L 1159 2956 
Q 1366 3272 1645 3428 
Q 1925 3584 2291 3584 
Q 2894 3584 3203 3211 
Q 3513 2838 3513 2113 
z
" transform="scale(0.015625)"/>
    </defs>
    <use xlink:href="#DejaVuSans-57"/>
    <use xlink:href="#DejaVuSans-65" transform="translate(93.001953 0)"/>
    <use xlink:href="#DejaVuSans-69" transform="translate(154.525391 0)"/>
    <use xlink:href="#DejaVuSans-67" transform="translate(182.308594 0)"/>
    <use xlink:href="#DejaVuSans-68" transform="translate(245.785156 0)"/>
    <use xlink:href="#DejaVuSans-74" transform="translate(309.164062 0)"/>
   </g>
  </g>
  <g id="text_18">
   <!-- Cue weight vs. finger preactivation -->
   <g style="fill: #ffffff" transform="translate(40.217813 16.318125) scale(0.12 -0.12)">
    <defs>
     <path id="DejaVuSans-43" d="M 4122 4306 
L 4122 3641 
Q 3803 3938 3442 4084 
Q 3081 4231 2675 4231 
Q 1875 4231 1450 3742 
Q 1025 3253 1025 2328 
Q 1025 1406 1450 917 
Q 1875 428 2675 428 
Q 3081 428 3442 575 
Q 3803 722 4122 1019 
L 4122 359 
Q 3791 134 3420 21 
Q 3050 -91 2638 -91 
Q 1578 -91 968 557 
Q 359 1206 359 2328 
Q 359 3453 968 4101 
Q 1578 4750 2638 4750 
Q 3056 4750 3426 4639 
Q 3797 4528 4122 4306 
z
" transform="scale(0.015625)"/>
     <path id="DejaVuSans-76" d="M 191 3500 
L 800 3500 
L 1894 563 
L 2988 3500 
L 3597 3500 
L 2284 0 
L 1503 0 
L 191 3500 
z
" transform="scale(0.015625)"/>
     <path id="DejaVuSans-73" d="M 2834 3397 
L 2834 2853 
Q 2591 2978 2328 3040 
Q 2066 3103 1784 3103 
Q 1356 3103 1142 2972 
Q 928 2841 928 2578 
Q 928 2378 1081 2264 
Q 1234 2150 1697 2047 
L 1894 2003 
Q 2506 1872 2764 1633 
Q 3022 1394 3022 966 
Q 3022 478 2636 193 
Q 2250 -91 1575 -91 
Q 1294 -91 989 -36 
Q 684 19 347 128 
L 347 722 
Q 666 556 975 473 
Q 1284 391 1588 391 
Q 1994 391 2212 530 
Q 2431 669 2431 922 
Q 2431 1156 2273 1281 
Q 2116 1406 1581 1522 
L 1381 1569 
Q 847 1681 609 1914 
Q 372 2147 372 2553 
Q 372 3047 722 3315 
Q 1072 3584 1716 3584 
Q 2034 3584 2315 3537 
Q 2597 3491 2834 3397 
z
" transform="scale(0.015625)"/>
     <path id="DejaVuSans-70" d="M 1159 525 
L 1159 -1331 
L 581 -1331 
L 581 3500 
L 1159 3500 
L 1159 2969 
Q 1341 3281 1617 3432 
Q 1894 3584 2278 3584 
Q 2916 3584 3314 3078 
Q 3713 2572 3713 1747 
Q 3713 922 3314 415 
Q 2916 -91 2278 -91 
Q 1894 -91 1617 61 
Q 1341 213 1159 525 
z
M 3116 1747 
Q 3116 2381 2855 2742 
Q 2594 3103 2138 3103 
Q 1681 3103 1420 2742 
Q 1159 2381 1159 1747 
Q 1159 1113 1420 752 
Q 1681 391 2138 391 
Q 2594 391 2855 752 
Q 3116 1113 3116 1747 
z
" transform="scale(0.015625)"/>
    </defs>
    <use xlink:href="#DejaVuSans-43"/>
    <use xlink:href="#DejaVuSans-75" transform="translate(69.824219 0)"/>
    <use xlink:href="#DejaVuSans-65" transform="translate(133.203125 0)"/>
    <use xlink:href="#DejaVuSans-20" transform="translate(194.726562 0)"/>
    <use xlink:href="#DejaVuSans-77" transform="translate(226.513672 0)"/>
    <use xlink:href="#DejaVuSans-65" transform="translate(308.300781 0)"/>
    <use xlink:href="#DejaVuSans-69" transform="translate(369.824219 0)"/>
    <use xlink:href="#DejaVuSans-67" transform="translate(397.607422 0)"/>
    <use xlink:href="#DejaVuSans-68" transform="translate(461.083984 0)"/>
    <use xlink:href="#DejaVuSans-74" transform="translate(524.462891 0)"/>
    <use xlink:href="#DejaVuSans-20" transform="translate(563.671875 0)"/>
    <use xlink:href="#DejaVuSans-76" transform="translate(595.458984 0)"/>
    <use xlink:href="#DejaVuSans-73" transform="translate(654.638672 0)"/>
    <use xlink:href="#DejaVuSans-2e" transform="translate(706.738281 0)"/>
    <use xlink:href="#DejaVuSans-20" transform="translate(738.525391 0)"/>
    <use xlink:href="#DejaVuSans-66" transform="translate(770.3125 0)"/>
    <use xlink:href="#DejaVuSans-69" transform="translate(805.517578 0)"/>
    <use xlink:href="#DejaVuSans-6e" transform="translate(833.300781 0)"/>
    <use xlink:href="#DejaVuSans-67" transform="translate(896.679688 0)"/>
    <use xlink:href="#DejaVuSans-65" transform="translate(960.15625 0)"/>
    <use xlink:href="#DejaVuSans-72" transform="translate(1021.679688 0)"/>
    <use xlink:href="#DejaVuSans-20" transform="translate(1062.792969 0)"/>
    <use xlink:href="#DejaVuSans-70" transform="translate(1094.580078 0)"/>
    <use xlink:href="#DejaVuSans-72" transform="translate(1158.056641 0)"/>
    <use xlink:href="#DejaVuSans-65" transform="translate(1196.919922 0)"/>
    <use xlink:href="#DejaVuSans-61" transform="translate(1258.443359 0)"/>
    <use xlink:href="#DejaVuSans-63" transform="translate(1319.722656 0)"/>
    <use xlink:href="#DejaVuSans-74" transform="translate(1374.703125 0)"/>
    <use xlink:href="#DejaVuSans-69" transform="translate(1413.912109 0)"/>
    <use xlink:href="#DejaVuSans-76" transform="translate(1441.695312 0)"/>
    <use xlink:href="#DejaVuSans-61" transform="translate(1500.875 0)"/>
    <use xlink:href="#DejaVuSans-74" transform="translate(1562.154297 0)"/>
    <use xlink:href="#DejaVuSans-69" transform="translate(1601.363281 0)"/>
    <use xlink:href="#DejaVuSans-6f" transform="translate(1629.146484 0)"/>
    <use xlink:href="#DejaVuSans-6e" transform="translate(1690.328125 0)"/>
   </g>
  </g>
 </g>
 <defs>
  <clipPath id="p887356e0cc">
   <rect x="58.84" y="52.08" width="97.013927" height="170.744"/>
  </clipPath>
  <clipPath id="pdbb7e2c31b">
   <rect x="179.090835" y="52.08" width="97.013927" height="170.744"/>
  </clipPath>
 </defs>
</svg>
