<?xml version="1.0" encoding="utf-8" standalone="no"?>
<!DOCTYPE svg PUBLIC "-//W3C//DTD SVG 1.1//EN"
  "http://www.w3.org/Graphics/SVG/1.1/DTD/svg11.dtd">
<svg xmlns:xlink="http://www.w3.org/1999/xlink" width="224.844375pt" height="258.84pt" viewBox="0 0 224.844375 258.84" xmlns="http://www.w3.org/2000/svg" version="1.1">
 <metadata>
  <rdf:RDF xmlns:dc="http://purl.org/dc/elements/1.1/" xmlns:cc="http://creativecommons.org/ns#" xmlns:rdf="http://www.w3.org/1999/02/22-rdf-syntax-ns#">
   <cc:Work>
    <dc:type rdf:resource="http://purl.org/dc/dcmitype/StillImage"/>
    <dc:date>2025-05-29T07:56:07.298291</dc:date>
    <dc:format>image/svg+xml</dc:format>
    <dc:creator>
     <cc:Agent>
      <dc:title>Matplotlib v3.10.1, https://matplotlib.org/</dc:title>
     </cc:Agent>
    </dc:creator>
   </cc:Work>
  </rdf:RDF>
 </metadata>
 <defs>
  <style type="text/css">*{stroke-linejoin: round; stroke-linecap: butt}</style>
 </defs>
 <g id="figure_1">
  <g id="patch_1">
   <path d="M 0 258.84 
L 224.844375 258.84 
L 224.844375 0 
L 0 0 
z
"/>
  </g>
  <g id="axes_1">
   <g id="patch_2">
    <path d="M 61.822187 187.544 
L 126.265759 187.544 
L 126.265759 52.8 
L 61.822187 52.8 
z
"/>
   </g>
   <g id="FillBetweenPolyCollection_1">
    <defs>
     <path id="m992345e2dc" d="M 64.751441 -147.223009 
L 64.751441 -79.49962 
L 65.343209 -80.137611 
L 65.934977 -80.770273 
L 66.526746 -81.39735 
L 67.118514 -82.01857 
L 67.710282 -82.633648 
L 68.302051 -83.242283 
L 68.893819 -83.844158 
L 69.485587 -84.438943 
L 70.077356 -85.026285 
L 70.669124 -85.60582 
L 71.260892 -86.177162 
L 71.852661 -86.739908 
L 72.444429 -87.293637 
L 73.036197 -87.837908 
L 73.627966 -88.372262 
L 74.219734 -88.896223 
L 74.811502 -89.409293 
L 75.403271 -89.910961 
L 75.995039 -90.400695 
L 76.586807 -90.87795 
L 77.178576 -91.342166 
L 77.770344 -91.792772 
L 78.362112 -92.229186 
L 78.953881 -92.650819 
L 79.545649 -93.057078 
L 80.137417 -93.447372 
L 80.729186 -93.821112 
L 81.320954 -94.177716 
L 81.912722 -94.516618 
L 82.504491 -94.83727 
L 83.096259 -95.139146 
L 83.688027 -95.421754 
L 84.279796 -95.684633 
L 84.871564 -95.927365 
L 85.463332 -96.14958 
L 86.055101 -96.350957 
L 86.646869 -96.531231 
L 87.238637 -96.6902 
L 87.830406 -96.827721 
L 88.422174 -96.943718 
L 89.013942 -97.038181 
L 89.605711 -97.111167 
L 90.197479 -97.162796 
L 90.789247 -97.193254 
L 91.381016 -97.202787 
L 91.972784 -97.191698 
L 92.564552 -97.160344 
L 93.156321 -97.109128 
L 93.748089 -97.038498 
L 94.339857 -96.948938 
L 94.931626 -96.840964 
L 95.523394 -96.715118 
L 96.115162 -96.57196 
L 96.706931 -96.41207 
L 97.298699 -96.236032 
L 97.890467 -96.044438 
L 98.482236 -95.837883 
L 99.074004 -95.616956 
L 99.665772 -95.38224 
L 100.257541 -95.134312 
L 100.849309 -94.873735 
L 101.441077 -94.601058 
L 102.032846 -94.316817 
L 102.624614 -94.021531 
L 103.216382 -93.715701 
L 103.808151 -93.399809 
L 104.399919 -93.074321 
L 104.991687 -92.739683 
L 105.583456 -92.396322 
L 106.175224 -92.044646 
L 106.766992 -91.685046 
L 107.358761 -91.317894 
L 107.950529 -90.943545 
L 108.542297 -90.562337 
L 109.134066 -90.17459 
L 109.725834 -89.780611 
L 110.317602 -89.380689 
L 110.909371 -88.975099 
L 111.501139 -88.564104 
L 112.092907 -88.147951 
L 112.684675 -87.726876 
L 113.276444 -87.301102 
L 113.868212 -86.870841 
L 114.45998 -86.436293 
L 115.051749 -85.997649 
L 115.643517 -85.55509 
L 116.235285 -85.108788 
L 116.827054 -84.658904 
L 117.418822 -84.205593 
L 118.01059 -83.749001 
L 118.602359 -83.289268 
L 119.194127 -82.826525 
L 119.785895 -82.360897 
L 120.377664 -81.892504 
L 120.969432 -81.421458 
L 121.5612 -80.947867 
L 122.152969 -80.471833 
L 122.744737 -79.993453 
L 123.336505 -79.51282 
L 123.336505 -169.5232 
L 123.336505 -169.5232 
L 122.744737 -168.817179 
L 122.152969 -168.113412 
L 121.5612 -167.41199 
L 120.969432 -166.713011 
L 120.377664 -166.016578 
L 119.785895 -165.322797 
L 119.194127 -164.631781 
L 118.602359 -163.94365 
L 118.01059 -163.258529 
L 117.418822 -162.576549 
L 116.827054 -161.897851 
L 116.235285 -161.222579 
L 115.643517 -160.550888 
L 115.051749 -159.882942 
L 114.45998 -159.21891 
L 113.868212 -158.558975 
L 113.276444 -157.903326 
L 112.684675 -157.252164 
L 112.092907 -156.605701 
L 111.501139 -155.96416 
L 110.909371 -155.327777 
L 110.317602 -154.6968 
L 109.725834 -154.07149 
L 109.134066 -153.452123 
L 108.542297 -152.838989 
L 107.950529 -152.232393 
L 107.358761 -151.632656 
L 106.766992 -151.040116 
L 106.175224 -150.455128 
L 105.583456 -149.878065 
L 104.991687 -149.309316 
L 104.399919 -148.74929 
L 103.808151 -148.198414 
L 103.216382 -147.657135 
L 102.624614 -147.125916 
L 102.032846 -146.605242 
L 101.441077 -146.095614 
L 100.849309 -145.59755 
L 100.257541 -145.111584 
L 99.665772 -144.638268 
L 99.074004 -144.178165 
L 98.482236 -143.73185 
L 97.890467 -143.299907 
L 97.298699 -142.882926 
L 96.706931 -142.4815 
L 96.115162 -142.096222 
L 95.523394 -141.727677 
L 94.931626 -141.376442 
L 94.339857 -141.043081 
L 93.748089 -140.728133 
L 93.156321 -140.432115 
L 92.564552 -140.155512 
L 91.972784 -139.898769 
L 91.381016 -139.662293 
L 90.789247 -139.446438 
L 90.197479 -139.251508 
L 89.605711 -139.077749 
L 89.013942 -138.925347 
L 88.422174 -138.794423 
L 87.830406 -138.685032 
L 87.238637 -138.597165 
L 86.646869 -138.530746 
L 86.055101 -138.485633 
L 85.463332 -138.461622 
L 84.871564 -138.458449 
L 84.279796 -138.475793 
L 83.688027 -138.513285 
L 83.096259 -138.570504 
L 82.504491 -138.646993 
L 81.912722 -138.742257 
L 81.320954 -138.855772 
L 80.729186 -138.986988 
L 80.137417 -139.135339 
L 79.545649 -139.300245 
L 78.953881 -139.481117 
L 78.362112 -139.677363 
L 77.770344 -139.888389 
L 77.178576 -140.113607 
L 76.586807 -140.352435 
L 75.995039 -140.604302 
L 75.403271 -140.868649 
L 74.811502 -141.144928 
L 74.219734 -141.432611 
L 73.627966 -141.731184 
L 73.036197 -142.040151 
L 72.444429 -142.359034 
L 71.852661 -142.687375 
L 71.260892 -143.024733 
L 70.669124 -143.370687 
L 70.077356 -143.724834 
L 69.485587 -144.086789 
L 68.893819 -144.456185 
L 68.302051 -144.832673 
L 67.710282 -145.215921 
L 67.118514 -145.605611 
L 66.526746 -146.001443 
L 65.934977 -146.403132 
L 65.343209 -146.810406 
L 64.751441 -147.223009 
z
"/>
    </defs>
    <g clip-path="url(#p893a1c570c)">
     <use xlink:href="#m992345e2dc" x="0" y="258.84" style="fill: #ffffff; fill-opacity: 0.2"/>
    </g>
   </g>
   <g id="PathCollection_1">
    <defs>
     <path id="m1fbe776bf0" d="M 0 3 
C 0.795609 3 1.55874 2.683901 2.12132 2.12132 
C 2.683901 1.55874 3 0.795609 3 0 
C 3 -0.795609 2.683901 -1.55874 2.12132 -2.12132 
C 1.55874 -2.683901 0.795609 -3 0 -3 
C -0.795609 -3 -1.55874 -2.683901 -2.12132 -2.12132 
C -2.683901 -1.55874 -3 -0.795609 -3 0 
C -3 0.795609 -2.683901 1.55874 -2.12132 2.12132 
C -1.55874 2.683901 -0.795609 3 0 3 
z
" style="stroke: #ffffff"/>
    </defs>
    <g clip-path="url(#p893a1c570c)">
     <use xlink:href="#m1fbe776bf0" x="67.967418" y="181.419273" style="fill: #ffffff; stroke: #ffffff"/>
     <use xlink:href="#m1fbe776bf0" x="90.047234" y="114.223575" style="fill: #ffffff; stroke: #ffffff"/>
     <use xlink:href="#m1fbe776bf0" x="123.336505" y="148.229524" style="fill: #ffffff; stroke: #ffffff"/>
     <use xlink:href="#m1fbe776bf0" x="113.090858" y="145.688943" style="fill: #ffffff; stroke: #ffffff"/>
     <use xlink:href="#m1fbe776bf0" x="79.564517" y="172.298202" style="fill: #ffffff; stroke: #ffffff"/>
     <use xlink:href="#m1fbe776bf0" x="119.415285" y="153.692784" style="fill: #ffffff; stroke: #ffffff"/>
     <use xlink:href="#m1fbe776bf0" x="82.45036" y="177.214587" style="fill: #ffffff; stroke: #ffffff"/>
     <use xlink:href="#m1fbe776bf0" x="75.108825" y="128.240655" style="fill: #ffffff; stroke: #ffffff"/>
     <use xlink:href="#m1fbe776bf0" x="72.186656" y="108.995519" style="fill: #ffffff; stroke: #ffffff"/>
     <use xlink:href="#m1fbe776bf0" x="77.688984" y="165.622206" style="fill: #ffffff; stroke: #ffffff"/>
     <use xlink:href="#m1fbe776bf0" x="78.136359" y="173.73513" style="fill: #ffffff; stroke: #ffffff"/>
     <use xlink:href="#m1fbe776bf0" x="88.148759" y="139.282227" style="fill: #ffffff; stroke: #ffffff"/>
     <use xlink:href="#m1fbe776bf0" x="64.751441" y="106.572568" style="fill: #ffffff; stroke: #ffffff"/>
     <use xlink:href="#m1fbe776bf0" x="103.145373" y="58.924727" style="fill: #ffffff; stroke: #ffffff"/>
    </g>
   </g>
   <g id="matplotlib.axis_1">
    <g id="xtick_1">
     <g id="line2d_1">
      <defs>
       <path id="mc68072251a" d="M 0 0 
L 0 3.5 
" style="stroke: #ffffff; stroke-width: 2"/>
      </defs>
      <g>
       <use xlink:href="#mc68072251a" x="72.959047" y="187.544" style="fill: #ffffff; stroke: #ffffff; stroke-width: 2"/>
      </g>
     </g>
     <g id="text_1">
      <!-- 0.00 -->
      <g style="fill: #ffffff" transform="translate(61.826235 202.142437) scale(0.1 -0.1)">
       <defs>
        <path id="DejaVuSans-30" d="M 2034 4250 
Q 1547 4250 1301 3770 
Q 1056 3291 1056 2328 
Q 1056 1369 1301 889 
Q 1547 409 2034 409 
Q 2525 409 2770 889 
Q 3016 1369 3016 2328 
Q 3016 3291 2770 3770 
Q 2525 4250 2034 4250 
z
M 2034 4750 
Q 2819 4750 3233 4129 
Q 3647 3509 3647 2328 
Q 3647 1150 3233 529 
Q 2819 -91 2034 -91 
Q 1250 -91 836 529 
Q 422 1150 422 2328 
Q 422 3509 836 4129 
Q 1250 4750 2034 4750 
z
" transform="scale(0.015625)"/>
        <path id="DejaVuSans-2e" d="M 684 794 
L 1344 794 
L 1344 0 
L 684 0 
L 684 794 
z
" transform="scale(0.015625)"/>
       </defs>
       <use xlink:href="#DejaVuSans-30"/>
       <use xlink:href="#DejaVuSans-2e" transform="translate(63.623047 0)"/>
       <use xlink:href="#DejaVuSans-30" transform="translate(95.410156 0)"/>
       <use xlink:href="#DejaVuSans-30" transform="translate(159.033203 0)"/>
      </g>
     </g>
    </g>
    <g id="xtick_2">
     <g id="line2d_2">
      <g>
       <use xlink:href="#mc68072251a" x="118.843639" y="187.544" style="fill: #ffffff; stroke: #ffffff; stroke-width: 2"/>
      </g>
     </g>
     <g id="text_2">
      <!-- 0.08 -->
      <g style="fill: #ffffff" transform="translate(107.710827 202.142437) scale(0.1 -0.1)">
       <defs>
        <path id="DejaVuSans-38" d="M 2034 2216 
Q 1584 2216 1326 1975 
Q 1069 1734 1069 1313 
Q 1069 891 1326 650 
Q 1584 409 2034 409 
Q 2484 409 2743 651 
Q 3003 894 3003 1313 
Q 3003 1734 2745 1975 
Q 2488 2216 2034 2216 
z
M 1403 2484 
Q 997 2584 770 2862 
Q 544 3141 544 3541 
Q 544 4100 942 4425 
Q 1341 4750 2034 4750 
Q 2731 4750 3128 4425 
Q 3525 4100 3525 3541 
Q 3525 3141 3298 2862 
Q 3072 2584 2669 2484 
Q 3125 2378 3379 2068 
Q 3634 1759 3634 1313 
Q 3634 634 3220 271 
Q 2806 -91 2034 -91 
Q 1263 -91 848 271 
Q 434 634 434 1313 
Q 434 1759 690 2068 
Q 947 2378 1403 2484 
z
M 1172 3481 
Q 1172 3119 1398 2916 
Q 1625 2713 2034 2713 
Q 2441 2713 2670 2916 
Q 2900 3119 2900 3481 
Q 2900 3844 2670 4047 
Q 2441 4250 2034 4250 
Q 1625 4250 1398 4047 
Q 1172 3844 1172 3481 
z
" transform="scale(0.015625)"/>
       </defs>
       <use xlink:href="#DejaVuSans-30"/>
       <use xlink:href="#DejaVuSans-2e" transform="translate(63.623047 0)"/>
       <use xlink:href="#DejaVuSans-30" transform="translate(95.410156 0)"/>
       <use xlink:href="#DejaVuSans-38" transform="translate(159.033203 0)"/>
      </g>
     </g>
    </g>
   </g>
   <g id="matplotlib.axis_2">
    <g id="ytick_1">
     <g id="line2d_3">
      <defs>
       <path id="ma01e48c2d7" d="M 0 0 
L -3.5 0 
" style="stroke: #ffffff; stroke-width: 2"/>
      </defs>
      <g>
       <use xlink:href="#ma01e48c2d7" x="61.822187" y="181.419273" style="fill: #ffffff; stroke: #ffffff; stroke-width: 2"/>
      </g>
     </g>
     <g id="text_3">
      <!-- 0.0 -->
      <g style="fill: #ffffff" transform="translate(38.919062 185.218491) scale(0.1 -0.1)">
       <use xlink:href="#DejaVuSans-30"/>
       <use xlink:href="#DejaVuSans-2e" transform="translate(63.623047 0)"/>
       <use xlink:href="#DejaVuSans-30" transform="translate(95.410156 0)"/>
      </g>
     </g>
    </g>
    <g id="ytick_2">
     <g id="line2d_4">
      <g>
       <use xlink:href="#ma01e48c2d7" x="61.822187" y="143.632386" style="fill: #ffffff; stroke: #ffffff; stroke-width: 2"/>
      </g>
     </g>
     <g id="text_4">
      <!-- 0.2 -->
      <g style="fill: #ffffff" transform="translate(38.919062 147.431605) scale(0.1 -0.1)">
       <defs>
        <path id="DejaVuSans-32" d="M 1228 531 
L 3431 531 
L 3431 0 
L 469 0 
L 469 531 
Q 828 903 1448 1529 
Q 2069 2156 2228 2338 
Q 2531 2678 2651 2914 
Q 2772 3150 2772 3378 
Q 2772 3750 2511 3984 
Q 2250 4219 1831 4219 
Q 1534 4219 1204 4116 
Q 875 4013 500 3803 
L 500 4441 
Q 881 4594 1212 4672 
Q 1544 4750 1819 4750 
Q 2544 4750 2975 4387 
Q 3406 4025 3406 3419 
Q 3406 3131 3298 2873 
Q 3191 2616 2906 2266 
Q 2828 2175 2409 1742 
Q 1991 1309 1228 531 
z
" transform="scale(0.015625)"/>
       </defs>
       <use xlink:href="#DejaVuSans-30"/>
       <use xlink:href="#DejaVuSans-2e" transform="translate(63.623047 0)"/>
       <use xlink:href="#DejaVuSans-32" transform="translate(95.410156 0)"/>
      </g>
     </g>
    </g>
    <g id="ytick_3">
     <g id="line2d_5">
      <g>
       <use xlink:href="#ma01e48c2d7" x="61.822187" y="105.8455" style="fill: #ffffff; stroke: #ffffff; stroke-width: 2"/>
      </g>
     </g>
     <g id="text_5">
      <!-- 0.4 -->
      <g style="fill: #ffffff" transform="translate(38.919062 109.644719) scale(0.1 -0.1)">
       <defs>
        <path id="DejaVuSans-34" d="M 2419 4116 
L 825 1625 
L 2419 1625 
L 2419 4116 
z
M 2253 4666 
L 3047 4666 
L 3047 1625 
L 3713 1625 
L 3713 1100 
L 3047 1100 
L 3047 0 
L 2419 0 
L 2419 1100 
L 313 1100 
L 313 1709 
L 2253 4666 
z
" transform="scale(0.015625)"/>
       </defs>
       <use xlink:href="#DejaVuSans-30"/>
       <use xlink:href="#DejaVuSans-2e" transform="translate(63.623047 0)"/>
       <use xlink:href="#DejaVuSans-34" transform="translate(95.410156 0)"/>
      </g>
     </g>
    </g>
    <g id="ytick_4">
     <g id="line2d_6">
      <g>
       <use xlink:href="#ma01e48c2d7" x="61.822187" y="68.058614" style="fill: #ffffff; stroke: #ffffff; stroke-width: 2"/>
      </g>
     </g>
     <g id="text_6">
      <!-- 0.6 -->
      <g style="fill: #ffffff" transform="translate(38.919062 71.857833) scale(0.1 -0.1)">
       <defs>
        <path id="DejaVuSans-36" d="M 2113 2584 
Q 1688 2584 1439 2293 
Q 1191 2003 1191 1497 
Q 1191 994 1439 701 
Q 1688 409 2113 409 
Q 2538 409 2786 701 
Q 3034 994 3034 1497 
Q 3034 2003 2786 2293 
Q 2538 2584 2113 2584 
z
M 3366 4563 
L 3366 3988 
Q 3128 4100 2886 4159 
Q 2644 4219 2406 4219 
Q 1781 4219 1451 3797 
Q 1122 3375 1075 2522 
Q 1259 2794 1537 2939 
Q 1816 3084 2150 3084 
Q 2853 3084 3261 2657 
Q 3669 2231 3669 1497 
Q 3669 778 3244 343 
Q 2819 -91 2113 -91 
Q 1303 -91 875 529 
Q 447 1150 447 2328 
Q 447 3434 972 4092 
Q 1497 4750 2381 4750 
Q 2619 4750 2861 4703 
Q 3103 4656 3366 4563 
z
" transform="scale(0.015625)"/>
       </defs>
       <use xlink:href="#DejaVuSans-30"/>
       <use xlink:href="#DejaVuSans-2e" transform="translate(63.623047 0)"/>
       <use xlink:href="#DejaVuSans-36" transform="translate(95.410156 0)"/>
      </g>
     </g>
    </g>
   </g>
   <g id="line2d_7">
    <path d="M 64.751441 145.478685 
L 65.343209 145.365991 
L 65.934977 145.253298 
L 66.526746 145.140604 
L 67.118514 145.02791 
L 67.710282 144.915216 
L 68.302051 144.802522 
L 68.893819 144.689828 
L 69.485587 144.577134 
L 70.077356 144.46444 
L 70.669124 144.351746 
L 71.260892 144.239053 
L 71.852661 144.126359 
L 72.444429 144.013665 
L 73.036197 143.900971 
L 73.627966 143.788277 
L 74.219734 143.675583 
L 74.811502 143.562889 
L 75.403271 143.450195 
L 75.995039 143.337501 
L 76.586807 143.224807 
L 77.178576 143.112114 
L 77.770344 142.99942 
L 78.362112 142.886726 
L 78.953881 142.774032 
L 79.545649 142.661338 
L 80.137417 142.548644 
L 80.729186 142.43595 
L 81.320954 142.323256 
L 81.912722 142.210562 
L 82.504491 142.097869 
L 83.096259 141.985175 
L 83.688027 141.872481 
L 84.279796 141.759787 
L 84.871564 141.647093 
L 85.463332 141.534399 
L 86.055101 141.421705 
L 86.646869 141.309011 
L 87.238637 141.196317 
L 87.830406 141.083624 
L 88.422174 140.97093 
L 89.013942 140.858236 
L 89.605711 140.745542 
L 90.197479 140.632848 
L 90.789247 140.520154 
L 91.381016 140.40746 
L 91.972784 140.294766 
L 92.564552 140.182072 
L 93.156321 140.069378 
L 93.748089 139.956685 
L 94.339857 139.843991 
L 94.931626 139.731297 
L 95.523394 139.618603 
L 96.115162 139.505909 
L 96.706931 139.393215 
L 97.298699 139.280521 
L 97.890467 139.167827 
L 98.482236 139.055133 
L 99.074004 138.94244 
L 99.665772 138.829746 
L 100.257541 138.717052 
L 100.849309 138.604358 
L 101.441077 138.491664 
L 102.032846 138.37897 
L 102.624614 138.266276 
L 103.216382 138.153582 
L 103.808151 138.040888 
L 104.399919 137.928194 
L 104.991687 137.815501 
L 105.583456 137.702807 
L 106.175224 137.590113 
L 106.766992 137.477419 
L 107.358761 137.364725 
L 107.950529 137.252031 
L 108.542297 137.139337 
L 109.134066 137.026643 
L 109.725834 136.913949 
L 110.317602 136.801256 
L 110.909371 136.688562 
L 111.501139 136.575868 
L 112.092907 136.463174 
L 112.684675 136.35048 
L 113.276444 136.237786 
L 113.868212 136.125092 
L 114.45998 136.012398 
L 115.051749 135.899704 
L 115.643517 135.787011 
L 116.235285 135.674317 
L 116.827054 135.561623 
L 117.418822 135.448929 
L 118.01059 135.336235 
L 118.602359 135.223541 
L 119.194127 135.110847 
L 119.785895 134.998153 
L 120.377664 134.885459 
L 120.969432 134.772765 
L 121.5612 134.660072 
L 122.152969 134.547378 
L 122.744737 134.434684 
L 123.336505 134.32199 
" clip-path="url(#p893a1c570c)" style="fill: none; stroke-dasharray: 5.55,2.4; stroke-dashoffset: 0; stroke: #ffffff; stroke-width: 1.5"/>
   </g>
   <g id="line2d_8">
    <path d="M 72.959047 187.544 
L 72.959047 52.8 
" clip-path="url(#p893a1c570c)" style="fill: none; stroke: #ffffff; stroke-width: 0.8; stroke-linecap: square"/>
   </g>
   <g id="line2d_9">
    <path d="M 61.822187 181.419273 
L 126.265759 181.419273 
" clip-path="url(#p893a1c570c)" style="fill: none; stroke: #ffffff; stroke-width: 0.8; stroke-linecap: square"/>
   </g>
   <g id="patch_3">
    <path d="M 61.822187 181.419273 
L 61.822187 68.058614 
" style="fill: none; stroke: #ffffff; stroke-width: 2; stroke-linejoin: miter; stroke-linecap: square"/>
   </g>
   <g id="patch_4">
    <path d="M 72.959047 187.544 
L 118.843639 187.544 
" style="fill: none; stroke: #ffffff; stroke-width: 2; stroke-linejoin: miter; stroke-linecap: square"/>
   </g>
   <g id="text_7">
    <!-- M1 -->
    <g style="fill: #ffffff" transform="translate(85.049598 46.8) scale(0.12 -0.12)">
     <defs>
      <path id="DejaVuSans-4d" d="M 628 4666 
L 1569 4666 
L 2759 1491 
L 3956 4666 
L 4897 4666 
L 4897 0 
L 4281 0 
L 4281 4097 
L 3078 897 
L 2444 897 
L 1241 4097 
L 1241 0 
L 628 0 
L 628 4666 
z
" transform="scale(0.015625)"/>
      <path id="DejaVuSans-31" d="M 794 531 
L 1825 531 
L 1825 4091 
L 703 3866 
L 703 4441 
L 1819 4666 
L 2450 4666 
L 2450 531 
L 3481 531 
L 3481 0 
L 794 0 
L 794 531 
z
" transform="scale(0.015625)"/>
     </defs>
     <use xlink:href="#DejaVuSans-4d"/>
     <use xlink:href="#DejaVuSans-31" transform="translate(86.279297 0)"/>
    </g>
   </g>
  </g>
  <g id="axes_2">
   <g id="patch_5">
    <path d="M 142.872187 187.544 
L 207.315759 187.544 
L 207.315759 52.8 
L 142.872187 52.8 
z
"/>
   </g>
   <g id="FillBetweenPolyCollection_2">
    <defs>
     <path id="mf933f86ff7" d="M 145.801441 -161.824266 
L 145.801441 -99.759075 
L 146.393209 -100.271695 
L 146.984977 -100.779433 
L 147.576746 -101.282051 
L 148.168514 -101.779303 
L 148.760282 -102.270925 
L 149.352051 -102.756642 
L 149.943819 -103.236165 
L 150.535587 -103.709189 
L 151.127356 -104.175394 
L 151.719124 -104.634442 
L 152.310892 -105.085982 
L 152.902661 -105.529645 
L 153.494429 -105.965044 
L 154.086197 -106.391775 
L 154.677966 -106.809418 
L 155.269734 -107.217536 
L 155.861502 -107.615673 
L 156.453271 -108.00336 
L 157.045039 -108.380111 
L 157.636807 -108.745425 
L 158.228576 -109.09879 
L 158.820344 -109.439681 
L 159.412112 -109.767567 
L 160.003881 -110.081906 
L 160.595649 -110.382156 
L 161.187417 -110.667775 
L 161.779186 -110.938222 
L 162.370954 -111.192966 
L 162.962722 -111.431486 
L 163.554491 -111.653281 
L 164.146259 -111.85787 
L 164.738027 -112.044799 
L 165.329796 -112.213648 
L 165.921564 -112.364034 
L 166.513332 -112.495616 
L 167.105101 -112.608101 
L 167.696869 -112.701247 
L 168.288637 -112.774867 
L 168.880406 -112.828832 
L 169.472174 -112.863071 
L 170.063942 -112.877575 
L 170.655711 -112.872396 
L 171.247479 -112.847645 
L 171.839247 -112.803491 
L 172.431016 -112.740161 
L 173.022784 -112.657932 
L 173.614552 -112.55713 
L 174.206321 -112.438127 
L 174.798089 -112.301331 
L 175.389857 -112.147187 
L 175.981626 -111.976167 
L 176.573394 -111.788768 
L 177.165162 -111.585505 
L 177.756931 -111.366906 
L 178.348699 -111.133509 
L 178.940467 -110.885857 
L 179.532236 -110.624492 
L 180.124004 -110.349956 
L 180.715772 -110.062784 
L 181.307541 -109.763503 
L 181.899309 -109.45263 
L 182.491077 -109.130668 
L 183.082846 -108.798109 
L 183.674614 -108.455426 
L 184.266382 -108.103081 
L 184.858151 -107.741515 
L 185.449919 -107.371154 
L 186.041687 -106.992408 
L 186.633456 -106.605667 
L 187.225224 -106.211307 
L 187.816992 -105.809684 
L 188.408761 -105.40114 
L 189.000529 -104.986001 
L 189.592297 -104.564575 
L 190.184066 -104.137158 
L 190.775834 -103.704028 
L 191.367602 -103.265452 
L 191.959371 -102.821682 
L 192.551139 -102.372958 
L 193.142907 -101.919508 
L 193.734675 -101.461546 
L 194.326444 -100.999278 
L 194.918212 -100.532898 
L 195.50998 -100.062589 
L 196.101749 -99.588527 
L 196.693517 -99.110876 
L 197.285285 -98.629795 
L 197.877054 -98.145431 
L 198.468822 -97.657927 
L 199.06059 -97.167416 
L 199.652359 -96.674026 
L 200.244127 -96.177878 
L 200.835895 -95.679086 
L 201.427664 -95.177759 
L 202.019432 -94.674002 
L 202.6112 -94.167912 
L 203.202969 -93.659584 
L 203.794737 -93.149105 
L 204.386505 -92.636562 
L 204.386505 -175.126696 
L 204.386505 -175.126696 
L 203.794737 -174.551729 
L 203.202969 -173.978827 
L 202.6112 -173.408075 
L 202.019432 -172.839561 
L 201.427664 -172.273381 
L 200.835895 -171.709631 
L 200.244127 -171.148415 
L 199.652359 -170.589844 
L 199.06059 -170.03403 
L 198.468822 -169.481096 
L 197.877054 -168.931168 
L 197.285285 -168.384381 
L 196.693517 -167.840877 
L 196.101749 -167.300803 
L 195.50998 -166.764317 
L 194.918212 -166.231585 
L 194.326444 -165.702781 
L 193.734675 -165.17809 
L 193.142907 -164.657705 
L 192.551139 -164.141831 
L 191.959371 -163.630684 
L 191.367602 -163.124491 
L 190.775834 -162.623491 
L 190.184066 -162.127938 
L 189.592297 -161.638097 
L 189.000529 -161.154248 
L 188.408761 -160.676685 
L 187.816992 -160.205718 
L 187.225224 -159.741672 
L 186.633456 -159.284888 
L 186.041687 -158.835724 
L 185.449919 -158.394554 
L 184.858151 -157.96177 
L 184.266382 -157.537781 
L 183.674614 -157.123012 
L 183.082846 -156.717906 
L 182.491077 -156.322923 
L 181.899309 -155.938538 
L 181.307541 -155.565242 
L 180.715772 -155.203537 
L 180.124004 -154.853942 
L 179.532236 -154.516983 
L 178.940467 -154.193195 
L 178.348699 -153.883119 
L 177.756931 -153.587298 
L 177.165162 -153.306276 
L 176.573394 -153.040589 
L 175.981626 -152.790767 
L 175.389857 -152.557324 
L 174.798089 -152.340756 
L 174.206321 -152.141537 
L 173.614552 -151.96011 
L 173.022784 -151.796885 
L 172.431016 -151.652233 
L 171.839247 -151.526479 
L 171.247479 -151.419902 
L 170.655711 -151.332727 
L 170.063942 -151.265125 
L 169.472174 -151.217206 
L 168.880406 -151.189021 
L 168.288637 -151.180562 
L 167.696869 -151.191759 
L 167.105101 -151.222482 
L 166.513332 -151.272544 
L 165.921564 -151.341702 
L 165.329796 -151.429665 
L 164.738027 -151.53609 
L 164.146259 -151.660596 
L 163.554491 -151.802762 
L 162.962722 -151.962133 
L 162.370954 -152.13823 
L 161.779186 -152.33055 
L 161.187417 -152.538574 
L 160.595649 -152.761769 
L 160.003881 -152.999596 
L 159.412112 -153.251512 
L 158.820344 -153.516974 
L 158.228576 -153.795442 
L 157.636807 -154.086384 
L 157.045039 -154.389275 
L 156.453271 -154.703602 
L 155.861502 -155.028865 
L 155.269734 -155.364579 
L 154.677966 -155.710274 
L 154.086197 -156.065493 
L 153.494429 -156.429801 
L 152.902661 -156.802777 
L 152.310892 -157.184016 
L 151.719124 -157.573133 
L 151.127356 -157.969758 
L 150.535587 -158.373539 
L 149.943819 -158.784139 
L 149.352051 -159.201239 
L 148.760282 -159.624533 
L 148.168514 -160.053732 
L 147.576746 -160.48856 
L 146.984977 -160.928755 
L 146.393209 -161.374069 
L 145.801441 -161.824266 
z
"/>
    </defs>
    <g clip-path="url(#pc46cbcf4f1)">
     <use xlink:href="#mf933f86ff7" x="0" y="258.84" style="fill: #ffffff; fill-opacity: 0.2"/>
    </g>
   </g>
   <g id="PathCollection_2">
    <g clip-path="url(#pc46cbcf4f1)">
     <use xlink:href="#m1fbe776bf0" x="149.017418" y="181.417738" style="fill: #ffffff; stroke: #ffffff"/>
     <use xlink:href="#m1fbe776bf0" x="171.097234" y="114.205805" style="fill: #ffffff; stroke: #ffffff"/>
     <use xlink:href="#m1fbe776bf0" x="204.386505" y="92.332717" style="fill: #ffffff; stroke: #ffffff"/>
     <use xlink:href="#m1fbe776bf0" x="194.140858" y="146.772813" style="fill: #ffffff; stroke: #ffffff"/>
     <use xlink:href="#m1fbe776bf0" x="160.614517" y="157.738119" style="fill: #ffffff; stroke: #ffffff"/>
     <use xlink:href="#m1fbe776bf0" x="200.465285" y="163.900351" style="fill: #ffffff; stroke: #ffffff"/>
     <use xlink:href="#m1fbe776bf0" x="163.50036" y="141.597292" style="fill: #ffffff; stroke: #ffffff"/>
     <use xlink:href="#m1fbe776bf0" x="156.158825" y="114.514551" style="fill: #ffffff; stroke: #ffffff"/>
     <use xlink:href="#m1fbe776bf0" x="153.236656" y="99.212174" style="fill: #ffffff; stroke: #ffffff"/>
     <use xlink:href="#m1fbe776bf0" x="158.738984" y="146.405594" style="fill: #ffffff; stroke: #ffffff"/>
     <use xlink:href="#m1fbe776bf0" x="159.186359" y="131.223129" style="fill: #ffffff; stroke: #ffffff"/>
     <use xlink:href="#m1fbe776bf0" x="169.198759" y="126.531554" style="fill: #ffffff; stroke: #ffffff"/>
     <use xlink:href="#m1fbe776bf0" x="145.801441" y="78.885961" style="fill: #ffffff; stroke: #ffffff"/>
     <use xlink:href="#m1fbe776bf0" x="184.195373" y="80.611737" style="fill: #ffffff; stroke: #ffffff"/>
    </g>
   </g>
   <g id="matplotlib.axis_3">
    <g id="xtick_3">
     <g id="line2d_10">
      <g>
       <use xlink:href="#mc68072251a" x="154.009047" y="187.544" style="fill: #ffffff; stroke: #ffffff; stroke-width: 2"/>
      </g>
     </g>
     <g id="text_8">
      <!-- 0.00 -->
      <g style="fill: #ffffff" transform="translate(142.876235 202.142437) scale(0.1 -0.1)">
       <use xlink:href="#DejaVuSans-30"/>
       <use xlink:href="#DejaVuSans-2e" transform="translate(63.623047 0)"/>
       <use xlink:href="#DejaVuSans-30" transform="translate(95.410156 0)"/>
       <use xlink:href="#DejaVuSans-30" transform="translate(159.033203 0)"/>
      </g>
     </g>
    </g>
    <g id="xtick_4">
     <g id="line2d_11">
      <g>
       <use xlink:href="#mc68072251a" x="199.893639" y="187.544" style="fill: #ffffff; stroke: #ffffff; stroke-width: 2"/>
      </g>
     </g>
     <g id="text_9">
      <!-- 0.08 -->
      <g style="fill: #ffffff" transform="translate(188.760827 202.142437) scale(0.1 -0.1)">
       <use xlink:href="#DejaVuSans-30"/>
       <use xlink:href="#DejaVuSans-2e" transform="translate(63.623047 0)"/>
       <use xlink:href="#DejaVuSans-30" transform="translate(95.410156 0)"/>
       <use xlink:href="#DejaVuSans-38" transform="translate(159.033203 0)"/>
      </g>
     </g>
    </g>
   </g>
   <g id="matplotlib.axis_4">
    <g id="ytick_5">
     <g id="line2d_12">
      <g>
       <use xlink:href="#ma01e48c2d7" x="142.872187" y="181.419273" style="fill: #ffffff; stroke: #ffffff; stroke-width: 2"/>
      </g>
     </g>
    </g>
    <g id="ytick_6">
     <g id="line2d_13">
      <g>
       <use xlink:href="#ma01e48c2d7" x="142.872187" y="143.632386" style="fill: #ffffff; stroke: #ffffff; stroke-width: 2"/>
      </g>
     </g>
    </g>
    <g id="ytick_7">
     <g id="line2d_14">
      <g>
       <use xlink:href="#ma01e48c2d7" x="142.872187" y="105.8455" style="fill: #ffffff; stroke: #ffffff; stroke-width: 2"/>
      </g>
     </g>
    </g>
    <g id="ytick_8">
     <g id="line2d_15">
      <g>
       <use xlink:href="#ma01e48c2d7" x="142.872187" y="68.058614" style="fill: #ffffff; stroke: #ffffff; stroke-width: 2"/>
      </g>
     </g>
    </g>
   </g>
   <g id="line2d_16">
    <path d="M 145.801441 128.04833 
L 146.393209 128.017118 
L 146.984977 127.985906 
L 147.576746 127.954695 
L 148.168514 127.923483 
L 148.760282 127.892271 
L 149.352051 127.861059 
L 149.943819 127.829848 
L 150.535587 127.798636 
L 151.127356 127.767424 
L 151.719124 127.736213 
L 152.310892 127.705001 
L 152.902661 127.673789 
L 153.494429 127.642578 
L 154.086197 127.611366 
L 154.677966 127.580154 
L 155.269734 127.548942 
L 155.861502 127.517731 
L 156.453271 127.486519 
L 157.045039 127.455307 
L 157.636807 127.424096 
L 158.228576 127.392884 
L 158.820344 127.361672 
L 159.412112 127.330461 
L 160.003881 127.299249 
L 160.595649 127.268037 
L 161.187417 127.236825 
L 161.779186 127.205614 
L 162.370954 127.174402 
L 162.962722 127.14319 
L 163.554491 127.111979 
L 164.146259 127.080767 
L 164.738027 127.049555 
L 165.329796 127.018344 
L 165.921564 126.987132 
L 166.513332 126.95592 
L 167.105101 126.924708 
L 167.696869 126.893497 
L 168.288637 126.862285 
L 168.880406 126.831073 
L 169.472174 126.799862 
L 170.063942 126.76865 
L 170.655711 126.737438 
L 171.247479 126.706227 
L 171.839247 126.675015 
L 172.431016 126.643803 
L 173.022784 126.612591 
L 173.614552 126.58138 
L 174.206321 126.550168 
L 174.798089 126.518956 
L 175.389857 126.487745 
L 175.981626 126.456533 
L 176.573394 126.425321 
L 177.165162 126.39411 
L 177.756931 126.362898 
L 178.348699 126.331686 
L 178.940467 126.300474 
L 179.532236 126.269263 
L 180.124004 126.238051 
L 180.715772 126.206839 
L 181.307541 126.175628 
L 181.899309 126.144416 
L 182.491077 126.113204 
L 183.082846 126.081993 
L 183.674614 126.050781 
L 184.266382 126.019569 
L 184.858151 125.988357 
L 185.449919 125.957146 
L 186.041687 125.925934 
L 186.633456 125.894722 
L 187.225224 125.863511 
L 187.816992 125.832299 
L 188.408761 125.801087 
L 189.000529 125.769876 
L 189.592297 125.738664 
L 190.184066 125.707452 
L 190.775834 125.67624 
L 191.367602 125.645029 
L 191.959371 125.613817 
L 192.551139 125.582605 
L 193.142907 125.551394 
L 193.734675 125.520182 
L 194.326444 125.48897 
L 194.918212 125.457759 
L 195.50998 125.426547 
L 196.101749 125.395335 
L 196.693517 125.364124 
L 197.285285 125.332912 
L 197.877054 125.3017 
L 198.468822 125.270488 
L 199.06059 125.239277 
L 199.652359 125.208065 
L 200.244127 125.176853 
L 200.835895 125.145642 
L 201.427664 125.11443 
L 202.019432 125.083218 
L 202.6112 125.052007 
L 203.202969 125.020795 
L 203.794737 124.989583 
L 204.386505 124.958371 
" clip-path="url(#pc46cbcf4f1)" style="fill: none; stroke-dasharray: 5.55,2.4; stroke-dashoffset: 0; stroke: #ffffff; stroke-width: 1.5"/>
   </g>
   <g id="line2d_17">
    <path d="M 154.009047 187.544 
L 154.009047 52.8 
" clip-path="url(#pc46cbcf4f1)" style="fill: none; stroke: #ffffff; stroke-width: 0.8; stroke-linecap: square"/>
   </g>
   <g id="line2d_18">
    <path d="M 142.872187 181.419273 
L 207.315759 181.419273 
" clip-path="url(#pc46cbcf4f1)" style="fill: none; stroke: #ffffff; stroke-width: 0.8; stroke-linecap: square"/>
   </g>
   <g id="patch_6">
    <path d="M 142.872187 181.419273 
L 142.872187 68.058614 
" style="fill: none; stroke: #ffffff; stroke-width: 2; stroke-linejoin: miter; stroke-linecap: square"/>
   </g>
   <g id="patch_7">
    <path d="M 154.009047 187.544 
L 199.893639 187.544 
" style="fill: none; stroke: #ffffff; stroke-width: 2; stroke-linejoin: miter; stroke-linecap: square"/>
   </g>
   <g id="text_10">
    <!-- S1 -->
    <g style="fill: #ffffff" transform="translate(167.467411 46.8) scale(0.12 -0.12)">
     <defs>
      <path id="DejaVuSans-53" d="M 3425 4513 
L 3425 3897 
Q 3066 4069 2747 4153 
Q 2428 4238 2131 4238 
Q 1616 4238 1336 4038 
Q 1056 3838 1056 3469 
Q 1056 3159 1242 3001 
Q 1428 2844 1947 2747 
L 2328 2669 
Q 3034 2534 3370 2195 
Q 3706 1856 3706 1288 
Q 3706 609 3251 259 
Q 2797 -91 1919 -91 
Q 1588 -91 1214 -16 
Q 841 59 441 206 
L 441 856 
Q 825 641 1194 531 
Q 1563 422 1919 422 
Q 2459 422 2753 634 
Q 3047 847 3047 1241 
Q 3047 1584 2836 1778 
Q 2625 1972 2144 2069 
L 1759 2144 
Q 1053 2284 737 2584 
Q 422 2884 422 3419 
Q 422 4038 858 4394 
Q 1294 4750 2059 4750 
Q 2388 4750 2728 4690 
Q 3069 4631 3425 4513 
z
" transform="scale(0.015625)"/>
     </defs>
     <use xlink:href="#DejaVuSans-53"/>
     <use xlink:href="#DejaVuSans-31" transform="translate(63.476562 0)"/>
    </g>
   </g>
  </g>
  <g id="text_11">
   <!-- force difference between -->
   <g style="fill: #ffffff" transform="translate(37.347187 235.707) scale(0.12 -0.12)">
    <defs>
     <path id="DejaVuSans-66" d="M 2375 4863 
L 2375 4384 
L 1825 4384 
Q 1516 4384 1395 4259 
Q 1275 4134 1275 3809 
L 1275 3500 
L 2222 3500 
L 2222 3053 
L 1275 3053 
L 1275 0 
L 697 0 
L 697 3053 
L 147 3053 
L 147 3500 
L 697 3500 
L 697 3744 
Q 697 4328 969 4595 
Q 1241 4863 1831 4863 
L 2375 4863 
z
" transform="scale(0.015625)"/>
     <path id="DejaVuSans-6f" d="M 1959 3097 
Q 1497 3097 1228 2736 
Q 959 2375 959 1747 
Q 959 1119 1226 758 
Q 1494 397 1959 397 
Q 2419 397 2687 759 
Q 2956 1122 2956 1747 
Q 2956 2369 2687 2733 
Q 2419 3097 1959 3097 
z
M 1959 3584 
Q 2709 3584 3137 3096 
Q 3566 2609 3566 1747 
Q 3566 888 3137 398 
Q 2709 -91 1959 -91 
Q 1206 -91 779 398 
Q 353 888 353 1747 
Q 353 2609 779 3096 
Q 1206 3584 1959 3584 
z
" transform="scale(0.015625)"/>
     <path id="DejaVuSans-72" d="M 2631 2963 
Q 2534 3019 2420 3045 
Q 2306 3072 2169 3072 
Q 1681 3072 1420 2755 
Q 1159 2438 1159 1844 
L 1159 0 
L 581 0 
L 581 3500 
L 1159 3500 
L 1159 2956 
Q 1341 3275 1631 3429 
Q 1922 3584 2338 3584 
Q 2397 3584 2469 3576 
Q 2541 3569 2628 3553 
L 2631 2963 
z
" transform="scale(0.015625)"/>
     <path id="DejaVuSans-63" d="M 3122 3366 
L 3122 2828 
Q 2878 2963 2633 3030 
Q 2388 3097 2138 3097 
Q 1578 3097 1268 2742 
Q 959 2388 959 1747 
Q 959 1106 1268 751 
Q 1578 397 2138 397 
Q 2388 397 2633 464 
Q 2878 531 3122 666 
L 3122 134 
Q 2881 22 2623 -34 
Q 2366 -91 2075 -91 
Q 1284 -91 818 406 
Q 353 903 353 1747 
Q 353 2603 823 3093 
Q 1294 3584 2113 3584 
Q 2378 3584 2631 3529 
Q 2884 3475 3122 3366 
z
" transform="scale(0.015625)"/>
     <path id="DejaVuSans-65" d="M 3597 1894 
L 3597 1613 
L 953 1613 
Q 991 1019 1311 708 
Q 1631 397 2203 397 
Q 2534 397 2845 478 
Q 3156 559 3463 722 
L 3463 178 
Q 3153 47 2828 -22 
Q 2503 -91 2169 -91 
Q 1331 -91 842 396 
Q 353 884 353 1716 
Q 353 2575 817 3079 
Q 1281 3584 2069 3584 
Q 2775 3584 3186 3129 
Q 3597 2675 3597 1894 
z
M 3022 2063 
Q 3016 2534 2758 2815 
Q 2500 3097 2075 3097 
Q 1594 3097 1305 2825 
Q 1016 2553 972 2059 
L 3022 2063 
z
" transform="scale(0.015625)"/>
     <path id="DejaVuSans-20" transform="scale(0.015625)"/>
     <path id="DejaVuSans-64" d="M 2906 2969 
L 2906 4863 
L 3481 4863 
L 3481 0 
L 2906 0 
L 2906 525 
Q 2725 213 2448 61 
Q 2172 -91 1784 -91 
Q 1150 -91 751 415 
Q 353 922 353 1747 
Q 353 2572 751 3078 
Q 1150 3584 1784 3584 
Q 2172 3584 2448 3432 
Q 2725 3281 2906 2969 
z
M 947 1747 
Q 947 1113 1208 752 
Q 1469 391 1925 391 
Q 2381 391 2643 752 
Q 2906 1113 2906 1747 
Q 2906 2381 2643 2742 
Q 2381 3103 1925 3103 
Q 1469 3103 1208 2742 
Q 947 2381 947 1747 
z
" transform="scale(0.015625)"/>
     <path id="DejaVuSans-69" d="M 603 3500 
L 1178 3500 
L 1178 0 
L 603 0 
L 603 3500 
z
M 603 4863 
L 1178 4863 
L 1178 4134 
L 603 4134 
L 603 4863 
z
" transform="scale(0.015625)"/>
     <path id="DejaVuSans-6e" d="M 3513 2113 
L 3513 0 
L 2938 0 
L 2938 2094 
Q 2938 2591 2744 2837 
Q 2550 3084 2163 3084 
Q 1697 3084 1428 2787 
Q 1159 2491 1159 1978 
L 1159 0 
L 581 0 
L 581 3500 
L 1159 3500 
L 1159 2956 
Q 1366 3272 1645 3428 
Q 1925 3584 2291 3584 
Q 2894 3584 3203 3211 
Q 3513 2838 3513 2113 
z
" transform="scale(0.015625)"/>
     <path id="DejaVuSans-62" d="M 3116 1747 
Q 3116 2381 2855 2742 
Q 2594 3103 2138 3103 
Q 1681 3103 1420 2742 
Q 1159 2381 1159 1747 
Q 1159 1113 1420 752 
Q 1681 391 2138 391 
Q 2594 391 2855 752 
Q 3116 1113 3116 1747 
z
M 1159 2969 
Q 1341 3281 1617 3432 
Q 1894 3584 2278 3584 
Q 2916 3584 3314 3078 
Q 3713 2572 3713 1747 
Q 3713 922 3314 415 
Q 2916 -91 2278 -91 
Q 1894 -91 1617 61 
Q 1341 213 1159 525 
L 1159 0 
L 581 0 
L 581 4863 
L 1159 4863 
L 1159 2969 
z
" transform="scale(0.015625)"/>
     <path id="DejaVuSans-74" d="M 1172 4494 
L 1172 3500 
L 2356 3500 
L 2356 3053 
L 1172 3053 
L 1172 1153 
Q 1172 725 1289 603 
Q 1406 481 1766 481 
L 2356 481 
L 2356 0 
L 1766 0 
Q 1100 0 847 248 
Q 594 497 594 1153 
L 594 3053 
L 172 3053 
L 172 3500 
L 594 3500 
L 594 4494 
L 1172 4494 
z
" transform="scale(0.015625)"/>
     <path id="DejaVuSans-77" d="M 269 3500 
L 844 3500 
L 1563 769 
L 2278 3500 
L 2956 3500 
L 3675 769 
L 4391 3500 
L 4966 3500 
L 4050 0 
L 3372 0 
L 2619 2869 
L 1863 0 
L 1184 0 
L 269 3500 
z
" transform="scale(0.015625)"/>
    </defs>
    <use xlink:href="#DejaVuSans-66"/>
    <use xlink:href="#DejaVuSans-6f" transform="translate(35.205078 0)"/>
    <use xlink:href="#DejaVuSans-72" transform="translate(96.386719 0)"/>
    <use xlink:href="#DejaVuSans-63" transform="translate(135.25 0)"/>
    <use xlink:href="#DejaVuSans-65" transform="translate(190.230469 0)"/>
    <use xlink:href="#DejaVuSans-20" transform="translate(251.753906 0)"/>
    <use xlink:href="#DejaVuSans-64" transform="translate(283.541016 0)"/>
    <use xlink:href="#DejaVuSans-69" transform="translate(347.017578 0)"/>
    <use xlink:href="#DejaVuSans-66" transform="translate(374.800781 0)"/>
    <use xlink:href="#DejaVuSans-66" transform="translate(410.005859 0)"/>
    <use xlink:href="#DejaVuSans-65" transform="translate(445.210938 0)"/>
    <use xlink:href="#DejaVuSans-72" transform="translate(506.734375 0)"/>
    <use xlink:href="#DejaVuSans-65" transform="translate(545.597656 0)"/>
    <use xlink:href="#DejaVuSans-6e" transform="translate(607.121094 0)"/>
    <use xlink:href="#DejaVuSans-63" transform="translate(670.5 0)"/>
    <use xlink:href="#DejaVuSans-65" transform="translate(725.480469 0)"/>
    <use xlink:href="#DejaVuSans-20" transform="translate(787.003906 0)"/>
    <use xlink:href="#DejaVuSans-62" transform="translate(818.791016 0)"/>
    <use xlink:href="#DejaVuSans-65" transform="translate(882.267578 0)"/>
    <use xlink:href="#DejaVuSans-74" transform="translate(943.791016 0)"/>
    <use xlink:href="#DejaVuSans-77" transform="translate(983 0)"/>
    <use xlink:href="#DejaVuSans-65" transform="translate(1064.787109 0)"/>
    <use xlink:href="#DejaVuSans-65" transform="translate(1126.310547 0)"/>
    <use xlink:href="#DejaVuSans-6e" transform="translate(1187.833984 0)"/>
   </g>
   <!-- cued and uncued finger (N) -->
   <g style="fill: #ffffff" transform="translate(29.976562 249.144375) scale(0.12 -0.12)">
    <defs>
     <path id="DejaVuSans-75" d="M 544 1381 
L 544 3500 
L 1119 3500 
L 1119 1403 
Q 1119 906 1312 657 
Q 1506 409 1894 409 
Q 2359 409 2629 706 
Q 2900 1003 2900 1516 
L 2900 3500 
L 3475 3500 
L 3475 0 
L 2900 0 
L 2900 538 
Q 2691 219 2414 64 
Q 2138 -91 1772 -91 
Q 1169 -91 856 284 
Q 544 659 544 1381 
z
M 1991 3584 
L 1991 3584 
z
" transform="scale(0.015625)"/>
     <path id="DejaVuSans-61" d="M 2194 1759 
Q 1497 1759 1228 1600 
Q 959 1441 959 1056 
Q 959 750 1161 570 
Q 1363 391 1709 391 
Q 2188 391 2477 730 
Q 2766 1069 2766 1631 
L 2766 1759 
L 2194 1759 
z
M 3341 1997 
L 3341 0 
L 2766 0 
L 2766 531 
Q 2569 213 2275 61 
Q 1981 -91 1556 -91 
Q 1019 -91 701 211 
Q 384 513 384 1019 
Q 384 1609 779 1909 
Q 1175 2209 1959 2209 
L 2766 2209 
L 2766 2266 
Q 2766 2663 2505 2880 
Q 2244 3097 1772 3097 
Q 1472 3097 1187 3025 
Q 903 2953 641 2809 
L 641 3341 
Q 956 3463 1253 3523 
Q 1550 3584 1831 3584 
Q 2591 3584 2966 3190 
Q 3341 2797 3341 1997 
z
" transform="scale(0.015625)"/>
     <path id="DejaVuSans-67" d="M 2906 1791 
Q 2906 2416 2648 2759 
Q 2391 3103 1925 3103 
Q 1463 3103 1205 2759 
Q 947 2416 947 1791 
Q 947 1169 1205 825 
Q 1463 481 1925 481 
Q 2391 481 2648 825 
Q 2906 1169 2906 1791 
z
M 3481 434 
Q 3481 -459 3084 -895 
Q 2688 -1331 1869 -1331 
Q 1566 -1331 1297 -1286 
Q 1028 -1241 775 -1147 
L 775 -588 
Q 1028 -725 1275 -790 
Q 1522 -856 1778 -856 
Q 2344 -856 2625 -561 
Q 2906 -266 2906 331 
L 2906 616 
Q 2728 306 2450 153 
Q 2172 0 1784 0 
Q 1141 0 747 490 
Q 353 981 353 1791 
Q 353 2603 747 3093 
Q 1141 3584 1784 3584 
Q 2172 3584 2450 3431 
Q 2728 3278 2906 2969 
L 2906 3500 
L 3481 3500 
L 3481 434 
z
" transform="scale(0.015625)"/>
     <path id="DejaVuSans-28" d="M 1984 4856 
Q 1566 4138 1362 3434 
Q 1159 2731 1159 2009 
Q 1159 1288 1364 580 
Q 1569 -128 1984 -844 
L 1484 -844 
Q 1016 -109 783 600 
Q 550 1309 550 2009 
Q 550 2706 781 3412 
Q 1013 4119 1484 4856 
L 1984 4856 
z
" transform="scale(0.015625)"/>
     <path id="DejaVuSans-4e" d="M 628 4666 
L 1478 4666 
L 3547 763 
L 3547 4666 
L 4159 4666 
L 4159 0 
L 3309 0 
L 1241 3903 
L 1241 0 
L 628 0 
L 628 4666 
z
" transform="scale(0.015625)"/>
     <path id="DejaVuSans-29" d="M 513 4856 
L 1013 4856 
Q 1481 4119 1714 3412 
Q 1947 2706 1947 2009 
Q 1947 1309 1714 600 
Q 1481 -109 1013 -844 
L 513 -844 
Q 928 -128 1133 580 
Q 1338 1288 1338 2009 
Q 1338 2731 1133 3434 
Q 928 4138 513 4856 
z
" transform="scale(0.015625)"/>
    </defs>
    <use xlink:href="#DejaVuSans-63"/>
    <use xlink:href="#DejaVuSans-75" transform="translate(54.980469 0)"/>
    <use xlink:href="#DejaVuSans-65" transform="translate(118.359375 0)"/>
    <use xlink:href="#DejaVuSans-64" transform="translate(179.882812 0)"/>
    <use xlink:href="#DejaVuSans-20" transform="translate(243.359375 0)"/>
    <use xlink:href="#DejaVuSans-61" transform="translate(275.146484 0)"/>
    <use xlink:href="#DejaVuSans-6e" transform="translate(336.425781 0)"/>
    <use xlink:href="#DejaVuSans-64" transform="translate(399.804688 0)"/>
    <use xlink:href="#DejaVuSans-20" transform="translate(463.28125 0)"/>
    <use xlink:href="#DejaVuSans-75" transform="translate(495.068359 0)"/>
    <use xlink:href="#DejaVuSans-6e" transform="translate(558.447266 0)"/>
    <use xlink:href="#DejaVuSans-63" transform="translate(621.826172 0)"/>
    <use xlink:href="#DejaVuSans-75" transform="translate(676.806641 0)"/>
    <use xlink:href="#DejaVuSans-65" transform="translate(740.185547 0)"/>
    <use xlink:href="#DejaVuSans-64" transform="translate(801.708984 0)"/>
    <use xlink:href="#DejaVuSans-20" transform="translate(865.185547 0)"/>
    <use xlink:href="#DejaVuSans-66" transform="translate(896.972656 0)"/>
    <use xlink:href="#DejaVuSans-69" transform="translate(932.177734 0)"/>
    <use xlink:href="#DejaVuSans-6e" transform="translate(959.960938 0)"/>
    <use xlink:href="#DejaVuSans-67" transform="translate(1023.339844 0)"/>
    <use xlink:href="#DejaVuSans-65" transform="translate(1086.816406 0)"/>
    <use xlink:href="#DejaVuSans-72" transform="translate(1148.339844 0)"/>
    <use xlink:href="#DejaVuSans-20" transform="translate(1189.453125 0)"/>
    <use xlink:href="#DejaVuSans-28" transform="translate(1221.240234 0)"/>
    <use xlink:href="#DejaVuSans-4e" transform="translate(1260.253906 0)"/>
    <use xlink:href="#DejaVuSans-29" transform="translate(1335.058594 0)"/>
   </g>
  </g>
  <g id="text_12">
   <!-- Cue weight -->
   <g style="fill: #ffffff" transform="translate(17.860312 161.980312) rotate(-90) scale(0.12 -0.12)">
    <defs>
     <path id="DejaVuSans-43" d="M 4122 4306 
L 4122 3641 
Q 3803 3938 3442 4084 
Q 3081 4231 2675 4231 
Q 1875 4231 1450 3742 
Q 1025 3253 1025 2328 
Q 1025 1406 1450 917 
Q 1875 428 2675 428 
Q 3081 428 3442 575 
Q 3803 722 4122 1019 
L 4122 359 
Q 3791 134 3420 21 
Q 3050 -91 2638 -91 
Q 1578 -91 968 557 
Q 359 1206 359 2328 
Q 359 3453 968 4101 
Q 1578 4750 2638 4750 
Q 3056 4750 3426 4639 
Q 3797 4528 4122 4306 
z
" transform="scale(0.015625)"/>
     <path id="DejaVuSans-68" d="M 3513 2113 
L 3513 0 
L 2938 0 
L 2938 2094 
Q 2938 2591 2744 2837 
Q 2550 3084 2163 3084 
Q 1697 3084 1428 2787 
Q 1159 2491 1159 1978 
L 1159 0 
L 581 0 
L 581 4863 
L 1159 4863 
L 1159 2956 
Q 1366 3272 1645 3428 
Q 1925 3584 2291 3584 
Q 2894 3584 3203 3211 
Q 3513 2838 3513 2113 
z
" transform="scale(0.015625)"/>
    </defs>
    <use xlink:href="#DejaVuSans-43"/>
    <use xlink:href="#DejaVuSans-75" transform="translate(69.824219 0)"/>
    <use xlink:href="#DejaVuSans-65" transform="translate(133.203125 0)"/>
    <use xlink:href="#DejaVuSans-20" transform="translate(194.726562 0)"/>
    <use xlink:href="#DejaVuSans-77" transform="translate(226.513672 0)"/>
    <use xlink:href="#DejaVuSans-65" transform="translate(308.300781 0)"/>
    <use xlink:href="#DejaVuSans-69" transform="translate(369.824219 0)"/>
    <use xlink:href="#DejaVuSans-67" transform="translate(397.607422 0)"/>
    <use xlink:href="#DejaVuSans-68" transform="translate(461.083984 0)"/>
    <use xlink:href="#DejaVuSans-74" transform="translate(524.462891 0)"/>
   </g>
  </g>
  <g id="text_13">
   <!-- Cue weight vs. finger preactivation -->
   <g style="fill: #ffffff" transform="translate(7.2 16.318125) scale(0.12 -0.12)">
    <defs>
     <path id="DejaVuSans-76" d="M 191 3500 
L 800 3500 
L 1894 563 
L 2988 3500 
L 3597 3500 
L 2284 0 
L 1503 0 
L 191 3500 
z
" transform="scale(0.015625)"/>
     <path id="DejaVuSans-73" d="M 2834 3397 
L 2834 2853 
Q 2591 2978 2328 3040 
Q 2066 3103 1784 3103 
Q 1356 3103 1142 2972 
Q 928 2841 928 2578 
Q 928 2378 1081 2264 
Q 1234 2150 1697 2047 
L 1894 2003 
Q 2506 1872 2764 1633 
Q 3022 1394 3022 966 
Q 3022 478 2636 193 
Q 2250 -91 1575 -91 
Q 1294 -91 989 -36 
Q 684 19 347 128 
L 347 722 
Q 666 556 975 473 
Q 1284 391 1588 391 
Q 1994 391 2212 530 
Q 2431 669 2431 922 
Q 2431 1156 2273 1281 
Q 2116 1406 1581 1522 
L 1381 1569 
Q 847 1681 609 1914 
Q 372 2147 372 2553 
Q 372 3047 722 3315 
Q 1072 3584 1716 3584 
Q 2034 3584 2315 3537 
Q 2597 3491 2834 3397 
z
" transform="scale(0.015625)"/>
     <path id="DejaVuSans-70" d="M 1159 525 
L 1159 -1331 
L 581 -1331 
L 581 3500 
L 1159 3500 
L 1159 2969 
Q 1341 3281 1617 3432 
Q 1894 3584 2278 3584 
Q 2916 3584 3314 3078 
Q 3713 2572 3713 1747 
Q 3713 922 3314 415 
Q 2916 -91 2278 -91 
Q 1894 -91 1617 61 
Q 1341 213 1159 525 
z
M 3116 1747 
Q 3116 2381 2855 2742 
Q 2594 3103 2138 3103 
Q 1681 3103 1420 2742 
Q 1159 2381 1159 1747 
Q 1159 1113 1420 752 
Q 1681 391 2138 391 
Q 2594 391 2855 752 
Q 3116 1113 3116 1747 
z
" transform="scale(0.015625)"/>
    </defs>
    <use xlink:href="#DejaVuSans-43"/>
    <use xlink:href="#DejaVuSans-75" transform="translate(69.824219 0)"/>
    <use xlink:href="#DejaVuSans-65" transform="translate(133.203125 0)"/>
    <use xlink:href="#DejaVuSans-20" transform="translate(194.726562 0)"/>
    <use xlink:href="#DejaVuSans-77" transform="translate(226.513672 0)"/>
    <use xlink:href="#DejaVuSans-65" transform="translate(308.300781 0)"/>
    <use xlink:href="#DejaVuSans-69" transform="translate(369.824219 0)"/>
    <use xlink:href="#DejaVuSans-67" transform="translate(397.607422 0)"/>
    <use xlink:href="#DejaVuSans-68" transform="translate(461.083984 0)"/>
    <use xlink:href="#DejaVuSans-74" transform="translate(524.462891 0)"/>
    <use xlink:href="#DejaVuSans-20" transform="translate(563.671875 0)"/>
    <use xlink:href="#DejaVuSans-76" transform="translate(595.458984 0)"/>
    <use xlink:href="#DejaVuSans-73" transform="translate(654.638672 0)"/>
    <use xlink:href="#DejaVuSans-2e" transform="translate(706.738281 0)"/>
    <use xlink:href="#DejaVuSans-20" transform="translate(738.525391 0)"/>
    <use xlink:href="#DejaVuSans-66" transform="translate(770.3125 0)"/>
    <use xlink:href="#DejaVuSans-69" transform="translate(805.517578 0)"/>
    <use xlink:href="#DejaVuSans-6e" transform="translate(833.300781 0)"/>
    <use xlink:href="#DejaVuSans-67" transform="translate(896.679688 0)"/>
    <use xlink:href="#DejaVuSans-65" transform="translate(960.15625 0)"/>
    <use xlink:href="#DejaVuSans-72" transform="translate(1021.679688 0)"/>
    <use xlink:href="#DejaVuSans-20" transform="translate(1062.792969 0)"/>
    <use xlink:href="#DejaVuSans-70" transform="translate(1094.580078 0)"/>
    <use xlink:href="#DejaVuSans-72" transform="translate(1158.056641 0)"/>
    <use xlink:href="#DejaVuSans-65" transform="translate(1196.919922 0)"/>
    <use xlink:href="#DejaVuSans-61" transform="translate(1258.443359 0)"/>
    <use xlink:href="#DejaVuSans-63" transform="translate(1319.722656 0)"/>
    <use xlink:href="#DejaVuSans-74" transform="translate(1374.703125 0)"/>
    <use xlink:href="#DejaVuSans-69" transform="translate(1413.912109 0)"/>
    <use xlink:href="#DejaVuSans-76" transform="translate(1441.695312 0)"/>
    <use xlink:href="#DejaVuSans-61" transform="translate(1500.875 0)"/>
    <use xlink:href="#DejaVuSans-74" transform="translate(1562.154297 0)"/>
    <use xlink:href="#DejaVuSans-69" transform="translate(1601.363281 0)"/>
    <use xlink:href="#DejaVuSans-6f" transform="translate(1629.146484 0)"/>
    <use xlink:href="#DejaVuSans-6e" transform="translate(1690.328125 0)"/>
   </g>
  </g>
 </g>
 <defs>
  <clipPath id="p893a1c570c">
   <rect x="61.822187" y="52.8" width="64.443571" height="134.744"/>
  </clipPath>
  <clipPath id="pc46cbcf4f1">
   <rect x="142.872187" y="52.8" width="64.443571" height="134.744"/>
  </clipPath>
 </defs>
</svg>
