<?xml version="1.0" encoding="utf-8" standalone="no"?>
<!DOCTYPE svg PUBLIC "-//W3C//DTD SVG 1.1//EN"
  "http://www.w3.org/Graphics/SVG/1.1/DTD/svg11.dtd">
<svg xmlns:xlink="http://www.w3.org/1999/xlink" width="216.684264pt" height="258.84pt" viewBox="0 0 216.684264 258.84" xmlns="http://www.w3.org/2000/svg" version="1.1">
 <metadata>
  <rdf:RDF xmlns:dc="http://purl.org/dc/elements/1.1/" xmlns:cc="http://creativecommons.org/ns#" xmlns:rdf="http://www.w3.org/1999/02/22-rdf-syntax-ns#">
   <cc:Work>
    <dc:type rdf:resource="http://purl.org/dc/dcmitype/StillImage"/>
    <dc:date>2025-06-14T16:57:49.210419</dc:date>
    <dc:format>image/svg+xml</dc:format>
    <dc:creator>
     <cc:Agent>
      <dc:title>Matplotlib v3.10.1, https://matplotlib.org/</dc:title>
     </cc:Agent>
    </dc:creator>
   </cc:Work>
  </rdf:RDF>
 </metadata>
 <defs>
  <style type="text/css">*{stroke-linejoin: round; stroke-linecap: butt}</style>
 </defs>
 <g id="figure_1">
  <g id="patch_1">
   <path d="M 0 258.84 
L 216.684264 258.84 
L 216.684264 0 
L 0 0 
z
"/>
  </g>
  <g id="axes_1">
   <g id="patch_2">
    <path d="M 60.28 202.52 
L 124.723571 202.52 
L 124.723571 67.776 
L 60.28 67.776 
z
"/>
   </g>
   <g id="FillBetweenPolyCollection_1">
    <defs>
     <path id="m4ab047cb46" d="M 63.209253 -139.375995 
L 63.209253 -73.137677 
L 63.801022 -73.653538 
L 64.39279 -74.164187 
L 64.984558 -74.669373 
L 65.576327 -75.16883 
L 66.168095 -75.66228 
L 66.759863 -76.149429 
L 67.351632 -76.629966 
L 67.9434 -77.103568 
L 68.535168 -77.569891 
L 69.126937 -78.028577 
L 69.718705 -78.479251 
L 70.310473 -78.921516 
L 70.902242 -79.354963 
L 71.49401 -79.779159 
L 72.085778 -80.193656 
L 72.677547 -80.597987 
L 73.269315 -80.991666 
L 73.861083 -81.374193 
L 74.452852 -81.745048 
L 75.04462 -82.103697 
L 75.636388 -82.449594 
L 76.228157 -82.782179 
L 76.819925 -83.100883 
L 77.411693 -83.40513 
L 78.003461 -83.694341 
L 78.59523 -83.967936 
L 79.186998 -84.22534 
L 79.778766 -84.465984 
L 80.370535 -84.689315 
L 80.962303 -84.894795 
L 81.554071 -85.081912 
L 82.14584 -85.250182 
L 82.737608 -85.399157 
L 83.329376 -85.528427 
L 83.921145 -85.637628 
L 84.512913 -85.726449 
L 85.104681 -85.794631 
L 85.69645 -85.841973 
L 86.288218 -85.868339 
L 86.879986 -85.873652 
L 87.471755 -85.857904 
L 88.063523 -85.821149 
L 88.655291 -85.763506 
L 89.24706 -85.685156 
L 89.838828 -85.58634 
L 90.430596 -85.467354 
L 91.022365 -85.328547 
L 91.614133 -85.170315 
L 92.205901 -84.993094 
L 92.79767 -84.797358 
L 93.389438 -84.583611 
L 93.981206 -84.352384 
L 94.572975 -84.104227 
L 95.164743 -83.839702 
L 95.756511 -83.559384 
L 96.34828 -83.263852 
L 96.940048 -82.953686 
L 97.531816 -82.629464 
L 98.123585 -82.291755 
L 98.715353 -81.941124 
L 99.307121 -81.57812 
L 99.89889 -81.203283 
L 100.490658 -80.817135 
L 101.082426 -80.420184 
L 101.674195 -80.01292 
L 102.265963 -79.595816 
L 102.857731 -79.169325 
L 103.4495 -78.733885 
L 104.041268 -78.289913 
L 104.633036 -77.837809 
L 105.224805 -77.377955 
L 105.816573 -76.910714 
L 106.408341 -76.436434 
L 107.00011 -75.955445 
L 107.591878 -75.468061 
L 108.183646 -74.974581 
L 108.775415 -74.475288 
L 109.367183 -73.970453 
L 109.958951 -73.46033 
L 110.55072 -72.945163 
L 111.142488 -72.425181 
L 111.734256 -71.900604 
L 112.326025 -71.371637 
L 112.917793 -70.838479 
L 113.509561 -70.301314 
L 114.10133 -69.76032 
L 114.693098 -69.215664 
L 115.284866 -68.667505 
L 115.876635 -68.115995 
L 116.468403 -67.561275 
L 117.060171 -67.003483 
L 117.65194 -66.442747 
L 118.243708 -65.87919 
L 118.835476 -65.312928 
L 119.427245 -64.744071 
L 120.019013 -64.172725 
L 120.610781 -63.59899 
L 121.20255 -63.022961 
L 121.794318 -62.444727 
L 121.794318 -150.481315 
L 121.794318 -150.481315 
L 121.20255 -149.898916 
L 120.610781 -149.318722 
L 120.019013 -148.740821 
L 119.427245 -148.16531 
L 118.835476 -147.592288 
L 118.243708 -147.02186 
L 117.65194 -146.454138 
L 117.060171 -145.889236 
L 116.468403 -145.327279 
L 115.876635 -144.768394 
L 115.284866 -144.212718 
L 114.693098 -143.660394 
L 114.10133 -143.111573 
L 113.509561 -142.566414 
L 112.917793 -142.025083 
L 112.326025 -141.487759 
L 111.734256 -140.954628 
L 111.142488 -140.425885 
L 110.55072 -139.901738 
L 109.958951 -139.382405 
L 109.367183 -138.868117 
L 108.775415 -138.359116 
L 108.183646 -137.855658 
L 107.591878 -137.358013 
L 107.00011 -136.866464 
L 106.408341 -136.381309 
L 105.816573 -135.902864 
L 105.224805 -135.431458 
L 104.633036 -134.967438 
L 104.041268 -134.511168 
L 103.4495 -134.063031 
L 102.857731 -133.623426 
L 102.265963 -133.19277 
L 101.674195 -132.7715 
L 101.082426 -132.360071 
L 100.490658 -131.958954 
L 99.89889 -131.568641 
L 99.307121 -131.189639 
L 98.715353 -130.82247 
L 98.123585 -130.467673 
L 97.531816 -130.125799 
L 96.940048 -129.797411 
L 96.34828 -129.48308 
L 95.756511 -129.183383 
L 95.164743 -128.8989 
L 94.572975 -128.630209 
L 93.981206 -128.377886 
L 93.389438 -128.142494 
L 92.79767 -127.924582 
L 92.205901 -127.724681 
L 91.614133 -127.543294 
L 91.022365 -127.380896 
L 90.430596 -127.237924 
L 89.838828 -127.114773 
L 89.24706 -127.011792 
L 88.655291 -126.929276 
L 88.063523 -126.867468 
L 87.471755 -126.826548 
L 86.879986 -126.806634 
L 86.288218 -126.807782 
L 85.69645 -126.829982 
L 85.104681 -126.87316 
L 84.512913 -126.937176 
L 83.921145 -127.021831 
L 83.329376 -127.126867 
L 82.737608 -127.251972 
L 82.14584 -127.396781 
L 81.554071 -127.560886 
L 80.962303 -127.743838 
L 80.370535 -127.945153 
L 79.778766 -128.164318 
L 79.186998 -128.400797 
L 78.59523 -128.654035 
L 78.003461 -128.923465 
L 77.411693 -129.208511 
L 76.819925 -129.508593 
L 76.228157 -129.823131 
L 75.636388 -130.15155 
L 75.04462 -130.493282 
L 74.452852 -130.847766 
L 73.861083 -131.214456 
L 73.269315 -131.592817 
L 72.677547 -131.982331 
L 72.085778 -132.382497 
L 71.49401 -132.792828 
L 70.902242 -133.212859 
L 70.310473 -133.64214 
L 69.718705 -134.08024 
L 69.126937 -134.526748 
L 68.535168 -134.981269 
L 67.9434 -135.443427 
L 67.351632 -135.912863 
L 66.759863 -136.389235 
L 66.168095 -136.872218 
L 65.576327 -137.361503 
L 64.984558 -137.856795 
L 64.39279 -138.357816 
L 63.801022 -138.8643 
L 63.209253 -139.375995 
z
"/>
    </defs>
    <g clip-path="url(#p0d5a68db98)">
     <use xlink:href="#m4ab047cb46" x="0" y="258.84" style="fill: #ffffff; fill-opacity: 0.2"/>
    </g>
   </g>
   <g id="PathCollection_1">
    <defs>
     <path id="m1ad5051d68" d="M 0 3 
C 0.795609 3 1.55874 2.683901 2.12132 2.12132 
C 2.683901 1.55874 3 0.795609 3 0 
C 3 -0.795609 2.683901 -1.55874 2.12132 -2.12132 
C 1.55874 -2.683901 0.795609 -3 0 -3 
C -0.795609 -3 -1.55874 -2.683901 -2.12132 -2.12132 
C -2.683901 -1.55874 -3 -0.795609 -3 0 
C -3 0.795609 -2.683901 1.55874 -2.12132 2.12132 
C -1.55874 2.683901 -0.795609 3 0 3 
z
" style="stroke: #ffffff"/>
    </defs>
    <g clip-path="url(#p0d5a68db98)">
     <use xlink:href="#m1ad5051d68" x="66.42523" y="187.657167" style="fill: #ffffff; stroke: #ffffff"/>
     <use xlink:href="#m1ad5051d68" x="88.505046" y="125.254851" style="fill: #ffffff; stroke: #ffffff"/>
     <use xlink:href="#m1ad5051d68" x="121.794318" y="156.834998" style="fill: #ffffff; stroke: #ffffff"/>
     <use xlink:href="#m1ad5051d68" x="111.548671" y="187.657167" style="fill: #ffffff; stroke: #ffffff"/>
     <use xlink:href="#m1ad5051d68" x="78.022329" y="179.186744" style="fill: #ffffff; stroke: #ffffff"/>
     <use xlink:href="#m1ad5051d68" x="117.873097" y="161.908538" style="fill: #ffffff; stroke: #ffffff"/>
     <use xlink:href="#m1ad5051d68" x="80.908172" y="183.752421" style="fill: #ffffff; stroke: #ffffff"/>
     <use xlink:href="#m1ad5051d68" x="73.566638" y="138.272028" style="fill: #ffffff; stroke: #ffffff"/>
     <use xlink:href="#m1ad5051d68" x="70.644469" y="120.399737" style="fill: #ffffff; stroke: #ffffff"/>
     <use xlink:href="#m1ad5051d68" x="76.146796" y="172.986978" style="fill: #ffffff; stroke: #ffffff"/>
     <use xlink:href="#m1ad5051d68" x="76.594171" y="180.52117" style="fill: #ffffff; stroke: #ffffff"/>
     <use xlink:href="#m1ad5051d68" x="86.606571" y="148.525953" style="fill: #ffffff; stroke: #ffffff"/>
     <use xlink:href="#m1ad5051d68" x="63.209253" y="118.149625" style="fill: #ffffff; stroke: #ffffff"/>
     <use xlink:href="#m1ad5051d68" x="101.603186" y="73.900727" style="fill: #ffffff; stroke: #ffffff"/>
    </g>
   </g>
   <g id="matplotlib.axis_1">
    <g id="xtick_1">
     <g id="line2d_1">
      <defs>
       <path id="mb2390e74cf" d="M 0 0 
L 0 3.5 
" style="stroke: #ffffff; stroke-width: 2"/>
      </defs>
      <g>
       <use xlink:href="#mb2390e74cf" x="71.41686" y="202.52" style="fill: #ffffff; stroke: #ffffff; stroke-width: 2"/>
      </g>
     </g>
     <g id="text_1">
      <!-- 0.00 -->
      <g style="fill: #ffffff" transform="translate(60.284047 217.118437) scale(0.1 -0.1)">
       <defs>
        <path id="DejaVuSans-30" d="M 2034 4250 
Q 1547 4250 1301 3770 
Q 1056 3291 1056 2328 
Q 1056 1369 1301 889 
Q 1547 409 2034 409 
Q 2525 409 2770 889 
Q 3016 1369 3016 2328 
Q 3016 3291 2770 3770 
Q 2525 4250 2034 4250 
z
M 2034 4750 
Q 2819 4750 3233 4129 
Q 3647 3509 3647 2328 
Q 3647 1150 3233 529 
Q 2819 -91 2034 -91 
Q 1250 -91 836 529 
Q 422 1150 422 2328 
Q 422 3509 836 4129 
Q 1250 4750 2034 4750 
z
" transform="scale(0.015625)"/>
        <path id="DejaVuSans-2e" d="M 684 794 
L 1344 794 
L 1344 0 
L 684 0 
L 684 794 
z
" transform="scale(0.015625)"/>
       </defs>
       <use xlink:href="#DejaVuSans-30"/>
       <use xlink:href="#DejaVuSans-2e" transform="translate(63.623047 0)"/>
       <use xlink:href="#DejaVuSans-30" transform="translate(95.410156 0)"/>
       <use xlink:href="#DejaVuSans-30" transform="translate(159.033203 0)"/>
      </g>
     </g>
    </g>
    <g id="xtick_2">
     <g id="line2d_2">
      <g>
       <use xlink:href="#mb2390e74cf" x="117.301452" y="202.52" style="fill: #ffffff; stroke: #ffffff; stroke-width: 2"/>
      </g>
     </g>
     <g id="text_2">
      <!-- 0.08 -->
      <g style="fill: #ffffff" transform="translate(106.168639 217.118437) scale(0.1 -0.1)">
       <defs>
        <path id="DejaVuSans-38" d="M 2034 2216 
Q 1584 2216 1326 1975 
Q 1069 1734 1069 1313 
Q 1069 891 1326 650 
Q 1584 409 2034 409 
Q 2484 409 2743 651 
Q 3003 894 3003 1313 
Q 3003 1734 2745 1975 
Q 2488 2216 2034 2216 
z
M 1403 2484 
Q 997 2584 770 2862 
Q 544 3141 544 3541 
Q 544 4100 942 4425 
Q 1341 4750 2034 4750 
Q 2731 4750 3128 4425 
Q 3525 4100 3525 3541 
Q 3525 3141 3298 2862 
Q 3072 2584 2669 2484 
Q 3125 2378 3379 2068 
Q 3634 1759 3634 1313 
Q 3634 634 3220 271 
Q 2806 -91 2034 -91 
Q 1263 -91 848 271 
Q 434 634 434 1313 
Q 434 1759 690 2068 
Q 947 2378 1403 2484 
z
M 1172 3481 
Q 1172 3119 1398 2916 
Q 1625 2713 2034 2713 
Q 2441 2713 2670 2916 
Q 2900 3119 2900 3481 
Q 2900 3844 2670 4047 
Q 2441 4250 2034 4250 
Q 1625 4250 1398 4047 
Q 1172 3844 1172 3481 
z
" transform="scale(0.015625)"/>
       </defs>
       <use xlink:href="#DejaVuSans-30"/>
       <use xlink:href="#DejaVuSans-2e" transform="translate(63.623047 0)"/>
       <use xlink:href="#DejaVuSans-30" transform="translate(95.410156 0)"/>
       <use xlink:href="#DejaVuSans-38" transform="translate(159.033203 0)"/>
      </g>
     </g>
    </g>
   </g>
   <g id="matplotlib.axis_2">
    <g id="ytick_1">
     <g id="line2d_3">
      <defs>
       <path id="m5d5637b3f8" d="M 0 0 
L -3.5 0 
" style="stroke: #ffffff; stroke-width: 2"/>
      </defs>
      <g>
       <use xlink:href="#m5d5637b3f8" x="60.28" y="187.657167" style="fill: #ffffff; stroke: #ffffff; stroke-width: 2"/>
      </g>
     </g>
     <g id="text_3">
      <!-- 0.0 -->
      <g style="fill: #ffffff" transform="translate(37.376875 191.456386) scale(0.1 -0.1)">
       <use xlink:href="#DejaVuSans-30"/>
       <use xlink:href="#DejaVuSans-2e" transform="translate(63.623047 0)"/>
       <use xlink:href="#DejaVuSans-30" transform="translate(95.410156 0)"/>
      </g>
     </g>
    </g>
    <g id="ytick_2">
     <g id="line2d_4">
      <g>
       <use xlink:href="#m5d5637b3f8" x="60.28" y="152.565795" style="fill: #ffffff; stroke: #ffffff; stroke-width: 2"/>
      </g>
     </g>
     <g id="text_4">
      <!-- 0.2 -->
      <g style="fill: #ffffff" transform="translate(37.376875 156.365014) scale(0.1 -0.1)">
       <defs>
        <path id="DejaVuSans-32" d="M 1228 531 
L 3431 531 
L 3431 0 
L 469 0 
L 469 531 
Q 828 903 1448 1529 
Q 2069 2156 2228 2338 
Q 2531 2678 2651 2914 
Q 2772 3150 2772 3378 
Q 2772 3750 2511 3984 
Q 2250 4219 1831 4219 
Q 1534 4219 1204 4116 
Q 875 4013 500 3803 
L 500 4441 
Q 881 4594 1212 4672 
Q 1544 4750 1819 4750 
Q 2544 4750 2975 4387 
Q 3406 4025 3406 3419 
Q 3406 3131 3298 2873 
Q 3191 2616 2906 2266 
Q 2828 2175 2409 1742 
Q 1991 1309 1228 531 
z
" transform="scale(0.015625)"/>
       </defs>
       <use xlink:href="#DejaVuSans-30"/>
       <use xlink:href="#DejaVuSans-2e" transform="translate(63.623047 0)"/>
       <use xlink:href="#DejaVuSans-32" transform="translate(95.410156 0)"/>
      </g>
     </g>
    </g>
    <g id="ytick_3">
     <g id="line2d_5">
      <g>
       <use xlink:href="#m5d5637b3f8" x="60.28" y="117.474423" style="fill: #ffffff; stroke: #ffffff; stroke-width: 2"/>
      </g>
     </g>
     <g id="text_5">
      <!-- 0.4 -->
      <g style="fill: #ffffff" transform="translate(37.376875 121.273642) scale(0.1 -0.1)">
       <defs>
        <path id="DejaVuSans-34" d="M 2419 4116 
L 825 1625 
L 2419 1625 
L 2419 4116 
z
M 2253 4666 
L 3047 4666 
L 3047 1625 
L 3713 1625 
L 3713 1100 
L 3047 1100 
L 3047 0 
L 2419 0 
L 2419 1100 
L 313 1100 
L 313 1709 
L 2253 4666 
z
" transform="scale(0.015625)"/>
       </defs>
       <use xlink:href="#DejaVuSans-30"/>
       <use xlink:href="#DejaVuSans-2e" transform="translate(63.623047 0)"/>
       <use xlink:href="#DejaVuSans-34" transform="translate(95.410156 0)"/>
      </g>
     </g>
    </g>
    <g id="ytick_4">
     <g id="line2d_6">
      <g>
       <use xlink:href="#m5d5637b3f8" x="60.28" y="82.383051" style="fill: #ffffff; stroke: #ffffff; stroke-width: 2"/>
      </g>
     </g>
     <g id="text_6">
      <!-- 0.6 -->
      <g style="fill: #ffffff" transform="translate(37.376875 86.18227) scale(0.1 -0.1)">
       <defs>
        <path id="DejaVuSans-36" d="M 2113 2584 
Q 1688 2584 1439 2293 
Q 1191 2003 1191 1497 
Q 1191 994 1439 701 
Q 1688 409 2113 409 
Q 2538 409 2786 701 
Q 3034 994 3034 1497 
Q 3034 2003 2786 2293 
Q 2538 2584 2113 2584 
z
M 3366 4563 
L 3366 3988 
Q 3128 4100 2886 4159 
Q 2644 4219 2406 4219 
Q 1781 4219 1451 3797 
Q 1122 3375 1075 2522 
Q 1259 2794 1537 2939 
Q 1816 3084 2150 3084 
Q 2853 3084 3261 2657 
Q 3669 2231 3669 1497 
Q 3669 778 3244 343 
Q 2819 -91 2113 -91 
Q 1303 -91 875 529 
Q 447 1150 447 2328 
Q 447 3434 972 4092 
Q 1497 4750 2381 4750 
Q 2619 4750 2861 4703 
Q 3103 4656 3366 4563 
z
" transform="scale(0.015625)"/>
       </defs>
       <use xlink:href="#DejaVuSans-30"/>
       <use xlink:href="#DejaVuSans-2e" transform="translate(63.623047 0)"/>
       <use xlink:href="#DejaVuSans-36" transform="translate(95.410156 0)"/>
      </g>
     </g>
    </g>
   </g>
   <g id="line2d_7">
    <path d="M 63.209253 152.583164 
L 63.801022 152.581081 
L 64.39279 152.578999 
L 64.984558 152.576916 
L 65.576327 152.574833 
L 66.168095 152.572751 
L 66.759863 152.570668 
L 67.351632 152.568585 
L 67.9434 152.566503 
L 68.535168 152.56442 
L 69.126937 152.562337 
L 69.718705 152.560255 
L 70.310473 152.558172 
L 70.902242 152.556089 
L 71.49401 152.554007 
L 72.085778 152.551924 
L 72.677547 152.549841 
L 73.269315 152.547758 
L 73.861083 152.545676 
L 74.452852 152.543593 
L 75.04462 152.54151 
L 75.636388 152.539428 
L 76.228157 152.537345 
L 76.819925 152.535262 
L 77.411693 152.53318 
L 78.003461 152.531097 
L 78.59523 152.529014 
L 79.186998 152.526932 
L 79.778766 152.524849 
L 80.370535 152.522766 
L 80.962303 152.520684 
L 81.554071 152.518601 
L 82.14584 152.516518 
L 82.737608 152.514436 
L 83.329376 152.512353 
L 83.921145 152.51027 
L 84.512913 152.508188 
L 85.104681 152.506105 
L 85.69645 152.504022 
L 86.288218 152.50194 
L 86.879986 152.499857 
L 87.471755 152.497774 
L 88.063523 152.495691 
L 88.655291 152.493609 
L 89.24706 152.491526 
L 89.838828 152.489443 
L 90.430596 152.487361 
L 91.022365 152.485278 
L 91.614133 152.483195 
L 92.205901 152.481113 
L 92.79767 152.47903 
L 93.389438 152.476947 
L 93.981206 152.474865 
L 94.572975 152.472782 
L 95.164743 152.470699 
L 95.756511 152.468617 
L 96.34828 152.466534 
L 96.940048 152.464451 
L 97.531816 152.462369 
L 98.123585 152.460286 
L 98.715353 152.458203 
L 99.307121 152.456121 
L 99.89889 152.454038 
L 100.490658 152.451955 
L 101.082426 152.449873 
L 101.674195 152.44779 
L 102.265963 152.445707 
L 102.857731 152.443625 
L 103.4495 152.441542 
L 104.041268 152.439459 
L 104.633036 152.437376 
L 105.224805 152.435294 
L 105.816573 152.433211 
L 106.408341 152.431128 
L 107.00011 152.429046 
L 107.591878 152.426963 
L 108.183646 152.42488 
L 108.775415 152.422798 
L 109.367183 152.420715 
L 109.958951 152.418632 
L 110.55072 152.41655 
L 111.142488 152.414467 
L 111.734256 152.412384 
L 112.326025 152.410302 
L 112.917793 152.408219 
L 113.509561 152.406136 
L 114.10133 152.404054 
L 114.693098 152.401971 
L 115.284866 152.399888 
L 115.876635 152.397806 
L 116.468403 152.395723 
L 117.060171 152.39364 
L 117.65194 152.391558 
L 118.243708 152.389475 
L 118.835476 152.387392 
L 119.427245 152.385309 
L 120.019013 152.383227 
L 120.610781 152.381144 
L 121.20255 152.379061 
L 121.794318 152.376979 
" clip-path="url(#p0d5a68db98)" style="fill: none; stroke-dasharray: 5.55,2.4; stroke-dashoffset: 0; stroke: #ffffff; stroke-width: 1.5"/>
   </g>
   <g id="line2d_8">
    <path d="M 71.41686 202.52 
L 71.41686 67.776 
" clip-path="url(#p0d5a68db98)" style="fill: none; stroke: #ffffff; stroke-width: 0.8; stroke-linecap: square"/>
   </g>
   <g id="line2d_9">
    <path d="M 60.28 187.657167 
L 124.723571 187.657167 
" clip-path="url(#p0d5a68db98)" style="fill: none; stroke: #ffffff; stroke-width: 0.8; stroke-linecap: square"/>
   </g>
   <g id="patch_3">
    <path d="M 60.28 187.657167 
L 60.28 82.383051 
" style="fill: none; stroke: #ffffff; stroke-width: 2; stroke-linejoin: miter; stroke-linecap: square"/>
   </g>
   <g id="patch_4">
    <path d="M 71.41686 202.52 
L 117.301452 202.52 
" style="fill: none; stroke: #ffffff; stroke-width: 2; stroke-linejoin: miter; stroke-linecap: square"/>
   </g>
   <g id="text_7">
    <!-- M1 -->
    <g style="fill: #ffffff" transform="translate(83.507411 61.776) scale(0.12 -0.12)">
     <defs>
      <path id="DejaVuSans-4d" d="M 628 4666 
L 1569 4666 
L 2759 1491 
L 3956 4666 
L 4897 4666 
L 4897 0 
L 4281 0 
L 4281 4097 
L 3078 897 
L 2444 897 
L 1241 4097 
L 1241 0 
L 628 0 
L 628 4666 
z
" transform="scale(0.015625)"/>
      <path id="DejaVuSans-31" d="M 794 531 
L 1825 531 
L 1825 4091 
L 703 3866 
L 703 4441 
L 1819 4666 
L 2450 4666 
L 2450 531 
L 3481 531 
L 3481 0 
L 794 0 
L 794 531 
z
" transform="scale(0.015625)"/>
     </defs>
     <use xlink:href="#DejaVuSans-4d"/>
     <use xlink:href="#DejaVuSans-31" transform="translate(86.279297 0)"/>
    </g>
   </g>
  </g>
  <g id="axes_2">
   <g id="patch_5">
    <path d="M 141.33 202.52 
L 205.773571 202.52 
L 205.773571 67.776 
L 141.33 67.776 
z
"/>
   </g>
   <g id="FillBetweenPolyCollection_2">
    <defs>
     <path id="m6d94b507bb" d="M 144.259253 -149.357613 
L 144.259253 -91.922547 
L 144.851022 -92.403464 
L 145.44279 -92.879862 
L 146.034558 -93.351523 
L 146.626327 -93.818217 
L 147.218095 -94.279702 
L 147.809863 -94.735722 
L 148.401632 -95.186011 
L 148.9934 -95.630285 
L 149.585168 -96.068248 
L 150.176937 -96.499589 
L 150.768705 -96.923982 
L 151.360473 -97.341086 
L 151.952242 -97.750541 
L 152.54401 -98.151976 
L 153.135778 -98.545001 
L 153.727547 -98.929211 
L 154.319315 -99.304185 
L 154.911083 -99.669488 
L 155.502852 -100.024671 
L 156.09462 -100.369271 
L 156.686388 -100.702812 
L 157.278157 -101.024811 
L 157.869925 -101.334774 
L 158.461693 -101.632202 
L 159.053461 -101.916591 
L 159.64523 -102.187441 
L 160.236998 -102.44425 
L 160.828766 -102.686528 
L 161.420535 -102.913793 
L 162.012303 -103.12558 
L 162.604071 -103.321444 
L 163.19584 -103.500967 
L 163.787608 -103.663757 
L 164.379376 -103.809463 
L 164.971145 -103.937767 
L 165.562913 -104.048398 
L 166.154681 -104.141134 
L 166.74645 -104.2158 
L 167.338218 -104.272277 
L 167.929986 -104.3105 
L 168.521755 -104.330461 
L 169.113523 -104.332206 
L 169.705291 -104.315839 
L 170.29706 -104.281518 
L 170.888828 -104.22945 
L 171.480596 -104.159894 
L 172.072365 -104.07315 
L 172.664133 -103.969563 
L 173.255901 -103.84951 
L 173.84767 -103.713404 
L 174.439438 -103.561681 
L 175.031206 -103.3948 
L 175.622975 -103.213239 
L 176.214743 -103.017485 
L 176.806511 -102.808038 
L 177.39828 -102.585399 
L 177.990048 -102.350071 
L 178.581816 -102.102554 
L 179.173585 -101.843343 
L 179.765353 -101.572927 
L 180.357121 -101.291783 
L 180.94889 -101.000379 
L 181.540658 -100.699167 
L 182.132426 -100.388587 
L 182.724195 -100.069065 
L 183.315963 -99.74101 
L 183.907731 -99.404817 
L 184.4995 -99.060864 
L 185.091268 -98.709513 
L 185.683036 -98.35111 
L 186.274805 -97.985987 
L 186.866573 -97.614459 
L 187.458341 -97.236828 
L 188.05011 -96.853379 
L 188.641878 -96.464385 
L 189.233646 -96.070106 
L 189.825415 -95.670786 
L 190.417183 -95.26666 
L 191.008951 -94.85795 
L 191.60072 -94.444865 
L 192.192488 -94.027606 
L 192.784256 -93.606362 
L 193.376025 -93.181313 
L 193.967793 -92.752628 
L 194.559561 -92.320469 
L 195.15133 -91.88499 
L 195.743098 -91.446336 
L 196.334866 -91.004645 
L 196.926635 -90.560047 
L 197.518403 -90.112667 
L 198.110171 -89.662622 
L 198.70194 -89.210025 
L 199.293708 -88.754982 
L 199.885476 -88.297593 
L 200.477245 -87.837955 
L 201.069013 -87.376158 
L 201.660781 -86.912289 
L 202.25255 -86.446431 
L 202.844318 -85.978662 
L 202.844318 -162.31495 
L 202.844318 -162.31495 
L 202.25255 -161.776338 
L 201.660781 -161.239637 
L 201.069013 -160.704925 
L 200.477245 -160.172286 
L 199.885476 -159.641804 
L 199.293708 -159.113573 
L 198.70194 -158.587686 
L 198.110171 -158.064246 
L 197.518403 -157.543359 
L 196.926635 -157.025136 
L 196.334866 -156.509695 
L 195.743098 -155.997161 
L 195.15133 -155.487664 
L 194.559561 -154.981342 
L 193.967793 -154.47834 
L 193.376025 -153.978813 
L 192.784256 -153.48292 
L 192.192488 -152.990833 
L 191.60072 -152.502731 
L 191.008951 -152.018803 
L 190.417183 -151.53925 
L 189.825415 -151.064281 
L 189.233646 -150.594119 
L 188.641878 -150.128996 
L 188.05011 -149.669159 
L 187.458341 -149.214868 
L 186.866573 -148.766393 
L 186.274805 -148.324023 
L 185.683036 -147.888057 
L 185.091268 -147.458811 
L 184.4995 -147.036617 
L 183.907731 -146.621821 
L 183.315963 -146.214785 
L 182.724195 -145.815887 
L 182.132426 -145.425522 
L 181.540658 -145.0441 
L 180.94889 -144.672045 
L 180.357121 -144.309797 
L 179.765353 -143.95781 
L 179.173585 -143.616551 
L 178.581816 -143.286498 
L 177.990048 -142.968138 
L 177.39828 -142.661967 
L 176.806511 -142.368484 
L 176.214743 -142.088194 
L 175.622975 -141.821598 
L 175.031206 -141.569194 
L 174.439438 -141.33147 
L 173.84767 -141.108904 
L 173.255901 -140.901954 
L 172.664133 -140.711059 
L 172.072365 -140.536629 
L 171.480596 -140.379042 
L 170.888828 -140.238643 
L 170.29706 -140.115732 
L 169.705291 -140.010568 
L 169.113523 -139.923358 
L 168.521755 -139.854261 
L 167.929986 -139.803378 
L 167.338218 -139.770758 
L 166.74645 -139.756392 
L 166.154681 -139.760216 
L 165.562913 -139.782108 
L 164.971145 -139.821897 
L 164.379376 -139.879358 
L 163.787608 -139.95422 
L 163.19584 -140.046168 
L 162.604071 -140.154848 
L 162.012303 -140.279869 
L 161.420535 -140.420813 
L 160.828766 -140.577235 
L 160.236998 -140.74867 
L 159.64523 -140.934636 
L 159.053461 -141.134643 
L 158.461693 -141.34819 
L 157.869925 -141.574774 
L 157.278157 -141.813894 
L 156.686388 -142.06505 
L 156.09462 -142.327749 
L 155.502852 -142.601506 
L 154.911083 -142.885845 
L 154.319315 -143.180306 
L 153.727547 -143.484437 
L 153.135778 -143.797804 
L 152.54401 -144.119986 
L 151.952242 -144.450578 
L 151.360473 -144.78919 
L 150.768705 -145.135451 
L 150.176937 -145.489001 
L 149.585168 -145.849499 
L 148.9934 -146.216619 
L 148.401632 -146.59005 
L 147.809863 -146.969496 
L 147.218095 -147.354674 
L 146.626327 -147.745316 
L 146.034558 -148.141167 
L 145.44279 -148.541985 
L 144.851022 -148.94754 
L 144.259253 -149.357613 
z
"/>
    </defs>
    <g clip-path="url(#p4134fcd0d1)">
     <use xlink:href="#m6d94b507bb" x="0" y="258.84" style="fill: #ffffff; fill-opacity: 0.2"/>
    </g>
   </g>
   <g id="PathCollection_2">
    <g clip-path="url(#p4134fcd0d1)">
     <use xlink:href="#m1ad5051d68" x="147.47523" y="187.655741" style="fill: #ffffff; stroke: #ffffff"/>
     <use xlink:href="#m1ad5051d68" x="169.555046" y="125.238349" style="fill: #ffffff; stroke: #ffffff"/>
     <use xlink:href="#m1ad5051d68" x="202.844318" y="104.92557" style="fill: #ffffff; stroke: #ffffff"/>
     <use xlink:href="#m1ad5051d68" x="192.598671" y="153.400111" style="fill: #ffffff; stroke: #ffffff"/>
     <use xlink:href="#m1ad5051d68" x="159.072329" y="165.6653" style="fill: #ffffff; stroke: #ffffff"/>
     <use xlink:href="#m1ad5051d68" x="198.923097" y="171.387951" style="fill: #ffffff; stroke: #ffffff"/>
     <use xlink:href="#m1ad5051d68" x="161.958172" y="150.675873" style="fill: #ffffff; stroke: #ffffff"/>
     <use xlink:href="#m1ad5051d68" x="154.616638" y="125.525071" style="fill: #ffffff; stroke: #ffffff"/>
     <use xlink:href="#m1ad5051d68" x="151.694469" y="111.314283" style="fill: #ffffff; stroke: #ffffff"/>
     <use xlink:href="#m1ad5051d68" x="157.196796" y="155.141176" style="fill: #ffffff; stroke: #ffffff"/>
     <use xlink:href="#m1ad5051d68" x="157.644171" y="141.041748" style="fill: #ffffff; stroke: #ffffff"/>
     <use xlink:href="#m1ad5051d68" x="167.656571" y="136.684844" style="fill: #ffffff; stroke: #ffffff"/>
     <use xlink:href="#m1ad5051d68" x="144.259253" y="92.438033" style="fill: #ffffff; stroke: #ffffff"/>
     <use xlink:href="#m1ad5051d68" x="182.653186" y="94.040702" style="fill: #ffffff; stroke: #ffffff"/>
    </g>
   </g>
   <g id="matplotlib.axis_3">
    <g id="xtick_3">
     <g id="line2d_10">
      <g>
       <use xlink:href="#mb2390e74cf" x="152.46686" y="202.52" style="fill: #ffffff; stroke: #ffffff; stroke-width: 2"/>
      </g>
     </g>
     <g id="text_8">
      <!-- 0.00 -->
      <g style="fill: #ffffff" transform="translate(141.334047 217.118437) scale(0.1 -0.1)">
       <use xlink:href="#DejaVuSans-30"/>
       <use xlink:href="#DejaVuSans-2e" transform="translate(63.623047 0)"/>
       <use xlink:href="#DejaVuSans-30" transform="translate(95.410156 0)"/>
       <use xlink:href="#DejaVuSans-30" transform="translate(159.033203 0)"/>
      </g>
     </g>
    </g>
    <g id="xtick_4">
     <g id="line2d_11">
      <g>
       <use xlink:href="#mb2390e74cf" x="198.351452" y="202.52" style="fill: #ffffff; stroke: #ffffff; stroke-width: 2"/>
      </g>
     </g>
     <g id="text_9">
      <!-- 0.08 -->
      <g style="fill: #ffffff" transform="translate(187.218639 217.118437) scale(0.1 -0.1)">
       <use xlink:href="#DejaVuSans-30"/>
       <use xlink:href="#DejaVuSans-2e" transform="translate(63.623047 0)"/>
       <use xlink:href="#DejaVuSans-30" transform="translate(95.410156 0)"/>
       <use xlink:href="#DejaVuSans-38" transform="translate(159.033203 0)"/>
      </g>
     </g>
    </g>
   </g>
   <g id="matplotlib.axis_4">
    <g id="ytick_5">
     <g id="line2d_12">
      <g>
       <use xlink:href="#m5d5637b3f8" x="141.33" y="187.657167" style="fill: #ffffff; stroke: #ffffff; stroke-width: 2"/>
      </g>
     </g>
    </g>
    <g id="ytick_6">
     <g id="line2d_13">
      <g>
       <use xlink:href="#m5d5637b3f8" x="141.33" y="152.565795" style="fill: #ffffff; stroke: #ffffff; stroke-width: 2"/>
      </g>
     </g>
    </g>
    <g id="ytick_7">
     <g id="line2d_14">
      <g>
       <use xlink:href="#m5d5637b3f8" x="141.33" y="117.474423" style="fill: #ffffff; stroke: #ffffff; stroke-width: 2"/>
      </g>
     </g>
    </g>
    <g id="ytick_8">
     <g id="line2d_15">
      <g>
       <use xlink:href="#m5d5637b3f8" x="141.33" y="82.383051" style="fill: #ffffff; stroke: #ffffff; stroke-width: 2"/>
      </g>
     </g>
    </g>
   </g>
   <g id="line2d_16">
    <path d="M 144.259253 138.19992 
L 144.851022 138.164498 
L 145.44279 138.129077 
L 146.034558 138.093655 
L 146.626327 138.058234 
L 147.218095 138.022812 
L 147.809863 137.987391 
L 148.401632 137.951969 
L 148.9934 137.916548 
L 149.585168 137.881126 
L 150.176937 137.845705 
L 150.768705 137.810284 
L 151.360473 137.774862 
L 151.952242 137.739441 
L 152.54401 137.704019 
L 153.135778 137.668598 
L 153.727547 137.633176 
L 154.319315 137.597755 
L 154.911083 137.562333 
L 155.502852 137.526912 
L 156.09462 137.49149 
L 156.686388 137.456069 
L 157.278157 137.420647 
L 157.869925 137.385226 
L 158.461693 137.349804 
L 159.053461 137.314383 
L 159.64523 137.278961 
L 160.236998 137.24354 
L 160.828766 137.208118 
L 161.420535 137.172697 
L 162.012303 137.137276 
L 162.604071 137.101854 
L 163.19584 137.066433 
L 163.787608 137.031011 
L 164.379376 136.99559 
L 164.971145 136.960168 
L 165.562913 136.924747 
L 166.154681 136.889325 
L 166.74645 136.853904 
L 167.338218 136.818482 
L 167.929986 136.783061 
L 168.521755 136.747639 
L 169.113523 136.712218 
L 169.705291 136.676796 
L 170.29706 136.641375 
L 170.888828 136.605953 
L 171.480596 136.570532 
L 172.072365 136.53511 
L 172.664133 136.499689 
L 173.255901 136.464268 
L 173.84767 136.428846 
L 174.439438 136.393425 
L 175.031206 136.358003 
L 175.622975 136.322582 
L 176.214743 136.28716 
L 176.806511 136.251739 
L 177.39828 136.216317 
L 177.990048 136.180896 
L 178.581816 136.145474 
L 179.173585 136.110053 
L 179.765353 136.074631 
L 180.357121 136.03921 
L 180.94889 136.003788 
L 181.540658 135.968367 
L 182.132426 135.932945 
L 182.724195 135.897524 
L 183.315963 135.862102 
L 183.907731 135.826681 
L 184.4995 135.79126 
L 185.091268 135.755838 
L 185.683036 135.720417 
L 186.274805 135.684995 
L 186.866573 135.649574 
L 187.458341 135.614152 
L 188.05011 135.578731 
L 188.641878 135.543309 
L 189.233646 135.507888 
L 189.825415 135.472466 
L 190.417183 135.437045 
L 191.008951 135.401623 
L 191.60072 135.366202 
L 192.192488 135.33078 
L 192.784256 135.295359 
L 193.376025 135.259937 
L 193.967793 135.224516 
L 194.559561 135.189094 
L 195.15133 135.153673 
L 195.743098 135.118252 
L 196.334866 135.08283 
L 196.926635 135.047409 
L 197.518403 135.011987 
L 198.110171 134.976566 
L 198.70194 134.941144 
L 199.293708 134.905723 
L 199.885476 134.870301 
L 200.477245 134.83488 
L 201.069013 134.799458 
L 201.660781 134.764037 
L 202.25255 134.728615 
L 202.844318 134.693194 
" clip-path="url(#p4134fcd0d1)" style="fill: none; stroke-dasharray: 5.55,2.4; stroke-dashoffset: 0; stroke: #ffffff; stroke-width: 1.5"/>
   </g>
   <g id="line2d_17">
    <path d="M 152.46686 202.52 
L 152.46686 67.776 
" clip-path="url(#p4134fcd0d1)" style="fill: none; stroke: #ffffff; stroke-width: 0.8; stroke-linecap: square"/>
   </g>
   <g id="line2d_18">
    <path d="M 141.33 187.657167 
L 205.773571 187.657167 
" clip-path="url(#p4134fcd0d1)" style="fill: none; stroke: #ffffff; stroke-width: 0.8; stroke-linecap: square"/>
   </g>
   <g id="patch_6">
    <path d="M 141.33 187.657167 
L 141.33 82.383051 
" style="fill: none; stroke: #ffffff; stroke-width: 2; stroke-linejoin: miter; stroke-linecap: square"/>
   </g>
   <g id="patch_7">
    <path d="M 152.46686 202.52 
L 198.351452 202.52 
" style="fill: none; stroke: #ffffff; stroke-width: 2; stroke-linejoin: miter; stroke-linecap: square"/>
   </g>
   <g id="text_10">
    <!-- S1 -->
    <g style="fill: #ffffff" transform="translate(165.925223 61.776) scale(0.12 -0.12)">
     <defs>
      <path id="DejaVuSans-53" d="M 3425 4513 
L 3425 3897 
Q 3066 4069 2747 4153 
Q 2428 4238 2131 4238 
Q 1616 4238 1336 4038 
Q 1056 3838 1056 3469 
Q 1056 3159 1242 3001 
Q 1428 2844 1947 2747 
L 2328 2669 
Q 3034 2534 3370 2195 
Q 3706 1856 3706 1288 
Q 3706 609 3251 259 
Q 2797 -91 1919 -91 
Q 1588 -91 1214 -16 
Q 841 59 441 206 
L 441 856 
Q 825 641 1194 531 
Q 1563 422 1919 422 
Q 2459 422 2753 634 
Q 3047 847 3047 1241 
Q 3047 1584 2836 1778 
Q 2625 1972 2144 2069 
L 1759 2144 
Q 1053 2284 737 2584 
Q 422 2884 422 3419 
Q 422 4038 858 4394 
Q 1294 4750 2059 4750 
Q 2388 4750 2728 4690 
Q 3069 4631 3425 4513 
z
" transform="scale(0.015625)"/>
     </defs>
     <use xlink:href="#DejaVuSans-53"/>
     <use xlink:href="#DejaVuSans-31" transform="translate(63.476562 0)"/>
    </g>
   </g>
  </g>
  <g id="text_11">
   <!-- finger preactivation (N) -->
   <g style="fill: #ffffff" transform="translate(40.798125 249.144375) scale(0.12 -0.12)">
    <defs>
     <path id="DejaVuSans-66" d="M 2375 4863 
L 2375 4384 
L 1825 4384 
Q 1516 4384 1395 4259 
Q 1275 4134 1275 3809 
L 1275 3500 
L 2222 3500 
L 2222 3053 
L 1275 3053 
L 1275 0 
L 697 0 
L 697 3053 
L 147 3053 
L 147 3500 
L 697 3500 
L 697 3744 
Q 697 4328 969 4595 
Q 1241 4863 1831 4863 
L 2375 4863 
z
" transform="scale(0.015625)"/>
     <path id="DejaVuSans-69" d="M 603 3500 
L 1178 3500 
L 1178 0 
L 603 0 
L 603 3500 
z
M 603 4863 
L 1178 4863 
L 1178 4134 
L 603 4134 
L 603 4863 
z
" transform="scale(0.015625)"/>
     <path id="DejaVuSans-6e" d="M 3513 2113 
L 3513 0 
L 2938 0 
L 2938 2094 
Q 2938 2591 2744 2837 
Q 2550 3084 2163 3084 
Q 1697 3084 1428 2787 
Q 1159 2491 1159 1978 
L 1159 0 
L 581 0 
L 581 3500 
L 1159 3500 
L 1159 2956 
Q 1366 3272 1645 3428 
Q 1925 3584 2291 3584 
Q 2894 3584 3203 3211 
Q 3513 2838 3513 2113 
z
" transform="scale(0.015625)"/>
     <path id="DejaVuSans-67" d="M 2906 1791 
Q 2906 2416 2648 2759 
Q 2391 3103 1925 3103 
Q 1463 3103 1205 2759 
Q 947 2416 947 1791 
Q 947 1169 1205 825 
Q 1463 481 1925 481 
Q 2391 481 2648 825 
Q 2906 1169 2906 1791 
z
M 3481 434 
Q 3481 -459 3084 -895 
Q 2688 -1331 1869 -1331 
Q 1566 -1331 1297 -1286 
Q 1028 -1241 775 -1147 
L 775 -588 
Q 1028 -725 1275 -790 
Q 1522 -856 1778 -856 
Q 2344 -856 2625 -561 
Q 2906 -266 2906 331 
L 2906 616 
Q 2728 306 2450 153 
Q 2172 0 1784 0 
Q 1141 0 747 490 
Q 353 981 353 1791 
Q 353 2603 747 3093 
Q 1141 3584 1784 3584 
Q 2172 3584 2450 3431 
Q 2728 3278 2906 2969 
L 2906 3500 
L 3481 3500 
L 3481 434 
z
" transform="scale(0.015625)"/>
     <path id="DejaVuSans-65" d="M 3597 1894 
L 3597 1613 
L 953 1613 
Q 991 1019 1311 708 
Q 1631 397 2203 397 
Q 2534 397 2845 478 
Q 3156 559 3463 722 
L 3463 178 
Q 3153 47 2828 -22 
Q 2503 -91 2169 -91 
Q 1331 -91 842 396 
Q 353 884 353 1716 
Q 353 2575 817 3079 
Q 1281 3584 2069 3584 
Q 2775 3584 3186 3129 
Q 3597 2675 3597 1894 
z
M 3022 2063 
Q 3016 2534 2758 2815 
Q 2500 3097 2075 3097 
Q 1594 3097 1305 2825 
Q 1016 2553 972 2059 
L 3022 2063 
z
" transform="scale(0.015625)"/>
     <path id="DejaVuSans-72" d="M 2631 2963 
Q 2534 3019 2420 3045 
Q 2306 3072 2169 3072 
Q 1681 3072 1420 2755 
Q 1159 2438 1159 1844 
L 1159 0 
L 581 0 
L 581 3500 
L 1159 3500 
L 1159 2956 
Q 1341 3275 1631 3429 
Q 1922 3584 2338 3584 
Q 2397 3584 2469 3576 
Q 2541 3569 2628 3553 
L 2631 2963 
z
" transform="scale(0.015625)"/>
     <path id="DejaVuSans-20" transform="scale(0.015625)"/>
     <path id="DejaVuSans-70" d="M 1159 525 
L 1159 -1331 
L 581 -1331 
L 581 3500 
L 1159 3500 
L 1159 2969 
Q 1341 3281 1617 3432 
Q 1894 3584 2278 3584 
Q 2916 3584 3314 3078 
Q 3713 2572 3713 1747 
Q 3713 922 3314 415 
Q 2916 -91 2278 -91 
Q 1894 -91 1617 61 
Q 1341 213 1159 525 
z
M 3116 1747 
Q 3116 2381 2855 2742 
Q 2594 3103 2138 3103 
Q 1681 3103 1420 2742 
Q 1159 2381 1159 1747 
Q 1159 1113 1420 752 
Q 1681 391 2138 391 
Q 2594 391 2855 752 
Q 3116 1113 3116 1747 
z
" transform="scale(0.015625)"/>
     <path id="DejaVuSans-61" d="M 2194 1759 
Q 1497 1759 1228 1600 
Q 959 1441 959 1056 
Q 959 750 1161 570 
Q 1363 391 1709 391 
Q 2188 391 2477 730 
Q 2766 1069 2766 1631 
L 2766 1759 
L 2194 1759 
z
M 3341 1997 
L 3341 0 
L 2766 0 
L 2766 531 
Q 2569 213 2275 61 
Q 1981 -91 1556 -91 
Q 1019 -91 701 211 
Q 384 513 384 1019 
Q 384 1609 779 1909 
Q 1175 2209 1959 2209 
L 2766 2209 
L 2766 2266 
Q 2766 2663 2505 2880 
Q 2244 3097 1772 3097 
Q 1472 3097 1187 3025 
Q 903 2953 641 2809 
L 641 3341 
Q 956 3463 1253 3523 
Q 1550 3584 1831 3584 
Q 2591 3584 2966 3190 
Q 3341 2797 3341 1997 
z
" transform="scale(0.015625)"/>
     <path id="DejaVuSans-63" d="M 3122 3366 
L 3122 2828 
Q 2878 2963 2633 3030 
Q 2388 3097 2138 3097 
Q 1578 3097 1268 2742 
Q 959 2388 959 1747 
Q 959 1106 1268 751 
Q 1578 397 2138 397 
Q 2388 397 2633 464 
Q 2878 531 3122 666 
L 3122 134 
Q 2881 22 2623 -34 
Q 2366 -91 2075 -91 
Q 1284 -91 818 406 
Q 353 903 353 1747 
Q 353 2603 823 3093 
Q 1294 3584 2113 3584 
Q 2378 3584 2631 3529 
Q 2884 3475 3122 3366 
z
" transform="scale(0.015625)"/>
     <path id="DejaVuSans-74" d="M 1172 4494 
L 1172 3500 
L 2356 3500 
L 2356 3053 
L 1172 3053 
L 1172 1153 
Q 1172 725 1289 603 
Q 1406 481 1766 481 
L 2356 481 
L 2356 0 
L 1766 0 
Q 1100 0 847 248 
Q 594 497 594 1153 
L 594 3053 
L 172 3053 
L 172 3500 
L 594 3500 
L 594 4494 
L 1172 4494 
z
" transform="scale(0.015625)"/>
     <path id="DejaVuSans-76" d="M 191 3500 
L 800 3500 
L 1894 563 
L 2988 3500 
L 3597 3500 
L 2284 0 
L 1503 0 
L 191 3500 
z
" transform="scale(0.015625)"/>
     <path id="DejaVuSans-6f" d="M 1959 3097 
Q 1497 3097 1228 2736 
Q 959 2375 959 1747 
Q 959 1119 1226 758 
Q 1494 397 1959 397 
Q 2419 397 2687 759 
Q 2956 1122 2956 1747 
Q 2956 2369 2687 2733 
Q 2419 3097 1959 3097 
z
M 1959 3584 
Q 2709 3584 3137 3096 
Q 3566 2609 3566 1747 
Q 3566 888 3137 398 
Q 2709 -91 1959 -91 
Q 1206 -91 779 398 
Q 353 888 353 1747 
Q 353 2609 779 3096 
Q 1206 3584 1959 3584 
z
" transform="scale(0.015625)"/>
     <path id="DejaVuSans-28" d="M 1984 4856 
Q 1566 4138 1362 3434 
Q 1159 2731 1159 2009 
Q 1159 1288 1364 580 
Q 1569 -128 1984 -844 
L 1484 -844 
Q 1016 -109 783 600 
Q 550 1309 550 2009 
Q 550 2706 781 3412 
Q 1013 4119 1484 4856 
L 1984 4856 
z
" transform="scale(0.015625)"/>
     <path id="DejaVuSans-4e" d="M 628 4666 
L 1478 4666 
L 3547 763 
L 3547 4666 
L 4159 4666 
L 4159 0 
L 3309 0 
L 1241 3903 
L 1241 0 
L 628 0 
L 628 4666 
z
" transform="scale(0.015625)"/>
     <path id="DejaVuSans-29" d="M 513 4856 
L 1013 4856 
Q 1481 4119 1714 3412 
Q 1947 2706 1947 2009 
Q 1947 1309 1714 600 
Q 1481 -109 1013 -844 
L 513 -844 
Q 928 -128 1133 580 
Q 1338 1288 1338 2009 
Q 1338 2731 1133 3434 
Q 928 4138 513 4856 
z
" transform="scale(0.015625)"/>
    </defs>
    <use xlink:href="#DejaVuSans-66"/>
    <use xlink:href="#DejaVuSans-69" transform="translate(35.205078 0)"/>
    <use xlink:href="#DejaVuSans-6e" transform="translate(62.988281 0)"/>
    <use xlink:href="#DejaVuSans-67" transform="translate(126.367188 0)"/>
    <use xlink:href="#DejaVuSans-65" transform="translate(189.84375 0)"/>
    <use xlink:href="#DejaVuSans-72" transform="translate(251.367188 0)"/>
    <use xlink:href="#DejaVuSans-20" transform="translate(292.480469 0)"/>
    <use xlink:href="#DejaVuSans-70" transform="translate(324.267578 0)"/>
    <use xlink:href="#DejaVuSans-72" transform="translate(387.744141 0)"/>
    <use xlink:href="#DejaVuSans-65" transform="translate(426.607422 0)"/>
    <use xlink:href="#DejaVuSans-61" transform="translate(488.130859 0)"/>
    <use xlink:href="#DejaVuSans-63" transform="translate(549.410156 0)"/>
    <use xlink:href="#DejaVuSans-74" transform="translate(604.390625 0)"/>
    <use xlink:href="#DejaVuSans-69" transform="translate(643.599609 0)"/>
    <use xlink:href="#DejaVuSans-76" transform="translate(671.382812 0)"/>
    <use xlink:href="#DejaVuSans-61" transform="translate(730.5625 0)"/>
    <use xlink:href="#DejaVuSans-74" transform="translate(791.841797 0)"/>
    <use xlink:href="#DejaVuSans-69" transform="translate(831.050781 0)"/>
    <use xlink:href="#DejaVuSans-6f" transform="translate(858.833984 0)"/>
    <use xlink:href="#DejaVuSans-6e" transform="translate(920.015625 0)"/>
    <use xlink:href="#DejaVuSans-20" transform="translate(983.394531 0)"/>
    <use xlink:href="#DejaVuSans-28" transform="translate(1015.181641 0)"/>
    <use xlink:href="#DejaVuSans-4e" transform="translate(1054.195312 0)"/>
    <use xlink:href="#DejaVuSans-29" transform="translate(1129 0)"/>
   </g>
  </g>
  <g id="text_12">
   <!-- variance (a.u.) -->
   <g style="fill: #ffffff" transform="translate(16.318125 171.87375) rotate(-90) scale(0.12 -0.12)">
    <defs>
     <path id="DejaVuSans-75" d="M 544 1381 
L 544 3500 
L 1119 3500 
L 1119 1403 
Q 1119 906 1312 657 
Q 1506 409 1894 409 
Q 2359 409 2629 706 
Q 2900 1003 2900 1516 
L 2900 3500 
L 3475 3500 
L 3475 0 
L 2900 0 
L 2900 538 
Q 2691 219 2414 64 
Q 2138 -91 1772 -91 
Q 1169 -91 856 284 
Q 544 659 544 1381 
z
M 1991 3584 
L 1991 3584 
z
" transform="scale(0.015625)"/>
    </defs>
    <use xlink:href="#DejaVuSans-76"/>
    <use xlink:href="#DejaVuSans-61" transform="translate(59.179688 0)"/>
    <use xlink:href="#DejaVuSans-72" transform="translate(120.458984 0)"/>
    <use xlink:href="#DejaVuSans-69" transform="translate(161.572266 0)"/>
    <use xlink:href="#DejaVuSans-61" transform="translate(189.355469 0)"/>
    <use xlink:href="#DejaVuSans-6e" transform="translate(250.634766 0)"/>
    <use xlink:href="#DejaVuSans-63" transform="translate(314.013672 0)"/>
    <use xlink:href="#DejaVuSans-65" transform="translate(368.994141 0)"/>
    <use xlink:href="#DejaVuSans-20" transform="translate(430.517578 0)"/>
    <use xlink:href="#DejaVuSans-28" transform="translate(462.304688 0)"/>
    <use xlink:href="#DejaVuSans-61" transform="translate(501.318359 0)"/>
    <use xlink:href="#DejaVuSans-2e" transform="translate(562.597656 0)"/>
    <use xlink:href="#DejaVuSans-75" transform="translate(594.384766 0)"/>
    <use xlink:href="#DejaVuSans-2e" transform="translate(657.763672 0)"/>
    <use xlink:href="#DejaVuSans-29" transform="translate(689.550781 0)"/>
   </g>
  </g>
  <g id="text_13">
   <!-- Variance explained by cue -->
   <g style="fill: #ffffff" transform="translate(31.824375 16.318125) scale(0.12 -0.12)">
    <defs>
     <path id="DejaVuSans-56" d="M 1831 0 
L 50 4666 
L 709 4666 
L 2188 738 
L 3669 4666 
L 4325 4666 
L 2547 0 
L 1831 0 
z
" transform="scale(0.015625)"/>
     <path id="DejaVuSans-78" d="M 3513 3500 
L 2247 1797 
L 3578 0 
L 2900 0 
L 1881 1375 
L 863 0 
L 184 0 
L 1544 1831 
L 300 3500 
L 978 3500 
L 1906 2253 
L 2834 3500 
L 3513 3500 
z
" transform="scale(0.015625)"/>
     <path id="DejaVuSans-6c" d="M 603 4863 
L 1178 4863 
L 1178 0 
L 603 0 
L 603 4863 
z
" transform="scale(0.015625)"/>
     <path id="DejaVuSans-64" d="M 2906 2969 
L 2906 4863 
L 3481 4863 
L 3481 0 
L 2906 0 
L 2906 525 
Q 2725 213 2448 61 
Q 2172 -91 1784 -91 
Q 1150 -91 751 415 
Q 353 922 353 1747 
Q 353 2572 751 3078 
Q 1150 3584 1784 3584 
Q 2172 3584 2448 3432 
Q 2725 3281 2906 2969 
z
M 947 1747 
Q 947 1113 1208 752 
Q 1469 391 1925 391 
Q 2381 391 2643 752 
Q 2906 1113 2906 1747 
Q 2906 2381 2643 2742 
Q 2381 3103 1925 3103 
Q 1469 3103 1208 2742 
Q 947 2381 947 1747 
z
" transform="scale(0.015625)"/>
     <path id="DejaVuSans-62" d="M 3116 1747 
Q 3116 2381 2855 2742 
Q 2594 3103 2138 3103 
Q 1681 3103 1420 2742 
Q 1159 2381 1159 1747 
Q 1159 1113 1420 752 
Q 1681 391 2138 391 
Q 2594 391 2855 752 
Q 3116 1113 3116 1747 
z
M 1159 2969 
Q 1341 3281 1617 3432 
Q 1894 3584 2278 3584 
Q 2916 3584 3314 3078 
Q 3713 2572 3713 1747 
Q 3713 922 3314 415 
Q 2916 -91 2278 -91 
Q 1894 -91 1617 61 
Q 1341 213 1159 525 
L 1159 0 
L 581 0 
L 581 4863 
L 1159 4863 
L 1159 2969 
z
" transform="scale(0.015625)"/>
     <path id="DejaVuSans-79" d="M 2059 -325 
Q 1816 -950 1584 -1140 
Q 1353 -1331 966 -1331 
L 506 -1331 
L 506 -850 
L 844 -850 
Q 1081 -850 1212 -737 
Q 1344 -625 1503 -206 
L 1606 56 
L 191 3500 
L 800 3500 
L 1894 763 
L 2988 3500 
L 3597 3500 
L 2059 -325 
z
" transform="scale(0.015625)"/>
    </defs>
    <use xlink:href="#DejaVuSans-56"/>
    <use xlink:href="#DejaVuSans-61" transform="translate(60.658203 0)"/>
    <use xlink:href="#DejaVuSans-72" transform="translate(121.9375 0)"/>
    <use xlink:href="#DejaVuSans-69" transform="translate(163.050781 0)"/>
    <use xlink:href="#DejaVuSans-61" transform="translate(190.833984 0)"/>
    <use xlink:href="#DejaVuSans-6e" transform="translate(252.113281 0)"/>
    <use xlink:href="#DejaVuSans-63" transform="translate(315.492188 0)"/>
    <use xlink:href="#DejaVuSans-65" transform="translate(370.472656 0)"/>
    <use xlink:href="#DejaVuSans-20" transform="translate(431.996094 0)"/>
    <use xlink:href="#DejaVuSans-65" transform="translate(463.783203 0)"/>
    <use xlink:href="#DejaVuSans-78" transform="translate(523.556641 0)"/>
    <use xlink:href="#DejaVuSans-70" transform="translate(582.736328 0)"/>
    <use xlink:href="#DejaVuSans-6c" transform="translate(646.212891 0)"/>
    <use xlink:href="#DejaVuSans-61" transform="translate(673.996094 0)"/>
    <use xlink:href="#DejaVuSans-69" transform="translate(735.275391 0)"/>
    <use xlink:href="#DejaVuSans-6e" transform="translate(763.058594 0)"/>
    <use xlink:href="#DejaVuSans-65" transform="translate(826.4375 0)"/>
    <use xlink:href="#DejaVuSans-64" transform="translate(887.960938 0)"/>
    <use xlink:href="#DejaVuSans-20" transform="translate(951.4375 0)"/>
    <use xlink:href="#DejaVuSans-62" transform="translate(983.224609 0)"/>
    <use xlink:href="#DejaVuSans-79" transform="translate(1046.701172 0)"/>
    <use xlink:href="#DejaVuSans-20" transform="translate(1105.880859 0)"/>
    <use xlink:href="#DejaVuSans-63" transform="translate(1137.667969 0)"/>
    <use xlink:href="#DejaVuSans-75" transform="translate(1192.648438 0)"/>
    <use xlink:href="#DejaVuSans-65" transform="translate(1256.027344 0)"/>
   </g>
   <!-- vs. finger preactivation -->
   <g style="fill: #ffffff" transform="translate(41.385 29.7555) scale(0.12 -0.12)">
    <defs>
     <path id="DejaVuSans-73" d="M 2834 3397 
L 2834 2853 
Q 2591 2978 2328 3040 
Q 2066 3103 1784 3103 
Q 1356 3103 1142 2972 
Q 928 2841 928 2578 
Q 928 2378 1081 2264 
Q 1234 2150 1697 2047 
L 1894 2003 
Q 2506 1872 2764 1633 
Q 3022 1394 3022 966 
Q 3022 478 2636 193 
Q 2250 -91 1575 -91 
Q 1294 -91 989 -36 
Q 684 19 347 128 
L 347 722 
Q 666 556 975 473 
Q 1284 391 1588 391 
Q 1994 391 2212 530 
Q 2431 669 2431 922 
Q 2431 1156 2273 1281 
Q 2116 1406 1581 1522 
L 1381 1569 
Q 847 1681 609 1914 
Q 372 2147 372 2553 
Q 372 3047 722 3315 
Q 1072 3584 1716 3584 
Q 2034 3584 2315 3537 
Q 2597 3491 2834 3397 
z
" transform="scale(0.015625)"/>
    </defs>
    <use xlink:href="#DejaVuSans-76"/>
    <use xlink:href="#DejaVuSans-73" transform="translate(59.179688 0)"/>
    <use xlink:href="#DejaVuSans-2e" transform="translate(111.279297 0)"/>
    <use xlink:href="#DejaVuSans-20" transform="translate(143.066406 0)"/>
    <use xlink:href="#DejaVuSans-66" transform="translate(174.853516 0)"/>
    <use xlink:href="#DejaVuSans-69" transform="translate(210.058594 0)"/>
    <use xlink:href="#DejaVuSans-6e" transform="translate(237.841797 0)"/>
    <use xlink:href="#DejaVuSans-67" transform="translate(301.220703 0)"/>
    <use xlink:href="#DejaVuSans-65" transform="translate(364.697266 0)"/>
    <use xlink:href="#DejaVuSans-72" transform="translate(426.220703 0)"/>
    <use xlink:href="#DejaVuSans-20" transform="translate(467.333984 0)"/>
    <use xlink:href="#DejaVuSans-70" transform="translate(499.121094 0)"/>
    <use xlink:href="#DejaVuSans-72" transform="translate(562.597656 0)"/>
    <use xlink:href="#DejaVuSans-65" transform="translate(601.460938 0)"/>
    <use xlink:href="#DejaVuSans-61" transform="translate(662.984375 0)"/>
    <use xlink:href="#DejaVuSans-63" transform="translate(724.263672 0)"/>
    <use xlink:href="#DejaVuSans-74" transform="translate(779.244141 0)"/>
    <use xlink:href="#DejaVuSans-69" transform="translate(818.453125 0)"/>
    <use xlink:href="#DejaVuSans-76" transform="translate(846.236328 0)"/>
    <use xlink:href="#DejaVuSans-61" transform="translate(905.416016 0)"/>
    <use xlink:href="#DejaVuSans-74" transform="translate(966.695312 0)"/>
    <use xlink:href="#DejaVuSans-69" transform="translate(1005.904297 0)"/>
    <use xlink:href="#DejaVuSans-6f" transform="translate(1033.6875 0)"/>
    <use xlink:href="#DejaVuSans-6e" transform="translate(1094.869141 0)"/>
   </g>
  </g>
 </g>
 <defs>
  <clipPath id="p0d5a68db98">
   <rect x="60.28" y="67.776" width="64.443571" height="134.744"/>
  </clipPath>
  <clipPath id="p4134fcd0d1">
   <rect x="141.33" y="67.776" width="64.443571" height="134.744"/>
  </clipPath>
 </defs>
</svg>
