<?xml version="1.0" encoding="utf-8" standalone="no"?>
<!DOCTYPE svg PUBLIC "-//W3C//DTD SVG 1.1//EN"
  "http://www.w3.org/Graphics/SVG/1.1/DTD/svg11.dtd">
<svg xmlns:xlink="http://www.w3.org/1999/xlink" width="352.46125pt" height="164.92pt" viewBox="0 0 352.46125 164.92" xmlns="http://www.w3.org/2000/svg" version="1.1">
 <metadata>
  <rdf:RDF xmlns:dc="http://purl.org/dc/elements/1.1/" xmlns:cc="http://creativecommons.org/ns#" xmlns:rdf="http://www.w3.org/1999/02/22-rdf-syntax-ns#">
   <cc:Work>
    <dc:type rdf:resource="http://purl.org/dc/dcmitype/StillImage"/>
    <dc:date>2025-06-14T16:26:41.556615</dc:date>
    <dc:format>image/svg+xml</dc:format>
    <dc:creator>
     <cc:Agent>
      <dc:title>Matplotlib v3.10.1, https://matplotlib.org/</dc:title>
     </cc:Agent>
    </dc:creator>
   </cc:Work>
  </rdf:RDF>
 </metadata>
 <defs>
  <style type="text/css">*{stroke-linejoin: round; stroke-linecap: butt}</style>
 </defs>
 <g id="figure_1">
  <g id="patch_1">
   <path d="M 0 164.92 
L 352.46125 164.92 
L 352.46125 0 
L 0 0 
z
"/>
  </g>
  <g id="axes_1">
   <g id="patch_2">
    <path d="M 43.78125 131.4 
L 72.01625 131.4 
L 72.01625 54.96 
L 43.78125 54.96 
z
"/>
   </g>
   <g id="patch_3">
    <path d="M 45.064659 131.4 
L 57.89875 131.4 
L 57.89875 122.583235 
L 45.064659 122.583235 
z
" clip-path="url(#paa1d6c1f55)" style="fill: #df2020"/>
   </g>
   <g id="patch_4">
    <path d="M 57.89875 131.4 
L 70.732841 131.4 
L 70.732841 115.960778 
L 57.89875 115.960778 
z
" clip-path="url(#paa1d6c1f55)" style="fill: #2020df"/>
   </g>
   <g id="patch_5">
    <path d="M 43.78125 112.831055 
L 72.01625 112.831055 
L 72.01625 97.844273 
L 43.78125 97.844273 
z
" clip-path="url(#paa1d6c1f55)" style="fill: #808080; opacity: 0.2"/>
   </g>
   <g id="matplotlib.axis_1"/>
   <g id="matplotlib.axis_2">
    <g id="ytick_1">
     <g id="line2d_1">
      <defs>
       <path id="m4e95309847" d="M 0 0 
L -3.5 0 
" style="stroke: #ffffff; stroke-width: 0.8"/>
      </defs>
      <g>
       <use xlink:href="#m4e95309847" x="43.78125" y="131.4" style="fill: #ffffff; stroke: #ffffff; stroke-width: 0.8"/>
      </g>
     </g>
     <g id="text_1">
      <!-- 0.0 -->
      <g style="fill: #ffffff" transform="translate(20.878125 135.199219) scale(0.1 -0.1)">
       <defs>
        <path id="DejaVuSans-30" d="M 2034 4250 
Q 1547 4250 1301 3770 
Q 1056 3291 1056 2328 
Q 1056 1369 1301 889 
Q 1547 409 2034 409 
Q 2525 409 2770 889 
Q 3016 1369 3016 2328 
Q 3016 3291 2770 3770 
Q 2525 4250 2034 4250 
z
M 2034 4750 
Q 2819 4750 3233 4129 
Q 3647 3509 3647 2328 
Q 3647 1150 3233 529 
Q 2819 -91 2034 -91 
Q 1250 -91 836 529 
Q 422 1150 422 2328 
Q 422 3509 836 4129 
Q 1250 4750 2034 4750 
z
" transform="scale(0.015625)"/>
        <path id="DejaVuSans-2e" d="M 684 794 
L 1344 794 
L 1344 0 
L 684 0 
L 684 794 
z
" transform="scale(0.015625)"/>
       </defs>
       <use xlink:href="#DejaVuSans-30"/>
       <use xlink:href="#DejaVuSans-2e" transform="translate(63.623047 0)"/>
       <use xlink:href="#DejaVuSans-30" transform="translate(95.410156 0)"/>
      </g>
     </g>
    </g>
    <g id="ytick_2">
     <g id="line2d_2">
      <g>
       <use xlink:href="#m4e95309847" x="43.78125" y="99.689512" style="fill: #ffffff; stroke: #ffffff; stroke-width: 0.8"/>
      </g>
     </g>
     <g id="text_2">
      <!-- 0.3 -->
      <g style="fill: #ffffff" transform="translate(20.878125 103.48873) scale(0.1 -0.1)">
       <defs>
        <path id="DejaVuSans-33" d="M 2597 2516 
Q 3050 2419 3304 2112 
Q 3559 1806 3559 1356 
Q 3559 666 3084 287 
Q 2609 -91 1734 -91 
Q 1441 -91 1130 -33 
Q 819 25 488 141 
L 488 750 
Q 750 597 1062 519 
Q 1375 441 1716 441 
Q 2309 441 2620 675 
Q 2931 909 2931 1356 
Q 2931 1769 2642 2001 
Q 2353 2234 1838 2234 
L 1294 2234 
L 1294 2753 
L 1863 2753 
Q 2328 2753 2575 2939 
Q 2822 3125 2822 3475 
Q 2822 3834 2567 4026 
Q 2313 4219 1838 4219 
Q 1578 4219 1281 4162 
Q 984 4106 628 3988 
L 628 4550 
Q 988 4650 1302 4700 
Q 1616 4750 1894 4750 
Q 2613 4750 3031 4423 
Q 3450 4097 3450 3541 
Q 3450 3153 3228 2886 
Q 3006 2619 2597 2516 
z
" transform="scale(0.015625)"/>
       </defs>
       <use xlink:href="#DejaVuSans-30"/>
       <use xlink:href="#DejaVuSans-2e" transform="translate(63.623047 0)"/>
       <use xlink:href="#DejaVuSans-33" transform="translate(95.410156 0)"/>
      </g>
     </g>
    </g>
    <g id="ytick_3">
     <g id="line2d_3">
      <g>
       <use xlink:href="#m4e95309847" x="43.78125" y="67.979023" style="fill: #ffffff; stroke: #ffffff; stroke-width: 0.8"/>
      </g>
     </g>
     <g id="text_3">
      <!-- 0.6 -->
      <g style="fill: #ffffff" transform="translate(20.878125 71.778242) scale(0.1 -0.1)">
       <defs>
        <path id="DejaVuSans-36" d="M 2113 2584 
Q 1688 2584 1439 2293 
Q 1191 2003 1191 1497 
Q 1191 994 1439 701 
Q 1688 409 2113 409 
Q 2538 409 2786 701 
Q 3034 994 3034 1497 
Q 3034 2003 2786 2293 
Q 2538 2584 2113 2584 
z
M 3366 4563 
L 3366 3988 
Q 3128 4100 2886 4159 
Q 2644 4219 2406 4219 
Q 1781 4219 1451 3797 
Q 1122 3375 1075 2522 
Q 1259 2794 1537 2939 
Q 1816 3084 2150 3084 
Q 2853 3084 3261 2657 
Q 3669 2231 3669 1497 
Q 3669 778 3244 343 
Q 2819 -91 2113 -91 
Q 1303 -91 875 529 
Q 447 1150 447 2328 
Q 447 3434 972 4092 
Q 1497 4750 2381 4750 
Q 2619 4750 2861 4703 
Q 3103 4656 3366 4563 
z
" transform="scale(0.015625)"/>
       </defs>
       <use xlink:href="#DejaVuSans-30"/>
       <use xlink:href="#DejaVuSans-2e" transform="translate(63.623047 0)"/>
       <use xlink:href="#DejaVuSans-36" transform="translate(95.410156 0)"/>
      </g>
     </g>
    </g>
    <g id="text_4">
     <!-- variance -->
     <g style="fill: #ffffff" transform="translate(14.798438 114.706563) rotate(-90) scale(0.1 -0.1)">
      <defs>
       <path id="DejaVuSans-76" d="M 191 3500 
L 800 3500 
L 1894 563 
L 2988 3500 
L 3597 3500 
L 2284 0 
L 1503 0 
L 191 3500 
z
" transform="scale(0.015625)"/>
       <path id="DejaVuSans-61" d="M 2194 1759 
Q 1497 1759 1228 1600 
Q 959 1441 959 1056 
Q 959 750 1161 570 
Q 1363 391 1709 391 
Q 2188 391 2477 730 
Q 2766 1069 2766 1631 
L 2766 1759 
L 2194 1759 
z
M 3341 1997 
L 3341 0 
L 2766 0 
L 2766 531 
Q 2569 213 2275 61 
Q 1981 -91 1556 -91 
Q 1019 -91 701 211 
Q 384 513 384 1019 
Q 384 1609 779 1909 
Q 1175 2209 1959 2209 
L 2766 2209 
L 2766 2266 
Q 2766 2663 2505 2880 
Q 2244 3097 1772 3097 
Q 1472 3097 1187 3025 
Q 903 2953 641 2809 
L 641 3341 
Q 956 3463 1253 3523 
Q 1550 3584 1831 3584 
Q 2591 3584 2966 3190 
Q 3341 2797 3341 1997 
z
" transform="scale(0.015625)"/>
       <path id="DejaVuSans-72" d="M 2631 2963 
Q 2534 3019 2420 3045 
Q 2306 3072 2169 3072 
Q 1681 3072 1420 2755 
Q 1159 2438 1159 1844 
L 1159 0 
L 581 0 
L 581 3500 
L 1159 3500 
L 1159 2956 
Q 1341 3275 1631 3429 
Q 1922 3584 2338 3584 
Q 2397 3584 2469 3576 
Q 2541 3569 2628 3553 
L 2631 2963 
z
" transform="scale(0.015625)"/>
       <path id="DejaVuSans-69" d="M 603 3500 
L 1178 3500 
L 1178 0 
L 603 0 
L 603 3500 
z
M 603 4863 
L 1178 4863 
L 1178 4134 
L 603 4134 
L 603 4863 
z
" transform="scale(0.015625)"/>
       <path id="DejaVuSans-6e" d="M 3513 2113 
L 3513 0 
L 2938 0 
L 2938 2094 
Q 2938 2591 2744 2837 
Q 2550 3084 2163 3084 
Q 1697 3084 1428 2787 
Q 1159 2491 1159 1978 
L 1159 0 
L 581 0 
L 581 3500 
L 1159 3500 
L 1159 2956 
Q 1366 3272 1645 3428 
Q 1925 3584 2291 3584 
Q 2894 3584 3203 3211 
Q 3513 2838 3513 2113 
z
" transform="scale(0.015625)"/>
       <path id="DejaVuSans-63" d="M 3122 3366 
L 3122 2828 
Q 2878 2963 2633 3030 
Q 2388 3097 2138 3097 
Q 1578 3097 1268 2742 
Q 959 2388 959 1747 
Q 959 1106 1268 751 
Q 1578 397 2138 397 
Q 2388 397 2633 464 
Q 2878 531 3122 666 
L 3122 134 
Q 2881 22 2623 -34 
Q 2366 -91 2075 -91 
Q 1284 -91 818 406 
Q 353 903 353 1747 
Q 353 2603 823 3093 
Q 1294 3584 2113 3584 
Q 2378 3584 2631 3529 
Q 2884 3475 3122 3366 
z
" transform="scale(0.015625)"/>
       <path id="DejaVuSans-65" d="M 3597 1894 
L 3597 1613 
L 953 1613 
Q 991 1019 1311 708 
Q 1631 397 2203 397 
Q 2534 397 2845 478 
Q 3156 559 3463 722 
L 3463 178 
Q 3153 47 2828 -22 
Q 2503 -91 2169 -91 
Q 1331 -91 842 396 
Q 353 884 353 1716 
Q 353 2575 817 3079 
Q 1281 3584 2069 3584 
Q 2775 3584 3186 3129 
Q 3597 2675 3597 1894 
z
M 3022 2063 
Q 3016 2534 2758 2815 
Q 2500 3097 2075 3097 
Q 1594 3097 1305 2825 
Q 1016 2553 972 2059 
L 3022 2063 
z
" transform="scale(0.015625)"/>
      </defs>
      <use xlink:href="#DejaVuSans-76"/>
      <use xlink:href="#DejaVuSans-61" transform="translate(59.179688 0)"/>
      <use xlink:href="#DejaVuSans-72" transform="translate(120.458984 0)"/>
      <use xlink:href="#DejaVuSans-69" transform="translate(161.572266 0)"/>
      <use xlink:href="#DejaVuSans-61" transform="translate(189.355469 0)"/>
      <use xlink:href="#DejaVuSans-6e" transform="translate(250.634766 0)"/>
      <use xlink:href="#DejaVuSans-63" transform="translate(314.013672 0)"/>
      <use xlink:href="#DejaVuSans-65" transform="translate(368.994141 0)"/>
     </g>
    </g>
   </g>
   <g id="line2d_4">
    <path d="M 51.481705 125.372369 
L 51.481705 119.794101 
" clip-path="url(#paa1d6c1f55)" style="fill: none; stroke: #424242; stroke-width: 2.25; stroke-linecap: square"/>
   </g>
   <g id="line2d_5">
    <path d="M 64.315795 118.983255 
L 64.315795 112.938301 
" clip-path="url(#paa1d6c1f55)" style="fill: none; stroke: #424242; stroke-width: 2.25; stroke-linecap: square"/>
   </g>
   <g id="line2d_6">
    <path d="M 43.78125 105.337664 
L 72.01625 105.337664 
" clip-path="url(#paa1d6c1f55)" style="fill: none; stroke-dasharray: 2,3.3; stroke-dashoffset: 0; stroke: #808080; stroke-width: 2"/>
   </g>
   <g id="patch_6">
    <path d="M 43.78125 131.4 
L 43.78125 67.979023 
" style="fill: none; stroke: #ffffff; stroke-width: 0.8; stroke-linejoin: miter; stroke-linecap: square"/>
   </g>
   <g id="text_5">
    <!-- SMA -->
    <g style="fill: #ffffff" transform="translate(44.808438 48.96) scale(0.12 -0.12)">
     <defs>
      <path id="DejaVuSans-53" d="M 3425 4513 
L 3425 3897 
Q 3066 4069 2747 4153 
Q 2428 4238 2131 4238 
Q 1616 4238 1336 4038 
Q 1056 3838 1056 3469 
Q 1056 3159 1242 3001 
Q 1428 2844 1947 2747 
L 2328 2669 
Q 3034 2534 3370 2195 
Q 3706 1856 3706 1288 
Q 3706 609 3251 259 
Q 2797 -91 1919 -91 
Q 1588 -91 1214 -16 
Q 841 59 441 206 
L 441 856 
Q 825 641 1194 531 
Q 1563 422 1919 422 
Q 2459 422 2753 634 
Q 3047 847 3047 1241 
Q 3047 1584 2836 1778 
Q 2625 1972 2144 2069 
L 1759 2144 
Q 1053 2284 737 2584 
Q 422 2884 422 3419 
Q 422 4038 858 4394 
Q 1294 4750 2059 4750 
Q 2388 4750 2728 4690 
Q 3069 4631 3425 4513 
z
" transform="scale(0.015625)"/>
      <path id="DejaVuSans-4d" d="M 628 4666 
L 1569 4666 
L 2759 1491 
L 3956 4666 
L 4897 4666 
L 4897 0 
L 4281 0 
L 4281 4097 
L 3078 897 
L 2444 897 
L 1241 4097 
L 1241 0 
L 628 0 
L 628 4666 
z
" transform="scale(0.015625)"/>
      <path id="DejaVuSans-41" d="M 2188 4044 
L 1331 1722 
L 3047 1722 
L 2188 4044 
z
M 1831 4666 
L 2547 4666 
L 4325 0 
L 3669 0 
L 3244 1197 
L 1141 1197 
L 716 0 
L 50 0 
L 1831 4666 
z
" transform="scale(0.015625)"/>
     </defs>
     <use xlink:href="#DejaVuSans-53"/>
     <use xlink:href="#DejaVuSans-4d" transform="translate(63.476562 0)"/>
     <use xlink:href="#DejaVuSans-41" transform="translate(149.755859 0)"/>
    </g>
   </g>
  </g>
  <g id="axes_2">
   <g id="patch_7">
    <path d="M 82.81625 131.4 
L 111.05125 131.4 
L 111.05125 54.96 
L 82.81625 54.96 
z
"/>
   </g>
   <g id="patch_8">
    <path d="M 84.099659 131.4 
L 96.93375 131.4 
L 96.93375 115.480397 
L 84.099659 115.480397 
z
" clip-path="url(#p6ec2748c9a)" style="fill: #df2020"/>
   </g>
   <g id="patch_9">
    <path d="M 96.93375 131.4 
L 109.767841 131.4 
L 109.767841 108.99525 
L 96.93375 108.99525 
z
" clip-path="url(#p6ec2748c9a)" style="fill: #2020df"/>
   </g>
   <g id="patch_10">
    <path d="M 82.81625 105.497658 
L 111.05125 105.497658 
L 111.05125 86.024889 
L 82.81625 86.024889 
z
" clip-path="url(#p6ec2748c9a)" style="fill: #808080; opacity: 0.2"/>
   </g>
   <g id="matplotlib.axis_3"/>
   <g id="matplotlib.axis_4">
    <g id="ytick_4">
     <g id="line2d_7">
      <defs>
       <path id="m5fa74aa9e4" d="M 0 0 
L -3.5 0 
"/>
      </defs>
      <g>
       <use xlink:href="#m5fa74aa9e4" x="82.81625" y="131.4" style="fill: #ffffff"/>
      </g>
     </g>
    </g>
    <g id="ytick_5">
     <g id="line2d_8">
      <g>
       <use xlink:href="#m5fa74aa9e4" x="82.81625" y="99.689512" style="fill: #ffffff"/>
      </g>
     </g>
    </g>
    <g id="ytick_6">
     <g id="line2d_9">
      <g>
       <use xlink:href="#m5fa74aa9e4" x="82.81625" y="67.979023" style="fill: #ffffff"/>
      </g>
     </g>
    </g>
   </g>
   <g id="line2d_10">
    <path d="M 90.516705 118.662642 
L 90.516705 112.298152 
" clip-path="url(#p6ec2748c9a)" style="fill: none; stroke: #424242; stroke-width: 2.25; stroke-linecap: square"/>
   </g>
   <g id="line2d_11">
    <path d="M 103.350795 112.972763 
L 103.350795 105.017736 
" clip-path="url(#p6ec2748c9a)" style="fill: none; stroke: #424242; stroke-width: 2.25; stroke-linecap: square"/>
   </g>
   <g id="line2d_12">
    <path d="M 82.81625 95.761273 
L 111.05125 95.761273 
" clip-path="url(#p6ec2748c9a)" style="fill: none; stroke-dasharray: 2,3.3; stroke-dashoffset: 0; stroke: #808080; stroke-width: 2"/>
   </g>
   <g id="text_6">
    <!-- PMd -->
    <g style="fill: #ffffff" transform="translate(84.33 48.96) scale(0.12 -0.12)">
     <defs>
      <path id="DejaVuSans-50" d="M 1259 4147 
L 1259 2394 
L 2053 2394 
Q 2494 2394 2734 2622 
Q 2975 2850 2975 3272 
Q 2975 3691 2734 3919 
Q 2494 4147 2053 4147 
L 1259 4147 
z
M 628 4666 
L 2053 4666 
Q 2838 4666 3239 4311 
Q 3641 3956 3641 3272 
Q 3641 2581 3239 2228 
Q 2838 1875 2053 1875 
L 1259 1875 
L 1259 0 
L 628 0 
L 628 4666 
z
" transform="scale(0.015625)"/>
      <path id="DejaVuSans-64" d="M 2906 2969 
L 2906 4863 
L 3481 4863 
L 3481 0 
L 2906 0 
L 2906 525 
Q 2725 213 2448 61 
Q 2172 -91 1784 -91 
Q 1150 -91 751 415 
Q 353 922 353 1747 
Q 353 2572 751 3078 
Q 1150 3584 1784 3584 
Q 2172 3584 2448 3432 
Q 2725 3281 2906 2969 
z
M 947 1747 
Q 947 1113 1208 752 
Q 1469 391 1925 391 
Q 2381 391 2643 752 
Q 2906 1113 2906 1747 
Q 2906 2381 2643 2742 
Q 2381 3103 1925 3103 
Q 1469 3103 1208 2742 
Q 947 2381 947 1747 
z
" transform="scale(0.015625)"/>
     </defs>
     <use xlink:href="#DejaVuSans-50"/>
     <use xlink:href="#DejaVuSans-4d" transform="translate(60.302734 0)"/>
     <use xlink:href="#DejaVuSans-64" transform="translate(146.582031 0)"/>
    </g>
   </g>
  </g>
  <g id="axes_3">
   <g id="patch_11">
    <path d="M 121.85125 131.4 
L 150.08625 131.4 
L 150.08625 54.96 
L 121.85125 54.96 
z
"/>
   </g>
   <g id="patch_12">
    <path d="M 123.134659 131.4 
L 135.96875 131.4 
L 135.96875 118.436325 
L 123.134659 118.436325 
z
" clip-path="url(#p13aa45d216)" style="fill: #df2020"/>
   </g>
   <g id="patch_13">
    <path d="M 135.96875 131.4 
L 148.802841 131.4 
L 148.802841 116.307519 
L 135.96875 116.307519 
z
" clip-path="url(#p13aa45d216)" style="fill: #2020df"/>
   </g>
   <g id="patch_14">
    <path d="M 121.85125 110.981604 
L 150.08625 110.981604 
L 150.08625 97.378261 
L 121.85125 97.378261 
z
" clip-path="url(#p13aa45d216)" style="fill: #808080; opacity: 0.2"/>
   </g>
   <g id="matplotlib.axis_5"/>
   <g id="matplotlib.axis_6">
    <g id="ytick_7">
     <g id="line2d_13">
      <g>
       <use xlink:href="#m5fa74aa9e4" x="121.85125" y="131.4" style="fill: #ffffff"/>
      </g>
     </g>
    </g>
    <g id="ytick_8">
     <g id="line2d_14">
      <g>
       <use xlink:href="#m5fa74aa9e4" x="121.85125" y="99.689512" style="fill: #ffffff"/>
      </g>
     </g>
    </g>
    <g id="ytick_9">
     <g id="line2d_15">
      <g>
       <use xlink:href="#m5fa74aa9e4" x="121.85125" y="67.979023" style="fill: #ffffff"/>
      </g>
     </g>
    </g>
   </g>
   <g id="line2d_16">
    <path d="M 129.551705 121.784671 
L 129.551705 115.087979 
" clip-path="url(#p13aa45d216)" style="fill: none; stroke: #424242; stroke-width: 2.25; stroke-linecap: square"/>
   </g>
   <g id="line2d_17">
    <path d="M 142.385795 119.71104 
L 142.385795 112.903997 
" clip-path="url(#p13aa45d216)" style="fill: none; stroke: #424242; stroke-width: 2.25; stroke-linecap: square"/>
   </g>
   <g id="line2d_18">
    <path d="M 121.85125 104.179933 
L 150.08625 104.179933 
" clip-path="url(#p13aa45d216)" style="fill: none; stroke-dasharray: 2,3.3; stroke-dashoffset: 0; stroke: #808080; stroke-width: 2"/>
   </g>
   <g id="text_7">
    <!-- PMv -->
    <g style="fill: #ffffff" transform="translate(123.622812 48.96) scale(0.12 -0.12)">
     <use xlink:href="#DejaVuSans-50"/>
     <use xlink:href="#DejaVuSans-4d" transform="translate(60.302734 0)"/>
     <use xlink:href="#DejaVuSans-76" transform="translate(146.582031 0)"/>
    </g>
   </g>
  </g>
  <g id="axes_4">
   <g id="patch_15">
    <path d="M 160.88625 131.4 
L 189.12125 131.4 
L 189.12125 54.96 
L 160.88625 54.96 
z
"/>
   </g>
   <g id="patch_16">
    <path d="M 162.169659 131.4 
L 175.00375 131.4 
L 175.00375 110.220386 
L 162.169659 110.220386 
z
" clip-path="url(#p61c20c96ce)" style="fill: #df2020"/>
   </g>
   <g id="patch_17">
    <path d="M 175.00375 131.4 
L 187.837841 131.4 
L 187.837841 118.374163 
L 175.00375 118.374163 
z
" clip-path="url(#p61c20c96ce)" style="fill: #2020df"/>
   </g>
   <g id="patch_18">
    <path d="M 160.88625 102.971216 
L 189.12125 102.971216 
L 189.12125 78.326358 
L 160.88625 78.326358 
z
" clip-path="url(#p61c20c96ce)" style="fill: #808080; opacity: 0.2"/>
   </g>
   <g id="matplotlib.axis_7"/>
   <g id="matplotlib.axis_8">
    <g id="ytick_10">
     <g id="line2d_19">
      <g>
       <use xlink:href="#m5fa74aa9e4" x="160.88625" y="131.4" style="fill: #ffffff"/>
      </g>
     </g>
    </g>
    <g id="ytick_11">
     <g id="line2d_20">
      <g>
       <use xlink:href="#m5fa74aa9e4" x="160.88625" y="99.689512" style="fill: #ffffff"/>
      </g>
     </g>
    </g>
    <g id="ytick_12">
     <g id="line2d_21">
      <g>
       <use xlink:href="#m5fa74aa9e4" x="160.88625" y="67.979023" style="fill: #ffffff"/>
      </g>
     </g>
    </g>
   </g>
   <g id="line2d_22">
    <path d="M 168.586705 115.65699 
L 168.586705 104.783781 
" clip-path="url(#p61c20c96ce)" style="fill: none; stroke: #424242; stroke-width: 2.25; stroke-linecap: square"/>
   </g>
   <g id="line2d_23">
    <path d="M 181.420795 121.984862 
L 181.420795 114.763463 
" clip-path="url(#p61c20c96ce)" style="fill: none; stroke: #424242; stroke-width: 2.25; stroke-linecap: square"/>
   </g>
   <g id="line2d_24">
    <path d="M 160.88625 90.648787 
L 189.12125 90.648787 
" clip-path="url(#p61c20c96ce)" style="fill: none; stroke-dasharray: 2,3.3; stroke-dashoffset: 0; stroke: #808080; stroke-width: 2"/>
   </g>
   <g id="text_8">
    <!-- M1 -->
    <g style="fill: #ffffff" transform="translate(166.009375 48.96) scale(0.12 -0.12)">
     <defs>
      <path id="DejaVuSans-31" d="M 794 531 
L 1825 531 
L 1825 4091 
L 703 3866 
L 703 4441 
L 1819 4666 
L 2450 4666 
L 2450 531 
L 3481 531 
L 3481 0 
L 794 0 
L 794 531 
z
" transform="scale(0.015625)"/>
     </defs>
     <use xlink:href="#DejaVuSans-4d"/>
     <use xlink:href="#DejaVuSans-31" transform="translate(86.279297 0)"/>
    </g>
   </g>
  </g>
  <g id="axes_5">
   <g id="patch_19">
    <path d="M 199.92125 131.4 
L 228.15625 131.4 
L 228.15625 54.96 
L 199.92125 54.96 
z
"/>
   </g>
   <g id="patch_20">
    <path d="M 201.204659 131.4 
L 214.03875 131.4 
L 214.03875 100.758975 
L 201.204659 100.758975 
z
" clip-path="url(#p05db997079)" style="fill: #df2020"/>
   </g>
   <g id="patch_21">
    <path d="M 214.03875 131.4 
L 226.872841 131.4 
L 226.872841 118.08056 
L 214.03875 118.08056 
z
" clip-path="url(#p05db997079)" style="fill: #2020df"/>
   </g>
   <g id="patch_22">
    <path d="M 199.92125 99.741151 
L 228.15625 99.741151 
L 228.15625 79.284466 
L 199.92125 79.284466 
z
" clip-path="url(#p05db997079)" style="fill: #808080; opacity: 0.2"/>
   </g>
   <g id="matplotlib.axis_9"/>
   <g id="matplotlib.axis_10">
    <g id="ytick_13">
     <g id="line2d_25">
      <g>
       <use xlink:href="#m5fa74aa9e4" x="199.92125" y="131.4" style="fill: #ffffff"/>
      </g>
     </g>
    </g>
    <g id="ytick_14">
     <g id="line2d_26">
      <g>
       <use xlink:href="#m5fa74aa9e4" x="199.92125" y="99.689512" style="fill: #ffffff"/>
      </g>
     </g>
    </g>
    <g id="ytick_15">
     <g id="line2d_27">
      <g>
       <use xlink:href="#m5fa74aa9e4" x="199.92125" y="67.979023" style="fill: #ffffff"/>
      </g>
     </g>
    </g>
   </g>
   <g id="line2d_28">
    <path d="M 207.621705 105.476638 
L 207.621705 96.041313 
" clip-path="url(#p05db997079)" style="fill: none; stroke: #424242; stroke-width: 2.25; stroke-linecap: square"/>
   </g>
   <g id="line2d_29">
    <path d="M 220.455795 121.766386 
L 220.455795 114.394735 
" clip-path="url(#p05db997079)" style="fill: none; stroke: #424242; stroke-width: 2.25; stroke-linecap: square"/>
   </g>
   <g id="line2d_30">
    <path d="M 199.92125 89.512809 
L 228.15625 89.512809 
" clip-path="url(#p05db997079)" style="fill: none; stroke-dasharray: 2,3.3; stroke-dashoffset: 0; stroke: #808080; stroke-width: 2"/>
   </g>
   <g id="line2d_31">
    <path d="M 208.905114 92.505444 
L 219.172386 92.505444 
" clip-path="url(#p05db997079)" style="fill: none; stroke: #ffffff; stroke-width: 1.5; stroke-linecap: square"/>
   </g>
   <g id="text_9">
    <!-- ** -->
    <g style="fill: #ffffff" transform="translate(208.03875 90.009819) scale(0.12 -0.12)">
     <defs>
      <path id="DejaVuSans-2a" d="M 3009 3897 
L 1888 3291 
L 3009 2681 
L 2828 2375 
L 1778 3009 
L 1778 1831 
L 1422 1831 
L 1422 3009 
L 372 2375 
L 191 2681 
L 1313 3291 
L 191 3897 
L 372 4206 
L 1422 3572 
L 1422 4750 
L 1778 4750 
L 1778 3572 
L 2828 4206 
L 3009 3897 
z
" transform="scale(0.015625)"/>
     </defs>
     <use xlink:href="#DejaVuSans-2a"/>
     <use xlink:href="#DejaVuSans-2a" transform="translate(50 0)"/>
    </g>
   </g>
   <g id="text_10">
    <!-- S1 -->
    <g style="fill: #ffffff" transform="translate(206.412187 48.96) scale(0.12 -0.12)">
     <use xlink:href="#DejaVuSans-53"/>
     <use xlink:href="#DejaVuSans-31" transform="translate(63.476562 0)"/>
    </g>
   </g>
  </g>
  <g id="axes_6">
   <g id="patch_23">
    <path d="M 238.95625 131.4 
L 267.19125 131.4 
L 267.19125 54.96 
L 238.95625 54.96 
z
"/>
   </g>
   <g id="patch_24">
    <path d="M 240.239659 131.4 
L 253.07375 131.4 
L 253.07375 114.827944 
L 240.239659 114.827944 
z
" clip-path="url(#p63f36b5550)" style="fill: #df2020"/>
   </g>
   <g id="patch_25">
    <path d="M 253.07375 131.4 
L 265.907841 131.4 
L 265.907841 113.384579 
L 253.07375 113.384579 
z
" clip-path="url(#p63f36b5550)" style="fill: #2020df"/>
   </g>
   <g id="patch_26">
    <path d="M 238.95625 108.272171 
L 267.19125 108.272171 
L 267.19125 90.484523 
L 238.95625 90.484523 
z
" clip-path="url(#p63f36b5550)" style="fill: #808080; opacity: 0.2"/>
   </g>
   <g id="matplotlib.axis_11"/>
   <g id="matplotlib.axis_12">
    <g id="ytick_16">
     <g id="line2d_32">
      <g>
       <use xlink:href="#m5fa74aa9e4" x="238.95625" y="131.4" style="fill: #ffffff"/>
      </g>
     </g>
    </g>
    <g id="ytick_17">
     <g id="line2d_33">
      <g>
       <use xlink:href="#m5fa74aa9e4" x="238.95625" y="99.689512" style="fill: #ffffff"/>
      </g>
     </g>
    </g>
    <g id="ytick_18">
     <g id="line2d_34">
      <g>
       <use xlink:href="#m5fa74aa9e4" x="238.95625" y="67.979023" style="fill: #ffffff"/>
      </g>
     </g>
    </g>
   </g>
   <g id="line2d_35">
    <path d="M 246.656705 118.355818 
L 246.656705 111.300069 
" clip-path="url(#p63f36b5550)" style="fill: none; stroke: #424242; stroke-width: 2.25; stroke-linecap: square"/>
   </g>
   <g id="line2d_36">
    <path d="M 259.490795 117.328021 
L 259.490795 109.441137 
" clip-path="url(#p63f36b5550)" style="fill: none; stroke: #424242; stroke-width: 2.25; stroke-linecap: square"/>
   </g>
   <g id="line2d_37">
    <path d="M 238.95625 99.378347 
L 267.19125 99.378347 
" clip-path="url(#p63f36b5550)" style="fill: none; stroke-dasharray: 2,3.3; stroke-dashoffset: 0; stroke: #808080; stroke-width: 2"/>
   </g>
   <g id="text_11">
    <!-- SPLa -->
    <g style="fill: #ffffff" transform="translate(238.626875 48.96) scale(0.12 -0.12)">
     <defs>
      <path id="DejaVuSans-4c" d="M 628 4666 
L 1259 4666 
L 1259 531 
L 3531 531 
L 3531 0 
L 628 0 
L 628 4666 
z
" transform="scale(0.015625)"/>
     </defs>
     <use xlink:href="#DejaVuSans-53"/>
     <use xlink:href="#DejaVuSans-50" transform="translate(63.476562 0)"/>
     <use xlink:href="#DejaVuSans-4c" transform="translate(123.779297 0)"/>
     <use xlink:href="#DejaVuSans-61" transform="translate(179.492188 0)"/>
    </g>
   </g>
  </g>
  <g id="axes_7">
   <g id="patch_27">
    <path d="M 277.99125 131.4 
L 306.22625 131.4 
L 306.22625 54.96 
L 277.99125 54.96 
z
"/>
   </g>
   <g id="patch_28">
    <path d="M 279.274659 131.4 
L 292.10875 131.4 
L 292.10875 116.591889 
L 279.274659 116.591889 
z
" clip-path="url(#p10acd35c34)" style="fill: #df2020"/>
   </g>
   <g id="patch_29">
    <path d="M 292.10875 131.4 
L 304.942841 131.4 
L 304.942841 110.340283 
L 292.10875 110.340283 
z
" clip-path="url(#p10acd35c34)" style="fill: #2020df"/>
   </g>
   <g id="patch_30">
    <path d="M 277.99125 105.91345 
L 306.22625 105.91345 
L 306.22625 88.086642 
L 277.99125 88.086642 
z
" clip-path="url(#p10acd35c34)" style="fill: #808080; opacity: 0.2"/>
   </g>
   <g id="matplotlib.axis_13"/>
   <g id="matplotlib.axis_14">
    <g id="ytick_19">
     <g id="line2d_38">
      <g>
       <use xlink:href="#m5fa74aa9e4" x="277.99125" y="131.4" style="fill: #ffffff"/>
      </g>
     </g>
    </g>
    <g id="ytick_20">
     <g id="line2d_39">
      <g>
       <use xlink:href="#m5fa74aa9e4" x="277.99125" y="99.689512" style="fill: #ffffff"/>
      </g>
     </g>
    </g>
    <g id="ytick_21">
     <g id="line2d_40">
      <g>
       <use xlink:href="#m5fa74aa9e4" x="277.99125" y="67.979023" style="fill: #ffffff"/>
      </g>
     </g>
    </g>
   </g>
   <g id="line2d_41">
    <path d="M 285.691705 119.592638 
L 285.691705 113.59114 
" clip-path="url(#p10acd35c34)" style="fill: none; stroke: #424242; stroke-width: 2.25; stroke-linecap: square"/>
   </g>
   <g id="line2d_42">
    <path d="M 298.525795 114.113789 
L 298.525795 106.566777 
" clip-path="url(#p10acd35c34)" style="fill: none; stroke: #424242; stroke-width: 2.25; stroke-linecap: square"/>
   </g>
   <g id="line2d_43">
    <path d="M 277.99125 97.000046 
L 306.22625 97.000046 
" clip-path="url(#p10acd35c34)" style="fill: none; stroke-dasharray: 2,3.3; stroke-dashoffset: 0; stroke: #808080; stroke-width: 2"/>
   </g>
   <g id="text_12">
    <!-- SPLp -->
    <g style="fill: #ffffff" transform="translate(277.529688 48.96) scale(0.12 -0.12)">
     <defs>
      <path id="DejaVuSans-70" d="M 1159 525 
L 1159 -1331 
L 581 -1331 
L 581 3500 
L 1159 3500 
L 1159 2969 
Q 1341 3281 1617 3432 
Q 1894 3584 2278 3584 
Q 2916 3584 3314 3078 
Q 3713 2572 3713 1747 
Q 3713 922 3314 415 
Q 2916 -91 2278 -91 
Q 1894 -91 1617 61 
Q 1341 213 1159 525 
z
M 3116 1747 
Q 3116 2381 2855 2742 
Q 2594 3103 2138 3103 
Q 1681 3103 1420 2742 
Q 1159 2381 1159 1747 
Q 1159 1113 1420 752 
Q 1681 391 2138 391 
Q 2594 391 2855 752 
Q 3116 1113 3116 1747 
z
" transform="scale(0.015625)"/>
     </defs>
     <use xlink:href="#DejaVuSans-53"/>
     <use xlink:href="#DejaVuSans-50" transform="translate(63.476562 0)"/>
     <use xlink:href="#DejaVuSans-4c" transform="translate(123.779297 0)"/>
     <use xlink:href="#DejaVuSans-70" transform="translate(179.492188 0)"/>
    </g>
   </g>
  </g>
  <g id="axes_8">
   <g id="patch_31">
    <path d="M 317.02625 131.4 
L 345.26125 131.4 
L 345.26125 54.96 
L 317.02625 54.96 
z
"/>
   </g>
   <g id="patch_32">
    <path d="M 318.309659 131.4 
L 331.14375 131.4 
L 331.14375 92.224092 
L 318.309659 92.224092 
z
" clip-path="url(#pacc2d03bb2)" style="fill: #df2020"/>
   </g>
   <g id="patch_33">
    <path d="M 331.14375 131.4 
L 343.977841 131.4 
L 343.977841 107.741006 
L 331.14375 107.741006 
z
" clip-path="url(#pacc2d03bb2)" style="fill: #2020df"/>
   </g>
   <g id="patch_34">
    <path d="M 317.02625 88.367148 
L 345.26125 88.367148 
L 345.26125 58.6 
L 317.02625 58.6 
z
" clip-path="url(#pacc2d03bb2)" style="fill: #808080; opacity: 0.2"/>
   </g>
   <g id="matplotlib.axis_15"/>
   <g id="matplotlib.axis_16">
    <g id="ytick_22">
     <g id="line2d_44">
      <g>
       <use xlink:href="#m5fa74aa9e4" x="317.02625" y="131.4" style="fill: #ffffff"/>
      </g>
     </g>
    </g>
    <g id="ytick_23">
     <g id="line2d_45">
      <g>
       <use xlink:href="#m5fa74aa9e4" x="317.02625" y="99.689512" style="fill: #ffffff"/>
      </g>
     </g>
    </g>
    <g id="ytick_24">
     <g id="line2d_46">
      <g>
       <use xlink:href="#m5fa74aa9e4" x="317.02625" y="67.979023" style="fill: #ffffff"/>
      </g>
     </g>
    </g>
   </g>
   <g id="line2d_47">
    <path d="M 324.726705 98.368489 
L 324.726705 86.079694 
" clip-path="url(#pacc2d03bb2)" style="fill: none; stroke: #424242; stroke-width: 2.25; stroke-linecap: square"/>
   </g>
   <g id="line2d_48">
    <path d="M 337.560795 112.430847 
L 337.560795 103.051165 
" clip-path="url(#pacc2d03bb2)" style="fill: none; stroke: #424242; stroke-width: 2.25; stroke-linecap: square"/>
   </g>
   <g id="line2d_49">
    <path d="M 317.02625 73.483574 
L 345.26125 73.483574 
" clip-path="url(#pacc2d03bb2)" style="fill: none; stroke-dasharray: 2,3.3; stroke-dashoffset: 0; stroke: #808080; stroke-width: 2"/>
   </g>
   <g id="line2d_50">
    <path d="M 326.010114 81.547664 
L 336.277386 81.547664 
" clip-path="url(#pacc2d03bb2)" style="fill: none; stroke: #ffffff; stroke-width: 1.5; stroke-linecap: square"/>
   </g>
   <g id="text_13">
    <!-- ** -->
    <g style="fill: #ffffff" transform="translate(325.14375 79.052039) scale(0.12 -0.12)">
     <use xlink:href="#DejaVuSans-2a"/>
     <use xlink:href="#DejaVuSans-2a" transform="translate(50 0)"/>
    </g>
   </g>
   <g id="text_14">
    <!-- V1 -->
    <g style="fill: #ffffff" transform="translate(323.221875 48.96) scale(0.12 -0.12)">
     <defs>
      <path id="DejaVuSans-56" d="M 1831 0 
L 50 4666 
L 709 4666 
L 2188 738 
L 3669 4666 
L 4325 4666 
L 2547 0 
L 1831 0 
z
" transform="scale(0.015625)"/>
     </defs>
     <use xlink:href="#DejaVuSans-56"/>
     <use xlink:href="#DejaVuSans-31" transform="translate(68.408203 0)"/>
    </g>
   </g>
  </g>
  <g id="text_15">
   <!-- Variance explained by component model -->
   <g style="fill: #ffffff" transform="translate(53.264688 16.318125) scale(0.12 -0.12)">
    <defs>
     <path id="DejaVuSans-20" transform="scale(0.015625)"/>
     <path id="DejaVuSans-78" d="M 3513 3500 
L 2247 1797 
L 3578 0 
L 2900 0 
L 1881 1375 
L 863 0 
L 184 0 
L 1544 1831 
L 300 3500 
L 978 3500 
L 1906 2253 
L 2834 3500 
L 3513 3500 
z
" transform="scale(0.015625)"/>
     <path id="DejaVuSans-6c" d="M 603 4863 
L 1178 4863 
L 1178 0 
L 603 0 
L 603 4863 
z
" transform="scale(0.015625)"/>
     <path id="DejaVuSans-62" d="M 3116 1747 
Q 3116 2381 2855 2742 
Q 2594 3103 2138 3103 
Q 1681 3103 1420 2742 
Q 1159 2381 1159 1747 
Q 1159 1113 1420 752 
Q 1681 391 2138 391 
Q 2594 391 2855 752 
Q 3116 1113 3116 1747 
z
M 1159 2969 
Q 1341 3281 1617 3432 
Q 1894 3584 2278 3584 
Q 2916 3584 3314 3078 
Q 3713 2572 3713 1747 
Q 3713 922 3314 415 
Q 2916 -91 2278 -91 
Q 1894 -91 1617 61 
Q 1341 213 1159 525 
L 1159 0 
L 581 0 
L 581 4863 
L 1159 4863 
L 1159 2969 
z
" transform="scale(0.015625)"/>
     <path id="DejaVuSans-79" d="M 2059 -325 
Q 1816 -950 1584 -1140 
Q 1353 -1331 966 -1331 
L 506 -1331 
L 506 -850 
L 844 -850 
Q 1081 -850 1212 -737 
Q 1344 -625 1503 -206 
L 1606 56 
L 191 3500 
L 800 3500 
L 1894 763 
L 2988 3500 
L 3597 3500 
L 2059 -325 
z
" transform="scale(0.015625)"/>
     <path id="DejaVuSans-6f" d="M 1959 3097 
Q 1497 3097 1228 2736 
Q 959 2375 959 1747 
Q 959 1119 1226 758 
Q 1494 397 1959 397 
Q 2419 397 2687 759 
Q 2956 1122 2956 1747 
Q 2956 2369 2687 2733 
Q 2419 3097 1959 3097 
z
M 1959 3584 
Q 2709 3584 3137 3096 
Q 3566 2609 3566 1747 
Q 3566 888 3137 398 
Q 2709 -91 1959 -91 
Q 1206 -91 779 398 
Q 353 888 353 1747 
Q 353 2609 779 3096 
Q 1206 3584 1959 3584 
z
" transform="scale(0.015625)"/>
     <path id="DejaVuSans-6d" d="M 3328 2828 
Q 3544 3216 3844 3400 
Q 4144 3584 4550 3584 
Q 5097 3584 5394 3201 
Q 5691 2819 5691 2113 
L 5691 0 
L 5113 0 
L 5113 2094 
Q 5113 2597 4934 2840 
Q 4756 3084 4391 3084 
Q 3944 3084 3684 2787 
Q 3425 2491 3425 1978 
L 3425 0 
L 2847 0 
L 2847 2094 
Q 2847 2600 2669 2842 
Q 2491 3084 2119 3084 
Q 1678 3084 1418 2786 
Q 1159 2488 1159 1978 
L 1159 0 
L 581 0 
L 581 3500 
L 1159 3500 
L 1159 2956 
Q 1356 3278 1631 3431 
Q 1906 3584 2284 3584 
Q 2666 3584 2933 3390 
Q 3200 3197 3328 2828 
z
" transform="scale(0.015625)"/>
     <path id="DejaVuSans-74" d="M 1172 4494 
L 1172 3500 
L 2356 3500 
L 2356 3053 
L 1172 3053 
L 1172 1153 
Q 1172 725 1289 603 
Q 1406 481 1766 481 
L 2356 481 
L 2356 0 
L 1766 0 
Q 1100 0 847 248 
Q 594 497 594 1153 
L 594 3053 
L 172 3053 
L 172 3500 
L 594 3500 
L 594 4494 
L 1172 4494 
z
" transform="scale(0.015625)"/>
    </defs>
    <use xlink:href="#DejaVuSans-56"/>
    <use xlink:href="#DejaVuSans-61" transform="translate(60.658203 0)"/>
    <use xlink:href="#DejaVuSans-72" transform="translate(121.9375 0)"/>
    <use xlink:href="#DejaVuSans-69" transform="translate(163.050781 0)"/>
    <use xlink:href="#DejaVuSans-61" transform="translate(190.833984 0)"/>
    <use xlink:href="#DejaVuSans-6e" transform="translate(252.113281 0)"/>
    <use xlink:href="#DejaVuSans-63" transform="translate(315.492188 0)"/>
    <use xlink:href="#DejaVuSans-65" transform="translate(370.472656 0)"/>
    <use xlink:href="#DejaVuSans-20" transform="translate(431.996094 0)"/>
    <use xlink:href="#DejaVuSans-65" transform="translate(463.783203 0)"/>
    <use xlink:href="#DejaVuSans-78" transform="translate(523.556641 0)"/>
    <use xlink:href="#DejaVuSans-70" transform="translate(582.736328 0)"/>
    <use xlink:href="#DejaVuSans-6c" transform="translate(646.212891 0)"/>
    <use xlink:href="#DejaVuSans-61" transform="translate(673.996094 0)"/>
    <use xlink:href="#DejaVuSans-69" transform="translate(735.275391 0)"/>
    <use xlink:href="#DejaVuSans-6e" transform="translate(763.058594 0)"/>
    <use xlink:href="#DejaVuSans-65" transform="translate(826.4375 0)"/>
    <use xlink:href="#DejaVuSans-64" transform="translate(887.960938 0)"/>
    <use xlink:href="#DejaVuSans-20" transform="translate(951.4375 0)"/>
    <use xlink:href="#DejaVuSans-62" transform="translate(983.224609 0)"/>
    <use xlink:href="#DejaVuSans-79" transform="translate(1046.701172 0)"/>
    <use xlink:href="#DejaVuSans-20" transform="translate(1105.880859 0)"/>
    <use xlink:href="#DejaVuSans-63" transform="translate(1137.667969 0)"/>
    <use xlink:href="#DejaVuSans-6f" transform="translate(1192.648438 0)"/>
    <use xlink:href="#DejaVuSans-6d" transform="translate(1253.830078 0)"/>
    <use xlink:href="#DejaVuSans-70" transform="translate(1351.242188 0)"/>
    <use xlink:href="#DejaVuSans-6f" transform="translate(1414.71875 0)"/>
    <use xlink:href="#DejaVuSans-6e" transform="translate(1475.900391 0)"/>
    <use xlink:href="#DejaVuSans-65" transform="translate(1539.279297 0)"/>
    <use xlink:href="#DejaVuSans-6e" transform="translate(1600.802734 0)"/>
    <use xlink:href="#DejaVuSans-74" transform="translate(1664.181641 0)"/>
    <use xlink:href="#DejaVuSans-20" transform="translate(1703.390625 0)"/>
    <use xlink:href="#DejaVuSans-6d" transform="translate(1735.177734 0)"/>
    <use xlink:href="#DejaVuSans-6f" transform="translate(1832.589844 0)"/>
    <use xlink:href="#DejaVuSans-64" transform="translate(1893.771484 0)"/>
    <use xlink:href="#DejaVuSans-65" transform="translate(1957.248047 0)"/>
    <use xlink:href="#DejaVuSans-6c" transform="translate(2018.771484 0)"/>
   </g>
  </g>
  <g id="legend_1">
   <g id="patch_35">
    <path d="M 100.346406 151.640313 
L 120.346406 151.640313 
L 120.346406 144.640313 
L 100.346406 144.640313 
z
" style="fill: #ff0000; stroke: #000000; stroke-linejoin: miter"/>
   </g>
   <g id="text_16">
    <!-- cue -->
    <g style="fill: #ffffff" transform="translate(128.346406 151.640313) scale(0.1 -0.1)">
     <defs>
      <path id="DejaVuSans-75" d="M 544 1381 
L 544 3500 
L 1119 3500 
L 1119 1403 
Q 1119 906 1312 657 
Q 1506 409 1894 409 
Q 2359 409 2629 706 
Q 2900 1003 2900 1516 
L 2900 3500 
L 3475 3500 
L 3475 0 
L 2900 0 
L 2900 538 
Q 2691 219 2414 64 
Q 2138 -91 1772 -91 
Q 1169 -91 856 284 
Q 544 659 544 1381 
z
M 1991 3584 
L 1991 3584 
z
" transform="scale(0.015625)"/>
     </defs>
     <use xlink:href="#DejaVuSans-63"/>
     <use xlink:href="#DejaVuSans-75" transform="translate(54.980469 0)"/>
     <use xlink:href="#DejaVuSans-65" transform="translate(118.359375 0)"/>
    </g>
   </g>
   <g id="patch_36">
    <path d="M 166.335469 151.640313 
L 186.335469 151.640313 
L 186.335469 144.640313 
L 166.335469 144.640313 
z
" style="fill: #0000ff; stroke: #000000; stroke-linejoin: miter"/>
   </g>
   <g id="text_17">
    <!-- uncertainty -->
    <g style="fill: #ffffff" transform="translate(194.335469 151.640313) scale(0.1 -0.1)">
     <use xlink:href="#DejaVuSans-75"/>
     <use xlink:href="#DejaVuSans-6e" transform="translate(63.378906 0)"/>
     <use xlink:href="#DejaVuSans-63" transform="translate(126.757812 0)"/>
     <use xlink:href="#DejaVuSans-65" transform="translate(181.738281 0)"/>
     <use xlink:href="#DejaVuSans-72" transform="translate(243.261719 0)"/>
     <use xlink:href="#DejaVuSans-74" transform="translate(284.375 0)"/>
     <use xlink:href="#DejaVuSans-61" transform="translate(323.583984 0)"/>
     <use xlink:href="#DejaVuSans-69" transform="translate(384.863281 0)"/>
     <use xlink:href="#DejaVuSans-6e" transform="translate(412.646484 0)"/>
     <use xlink:href="#DejaVuSans-74" transform="translate(476.025391 0)"/>
     <use xlink:href="#DejaVuSans-79" transform="translate(515.234375 0)"/>
    </g>
   </g>
  </g>
 </g>
 <defs>
  <clipPath id="paa1d6c1f55">
   <rect x="43.78125" y="54.96" width="28.235" height="76.44"/>
  </clipPath>
  <clipPath id="p6ec2748c9a">
   <rect x="82.81625" y="54.96" width="28.235" height="76.44"/>
  </clipPath>
  <clipPath id="p13aa45d216">
   <rect x="121.85125" y="54.96" width="28.235" height="76.44"/>
  </clipPath>
  <clipPath id="p61c20c96ce">
   <rect x="160.88625" y="54.96" width="28.235" height="76.44"/>
  </clipPath>
  <clipPath id="p05db997079">
   <rect x="199.92125" y="54.96" width="28.235" height="76.44"/>
  </clipPath>
  <clipPath id="p63f36b5550">
   <rect x="238.95625" y="54.96" width="28.235" height="76.44"/>
  </clipPath>
  <clipPath id="p10acd35c34">
   <rect x="277.99125" y="54.96" width="28.235" height="76.44"/>
  </clipPath>
  <clipPath id="pacc2d03bb2">
   <rect x="317.02625" y="54.96" width="28.235" height="76.44"/>
  </clipPath>
 </defs>
</svg>
