<?xml version="1.0" encoding="utf-8" standalone="no"?>
<!DOCTYPE svg PUBLIC "-//W3C//DTD SVG 1.1//EN"
  "http://www.w3.org/Graphics/SVG/1.1/DTD/svg11.dtd">
<svg xmlns:xlink="http://www.w3.org/1999/xlink" width="576pt" height="288pt" viewBox="0 0 576 288" xmlns="http://www.w3.org/2000/svg" version="1.1">
 <metadata>
  <rdf:RDF xmlns:dc="http://purl.org/dc/elements/1.1/" xmlns:cc="http://creativecommons.org/ns#" xmlns:rdf="http://www.w3.org/1999/02/22-rdf-syntax-ns#">
   <cc:Work>
    <dc:type rdf:resource="http://purl.org/dc/dcmitype/StillImage"/>
    <dc:date>2025-07-31T17:29:44.387219</dc:date>
    <dc:format>image/svg+xml</dc:format>
    <dc:creator>
     <cc:Agent>
      <dc:title>Matplotlib v3.10.1, https://matplotlib.org/</dc:title>
     </cc:Agent>
    </dc:creator>
   </cc:Work>
  </rdf:RDF>
 </metadata>
 <defs>
  <style type="text/css">*{stroke-linejoin: round; stroke-linecap: butt}</style>
 </defs>
 <g id="figure_1">
  <g id="patch_1">
   <path d="M 0 288 
L 576 288 
L 576 0 
L 0 0 
z
" style="fill: #ffffff"/>
  </g>
  <g id="axes_1">
   <g id="patch_2">
    <path d="M 72 230.4 
L 119.489362 230.4 
L 119.489362 57.6 
L 72 57.6 
z
" style="fill: #ffffff"/>
   </g>
   <g id="patch_3">
    <path d="M 74.158607 230.4 
L 88.549323 230.4 
L 88.549323 220.873635 
L 74.158607 220.873635 
z
" clip-path="url(#p7e579b6fe2)" style="fill: #c0a54b"/>
   </g>
   <g id="patch_4">
    <path d="M 88.549323 230.4 
L 102.940039 230.4 
L 102.940039 228.394724 
L 88.549323 228.394724 
z
" clip-path="url(#p7e579b6fe2)" style="fill: #df2020"/>
   </g>
   <g id="patch_5">
    <path d="M 102.940039 230.4 
L 117.330754 230.4 
L 117.330754 221.578404 
L 102.940039 221.578404 
z
" clip-path="url(#p7e579b6fe2)" style="fill: #df20df"/>
   </g>
   <g id="patch_6">
    <path d="M 72 220.837705 
L 119.489362 220.837705 
L 119.489362 209.97147 
L 72 209.97147 
z
" clip-path="url(#p7e579b6fe2)" style="fill: #808080; opacity: 0.2"/>
   </g>
   <g id="matplotlib.axis_1"/>
   <g id="matplotlib.axis_2">
    <g id="ytick_1">
     <g id="line2d_1">
      <defs>
       <path id="m9a3d891008" d="M 0 0 
L -3.5 0 
" style="stroke: #000000; stroke-width: 0.8"/>
      </defs>
      <g>
       <use xlink:href="#m9a3d891008" x="66.96325" y="230.4" style="stroke: #000000; stroke-width: 0.8"/>
      </g>
     </g>
     <g id="text_1">
      <!-- 0.0 -->
      <g transform="translate(44.060125 234.199219) scale(0.1 -0.1)">
       <defs>
        <path id="DejaVuSans-30" d="M 2034 4250 
Q 1547 4250 1301 3770 
Q 1056 3291 1056 2328 
Q 1056 1369 1301 889 
Q 1547 409 2034 409 
Q 2525 409 2770 889 
Q 3016 1369 3016 2328 
Q 3016 3291 2770 3770 
Q 2525 4250 2034 4250 
z
M 2034 4750 
Q 2819 4750 3233 4129 
Q 3647 3509 3647 2328 
Q 3647 1150 3233 529 
Q 2819 -91 2034 -91 
Q 1250 -91 836 529 
Q 422 1150 422 2328 
Q 422 3509 836 4129 
Q 1250 4750 2034 4750 
z
" transform="scale(0.015625)"/>
        <path id="DejaVuSans-2e" d="M 684 794 
L 1344 794 
L 1344 0 
L 684 0 
L 684 794 
z
" transform="scale(0.015625)"/>
       </defs>
       <use xlink:href="#DejaVuSans-30"/>
       <use xlink:href="#DejaVuSans-2e" transform="translate(63.623047 0)"/>
       <use xlink:href="#DejaVuSans-30" transform="translate(95.410156 0)"/>
      </g>
     </g>
    </g>
    <g id="ytick_2">
     <g id="line2d_2">
      <g>
       <use xlink:href="#m9a3d891008" x="66.96325" y="194.00657" style="stroke: #000000; stroke-width: 0.8"/>
      </g>
     </g>
     <g id="text_2">
      <!-- 0.5 -->
      <g transform="translate(44.060125 197.805789) scale(0.1 -0.1)">
       <defs>
        <path id="DejaVuSans-35" d="M 691 4666 
L 3169 4666 
L 3169 4134 
L 1269 4134 
L 1269 2991 
Q 1406 3038 1543 3061 
Q 1681 3084 1819 3084 
Q 2600 3084 3056 2656 
Q 3513 2228 3513 1497 
Q 3513 744 3044 326 
Q 2575 -91 1722 -91 
Q 1428 -91 1123 -41 
Q 819 9 494 109 
L 494 744 
Q 775 591 1075 516 
Q 1375 441 1709 441 
Q 2250 441 2565 725 
Q 2881 1009 2881 1497 
Q 2881 1984 2565 2268 
Q 2250 2553 1709 2553 
Q 1456 2553 1204 2497 
Q 953 2441 691 2322 
L 691 4666 
z
" transform="scale(0.015625)"/>
       </defs>
       <use xlink:href="#DejaVuSans-30"/>
       <use xlink:href="#DejaVuSans-2e" transform="translate(63.623047 0)"/>
       <use xlink:href="#DejaVuSans-35" transform="translate(95.410156 0)"/>
      </g>
     </g>
    </g>
    <g id="ytick_3">
     <g id="line2d_3">
      <g>
       <use xlink:href="#m9a3d891008" x="66.96325" y="157.61314" style="stroke: #000000; stroke-width: 0.8"/>
      </g>
     </g>
     <g id="text_3">
      <!-- 1.0 -->
      <g transform="translate(44.060125 161.412359) scale(0.1 -0.1)">
       <defs>
        <path id="DejaVuSans-31" d="M 794 531 
L 1825 531 
L 1825 4091 
L 703 3866 
L 703 4441 
L 1819 4666 
L 2450 4666 
L 2450 531 
L 3481 531 
L 3481 0 
L 794 0 
L 794 531 
z
" transform="scale(0.015625)"/>
       </defs>
       <use xlink:href="#DejaVuSans-31"/>
       <use xlink:href="#DejaVuSans-2e" transform="translate(63.623047 0)"/>
       <use xlink:href="#DejaVuSans-30" transform="translate(95.410156 0)"/>
      </g>
     </g>
    </g>
    <g id="ytick_4">
     <g id="line2d_4">
      <g>
       <use xlink:href="#m9a3d891008" x="66.96325" y="121.219711" style="stroke: #000000; stroke-width: 0.8"/>
      </g>
     </g>
     <g id="text_4">
      <!-- 1.5 -->
      <g transform="translate(44.060125 125.018929) scale(0.1 -0.1)">
       <use xlink:href="#DejaVuSans-31"/>
       <use xlink:href="#DejaVuSans-2e" transform="translate(63.623047 0)"/>
       <use xlink:href="#DejaVuSans-35" transform="translate(95.410156 0)"/>
      </g>
     </g>
    </g>
    <g id="ytick_5">
     <g id="line2d_5">
      <g>
       <use xlink:href="#m9a3d891008" x="66.96325" y="84.826281" style="stroke: #000000; stroke-width: 0.8"/>
      </g>
     </g>
     <g id="text_5">
      <!-- 2.0 -->
      <g transform="translate(44.060125 88.6255) scale(0.1 -0.1)">
       <defs>
        <path id="DejaVuSans-32" d="M 1228 531 
L 3431 531 
L 3431 0 
L 469 0 
L 469 531 
Q 828 903 1448 1529 
Q 2069 2156 2228 2338 
Q 2531 2678 2651 2914 
Q 2772 3150 2772 3378 
Q 2772 3750 2511 3984 
Q 2250 4219 1831 4219 
Q 1534 4219 1204 4116 
Q 875 4013 500 3803 
L 500 4441 
Q 881 4594 1212 4672 
Q 1544 4750 1819 4750 
Q 2544 4750 2975 4387 
Q 3406 4025 3406 3419 
Q 3406 3131 3298 2873 
Q 3191 2616 2906 2266 
Q 2828 2175 2409 1742 
Q 1991 1309 1228 531 
z
" transform="scale(0.015625)"/>
       </defs>
       <use xlink:href="#DejaVuSans-32"/>
       <use xlink:href="#DejaVuSans-2e" transform="translate(63.623047 0)"/>
       <use xlink:href="#DejaVuSans-30" transform="translate(95.410156 0)"/>
      </g>
     </g>
    </g>
    <g id="text_6">
     <!-- variance (a.u.) -->
     <g transform="translate(37.980437 180.428125) rotate(-90) scale(0.1 -0.1)">
      <defs>
       <path id="DejaVuSans-76" d="M 191 3500 
L 800 3500 
L 1894 563 
L 2988 3500 
L 3597 3500 
L 2284 0 
L 1503 0 
L 191 3500 
z
" transform="scale(0.015625)"/>
       <path id="DejaVuSans-61" d="M 2194 1759 
Q 1497 1759 1228 1600 
Q 959 1441 959 1056 
Q 959 750 1161 570 
Q 1363 391 1709 391 
Q 2188 391 2477 730 
Q 2766 1069 2766 1631 
L 2766 1759 
L 2194 1759 
z
M 3341 1997 
L 3341 0 
L 2766 0 
L 2766 531 
Q 2569 213 2275 61 
Q 1981 -91 1556 -91 
Q 1019 -91 701 211 
Q 384 513 384 1019 
Q 384 1609 779 1909 
Q 1175 2209 1959 2209 
L 2766 2209 
L 2766 2266 
Q 2766 2663 2505 2880 
Q 2244 3097 1772 3097 
Q 1472 3097 1187 3025 
Q 903 2953 641 2809 
L 641 3341 
Q 956 3463 1253 3523 
Q 1550 3584 1831 3584 
Q 2591 3584 2966 3190 
Q 3341 2797 3341 1997 
z
" transform="scale(0.015625)"/>
       <path id="DejaVuSans-72" d="M 2631 2963 
Q 2534 3019 2420 3045 
Q 2306 3072 2169 3072 
Q 1681 3072 1420 2755 
Q 1159 2438 1159 1844 
L 1159 0 
L 581 0 
L 581 3500 
L 1159 3500 
L 1159 2956 
Q 1341 3275 1631 3429 
Q 1922 3584 2338 3584 
Q 2397 3584 2469 3576 
Q 2541 3569 2628 3553 
L 2631 2963 
z
" transform="scale(0.015625)"/>
       <path id="DejaVuSans-69" d="M 603 3500 
L 1178 3500 
L 1178 0 
L 603 0 
L 603 3500 
z
M 603 4863 
L 1178 4863 
L 1178 4134 
L 603 4134 
L 603 4863 
z
" transform="scale(0.015625)"/>
       <path id="DejaVuSans-6e" d="M 3513 2113 
L 3513 0 
L 2938 0 
L 2938 2094 
Q 2938 2591 2744 2837 
Q 2550 3084 2163 3084 
Q 1697 3084 1428 2787 
Q 1159 2491 1159 1978 
L 1159 0 
L 581 0 
L 581 3500 
L 1159 3500 
L 1159 2956 
Q 1366 3272 1645 3428 
Q 1925 3584 2291 3584 
Q 2894 3584 3203 3211 
Q 3513 2838 3513 2113 
z
" transform="scale(0.015625)"/>
       <path id="DejaVuSans-63" d="M 3122 3366 
L 3122 2828 
Q 2878 2963 2633 3030 
Q 2388 3097 2138 3097 
Q 1578 3097 1268 2742 
Q 959 2388 959 1747 
Q 959 1106 1268 751 
Q 1578 397 2138 397 
Q 2388 397 2633 464 
Q 2878 531 3122 666 
L 3122 134 
Q 2881 22 2623 -34 
Q 2366 -91 2075 -91 
Q 1284 -91 818 406 
Q 353 903 353 1747 
Q 353 2603 823 3093 
Q 1294 3584 2113 3584 
Q 2378 3584 2631 3529 
Q 2884 3475 3122 3366 
z
" transform="scale(0.015625)"/>
       <path id="DejaVuSans-65" d="M 3597 1894 
L 3597 1613 
L 953 1613 
Q 991 1019 1311 708 
Q 1631 397 2203 397 
Q 2534 397 2845 478 
Q 3156 559 3463 722 
L 3463 178 
Q 3153 47 2828 -22 
Q 2503 -91 2169 -91 
Q 1331 -91 842 396 
Q 353 884 353 1716 
Q 353 2575 817 3079 
Q 1281 3584 2069 3584 
Q 2775 3584 3186 3129 
Q 3597 2675 3597 1894 
z
M 3022 2063 
Q 3016 2534 2758 2815 
Q 2500 3097 2075 3097 
Q 1594 3097 1305 2825 
Q 1016 2553 972 2059 
L 3022 2063 
z
" transform="scale(0.015625)"/>
       <path id="DejaVuSans-20" transform="scale(0.015625)"/>
       <path id="DejaVuSans-28" d="M 1984 4856 
Q 1566 4138 1362 3434 
Q 1159 2731 1159 2009 
Q 1159 1288 1364 580 
Q 1569 -128 1984 -844 
L 1484 -844 
Q 1016 -109 783 600 
Q 550 1309 550 2009 
Q 550 2706 781 3412 
Q 1013 4119 1484 4856 
L 1984 4856 
z
" transform="scale(0.015625)"/>
       <path id="DejaVuSans-75" d="M 544 1381 
L 544 3500 
L 1119 3500 
L 1119 1403 
Q 1119 906 1312 657 
Q 1506 409 1894 409 
Q 2359 409 2629 706 
Q 2900 1003 2900 1516 
L 2900 3500 
L 3475 3500 
L 3475 0 
L 2900 0 
L 2900 538 
Q 2691 219 2414 64 
Q 2138 -91 1772 -91 
Q 1169 -91 856 284 
Q 544 659 544 1381 
z
M 1991 3584 
L 1991 3584 
z
" transform="scale(0.015625)"/>
       <path id="DejaVuSans-29" d="M 513 4856 
L 1013 4856 
Q 1481 4119 1714 3412 
Q 1947 2706 1947 2009 
Q 1947 1309 1714 600 
Q 1481 -109 1013 -844 
L 513 -844 
Q 928 -128 1133 580 
Q 1338 1288 1338 2009 
Q 1338 2731 1133 3434 
Q 928 4138 513 4856 
z
" transform="scale(0.015625)"/>
      </defs>
      <use xlink:href="#DejaVuSans-76"/>
      <use xlink:href="#DejaVuSans-61" transform="translate(59.179688 0)"/>
      <use xlink:href="#DejaVuSans-72" transform="translate(120.458984 0)"/>
      <use xlink:href="#DejaVuSans-69" transform="translate(161.572266 0)"/>
      <use xlink:href="#DejaVuSans-61" transform="translate(189.355469 0)"/>
      <use xlink:href="#DejaVuSans-6e" transform="translate(250.634766 0)"/>
      <use xlink:href="#DejaVuSans-63" transform="translate(314.013672 0)"/>
      <use xlink:href="#DejaVuSans-65" transform="translate(368.994141 0)"/>
      <use xlink:href="#DejaVuSans-20" transform="translate(430.517578 0)"/>
      <use xlink:href="#DejaVuSans-28" transform="translate(462.304688 0)"/>
      <use xlink:href="#DejaVuSans-61" transform="translate(501.318359 0)"/>
      <use xlink:href="#DejaVuSans-2e" transform="translate(562.597656 0)"/>
      <use xlink:href="#DejaVuSans-75" transform="translate(594.384766 0)"/>
      <use xlink:href="#DejaVuSans-2e" transform="translate(657.763672 0)"/>
      <use xlink:href="#DejaVuSans-29" transform="translate(689.550781 0)"/>
     </g>
    </g>
   </g>
   <g id="line2d_6">
    <path d="M 81.353965 224.517619 
L 81.353965 217.229651 
" clip-path="url(#p7e579b6fe2)" style="fill: none; stroke: #424242; stroke-width: 2.25; stroke-linecap: square"/>
   </g>
   <g id="line2d_7">
    <path d="M 95.744681 229.549917 
L 95.744681 227.23953 
" clip-path="url(#p7e579b6fe2)" style="fill: none; stroke: #424242; stroke-width: 2.25; stroke-linecap: square"/>
   </g>
   <g id="line2d_8">
    <path d="M 110.135397 224.290731 
L 110.135397 218.866078 
" clip-path="url(#p7e579b6fe2)" style="fill: none; stroke: #424242; stroke-width: 2.25; stroke-linecap: square"/>
   </g>
   <g id="line2d_9">
    <path d="M 72 215.404587 
L 119.489362 215.404587 
" clip-path="url(#p7e579b6fe2)" style="fill: none; stroke-dasharray: 2,3.3; stroke-dashoffset: 0; stroke: #808080; stroke-width: 2"/>
   </g>
   <g id="line2d_10">
    <path d="M 97.183752 202.47829 
L 108.696325 202.47829 
" clip-path="url(#p7e579b6fe2)" style="fill: none; stroke: #000000; stroke-width: 1.5; stroke-linecap: square"/>
   </g>
   <g id="patch_7">
    <path d="M 66.96325 230.4 
L 66.96325 84.826281 
" style="fill: none; stroke: #000000; stroke-width: 0.8; stroke-linejoin: miter; stroke-linecap: square"/>
   </g>
   <g id="text_7">
    <!--  -->
    <g transform="translate(95.744681 237.998438) scale(0.1 -0.1)"/>
    <!-- -0.20** -->
    <g transform="translate(77.807962 249.19625) scale(0.1 -0.1)">
     <defs>
      <path id="DejaVuSans-2d" d="M 313 2009 
L 1997 2009 
L 1997 1497 
L 313 1497 
L 313 2009 
z
" transform="scale(0.015625)"/>
      <path id="DejaVuSans-2a" d="M 3009 3897 
L 1888 3291 
L 3009 2681 
L 2828 2375 
L 1778 3009 
L 1778 1831 
L 1422 1831 
L 1422 3009 
L 372 2375 
L 191 2681 
L 1313 3291 
L 191 3897 
L 372 4206 
L 1422 3572 
L 1422 4750 
L 1778 4750 
L 1778 3572 
L 2828 4206 
L 3009 3897 
z
" transform="scale(0.015625)"/>
     </defs>
     <use xlink:href="#DejaVuSans-2d"/>
     <use xlink:href="#DejaVuSans-30" transform="translate(36.083984 0)"/>
     <use xlink:href="#DejaVuSans-2e" transform="translate(99.707031 0)"/>
     <use xlink:href="#DejaVuSans-32" transform="translate(131.494141 0)"/>
     <use xlink:href="#DejaVuSans-30" transform="translate(195.117188 0)"/>
     <use xlink:href="#DejaVuSans-2a" transform="translate(258.740234 0)"/>
     <use xlink:href="#DejaVuSans-2a" transform="translate(308.740234 0)"/>
    </g>
   </g>
   <g id="text_8">
    <!-- * -->
    <g transform="translate(78.853965 237.998438) scale(0.1 -0.1)">
     <use xlink:href="#DejaVuSans-2a"/>
    </g>
   </g>
   <g id="text_9">
    <!-- ** -->
    <g transform="translate(105.135397 237.998438) scale(0.1 -0.1)">
     <use xlink:href="#DejaVuSans-2a"/>
     <use xlink:href="#DejaVuSans-2a" transform="translate(50 0)"/>
    </g>
   </g>
   <g id="text_10">
    <!-- * -->
    <g transform="translate(100.440039 203.375385) scale(0.1 -0.1)">
     <use xlink:href="#DejaVuSans-2a"/>
    </g>
   </g>
   <g id="text_11">
    <!-- SMA -->
    <g transform="translate(82.654368 51.6) scale(0.12 -0.12)">
     <defs>
      <path id="DejaVuSans-53" d="M 3425 4513 
L 3425 3897 
Q 3066 4069 2747 4153 
Q 2428 4238 2131 4238 
Q 1616 4238 1336 4038 
Q 1056 3838 1056 3469 
Q 1056 3159 1242 3001 
Q 1428 2844 1947 2747 
L 2328 2669 
Q 3034 2534 3370 2195 
Q 3706 1856 3706 1288 
Q 3706 609 3251 259 
Q 2797 -91 1919 -91 
Q 1588 -91 1214 -16 
Q 841 59 441 206 
L 441 856 
Q 825 641 1194 531 
Q 1563 422 1919 422 
Q 2459 422 2753 634 
Q 3047 847 3047 1241 
Q 3047 1584 2836 1778 
Q 2625 1972 2144 2069 
L 1759 2144 
Q 1053 2284 737 2584 
Q 422 2884 422 3419 
Q 422 4038 858 4394 
Q 1294 4750 2059 4750 
Q 2388 4750 2728 4690 
Q 3069 4631 3425 4513 
z
" transform="scale(0.015625)"/>
      <path id="DejaVuSans-4d" d="M 628 4666 
L 1569 4666 
L 2759 1491 
L 3956 4666 
L 4897 4666 
L 4897 0 
L 4281 0 
L 4281 4097 
L 3078 897 
L 2444 897 
L 1241 4097 
L 1241 0 
L 628 0 
L 628 4666 
z
" transform="scale(0.015625)"/>
      <path id="DejaVuSans-41" d="M 2188 4044 
L 1331 1722 
L 3047 1722 
L 2188 4044 
z
M 1831 4666 
L 2547 4666 
L 4325 0 
L 3669 0 
L 3244 1197 
L 1141 1197 
L 716 0 
L 50 0 
L 1831 4666 
z
" transform="scale(0.015625)"/>
     </defs>
     <use xlink:href="#DejaVuSans-53"/>
     <use xlink:href="#DejaVuSans-4d" transform="translate(63.476562 0)"/>
     <use xlink:href="#DejaVuSans-41" transform="translate(149.755859 0)"/>
    </g>
   </g>
  </g>
  <g id="axes_2">
   <g id="patch_8">
    <path d="M 128.987234 230.4 
L 176.476596 230.4 
L 176.476596 57.6 
L 128.987234 57.6 
z
" style="fill: #ffffff"/>
   </g>
   <g id="patch_9">
    <path d="M 131.145841 230.4 
L 145.536557 230.4 
L 145.536557 207.674055 
L 131.145841 207.674055 
z
" clip-path="url(#pf0e5206309)" style="fill: #c0a54b"/>
   </g>
   <g id="patch_10">
    <path d="M 145.536557 230.4 
L 159.927273 230.4 
L 159.927273 226.868526 
L 145.536557 226.868526 
z
" clip-path="url(#pf0e5206309)" style="fill: #df2020"/>
   </g>
   <g id="patch_11">
    <path d="M 159.927273 230.4 
L 174.317988 230.4 
L 174.317988 216.755781 
L 159.927273 216.755781 
z
" clip-path="url(#pf0e5206309)" style="fill: #df20df"/>
   </g>
   <g id="patch_12">
    <path d="M 128.987234 205.49553 
L 176.476596 205.49553 
L 176.476596 189.254615 
L 128.987234 189.254615 
z
" clip-path="url(#pf0e5206309)" style="fill: #808080; opacity: 0.2"/>
   </g>
   <g id="matplotlib.axis_3"/>
   <g id="matplotlib.axis_4">
    <g id="ytick_6"/>
    <g id="ytick_7"/>
    <g id="ytick_8"/>
    <g id="ytick_9"/>
    <g id="ytick_10"/>
   </g>
   <g id="line2d_11">
    <path d="M 138.341199 216.143559 
L 138.341199 199.204552 
" clip-path="url(#pf0e5206309)" style="fill: none; stroke: #424242; stroke-width: 2.25; stroke-linecap: square"/>
   </g>
   <g id="line2d_12">
    <path d="M 152.731915 228.404972 
L 152.731915 225.33208 
" clip-path="url(#pf0e5206309)" style="fill: none; stroke: #424242; stroke-width: 2.25; stroke-linecap: square"/>
   </g>
   <g id="line2d_13">
    <path d="M 167.122631 220.320424 
L 167.122631 213.191138 
" clip-path="url(#pf0e5206309)" style="fill: none; stroke: #424242; stroke-width: 2.25; stroke-linecap: square"/>
   </g>
   <g id="line2d_14">
    <path d="M 128.987234 197.375072 
L 176.476596 197.375072 
" clip-path="url(#pf0e5206309)" style="fill: none; stroke-dasharray: 2,3.3; stroke-dashoffset: 0; stroke: #808080; stroke-width: 2"/>
   </g>
   <g id="line2d_15">
    <path d="M 139.780271 184.628722 
L 151.292843 184.628722 
" clip-path="url(#pf0e5206309)" style="fill: none; stroke: #000000; stroke-width: 1.5; stroke-linecap: square"/>
   </g>
   <g id="line2d_16">
    <path d="M 154.170986 169.744807 
L 165.683559 169.744807 
" clip-path="url(#pf0e5206309)" style="fill: none; stroke: #000000; stroke-width: 1.5; stroke-linecap: square"/>
   </g>
   <g id="text_12">
    <!--  -->
    <g transform="translate(152.731915 237.998438) scale(0.1 -0.1)"/>
    <!-- -0.23** -->
    <g transform="translate(134.795196 249.19625) scale(0.1 -0.1)">
     <defs>
      <path id="DejaVuSans-33" d="M 2597 2516 
Q 3050 2419 3304 2112 
Q 3559 1806 3559 1356 
Q 3559 666 3084 287 
Q 2609 -91 1734 -91 
Q 1441 -91 1130 -33 
Q 819 25 488 141 
L 488 750 
Q 750 597 1062 519 
Q 1375 441 1716 441 
Q 2309 441 2620 675 
Q 2931 909 2931 1356 
Q 2931 1769 2642 2001 
Q 2353 2234 1838 2234 
L 1294 2234 
L 1294 2753 
L 1863 2753 
Q 2328 2753 2575 2939 
Q 2822 3125 2822 3475 
Q 2822 3834 2567 4026 
Q 2313 4219 1838 4219 
Q 1578 4219 1281 4162 
Q 984 4106 628 3988 
L 628 4550 
Q 988 4650 1302 4700 
Q 1616 4750 1894 4750 
Q 2613 4750 3031 4423 
Q 3450 4097 3450 3541 
Q 3450 3153 3228 2886 
Q 3006 2619 2597 2516 
z
" transform="scale(0.015625)"/>
     </defs>
     <use xlink:href="#DejaVuSans-2d"/>
     <use xlink:href="#DejaVuSans-30" transform="translate(36.083984 0)"/>
     <use xlink:href="#DejaVuSans-2e" transform="translate(99.707031 0)"/>
     <use xlink:href="#DejaVuSans-32" transform="translate(131.494141 0)"/>
     <use xlink:href="#DejaVuSans-33" transform="translate(195.117188 0)"/>
     <use xlink:href="#DejaVuSans-2a" transform="translate(258.740234 0)"/>
     <use xlink:href="#DejaVuSans-2a" transform="translate(308.740234 0)"/>
    </g>
   </g>
   <g id="text_13">
    <!-- *** -->
    <g transform="translate(130.841199 237.998438) scale(0.1 -0.1)">
     <use xlink:href="#DejaVuSans-2a"/>
     <use xlink:href="#DejaVuSans-2a" transform="translate(50 0)"/>
     <use xlink:href="#DejaVuSans-2a" transform="translate(100 0)"/>
    </g>
   </g>
   <g id="text_14">
    <!-- *** -->
    <g transform="translate(159.622631 237.998438) scale(0.1 -0.1)">
     <use xlink:href="#DejaVuSans-2a"/>
     <use xlink:href="#DejaVuSans-2a" transform="translate(50 0)"/>
     <use xlink:href="#DejaVuSans-2a" transform="translate(100 0)"/>
    </g>
   </g>
   <g id="text_15">
    <!-- * -->
    <g transform="translate(143.036557 185.525818) scale(0.1 -0.1)">
     <use xlink:href="#DejaVuSans-2a"/>
    </g>
   </g>
   <g id="text_16">
    <!-- ** -->
    <g transform="translate(154.927273 170.641903) scale(0.1 -0.1)">
     <use xlink:href="#DejaVuSans-2a"/>
     <use xlink:href="#DejaVuSans-2a" transform="translate(50 0)"/>
    </g>
   </g>
   <g id="text_17">
    <!-- PMd -->
    <g transform="translate(140.128165 51.6) scale(0.12 -0.12)">
     <defs>
      <path id="DejaVuSans-50" d="M 1259 4147 
L 1259 2394 
L 2053 2394 
Q 2494 2394 2734 2622 
Q 2975 2850 2975 3272 
Q 2975 3691 2734 3919 
Q 2494 4147 2053 4147 
L 1259 4147 
z
M 628 4666 
L 2053 4666 
Q 2838 4666 3239 4311 
Q 3641 3956 3641 3272 
Q 3641 2581 3239 2228 
Q 2838 1875 2053 1875 
L 1259 1875 
L 1259 0 
L 628 0 
L 628 4666 
z
" transform="scale(0.015625)"/>
      <path id="DejaVuSans-64" d="M 2906 2969 
L 2906 4863 
L 3481 4863 
L 3481 0 
L 2906 0 
L 2906 525 
Q 2725 213 2448 61 
Q 2172 -91 1784 -91 
Q 1150 -91 751 415 
Q 353 922 353 1747 
Q 353 2572 751 3078 
Q 1150 3584 1784 3584 
Q 2172 3584 2448 3432 
Q 2725 3281 2906 2969 
z
M 947 1747 
Q 947 1113 1208 752 
Q 1469 391 1925 391 
Q 2381 391 2643 752 
Q 2906 1113 2906 1747 
Q 2906 2381 2643 2742 
Q 2381 3103 1925 3103 
Q 1469 3103 1208 2742 
Q 947 2381 947 1747 
z
" transform="scale(0.015625)"/>
     </defs>
     <use xlink:href="#DejaVuSans-50"/>
     <use xlink:href="#DejaVuSans-4d" transform="translate(60.302734 0)"/>
     <use xlink:href="#DejaVuSans-64" transform="translate(146.582031 0)"/>
    </g>
   </g>
  </g>
  <g id="axes_3">
   <g id="patch_13">
    <path d="M 185.974468 230.4 
L 233.46383 230.4 
L 233.46383 57.6 
L 185.974468 57.6 
z
" style="fill: #ffffff"/>
   </g>
   <g id="patch_14">
    <path d="M 188.133075 230.4 
L 202.523791 230.4 
L 202.523791 212.152373 
L 188.133075 212.152373 
z
" clip-path="url(#p7bbe4ae898)" style="fill: #c0a54b"/>
   </g>
   <g id="patch_15">
    <path d="M 202.523791 230.4 
L 216.914507 230.4 
L 216.914507 230.26824 
L 202.523791 230.26824 
z
" clip-path="url(#p7bbe4ae898)" style="fill: #df2020"/>
   </g>
   <g id="patch_16">
    <path d="M 216.914507 230.4 
L 231.305222 230.4 
L 231.305222 213.221531 
L 216.914507 213.221531 
z
" clip-path="url(#p7bbe4ae898)" style="fill: #df20df"/>
   </g>
   <g id="patch_17">
    <path d="M 185.974468 210.996659 
L 233.46383 210.996659 
L 233.46383 192.607957 
L 185.974468 192.607957 
z
" clip-path="url(#p7bbe4ae898)" style="fill: #808080; opacity: 0.2"/>
   </g>
   <g id="matplotlib.axis_5"/>
   <g id="matplotlib.axis_6">
    <g id="ytick_11"/>
    <g id="ytick_12"/>
    <g id="ytick_13"/>
    <g id="ytick_14"/>
    <g id="ytick_15"/>
   </g>
   <g id="line2d_17">
    <path d="M 195.328433 220.310714 
L 195.328433 203.994033 
" clip-path="url(#p7bbe4ae898)" style="fill: none; stroke: #424242; stroke-width: 2.25; stroke-linecap: square"/>
   </g>
   <g id="line2d_18">
    <path d="M 209.719149 230.399998 
L 209.719149 230.136483 
" clip-path="url(#p7bbe4ae898)" style="fill: none; stroke: #424242; stroke-width: 2.25; stroke-linecap: square"/>
   </g>
   <g id="line2d_19">
    <path d="M 224.109865 219.557306 
L 224.109865 206.885756 
" clip-path="url(#p7bbe4ae898)" style="fill: none; stroke: #424242; stroke-width: 2.25; stroke-linecap: square"/>
   </g>
   <g id="line2d_20">
    <path d="M 185.974468 201.802308 
L 233.46383 201.802308 
" clip-path="url(#p7bbe4ae898)" style="fill: none; stroke-dasharray: 2,3.3; stroke-dashoffset: 0; stroke: #808080; stroke-width: 2"/>
   </g>
   <g id="line2d_21">
    <path d="M 196.767505 189.406885 
L 208.280077 189.406885 
" clip-path="url(#p7bbe4ae898)" style="fill: none; stroke: #000000; stroke-width: 1.5; stroke-linecap: square"/>
   </g>
   <g id="line2d_22">
    <path d="M 211.158221 174.52297 
L 222.670793 174.52297 
" clip-path="url(#p7bbe4ae898)" style="fill: none; stroke: #000000; stroke-width: 1.5; stroke-linecap: square"/>
   </g>
   <g id="text_18">
    <!--  -->
    <g transform="translate(209.719149 237.998438) scale(0.1 -0.1)"/>
    <!-- -0.19* -->
    <g transform="translate(194.28243 249.19625) scale(0.1 -0.1)">
     <defs>
      <path id="DejaVuSans-39" d="M 703 97 
L 703 672 
Q 941 559 1184 500 
Q 1428 441 1663 441 
Q 2288 441 2617 861 
Q 2947 1281 2994 2138 
Q 2813 1869 2534 1725 
Q 2256 1581 1919 1581 
Q 1219 1581 811 2004 
Q 403 2428 403 3163 
Q 403 3881 828 4315 
Q 1253 4750 1959 4750 
Q 2769 4750 3195 4129 
Q 3622 3509 3622 2328 
Q 3622 1225 3098 567 
Q 2575 -91 1691 -91 
Q 1453 -91 1209 -44 
Q 966 3 703 97 
z
M 1959 2075 
Q 2384 2075 2632 2365 
Q 2881 2656 2881 3163 
Q 2881 3666 2632 3958 
Q 2384 4250 1959 4250 
Q 1534 4250 1286 3958 
Q 1038 3666 1038 3163 
Q 1038 2656 1286 2365 
Q 1534 2075 1959 2075 
z
" transform="scale(0.015625)"/>
     </defs>
     <use xlink:href="#DejaVuSans-2d"/>
     <use xlink:href="#DejaVuSans-30" transform="translate(36.083984 0)"/>
     <use xlink:href="#DejaVuSans-2e" transform="translate(99.707031 0)"/>
     <use xlink:href="#DejaVuSans-31" transform="translate(131.494141 0)"/>
     <use xlink:href="#DejaVuSans-39" transform="translate(195.117188 0)"/>
     <use xlink:href="#DejaVuSans-2a" transform="translate(258.740234 0)"/>
    </g>
   </g>
   <g id="text_19">
    <!-- ** -->
    <g transform="translate(190.328433 237.998438) scale(0.1 -0.1)">
     <use xlink:href="#DejaVuSans-2a"/>
     <use xlink:href="#DejaVuSans-2a" transform="translate(50 0)"/>
    </g>
   </g>
   <g id="text_20">
    <!-- *** -->
    <g transform="translate(216.609865 237.998438) scale(0.1 -0.1)">
     <use xlink:href="#DejaVuSans-2a"/>
     <use xlink:href="#DejaVuSans-2a" transform="translate(50 0)"/>
     <use xlink:href="#DejaVuSans-2a" transform="translate(100 0)"/>
    </g>
   </g>
   <g id="text_21">
    <!-- * -->
    <g transform="translate(200.023791 190.303981) scale(0.1 -0.1)">
     <use xlink:href="#DejaVuSans-2a"/>
    </g>
   </g>
   <g id="text_22">
    <!-- * -->
    <g transform="translate(214.414507 175.420066) scale(0.1 -0.1)">
     <use xlink:href="#DejaVuSans-2a"/>
    </g>
   </g>
   <g id="text_23">
    <!-- PMv -->
    <g transform="translate(197.373211 51.6) scale(0.12 -0.12)">
     <use xlink:href="#DejaVuSans-50"/>
     <use xlink:href="#DejaVuSans-4d" transform="translate(60.302734 0)"/>
     <use xlink:href="#DejaVuSans-76" transform="translate(146.582031 0)"/>
    </g>
   </g>
  </g>
  <g id="axes_4">
   <g id="patch_18">
    <path d="M 242.961702 230.4 
L 290.451064 230.4 
L 290.451064 57.6 
L 242.961702 57.6 
z
" style="fill: #ffffff"/>
   </g>
   <g id="patch_19">
    <path d="M 245.120309 230.4 
L 259.511025 230.4 
L 259.511025 145.657575 
L 245.120309 145.657575 
z
" clip-path="url(#pc14b5597ae)" style="fill: #c0a54b"/>
   </g>
   <g id="patch_20">
    <path d="M 259.511025 230.4 
L 273.901741 230.4 
L 273.901741 225.499571 
L 259.511025 225.499571 
z
" clip-path="url(#pc14b5597ae)" style="fill: #df2020"/>
   </g>
   <g id="patch_21">
    <path d="M 273.901741 230.4 
L 288.292456 230.4 
L 288.292456 221.98508 
L 273.901741 221.98508 
z
" clip-path="url(#pc14b5597ae)" style="fill: #df20df"/>
   </g>
   <g id="patch_22">
    <path d="M 242.961702 169.868164 
L 290.451064 169.868164 
L 290.451064 123.002274 
L 242.961702 123.002274 
z
" clip-path="url(#pc14b5597ae)" style="fill: #808080; opacity: 0.2"/>
   </g>
   <g id="matplotlib.axis_7"/>
   <g id="matplotlib.axis_8">
    <g id="ytick_16"/>
    <g id="ytick_17"/>
    <g id="ytick_18"/>
    <g id="ytick_19"/>
    <g id="ytick_20"/>
   </g>
   <g id="line2d_23">
    <path d="M 252.315667 171.21302 
L 252.315667 120.10213 
" clip-path="url(#pc14b5597ae)" style="fill: none; stroke: #424242; stroke-width: 2.25; stroke-linecap: square"/>
   </g>
   <g id="line2d_24">
    <path d="M 266.706383 227.642408 
L 266.706383 223.356733 
" clip-path="url(#pc14b5597ae)" style="fill: none; stroke: #424242; stroke-width: 2.25; stroke-linecap: square"/>
   </g>
   <g id="line2d_25">
    <path d="M 281.097099 225.01773 
L 281.097099 218.95243 
" clip-path="url(#pc14b5597ae)" style="fill: none; stroke: #424242; stroke-width: 2.25; stroke-linecap: square"/>
   </g>
   <g id="line2d_26">
    <path d="M 242.961702 146.435219 
L 290.451064 146.435219 
" clip-path="url(#pc14b5597ae)" style="fill: none; stroke-dasharray: 2,3.3; stroke-dashoffset: 0; stroke: #808080; stroke-width: 2"/>
   </g>
   <g id="line2d_27">
    <path d="M 253.754739 106.147817 
L 265.267311 106.147817 
" clip-path="url(#pc14b5597ae)" style="fill: none; stroke: #000000; stroke-width: 1.5; stroke-linecap: square"/>
   </g>
   <g id="line2d_28">
    <path d="M 255.19381 91.263902 
L 278.218956 91.263902 
" clip-path="url(#pc14b5597ae)" style="fill: none; stroke: #000000; stroke-width: 1.5; stroke-linecap: square"/>
   </g>
   <g id="text_24">
    <!--  -->
    <g transform="translate(266.706383 237.998438) scale(0.1 -0.1)"/>
    <!-- -0.35** -->
    <g transform="translate(248.769664 249.19625) scale(0.1 -0.1)">
     <use xlink:href="#DejaVuSans-2d"/>
     <use xlink:href="#DejaVuSans-30" transform="translate(36.083984 0)"/>
     <use xlink:href="#DejaVuSans-2e" transform="translate(99.707031 0)"/>
     <use xlink:href="#DejaVuSans-33" transform="translate(131.494141 0)"/>
     <use xlink:href="#DejaVuSans-35" transform="translate(195.117188 0)"/>
     <use xlink:href="#DejaVuSans-2a" transform="translate(258.740234 0)"/>
     <use xlink:href="#DejaVuSans-2a" transform="translate(308.740234 0)"/>
    </g>
   </g>
   <g id="text_25">
    <!-- *** -->
    <g transform="translate(244.815667 237.998438) scale(0.1 -0.1)">
     <use xlink:href="#DejaVuSans-2a"/>
     <use xlink:href="#DejaVuSans-2a" transform="translate(50 0)"/>
     <use xlink:href="#DejaVuSans-2a" transform="translate(100 0)"/>
    </g>
   </g>
   <g id="text_26">
    <!-- * -->
    <g transform="translate(278.597099 237.998438) scale(0.1 -0.1)">
     <use xlink:href="#DejaVuSans-2a"/>
    </g>
   </g>
   <g id="text_27">
    <!-- ** -->
    <g transform="translate(254.511025 107.044912) scale(0.1 -0.1)">
     <use xlink:href="#DejaVuSans-2a"/>
     <use xlink:href="#DejaVuSans-2a" transform="translate(50 0)"/>
    </g>
   </g>
   <g id="text_28">
    <!-- * -->
    <g transform="translate(264.206383 92.160997) scale(0.1 -0.1)">
     <use xlink:href="#DejaVuSans-2a"/>
    </g>
   </g>
   <g id="text_29">
    <!-- M1 -->
    <g transform="translate(257.712008 51.6) scale(0.12 -0.12)">
     <use xlink:href="#DejaVuSans-4d"/>
     <use xlink:href="#DejaVuSans-31" transform="translate(86.279297 0)"/>
    </g>
   </g>
  </g>
  <g id="axes_5">
   <g id="patch_23">
    <path d="M 299.948936 230.4 
L 347.438298 230.4 
L 347.438298 57.6 
L 299.948936 57.6 
z
" style="fill: #ffffff"/>
   </g>
   <g id="patch_24">
    <path d="M 302.107544 230.4 
L 316.498259 230.4 
L 316.498259 125.419792 
L 302.107544 125.419792 
z
" clip-path="url(#pf3a86f7346)" style="fill: #c0a54b"/>
   </g>
   <g id="patch_25">
    <path d="M 316.498259 230.4 
L 330.888975 230.4 
L 330.888975 222.830189 
L 316.498259 222.830189 
z
" clip-path="url(#pf3a86f7346)" style="fill: #df2020"/>
   </g>
   <g id="patch_26">
    <path d="M 330.888975 230.4 
L 345.279691 230.4 
L 345.279691 219.579581 
L 330.888975 219.579581 
z
" clip-path="url(#pf3a86f7346)" style="fill: #df20df"/>
   </g>
   <g id="patch_27">
    <path d="M 299.948936 145.970811 
L 347.438298 145.970811 
L 347.438298 88.648429 
L 299.948936 88.648429 
z
" clip-path="url(#pf3a86f7346)" style="fill: #808080; opacity: 0.2"/>
   </g>
   <g id="matplotlib.axis_9"/>
   <g id="matplotlib.axis_10">
    <g id="ytick_21"/>
    <g id="ytick_22"/>
    <g id="ytick_23"/>
    <g id="ytick_24"/>
    <g id="ytick_25"/>
   </g>
   <g id="line2d_29">
    <path d="M 309.302901 156.368987 
L 309.302901 94.470597 
" clip-path="url(#pf3a86f7346)" style="fill: none; stroke: #424242; stroke-width: 2.25; stroke-linecap: square"/>
   </g>
   <g id="line2d_30">
    <path d="M 323.693617 225.325607 
L 323.693617 220.334772 
" clip-path="url(#pf3a86f7346)" style="fill: none; stroke: #424242; stroke-width: 2.25; stroke-linecap: square"/>
   </g>
   <g id="line2d_31">
    <path d="M 338.084333 223.877801 
L 338.084333 215.281361 
" clip-path="url(#pf3a86f7346)" style="fill: none; stroke: #424242; stroke-width: 2.25; stroke-linecap: square"/>
   </g>
   <g id="line2d_32">
    <path d="M 299.948936 117.30962 
L 347.438298 117.30962 
" clip-path="url(#pf3a86f7346)" style="fill: none; stroke-dasharray: 2,3.3; stroke-dashoffset: 0; stroke: #808080; stroke-width: 2"/>
   </g>
   <g id="line2d_33">
    <path d="M 310.741973 80.712486 
L 322.254545 80.712486 
" clip-path="url(#pf3a86f7346)" style="fill: none; stroke: #000000; stroke-width: 1.5; stroke-linecap: square"/>
   </g>
   <g id="line2d_34">
    <path d="M 312.181044 65.828571 
L 335.20619 65.828571 
" clip-path="url(#pf3a86f7346)" style="fill: none; stroke: #000000; stroke-width: 1.5; stroke-linecap: square"/>
   </g>
   <g id="text_30">
    <!--  -->
    <g transform="translate(323.693617 237.998438) scale(0.1 -0.1)"/>
    <!-- -0.35*** -->
    <g transform="translate(303.256898 249.19625) scale(0.1 -0.1)">
     <use xlink:href="#DejaVuSans-2d"/>
     <use xlink:href="#DejaVuSans-30" transform="translate(36.083984 0)"/>
     <use xlink:href="#DejaVuSans-2e" transform="translate(99.707031 0)"/>
     <use xlink:href="#DejaVuSans-33" transform="translate(131.494141 0)"/>
     <use xlink:href="#DejaVuSans-35" transform="translate(195.117188 0)"/>
     <use xlink:href="#DejaVuSans-2a" transform="translate(258.740234 0)"/>
     <use xlink:href="#DejaVuSans-2a" transform="translate(308.740234 0)"/>
     <use xlink:href="#DejaVuSans-2a" transform="translate(358.740234 0)"/>
    </g>
   </g>
   <g id="text_31">
    <!-- *** -->
    <g transform="translate(301.802901 237.998438) scale(0.1 -0.1)">
     <use xlink:href="#DejaVuSans-2a"/>
     <use xlink:href="#DejaVuSans-2a" transform="translate(50 0)"/>
     <use xlink:href="#DejaVuSans-2a" transform="translate(100 0)"/>
    </g>
   </g>
   <g id="text_32">
    <!-- ** -->
    <g transform="translate(318.693617 237.998438) scale(0.1 -0.1)">
     <use xlink:href="#DejaVuSans-2a"/>
     <use xlink:href="#DejaVuSans-2a" transform="translate(50 0)"/>
    </g>
   </g>
   <g id="text_33">
    <!-- ** -->
    <g transform="translate(333.084333 237.998438) scale(0.1 -0.1)">
     <use xlink:href="#DejaVuSans-2a"/>
     <use xlink:href="#DejaVuSans-2a" transform="translate(50 0)"/>
    </g>
   </g>
   <g id="text_34">
    <!-- ** -->
    <g transform="translate(311.498259 81.609582) scale(0.1 -0.1)">
     <use xlink:href="#DejaVuSans-2a"/>
     <use xlink:href="#DejaVuSans-2a" transform="translate(50 0)"/>
    </g>
   </g>
   <g id="text_35">
    <!-- * -->
    <g transform="translate(321.193617 66.725667) scale(0.1 -0.1)">
     <use xlink:href="#DejaVuSans-2a"/>
    </g>
   </g>
   <g id="text_36">
    <!-- S1 -->
    <g transform="translate(316.067055 51.6) scale(0.12 -0.12)">
     <use xlink:href="#DejaVuSans-53"/>
     <use xlink:href="#DejaVuSans-31" transform="translate(63.476562 0)"/>
    </g>
   </g>
  </g>
  <g id="axes_6">
   <g id="patch_28">
    <path d="M 356.93617 230.4 
L 404.425532 230.4 
L 404.425532 57.6 
L 356.93617 57.6 
z
" style="fill: #ffffff"/>
   </g>
   <g id="patch_29">
    <path d="M 359.094778 230.4 
L 373.485493 230.4 
L 373.485493 212.059439 
L 359.094778 212.059439 
z
" clip-path="url(#p4fc2804d89)" style="fill: #c0a54b"/>
   </g>
   <g id="patch_30">
    <path d="M 373.485493 230.4 
L 387.876209 230.4 
L 387.876209 225.983255 
L 373.485493 225.983255 
z
" clip-path="url(#p4fc2804d89)" style="fill: #df2020"/>
   </g>
   <g id="patch_31">
    <path d="M 387.876209 230.4 
L 402.266925 230.4 
L 402.266925 212.281285 
L 387.876209 212.281285 
z
" clip-path="url(#p4fc2804d89)" style="fill: #df20df"/>
   </g>
   <g id="patch_32">
    <path d="M 356.93617 206.197513 
L 404.425532 206.197513 
L 404.425532 193.740175 
L 356.93617 193.740175 
z
" clip-path="url(#p4fc2804d89)" style="fill: #808080; opacity: 0.2"/>
   </g>
   <g id="matplotlib.axis_11"/>
   <g id="matplotlib.axis_12">
    <g id="ytick_26"/>
    <g id="ytick_27"/>
    <g id="ytick_28"/>
    <g id="ytick_29"/>
    <g id="ytick_30"/>
   </g>
   <g id="line2d_35">
    <path d="M 366.290135 217.928743 
L 366.290135 206.190134 
" clip-path="url(#p4fc2804d89)" style="fill: none; stroke: #424242; stroke-width: 2.25; stroke-linecap: square"/>
   </g>
   <g id="line2d_36">
    <path d="M 380.680851 227.937215 
L 380.680851 224.029295 
" clip-path="url(#p4fc2804d89)" style="fill: none; stroke: #424242; stroke-width: 2.25; stroke-linecap: square"/>
   </g>
   <g id="line2d_37">
    <path d="M 395.071567 216.858833 
L 395.071567 207.703737 
" clip-path="url(#p4fc2804d89)" style="fill: none; stroke: #424242; stroke-width: 2.25; stroke-linecap: square"/>
   </g>
   <g id="line2d_38">
    <path d="M 356.93617 199.968844 
L 404.425532 199.968844 
" clip-path="url(#p4fc2804d89)" style="fill: none; stroke-dasharray: 2,3.3; stroke-dashoffset: 0; stroke: #808080; stroke-width: 2"/>
   </g>
   <g id="line2d_39">
    <path d="M 367.729207 189.123636 
L 379.241779 189.123636 
" clip-path="url(#p4fc2804d89)" style="fill: none; stroke: #000000; stroke-width: 1.5; stroke-linecap: square"/>
   </g>
   <g id="line2d_40">
    <path d="M 382.119923 171.843636 
L 393.632495 171.843636 
" clip-path="url(#p4fc2804d89)" style="fill: none; stroke: #000000; stroke-width: 1.5; stroke-linecap: square"/>
   </g>
   <g id="text_37">
    <!--  -->
    <g transform="translate(380.680851 237.998438) scale(0.1 -0.1)"/>
    <!-- -0.22*** -->
    <g transform="translate(360.244132 249.19625) scale(0.1 -0.1)">
     <use xlink:href="#DejaVuSans-2d"/>
     <use xlink:href="#DejaVuSans-30" transform="translate(36.083984 0)"/>
     <use xlink:href="#DejaVuSans-2e" transform="translate(99.707031 0)"/>
     <use xlink:href="#DejaVuSans-32" transform="translate(131.494141 0)"/>
     <use xlink:href="#DejaVuSans-32" transform="translate(195.117188 0)"/>
     <use xlink:href="#DejaVuSans-2a" transform="translate(258.740234 0)"/>
     <use xlink:href="#DejaVuSans-2a" transform="translate(308.740234 0)"/>
     <use xlink:href="#DejaVuSans-2a" transform="translate(358.740234 0)"/>
    </g>
   </g>
   <g id="text_38">
    <!-- *** -->
    <g transform="translate(358.790135 237.998438) scale(0.1 -0.1)">
     <use xlink:href="#DejaVuSans-2a"/>
     <use xlink:href="#DejaVuSans-2a" transform="translate(50 0)"/>
     <use xlink:href="#DejaVuSans-2a" transform="translate(100 0)"/>
    </g>
   </g>
   <g id="text_39">
    <!-- * -->
    <g transform="translate(378.180851 237.998438) scale(0.1 -0.1)">
     <use xlink:href="#DejaVuSans-2a"/>
    </g>
   </g>
   <g id="text_40">
    <!-- *** -->
    <g transform="translate(387.571567 237.998438) scale(0.1 -0.1)">
     <use xlink:href="#DejaVuSans-2a"/>
     <use xlink:href="#DejaVuSans-2a" transform="translate(50 0)"/>
     <use xlink:href="#DejaVuSans-2a" transform="translate(100 0)"/>
    </g>
   </g>
   <g id="text_41">
    <!-- * -->
    <g transform="translate(370.985493 190.499948) scale(0.1 -0.1)">
     <use xlink:href="#DejaVuSans-2a"/>
    </g>
   </g>
   <g id="text_42">
    <!-- * -->
    <g transform="translate(385.376209 173.219948) scale(0.1 -0.1)">
     <use xlink:href="#DejaVuSans-2a"/>
    </g>
   </g>
   <g id="text_43">
    <!-- SPLa -->
    <g transform="translate(366.233976 51.6) scale(0.12 -0.12)">
     <defs>
      <path id="DejaVuSans-4c" d="M 628 4666 
L 1259 4666 
L 1259 531 
L 3531 531 
L 3531 0 
L 628 0 
L 628 4666 
z
" transform="scale(0.015625)"/>
     </defs>
     <use xlink:href="#DejaVuSans-53"/>
     <use xlink:href="#DejaVuSans-50" transform="translate(63.476562 0)"/>
     <use xlink:href="#DejaVuSans-4c" transform="translate(123.779297 0)"/>
     <use xlink:href="#DejaVuSans-61" transform="translate(179.492188 0)"/>
    </g>
   </g>
  </g>
  <g id="axes_7">
   <g id="patch_33">
    <path d="M 413.923404 230.4 
L 461.412766 230.4 
L 461.412766 57.6 
L 413.923404 57.6 
z
" style="fill: #ffffff"/>
   </g>
   <g id="patch_34">
    <path d="M 416.082012 230.4 
L 430.472727 230.4 
L 430.472727 224.436679 
L 416.082012 224.436679 
z
" clip-path="url(#p72c2ec157c)" style="fill: #c0a54b"/>
   </g>
   <g id="patch_35">
    <path d="M 430.472727 230.4 
L 444.863443 230.4 
L 444.863443 227.680045 
L 430.472727 227.680045 
z
" clip-path="url(#p72c2ec157c)" style="fill: #df2020"/>
   </g>
   <g id="patch_36">
    <path d="M 444.863443 230.4 
L 459.254159 230.4 
L 459.254159 205.862585 
L 444.863443 205.862585 
z
" clip-path="url(#p72c2ec157c)" style="fill: #df20df"/>
   </g>
   <g id="patch_37">
    <path d="M 413.923404 226.859061 
L 461.412766 226.859061 
L 461.412766 204.355602 
L 413.923404 204.355602 
z
" clip-path="url(#p72c2ec157c)" style="fill: #808080; opacity: 0.2"/>
   </g>
   <g id="matplotlib.axis_13"/>
   <g id="matplotlib.axis_14">
    <g id="ytick_31"/>
    <g id="ytick_32"/>
    <g id="ytick_33"/>
    <g id="ytick_34"/>
    <g id="ytick_35"/>
   </g>
   <g id="line2d_41">
    <path d="M 423.277369 227.223152 
L 423.277369 221.650205 
" clip-path="url(#p72c2ec157c)" style="fill: none; stroke: #424242; stroke-width: 2.25; stroke-linecap: square"/>
   </g>
   <g id="line2d_42">
    <path d="M 437.668085 228.784442 
L 437.668085 226.575648 
" clip-path="url(#p72c2ec157c)" style="fill: none; stroke: #424242; stroke-width: 2.25; stroke-linecap: square"/>
   </g>
   <g id="line2d_43">
    <path d="M 452.058801 212.404867 
L 452.058801 199.320303 
" clip-path="url(#p72c2ec157c)" style="fill: none; stroke: #424242; stroke-width: 2.25; stroke-linecap: square"/>
   </g>
   <g id="line2d_44">
    <path d="M 413.923404 215.607332 
L 461.412766 215.607332 
" clip-path="url(#p72c2ec157c)" style="fill: none; stroke-dasharray: 2,3.3; stroke-dashoffset: 0; stroke: #808080; stroke-width: 2"/>
   </g>
   <g id="line2d_45">
    <path d="M 426.155513 182.278284 
L 449.180658 182.278284 
" clip-path="url(#p72c2ec157c)" style="fill: none; stroke: #000000; stroke-width: 1.5; stroke-linecap: square"/>
   </g>
   <g id="line2d_46">
    <path d="M 439.107157 164.998284 
L 450.619729 164.998284 
" clip-path="url(#p72c2ec157c)" style="fill: none; stroke: #000000; stroke-width: 1.5; stroke-linecap: square"/>
   </g>
   <g id="text_44">
    <!--  -->
    <g transform="translate(437.668085 237.998438) scale(0.1 -0.1)"/>
    <!-- -0.17** -->
    <g transform="translate(419.731366 249.19625) scale(0.1 -0.1)">
     <defs>
      <path id="DejaVuSans-37" d="M 525 4666 
L 3525 4666 
L 3525 4397 
L 1831 0 
L 1172 0 
L 2766 4134 
L 525 4134 
L 525 4666 
z
" transform="scale(0.015625)"/>
     </defs>
     <use xlink:href="#DejaVuSans-2d"/>
     <use xlink:href="#DejaVuSans-30" transform="translate(36.083984 0)"/>
     <use xlink:href="#DejaVuSans-2e" transform="translate(99.707031 0)"/>
     <use xlink:href="#DejaVuSans-31" transform="translate(131.494141 0)"/>
     <use xlink:href="#DejaVuSans-37" transform="translate(195.117188 0)"/>
     <use xlink:href="#DejaVuSans-2a" transform="translate(258.740234 0)"/>
     <use xlink:href="#DejaVuSans-2a" transform="translate(308.740234 0)"/>
    </g>
   </g>
   <g id="text_45">
    <!-- * -->
    <g transform="translate(420.777369 237.998438) scale(0.1 -0.1)">
     <use xlink:href="#DejaVuSans-2a"/>
    </g>
   </g>
   <g id="text_46">
    <!-- *** -->
    <g transform="translate(444.558801 237.998438) scale(0.1 -0.1)">
     <use xlink:href="#DejaVuSans-2a"/>
     <use xlink:href="#DejaVuSans-2a" transform="translate(50 0)"/>
     <use xlink:href="#DejaVuSans-2a" transform="translate(100 0)"/>
    </g>
   </g>
   <g id="text_47">
    <!-- * -->
    <g transform="translate(435.168085 183.654597) scale(0.1 -0.1)">
     <use xlink:href="#DejaVuSans-2a"/>
    </g>
   </g>
   <g id="text_48">
    <!-- ** -->
    <g transform="translate(439.863443 166.374597) scale(0.1 -0.1)">
     <use xlink:href="#DejaVuSans-2a"/>
     <use xlink:href="#DejaVuSans-2a" transform="translate(50 0)"/>
    </g>
   </g>
   <g id="text_49">
    <!-- SPLp -->
    <g transform="translate(423.089023 51.6) scale(0.12 -0.12)">
     <defs>
      <path id="DejaVuSans-70" d="M 1159 525 
L 1159 -1331 
L 581 -1331 
L 581 3500 
L 1159 3500 
L 1159 2969 
Q 1341 3281 1617 3432 
Q 1894 3584 2278 3584 
Q 2916 3584 3314 3078 
Q 3713 2572 3713 1747 
Q 3713 922 3314 415 
Q 2916 -91 2278 -91 
Q 1894 -91 1617 61 
Q 1341 213 1159 525 
z
M 3116 1747 
Q 3116 2381 2855 2742 
Q 2594 3103 2138 3103 
Q 1681 3103 1420 2742 
Q 1159 2381 1159 1747 
Q 1159 1113 1420 752 
Q 1681 391 2138 391 
Q 2594 391 2855 752 
Q 3116 1113 3116 1747 
z
" transform="scale(0.015625)"/>
     </defs>
     <use xlink:href="#DejaVuSans-53"/>
     <use xlink:href="#DejaVuSans-50" transform="translate(63.476562 0)"/>
     <use xlink:href="#DejaVuSans-4c" transform="translate(123.779297 0)"/>
     <use xlink:href="#DejaVuSans-70" transform="translate(179.492188 0)"/>
    </g>
   </g>
  </g>
  <g id="axes_8">
   <g id="patch_38">
    <path d="M 470.910638 230.4 
L 518.4 230.4 
L 518.4 57.6 
L 470.910638 57.6 
z
" style="fill: #ffffff"/>
   </g>
   <g id="patch_39">
    <path d="M 470.910638 230.4 
L 486.740426 230.4 
L 486.740426 216.523216 
L 470.910638 216.523216 
z
" clip-path="url(#p227e655d29)" style="fill: #c0a54b"/>
   </g>
   <g id="patch_40">
    <path d="M 486.740426 230.4 
L 502.570213 230.4 
L 502.570213 224.491989 
L 486.740426 224.491989 
z
" clip-path="url(#p227e655d29)" style="fill: #df2020"/>
   </g>
   <g id="patch_41">
    <path d="M 502.570213 230.4 
L 518.4 230.4 
L 518.4 207.843521 
L 502.570213 207.843521 
z
" clip-path="url(#p227e655d29)" style="fill: #df20df"/>
   </g>
   <g id="patch_42">
    <path d="M 470.910638 201.378948 
L 518.4 201.378948 
L 518.4 169.112523 
L 470.910638 169.112523 
z
" clip-path="url(#p227e655d29)" style="fill: #808080; opacity: 0.2"/>
   </g>
   <g id="matplotlib.axis_15"/>
   <g id="matplotlib.axis_16">
    <g id="ytick_36"/>
    <g id="ytick_37"/>
    <g id="ytick_38"/>
    <g id="ytick_39"/>
    <g id="ytick_40"/>
   </g>
   <g id="line2d_47">
    <path d="M 478.825532 221.186154 
L 478.825532 211.860279 
" clip-path="url(#p227e655d29)" style="fill: none; stroke: #424242; stroke-width: 2.25; stroke-linecap: square"/>
   </g>
   <g id="line2d_48">
    <path d="M 494.655319 226.181289 
L 494.655319 222.802689 
" clip-path="url(#p227e655d29)" style="fill: none; stroke: #424242; stroke-width: 2.25; stroke-linecap: square"/>
   </g>
   <g id="line2d_49">
    <path d="M 510.485106 221.380131 
L 510.485106 194.30691 
" clip-path="url(#p227e655d29)" style="fill: none; stroke: #424242; stroke-width: 2.25; stroke-linecap: square"/>
   </g>
   <g id="line2d_50">
    <path d="M 470.910638 185.245735 
L 518.4 185.245735 
" clip-path="url(#p227e655d29)" style="fill: none; stroke-dasharray: 2,3.3; stroke-dashoffset: 0; stroke: #808080; stroke-width: 2"/>
   </g>
   <g id="text_50">
    <!--  -->
    <g transform="translate(494.655319 237.998438) scale(0.1 -0.1)"/>
    <!-- -0.19** -->
    <g transform="translate(476.7186 249.19625) scale(0.1 -0.1)">
     <use xlink:href="#DejaVuSans-2d"/>
     <use xlink:href="#DejaVuSans-30" transform="translate(36.083984 0)"/>
     <use xlink:href="#DejaVuSans-2e" transform="translate(99.707031 0)"/>
     <use xlink:href="#DejaVuSans-31" transform="translate(131.494141 0)"/>
     <use xlink:href="#DejaVuSans-39" transform="translate(195.117188 0)"/>
     <use xlink:href="#DejaVuSans-2a" transform="translate(258.740234 0)"/>
     <use xlink:href="#DejaVuSans-2a" transform="translate(308.740234 0)"/>
    </g>
   </g>
   <g id="text_51">
    <!-- *** -->
    <g transform="translate(471.325532 237.998438) scale(0.1 -0.1)">
     <use xlink:href="#DejaVuSans-2a"/>
     <use xlink:href="#DejaVuSans-2a" transform="translate(50 0)"/>
     <use xlink:href="#DejaVuSans-2a" transform="translate(100 0)"/>
    </g>
   </g>
   <g id="text_52">
    <!-- * -->
    <g transform="translate(492.155319 237.998438) scale(0.1 -0.1)">
     <use xlink:href="#DejaVuSans-2a"/>
    </g>
   </g>
   <g id="text_53">
    <!-- ** -->
    <g transform="translate(505.485106 237.998438) scale(0.1 -0.1)">
     <use xlink:href="#DejaVuSans-2a"/>
     <use xlink:href="#DejaVuSans-2a" transform="translate(50 0)"/>
    </g>
   </g>
   <g id="text_54">
    <!-- V1 -->
    <g transform="translate(486.733444 51.6) scale(0.12 -0.12)">
     <defs>
      <path id="DejaVuSans-56" d="M 1831 0 
L 50 4666 
L 709 4666 
L 2188 738 
L 3669 4666 
L 4325 4666 
L 2547 0 
L 1831 0 
z
" transform="scale(0.015625)"/>
     </defs>
     <use xlink:href="#DejaVuSans-56"/>
     <use xlink:href="#DejaVuSans-31" transform="translate(68.408203 0)"/>
    </g>
   </g>
  </g>
  <g id="text_55">
   <!-- Variance explained by component model -->
   <g transform="translate(165.203438 14.878125) scale(0.12 -0.12)">
    <defs>
     <path id="DejaVuSans-78" d="M 3513 3500 
L 2247 1797 
L 3578 0 
L 2900 0 
L 1881 1375 
L 863 0 
L 184 0 
L 1544 1831 
L 300 3500 
L 978 3500 
L 1906 2253 
L 2834 3500 
L 3513 3500 
z
" transform="scale(0.015625)"/>
     <path id="DejaVuSans-6c" d="M 603 4863 
L 1178 4863 
L 1178 0 
L 603 0 
L 603 4863 
z
" transform="scale(0.015625)"/>
     <path id="DejaVuSans-62" d="M 3116 1747 
Q 3116 2381 2855 2742 
Q 2594 3103 2138 3103 
Q 1681 3103 1420 2742 
Q 1159 2381 1159 1747 
Q 1159 1113 1420 752 
Q 1681 391 2138 391 
Q 2594 391 2855 752 
Q 3116 1113 3116 1747 
z
M 1159 2969 
Q 1341 3281 1617 3432 
Q 1894 3584 2278 3584 
Q 2916 3584 3314 3078 
Q 3713 2572 3713 1747 
Q 3713 922 3314 415 
Q 2916 -91 2278 -91 
Q 1894 -91 1617 61 
Q 1341 213 1159 525 
L 1159 0 
L 581 0 
L 581 4863 
L 1159 4863 
L 1159 2969 
z
" transform="scale(0.015625)"/>
     <path id="DejaVuSans-79" d="M 2059 -325 
Q 1816 -950 1584 -1140 
Q 1353 -1331 966 -1331 
L 506 -1331 
L 506 -850 
L 844 -850 
Q 1081 -850 1212 -737 
Q 1344 -625 1503 -206 
L 1606 56 
L 191 3500 
L 800 3500 
L 1894 763 
L 2988 3500 
L 3597 3500 
L 2059 -325 
z
" transform="scale(0.015625)"/>
     <path id="DejaVuSans-6f" d="M 1959 3097 
Q 1497 3097 1228 2736 
Q 959 2375 959 1747 
Q 959 1119 1226 758 
Q 1494 397 1959 397 
Q 2419 397 2687 759 
Q 2956 1122 2956 1747 
Q 2956 2369 2687 2733 
Q 2419 3097 1959 3097 
z
M 1959 3584 
Q 2709 3584 3137 3096 
Q 3566 2609 3566 1747 
Q 3566 888 3137 398 
Q 2709 -91 1959 -91 
Q 1206 -91 779 398 
Q 353 888 353 1747 
Q 353 2609 779 3096 
Q 1206 3584 1959 3584 
z
" transform="scale(0.015625)"/>
     <path id="DejaVuSans-6d" d="M 3328 2828 
Q 3544 3216 3844 3400 
Q 4144 3584 4550 3584 
Q 5097 3584 5394 3201 
Q 5691 2819 5691 2113 
L 5691 0 
L 5113 0 
L 5113 2094 
Q 5113 2597 4934 2840 
Q 4756 3084 4391 3084 
Q 3944 3084 3684 2787 
Q 3425 2491 3425 1978 
L 3425 0 
L 2847 0 
L 2847 2094 
Q 2847 2600 2669 2842 
Q 2491 3084 2119 3084 
Q 1678 3084 1418 2786 
Q 1159 2488 1159 1978 
L 1159 0 
L 581 0 
L 581 3500 
L 1159 3500 
L 1159 2956 
Q 1356 3278 1631 3431 
Q 1906 3584 2284 3584 
Q 2666 3584 2933 3390 
Q 3200 3197 3328 2828 
z
" transform="scale(0.015625)"/>
     <path id="DejaVuSans-74" d="M 1172 4494 
L 1172 3500 
L 2356 3500 
L 2356 3053 
L 1172 3053 
L 1172 1153 
Q 1172 725 1289 603 
Q 1406 481 1766 481 
L 2356 481 
L 2356 0 
L 1766 0 
Q 1100 0 847 248 
Q 594 497 594 1153 
L 594 3053 
L 172 3053 
L 172 3500 
L 594 3500 
L 594 4494 
L 1172 4494 
z
" transform="scale(0.015625)"/>
    </defs>
    <use xlink:href="#DejaVuSans-56"/>
    <use xlink:href="#DejaVuSans-61" transform="translate(60.658203 0)"/>
    <use xlink:href="#DejaVuSans-72" transform="translate(121.9375 0)"/>
    <use xlink:href="#DejaVuSans-69" transform="translate(163.050781 0)"/>
    <use xlink:href="#DejaVuSans-61" transform="translate(190.833984 0)"/>
    <use xlink:href="#DejaVuSans-6e" transform="translate(252.113281 0)"/>
    <use xlink:href="#DejaVuSans-63" transform="translate(315.492188 0)"/>
    <use xlink:href="#DejaVuSans-65" transform="translate(370.472656 0)"/>
    <use xlink:href="#DejaVuSans-20" transform="translate(431.996094 0)"/>
    <use xlink:href="#DejaVuSans-65" transform="translate(463.783203 0)"/>
    <use xlink:href="#DejaVuSans-78" transform="translate(523.556641 0)"/>
    <use xlink:href="#DejaVuSans-70" transform="translate(582.736328 0)"/>
    <use xlink:href="#DejaVuSans-6c" transform="translate(646.212891 0)"/>
    <use xlink:href="#DejaVuSans-61" transform="translate(673.996094 0)"/>
    <use xlink:href="#DejaVuSans-69" transform="translate(735.275391 0)"/>
    <use xlink:href="#DejaVuSans-6e" transform="translate(763.058594 0)"/>
    <use xlink:href="#DejaVuSans-65" transform="translate(826.4375 0)"/>
    <use xlink:href="#DejaVuSans-64" transform="translate(887.960938 0)"/>
    <use xlink:href="#DejaVuSans-20" transform="translate(951.4375 0)"/>
    <use xlink:href="#DejaVuSans-62" transform="translate(983.224609 0)"/>
    <use xlink:href="#DejaVuSans-79" transform="translate(1046.701172 0)"/>
    <use xlink:href="#DejaVuSans-20" transform="translate(1105.880859 0)"/>
    <use xlink:href="#DejaVuSans-63" transform="translate(1137.667969 0)"/>
    <use xlink:href="#DejaVuSans-6f" transform="translate(1192.648438 0)"/>
    <use xlink:href="#DejaVuSans-6d" transform="translate(1253.830078 0)"/>
    <use xlink:href="#DejaVuSans-70" transform="translate(1351.242188 0)"/>
    <use xlink:href="#DejaVuSans-6f" transform="translate(1414.71875 0)"/>
    <use xlink:href="#DejaVuSans-6e" transform="translate(1475.900391 0)"/>
    <use xlink:href="#DejaVuSans-65" transform="translate(1539.279297 0)"/>
    <use xlink:href="#DejaVuSans-6e" transform="translate(1600.802734 0)"/>
    <use xlink:href="#DejaVuSans-74" transform="translate(1664.181641 0)"/>
    <use xlink:href="#DejaVuSans-20" transform="translate(1703.390625 0)"/>
    <use xlink:href="#DejaVuSans-6d" transform="translate(1735.177734 0)"/>
    <use xlink:href="#DejaVuSans-6f" transform="translate(1832.589844 0)"/>
    <use xlink:href="#DejaVuSans-64" transform="translate(1893.771484 0)"/>
    <use xlink:href="#DejaVuSans-65" transform="translate(1957.248047 0)"/>
    <use xlink:href="#DejaVuSans-6c" transform="translate(2018.771484 0)"/>
   </g>
  </g>
  <g id="legend_1">
   <g id="patch_43">
    <path d="M 182.252344 276.920313 
L 202.252344 276.920313 
L 202.252344 269.920313 
L 182.252344 269.920313 
z
" style="fill: #d4af37; stroke: #000000; stroke-linejoin: miter"/>
   </g>
   <g id="text_56">
    <!-- finger -->
    <g transform="translate(210.252344 276.920313) scale(0.1 -0.1)">
     <defs>
      <path id="DejaVuSans-66" d="M 2375 4863 
L 2375 4384 
L 1825 4384 
Q 1516 4384 1395 4259 
Q 1275 4134 1275 3809 
L 1275 3500 
L 2222 3500 
L 2222 3053 
L 1275 3053 
L 1275 0 
L 697 0 
L 697 3053 
L 147 3053 
L 147 3500 
L 697 3500 
L 697 3744 
Q 697 4328 969 4595 
Q 1241 4863 1831 4863 
L 2375 4863 
z
" transform="scale(0.015625)"/>
      <path id="DejaVuSans-67" d="M 2906 1791 
Q 2906 2416 2648 2759 
Q 2391 3103 1925 3103 
Q 1463 3103 1205 2759 
Q 947 2416 947 1791 
Q 947 1169 1205 825 
Q 1463 481 1925 481 
Q 2391 481 2648 825 
Q 2906 1169 2906 1791 
z
M 3481 434 
Q 3481 -459 3084 -895 
Q 2688 -1331 1869 -1331 
Q 1566 -1331 1297 -1286 
Q 1028 -1241 775 -1147 
L 775 -588 
Q 1028 -725 1275 -790 
Q 1522 -856 1778 -856 
Q 2344 -856 2625 -561 
Q 2906 -266 2906 331 
L 2906 616 
Q 2728 306 2450 153 
Q 2172 0 1784 0 
Q 1141 0 747 490 
Q 353 981 353 1791 
Q 353 2603 747 3093 
Q 1141 3584 1784 3584 
Q 2172 3584 2450 3431 
Q 2728 3278 2906 2969 
L 2906 3500 
L 3481 3500 
L 3481 434 
z
" transform="scale(0.015625)"/>
     </defs>
     <use xlink:href="#DejaVuSans-66"/>
     <use xlink:href="#DejaVuSans-69" transform="translate(35.205078 0)"/>
     <use xlink:href="#DejaVuSans-6e" transform="translate(62.988281 0)"/>
     <use xlink:href="#DejaVuSans-67" transform="translate(126.367188 0)"/>
     <use xlink:href="#DejaVuSans-65" transform="translate(189.84375 0)"/>
     <use xlink:href="#DejaVuSans-72" transform="translate(251.367188 0)"/>
    </g>
   </g>
   <g id="patch_44">
    <path d="M 259.500781 276.920313 
L 279.500781 276.920313 
L 279.500781 269.920313 
L 259.500781 269.920313 
z
" style="fill: #ff0000; stroke: #000000; stroke-linejoin: miter"/>
   </g>
   <g id="text_57">
    <!-- cue -->
    <g transform="translate(287.500781 276.920313) scale(0.1 -0.1)">
     <use xlink:href="#DejaVuSans-63"/>
     <use xlink:href="#DejaVuSans-75" transform="translate(54.980469 0)"/>
     <use xlink:href="#DejaVuSans-65" transform="translate(118.359375 0)"/>
    </g>
   </g>
   <g id="patch_45">
    <path d="M 325.489844 276.920313 
L 345.489844 276.920313 
L 345.489844 269.920313 
L 325.489844 269.920313 
z
" style="fill: #ff00ff; stroke: #000000; stroke-linejoin: miter"/>
   </g>
   <g id="text_58">
    <!-- surprise -->
    <g transform="translate(353.489844 276.920313) scale(0.1 -0.1)">
     <defs>
      <path id="DejaVuSans-73" d="M 2834 3397 
L 2834 2853 
Q 2591 2978 2328 3040 
Q 2066 3103 1784 3103 
Q 1356 3103 1142 2972 
Q 928 2841 928 2578 
Q 928 2378 1081 2264 
Q 1234 2150 1697 2047 
L 1894 2003 
Q 2506 1872 2764 1633 
Q 3022 1394 3022 966 
Q 3022 478 2636 193 
Q 2250 -91 1575 -91 
Q 1294 -91 989 -36 
Q 684 19 347 128 
L 347 722 
Q 666 556 975 473 
Q 1284 391 1588 391 
Q 1994 391 2212 530 
Q 2431 669 2431 922 
Q 2431 1156 2273 1281 
Q 2116 1406 1581 1522 
L 1381 1569 
Q 847 1681 609 1914 
Q 372 2147 372 2553 
Q 372 3047 722 3315 
Q 1072 3584 1716 3584 
Q 2034 3584 2315 3537 
Q 2597 3491 2834 3397 
z
" transform="scale(0.015625)"/>
     </defs>
     <use xlink:href="#DejaVuSans-73"/>
     <use xlink:href="#DejaVuSans-75" transform="translate(52.099609 0)"/>
     <use xlink:href="#DejaVuSans-72" transform="translate(115.478516 0)"/>
     <use xlink:href="#DejaVuSans-70" transform="translate(156.591797 0)"/>
     <use xlink:href="#DejaVuSans-72" transform="translate(220.068359 0)"/>
     <use xlink:href="#DejaVuSans-69" transform="translate(261.181641 0)"/>
     <use xlink:href="#DejaVuSans-73" transform="translate(288.964844 0)"/>
     <use xlink:href="#DejaVuSans-65" transform="translate(341.064453 0)"/>
    </g>
   </g>
  </g>
 </g>
 <defs>
  <clipPath id="p7e579b6fe2">
   <rect x="72" y="57.6" width="47.489362" height="172.8"/>
  </clipPath>
  <clipPath id="pf0e5206309">
   <rect x="128.987234" y="57.6" width="47.489362" height="172.8"/>
  </clipPath>
  <clipPath id="p7bbe4ae898">
   <rect x="185.974468" y="57.6" width="47.489362" height="172.8"/>
  </clipPath>
  <clipPath id="pc14b5597ae">
   <rect x="242.961702" y="57.6" width="47.489362" height="172.8"/>
  </clipPath>
  <clipPath id="pf3a86f7346">
   <rect x="299.948936" y="57.6" width="47.489362" height="172.8"/>
  </clipPath>
  <clipPath id="p4fc2804d89">
   <rect x="356.93617" y="57.6" width="47.489362" height="172.8"/>
  </clipPath>
  <clipPath id="p72c2ec157c">
   <rect x="413.923404" y="57.6" width="47.489362" height="172.8"/>
  </clipPath>
  <clipPath id="p227e655d29">
   <rect x="470.910638" y="57.6" width="47.489362" height="172.8"/>
  </clipPath>
 </defs>
</svg>
