<?xml version="1.0" encoding="utf-8" standalone="no"?>
<!DOCTYPE svg PUBLIC "-//W3C//DTD SVG 1.1//EN"
  "http://www.w3.org/Graphics/SVG/1.1/DTD/svg11.dtd">
<svg xmlns:xlink="http://www.w3.org/1999/xlink" width="280.54375pt" height="214.875469pt" viewBox="0 0 280.54375 214.875469" xmlns="http://www.w3.org/2000/svg" version="1.1">
 <metadata>
  <rdf:RDF xmlns:dc="http://purl.org/dc/elements/1.1/" xmlns:cc="http://creativecommons.org/ns#" xmlns:rdf="http://www.w3.org/1999/02/22-rdf-syntax-ns#">
   <cc:Work>
    <dc:type rdf:resource="http://purl.org/dc/dcmitype/StillImage"/>
    <dc:date>2025-05-30T18:15:50.348228</dc:date>
    <dc:format>image/svg+xml</dc:format>
    <dc:creator>
     <cc:Agent>
      <dc:title>Matplotlib v3.10.1, https://matplotlib.org/</dc:title>
     </cc:Agent>
    </dc:creator>
   </cc:Work>
  </rdf:RDF>
 </metadata>
 <defs>
  <style type="text/css">*{stroke-linejoin: round; stroke-linecap: butt}</style>
 </defs>
 <g id="figure_1">
  <g id="patch_1">
   <path d="M 0 214.875469 
L 280.54375 214.875469 
L 280.54375 0 
L 0 0 
z
"/>
  </g>
  <g id="axes_1">
   <g id="patch_2">
    <path d="M 50.14375 177.319219 
L 273.34375 177.319219 
L 273.34375 10.999219 
L 50.14375 10.999219 
z
"/>
   </g>
   <g id="FillBetweenPolyCollection_1">
    <defs>
     <path id="m0cdfd6d036" d="M 60.289205 -54.983943 
L 60.289205 -53.100954 
L 62.338791 -52.742707 
L 64.388378 -52.859352 
L 66.437965 -54.036711 
L 68.487552 -54.829916 
L 70.537138 -55.360551 
L 72.586725 -53.53577 
L 74.636312 -54.146265 
L 76.685899 -55.604965 
L 78.735486 -53.088736 
L 80.785072 -53.009922 
L 82.834659 -52.772842 
L 84.884246 -55.451249 
L 86.933833 -55.17511 
L 88.983419 -54.240559 
L 91.033006 -53.046402 
L 93.082593 -53.884878 
L 95.13218 -53.560851 
L 97.181767 -53.410464 
L 99.231353 -60.996728 
L 101.28094 -60.972843 
L 103.330527 -59.662977 
L 105.380114 -60.126005 
L 107.4297 -60.666329 
L 109.479287 -63.269886 
L 111.528874 -62.535644 
L 113.578461 -63.311296 
L 115.628048 -64.835789 
L 117.677634 -65.658553 
L 119.727221 -70.125536 
L 121.776808 -67.937418 
L 123.826395 -79.133204 
L 125.875981 -78.67742 
L 127.925568 -78.585895 
L 129.975155 -75.589184 
L 132.024742 -75.778725 
L 134.074329 -75.703679 
L 136.123915 -72.636649 
L 138.173502 -72.20948 
L 140.223089 -74.161925 
L 142.272676 -72.365498 
L 144.322262 -76.207429 
L 146.371849 -79.626494 
L 148.421436 -75.51383 
L 150.471023 -76.275824 
L 152.52061 -72.467429 
L 154.570196 -75.548156 
L 156.619783 -74.482054 
L 158.66937 -79.186687 
L 160.718957 -74.27122 
L 162.768543 -76.282618 
L 164.81813 -79.352596 
L 166.867717 -78.093162 
L 168.917304 -78.404496 
L 170.96689 -81.320078 
L 173.016477 -83.465867 
L 175.066064 -88.819826 
L 177.115651 -78.67155 
L 179.165238 -80.242559 
L 181.214824 -80.512366 
L 183.264411 -78.787161 
L 185.313998 -79.464732 
L 187.363585 -80.803749 
L 189.413171 -84.207766 
L 191.462758 -80.275508 
L 193.512345 -86.660664 
L 195.561932 -90.294052 
L 197.611519 -86.464281 
L 199.661105 -84.335869 
L 201.710692 -77.079271 
L 203.760279 -77.781488 
L 205.809866 -72.838239 
L 207.859452 -77.275171 
L 209.909039 -81.692324 
L 211.958626 -85.754312 
L 214.008213 -93.387174 
L 216.0578 -80.998399 
L 218.107386 -78.303156 
L 220.156973 -92.061631 
L 222.20656 -92.742161 
L 224.256147 -84.521048 
L 226.305733 -89.554645 
L 228.35532 -99.379248 
L 230.404907 -98.972239 
L 232.454494 -92.240166 
L 234.504081 -85.624875 
L 236.553667 -85.258618 
L 238.603254 -76.134177 
L 240.652841 -80.733888 
L 242.702428 -99.463633 
L 244.752014 -96.093028 
L 246.801601 -88.276026 
L 248.851188 -84.883548 
L 250.900775 -85.377118 
L 252.950362 -77.070062 
L 254.999948 -82.732479 
L 257.049535 -88.955165 
L 259.099122 -94.021185 
L 261.148709 -102.357478 
L 263.198295 -108.486209 
L 263.198295 -139.993467 
L 263.198295 -139.993467 
L 261.148709 -120.198686 
L 259.099122 -115.806305 
L 257.049535 -124.165455 
L 254.999948 -117.851626 
L 252.950362 -93.809406 
L 250.900775 -105.11366 
L 248.851188 -115.530618 
L 246.801601 -119.381073 
L 244.752014 -123.945269 
L 242.702428 -121.38239 
L 240.652841 -100.68623 
L 238.603254 -94.82961 
L 236.553667 -103.717342 
L 234.504081 -111.400302 
L 232.454494 -122.636317 
L 230.404907 -127.025194 
L 228.35532 -122.116402 
L 226.305733 -112.365297 
L 224.256147 -107.937417 
L 222.20656 -119.502377 
L 220.156973 -115.798116 
L 218.107386 -110.002962 
L 216.0578 -118.550067 
L 214.008213 -132.249941 
L 211.958626 -117.33629 
L 209.909039 -109.154845 
L 207.859452 -113.704564 
L 205.809866 -103.439885 
L 203.760279 -101.442866 
L 201.710692 -95.519096 
L 199.661105 -99.157248 
L 197.611519 -106.089289 
L 195.561932 -107.311265 
L 193.512345 -100.138139 
L 191.462758 -97.641853 
L 189.413171 -102.652288 
L 187.363585 -100.013913 
L 185.313998 -96.345516 
L 183.264411 -94.724847 
L 181.214824 -101.46713 
L 179.165238 -100.240794 
L 177.115651 -99.234516 
L 175.066064 -108.06362 
L 173.016477 -101.575705 
L 170.96689 -99.843536 
L 168.917304 -101.683524 
L 166.867717 -104.879213 
L 164.81813 -107.465694 
L 162.768543 -95.751356 
L 160.718957 -93.424288 
L 158.66937 -98.42597 
L 156.619783 -89.292713 
L 154.570196 -88.455901 
L 152.52061 -84.193047 
L 150.471023 -85.643691 
L 148.421436 -85.594414 
L 146.371849 -101.381424 
L 144.322262 -99.395128 
L 142.272676 -83.822994 
L 140.223089 -86.383413 
L 138.173502 -85.930305 
L 136.123915 -88.808664 
L 134.074329 -97.427336 
L 132.024742 -93.526382 
L 129.975155 -94.355594 
L 127.925568 -97.625624 
L 125.875981 -94.958554 
L 123.826395 -93.993066 
L 121.776808 -90.465128 
L 119.727221 -94.287432 
L 117.677634 -84.588998 
L 115.628048 -77.656096 
L 113.578461 -73.495467 
L 111.528874 -74.681647 
L 109.479287 -72.989689 
L 107.4297 -70.373871 
L 105.380114 -73.097962 
L 103.330527 -72.595287 
L 101.28094 -68.266696 
L 99.231353 -68.125924 
L 97.181767 -56.269028 
L 95.13218 -57.606168 
L 93.082593 -57.445908 
L 91.033006 -55.924676 
L 88.983419 -57.36214 
L 86.933833 -58.455475 
L 84.884246 -59.253705 
L 82.834659 -55.026656 
L 80.785072 -55.324532 
L 78.735486 -55.296475 
L 76.685899 -59.194292 
L 74.636312 -56.395006 
L 72.586725 -55.649027 
L 70.537138 -57.444465 
L 68.487552 -57.412723 
L 66.437965 -56.693394 
L 64.388378 -55.882911 
L 62.338791 -56.395578 
L 60.289205 -54.983943 
z
"/>
    </defs>
    <g clip-path="url(#p5c9d45855c)">
     <use xlink:href="#m0cdfd6d036" x="0" y="214.875469" style="fill: #d4af37; fill-opacity: 0.2"/>
    </g>
   </g>
   <g id="FillBetweenPolyCollection_2">
    <defs>
     <path id="m1c9bcdb3ef" d="M 60.289205 -46.944931 
L 60.289205 -44.883164 
L 62.338791 -45.58181 
L 64.388378 -44.804064 
L 66.437965 -43.545567 
L 68.487552 -43.514711 
L 70.537138 -43.228224 
L 72.586725 -43.239832 
L 74.636312 -43.35054 
L 76.685899 -41.727328 
L 78.735486 -44.900837 
L 80.785072 -46.125867 
L 82.834659 -46.69992 
L 84.884246 -43.064072 
L 86.933833 -42.903193 
L 88.983419 -43.241667 
L 91.033006 -45.597611 
L 93.082593 -43.519754 
L 95.13218 -43.082455 
L 97.181767 -43.329127 
L 99.231353 -41.627404 
L 101.28094 -44.026931 
L 103.330527 -42.162594 
L 105.380114 -41.55119 
L 107.4297 -45.47278 
L 109.479287 -44.230677 
L 111.528874 -46.22305 
L 113.578461 -49.32241 
L 115.628048 -49.865602 
L 117.677634 -47.887518 
L 119.727221 -40.175346 
L 121.776808 -41.512986 
L 123.826395 -44.98725 
L 125.875981 -49.743025 
L 127.925568 -55.114748 
L 129.975155 -56.998019 
L 132.024742 -57.174061 
L 134.074329 -60.163116 
L 136.123915 -60.152055 
L 138.173502 -60.496838 
L 140.223089 -61.161461 
L 142.272676 -61.040771 
L 144.322262 -61.542807 
L 146.371849 -65.330711 
L 148.421436 -65.547542 
L 150.471023 -66.952926 
L 152.52061 -66.665827 
L 154.570196 -64.630616 
L 156.619783 -63.160944 
L 158.66937 -63.094331 
L 160.718957 -62.922233 
L 162.768543 -62.704073 
L 164.81813 -61.545693 
L 166.867717 -62.237307 
L 168.917304 -65.79304 
L 170.96689 -63.702071 
L 173.016477 -64.808988 
L 175.066064 -64.007849 
L 177.115651 -61.976831 
L 179.165238 -62.620947 
L 181.214824 -60.725156 
L 183.264411 -57.788263 
L 185.313998 -55.900723 
L 187.363585 -53.440801 
L 189.413171 -53.789813 
L 191.462758 -55.822622 
L 193.512345 -57.013338 
L 195.561932 -57.424553 
L 197.611519 -58.599165 
L 199.661105 -61.750787 
L 201.710692 -62.410721 
L 203.760279 -60.650008 
L 205.809866 -58.859619 
L 207.859452 -57.483866 
L 209.909039 -56.718244 
L 211.958626 -55.704531 
L 214.008213 -53.341544 
L 216.0578 -52.080206 
L 218.107386 -48.481831 
L 220.156973 -48.166812 
L 222.20656 -48.939045 
L 224.256147 -47.878972 
L 226.305733 -43.200205 
L 228.35532 -37.347137 
L 230.404907 -36.11304 
L 232.454494 -41.290736 
L 234.504081 -44.52992 
L 236.553667 -45.430915 
L 238.603254 -48.59346 
L 240.652841 -43.771927 
L 242.702428 -44.682996 
L 244.752014 -40.181234 
L 246.801601 -40.295413 
L 248.851188 -37.602349 
L 250.900775 -33.994813 
L 252.950362 -31.245017 
L 254.999948 -28.619539 
L 257.049535 -33.259609 
L 259.099122 -32.144793 
L 261.148709 -32.65145 
L 263.198295 -35.418487 
L 263.198295 -48.472672 
L 263.198295 -48.472672 
L 261.148709 -51.028715 
L 259.099122 -50.391863 
L 257.049535 -52.020795 
L 254.999948 -52.533169 
L 252.950362 -55.268645 
L 250.900775 -56.142732 
L 248.851188 -56.145998 
L 246.801601 -57.781153 
L 244.752014 -57.30631 
L 242.702428 -58.038044 
L 240.652841 -57.697129 
L 238.603254 -60.573827 
L 236.553667 -57.317889 
L 234.504081 -56.159238 
L 232.454494 -53.239424 
L 230.404907 -51.137474 
L 228.35532 -52.457431 
L 226.305733 -57.335206 
L 224.256147 -60.639302 
L 222.20656 -60.104766 
L 220.156973 -58.973674 
L 218.107386 -59.467713 
L 216.0578 -60.317534 
L 214.008213 -60.645212 
L 211.958626 -62.456929 
L 209.909039 -64.508689 
L 207.859452 -65.25941 
L 205.809866 -65.943371 
L 203.760279 -67.087858 
L 201.710692 -69.421797 
L 199.661105 -68.956669 
L 197.611519 -66.687049 
L 195.561932 -65.408016 
L 193.512345 -65.159375 
L 191.462758 -65.809631 
L 189.413171 -66.469633 
L 187.363585 -68.366348 
L 185.313998 -68.35144 
L 183.264411 -69.125796 
L 181.214824 -71.472017 
L 179.165238 -73.673736 
L 177.115651 -73.42955 
L 175.066064 -74.515745 
L 173.016477 -74.314521 
L 170.96689 -75.850803 
L 168.917304 -75.870471 
L 166.867717 -70.614367 
L 164.81813 -68.309703 
L 162.768543 -67.952835 
L 160.718957 -68.161928 
L 158.66937 -71.660742 
L 156.619783 -70.548988 
L 154.570196 -70.985598 
L 152.52061 -72.842941 
L 150.471023 -73.001462 
L 148.421436 -72.780619 
L 146.371849 -72.515333 
L 144.322262 -69.644213 
L 142.272676 -70.041726 
L 140.223089 -70.911979 
L 138.173502 -71.034984 
L 136.123915 -67.037353 
L 134.074329 -66.152844 
L 132.024742 -64.784375 
L 129.975155 -66.552167 
L 127.925568 -62.50223 
L 125.875981 -57.998989 
L 123.826395 -56.16485 
L 121.776808 -56.834898 
L 119.727221 -53.52829 
L 117.677634 -54.487838 
L 115.628048 -57.835453 
L 113.578461 -57.226659 
L 111.528874 -54.84182 
L 109.479287 -50.42202 
L 107.4297 -49.089055 
L 105.380114 -47.1867 
L 103.330527 -47.187236 
L 101.28094 -48.058572 
L 99.231353 -45.107351 
L 97.181767 -46.669808 
L 95.13218 -46.924597 
L 93.082593 -46.748369 
L 91.033006 -47.800426 
L 88.983419 -46.318656 
L 86.933833 -45.986022 
L 84.884246 -46.300777 
L 82.834659 -48.488341 
L 80.785072 -47.951428 
L 78.735486 -47.81814 
L 76.685899 -45.474441 
L 74.636312 -46.469078 
L 72.586725 -45.974226 
L 70.537138 -45.207317 
L 68.487552 -46.465452 
L 66.437965 -46.329986 
L 64.388378 -47.56332 
L 62.338791 -47.234434 
L 60.289205 -46.944931 
z
"/>
    </defs>
    <g clip-path="url(#p5c9d45855c)">
     <use xlink:href="#m1c9bcdb3ef" x="0" y="214.875469" style="fill: #00ffff; fill-opacity: 0.2"/>
    </g>
   </g>
   <g id="FillBetweenPolyCollection_3">
    <defs>
     <path id="md69b1142ff" d="M 60.289205 -57.87172 
L 60.289205 -54.600757 
L 62.338791 -53.529195 
L 64.388378 -54.378103 
L 66.437965 -54.770998 
L 68.487552 -54.648866 
L 70.537138 -56.224588 
L 72.586725 -55.909919 
L 74.636312 -54.962849 
L 76.685899 -55.419912 
L 78.735486 -53.470085 
L 80.785072 -52.791824 
L 82.834659 -51.53725 
L 84.884246 -53.879137 
L 86.933833 -54.837122 
L 88.983419 -55.152806 
L 91.033006 -52.545219 
L 93.082593 -53.91483 
L 95.13218 -53.225059 
L 97.181767 -55.325916 
L 99.231353 -58.67437 
L 101.28094 -56.572579 
L 103.330527 -57.110304 
L 105.380114 -60.705194 
L 107.4297 -60.463156 
L 109.479287 -59.321303 
L 111.528874 -61.582038 
L 113.578461 -59.050873 
L 115.628048 -61.561896 
L 117.677634 -61.369199 
L 119.727221 -61.80092 
L 121.776808 -68.522328 
L 123.826395 -71.313095 
L 125.875981 -75.238732 
L 127.925568 -73.13541 
L 129.975155 -75.54027 
L 132.024742 -74.497292 
L 134.074329 -72.370877 
L 136.123915 -76.645278 
L 138.173502 -73.820918 
L 140.223089 -75.165575 
L 142.272676 -77.471996 
L 144.322262 -76.361445 
L 146.371849 -78.176898 
L 148.421436 -88.278636 
L 150.471023 -83.924716 
L 152.52061 -85.421255 
L 154.570196 -82.082272 
L 156.619783 -82.646181 
L 158.66937 -79.411579 
L 160.718957 -86.092883 
L 162.768543 -90.921475 
L 164.81813 -92.277873 
L 166.867717 -97.829214 
L 168.917304 -100.407748 
L 170.96689 -103.695379 
L 173.016477 -98.877865 
L 175.066064 -91.949946 
L 177.115651 -93.478775 
L 179.165238 -91.559794 
L 181.214824 -87.882848 
L 183.264411 -92.31219 
L 185.313998 -90.944578 
L 187.363585 -93.620106 
L 189.413171 -87.577627 
L 191.462758 -89.232213 
L 193.512345 -85.97785 
L 195.561932 -84.859105 
L 197.611519 -88.61457 
L 199.661105 -89.204386 
L 201.710692 -94.372903 
L 203.760279 -92.728478 
L 205.809866 -97.987544 
L 207.859452 -95.126829 
L 209.909039 -91.012247 
L 211.958626 -87.538649 
L 214.008213 -82.45849 
L 216.0578 -93.57353 
L 218.107386 -97.206371 
L 220.156973 -86.432082 
L 222.20656 -85.603208 
L 224.256147 -96.049334 
L 226.305733 -98.393111 
L 228.35532 -91.514842 
L 230.404907 -94.233661 
L 232.454494 -99.889509 
L 234.504081 -100.8031 
L 236.553667 -97.398256 
L 238.603254 -100.97222 
L 240.652841 -104.236205 
L 242.702428 -96.550584 
L 244.752014 -101.827565 
L 246.801601 -107.695664 
L 248.851188 -114.234216 
L 250.900775 -113.184647 
L 252.950362 -121.218767 
L 254.999948 -121.668461 
L 257.049535 -116.45646 
L 259.099122 -117.925184 
L 261.148709 -105.528727 
L 263.198295 -98.15224 
L 263.198295 -133.67679 
L 263.198295 -133.67679 
L 261.148709 -154.691393 
L 259.099122 -172.179369 
L 257.049535 -166.308931 
L 254.999948 -186.986153 
L 252.950362 -197.799228 
L 250.900775 -169.427294 
L 248.851188 -163.349816 
L 246.801601 -141.960309 
L 244.752014 -130.38895 
L 242.702428 -122.787221 
L 240.652841 -146.918237 
L 238.603254 -139.457148 
L 236.553667 -134.126798 
L 234.504081 -127.209338 
L 232.454494 -115.891484 
L 230.404907 -117.900076 
L 228.35532 -115.299519 
L 226.305733 -122.538197 
L 224.256147 -113.894079 
L 222.20656 -102.776002 
L 220.156973 -107.900542 
L 218.107386 -123.910632 
L 216.0578 -114.378223 
L 214.008213 -99.092256 
L 211.958626 -102.440756 
L 209.909039 -106.434251 
L 207.859452 -108.162367 
L 205.809866 -110.539643 
L 203.760279 -107.722309 
L 201.710692 -112.219707 
L 199.661105 -107.997747 
L 197.611519 -109.071176 
L 195.561932 -99.887647 
L 193.512345 -107.462702 
L 191.462758 -115.291279 
L 189.413171 -115.635692 
L 187.363585 -126.008035 
L 185.313998 -117.135952 
L 183.264411 -116.818635 
L 181.214824 -107.192583 
L 179.165238 -110.662767 
L 177.115651 -114.146488 
L 175.066064 -106.028192 
L 173.016477 -113.524608 
L 170.96689 -123.275063 
L 168.917304 -116.61447 
L 166.867717 -108.116324 
L 164.81813 -99.826462 
L 162.768543 -98.92769 
L 160.718957 -99.20022 
L 158.66937 -95.884417 
L 156.619783 -96.864584 
L 154.570196 -96.476159 
L 152.52061 -100.092517 
L 150.471023 -95.212099 
L 148.421436 -95.669109 
L 146.371849 -85.224627 
L 144.322262 -82.384251 
L 142.272676 -92.633334 
L 140.223089 -95.161785 
L 138.173502 -96.220127 
L 136.123915 -100.835869 
L 134.074329 -102.500449 
L 132.024742 -96.498051 
L 129.975155 -93.28712 
L 127.925568 -89.820994 
L 125.875981 -101.365682 
L 123.826395 -113.784226 
L 121.776808 -108.620162 
L 119.727221 -96.183979 
L 117.677634 -88.187005 
L 115.628048 -74.749647 
L 113.578461 -68.883884 
L 111.528874 -71.492179 
L 109.479287 -67.630208 
L 107.4297 -66.58988 
L 105.380114 -70.519887 
L 103.330527 -65.990822 
L 101.28094 -60.606226 
L 99.231353 -61.530114 
L 97.181767 -60.439071 
L 95.13218 -57.406113 
L 93.082593 -57.054219 
L 91.033006 -54.696863 
L 88.983419 -58.439613 
L 86.933833 -57.470271 
L 84.884246 -56.765607 
L 82.834659 -53.86417 
L 80.785072 -55.357998 
L 78.735486 -57.360274 
L 76.685899 -59.531955 
L 74.636312 -59.483948 
L 72.586725 -60.796521 
L 70.537138 -59.000448 
L 68.487552 -58.793919 
L 66.437965 -59.52653 
L 64.388378 -57.977626 
L 62.338791 -56.151496 
L 60.289205 -57.87172 
z
"/>
    </defs>
    <g clip-path="url(#p5c9d45855c)">
     <use xlink:href="#md69b1142ff" x="0" y="214.875469" style="fill: #ff0000; fill-opacity: 0.2"/>
    </g>
   </g>
   <g id="FillBetweenPolyCollection_4">
    <defs>
     <path id="mbc45cd0078" d="M 60.289205 -50.998269 
L 60.289205 -50.173662 
L 62.338791 -49.908079 
L 64.388378 -49.906892 
L 66.437965 -49.87627 
L 68.487552 -50.007391 
L 70.537138 -49.935493 
L 72.586725 -50.028807 
L 74.636312 -49.889391 
L 76.685899 -49.917031 
L 78.735486 -49.878933 
L 80.785072 -49.87873 
L 82.834659 -49.930956 
L 84.884246 -50.031678 
L 86.933833 -49.876347 
L 88.983419 -49.876284 
L 91.033006 -49.894874 
L 93.082593 -49.939209 
L 95.13218 -49.910165 
L 97.181767 -50.32318 
L 99.231353 -51.939249 
L 101.28094 -51.920653 
L 103.330527 -51.292387 
L 105.380114 -52.407771 
L 107.4297 -53.427657 
L 109.479287 -54.725025 
L 111.528874 -54.281938 
L 113.578461 -54.625434 
L 115.628048 -56.647695 
L 117.677634 -55.930124 
L 119.727221 -55.540233 
L 121.776808 -55.727156 
L 123.826395 -58.937245 
L 125.875981 -62.624406 
L 127.925568 -67.258754 
L 129.975155 -67.851023 
L 132.024742 -71.882328 
L 134.074329 -73.176817 
L 136.123915 -71.042683 
L 138.173502 -70.176164 
L 140.223089 -69.6028 
L 142.272676 -67.232809 
L 144.322262 -67.02132 
L 146.371849 -65.872305 
L 148.421436 -64.033769 
L 150.471023 -63.362999 
L 152.52061 -61.459407 
L 154.570196 -58.358879 
L 156.619783 -56.467511 
L 158.66937 -54.526763 
L 160.718957 -54.941406 
L 162.768543 -55.16355 
L 164.81813 -53.418133 
L 166.867717 -52.927083 
L 168.917304 -51.603814 
L 170.96689 -51.054138 
L 173.016477 -51.801883 
L 175.066064 -50.5888 
L 177.115651 -50.976922 
L 179.165238 -52.285954 
L 181.214824 -53.653781 
L 183.264411 -53.880956 
L 185.313998 -52.259572 
L 187.363585 -51.504782 
L 189.413171 -50.630148 
L 191.462758 -50.540139 
L 193.512345 -50.325937 
L 195.561932 -51.092562 
L 197.611519 -50.924006 
L 199.661105 -51.277931 
L 201.710692 -51.957363 
L 203.760279 -51.43761 
L 205.809866 -50.785051 
L 207.859452 -50.289514 
L 209.909039 -49.985402 
L 211.958626 -49.966818 
L 214.008213 -49.983787 
L 216.0578 -49.886784 
L 218.107386 -49.876271 
L 220.156973 -49.882299 
L 222.20656 -49.976167 
L 224.256147 -49.876489 
L 226.305733 -49.886355 
L 228.35532 -49.886056 
L 230.404907 -49.892254 
L 232.454494 -49.92503 
L 234.504081 -50.054379 
L 236.553667 -50.05034 
L 238.603254 -50.065699 
L 240.652841 -49.919611 
L 242.702428 -49.888197 
L 244.752014 -49.926083 
L 246.801601 -49.890475 
L 248.851188 -49.890928 
L 250.900775 -49.88942 
L 252.950362 -49.876963 
L 254.999948 -49.887105 
L 257.049535 -49.889262 
L 259.099122 -49.913779 
L 261.148709 -50.019688 
L 263.198295 -50.008144 
L 263.198295 -50.581973 
L 263.198295 -50.581973 
L 261.148709 -51.042508 
L 259.099122 -50.400639 
L 257.049535 -50.278951 
L 254.999948 -49.948215 
L 252.950362 -49.879457 
L 250.900775 -49.916139 
L 248.851188 -50.333231 
L 246.801601 -49.951499 
L 244.752014 -50.263878 
L 242.702428 -50.124066 
L 240.652841 -50.119707 
L 238.603254 -50.530824 
L 236.553667 -50.35527 
L 234.504081 -50.674531 
L 232.454494 -50.295518 
L 230.404907 -50.25124 
L 228.35532 -50.219727 
L 226.305733 -50.227767 
L 224.256147 -49.877133 
L 222.20656 -50.295248 
L 220.156973 -50.102497 
L 218.107386 -49.876726 
L 216.0578 -49.91946 
L 214.008213 -51.259811 
L 211.958626 -53.136286 
L 209.909039 -53.977415 
L 207.859452 -54.924883 
L 205.809866 -55.089471 
L 203.760279 -55.692751 
L 201.710692 -56.950715 
L 199.661105 -55.736748 
L 197.611519 -55.52362 
L 195.561932 -53.583443 
L 193.512345 -52.965956 
L 191.462758 -53.622555 
L 189.413171 -53.236851 
L 187.363585 -54.520761 
L 185.313998 -55.330717 
L 183.264411 -57.571368 
L 181.214824 -58.744078 
L 179.165238 -58.303826 
L 177.115651 -58.900428 
L 175.066064 -59.103197 
L 173.016477 -61.490669 
L 170.96689 -62.258258 
L 168.917304 -62.932335 
L 166.867717 -64.446877 
L 164.81813 -63.134099 
L 162.768543 -62.948445 
L 160.718957 -61.884813 
L 158.66937 -62.003176 
L 156.619783 -63.770431 
L 154.570196 -65.383185 
L 152.52061 -69.188463 
L 150.471023 -72.281539 
L 148.421436 -75.980399 
L 146.371849 -80.400084 
L 144.322262 -81.590568 
L 142.272676 -79.979493 
L 140.223089 -79.889539 
L 138.173502 -79.365769 
L 136.123915 -81.753389 
L 134.074329 -85.767734 
L 132.024742 -85.769979 
L 129.975155 -82.295774 
L 127.925568 -80.893619 
L 125.875981 -74.629963 
L 123.826395 -69.862981 
L 121.776808 -70.38699 
L 119.727221 -68.054151 
L 117.677634 -68.55177 
L 115.628048 -68.250603 
L 113.578461 -63.952282 
L 111.528874 -62.439626 
L 109.479287 -64.391311 
L 107.4297 -63.450657 
L 105.380114 -61.047948 
L 103.330527 -57.238259 
L 101.28094 -57.848935 
L 99.231353 -58.17467 
L 97.181767 -52.599179 
L 95.13218 -51.156567 
L 93.082593 -50.637697 
L 91.033006 -50.583164 
L 88.983419 -49.876851 
L 86.933833 -49.877184 
L 84.884246 -50.712076 
L 82.834659 -50.885353 
L 80.785072 -49.961995 
L 78.735486 -49.925341 
L 76.685899 -50.131447 
L 74.636312 -50.370886 
L 72.586725 -52.383649 
L 70.537138 -52.104808 
L 68.487552 -51.098235 
L 66.437965 -49.876324 
L 64.388378 -50.210478 
L 62.338791 -50.180366 
L 60.289205 -50.998269 
z
"/>
    </defs>
    <g clip-path="url(#p5c9d45855c)">
     <use xlink:href="#mbc45cd0078" x="0" y="214.875469" style="fill: #0000ff; fill-opacity: 0.2"/>
    </g>
   </g>
   <g id="FillBetweenPolyCollection_5">
    <defs>
     <path id="m2a809d48a6" d="M 60.289205 -57.362942 
L 60.289205 -51.109083 
L 62.338791 -51.344861 
L 64.388378 -52.489083 
L 66.437965 -50.647853 
L 68.487552 -51.559962 
L 70.537138 -50.845024 
L 72.586725 -52.235869 
L 74.636312 -52.219519 
L 76.685899 -54.242768 
L 78.735486 -53.986286 
L 80.785072 -55.853193 
L 82.834659 -56.930556 
L 84.884246 -56.724441 
L 86.933833 -55.198564 
L 88.983419 -52.427236 
L 91.033006 -51.209138 
L 93.082593 -52.123214 
L 95.13218 -52.972359 
L 97.181767 -51.509383 
L 99.231353 -54.362679 
L 101.28094 -53.877331 
L 103.330527 -53.749514 
L 105.380114 -51.430854 
L 107.4297 -51.306729 
L 109.479287 -53.787189 
L 111.528874 -52.520171 
L 113.578461 -51.078183 
L 115.628048 -53.781613 
L 117.677634 -55.276881 
L 119.727221 -56.416968 
L 121.776808 -56.035388 
L 123.826395 -54.37495 
L 125.875981 -54.075937 
L 127.925568 -52.600939 
L 129.975155 -53.30896 
L 132.024742 -52.832199 
L 134.074329 -53.12131 
L 136.123915 -54.000074 
L 138.173502 -54.228752 
L 140.223089 -53.676156 
L 142.272676 -53.926146 
L 144.322262 -55.173339 
L 146.371849 -55.527896 
L 148.421436 -56.139836 
L 150.471023 -56.09537 
L 152.52061 -56.833177 
L 154.570196 -56.669134 
L 156.619783 -55.676121 
L 158.66937 -57.285071 
L 160.718957 -57.418945 
L 162.768543 -55.409491 
L 164.81813 -56.022933 
L 166.867717 -56.648001 
L 168.917304 -59.505092 
L 170.96689 -61.31638 
L 173.016477 -57.510704 
L 175.066064 -56.169483 
L 177.115651 -56.433395 
L 179.165238 -55.783413 
L 181.214824 -54.951903 
L 183.264411 -54.919275 
L 185.313998 -55.230888 
L 187.363585 -55.526872 
L 189.413171 -55.159436 
L 191.462758 -54.159123 
L 193.512345 -53.662142 
L 195.561932 -51.92756 
L 197.611519 -52.862356 
L 199.661105 -52.553195 
L 201.710692 -53.460783 
L 203.760279 -53.622042 
L 205.809866 -52.815736 
L 207.859452 -52.158044 
L 209.909039 -52.539237 
L 211.958626 -52.777729 
L 214.008213 -53.126131 
L 216.0578 -52.970472 
L 218.107386 -53.300763 
L 220.156973 -52.916958 
L 222.20656 -53.094302 
L 224.256147 -53.377227 
L 226.305733 -53.986533 
L 228.35532 -54.988215 
L 230.404907 -56.789261 
L 232.454494 -58.257738 
L 234.504081 -58.406267 
L 236.553667 -58.244846 
L 238.603254 -57.555576 
L 240.652841 -55.978845 
L 242.702428 -54.810389 
L 244.752014 -54.664505 
L 246.801601 -55.723813 
L 248.851188 -56.935858 
L 250.900775 -58.544982 
L 252.950362 -59.339366 
L 254.999948 -59.166284 
L 257.049535 -59.303236 
L 259.099122 -58.734511 
L 261.148709 -57.454027 
L 263.198295 -57.370431 
L 263.198295 -66.331302 
L 263.198295 -66.331302 
L 261.148709 -67.581804 
L 259.099122 -70.637545 
L 257.049535 -70.257181 
L 254.999948 -72.615193 
L 252.950362 -71.642163 
L 250.900775 -67.995593 
L 248.851188 -65.689736 
L 246.801601 -62.261466 
L 244.752014 -60.912744 
L 242.702428 -61.420514 
L 240.652841 -62.784119 
L 238.603254 -63.835956 
L 236.553667 -66.387858 
L 234.504081 -65.935777 
L 232.454494 -66.108501 
L 230.404907 -64.85836 
L 228.35532 -62.335137 
L 226.305733 -59.602225 
L 224.256147 -59.348375 
L 222.20656 -58.134084 
L 220.156973 -56.425073 
L 218.107386 -57.116507 
L 216.0578 -55.631227 
L 214.008213 -56.047611 
L 211.958626 -55.275518 
L 209.909039 -55.50124 
L 207.859452 -55.530399 
L 205.809866 -56.608711 
L 203.760279 -57.726523 
L 201.710692 -56.358982 
L 199.661105 -55.655645 
L 197.611519 -56.193363 
L 195.561932 -54.593701 
L 193.512345 -57.253085 
L 191.462758 -57.809236 
L 189.413171 -59.276158 
L 187.363585 -60.027119 
L 185.313998 -60.053903 
L 183.264411 -60.316638 
L 181.214824 -60.397933 
L 179.165238 -61.365193 
L 177.115651 -62.290914 
L 175.066064 -60.727989 
L 173.016477 -62.76467 
L 170.96689 -68.213608 
L 168.917304 -65.016778 
L 166.867717 -61.086854 
L 164.81813 -60.424332 
L 162.768543 -60.502931 
L 160.718957 -63.776218 
L 158.66937 -64.104909 
L 156.619783 -64.123119 
L 154.570196 -63.852185 
L 152.52061 -63.703377 
L 150.471023 -61.784858 
L 148.421436 -60.613019 
L 146.371849 -60.548496 
L 144.322262 -61.686191 
L 142.272676 -60.825097 
L 140.223089 -58.585338 
L 138.173502 -58.453649 
L 136.123915 -59.582877 
L 134.074329 -60.567577 
L 132.024742 -57.238063 
L 129.975155 -55.015248 
L 127.925568 -55.565049 
L 125.875981 -58.812031 
L 123.826395 -57.905875 
L 121.776808 -63.611272 
L 119.727221 -64.591084 
L 117.677634 -63.528288 
L 115.628048 -60.461728 
L 113.578461 -53.716118 
L 111.528874 -54.618849 
L 109.479287 -58.382764 
L 107.4297 -57.475869 
L 105.380114 -58.419336 
L 103.330527 -58.086223 
L 101.28094 -59.207829 
L 99.231353 -58.442834 
L 97.181767 -53.817676 
L 95.13218 -54.795729 
L 93.082593 -56.473404 
L 91.033006 -54.88446 
L 88.983419 -57.092839 
L 86.933833 -60.561451 
L 84.884246 -62.932857 
L 82.834659 -63.715158 
L 80.785072 -62.18787 
L 78.735486 -59.767459 
L 76.685899 -59.799811 
L 74.636312 -57.016361 
L 72.586725 -56.669035 
L 70.537138 -56.305015 
L 68.487552 -56.152985 
L 66.437965 -55.484892 
L 64.388378 -57.305304 
L 62.338791 -57.207163 
L 60.289205 -57.362942 
z
"/>
    </defs>
    <g clip-path="url(#p5c9d45855c)">
     <use xlink:href="#m2a809d48a6" x="0" y="214.875469" style="fill: #ff00ff; fill-opacity: 0.2"/>
    </g>
   </g>
   <g id="matplotlib.axis_1">
    <g id="xtick_1">
     <g id="line2d_1">
      <defs>
       <path id="md0ed055c47" d="M 0 0 
L 0 3.5 
" style="stroke: #ffffff; stroke-width: 2"/>
      </defs>
      <g>
       <use xlink:href="#md0ed055c47" x="60.289205" y="177.319219" style="fill: #ffffff; stroke: #ffffff; stroke-width: 2"/>
      </g>
     </g>
     <g id="text_1">
      <!-- −0.1 -->
      <g style="fill: #ffffff" transform="translate(48.147798 191.917656) scale(0.1 -0.1)">
       <defs>
        <path id="DejaVuSans-2212" d="M 678 2272 
L 4684 2272 
L 4684 1741 
L 678 1741 
L 678 2272 
z
" transform="scale(0.015625)"/>
        <path id="DejaVuSans-30" d="M 2034 4250 
Q 1547 4250 1301 3770 
Q 1056 3291 1056 2328 
Q 1056 1369 1301 889 
Q 1547 409 2034 409 
Q 2525 409 2770 889 
Q 3016 1369 3016 2328 
Q 3016 3291 2770 3770 
Q 2525 4250 2034 4250 
z
M 2034 4750 
Q 2819 4750 3233 4129 
Q 3647 3509 3647 2328 
Q 3647 1150 3233 529 
Q 2819 -91 2034 -91 
Q 1250 -91 836 529 
Q 422 1150 422 2328 
Q 422 3509 836 4129 
Q 1250 4750 2034 4750 
z
" transform="scale(0.015625)"/>
        <path id="DejaVuSans-2e" d="M 684 794 
L 1344 794 
L 1344 0 
L 684 0 
L 684 794 
z
" transform="scale(0.015625)"/>
        <path id="DejaVuSans-31" d="M 794 531 
L 1825 531 
L 1825 4091 
L 703 3866 
L 703 4441 
L 1819 4666 
L 2450 4666 
L 2450 531 
L 3481 531 
L 3481 0 
L 794 0 
L 794 531 
z
" transform="scale(0.015625)"/>
       </defs>
       <use xlink:href="#DejaVuSans-2212"/>
       <use xlink:href="#DejaVuSans-30" transform="translate(83.789062 0)"/>
       <use xlink:href="#DejaVuSans-2e" transform="translate(147.412109 0)"/>
       <use xlink:href="#DejaVuSans-31" transform="translate(179.199219 0)"/>
      </g>
     </g>
    </g>
    <g id="xtick_2">
     <g id="line2d_2">
      <g>
       <use xlink:href="#md0ed055c47" x="94.107386" y="177.319219" style="fill: #ffffff; stroke: #ffffff; stroke-width: 2"/>
      </g>
     </g>
     <g id="text_2">
      <!-- 0.0 -->
      <g style="fill: #ffffff" transform="translate(86.155824 191.917656) scale(0.1 -0.1)">
       <use xlink:href="#DejaVuSans-30"/>
       <use xlink:href="#DejaVuSans-2e" transform="translate(63.623047 0)"/>
       <use xlink:href="#DejaVuSans-30" transform="translate(95.410156 0)"/>
      </g>
     </g>
    </g>
    <g id="xtick_3">
     <g id="line2d_3">
      <g>
       <use xlink:href="#md0ed055c47" x="127.925568" y="177.319219" style="fill: #ffffff; stroke: #ffffff; stroke-width: 2"/>
      </g>
     </g>
     <g id="text_3">
      <!-- 0.1 -->
      <g style="fill: #ffffff" transform="translate(119.974006 191.917656) scale(0.1 -0.1)">
       <use xlink:href="#DejaVuSans-30"/>
       <use xlink:href="#DejaVuSans-2e" transform="translate(63.623047 0)"/>
       <use xlink:href="#DejaVuSans-31" transform="translate(95.410156 0)"/>
      </g>
     </g>
    </g>
    <g id="xtick_4">
     <g id="line2d_4">
      <g>
       <use xlink:href="#md0ed055c47" x="161.74375" y="177.319219" style="fill: #ffffff; stroke: #ffffff; stroke-width: 2"/>
      </g>
     </g>
     <g id="text_4">
      <!-- 0.2 -->
      <g style="fill: #ffffff" transform="translate(153.792188 191.917656) scale(0.1 -0.1)">
       <defs>
        <path id="DejaVuSans-32" d="M 1228 531 
L 3431 531 
L 3431 0 
L 469 0 
L 469 531 
Q 828 903 1448 1529 
Q 2069 2156 2228 2338 
Q 2531 2678 2651 2914 
Q 2772 3150 2772 3378 
Q 2772 3750 2511 3984 
Q 2250 4219 1831 4219 
Q 1534 4219 1204 4116 
Q 875 4013 500 3803 
L 500 4441 
Q 881 4594 1212 4672 
Q 1544 4750 1819 4750 
Q 2544 4750 2975 4387 
Q 3406 4025 3406 3419 
Q 3406 3131 3298 2873 
Q 3191 2616 2906 2266 
Q 2828 2175 2409 1742 
Q 1991 1309 1228 531 
z
" transform="scale(0.015625)"/>
       </defs>
       <use xlink:href="#DejaVuSans-30"/>
       <use xlink:href="#DejaVuSans-2e" transform="translate(63.623047 0)"/>
       <use xlink:href="#DejaVuSans-32" transform="translate(95.410156 0)"/>
      </g>
     </g>
    </g>
    <g id="xtick_5">
     <g id="line2d_5">
      <g>
       <use xlink:href="#md0ed055c47" x="195.561932" y="177.319219" style="fill: #ffffff; stroke: #ffffff; stroke-width: 2"/>
      </g>
     </g>
     <g id="text_5">
      <!-- 0.3 -->
      <g style="fill: #ffffff" transform="translate(187.610369 191.917656) scale(0.1 -0.1)">
       <defs>
        <path id="DejaVuSans-33" d="M 2597 2516 
Q 3050 2419 3304 2112 
Q 3559 1806 3559 1356 
Q 3559 666 3084 287 
Q 2609 -91 1734 -91 
Q 1441 -91 1130 -33 
Q 819 25 488 141 
L 488 750 
Q 750 597 1062 519 
Q 1375 441 1716 441 
Q 2309 441 2620 675 
Q 2931 909 2931 1356 
Q 2931 1769 2642 2001 
Q 2353 2234 1838 2234 
L 1294 2234 
L 1294 2753 
L 1863 2753 
Q 2328 2753 2575 2939 
Q 2822 3125 2822 3475 
Q 2822 3834 2567 4026 
Q 2313 4219 1838 4219 
Q 1578 4219 1281 4162 
Q 984 4106 628 3988 
L 628 4550 
Q 988 4650 1302 4700 
Q 1616 4750 1894 4750 
Q 2613 4750 3031 4423 
Q 3450 4097 3450 3541 
Q 3450 3153 3228 2886 
Q 3006 2619 2597 2516 
z
" transform="scale(0.015625)"/>
       </defs>
       <use xlink:href="#DejaVuSans-30"/>
       <use xlink:href="#DejaVuSans-2e" transform="translate(63.623047 0)"/>
       <use xlink:href="#DejaVuSans-33" transform="translate(95.410156 0)"/>
      </g>
     </g>
    </g>
    <g id="xtick_6">
     <g id="line2d_6">
      <g>
       <use xlink:href="#md0ed055c47" x="229.380114" y="177.319219" style="fill: #ffffff; stroke: #ffffff; stroke-width: 2"/>
      </g>
     </g>
     <g id="text_6">
      <!-- 0.4 -->
      <g style="fill: #ffffff" transform="translate(221.428551 191.917656) scale(0.1 -0.1)">
       <defs>
        <path id="DejaVuSans-34" d="M 2419 4116 
L 825 1625 
L 2419 1625 
L 2419 4116 
z
M 2253 4666 
L 3047 4666 
L 3047 1625 
L 3713 1625 
L 3713 1100 
L 3047 1100 
L 3047 0 
L 2419 0 
L 2419 1100 
L 313 1100 
L 313 1709 
L 2253 4666 
z
" transform="scale(0.015625)"/>
       </defs>
       <use xlink:href="#DejaVuSans-30"/>
       <use xlink:href="#DejaVuSans-2e" transform="translate(63.623047 0)"/>
       <use xlink:href="#DejaVuSans-34" transform="translate(95.410156 0)"/>
      </g>
     </g>
    </g>
    <g id="xtick_7">
     <g id="line2d_7">
      <g>
       <use xlink:href="#md0ed055c47" x="263.198295" y="177.319219" style="fill: #ffffff; stroke: #ffffff; stroke-width: 2"/>
      </g>
     </g>
     <g id="text_7">
      <!-- 0.5 -->
      <g style="fill: #ffffff" transform="translate(255.246733 191.917656) scale(0.1 -0.1)">
       <defs>
        <path id="DejaVuSans-35" d="M 691 4666 
L 3169 4666 
L 3169 4134 
L 1269 4134 
L 1269 2991 
Q 1406 3038 1543 3061 
Q 1681 3084 1819 3084 
Q 2600 3084 3056 2656 
Q 3513 2228 3513 1497 
Q 3513 744 3044 326 
Q 2575 -91 1722 -91 
Q 1428 -91 1123 -41 
Q 819 9 494 109 
L 494 744 
Q 775 591 1075 516 
Q 1375 441 1709 441 
Q 2250 441 2565 725 
Q 2881 1009 2881 1497 
Q 2881 1984 2565 2268 
Q 2250 2553 1709 2553 
Q 1456 2553 1204 2497 
Q 953 2441 691 2322 
L 691 4666 
z
" transform="scale(0.015625)"/>
       </defs>
       <use xlink:href="#DejaVuSans-30"/>
       <use xlink:href="#DejaVuSans-2e" transform="translate(63.623047 0)"/>
       <use xlink:href="#DejaVuSans-35" transform="translate(95.410156 0)"/>
      </g>
     </g>
    </g>
    <g id="text_8">
     <!-- Time relative to perturbation (s) -->
     <g style="fill: #ffffff" transform="translate(81.464062 205.595781) scale(0.1 -0.1)">
      <defs>
       <path id="DejaVuSans-54" d="M -19 4666 
L 3928 4666 
L 3928 4134 
L 2272 4134 
L 2272 0 
L 1638 0 
L 1638 4134 
L -19 4134 
L -19 4666 
z
" transform="scale(0.015625)"/>
       <path id="DejaVuSans-69" d="M 603 3500 
L 1178 3500 
L 1178 0 
L 603 0 
L 603 3500 
z
M 603 4863 
L 1178 4863 
L 1178 4134 
L 603 4134 
L 603 4863 
z
" transform="scale(0.015625)"/>
       <path id="DejaVuSans-6d" d="M 3328 2828 
Q 3544 3216 3844 3400 
Q 4144 3584 4550 3584 
Q 5097 3584 5394 3201 
Q 5691 2819 5691 2113 
L 5691 0 
L 5113 0 
L 5113 2094 
Q 5113 2597 4934 2840 
Q 4756 3084 4391 3084 
Q 3944 3084 3684 2787 
Q 3425 2491 3425 1978 
L 3425 0 
L 2847 0 
L 2847 2094 
Q 2847 2600 2669 2842 
Q 2491 3084 2119 3084 
Q 1678 3084 1418 2786 
Q 1159 2488 1159 1978 
L 1159 0 
L 581 0 
L 581 3500 
L 1159 3500 
L 1159 2956 
Q 1356 3278 1631 3431 
Q 1906 3584 2284 3584 
Q 2666 3584 2933 3390 
Q 3200 3197 3328 2828 
z
" transform="scale(0.015625)"/>
       <path id="DejaVuSans-65" d="M 3597 1894 
L 3597 1613 
L 953 1613 
Q 991 1019 1311 708 
Q 1631 397 2203 397 
Q 2534 397 2845 478 
Q 3156 559 3463 722 
L 3463 178 
Q 3153 47 2828 -22 
Q 2503 -91 2169 -91 
Q 1331 -91 842 396 
Q 353 884 353 1716 
Q 353 2575 817 3079 
Q 1281 3584 2069 3584 
Q 2775 3584 3186 3129 
Q 3597 2675 3597 1894 
z
M 3022 2063 
Q 3016 2534 2758 2815 
Q 2500 3097 2075 3097 
Q 1594 3097 1305 2825 
Q 1016 2553 972 2059 
L 3022 2063 
z
" transform="scale(0.015625)"/>
       <path id="DejaVuSans-20" transform="scale(0.015625)"/>
       <path id="DejaVuSans-72" d="M 2631 2963 
Q 2534 3019 2420 3045 
Q 2306 3072 2169 3072 
Q 1681 3072 1420 2755 
Q 1159 2438 1159 1844 
L 1159 0 
L 581 0 
L 581 3500 
L 1159 3500 
L 1159 2956 
Q 1341 3275 1631 3429 
Q 1922 3584 2338 3584 
Q 2397 3584 2469 3576 
Q 2541 3569 2628 3553 
L 2631 2963 
z
" transform="scale(0.015625)"/>
       <path id="DejaVuSans-6c" d="M 603 4863 
L 1178 4863 
L 1178 0 
L 603 0 
L 603 4863 
z
" transform="scale(0.015625)"/>
       <path id="DejaVuSans-61" d="M 2194 1759 
Q 1497 1759 1228 1600 
Q 959 1441 959 1056 
Q 959 750 1161 570 
Q 1363 391 1709 391 
Q 2188 391 2477 730 
Q 2766 1069 2766 1631 
L 2766 1759 
L 2194 1759 
z
M 3341 1997 
L 3341 0 
L 2766 0 
L 2766 531 
Q 2569 213 2275 61 
Q 1981 -91 1556 -91 
Q 1019 -91 701 211 
Q 384 513 384 1019 
Q 384 1609 779 1909 
Q 1175 2209 1959 2209 
L 2766 2209 
L 2766 2266 
Q 2766 2663 2505 2880 
Q 2244 3097 1772 3097 
Q 1472 3097 1187 3025 
Q 903 2953 641 2809 
L 641 3341 
Q 956 3463 1253 3523 
Q 1550 3584 1831 3584 
Q 2591 3584 2966 3190 
Q 3341 2797 3341 1997 
z
" transform="scale(0.015625)"/>
       <path id="DejaVuSans-74" d="M 1172 4494 
L 1172 3500 
L 2356 3500 
L 2356 3053 
L 1172 3053 
L 1172 1153 
Q 1172 725 1289 603 
Q 1406 481 1766 481 
L 2356 481 
L 2356 0 
L 1766 0 
Q 1100 0 847 248 
Q 594 497 594 1153 
L 594 3053 
L 172 3053 
L 172 3500 
L 594 3500 
L 594 4494 
L 1172 4494 
z
" transform="scale(0.015625)"/>
       <path id="DejaVuSans-76" d="M 191 3500 
L 800 3500 
L 1894 563 
L 2988 3500 
L 3597 3500 
L 2284 0 
L 1503 0 
L 191 3500 
z
" transform="scale(0.015625)"/>
       <path id="DejaVuSans-6f" d="M 1959 3097 
Q 1497 3097 1228 2736 
Q 959 2375 959 1747 
Q 959 1119 1226 758 
Q 1494 397 1959 397 
Q 2419 397 2687 759 
Q 2956 1122 2956 1747 
Q 2956 2369 2687 2733 
Q 2419 3097 1959 3097 
z
M 1959 3584 
Q 2709 3584 3137 3096 
Q 3566 2609 3566 1747 
Q 3566 888 3137 398 
Q 2709 -91 1959 -91 
Q 1206 -91 779 398 
Q 353 888 353 1747 
Q 353 2609 779 3096 
Q 1206 3584 1959 3584 
z
" transform="scale(0.015625)"/>
       <path id="DejaVuSans-70" d="M 1159 525 
L 1159 -1331 
L 581 -1331 
L 581 3500 
L 1159 3500 
L 1159 2969 
Q 1341 3281 1617 3432 
Q 1894 3584 2278 3584 
Q 2916 3584 3314 3078 
Q 3713 2572 3713 1747 
Q 3713 922 3314 415 
Q 2916 -91 2278 -91 
Q 1894 -91 1617 61 
Q 1341 213 1159 525 
z
M 3116 1747 
Q 3116 2381 2855 2742 
Q 2594 3103 2138 3103 
Q 1681 3103 1420 2742 
Q 1159 2381 1159 1747 
Q 1159 1113 1420 752 
Q 1681 391 2138 391 
Q 2594 391 2855 752 
Q 3116 1113 3116 1747 
z
" transform="scale(0.015625)"/>
       <path id="DejaVuSans-75" d="M 544 1381 
L 544 3500 
L 1119 3500 
L 1119 1403 
Q 1119 906 1312 657 
Q 1506 409 1894 409 
Q 2359 409 2629 706 
Q 2900 1003 2900 1516 
L 2900 3500 
L 3475 3500 
L 3475 0 
L 2900 0 
L 2900 538 
Q 2691 219 2414 64 
Q 2138 -91 1772 -91 
Q 1169 -91 856 284 
Q 544 659 544 1381 
z
M 1991 3584 
L 1991 3584 
z
" transform="scale(0.015625)"/>
       <path id="DejaVuSans-62" d="M 3116 1747 
Q 3116 2381 2855 2742 
Q 2594 3103 2138 3103 
Q 1681 3103 1420 2742 
Q 1159 2381 1159 1747 
Q 1159 1113 1420 752 
Q 1681 391 2138 391 
Q 2594 391 2855 752 
Q 3116 1113 3116 1747 
z
M 1159 2969 
Q 1341 3281 1617 3432 
Q 1894 3584 2278 3584 
Q 2916 3584 3314 3078 
Q 3713 2572 3713 1747 
Q 3713 922 3314 415 
Q 2916 -91 2278 -91 
Q 1894 -91 1617 61 
Q 1341 213 1159 525 
L 1159 0 
L 581 0 
L 581 4863 
L 1159 4863 
L 1159 2969 
z
" transform="scale(0.015625)"/>
       <path id="DejaVuSans-6e" d="M 3513 2113 
L 3513 0 
L 2938 0 
L 2938 2094 
Q 2938 2591 2744 2837 
Q 2550 3084 2163 3084 
Q 1697 3084 1428 2787 
Q 1159 2491 1159 1978 
L 1159 0 
L 581 0 
L 581 3500 
L 1159 3500 
L 1159 2956 
Q 1366 3272 1645 3428 
Q 1925 3584 2291 3584 
Q 2894 3584 3203 3211 
Q 3513 2838 3513 2113 
z
" transform="scale(0.015625)"/>
       <path id="DejaVuSans-28" d="M 1984 4856 
Q 1566 4138 1362 3434 
Q 1159 2731 1159 2009 
Q 1159 1288 1364 580 
Q 1569 -128 1984 -844 
L 1484 -844 
Q 1016 -109 783 600 
Q 550 1309 550 2009 
Q 550 2706 781 3412 
Q 1013 4119 1484 4856 
L 1984 4856 
z
" transform="scale(0.015625)"/>
       <path id="DejaVuSans-73" d="M 2834 3397 
L 2834 2853 
Q 2591 2978 2328 3040 
Q 2066 3103 1784 3103 
Q 1356 3103 1142 2972 
Q 928 2841 928 2578 
Q 928 2378 1081 2264 
Q 1234 2150 1697 2047 
L 1894 2003 
Q 2506 1872 2764 1633 
Q 3022 1394 3022 966 
Q 3022 478 2636 193 
Q 2250 -91 1575 -91 
Q 1294 -91 989 -36 
Q 684 19 347 128 
L 347 722 
Q 666 556 975 473 
Q 1284 391 1588 391 
Q 1994 391 2212 530 
Q 2431 669 2431 922 
Q 2431 1156 2273 1281 
Q 2116 1406 1581 1522 
L 1381 1569 
Q 847 1681 609 1914 
Q 372 2147 372 2553 
Q 372 3047 722 3315 
Q 1072 3584 1716 3584 
Q 2034 3584 2315 3537 
Q 2597 3491 2834 3397 
z
" transform="scale(0.015625)"/>
       <path id="DejaVuSans-29" d="M 513 4856 
L 1013 4856 
Q 1481 4119 1714 3412 
Q 1947 2706 1947 2009 
Q 1947 1309 1714 600 
Q 1481 -109 1013 -844 
L 513 -844 
Q 928 -128 1133 580 
Q 1338 1288 1338 2009 
Q 1338 2731 1133 3434 
Q 928 4138 513 4856 
z
" transform="scale(0.015625)"/>
      </defs>
      <use xlink:href="#DejaVuSans-54"/>
      <use xlink:href="#DejaVuSans-69" transform="translate(57.958984 0)"/>
      <use xlink:href="#DejaVuSans-6d" transform="translate(85.742188 0)"/>
      <use xlink:href="#DejaVuSans-65" transform="translate(183.154297 0)"/>
      <use xlink:href="#DejaVuSans-20" transform="translate(244.677734 0)"/>
      <use xlink:href="#DejaVuSans-72" transform="translate(276.464844 0)"/>
      <use xlink:href="#DejaVuSans-65" transform="translate(315.328125 0)"/>
      <use xlink:href="#DejaVuSans-6c" transform="translate(376.851562 0)"/>
      <use xlink:href="#DejaVuSans-61" transform="translate(404.634766 0)"/>
      <use xlink:href="#DejaVuSans-74" transform="translate(465.914062 0)"/>
      <use xlink:href="#DejaVuSans-69" transform="translate(505.123047 0)"/>
      <use xlink:href="#DejaVuSans-76" transform="translate(532.90625 0)"/>
      <use xlink:href="#DejaVuSans-65" transform="translate(592.085938 0)"/>
      <use xlink:href="#DejaVuSans-20" transform="translate(653.609375 0)"/>
      <use xlink:href="#DejaVuSans-74" transform="translate(685.396484 0)"/>
      <use xlink:href="#DejaVuSans-6f" transform="translate(724.605469 0)"/>
      <use xlink:href="#DejaVuSans-20" transform="translate(785.787109 0)"/>
      <use xlink:href="#DejaVuSans-70" transform="translate(817.574219 0)"/>
      <use xlink:href="#DejaVuSans-65" transform="translate(881.050781 0)"/>
      <use xlink:href="#DejaVuSans-72" transform="translate(942.574219 0)"/>
      <use xlink:href="#DejaVuSans-74" transform="translate(983.6875 0)"/>
      <use xlink:href="#DejaVuSans-75" transform="translate(1022.896484 0)"/>
      <use xlink:href="#DejaVuSans-72" transform="translate(1086.275391 0)"/>
      <use xlink:href="#DejaVuSans-62" transform="translate(1127.388672 0)"/>
      <use xlink:href="#DejaVuSans-61" transform="translate(1190.865234 0)"/>
      <use xlink:href="#DejaVuSans-74" transform="translate(1252.144531 0)"/>
      <use xlink:href="#DejaVuSans-69" transform="translate(1291.353516 0)"/>
      <use xlink:href="#DejaVuSans-6f" transform="translate(1319.136719 0)"/>
      <use xlink:href="#DejaVuSans-6e" transform="translate(1380.318359 0)"/>
      <use xlink:href="#DejaVuSans-20" transform="translate(1443.697266 0)"/>
      <use xlink:href="#DejaVuSans-28" transform="translate(1475.484375 0)"/>
      <use xlink:href="#DejaVuSans-73" transform="translate(1514.498047 0)"/>
      <use xlink:href="#DejaVuSans-29" transform="translate(1566.597656 0)"/>
     </g>
    </g>
   </g>
   <g id="matplotlib.axis_2">
    <g id="ytick_1">
     <g id="line2d_8">
      <defs>
       <path id="m3b0391723d" d="M 0 0 
L -3.5 0 
" style="stroke: #ffffff; stroke-width: 2"/>
      </defs>
      <g>
       <use xlink:href="#m3b0391723d" x="50.14375" y="164.999219" style="fill: #ffffff; stroke: #ffffff; stroke-width: 2"/>
      </g>
     </g>
     <g id="text_9">
      <!-- 0.00 -->
      <g style="fill: #ffffff" transform="translate(20.878125 168.798438) scale(0.1 -0.1)">
       <use xlink:href="#DejaVuSans-30"/>
       <use xlink:href="#DejaVuSans-2e" transform="translate(63.623047 0)"/>
       <use xlink:href="#DejaVuSans-30" transform="translate(95.410156 0)"/>
       <use xlink:href="#DejaVuSans-30" transform="translate(159.033203 0)"/>
      </g>
     </g>
    </g>
    <g id="ytick_2">
     <g id="line2d_9">
      <g>
       <use xlink:href="#m3b0391723d" x="50.14375" y="134.199219" style="fill: #ffffff; stroke: #ffffff; stroke-width: 2"/>
      </g>
     </g>
     <g id="text_10">
      <!-- 0.02 -->
      <g style="fill: #ffffff" transform="translate(20.878125 137.998437) scale(0.1 -0.1)">
       <use xlink:href="#DejaVuSans-30"/>
       <use xlink:href="#DejaVuSans-2e" transform="translate(63.623047 0)"/>
       <use xlink:href="#DejaVuSans-30" transform="translate(95.410156 0)"/>
       <use xlink:href="#DejaVuSans-32" transform="translate(159.033203 0)"/>
      </g>
     </g>
    </g>
    <g id="ytick_3">
     <g id="line2d_10">
      <g>
       <use xlink:href="#m3b0391723d" x="50.14375" y="103.399219" style="fill: #ffffff; stroke: #ffffff; stroke-width: 2"/>
      </g>
     </g>
     <g id="text_11">
      <!-- 0.04 -->
      <g style="fill: #ffffff" transform="translate(20.878125 107.198438) scale(0.1 -0.1)">
       <use xlink:href="#DejaVuSans-30"/>
       <use xlink:href="#DejaVuSans-2e" transform="translate(63.623047 0)"/>
       <use xlink:href="#DejaVuSans-30" transform="translate(95.410156 0)"/>
       <use xlink:href="#DejaVuSans-34" transform="translate(159.033203 0)"/>
      </g>
     </g>
    </g>
    <g id="ytick_4">
     <g id="line2d_11">
      <g>
       <use xlink:href="#m3b0391723d" x="50.14375" y="72.599219" style="fill: #ffffff; stroke: #ffffff; stroke-width: 2"/>
      </g>
     </g>
     <g id="text_12">
      <!-- 0.06 -->
      <g style="fill: #ffffff" transform="translate(20.878125 76.398438) scale(0.1 -0.1)">
       <defs>
        <path id="DejaVuSans-36" d="M 2113 2584 
Q 1688 2584 1439 2293 
Q 1191 2003 1191 1497 
Q 1191 994 1439 701 
Q 1688 409 2113 409 
Q 2538 409 2786 701 
Q 3034 994 3034 1497 
Q 3034 2003 2786 2293 
Q 2538 2584 2113 2584 
z
M 3366 4563 
L 3366 3988 
Q 3128 4100 2886 4159 
Q 2644 4219 2406 4219 
Q 1781 4219 1451 3797 
Q 1122 3375 1075 2522 
Q 1259 2794 1537 2939 
Q 1816 3084 2150 3084 
Q 2853 3084 3261 2657 
Q 3669 2231 3669 1497 
Q 3669 778 3244 343 
Q 2819 -91 2113 -91 
Q 1303 -91 875 529 
Q 447 1150 447 2328 
Q 447 3434 972 4092 
Q 1497 4750 2381 4750 
Q 2619 4750 2861 4703 
Q 3103 4656 3366 4563 
z
" transform="scale(0.015625)"/>
       </defs>
       <use xlink:href="#DejaVuSans-30"/>
       <use xlink:href="#DejaVuSans-2e" transform="translate(63.623047 0)"/>
       <use xlink:href="#DejaVuSans-30" transform="translate(95.410156 0)"/>
       <use xlink:href="#DejaVuSans-36" transform="translate(159.033203 0)"/>
      </g>
     </g>
    </g>
    <g id="ytick_5">
     <g id="line2d_12">
      <g>
       <use xlink:href="#m3b0391723d" x="50.14375" y="41.799219" style="fill: #ffffff; stroke: #ffffff; stroke-width: 2"/>
      </g>
     </g>
     <g id="text_13">
      <!-- 0.08 -->
      <g style="fill: #ffffff" transform="translate(20.878125 45.598437) scale(0.1 -0.1)">
       <defs>
        <path id="DejaVuSans-38" d="M 2034 2216 
Q 1584 2216 1326 1975 
Q 1069 1734 1069 1313 
Q 1069 891 1326 650 
Q 1584 409 2034 409 
Q 2484 409 2743 651 
Q 3003 894 3003 1313 
Q 3003 1734 2745 1975 
Q 2488 2216 2034 2216 
z
M 1403 2484 
Q 997 2584 770 2862 
Q 544 3141 544 3541 
Q 544 4100 942 4425 
Q 1341 4750 2034 4750 
Q 2731 4750 3128 4425 
Q 3525 4100 3525 3541 
Q 3525 3141 3298 2862 
Q 3072 2584 2669 2484 
Q 3125 2378 3379 2068 
Q 3634 1759 3634 1313 
Q 3634 634 3220 271 
Q 2806 -91 2034 -91 
Q 1263 -91 848 271 
Q 434 634 434 1313 
Q 434 1759 690 2068 
Q 947 2378 1403 2484 
z
M 1172 3481 
Q 1172 3119 1398 2916 
Q 1625 2713 2034 2713 
Q 2441 2713 2670 2916 
Q 2900 3119 2900 3481 
Q 2900 3844 2670 4047 
Q 2441 4250 2034 4250 
Q 1625 4250 1398 4047 
Q 1172 3844 1172 3481 
z
" transform="scale(0.015625)"/>
       </defs>
       <use xlink:href="#DejaVuSans-30"/>
       <use xlink:href="#DejaVuSans-2e" transform="translate(63.623047 0)"/>
       <use xlink:href="#DejaVuSans-30" transform="translate(95.410156 0)"/>
       <use xlink:href="#DejaVuSans-38" transform="translate(159.033203 0)"/>
      </g>
     </g>
    </g>
    <g id="ytick_6">
     <g id="line2d_13">
      <g>
       <use xlink:href="#m3b0391723d" x="50.14375" y="10.999219" style="fill: #ffffff; stroke: #ffffff; stroke-width: 2"/>
      </g>
     </g>
     <g id="text_14">
      <!-- 0.10 -->
      <g style="fill: #ffffff" transform="translate(20.878125 14.798438) scale(0.1 -0.1)">
       <use xlink:href="#DejaVuSans-30"/>
       <use xlink:href="#DejaVuSans-2e" transform="translate(63.623047 0)"/>
       <use xlink:href="#DejaVuSans-31" transform="translate(95.410156 0)"/>
       <use xlink:href="#DejaVuSans-30" transform="translate(159.033203 0)"/>
      </g>
     </g>
    </g>
    <g id="text_15">
     <!-- Weight -->
     <g style="fill: #ffffff" transform="translate(14.798438 111.577969) rotate(-90) scale(0.1 -0.1)">
      <defs>
       <path id="DejaVuSans-57" d="M 213 4666 
L 850 4666 
L 1831 722 
L 2809 4666 
L 3519 4666 
L 4500 722 
L 5478 4666 
L 6119 4666 
L 4947 0 
L 4153 0 
L 3169 4050 
L 2175 0 
L 1381 0 
L 213 4666 
z
" transform="scale(0.015625)"/>
       <path id="DejaVuSans-67" d="M 2906 1791 
Q 2906 2416 2648 2759 
Q 2391 3103 1925 3103 
Q 1463 3103 1205 2759 
Q 947 2416 947 1791 
Q 947 1169 1205 825 
Q 1463 481 1925 481 
Q 2391 481 2648 825 
Q 2906 1169 2906 1791 
z
M 3481 434 
Q 3481 -459 3084 -895 
Q 2688 -1331 1869 -1331 
Q 1566 -1331 1297 -1286 
Q 1028 -1241 775 -1147 
L 775 -588 
Q 1028 -725 1275 -790 
Q 1522 -856 1778 -856 
Q 2344 -856 2625 -561 
Q 2906 -266 2906 331 
L 2906 616 
Q 2728 306 2450 153 
Q 2172 0 1784 0 
Q 1141 0 747 490 
Q 353 981 353 1791 
Q 353 2603 747 3093 
Q 1141 3584 1784 3584 
Q 2172 3584 2450 3431 
Q 2728 3278 2906 2969 
L 2906 3500 
L 3481 3500 
L 3481 434 
z
" transform="scale(0.015625)"/>
       <path id="DejaVuSans-68" d="M 3513 2113 
L 3513 0 
L 2938 0 
L 2938 2094 
Q 2938 2591 2744 2837 
Q 2550 3084 2163 3084 
Q 1697 3084 1428 2787 
Q 1159 2491 1159 1978 
L 1159 0 
L 581 0 
L 581 4863 
L 1159 4863 
L 1159 2956 
Q 1366 3272 1645 3428 
Q 1925 3584 2291 3584 
Q 2894 3584 3203 3211 
Q 3513 2838 3513 2113 
z
" transform="scale(0.015625)"/>
      </defs>
      <use xlink:href="#DejaVuSans-57"/>
      <use xlink:href="#DejaVuSans-65" transform="translate(93.001953 0)"/>
      <use xlink:href="#DejaVuSans-69" transform="translate(154.525391 0)"/>
      <use xlink:href="#DejaVuSans-67" transform="translate(182.308594 0)"/>
      <use xlink:href="#DejaVuSans-68" transform="translate(245.785156 0)"/>
      <use xlink:href="#DejaVuSans-74" transform="translate(309.164062 0)"/>
     </g>
    </g>
   </g>
   <g id="line2d_14">
    <path d="M 50.14375 164.999219 
L 273.34375 164.999219 
" clip-path="url(#p5c9d45855c)" style="fill: none; stroke: #ffffff; stroke-width: 0.8; stroke-linecap: square"/>
   </g>
   <g id="line2d_15">
    <path d="M 94.107386 177.319219 
L 94.107386 10.999219 
" clip-path="url(#p5c9d45855c)" style="fill: none; stroke: #ffffff; stroke-width: 0.8; stroke-linecap: square"/>
   </g>
   <g id="line2d_16">
    <path d="M 102.561932 177.319219 
L 102.561932 10.999219 
" clip-path="url(#p5c9d45855c)" style="fill: none; stroke-dasharray: 2.96,1.28; stroke-dashoffset: 0; stroke: #ffffff; stroke-width: 0.8"/>
   </g>
   <g id="line2d_17">
    <path d="M 111.016477 177.319219 
L 111.016477 10.999219 
" clip-path="url(#p5c9d45855c)" style="fill: none; stroke-dasharray: 5.12,1.28,0.8,1.28; stroke-dashoffset: 0; stroke: #ffffff; stroke-width: 0.8"/>
   </g>
   <g id="line2d_18">
    <path d="M 127.925568 177.319219 
L 127.925568 10.999219 
" clip-path="url(#p5c9d45855c)" style="fill: none; stroke-dasharray: 0.8,1.32; stroke-dashoffset: 0; stroke: #ffffff; stroke-width: 0.8"/>
   </g>
   <g id="patch_3">
    <path d="M 50.14375 164.999219 
L 50.14375 10.999219 
" style="fill: none; stroke: #ffffff; stroke-width: 2; stroke-linejoin: miter; stroke-linecap: square"/>
   </g>
   <g id="patch_4">
    <path d="M 60.289205 177.319219 
L 263.198295 177.319219 
" style="fill: none; stroke: #ffffff; stroke-width: 2; stroke-linejoin: miter; stroke-linecap: square"/>
   </g>
   <g id="line2d_19">
    <path d="M 60.289205 160.83302 
L 62.338791 160.306326 
L 64.388378 160.504338 
L 66.437965 159.510417 
L 68.487552 158.754149 
L 70.537138 158.472961 
L 72.586725 160.283071 
L 74.636312 159.604833 
L 76.685899 157.47584 
L 78.735486 160.682863 
L 80.785072 160.708241 
L 82.834659 160.97572 
L 84.884246 157.522992 
L 86.933833 158.060176 
L 88.983419 159.074119 
L 91.033006 160.389929 
L 93.082593 159.210076 
L 95.13218 159.291959 
L 97.181767 160.035723 
L 99.231353 150.314143 
L 101.28094 150.2557 
L 103.330527 148.746337 
L 105.380114 148.263485 
L 107.4297 149.355369 
L 109.479287 146.745681 
L 111.528874 146.266823 
L 113.578461 146.472087 
L 115.628048 143.629527 
L 117.677634 139.751693 
L 119.727221 132.668985 
L 121.776808 135.674196 
L 123.826395 128.312334 
L 125.875981 128.057482 
L 127.925568 126.769709 
L 129.975155 129.90308 
L 132.024742 130.222915 
L 134.074329 128.309961 
L 136.123915 134.152812 
L 138.173502 135.805576 
L 140.223089 134.6028 
L 142.272676 136.781223 
L 144.322262 127.07419 
L 146.371849 124.371509 
L 148.421436 134.321347 
L 150.471023 133.915711 
L 152.52061 136.545231 
L 154.570196 132.87344 
L 156.619783 132.988085 
L 158.66937 126.06914 
L 160.718957 131.027715 
L 162.768543 128.858482 
L 164.81813 121.466324 
L 166.867717 123.389282 
L 168.917304 124.831459 
L 170.96689 124.293662 
L 173.016477 122.354683 
L 175.066064 116.433746 
L 177.115651 125.922436 
L 179.165238 124.633792 
L 181.214824 123.885721 
L 183.264411 128.119465 
L 185.313998 126.970345 
L 187.363585 124.466638 
L 189.413171 121.445442 
L 191.462758 125.916788 
L 193.512345 121.476067 
L 195.561932 116.07281 
L 197.611519 118.598684 
L 199.661105 123.12891 
L 201.710692 128.576285 
L 203.760279 125.263292 
L 205.809866 126.736407 
L 207.859452 119.385601 
L 209.909039 119.451884 
L 211.958626 113.330168 
L 214.008213 102.056911 
L 216.0578 115.101236 
L 218.107386 120.72241 
L 220.156973 110.945595 
L 222.20656 108.7532 
L 224.256147 118.646236 
L 226.305733 113.915498 
L 228.35532 104.127644 
L 230.404907 101.876752 
L 232.454494 107.437227 
L 234.504081 116.36288 
L 236.553667 120.387489 
L 238.603254 129.393576 
L 240.652841 124.165409 
L 242.702428 104.452457 
L 244.752014 104.85632 
L 246.801601 111.046919 
L 248.851188 114.668386 
L 250.900775 119.63008 
L 252.950362 129.435735 
L 254.999948 114.583417 
L 257.049535 108.315159 
L 259.099122 109.961724 
L 261.148709 103.597387 
L 263.198295 90.635631 
" clip-path="url(#p5c9d45855c)" style="fill: none; stroke: #d4af37; stroke-width: 2; stroke-linecap: square"/>
   </g>
   <g id="line2d_20">
    <path d="M 60.289205 168.961421 
L 62.338791 168.467347 
L 64.388378 168.691776 
L 66.437965 169.937692 
L 68.487552 169.885387 
L 70.537138 170.657698 
L 72.586725 170.26844 
L 74.636312 169.96566 
L 76.685899 171.274584 
L 78.735486 168.51598 
L 80.785072 167.836821 
L 82.834659 167.281338 
L 84.884246 170.193044 
L 86.933833 170.430861 
L 88.983419 170.095308 
L 91.033006 168.176451 
L 93.082593 169.741407 
L 95.13218 169.871942 
L 97.181767 169.876001 
L 99.231353 171.508091 
L 101.28094 168.832718 
L 103.330527 170.200554 
L 105.380114 170.506524 
L 107.4297 167.594551 
L 109.479287 167.549121 
L 111.528874 164.343034 
L 113.578461 161.600934 
L 115.628048 161.024941 
L 117.677634 163.687791 
L 119.727221 168.023651 
L 121.776808 165.701527 
L 123.826395 164.299418 
L 125.875981 161.004462 
L 127.925568 156.06698 
L 129.975155 153.100376 
L 132.024742 153.896251 
L 134.074329 151.717489 
L 136.123915 151.280765 
L 138.173502 149.109558 
L 140.223089 148.838749 
L 142.272676 149.33422 
L 144.322262 149.281958 
L 146.371849 145.952447 
L 148.421436 145.711388 
L 150.471023 144.898275 
L 152.52061 145.121085 
L 154.570196 147.067362 
L 156.619783 148.020502 
L 158.66937 147.497932 
L 160.718957 149.333389 
L 162.768543 149.547014 
L 164.81813 149.947771 
L 166.867717 148.449632 
L 168.917304 144.043713 
L 170.96689 145.099032 
L 173.016477 145.313715 
L 175.066064 145.613672 
L 177.115651 147.172278 
L 179.165238 146.728127 
L 181.214824 148.776882 
L 183.264411 151.418439 
L 185.313998 152.749387 
L 187.363585 153.971894 
L 189.413171 154.745746 
L 191.462758 154.059342 
L 193.512345 153.789113 
L 195.561932 153.459184 
L 197.611519 152.232362 
L 199.661105 149.521741 
L 201.710692 148.959209 
L 203.760279 151.006535 
L 205.809866 152.473974 
L 207.859452 153.503831 
L 209.909039 154.262002 
L 211.958626 155.794739 
L 214.008213 157.882091 
L 216.0578 158.676599 
L 218.107386 160.900697 
L 220.156973 161.305226 
L 222.20656 160.353564 
L 224.256147 160.616332 
L 226.305733 164.607763 
L 228.35532 169.973184 
L 230.404907 171.250212 
L 232.454494 167.610389 
L 234.504081 164.53089 
L 236.553667 163.501067 
L 238.603254 160.291825 
L 240.652841 164.140941 
L 242.702428 163.514949 
L 244.752014 166.131697 
L 246.801601 165.837186 
L 248.851188 168.001295 
L 250.900775 169.806696 
L 252.950362 171.618638 
L 254.999948 174.299115 
L 257.049535 172.235267 
L 259.099122 173.60714 
L 261.148709 173.035387 
L 263.198295 172.929889 
" clip-path="url(#p5c9d45855c)" style="fill: none; stroke: #00ffff; stroke-width: 2; stroke-linecap: square"/>
   </g>
   <g id="line2d_21">
    <path d="M 60.289205 158.63923 
L 62.338791 160.035123 
L 64.388378 158.697604 
L 66.437965 157.726705 
L 68.487552 158.154077 
L 70.537138 157.262951 
L 72.586725 156.522249 
L 74.636312 157.65207 
L 76.685899 157.399535 
L 78.735486 159.460289 
L 80.785072 160.800558 
L 82.834659 162.174759 
L 84.884246 159.553097 
L 86.933833 158.721772 
L 88.983419 158.07926 
L 91.033006 161.254428 
L 93.082593 159.390944 
L 95.13218 159.559883 
L 97.181767 156.992975 
L 99.231353 154.773227 
L 101.28094 156.286066 
L 103.330527 153.324906 
L 105.380114 149.262928 
L 107.4297 151.348951 
L 109.479287 151.399713 
L 111.528874 148.33836 
L 113.578461 150.90809 
L 115.628048 146.719697 
L 117.677634 140.097366 
L 119.727221 135.883019 
L 121.776808 126.304223 
L 123.826395 122.326808 
L 125.875981 126.573262 
L 127.925568 133.397267 
L 129.975155 130.461774 
L 132.024742 129.377797 
L 134.074329 127.439806 
L 136.123915 126.134895 
L 138.173502 129.854946 
L 140.223089 129.711789 
L 142.272676 129.822803 
L 144.322262 135.502621 
L 146.371849 133.174706 
L 148.421436 122.901596 
L 150.471023 125.307061 
L 152.52061 122.118583 
L 154.570196 125.596253 
L 156.619783 125.120087 
L 158.66937 127.227471 
L 160.718957 122.228917 
L 162.768543 119.950886 
L 164.81813 118.823301 
L 166.867717 111.9027 
L 168.917304 106.36436 
L 170.96689 101.390248 
L 173.016477 108.674232 
L 175.066064 115.8864 
L 177.115651 111.062837 
L 179.165238 113.764188 
L 181.214824 117.337754 
L 183.264411 110.310057 
L 185.313998 110.835204 
L 187.363585 105.061399 
L 189.413171 113.268809 
L 191.462758 112.613723 
L 193.512345 118.155193 
L 195.561932 122.502093 
L 197.611519 116.032596 
L 199.661105 116.274402 
L 201.710692 111.579164 
L 203.760279 114.650075 
L 205.809866 110.611876 
L 207.859452 113.230871 
L 209.909039 116.152219 
L 211.958626 119.885766 
L 214.008213 124.100096 
L 216.0578 110.899592 
L 218.107386 104.316967 
L 220.156973 117.709157 
L 222.20656 120.685864 
L 224.256147 109.903762 
L 226.305733 104.409815 
L 228.35532 111.468288 
L 230.404907 108.8086 
L 232.454494 106.984973 
L 234.504081 100.86925 
L 236.553667 99.112942 
L 238.603254 94.660785 
L 240.652841 89.298248 
L 242.702428 105.206566 
L 244.752014 98.767212 
L 246.801601 90.047482 
L 248.851188 76.083453 
L 250.900775 73.569498 
L 252.950362 55.366471 
L 254.999948 60.548162 
L 257.049535 73.492773 
L 259.099122 69.823192 
L 261.148709 84.765409 
L 263.198295 98.960954 
" clip-path="url(#p5c9d45855c)" style="fill: none; stroke: #ff0000; stroke-width: 2; stroke-linecap: square"/>
   </g>
   <g id="line2d_22">
    <path d="M 60.289205 164.289503 
L 62.338791 164.831246 
L 64.388378 164.816784 
L 66.437965 164.999172 
L 68.487552 164.322656 
L 70.537138 163.855318 
L 72.586725 163.669241 
L 74.636312 164.74533 
L 76.685899 164.85123 
L 78.735486 164.973332 
L 80.785072 164.955106 
L 82.834659 164.467314 
L 84.884246 164.503592 
L 86.933833 164.998703 
L 88.983419 164.998901 
L 91.033006 164.63645 
L 93.082593 164.587016 
L 95.13218 164.342102 
L 97.181767 163.414289 
L 99.231353 159.818509 
L 101.28094 159.990675 
L 103.330527 160.610145 
L 105.380114 158.147609 
L 107.4297 156.436312 
L 109.479287 155.317301 
L 111.528874 156.514687 
L 113.578461 155.586611 
L 115.628048 152.42632 
L 117.677634 152.634522 
L 119.727221 153.078276 
L 121.776808 151.818396 
L 123.826395 150.475355 
L 125.875981 146.248284 
L 127.925568 140.799282 
L 129.975155 139.80207 
L 132.024742 136.049315 
L 134.074329 135.403193 
L 136.123915 138.477433 
L 138.173502 140.104502 
L 140.223089 140.129299 
L 142.272676 141.269317 
L 144.322262 140.569525 
L 146.371849 141.739274 
L 148.421436 144.868385 
L 150.471023 147.0532 
L 152.52061 149.551534 
L 154.570196 153.004436 
L 156.619783 154.756498 
L 158.66937 156.610499 
L 160.718957 156.46236 
L 162.768543 155.819471 
L 164.81813 156.599353 
L 166.867717 156.188489 
L 168.917304 157.607394 
L 170.96689 158.219271 
L 173.016477 158.229193 
L 175.066064 160.02947 
L 177.115651 159.936794 
L 179.165238 159.580578 
L 181.214824 158.676539 
L 183.264411 159.149306 
L 185.313998 161.080324 
L 187.363585 161.862697 
L 189.413171 162.941969 
L 191.462758 162.794122 
L 193.512345 163.229522 
L 195.561932 162.537466 
L 197.611519 161.651656 
L 199.661105 161.368129 
L 201.710692 160.42143 
L 203.760279 161.310289 
L 205.809866 161.938208 
L 207.859452 162.26827 
L 209.909039 162.89406 
L 211.958626 163.323917 
L 214.008213 164.25367 
L 216.0578 164.972346 
L 218.107386 164.99897 
L 220.156973 164.883071 
L 222.20656 164.739761 
L 224.256147 164.998658 
L 226.305733 164.818408 
L 228.35532 164.822577 
L 230.404907 164.803722 
L 232.454494 164.765195 
L 234.504081 164.511013 
L 236.553667 164.672663 
L 238.603254 164.577207 
L 240.652841 164.85581 
L 242.702428 164.869337 
L 244.752014 164.780489 
L 246.801601 164.954482 
L 248.851188 164.763389 
L 250.900775 164.972689 
L 252.950362 164.997259 
L 254.999948 164.957809 
L 257.049535 164.791363 
L 259.099122 164.71826 
L 261.148709 164.344371 
L 263.198295 164.58041 
" clip-path="url(#p5c9d45855c)" style="fill: none; stroke: #0000ff; stroke-width: 2; stroke-linecap: square"/>
   </g>
   <g id="line2d_23">
    <path d="M 60.289205 160.639456 
L 62.338791 160.599457 
L 64.388378 159.978275 
L 66.437965 161.809096 
L 68.487552 161.018995 
L 70.537138 161.300449 
L 72.586725 160.423017 
L 74.636312 160.257529 
L 76.685899 157.854179 
L 78.735486 157.998596 
L 80.785072 155.854937 
L 82.834659 154.552612 
L 84.884246 155.04682 
L 86.933833 156.995461 
L 88.983419 160.115431 
L 91.033006 161.82867 
L 93.082593 160.57716 
L 95.13218 160.991424 
L 97.181767 162.211939 
L 99.231353 158.472713 
L 101.28094 158.332889 
L 103.330527 158.957601 
L 105.380114 159.950374 
L 107.4297 160.48417 
L 109.479287 158.790492 
L 111.528874 161.305959 
L 113.578461 162.478318 
L 115.628048 157.753798 
L 117.677634 155.472884 
L 119.727221 154.371443 
L 121.776808 155.052139 
L 123.826395 158.735056 
L 125.875981 158.431485 
L 127.925568 160.792475 
L 129.975155 160.713365 
L 132.024742 159.840338 
L 134.074329 158.031025 
L 136.123915 158.083993 
L 138.173502 158.534269 
L 140.223089 158.744722 
L 142.272676 157.499848 
L 144.322262 156.445704 
L 146.371849 156.837273 
L 148.421436 156.499041 
L 150.471023 155.935355 
L 152.52061 154.607192 
L 154.570196 154.614809 
L 156.619783 154.975849 
L 158.66937 154.180479 
L 160.718957 154.277887 
L 162.768543 156.919258 
L 164.81813 156.651836 
L 166.867717 156.008041 
L 168.917304 152.614534 
L 170.96689 150.110475 
L 173.016477 154.737782 
L 175.066064 156.426733 
L 177.115651 155.513314 
L 179.165238 156.301166 
L 181.214824 157.200551 
L 183.264411 157.257512 
L 185.313998 157.233073 
L 187.363585 157.098473 
L 189.413171 157.657672 
L 191.462758 158.891289 
L 193.512345 159.417855 
L 195.561932 161.614838 
L 197.611519 160.347609 
L 199.661105 160.771049 
L 201.710692 159.965586 
L 203.760279 159.201186 
L 205.809866 160.163245 
L 207.859452 161.031247 
L 209.909039 160.85523 
L 211.958626 160.848845 
L 214.008213 160.288598 
L 216.0578 160.57462 
L 218.107386 159.666834 
L 220.156973 160.204453 
L 222.20656 159.261276 
L 224.256147 158.512668 
L 226.305733 158.08109 
L 228.35532 156.213793 
L 230.404907 154.051659 
L 232.454494 152.692349 
L 234.504081 152.704447 
L 236.553667 152.559117 
L 238.603254 154.179702 
L 240.652841 155.493987 
L 242.702428 156.760018 
L 244.752014 157.086844 
L 246.801601 155.882829 
L 248.851188 153.562672 
L 250.900775 151.605181 
L 252.950362 149.384704 
L 254.999948 148.98473 
L 257.049535 150.09526 
L 259.099122 150.189441 
L 261.148709 152.357553 
L 263.198295 153.024602 
" clip-path="url(#p5c9d45855c)" style="fill: none; stroke: #ff00ff; stroke-width: 2; stroke-linecap: square"/>
   </g>
  </g>
 </g>
 <defs>
  <clipPath id="p5c9d45855c">
   <rect x="50.14375" y="10.999219" width="223.2" height="166.32"/>
  </clipPath>
 </defs>
</svg>
